<svg width="224" height="219" viewBox="0 0 224 219" fill="none"
     xmlns="http://www.w3.org/2000/svg">
    <path fill-rule="evenodd" clip-rule="evenodd"
          d="M112 0C50.1522 0 0 50.1411 0 112C0 161.483 32.0914 203.465 76.5924 218.275C82.1898 219.311 84.2448 215.845 84.2448 212.887C84.2448 210.218 84.141 201.393 84.0927 192.035C52.9342 198.81 46.3594 178.82 46.3594 178.82C41.2646 165.876 33.9238 162.432 33.9238 162.432C23.7621 155.481 34.6898 155.624 34.6898 155.624C45.9365 156.414 51.8585 167.167 51.8585 167.167C61.8478 184.288 78.0595 179.338 84.4507 176.476C85.4578 169.239 88.3585 164.296 91.5615 161.499C66.6848 158.669 40.5339 149.064 40.5339 106.149C40.5339 93.9225 44.9091 83.9295 52.0737 76.0861C50.9108 73.2652 47.0772 61.8737 53.1605 46.4466C53.1605 46.4466 62.5655 43.4383 83.9666 57.9289C92.9006 55.4473 102.482 54.2028 112 54.1583C121.518 54.2028 131.107 55.4473 140.057 57.9289C161.434 43.4383 170.827 46.4466 170.827 46.4466C176.923 61.8737 173.089 73.2652 171.926 76.0861C179.108 83.9295 183.451 93.9225 183.451 106.149C183.451 149.168 157.25 158.638 132.311 161.41C136.328 164.886 139.907 171.702 139.907 182.151C139.907 197.137 139.779 209.198 139.779 212.887C139.779 215.869 141.793 219.36 147.471 218.262C191.949 203.435 224 161.468 224 112C224 50.1411 173.855 0 112 0Z"
          fill="#181717"/>
    <path d="M42.4213 160.488C42.1738 161.045 41.2989 161.214 40.5009 160.831C39.6877 160.465 39.2321 159.705 39.4962 159.147C39.7375 158.576 40.6127 158.416 41.4248 158.798C42.2371 159.163 42.7013 159.93 42.4213 160.488Z"
          fill="#181717"/>
    <path d="M46.9582 165.549C46.4228 166.044 45.3771 165.814 44.6711 165.032C43.9374 164.25 43.8003 163.205 44.3425 162.704C44.895 162.209 45.9065 162.44 46.6388 163.221C47.3734 164.011 47.5162 165.047 46.9582 165.549Z"
          fill="#181717"/>
    <path d="M51.3736 171.999C50.6874 172.477 49.5637 172.031 48.8701 171.033C48.1831 170.036 48.1842 168.842 48.8863 168.364C49.5807 167.884 50.6883 168.317 51.3906 169.304C52.0761 170.316 52.0751 171.51 51.3736 171.999Z"
          fill="#181717"/>
    <path d="M57.4228 178.23C56.8089 178.908 55.5012 178.726 54.5454 177.801C53.5654 176.899 53.2932 175.618 53.907 174.941C54.53 174.261 55.8446 174.452 56.8107 175.369C57.7815 176.27 58.0763 177.561 57.4228 178.23Z"
          fill="#181717"/>
    <path d="M65.7689 181.849C65.4969 182.728 64.239 183.124 62.9705 182.75C61.7028 182.367 60.8744 181.342 61.1315 180.454C61.3946 179.573 62.6584 179.157 63.9371 179.555C65.2011 179.937 66.0329 180.958 65.7689 181.849Z"
          fill="#181717"/>
    <path d="M74.9355 182.519C74.9675 183.444 73.8913 184.209 72.5598 184.226C71.221 184.256 70.1364 183.507 70.1214 182.599C70.1208 181.666 71.1748 180.91 72.5119 180.886C73.8433 180.86 74.9351 181.603 74.9355 182.519Z"
          fill="#181717"/>
    <path d="M83.4635 181.069C83.6245 181.969 82.6987 182.894 81.3768 183.141C80.0762 183.38 78.8725 182.821 78.7074 181.929C78.5462 181.006 79.4869 180.08 80.7857 179.842C82.1105 179.611 83.296 180.153 83.4635 181.069Z"
          fill="#181717"/>
</svg>
