<svg width="209" height="209" viewBox="0 0 209 209" fill="none" xmlns="http://www.w3.org/2000/svg">
<path d="M192.568 160.131C189.42 165.109 185.925 169.72 182.121 173.967C179.417 177 176.557 179.839 173.563 182.497C173.332 182.699 173.091 182.911 172.86 183.112C172.388 183.517 171.917 183.921 171.444 184.316C171.088 184.615 170.723 184.913 170.357 185.212C170.011 185.491 169.664 185.771 169.317 186.049L169.288 186.068C167.429 187.552 165.533 188.957 163.597 190.285C163.289 190.497 162.972 190.709 162.655 190.912C162.019 191.344 161.373 191.768 160.729 192.183C160.064 192.607 159.4 193.02 158.727 193.433C158.38 193.645 158.033 193.848 157.687 194.051C157.147 194.377 156.588 194.704 156.04 195.013L155.992 195.041C155.453 195.349 154.895 195.659 154.345 195.956C153.941 196.177 153.528 196.399 153.093 196.611L152.959 196.679C151.765 197.304 150.561 197.911 149.339 198.479C148.531 198.873 147.712 199.249 146.893 199.605C146.663 199.711 146.421 199.817 146.181 199.923L145.912 200.039L145.593 200.173C145.353 200.279 145.112 200.385 144.872 200.481C144.169 200.771 143.476 201.059 142.764 201.329L142.436 201.464C142.137 201.569 141.848 201.685 141.551 201.791L141.405 201.848L141.232 201.916C140.963 202.031 140.673 202.128 140.395 202.233C140.212 202.301 140.028 202.368 139.836 202.436C139.712 202.484 139.585 202.532 139.451 202.58L139.124 202.696C138.527 202.908 137.931 203.111 137.324 203.312C136.485 203.581 135.648 203.851 134.811 204.101L134.781 204.111L134.473 204.208C134.291 204.265 134.108 204.313 133.925 204.371L133.723 204.429C133.328 204.544 132.933 204.651 132.539 204.765L132.269 204.833C132.076 204.891 131.875 204.94 131.672 204.997C131.471 205.055 131.277 205.103 131.075 205.151C130.632 205.267 130.18 205.383 129.737 205.497C129.603 205.527 129.468 205.565 129.333 205.593L129.024 205.671C128.417 205.815 127.801 205.96 127.195 206.104C126.955 206.163 126.713 206.211 126.464 206.257C125.915 206.384 125.365 206.499 124.817 206.605L124.759 206.615L124.461 206.672C123.623 206.836 122.776 206.989 121.939 207.125C120.417 207.385 118.896 207.607 117.365 207.789C117.028 207.837 116.691 207.876 116.355 207.915C115.767 207.981 115.189 208.039 114.601 208.087C114.236 208.125 113.871 208.165 113.504 208.193C112.868 208.261 112.252 208.3 111.617 208.337C110.992 208.396 110.365 208.424 109.74 208.444C108.739 208.511 107.747 208.531 106.745 208.549H106.725C106.524 208.559 106.312 208.569 106.12 208.559L105.975 208.569C105.744 208.579 105.513 208.579 105.281 208.569C105.06 208.579 104.839 208.588 104.608 208.588C104.339 208.588 104.069 208.588 103.8 208.579C103.625 208.579 103.444 208.569 103.269 208.569C102.375 208.559 101.469 208.54 100.575 208.492C98.9947 208.435 97.4254 208.337 95.856 208.212C95.568 208.184 95.2694 208.165 94.98 208.125C94.5854 208.087 94.1814 208.049 93.7867 208C91.7747 207.808 89.772 207.539 87.7694 207.212C86.9987 207.077 86.2187 206.943 85.448 206.797C85.208 206.749 84.9574 206.701 84.7067 206.653C84.4854 206.615 84.264 206.576 84.0427 206.537L83.8027 206.48C83.4267 206.403 83.0614 206.325 82.6667 206.239L82.348 206.172C81.9054 206.075 81.4814 205.979 81.0391 205.873H81.0292C79.4219 205.497 77.814 205.084 76.2156 204.631C76.0522 204.583 75.8979 204.535 75.7432 204.496L75.3974 204.391C73.5579 203.851 71.7292 203.264 69.9094 202.609C69.6396 202.513 69.3697 202.417 69.1099 202.32C68.7245 202.185 68.3495 202.041 67.974 201.896C67.4927 201.713 67.011 201.531 66.5303 201.339C66.2126 201.213 65.9036 201.088 65.5959 200.963C65.3746 200.876 65.1531 200.789 64.9418 200.693C64.8068 200.636 64.6807 200.587 64.5464 200.529L64.4891 200.5L64.2579 200.404L64.0459 200.317L63.786 200.212C63.4584 200.077 63.1307 199.933 62.7943 199.779C62.6593 199.721 62.5344 199.664 62.4088 199.596C62.0912 199.451 61.7735 199.316 61.4656 199.163C61.1771 199.037 60.888 198.912 60.6088 198.777C60.3875 198.681 60.1662 198.575 59.9438 198.479C59.4823 198.248 59.0303 198.027 58.5765 197.805C58.2021 197.612 57.826 197.42 57.4506 197.227L57.2391 197.121C56.8052 196.909 56.3724 196.668 55.9484 196.447L55.8235 196.38L55.6407 196.275C55.188 196.043 54.7454 195.803 54.3022 195.561C54.0907 195.445 53.8885 195.331 53.6765 195.205L53.523 195.119C53.2527 194.965 52.9828 194.811 52.7136 194.647L52.5307 194.541C52.262 194.396 51.9918 194.243 51.7219 194.079C51.4719 193.925 51.2115 193.78 50.9615 193.616L50.9235 193.588L50.6724 193.444C50.5474 193.367 50.4224 193.289 50.2973 193.212C50.0568 193.068 49.8156 192.924 49.585 192.779C49.4303 192.683 49.2766 192.587 49.1224 192.491C48.9688 192.393 48.8047 192.288 48.6511 192.192C48.3334 191.989 48.0151 191.777 47.7079 191.576L47.524 191.451L47.3803 191.355L47.226 191.248L47.1396 191.191L47.1011 191.171C46.8214 190.999 46.562 190.825 46.3016 190.623C45.9646 190.42 45.6474 190.199 45.3298 189.968L45.262 189.919L45.1464 189.843C45.0022 189.737 44.8672 189.64 44.7323 189.544C44.5974 189.448 44.4631 189.361 44.338 189.275C44.1255 189.12 43.914 188.976 43.7115 188.832L43.6448 188.775C42.836 188.196 42.0464 187.609 41.276 187.003C40.7656 186.617 40.2651 186.232 39.764 185.837C39.1672 185.356 38.5604 184.865 37.9735 184.373L37.6938 184.143C36.8667 183.46 36.0479 182.747 35.2584 182.015C34.6229 181.457 33.9973 180.879 33.3807 180.292C33.1979 180.128 33.0251 179.964 32.8516 179.791C32.3698 179.348 31.9079 178.896 31.4459 178.433C31.1568 178.164 30.8776 177.885 30.5989 177.596L30.5891 177.587C30.0208 177.019 29.4625 176.431 28.914 175.844L28.6636 175.584L28.6151 175.527C28.2781 175.169 27.9417 174.813 27.624 174.448C27.0073 173.773 26.4099 173.1 25.8328 172.407C25.6307 172.195 25.4479 171.973 25.2651 171.761C23.7052 169.904 22.1932 168.007 20.7683 166.052C19.9694 164.955 19.1896 163.848 18.4292 162.721C18.2943 162.528 18.1688 162.336 18.0344 162.143C17.8224 161.825 17.6104 161.499 17.3984 161.171L17.3511 161.084C16.1953 159.303 15.088 157.483 14.0579 155.635C13.9328 155.432 13.8073 155.201 13.7021 154.971C12.9697 153.691 12.2964 152.381 11.6412 151.061C11.2079 150.185 10.7844 149.329 10.3703 148.452C8.95522 145.381 7.68441 142.261 6.56721 139.084C6.05735 137.611 5.56615 136.139 5.12295 134.637C5.08495 134.521 5.04641 134.405 5.01775 134.28C4.93028 133.972 4.83495 133.673 4.73801 133.356C4.49735 132.519 4.26615 131.671 4.04481 130.833C-2.95412 103.963 0.75215 74.3653 16.7631 49.0453C47.4375 0.490626 111.665 -13.9893 160.209 16.6853C208.763 47.36 223.243 111.587 192.568 160.131Z" fill="#F7F2DA"/>
<path d="M66.5584 172.021L52.6464 194.348L52.5307 194.541C52.262 194.396 51.9918 194.243 51.7219 194.079C51.4719 193.925 51.2115 193.78 50.9615 193.616L50.9235 193.588L50.6724 193.444C50.5474 193.367 50.4224 193.289 50.2974 193.212C50.0568 193.068 49.8156 192.924 49.585 192.779C49.4303 192.683 49.2766 192.587 49.1224 192.491C48.9688 192.393 48.8047 192.288 48.6511 192.192C48.3334 191.989 48.0151 191.777 47.7079 191.576L47.524 191.451L47.3803 191.355L47.226 191.248L47.1396 191.191L47.1011 191.171C46.8214 190.999 46.562 190.825 46.3016 190.623C45.9646 190.42 45.6474 190.199 45.3298 189.968L45.262 189.919L45.1464 189.843C45.0022 189.737 44.8672 189.64 44.7323 189.544C44.5974 189.448 44.4631 189.361 44.338 189.275C44.1255 189.12 43.914 188.976 43.7115 188.832L43.6448 188.775C42.836 188.196 42.0464 187.609 41.276 187.003C40.7656 186.617 40.2651 186.232 39.764 185.837C39.1672 185.356 38.5604 184.865 37.9735 184.373L37.6938 184.143C36.8667 183.46 36.0479 182.747 35.2584 182.015C34.623 181.457 33.9974 180.879 33.3807 180.292C33.1979 180.128 33.0251 179.964 32.8516 179.791C32.3698 179.348 31.9079 178.896 31.4459 178.433C31.1568 178.164 30.8776 177.885 30.599 177.596L30.5891 177.587C30.0208 177.019 29.4626 176.431 28.914 175.844L28.6636 175.584L28.6151 175.527C28.2782 175.169 27.9418 174.813 27.624 174.448C28.086 174.168 28.5474 173.899 29.0194 173.639C29.636 173.292 30.2522 172.965 30.8776 172.657C31.5615 172.311 32.2448 171.993 32.938 171.684C35.8938 170.385 38.9459 169.403 42.0943 168.805L42.4407 168.739C46.3115 168.045 50.2974 167.911 54.3599 168.44C54.5527 168.469 54.736 168.497 54.9287 168.517L55.0531 168.545C55.2167 168.565 55.3807 168.593 55.5443 168.613C56.1312 168.709 56.7188 168.825 57.3068 168.941C57.4798 168.979 57.6631 169.017 57.836 169.056C58.0088 169.095 58.1922 169.133 58.3651 169.181C61.0803 169.816 63.8146 170.76 66.5584 172.021Z" fill="#FBA479"/>
<path d="M173.563 182.497C173.332 182.699 173.091 182.911 172.86 183.112C172.388 183.517 171.917 183.921 171.444 184.316C171.088 184.615 170.723 184.913 170.357 185.212C170.011 185.491 169.664 185.771 169.317 186.049L169.288 186.068C167.429 187.552 165.533 188.957 163.597 190.285C163.289 190.497 162.972 190.709 162.655 190.912C162.019 191.344 161.373 191.768 160.729 192.183C160.064 192.607 159.4 193.02 158.727 193.433C158.38 193.645 158.033 193.848 157.687 194.051C157.147 194.377 156.588 194.704 156.04 195.013L155.992 195.041C155.453 195.349 154.895 195.659 154.345 195.956C153.941 196.177 153.528 196.399 153.093 196.611L152.959 196.679C151.765 197.304 150.561 197.911 149.339 198.479C148.531 198.873 147.712 199.249 146.893 199.605C146.663 199.711 146.421 199.817 146.181 199.923L145.912 200.039L145.593 200.173C145.353 200.279 145.112 200.385 144.872 200.481C144.169 200.771 143.476 201.059 142.764 201.329L142.436 201.464C142.137 201.569 141.848 201.685 141.551 201.791L141.405 201.848L141.232 201.916C140.963 202.031 140.673 202.128 140.395 202.233C140.212 202.301 140.028 202.368 139.836 202.436C139.712 202.484 139.585 202.532 139.451 202.58L139.124 202.696C138.527 202.908 137.931 203.111 137.324 203.312C136.485 203.581 135.648 203.851 134.811 204.101L134.781 204.111L134.473 204.208C134.291 204.265 134.108 204.313 133.925 204.371L133.723 204.429C133.328 204.544 132.933 204.651 132.539 204.765L132.269 204.833C132.076 204.891 131.875 204.94 131.672 204.997C131.471 205.055 131.277 205.103 131.075 205.151C130.632 205.267 130.18 205.383 129.737 205.497C129.603 205.527 129.468 205.565 129.333 205.593L129.024 205.671C128.417 205.815 127.801 205.96 127.195 206.104C126.955 206.163 126.713 206.211 126.464 206.257C125.915 206.384 125.365 206.499 124.817 206.605L124.759 206.615L124.461 206.672C123.623 206.836 122.776 206.989 121.939 207.125C120.417 207.385 118.896 207.607 117.365 207.789C117.028 207.837 116.691 207.876 116.355 207.915C115.767 207.981 115.189 208.039 114.601 208.087C114.236 208.125 113.871 208.165 113.504 208.193C112.868 208.261 112.252 208.3 111.617 208.337C110.992 208.396 110.365 208.424 109.74 208.444C108.739 208.511 107.747 208.531 106.745 208.549H106.725C106.524 208.559 106.312 208.569 106.12 208.559L105.975 208.569C105.744 208.579 105.513 208.579 105.281 208.569C105.06 208.579 104.839 208.588 104.608 208.588C104.339 208.588 104.069 208.588 103.8 208.579C103.625 208.579 103.444 208.569 103.269 208.569C102.375 208.559 101.469 208.54 100.575 208.492C98.9946 208.435 97.4253 208.337 95.856 208.212C95.568 208.184 95.2693 208.165 94.98 208.125C94.5853 208.087 94.1813 208.049 93.7866 208C91.7746 207.808 89.772 207.539 87.7693 207.212C86.9986 207.077 86.2186 206.943 85.448 206.797C85.208 206.749 84.9573 206.701 84.7066 206.653C84.4853 206.615 84.264 206.576 84.0426 206.537L83.8026 206.48C83.4266 206.403 83.0613 206.325 82.6666 206.239L82.348 206.172C81.9053 206.075 81.4813 205.979 81.039 205.873H81.0292C79.4218 205.497 77.814 205.084 76.2156 204.631C76.0521 204.583 75.8978 204.535 75.7432 204.496L75.3973 204.391C73.5578 203.851 71.7292 203.264 69.9093 202.609C69.6396 202.513 69.3697 202.417 69.1098 202.32C68.7245 202.185 68.3494 202.041 67.974 201.896C67.4926 201.713 67.0109 201.531 66.5302 201.339C66.2125 201.213 65.9036 201.088 65.5958 200.963C65.3745 200.876 65.153 200.789 64.9417 200.693C64.8068 200.636 64.6806 200.587 64.5464 200.529L64.489 200.5L64.2578 200.404L64.0458 200.317L63.786 200.212C63.4584 200.077 63.1306 199.933 62.7942 199.779C62.6593 199.721 62.5344 199.664 62.4088 199.596C62.0912 199.451 61.7734 199.316 61.4656 199.163C61.177 199.037 60.888 198.912 60.6088 198.777C60.3874 198.681 60.1661 198.575 59.9437 198.479C59.4822 198.248 59.0302 198.027 58.5765 197.805C58.2021 197.612 57.826 197.42 57.4505 197.227L57.239 197.121C56.8052 196.909 56.3724 196.668 55.9484 196.447L55.8234 196.38L55.6406 196.275C55.188 196.043 54.7453 195.803 54.3021 195.561C54.0906 195.445 53.8885 195.331 53.6765 195.205L53.5229 195.119C53.2526 194.965 52.9828 194.811 52.7136 194.647L52.5306 194.541C52.262 194.396 51.9917 194.243 51.7218 194.079C51.4718 193.925 51.2114 193.78 50.9614 193.616L50.9234 193.588L50.6724 193.444C50.5473 193.367 50.4224 193.289 50.2973 193.212C50.0568 193.068 49.8156 192.924 49.5849 192.779C49.4302 192.683 49.2765 192.587 49.1224 192.491C48.9688 192.393 48.8046 192.288 48.651 192.192C48.3333 191.989 48.015 191.777 47.7078 191.576L47.524 191.451L47.3802 191.355L47.226 191.248L47.1396 191.191L47.101 191.171C46.8213 190.999 46.562 190.825 46.3016 190.623C45.9645 190.42 45.6473 190.199 45.3297 189.968L45.262 189.919L45.1464 189.843C45.0021 189.737 44.8672 189.64 44.7322 189.544C44.5973 189.448 44.463 189.361 44.338 189.275C44.1254 189.12 43.914 188.976 43.7114 188.832L43.6448 188.775C42.836 188.196 42.0464 187.609 41.276 187.003C40.7656 186.617 40.265 186.232 39.764 185.837C39.1672 185.356 38.5604 184.865 37.9734 184.373L37.6937 184.143C36.8666 183.46 36.0478 182.747 35.2584 182.015C34.6229 181.457 33.9973 180.879 33.3806 180.292C33.1978 180.128 33.025 179.964 32.8516 179.791C35.2197 175.785 38.4354 172.128 42.0942 168.805L42.2478 168.661C43.6349 167.409 45.0885 166.207 46.5806 165.051C46.7062 164.955 46.8312 164.849 46.9661 164.752C47.0912 164.647 47.226 164.551 47.351 164.453C48.4869 163.597 49.6426 162.759 50.8073 161.951C52.3093 160.911 53.8406 159.909 55.3614 158.956C62.8328 154.268 70.3328 150.58 75.5901 147.807C76.5136 147.316 77.3708 146.855 78.1412 146.421C78.6989 146.112 79.2093 145.815 79.6718 145.535C79.913 145.391 80.1437 145.247 80.3557 145.111C80.5864 144.968 80.7978 144.823 80.9912 144.688L81.0869 144.697C82.1453 144.832 83.2826 145.016 84.4466 145.247L85.0346 145.863L85.632 146.488L88.9146 149.925L91.688 152.824L92.0253 153.18L92.3706 153.545L101.401 163L101.488 162.827L109.065 148.347L112.416 141.953C112.879 142.56 114.044 143.205 115.757 143.927C118.144 144.919 121.583 146.045 125.616 147.393C131.209 149.28 137.94 151.581 144.583 154.537L144.68 154.585C149.571 156.761 154.393 159.303 158.688 162.288L158.928 162.461L159.005 162.519C166.341 167.689 172.032 174.197 173.563 182.497Z" fill="#FBA479"/>
<path d="M159.053 162.451L159.005 162.519C158.033 163.924 157.167 165.465 156.387 167.121C151.784 176.759 150.139 189.939 149.339 198.479C148.531 198.873 147.712 199.249 146.893 199.605C146.663 199.711 146.421 199.817 146.181 199.923L145.912 200.039L145.593 200.173C145.353 200.279 145.112 200.385 144.872 200.481C144.169 200.771 143.476 201.059 142.764 201.329L142.436 201.464C142.137 201.569 141.848 201.685 141.551 201.791L141.405 201.848L141.232 201.916C140.963 202.031 140.673 202.128 140.395 202.233C140.212 202.301 140.028 202.368 139.836 202.436C139.712 202.484 139.585 202.532 139.451 202.58L139.124 202.696C138.527 202.908 137.931 203.111 137.324 203.312C136.485 203.581 135.648 203.851 134.811 204.101L134.781 204.111L134.473 204.208C134.291 204.265 134.108 204.313 133.925 204.371L133.723 204.429C133.328 204.544 132.933 204.651 132.539 204.765L132.269 204.833C132.076 204.891 131.875 204.94 131.672 204.997C131.471 205.055 131.277 205.103 131.075 205.151C130.632 205.267 130.18 205.383 129.737 205.497C129.603 205.527 129.468 205.565 129.333 205.593L129.024 205.671C128.417 205.815 127.801 205.96 127.195 206.104C126.955 206.163 126.713 206.211 126.464 206.257C125.915 206.384 125.365 206.499 124.817 206.605L124.759 206.615L124.461 206.672C123.623 206.836 122.776 206.989 121.939 207.125C120.417 207.385 118.896 207.607 117.365 207.789C117.028 207.837 116.691 207.876 116.355 207.915C115.767 207.981 115.189 208.039 114.601 208.087C114.236 208.125 113.871 208.165 113.504 208.193C112.868 208.261 112.252 208.3 111.617 208.337C110.992 208.396 110.365 208.424 109.74 208.444C108.739 208.511 107.747 208.531 106.745 208.549H106.725C106.524 208.559 106.312 208.569 106.12 208.559L105.975 208.569C105.744 208.579 105.513 208.579 105.281 208.569C105.06 208.579 104.839 208.588 104.608 208.588C104.339 208.588 104.069 208.588 103.8 208.579C103.625 208.579 103.444 208.569 103.269 208.569C102.375 208.559 101.469 208.54 100.575 208.492C98.9947 208.435 97.4254 208.337 95.856 208.212C95.568 208.184 95.2694 208.165 94.98 208.125C94.5854 208.087 94.1814 208.049 93.7867 208C91.7747 207.808 89.772 207.539 87.7694 207.212C86.9987 207.077 86.2187 206.943 85.448 206.797C85.208 206.749 84.9574 206.701 84.7067 206.653C84.4854 206.615 84.264 206.576 84.0427 206.537L83.8027 206.48C83.4267 206.403 83.0614 206.325 82.6667 206.239L82.348 206.172C81.9054 206.075 81.4814 205.979 81.0391 205.873H81.0292C79.4219 205.497 77.814 205.084 76.2156 204.631C76.0522 204.583 75.8979 204.535 75.7432 204.496L75.3974 204.391C73.5579 203.851 71.7292 203.264 69.9094 202.609C69.6396 202.513 69.3698 202.417 69.1099 202.32C68.7246 202.185 68.3495 202.041 67.974 201.896C67.4927 201.713 67.011 201.531 66.5303 201.339C66.2126 201.213 65.9036 201.088 65.5959 200.963C65.3746 200.876 65.1531 200.789 64.9418 200.693C64.8068 200.636 64.6807 200.587 64.5464 200.529L64.4891 200.5L64.2579 200.404L64.0459 200.317L63.786 200.212C63.4584 200.077 63.1307 199.933 62.7943 199.779C62.6594 199.721 62.5344 199.664 62.4088 199.596C62.0912 199.451 61.7735 199.316 61.4656 199.163C61.1771 199.037 60.888 198.912 60.6088 198.777C60.3875 198.681 60.1662 198.575 59.9438 198.479C59.4823 198.248 59.0303 198.027 58.5766 197.805C58.2022 197.612 57.826 197.42 57.4506 197.227L57.2391 197.121C56.8052 196.909 56.3724 196.668 55.9484 196.447L55.8235 196.38L55.6407 196.275C55.188 196.043 54.7454 195.803 54.3022 195.561C54.0907 195.445 53.8886 195.331 53.6766 195.205L53.523 195.119C53.2527 194.965 52.9828 194.811 52.7136 194.647L52.6464 194.348C52.5886 194.069 52.5214 193.789 52.4536 193.501C50.4511 185.028 47.3604 175.305 42.4407 168.739L42.374 168.652C46.388 165.032 50.9328 161.807 55.4864 158.947C64.3156 170.952 81.472 178.684 100.844 177.836C120.456 176.98 137.055 167.564 144.68 154.585L144.708 154.537C149.637 156.732 154.519 159.293 158.852 162.307L159.053 162.451Z" fill="white"/>
<path d="M104.551 188.34C104.243 191.807 104.243 199.952 103.8 208.579C104.069 208.588 104.339 208.588 104.608 208.588C104.839 208.588 105.06 208.579 105.281 208.569C105.513 208.579 105.744 208.579 105.975 208.569L106.12 208.559C106.312 208.569 106.524 208.559 106.725 208.549C105.484 200.183 104.715 192.115 104.551 188.34Z" fill="#E1DFEA"/>
<path d="M162.655 190.912C162.019 191.344 161.373 191.768 160.729 192.183C160.064 192.607 159.4 193.02 158.727 193.433C158.38 193.645 158.033 193.848 157.687 194.051L156.387 167.121L156.137 162.019C157.003 162.085 157.851 162.172 158.688 162.288L158.852 162.307C168.441 163.627 176.172 167.853 182.121 173.967C179.417 177 176.557 179.839 173.563 182.497C173.332 182.699 173.091 182.911 172.86 183.112C172.388 183.517 171.917 183.921 171.444 184.316C171.088 184.615 170.723 184.913 170.357 185.212C170.011 185.491 169.664 185.771 169.317 186.049L169.288 186.068C167.429 187.552 165.533 188.957 163.597 190.285C163.289 190.497 162.972 190.709 162.655 190.912Z" fill="#FBA479"/>
<path d="M70.7 108.801C75.0943 93.3707 82.1933 76.8481 86.4227 62.0054C86.4227 62.0054 102.019 55.8934 104.336 55.6561C105.784 55.5067 107.255 55.5001 108.712 55.6334C110.132 55.9814 111.52 56.4641 112.843 57.0761C114.956 58.0561 127.72 68.9027 127.72 68.9027C126.895 84.3147 127.685 101.14 126.828 117.16C126.479 123.693 124.537 131.261 118.821 134.983C110.591 140.343 110.564 149.292 99.268 147.405C82.648 144.629 78.2197 129.98 74.5213 123.329C71.2041 117.369 68.9079 115.089 70.7 108.801Z" fill="#FBA479"/>
<path d="M100.153 84.8587C99.4667 84.4347 98.1547 83.712 98.1547 83.712L95.9427 85.0147C95.9427 85.0147 96.3013 82.928 95.9173 82.7507C85.784 78.0533 81.7933 83.0387 81.7933 83.0387C84.7947 83.4173 87.8053 84.2093 90.6227 85.5066C94.4893 87.2893 96.544 89.1293 97.9933 91.7733C98.9267 89.6133 99.7213 87.3373 100.153 84.8587Z" fill="#261411"/>
<path d="M108.829 86.0654C109.605 85.8454 111.065 85.508 111.065 85.508L112.837 87.364C112.837 87.364 113.061 85.26 113.479 85.1947C124.511 83.4413 126.989 89.3267 126.989 89.3267C123.997 88.8707 120.887 88.8107 117.821 89.2907C113.613 89.9494 111.136 91.16 109.02 93.3054C108.711 90.9747 108.567 88.5681 108.829 86.0654Z" fill="#261411"/>
<path d="M82.5239 93.5706L82.5306 93.5867C82.5653 93.708 82.6106 93.8293 82.6573 93.948C84.3013 97.7773 93.6479 99.6227 96.7319 97.992C96.5346 93.7333 95.1253 89.8334 90.5106 90.1467C86.3293 90.4307 84.1973 90.4174 82.5373 93.544L82.5239 93.5706Z" fill="white"/>
<path d="M92.6826 95.1161C92.2386 97.1841 90.8599 98.72 89.3333 99.0374C88.9426 99.1214 88.5439 99.1227 88.1479 99.0361C86.1999 98.6041 85.0679 96.1521 85.6239 93.5574C86.1799 90.9627 88.2106 89.2067 90.1573 89.6374C91.9293 90.0294 93.0266 92.0934 92.7919 94.4174C92.7693 94.6494 92.7333 94.8814 92.6826 95.1161Z" fill="#60312B"/>
<path d="M92.6827 95.116C92.2387 97.184 90.8601 98.72 89.3334 99.0373C88.8587 98.36 88.6654 97.3653 88.8867 96.336C89.2427 94.6707 90.5454 93.5453 91.7961 93.82C92.1854 93.9066 92.5227 94.1186 92.7921 94.4173C92.7694 94.6493 92.7334 94.8813 92.6827 95.116Z" fill="#261411"/>
<path d="M94.1267 94.784L90.848 95.2934C90.848 95.2934 93.236 96.9453 94.592 97.1747C94.5013 96.3693 94.332 95.5733 94.1267 94.784Z" fill="white"/>
<path d="M82.6573 93.948C83.3107 95.8094 86.812 103.8 96.7707 98.3187C97.7627 95.4227 97.168 87.0281 89.3054 86.2907C83.6707 85.7627 82.72 93.0307 82.5694 93.4454L82.5374 93.5441C84.1974 90.4174 88.0867 90.3054 90.4307 90.72C95.0773 91.5454 95.8773 93.8227 96.732 97.992C93.648 99.6227 84.3013 97.7774 82.6573 93.948Z" fill="#EF7950"/>
<path d="M123.785 99.5881L123.776 99.6014L123.567 99.8988C121.069 102.975 112.045 102.236 109.647 99.9441C110.932 96.1028 113.233 92.9014 117.371 94.3854C121.121 95.7294 123.075 96.2721 123.781 99.5614L123.785 99.5881Z" fill="white"/>
<path d="M116.561 102.676C116.296 102.747 116.02 102.775 115.741 102.757C113.848 102.645 112.444 100.515 112.611 97.9987C112.776 95.4787 114.447 93.5307 116.34 93.6414C118.173 93.7507 119.547 95.752 119.481 98.1667L119.471 98.4027C119.328 100.547 118.095 102.277 116.561 102.676Z" fill="#60312B"/>
<path d="M116.561 102.676C115.949 102.128 115.579 101.168 115.648 100.097C115.753 98.4853 116.825 97.2333 118.041 97.304C118.616 97.3386 119.12 97.6613 119.481 98.1667L119.471 98.4027C119.328 100.547 118.095 102.277 116.561 102.676Z" fill="#261411"/>
<path d="M120.913 98.2187L117.937 98.6814C117.937 98.6814 119.44 99.7201 120.695 100.224C120.777 99.5561 120.843 98.8881 120.913 98.2187Z" fill="white"/>
<path d="M123.567 99.8987C122.485 101.432 117.211 107.831 109.527 100.235C109.371 97.328 112.092 89.8054 119.473 91.1721C124.764 92.1507 123.748 99.0441 123.777 99.4627L123.781 99.5614C123.075 96.272 120.307 95.144 118.056 94.9174C113.595 94.4654 111.511 96.3547 109.647 99.9441C112.045 102.236 121.069 102.975 123.567 99.8987Z" fill="#EF7950"/>
<path d="M108.311 109.825C109.357 109.873 110.247 110.423 110.279 111.559C110.336 113.536 107.04 113.849 105.512 114.223C102.637 114.924 98.76 114.199 96.6213 112.125C103.753 113.944 108.311 109.825 108.311 109.825Z" fill="#EF7950"/>
<path d="M112.024 91.7881C112.024 91.7881 107.201 103.663 107.984 111.893C105.771 108.58 105.444 98.0788 112.024 91.7881Z" fill="#EF7950"/>
<path d="M83.5041 57.7786C84.3974 56.6373 103.704 41.3453 138.145 49.7306C142.02 50.6733 132.073 64.232 132.073 64.232C127.572 71.0293 110.981 71.8493 109.824 71.5333C108.893 71.28 94.5361 60.4866 93.6414 60.0399C84.4121 71.9573 75.4979 96.9293 74.4792 97.688C75.1766 93.892 74.347 69.4839 83.5041 57.7786Z" fill="#261411"/>
<path d="M126.339 98.3974C128.101 95.8827 133.637 95.7867 135.609 98.1093C137.803 100.692 132.615 113.089 129.779 112.885C123.192 112.411 126.339 98.3974 126.339 98.3974Z" fill="#FBA479"/>
<path d="M126.513 105.155C126.481 104.195 126.455 103.119 126.565 102.163C126.623 101.649 126.785 101.104 126.901 100.612C126.963 100.347 127.067 100.009 127.172 99.8321C128.153 98.1481 130.187 98.2441 131.617 98.2001C132.212 98.1828 133.239 98.1615 133.733 98.4988C134.127 98.7628 134.288 99.4134 134.497 99.8067C133.424 98.5561 130.833 98.9961 129.535 99.7254C128.18 100.487 127.575 102.847 127.948 104.321C129.168 104.271 130.167 105.704 129.947 106.833C129.729 107.957 127.449 108.448 127.171 107.32C129.136 107.067 127.64 105.403 126.513 105.155Z" fill="#EF7950"/>
<path d="M78.4861 90.3147C77.2949 87.184 71.4694 85.6027 68.7637 87.5321C65.7537 89.6761 67.9251 104.167 70.9771 104.711C78.0662 105.971 78.4861 90.3147 78.4861 90.3147Z" fill="#FBA479"/>
<path d="M76.4953 97.4107C76.786 96.4054 77.1016 95.2774 77.2401 94.2347C77.315 93.6774 77.2896 93.0574 77.2994 92.5067C77.3041 92.208 77.2844 91.8254 77.2229 91.6094C76.6349 89.5667 74.4614 89.1254 72.9562 88.6947C72.336 88.5174 71.2552 88.2227 70.6426 88.4441C70.153 88.6201 69.8098 89.2654 69.4844 89.6241C70.953 88.5881 73.575 89.7468 74.753 90.8628C75.9797 92.0321 75.9912 94.688 75.201 96.148C73.9245 95.768 72.4869 97.016 72.4172 98.268C72.3453 99.5147 74.625 100.643 75.2208 99.5254C73.2114 98.7321 75.2369 97.3721 76.4953 97.4107Z" fill="#EF7950"/>
<path d="M127.693 67.2014C128.672 66.928 131.847 61.2521 132.321 62.4521C132.876 63.8561 128.712 92.9281 127.425 99.2961C126.659 89.8161 123.581 77.6454 123.029 68.2547L127.693 67.2014Z" fill="#261411"/>
<path d="M131.152 141.023C129.603 144.596 116.041 156.744 105.287 162.295C104.105 162.903 102.96 163.432 101.868 163.863C101.457 164.024 101.056 164.171 100.661 164.304C98.74 164.948 97.0214 165.236 95.6254 165.041C94.2974 164.857 92.7227 164.139 91.0027 163.02C90.6414 162.787 90.2734 162.535 89.8974 162.265C89.036 161.645 88.1414 160.939 87.2294 160.161C77.7516 152.089 66.2812 136.399 65.5579 130.991C64.188 120.751 76.547 94.1533 76.547 94.1533C76.0022 98.0733 74.4328 120.555 82.256 132.22C84.528 135.609 87.5934 138.085 91.704 138.929C94.1454 139.431 96.4094 138.412 97.8307 136.213L97.8427 136.073C97.9454 134.767 98.072 133.468 98.2347 132.177C98.292 131.711 98.3547 131.244 98.424 130.777L101.819 131.251C101.768 131.647 101.713 132.04 101.653 132.439C101.457 133.757 101.223 135.076 100.959 136.399L100.932 136.539C101.705 139.024 103.6 140.611 106.075 140.793C110.401 141.115 113.833 139.316 116.559 136.296C125.552 126.347 126.885 103.176 127.425 99.296C127.425 99.296 135.265 131.545 131.152 141.023Z" fill="#261411"/>
<path d="M84.7134 117.704C86.596 120.961 94.4534 128.441 101.143 129.053C106.305 129.525 113.36 123.833 115.668 121.831C113.635 121.791 110.004 121.477 108.204 121.315C106.184 121.128 89.8707 119.589 84.7134 117.704Z" fill="#60281F"/>
<path d="M113.397 121.343L113.187 121.643C113.069 121.807 112.947 121.968 112.825 122.133C111.945 123.275 110.887 124.349 109.747 124.808L109.6 124.859C107.621 125.435 99.6107 124.423 94.4627 123.537C92.408 123.184 90.8067 122.852 90.2267 122.649L90.204 122.641L90.04 122.571C88.6507 121.741 87.8053 119.685 87.12 117.996C92.6107 119.303 103.216 120.521 110.172 121.1C111.111 121.179 111.979 121.247 112.759 121.3C112.983 121.313 113.195 121.328 113.397 121.343Z" fill="white"/>
<path d="M113.187 121.643C113.069 121.807 112.947 121.968 112.825 122.133C111.955 123.283 110.917 124.388 109.747 124.808L109.6 124.859C107.621 125.435 99.6107 124.423 94.4627 123.537C92.408 123.184 90.8067 122.852 90.2267 122.649L90.204 122.641L90.04 122.571C92.0134 122.732 107.648 124.249 108.332 124.073C108.792 123.959 108.749 123.956 108.996 123.565C109.451 122.832 109.881 121.956 110.172 121.1C111.111 121.179 111.979 121.247 112.759 121.3L113.187 121.643Z" fill="#E8E6E6"/>
<path d="M113.129 121.707V121.716H113.139V121.707H113.129ZM115.285 122.159C115.025 122.38 114.717 122.64 114.38 122.909L114.313 122.968L113.996 123.217L113.735 123.429L113.648 123.487L113.552 123.564L113.253 123.796L113.187 123.844L112.945 124.027L112.619 124.267L112.281 124.508L111.944 124.749L111.772 124.884L111.685 124.941L111.665 124.951L111.597 124.999L111.241 125.24L111.001 125.403C110.876 125.491 110.751 125.567 110.625 125.653L110.616 125.664L110.5 125.731C110.347 125.836 110.183 125.933 110.019 126.029C109.797 126.173 109.576 126.308 109.345 126.452C109.028 126.636 108.709 126.819 108.392 126.992H108.383L108.267 127.059L107.997 127.204L107.813 127.291L107.584 127.416L107.525 127.444C107.381 127.512 107.247 127.58 107.101 127.647C106.957 127.715 106.804 127.781 106.659 127.849C106.409 127.955 106.159 128.06 105.908 128.157L105.869 128.176C105.619 128.272 105.368 128.368 105.128 128.445L105.119 128.455L105.032 128.484L104.973 128.503L104.936 128.513L104.627 128.609C104.493 128.648 104.367 128.687 104.232 128.724C104.097 128.763 103.972 128.792 103.848 128.821L103.713 128.851C103.549 128.889 103.385 128.917 103.221 128.947L103.183 128.956L103.077 128.965C102.913 128.995 102.74 129.013 102.577 129.033L102.229 129.061H102.22L102.085 129.072L101.951 129.081V129.072L101.835 129.081L101.547 129.072C101.412 129.072 101.277 129.061 101.141 129.052C100.997 129.033 100.853 129.024 100.709 129.004C100.584 128.985 100.448 128.965 100.324 128.947L100.265 128.937L99.968 128.879L99.8707 128.86L99.6787 128.821L99.38 128.744L99.0814 128.667L98.7547 128.571L98.4854 128.484L98.408 128.455L98.224 128.397L98.1187 128.368L97.9454 128.301L97.888 128.281L97.5894 128.167L97.2334 128.031C97.0787 127.964 96.9347 127.907 96.7907 127.839L96.4627 127.685L96.3947 127.656C96.0867 127.521 95.7894 127.367 95.48 127.204L95.2107 127.059L95.0187 126.963L94.7494 126.809L94.624 126.732L94.3347 126.568L94.2387 126.511C94.1134 126.433 93.988 126.356 93.8627 126.279L93.8054 126.241L93.556 126.087L93.4974 126.048L93.2947 125.913L93.1987 125.847L92.8907 125.653C92.756 125.557 92.6307 125.471 92.496 125.375L92.2947 125.229L92.072 125.076L91.9467 124.989L91.6974 124.807C91.5534 124.7 91.408 124.595 91.264 124.479C90.8214 124.141 90.3974 123.796 89.9827 123.448L89.752 123.247L89.5787 123.092L89.5694 123.103L89.492 123.025C89.3387 122.891 89.184 122.765 89.04 122.621L88.992 122.583L88.9814 122.573L88.972 122.563C88.6454 122.264 88.328 121.976 88.028 121.677C87.8654 121.524 87.7107 121.36 87.5667 121.205L87.528 121.176L87.3454 120.984L87.1334 120.763L86.932 120.551C86.796 120.407 86.6614 120.261 86.5467 120.117L86.3534 119.905C86.112 119.627 85.8814 119.357 85.6894 119.097C85.584 118.972 85.4867 118.847 85.4 118.721L85.2654 118.539L85.2267 118.491L85.16 118.404L85.14 118.365L85.016 118.192L84.9094 118.019L84.8227 117.884L84.736 117.729L84.7267 117.711L84.9187 117.777L84.968 117.788L85.2267 117.884L85.4294 117.941L85.5067 117.971C85.6987 118.019 85.9014 118.085 86.112 118.144L86.44 118.221C86.6614 118.279 86.884 118.336 87.124 118.393L87.2974 118.433H87.3067C87.4894 118.481 87.6627 118.52 87.856 118.557C87.98 118.587 88.1067 118.616 88.2307 118.644L88.3947 118.673H88.404L88.452 118.683L88.684 118.731C88.808 118.76 88.9333 118.779 89.0587 118.808C89.184 118.837 89.3094 118.856 89.4347 118.876L89.6467 118.924L89.772 118.943H89.7907L89.848 118.952C89.9934 118.981 90.128 119.011 90.272 119.039C90.4174 119.068 90.5614 119.087 90.7054 119.116C90.86 119.136 91.004 119.164 91.148 119.193C91.312 119.223 91.4853 119.251 91.6587 119.28C91.832 119.308 92.0054 119.337 92.1787 119.357C92.4294 119.405 92.6893 119.444 92.9587 119.483L93.2374 119.531C93.4107 119.559 93.5934 119.579 93.7667 119.608C93.9494 119.636 94.1227 119.665 94.3054 119.684C94.6627 119.743 95.028 119.791 95.3934 119.848C95.828 119.905 96.26 119.964 96.6947 120.021C97.2227 120.088 97.7534 120.167 98.2734 120.223L98.5614 120.261C98.6867 120.281 98.8214 120.291 98.9467 120.309C99.1587 120.339 99.3707 120.368 99.592 120.388L99.9294 120.436L100.016 120.444C100.247 120.473 100.477 120.493 100.699 120.523C100.872 120.541 101.027 120.56 101.191 120.58C101.355 120.599 101.508 120.617 101.672 120.637C101.805 120.647 101.951 120.667 102.085 120.685L102.143 120.695C102.336 120.705 102.539 120.733 102.731 120.753L102.865 120.772H102.904L103.183 120.801L103.317 120.82L103.452 120.831L103.673 120.859C103.819 120.868 103.963 120.888 104.097 120.907C104.329 120.936 104.551 120.955 104.763 120.975L105.089 121.003L105.263 121.032H105.292L105.417 121.041L105.552 121.052L105.724 121.071H105.764C105.927 121.089 106.091 121.109 106.235 121.119L106.283 121.128H106.303L106.572 121.157C107.227 121.224 107.727 121.273 108.036 121.301L108.123 121.311H108.209C108.315 121.321 108.44 121.34 108.565 121.349C108.941 121.379 109.373 121.417 109.845 121.456L110.028 121.475H110.039L110.269 121.495C110.529 121.513 110.799 121.543 111.079 121.561C111.415 121.591 111.761 121.62 112.108 121.639L112.339 121.659H112.368C112.541 121.668 112.715 121.687 112.888 121.696L113.003 121.707L113.129 121.716H113.139V121.707L113.273 121.716L113.399 121.725L113.648 121.745L113.899 121.755H113.928C114.111 121.764 114.293 121.773 114.467 121.783L114.727 121.803L114.977 121.812L115.267 121.821C115.411 121.821 115.545 121.821 115.671 121.832C115.556 121.937 115.42 122.043 115.285 122.159ZM116.209 121.447V121.456C115.612 121.456 114.64 121.417 113.399 121.34C113.196 121.331 112.995 121.311 112.781 121.301H112.772H112.763C112.589 121.292 112.416 121.283 112.233 121.263L112.117 121.253L111.955 121.244L111.78 121.235C111.636 121.216 111.483 121.205 111.328 121.196C111.175 121.187 111.02 121.176 110.865 121.157H110.828C110.616 121.139 110.395 121.128 110.173 121.1H110.164L109.836 121.071C109.615 121.052 109.393 121.032 109.163 121.013L108.825 120.984C108.593 120.965 108.363 120.945 108.123 120.927C107.66 120.879 107.169 120.84 106.679 120.781H106.649C106.332 120.753 106.004 120.715 105.676 120.685L105.532 120.667L105.233 120.637H105.167L105.089 120.628L105.003 120.617C104.801 120.599 104.608 120.58 104.405 120.551C104.145 120.531 103.895 120.503 103.636 120.473C103.365 120.444 103.116 120.416 102.847 120.388L102.605 120.359L102.336 120.329L102.067 120.301C101.633 120.252 101.2 120.204 100.767 120.147H100.748L100.477 120.117L100.285 120.088C100.14 120.08 100.005 120.06 99.8614 120.04L99.8227 120.031H99.8134L99.7267 120.021L99.6214 120.012C99.38 119.983 99.1294 119.953 98.8894 119.916L98.6587 119.887H98.6387L98.4174 119.867L98.128 119.829C97.984 119.809 97.8494 119.791 97.7054 119.771L97.5507 119.752L97.3093 119.713C97.0213 119.675 96.9733 119.675 96.9253 119.665C96.7907 119.645 96.656 119.636 96.5294 119.616C96.3947 119.597 96.2707 119.579 96.1454 119.559C95.9427 119.531 95.7414 119.511 95.548 119.483C95.1534 119.424 94.7773 119.367 94.392 119.308C94.22 119.28 94.056 119.26 93.8827 119.232C93.7574 119.223 93.6227 119.193 93.4974 119.173C93.372 119.155 93.256 119.145 93.132 119.116C93.0067 119.107 92.8907 119.087 92.776 119.068C92.5347 119.029 92.304 118.991 92.072 118.952C91.8414 118.915 91.62 118.876 91.3894 118.837L91.2347 118.808L91.0814 118.779L90.9654 118.76L90.9174 118.751L90.696 118.721C90.4747 118.683 90.2627 118.644 90.0414 118.596H90.0307L89.7134 118.539L89.4054 118.481L89.1454 118.433L88.8854 118.385L88.8574 118.375L88.7894 118.356L88.7027 118.336L88.452 118.288L88.2027 118.24C87.8267 118.163 87.4614 118.085 87.124 118C85.824 117.692 84.8134 117.384 84.2067 117.065C84.0534 116.999 83.9374 116.921 83.8307 116.844L83.908 117.095V117.104C84.024 117.412 84.2254 117.797 84.5054 118.221C85.276 119.415 86.6427 121.003 88.3854 122.621H88.3947C88.5107 122.736 88.636 122.843 88.76 122.957C88.924 123.112 89.088 123.256 89.2614 123.4C90.7147 124.652 92.3614 125.885 94.104 126.905C96.2707 128.185 98.5907 129.139 100.824 129.399L101.123 129.437C101.383 129.456 101.643 129.476 101.912 129.467H101.921C102.972 129.447 104.088 129.216 105.215 128.851C106.177 128.532 107.14 128.109 108.084 127.628C108.835 127.252 109.576 126.828 110.288 126.385C110.577 126.203 110.865 126.02 111.145 125.836H111.155C113.803 124.093 115.901 122.245 116.585 121.629C116.711 121.524 116.777 121.447 116.807 121.417C116.72 121.437 116.508 121.447 116.209 121.447ZM113.129 121.707V121.716H113.139V121.707H113.129ZM113.129 121.707V121.716H113.139V121.707H113.129Z" fill="#EF7950"/>
<path d="M99.344 114.985C99.344 114.985 95.736 108.936 88.5627 114.936C87.232 116.051 85.38 117.048 83.6213 117.128C81.0579 117.244 79.586 114.6 78.4265 112.777C74.9823 118.399 83.0827 126.336 96.072 120.712C97.6627 120.024 98.6907 121.571 100.175 121.983C101.259 119.837 100.996 117.689 99.344 114.985Z" fill="#261411"/>
<path d="M102.409 115.412C102.409 115.412 107.531 110.577 112.795 118.307C113.771 119.741 115.28 121.208 116.949 121.764C119.385 122.576 121.523 120.435 123.136 118.997C124.915 125.347 114.955 130.771 103.993 121.815C102.651 120.717 101.24 121.925 99.7 121.917C99.244 119.557 100.083 117.561 102.409 115.412Z" fill="#261411"/>
<path d="M121.719 58.8507C122.913 57.4 124.535 56.232 125.811 54.8854C123.591 56.4214 110.544 59.0093 109.781 59.2507C110.923 58.2987 112.127 57.3747 113.304 56.4907C109.643 57.7761 95.6947 58.8241 95.6947 58.8241C97.16 60.1401 108.416 68.3067 110.503 68.9214C113.388 69.772 130.096 65.2187 134.739 54.8414C133.013 55.2614 123.869 58.0427 121.719 58.8507Z" fill="#3A2827"/>
<path d="M78.2672 144.061C77.7115 149.371 79.0907 154.92 80.5798 159.9C81.2964 158.747 82.1467 157.673 83.176 156.861C83.468 161.369 85.5587 165.859 87.028 170.047C87.7934 169.067 88.444 167.944 89.1934 166.989C89.2054 169.761 93.952 176.996 93.964 176.987C93.972 177 100.513 171.333 101.283 168.671C101.743 169.793 102.061 171.052 102.531 172.203C105.087 168.576 108.325 164.828 109.836 160.571C110.604 161.633 111.129 162.896 111.504 164.201C114.296 159.817 117.137 154.855 118.052 149.597L78.2672 144.061Z" fill="#261411"/>
<path d="M110.667 158.773C110.331 157.601 109.857 156.463 109.167 155.508C108.311 157.924 106.835 160.156 105.287 162.295C104.38 163.545 103.448 164.761 102.6 165.965C102.324 165.285 102.105 164.564 101.868 163.863C101.747 163.497 101.62 163.136 101.477 162.789C101.353 163.223 101.059 163.741 100.661 164.304C98.8586 166.853 94.9133 170.269 94.8973 170.268C94.8853 170.265 92.0626 165.965 91.0026 163.02C90.7626 162.345 90.6106 161.743 90.6093 161.277C90.3653 161.592 90.1306 161.927 89.8973 162.265C89.496 162.859 89.0986 163.468 88.6626 164.027C88.2213 162.767 87.716 161.473 87.2293 160.161C86.2653 157.556 85.3746 154.868 85.2 152.173C84.2773 152.904 83.5106 153.869 82.8666 154.905C81.6106 150.707 79.515 138.72 82.256 132.22C84.528 135.609 87.5933 138.085 91.704 138.929C94.1453 139.431 96.4093 138.412 97.8306 136.213L97.8426 136.073C97.9453 134.767 98.072 133.468 98.2346 132.177C98.292 131.711 98.3547 131.244 98.424 130.777L101.819 131.251C101.768 131.647 101.713 132.04 101.653 132.439C101.457 133.757 101.223 135.076 100.959 136.399L100.932 136.539C101.705 139.024 103.6 140.611 106.075 140.793C110.401 141.115 113.833 139.316 116.559 136.296C116.372 145.616 112.951 155.185 110.667 158.773Z" fill="#3A2827"/>
</svg>
