<svg width="209" height="209" viewBox="0 0 209 209" fill="none" xmlns="http://www.w3.org/2000/svg">
<path d="M208.645 104.913C208.645 134.653 196.159 161.477 176.152 180.424C173.397 183.033 170.5 185.488 167.476 187.771C166.976 188.165 166.475 188.54 165.964 188.907C161.739 192.007 157.261 194.789 152.573 197.216C148.981 199.092 145.275 200.748 141.452 202.193C141.096 202.328 140.74 202.463 140.375 202.597C129.235 206.671 117.209 208.895 104.665 208.895C103.875 208.895 103.085 208.884 102.296 208.856C101.959 208.856 101.621 208.856 101.285 208.827C100.823 208.827 100.351 208.807 99.8893 208.779C98.2813 208.711 96.6826 208.605 95.1039 208.452C87.6226 207.777 80.3639 206.304 73.4319 204.119C71.1106 203.387 68.8199 202.579 66.5773 201.693C60.1839 199.18 54.0893 196.04 48.3893 192.364C19.6893 173.857 0.682617 141.605 0.682617 104.913C0.682617 47.4827 47.2346 0.932018 104.665 0.932018C162.095 0.932018 208.645 47.4827 208.645 104.913Z" fill="#F7F2DA"/>
<path d="M73.6533 196.561C73.6533 198.592 73.576 201.183 73.432 204.119C71.1106 203.387 68.82 202.579 66.5773 201.693C60.184 199.18 54.0893 196.04 48.3893 192.363C48.4959 189.803 48.6306 187.808 48.8133 186.605C49.6213 181.117 50.9986 174.715 57.4106 169.149C60.0586 166.86 63.5626 164.712 68.2426 162.824L71.496 170.999C71.564 174.292 72.4786 177.536 72.796 180.8C73.2866 185.961 73.6533 191.265 73.6533 196.561Z" fill="#BBBEBF"/>
<path d="M168.497 182.032C168.333 182.821 168.18 183.621 168.035 184.429C167.843 185.528 167.649 186.635 167.476 187.771C166.976 188.165 166.475 188.54 165.965 188.907C161.739 192.007 157.261 194.789 152.573 197.216C148.981 199.092 145.275 200.749 141.452 202.193C141.096 202.328 140.74 202.463 140.375 202.597C129.235 206.671 117.209 208.895 104.665 208.895C103.875 208.895 103.085 208.884 102.296 208.856C101.959 208.856 101.621 208.856 101.285 208.827C100.823 208.827 100.351 208.807 99.8893 208.779C98.2813 208.711 96.6827 208.605 95.104 208.452C87.6227 207.777 80.364 206.305 73.432 204.119C71.1107 203.387 68.82 202.579 66.5774 201.693C66.22 200.277 65.816 198.708 65.344 196.936C64.1987 192.613 56.1494 173.367 57.3147 169.391L57.4107 169.149C59.0667 165.839 76.1467 156.528 89.828 149.48C91.6867 148.528 93.4867 147.603 95.1707 146.755C95.7014 146.487 96.2213 146.227 96.7213 145.976C97.0293 145.812 97.328 145.668 97.616 145.524L97.8293 145.417C103.336 142.644 107.129 140.805 107.129 140.805C107.447 141.24 108.573 141.816 110.249 142.5C112.367 143.348 115.38 144.359 118.817 145.417C119.367 145.581 119.924 145.753 120.493 145.928C123.361 146.795 126.452 147.68 129.513 148.547C129.823 148.624 130.131 148.709 130.439 148.797C130.785 148.893 131.132 148.989 131.477 149.085C138.555 151.049 145.227 152.773 148.395 153.601C148.751 153.697 149.068 153.784 149.328 153.852C174.544 160.572 169.749 175.852 168.497 182.032Z" fill="#D3D3D3"/>
<path d="M102.488 175.417L102.479 175.543C102.287 176.669 102.152 177.815 102.036 178.961C101.748 181.975 101.68 185.045 101.575 188.04C101.564 188.329 101.555 188.617 101.545 188.907C101.352 194.905 101.304 200.913 101.285 206.911V208.827C100.823 208.827 100.351 208.807 99.8893 208.779C99.8893 206.555 99.8986 204.321 99.9173 202.096C99.9559 197.793 100.015 193.489 100.149 189.195C100.188 188.04 100.225 186.895 100.275 185.74C100.419 182.467 100.533 179.135 101.016 175.9L101.055 175.649C101.083 175.457 101.112 175.273 101.14 175.081C101.169 174.908 101.227 174.783 101.304 174.687C101.516 174.397 101.891 174.397 102.161 174.609L102.209 174.657C102.325 174.763 102.421 174.908 102.46 175.091L102.488 175.417Z" fill="#939A9E"/>
<path d="M108.812 197C108.812 198.239 107.809 199.241 106.572 199.241C105.335 199.241 104.333 198.239 104.333 197C104.333 195.764 105.335 194.761 106.572 194.761C107.809 194.761 108.812 195.764 108.812 197Z" fill="#939A9E"/>
<path d="M141.452 202.193C141.096 202.328 140.74 202.463 140.375 202.597C140.567 197.764 140.865 193.779 141.376 191.149C141.963 188.108 147.345 193.345 152.573 197.216C148.981 199.092 145.275 200.749 141.452 202.193Z" fill="#939A9E"/>
<path d="M168.035 184.429C167.843 185.528 167.649 186.635 167.476 187.771C166.976 188.165 166.475 188.54 165.965 188.907C166.601 187.357 167.293 185.816 168.035 184.429Z" fill="#939A9E"/>
<path d="M121.844 163.707C121.844 163.707 120.777 169.536 119.627 172.537C118.129 176.461 115.991 179.819 113.56 182.337C112.993 181.82 112.408 181.337 111.82 180.887C107.515 177.581 102.943 175.955 102.316 175.261C101.787 175.888 98.2854 175.528 94.5707 177.084C94.3921 175.764 94.3361 174.363 94.4067 172.908C94.4507 171.991 94.544 171.052 94.6907 170.101C94.72 169.909 94.7494 169.719 94.784 169.527C94.8227 169.305 94.8627 169.084 94.9081 168.864C94.9454 168.66 94.9894 168.452 95.032 168.248C95.1494 167.705 95.2841 167.161 95.4361 166.615C95.4747 166.469 95.5187 166.319 95.5614 166.171L95.588 166.083C95.636 165.921 95.6854 165.757 95.7374 165.593C95.8107 165.345 95.8921 165.096 95.9774 164.848C96.1121 164.456 96.2521 164.061 96.4041 163.667L96.4667 163.503C96.6 163.151 96.7414 162.805 96.8894 162.464C96.9614 162.295 97.0361 162.128 97.1121 161.959C97.1801 161.805 97.2507 161.657 97.32 161.505L97.3494 161.44L97.52 161.089C97.7774 160.557 98.0494 160.036 98.3294 159.529L98.484 159.252L98.6387 158.983L97.3494 142.035L97.3267 141.707L95.4067 116.467L93.988 97.8067L116.708 96.084L117.175 102.277L118.683 122.068V122.072L120.069 140.312L120.525 146.308L121.844 163.707Z" fill="#F79C5E"/>
<path d="M96.4013 163.668C95.1986 166.819 94.5466 169.976 94.4053 172.908C94.8213 170.997 95.3786 169.121 96.0519 167.421C97.0666 164.873 98.9493 163.033 100.055 160.723C101.171 158.377 100.044 155.693 100.855 153.016C102.359 148.056 109.597 144.356 112.572 139.705C115.997 134.347 117.488 128.912 118.591 122.627C118.624 122.44 118.655 122.252 118.681 122.071C119.747 114.993 117.452 108.868 117.613 101.991L117.175 102.277L95.4079 116.467L98.6399 158.983C97.7986 160.428 97.0399 161.995 96.4013 163.668Z" fill="#E07832"/>
<path d="M121.844 163.707C121.844 163.707 120.777 169.536 119.627 172.537C118.129 176.461 115.991 179.819 113.56 182.337C112.993 181.82 112.408 181.337 111.82 180.887C113.359 178.473 114.564 175.736 115.549 173.48C118.359 167.059 119.16 159.896 119.896 153.033C120.136 150.809 120.356 148.564 120.525 146.308L121.844 163.707Z" fill="#EF9C62"/>
<path d="M69.5893 83.5267C70.6267 82.1267 72.548 82.372 74.1387 82.2734C75.8334 82.1694 78.3387 82.02 79.404 84.5734C80.2414 86.58 80.5587 89.3587 81.1293 91.5187L83.9107 105.185C83.3374 105.816 81.1347 106.428 80.2414 105.965C79.068 105.36 72.3107 93.892 70.2573 89.0947C69.308 86.8774 68.2773 85.2934 69.5893 83.5267Z" fill="#F79C5E"/>
<path d="M70.6013 85.164C70.5933 83.8053 72.2587 83.872 73.376 83.708C74.4774 83.5467 76.356 83.06 77.3973 83.7173C78.424 84.364 78.756 87.0414 79.004 88.3094C76.0613 88.2814 77.2053 92.516 79.5013 91.6573L79.708 92.436C79.9814 93.4747 80.2307 94.7707 80.112 95.5387C79.896 94.728 79.756 93.0533 79.0587 92.5693C78.3813 92.096 77.24 92.5667 76.4774 92.144C74.4894 91.04 76.084 88.8027 77.54 87.9893C77.336 87.4333 77.0853 85.9933 76.6613 85.6013C76.1733 85.1507 74.8987 85.3213 74.208 85.288C73.1734 85.2413 72.4387 84.9867 72.1667 85.9373C71.984 86.5773 72.44 87.5293 72.6173 88.1573C71.9613 87.5213 70.6067 86.092 70.6013 85.164Z" fill="#E07832"/>
<path d="M75.768 96.3133C76.4386 111.368 89.0387 125.54 88.78 126.124C84.188 136.46 94.5187 139.689 98.316 140.165C104.559 140.944 123.633 139.539 126.053 112.472C126.467 107.849 124.473 100.117 124.191 94.3813C124.177 94.108 124.168 93.832 124.168 93.5413C124.149 90.3867 124.773 86.396 124.931 82.5627C124.999 80.8507 124.975 79.1653 124.757 77.604C124.489 75.692 125.093 67.696 123.525 59.2907C121.701 49.5027 116.94 39.1587 104.444 37.212C91.3693 35.1773 83.7413 44.376 79.8053 54.2667C76.6027 62.2973 75.8373 70.788 76.568 74.076C76.6173 74.3 76.6747 74.5013 76.7373 74.6747C82.8533 91.476 75.2293 84.2227 75.768 96.3133Z" fill="#F79C5E"/>
<path d="M88.8973 83.516C88.4999 83.184 83.8106 83.9334 82.0826 84.4747C81.572 84.6334 80.9826 84.6907 80.7466 85.3533C80.5133 86.0093 80.2493 87.2974 80.1733 87.9694C80.1426 88.252 80.2386 89.1147 80.2386 89.1147C82.2879 88.4134 85.2506 87.2333 87.4746 87.7933C88.4413 88.0387 90.2319 90.676 90.3879 90.7134C90.3533 90.4867 89.3026 83.8547 88.8973 83.516Z" fill="#E07832"/>
<path d="M80.9933 91.172C80.9933 91.172 82.028 93.2547 85.4866 93.0547C88.9453 92.856 89.7293 90.6707 89.7293 90.6707C89.7293 90.6707 90.1013 90.8747 90.184 90.7227C90.268 90.5694 89.788 90.2427 89.7133 89.776C89.6387 89.308 88.6613 85.664 87.764 85.3667C86.8653 85.068 81.3827 85.3907 80.6413 87.028C79.9 88.6654 80.9933 91.172 80.9933 91.172Z" fill="white"/>
<path d="M88.1027 89.412C88.2053 91.204 87.1667 92.72 85.7813 92.8C84.396 92.88 83.1893 91.492 83.088 89.7C82.984 87.9094 84.024 86.3934 85.4093 86.3134C86.7947 86.2347 88 87.6214 88.1027 89.412Z" fill="#3A2E26"/>
<path d="M86.1119 89.7107C86.1546 90.46 85.7213 91.092 85.1413 91.1267C84.5639 91.1587 84.0586 90.58 84.0172 89.8307C83.9732 89.0827 84.4079 88.4494 84.9866 88.416C85.5652 88.3827 86.0693 88.9627 86.1119 89.7107Z" fill="#4C3F35"/>
<path d="M86.4666 89.6907C86.4813 89.944 86.3333 90.1574 86.1386 90.168C85.9439 90.18 85.7732 89.984 85.7586 89.7307C85.7439 89.4787 85.8906 89.264 86.0852 89.2534C86.2812 89.2427 86.4519 89.4374 86.4666 89.6907Z" fill="white"/>
<path d="M89.5493 90.5587C89.5493 90.5774 88.7587 92.6187 85.476 92.8107C84.9747 92.84 84.532 92.82 84.1373 92.7627H84.128C83.224 92.6374 82.568 92.3294 82.096 92.012L82.0866 92.0014L82.048 91.9827C81.4133 91.5307 81.1626 91.0587 81.1626 91.0587C81.1533 91.0494 80.9613 90.5774 80.7973 89.932V89.9134C80.72 89.624 80.652 89.316 80.6147 88.988V88.9787C80.5467 88.3534 80.5653 87.6987 80.8066 87.16C80.932 86.88 81.2493 86.6293 81.692 86.4187C82.3946 86.072 83.416 85.8214 84.4746 85.676C84.9373 85.6094 85.3893 85.5707 85.8427 85.5414C86.8333 85.484 87.4986 85.532 87.7186 85.6094C88.1813 85.7627 88.7586 87.216 89.1346 88.392C89.2973 88.892 89.424 89.3454 89.4906 89.6334L89.5293 89.816C89.568 90.0774 89.684 90.2787 89.7986 90.4334L89.636 90.3467L89.5493 90.5587ZM90.3573 90.548V90.5387L90.348 90.5094L90.3373 90.5L90.1746 90.2307C90.068 90.0867 89.9333 89.9134 89.9053 89.74C89.8853 89.6427 89.808 89.316 89.684 88.8627C89.336 87.592 88.596 85.388 87.8053 85.128C87.4986 85.0227 86.728 84.9934 85.8133 85.0414L85.7653 85.0507H85.7066C85.496 85.06 85.1586 85.0894 84.7533 85.1374L84.5613 85.156L84.3213 85.1947L84.032 85.244L83.888 85.2627L83.724 85.292L83.5506 85.3307L83.4253 85.3494L83.108 85.4173L82.7893 85.4934L82.684 85.532L82.4053 85.6094C82.212 85.676 82.0386 85.7347 81.8653 85.812L81.6733 85.8893L81.4893 85.976C81.1053 86.1774 80.7866 86.408 80.5853 86.6974L80.5467 86.7547L80.508 86.832L80.4986 86.8414L80.4787 86.8987L80.4306 87.0054L80.344 87.2454L80.268 87.5347V87.544V87.5547V87.564L80.228 87.804L80.2093 87.94V87.9787C80.1907 88.2094 80.1906 88.44 80.2 88.6614L80.2093 88.8254L80.22 88.9014V88.9787L80.228 89.008V89.028L80.2386 89.1147C80.276 89.364 80.316 89.6054 80.364 89.8254L80.3827 89.8934L80.4693 90.24L80.5653 90.5294V90.548V90.5587C80.6906 90.9814 80.816 91.2614 80.8346 91.3C80.8453 91.328 80.9507 91.5307 81.1827 91.8L81.192 91.8094C81.7506 92.4547 83.0306 93.4467 85.5053 93.3027C88.4706 93.1387 89.5386 91.54 89.8186 90.972L90.0973 91.0294C90.232 91.02 90.3093 90.9334 90.3373 90.8654L90.3773 90.76V90.7307L90.3853 90.712V90.7027L90.3573 90.548Z" fill="#E89258"/>
<mask id="mask0_2_1293" style="mask-type:luminance" maskUnits="userSpaceOnUse" x="80" y="88" width="1" height="3">
<path d="M80.56 90.5507C80.4946 90.3427 80.4266 90.1 80.3666 89.836L80.3826 89.8934L80.4693 90.24L80.5653 90.5294V90.5334C80.564 90.5387 80.5613 90.5453 80.56 90.5507ZM80.3506 89.7654C80.3066 89.5587 80.2666 89.3413 80.2386 89.1173C80.2733 89.3427 80.3093 89.5614 80.3506 89.7654ZM80.2373 89.108C80.2333 89.0694 80.228 89.032 80.224 88.9934L80.2266 89.0027C80.228 89.008 80.228 89.0133 80.228 89.0187V89.028L80.2373 89.108ZM80.2199 88.9494C80.2119 88.8774 80.2066 88.8054 80.2013 88.7334C80.208 88.8054 80.2133 88.872 80.2199 88.928V88.9494Z" fill="white"/>
</mask>
<g mask="url(#mask0_2_1293)">
<path d="M80.2013 90.5507H80.5654V88.7335H80.2013V90.5507Z" fill="#DE8C54"/>
</g>
<path d="M80.228 89.0187C80.228 89.0133 80.228 89.008 80.2267 89.0027L80.228 89.008V89.0187ZM80.22 88.928C80.2133 88.872 80.208 88.8053 80.2013 88.7333C80.176 88.3387 80.1893 87.9347 80.268 87.5467V87.5547V87.564L80.228 87.804L80.2093 87.94V87.9787C80.1907 88.2094 80.1907 88.44 80.2 88.6613L80.2093 88.8253L80.22 88.9013V88.928ZM89.6867 88.8613C89.6853 88.86 89.684 88.8587 89.6814 88.8573C89.3347 87.5867 88.5947 85.388 87.8053 85.128C87.5933 85.0547 87.1627 85.0187 86.6147 85.0187C86.5027 85.0187 86.3853 85.02 86.264 85.0227C86.3947 85.0187 86.5213 85.0173 86.6413 85.0173C87.176 85.0173 87.596 85.0547 87.808 85.1253C88.5973 85.388 89.3333 87.5907 89.6867 88.8613ZM80.2814 87.484C80.3254 87.2827 80.3893 87.0853 80.4733 86.8973C80.48 86.8827 80.4867 86.868 80.4947 86.8547L80.4787 86.8987L80.4307 87.0053L80.344 87.2454L80.2814 87.484ZM80.504 86.8373C80.512 86.82 80.5213 86.804 80.5307 86.788L80.508 86.832L80.504 86.8373ZM80.744 86.504C81.1107 86.1187 81.708 85.8333 82.3693 85.6213C82.1907 85.684 82.028 85.7387 81.8653 85.812L81.6733 85.8893L81.4893 85.976C81.1947 86.1307 80.9387 86.3027 80.744 86.504ZM82.4347 85.6013C82.532 85.5707 82.6307 85.5427 82.7307 85.516L82.684 85.532L82.4347 85.6013ZM83.4507 85.3454C83.5387 85.3267 83.6253 85.3107 83.712 85.2947L83.5507 85.3307L83.4507 85.3454ZM83.9067 85.26C84.0533 85.2347 84.1973 85.212 84.336 85.1933L84.3213 85.1947L84.032 85.244L83.9067 85.26ZM85.5933 85.0573C85.6747 85.0507 85.7453 85.0467 85.8 85.044L85.7653 85.0507H85.7067C85.672 85.052 85.6347 85.0547 85.5933 85.0573Z" fill="#C96C2D"/>
<path d="M80.7973 89.9187V89.9134C80.72 89.624 80.652 89.316 80.6147 88.988V88.9787C80.5467 88.3534 80.5653 87.6987 80.8066 87.16C80.932 86.88 81.2493 86.6294 81.692 86.4187C82.3946 86.072 83.416 85.8214 84.4747 85.676C84.9373 85.6094 85.3893 85.5707 85.8427 85.5414C86.1467 85.524 86.42 85.516 86.6586 85.516C87.2 85.516 87.5653 85.556 87.7186 85.6094C88.1813 85.7627 88.7573 87.212 89.132 88.3867C88.688 88.0427 88.1253 87.6947 87.448 87.4347C86.9693 86.744 86.2773 86.3107 85.5226 86.3107C85.4853 86.3107 85.4467 86.312 85.4093 86.3134C84.7987 86.3494 84.256 86.6627 83.848 87.156C82.1347 87.588 81.2426 88.9027 80.7973 89.9187Z" fill="#E5E5E5"/>
<path d="M87.448 87.4347C86.788 87.18 86.0173 87.0107 85.1413 87.0107C85.012 87.0107 84.88 87.0133 84.7467 87.0213C84.424 87.04 84.1254 87.0867 83.848 87.156C84.256 86.6627 84.7987 86.3494 85.4094 86.3134C85.4467 86.312 85.4853 86.3107 85.5227 86.3107C86.2773 86.3107 86.9694 86.744 87.448 87.4347Z" fill="#342922"/>
<path d="M80.5653 90.5333V90.5293L80.4693 90.24L80.3827 89.8933L80.3666 89.836C80.3613 89.812 80.356 89.788 80.3506 89.7653C80.3093 89.5613 80.2733 89.3427 80.2386 89.1173C80.2386 89.1147 80.2373 89.1107 80.2373 89.108L80.228 89.028V89.0187V89.008L80.2266 89.0027L80.224 88.9933C80.2226 88.9787 80.2213 88.964 80.22 88.9494V88.928V88.9013L80.2093 88.8253L80.2 88.6613C80.1906 88.44 80.1907 88.2094 80.2093 87.9787V87.94L80.228 87.804L80.268 87.564V87.5547V87.5467C80.272 87.5267 80.276 87.5053 80.2813 87.484L80.344 87.2454L80.4306 87.0053L80.4787 86.8987L80.4946 86.8547C80.4973 86.848 80.5 86.8427 80.504 86.8373L80.508 86.832L80.5306 86.788C80.588 86.688 80.66 86.5933 80.744 86.504C80.9387 86.3027 81.1946 86.1307 81.4893 85.976L81.6733 85.8893L81.8653 85.812C82.028 85.7387 82.1906 85.684 82.3693 85.6213C82.3906 85.6147 82.4133 85.608 82.4346 85.6013L82.684 85.532L82.7306 85.516C82.968 85.4507 83.2106 85.3947 83.4506 85.3454L83.5506 85.3307L83.712 85.2947C83.7773 85.2827 83.8426 85.2707 83.9066 85.26L84.032 85.244L84.3213 85.1947L84.336 85.1933C84.852 85.1187 85.3013 85.0787 85.5933 85.0573C85.6346 85.0547 85.672 85.052 85.7066 85.0507H85.7653L85.8 85.044C85.804 85.044 85.808 85.0427 85.812 85.0427C85.968 85.0333 86.1186 85.0267 86.264 85.0227C86.3853 85.02 86.5027 85.0187 86.6147 85.0187C87.1627 85.0187 87.5933 85.0547 87.8053 85.128C88.5946 85.388 89.3347 87.5867 89.6813 88.8573C89.5253 88.708 89.344 88.5493 89.1386 88.3907C89.136 88.3893 89.1346 88.388 89.132 88.3867C88.7573 87.212 88.1813 85.7627 87.7186 85.6093C87.5653 85.556 87.2 85.516 86.6586 85.516C86.42 85.516 86.1467 85.524 85.8427 85.5413C85.3893 85.5707 84.9373 85.6093 84.4746 85.676C83.416 85.8213 82.3946 86.072 81.692 86.4187C81.2493 86.6293 80.932 86.88 80.8066 87.16C80.5653 87.6987 80.5467 88.3534 80.6147 88.9787V88.988C80.652 89.316 80.72 89.624 80.7973 89.9134V89.9187C80.7946 89.9227 80.7933 89.9267 80.7906 89.932C80.6973 90.1507 80.6226 90.3547 80.5653 90.5333Z" fill="#D0834F"/>
<path d="M106.905 83.3547C107.321 82.9773 112.797 83.1427 114.849 83.4667C115.453 83.5613 116.139 83.5453 116.489 84.1747C116.84 84.7973 117.301 86.044 117.471 86.7013C117.543 86.9773 117.537 87.8453 117.537 87.8453C115.099 87.4027 111.549 86.596 109.068 87.428C107.985 87.7893 106.256 90.628 106.081 90.6853C106.093 90.456 106.48 83.7413 106.905 83.3547Z" fill="#E07832"/>
<path d="M116.924 89.9814C116.924 89.9814 115.993 92.1761 111.999 92.4054C108.001 92.6361 106.832 90.5614 106.832 90.5614C106.832 90.5614 106.429 90.8094 106.316 90.6681C106.201 90.5267 106.712 90.1454 106.74 89.6707C106.768 89.1974 107.44 85.46 108.435 85.052C109.429 84.6454 115.765 84.2894 116.817 85.824C117.869 87.3587 116.924 89.9814 116.924 89.9814Z" fill="white"/>
<path d="M109.084 89.1947C109.187 90.9854 110.567 92.3627 112.168 92.272C113.768 92.1787 114.981 90.6534 114.879 88.8614C114.776 87.0707 113.396 85.692 111.796 85.784C110.195 85.8773 108.98 87.4027 109.084 89.1947Z" fill="#3A2E26"/>
<path d="M109.375 89.2374C109.417 89.9854 109.993 90.5613 110.663 90.5227C111.331 90.4853 111.837 89.8454 111.795 89.0987C111.752 88.3507 111.176 87.7747 110.507 87.812C109.837 87.8507 109.331 88.4894 109.375 89.2374Z" fill="#4C3F35"/>
<path d="M111.387 89.1213C111.4 89.3747 111.596 89.5693 111.821 89.556C112.048 89.544 112.219 89.328 112.203 89.0747C112.191 88.8227 111.996 88.628 111.769 88.64C111.544 88.6534 111.371 88.8693 111.387 89.1213Z" fill="white"/>
<path d="M117.093 87.7653C117.084 88.1027 117.056 88.4307 117.007 88.7187V88.728C116.892 89.3933 116.719 89.8747 116.719 89.8933C116.719 89.8933 115.775 91.9347 111.981 92.156C111.577 92.1853 111.201 92.1853 110.865 92.156H110.855C109.593 92.08 108.708 91.752 108.111 91.396L108.092 91.3853C107.321 90.924 107.023 90.4427 107.023 90.4333L106.908 90.2307L106.725 90.3467C106.84 90.164 106.945 89.9507 106.965 89.692L106.985 89.4987C107.013 89.2387 107.091 88.8147 107.207 88.3533L107.225 88.2573L107.235 88.228V88.2094L107.273 88.064L107.303 87.9293L107.312 87.9C107.601 86.7453 108.044 85.484 108.516 85.2814C108.767 85.1854 109.517 85.0507 110.663 84.9933C110.923 84.9747 111.192 84.964 111.452 84.9547C113.705 84.9067 116.103 85.1854 116.641 85.976C116.988 86.4854 117.093 87.12 117.093 87.756V87.7653ZM117.527 87.42V87.4V87.3707L117.517 87.236L117.508 87.188L117.46 86.8414C117.44 86.716 117.411 86.5813 117.373 86.456L117.325 86.3414L117.2 86.0333L117.181 85.984L116.997 85.676L116.892 85.552L116.833 85.4933L116.805 85.4547L116.748 85.3973L116.651 85.3307C116.497 85.2147 116.315 85.1187 116.112 85.0307L115.977 84.9747L115.861 84.936L115.544 84.8293L115.304 84.772L115.063 84.7134C114.879 84.6747 114.696 84.6467 114.504 84.6173L114.264 84.5787L114.139 84.5693L114.013 84.5494L113.792 84.5307C113.599 84.512 113.407 84.5013 113.223 84.492C113.088 84.4827 112.955 84.4734 112.819 84.4734L112.675 84.464C112.088 84.444 111.568 84.4534 111.172 84.4734L110.875 84.4827L110.633 84.492C110.499 84.5013 110.373 84.512 110.248 84.5213L110.056 84.5307L109.883 84.5494L109.565 84.5787L109.469 84.5987H109.44C109.315 84.608 109.199 84.6267 109.093 84.6467L108.795 84.704L108.717 84.7134H108.708L108.66 84.7333L108.505 84.7627L108.352 84.82C107.476 85.176 106.908 87.4573 106.657 88.7573C106.571 89.2293 106.523 89.5667 106.523 89.6533C106.513 89.836 106.379 90.0294 106.263 90.1827C106.205 90.2787 106.128 90.3653 106.089 90.4907V90.5L106.08 90.6827L106.147 90.8373C106.196 90.8947 106.292 90.972 106.455 90.9627L106.763 90.876C107.159 91.4054 108.583 92.8493 112.011 92.6573C116.092 92.4253 117.084 90.1827 117.123 90.096C117.143 90.0573 117.248 89.7587 117.344 89.316C117.403 89.056 117.469 88.7387 117.499 88.4013L117.508 88.372L117.517 88.1613L117.527 88.0547L117.537 87.8427V87.7467V87.64V87.42H117.527Z" fill="#E89258"/>
<path d="M117.347 89.3134C117.345 89.312 117.345 89.312 117.345 89.312C117.372 89.1947 117.399 89.0667 117.424 88.9307C117.4 89.0667 117.373 89.1947 117.347 89.3134ZM117.483 88.552C117.489 88.5013 117.495 88.452 117.499 88.4014L117.503 88.3907C117.496 88.4453 117.491 88.4987 117.483 88.552ZM117.511 88.3014L117.517 88.1614L117.527 88.0547L117.537 87.8454C117.537 87.8454 117.537 87.8187 117.537 87.772V87.7467V87.64V87.5734C117.544 87.8227 117.533 88.068 117.511 88.3014Z" fill="#DE8C54"/>
<path d="M117.537 87.8454V87.772C117.537 87.8187 117.537 87.8454 117.537 87.8454ZM117.531 87.42H117.527V87.4V87.3707L117.52 87.2653C117.524 87.316 117.528 87.368 117.531 87.42ZM117.516 87.2307L117.508 87.188L117.46 86.8413C117.459 86.8293 117.456 86.8187 117.455 86.8067C117.483 86.9467 117.503 87.088 117.516 87.2307ZM117.344 86.3867L117.325 86.3413L117.2 86.0333L117.193 86.016C117.252 86.136 117.301 86.26 117.344 86.3867ZM117.156 85.9413L117.009 85.696C117.063 85.7747 117.112 85.8573 117.156 85.9413ZM116.989 85.6667L116.892 85.552L116.833 85.4933L116.807 85.4573C116.876 85.5227 116.937 85.592 116.989 85.6667ZM116.685 85.3533L116.651 85.3307C116.497 85.2147 116.315 85.1187 116.112 85.0307L115.993 84.98C116.26 85.084 116.496 85.208 116.685 85.3533ZM115.965 84.9693L115.861 84.936L115.603 84.8494C115.728 84.8854 115.849 84.9267 115.965 84.9693ZM108.263 84.8627C108.293 84.8453 108.324 84.8307 108.355 84.8173C108.383 84.8067 108.415 84.7947 108.448 84.784L108.352 84.82C108.321 84.832 108.292 84.8467 108.263 84.8627ZM115.468 84.8107L115.304 84.772L115.117 84.7267C115.237 84.752 115.355 84.78 115.468 84.8107ZM108.548 84.7547C108.593 84.7427 108.644 84.7293 108.697 84.7173L108.66 84.7333L108.548 84.7547ZM108.717 84.7134C108.856 84.6827 109.019 84.6547 109.203 84.628C109.165 84.6333 109.128 84.64 109.093 84.6467L108.795 84.704L108.717 84.7134ZM114.767 84.6587C114.681 84.644 114.593 84.6307 114.504 84.6173L114.428 84.6053C114.541 84.6213 114.655 84.6387 114.767 84.6587ZM109.359 84.6053C109.419 84.5987 109.48 84.5907 109.544 84.5827L109.469 84.5987H109.44C109.412 84.6 109.385 84.6027 109.359 84.6053ZM114.173 84.572L114.139 84.5693L114.099 84.564C114.124 84.5667 114.149 84.5693 114.173 84.572ZM109.648 84.5707C109.765 84.5587 109.888 84.5467 110.015 84.536L109.883 84.5494L109.648 84.5707ZM110.084 84.5293C110.26 84.5147 110.445 84.5013 110.636 84.4907C110.843 84.4787 111.241 84.46 111.745 84.4547C111.535 84.4587 111.341 84.4653 111.172 84.4733L110.875 84.4827L110.633 84.492C110.499 84.5013 110.373 84.512 110.248 84.5213L110.084 84.5293ZM113.513 84.508C113.415 84.5027 113.317 84.4973 113.223 84.492C113.088 84.4827 112.955 84.4733 112.819 84.4733L112.715 84.4667C112.973 84.4747 113.241 84.488 113.513 84.508Z" fill="#C96C2D"/>
<path d="M117.007 88.7294C117.007 88.728 117.005 88.7267 117.004 88.7254C116.428 87.8587 115.399 86.7867 113.697 86.432C113.205 86.0214 112.597 85.78 111.947 85.78C111.896 85.78 111.847 85.7813 111.796 85.784C111.047 85.828 110.383 86.184 109.899 86.7347C108.751 87.112 107.869 87.684 107.235 88.2213V88.2094L107.273 88.064L107.303 87.9294L107.312 87.9C107.601 86.7454 108.044 85.484 108.516 85.2814C108.767 85.1854 109.517 85.0507 110.663 84.9934C110.923 84.9747 111.192 84.964 111.452 84.9547C111.613 84.9507 111.777 84.9494 111.94 84.9494C114.04 84.9494 116.141 85.2427 116.641 85.976C116.988 86.4854 117.093 87.12 117.093 87.756V87.7654C117.084 88.1027 117.056 88.4307 117.007 88.7187V88.728C117.007 88.728 117.007 88.728 117.007 88.7294Z" fill="#E5E5E5"/>
<path d="M109.899 86.7347C110.383 86.184 111.047 85.828 111.796 85.784C111.847 85.7813 111.896 85.78 111.947 85.78C112.597 85.78 113.205 86.0214 113.697 86.432C113.328 86.356 112.928 86.312 112.493 86.312C112.367 86.312 112.237 86.316 112.105 86.324C111.281 86.3707 110.548 86.5214 109.899 86.7347Z" fill="#342922"/>
<path d="M117.345 89.312C117.257 89.1387 117.145 88.9413 117.007 88.7293C117.007 88.728 117.007 88.728 117.007 88.728V88.7187C117.056 88.4307 117.084 88.1027 117.093 87.7653V87.756C117.093 87.12 116.988 86.4854 116.641 85.976C116.141 85.2427 114.04 84.9494 111.94 84.9494C111.777 84.9494 111.613 84.9507 111.452 84.9547C111.192 84.964 110.923 84.9747 110.663 84.9933C109.517 85.0507 108.767 85.1854 108.516 85.2814C108.044 85.484 107.601 86.7453 107.312 87.9L107.303 87.9293L107.273 88.064L107.235 88.2094V88.2213C107.233 88.2227 107.232 88.224 107.231 88.2253C107.012 88.4107 106.821 88.5893 106.657 88.76C106.897 87.5013 107.44 85.3373 108.263 84.8627C108.292 84.8467 108.321 84.832 108.352 84.82L108.448 84.784C108.479 84.7747 108.512 84.764 108.548 84.7547L108.66 84.7333L108.697 84.7173C108.704 84.716 108.711 84.7147 108.717 84.7134L108.795 84.704L109.093 84.6467C109.128 84.64 109.165 84.6333 109.203 84.628C109.253 84.62 109.305 84.6134 109.359 84.6054C109.385 84.6027 109.412 84.6 109.44 84.5987H109.469L109.544 84.5827C109.579 84.5787 109.613 84.5747 109.648 84.5707L109.883 84.5494L110.015 84.536C110.037 84.5334 110.06 84.532 110.084 84.5293L110.248 84.5213C110.373 84.512 110.499 84.5013 110.633 84.492L110.875 84.4827L111.172 84.4734C111.341 84.4654 111.535 84.4587 111.745 84.4547C111.817 84.4547 111.892 84.4547 111.967 84.4547C112.201 84.4547 112.452 84.4573 112.715 84.4667L112.819 84.4734C112.955 84.4734 113.088 84.4827 113.223 84.492C113.317 84.4973 113.415 84.5027 113.513 84.508C113.708 84.5227 113.904 84.5413 114.099 84.564L114.139 84.5694L114.173 84.572C114.259 84.5827 114.343 84.5934 114.428 84.6054L114.504 84.6173C114.593 84.6307 114.681 84.644 114.767 84.6587C114.885 84.68 115.003 84.7013 115.117 84.7267L115.304 84.772L115.468 84.8107C115.513 84.8227 115.557 84.836 115.603 84.8494L115.861 84.936L115.965 84.9694C115.975 84.9734 115.984 84.9774 115.993 84.98L116.112 85.0307C116.315 85.1187 116.497 85.2147 116.651 85.3307L116.685 85.3533C116.728 85.3867 116.768 85.4213 116.807 85.4573L116.833 85.4933L116.892 85.552L116.989 85.6667C116.991 85.668 116.992 85.6707 116.995 85.6734C116.999 85.68 117.004 85.688 117.009 85.696L117.156 85.9414C117.168 85.9667 117.181 85.9907 117.193 86.016L117.2 86.0333L117.325 86.3414L117.344 86.3867C117.389 86.524 117.425 86.664 117.455 86.8067C117.456 86.8187 117.459 86.8294 117.46 86.8414L117.508 87.188L117.516 87.2307C117.517 87.2413 117.519 87.2533 117.52 87.2653L117.527 87.3707V87.4V87.42H117.531C117.533 87.4707 117.536 87.5227 117.537 87.5734V87.64V87.7467V87.772V87.8427V87.8454L117.527 88.0547L117.517 88.1613L117.511 88.3013C117.508 88.332 117.505 88.3613 117.503 88.3907L117.499 88.4013C117.495 88.452 117.489 88.5013 117.483 88.552C117.467 88.6827 117.447 88.8093 117.424 88.9307C117.399 89.0667 117.372 89.1947 117.345 89.312Z" fill="#D0834F"/>
<path d="M87.0266 77.1027C85.0519 75.6 80.0253 75.2067 78.5133 75.1213C78.2346 75.108 78.0759 75.1013 78.0759 75.1013C78.2986 74.6947 78.6972 73.0227 79.1172 72.4907C79.5799 71.9093 80.5239 71.6614 81.1373 71.4467C82.8666 70.8334 84.8186 70.3787 86.5426 70.108C86.8973 71.4413 86.9213 72.9174 86.9346 74.3787C86.9426 75.3094 86.9452 76.2307 87.0266 77.1027Z" fill="#604135"/>
<path d="M106.781 78.312C109.669 76.8774 116.721 76.66 118.837 76.628C119.228 76.624 119.448 76.6213 119.448 76.6213C119.173 76.2067 118.765 74.52 118.227 73.976C117.635 73.376 116.337 73.096 115.503 72.8613C113.143 72.1867 110.459 71.6627 108.077 71.3307C107.464 72.6533 107.3 74.1307 107.152 75.5893C107.057 76.52 106.972 77.4414 106.781 78.312Z" fill="#604135"/>
<path d="M111.076 114.511C110.809 113.533 110.66 112.413 110.556 111.368C112.165 112.315 113.812 115.576 113.829 117.853C113.165 117.169 112.452 116.547 111.672 116.127C108.029 121.611 102.388 124.671 95.072 122.796C94.3453 120.529 92.756 118.139 91.4987 116.341C104.204 122.824 111.076 114.511 111.076 114.511Z" fill="#60120F"/>
<path d="M92.0227 116.547C92.3347 116.879 92.6347 117.213 92.9161 117.556L93.024 117.684C93.5907 118.375 94.1147 119.096 94.6121 119.887C94.8574 120.281 95.0761 120.671 95.3054 121.048L95.3814 121.18C104.725 122.339 108.608 118.071 109.08 116.848L109.032 116.681C108.711 116.256 106.804 117.809 106.795 116.991C105.221 117.725 103.193 118.312 100.743 118.305C100.557 118.305 100.371 118.299 100.184 118.293C98.7214 118.233 97.2147 117.972 95.6801 117.505C94.8601 117.355 94.0267 117.155 93.188 116.909C92.8014 116.799 92.412 116.679 92.0227 116.547Z" fill="#EFEAE8"/>
<path d="M93.188 116.909L93.2667 117.003C93.8333 117.693 94.3573 118.416 94.8547 119.205C95.1 119.6 95.3187 119.989 95.548 120.365L95.624 120.499C103.923 121.525 107.912 118.279 109.032 116.681C108.711 116.256 106.804 117.809 106.795 116.991C105.221 117.725 103.193 118.312 100.743 118.305C100.557 118.305 100.371 118.299 100.184 118.293C98.7213 118.233 97.2147 117.972 95.68 117.505C94.86 117.355 94.0267 117.155 93.188 116.909Z" fill="white"/>
<path d="M111.837 115.657L111.548 115.504L111.347 115.803C111.164 116.072 110.98 116.341 110.797 116.591C110.191 117.429 109.536 118.18 108.853 118.845C108.544 119.135 108.236 119.413 107.928 119.673C105.416 121.772 102.469 122.851 99.2147 122.84C98.3094 122.84 97.3867 122.744 96.452 122.581C96.2494 122.541 96.0574 122.503 95.864 122.465C95.7014 122.425 95.5374 122.388 95.3734 122.349C94.8147 120.723 93.8614 119.067 92.8414 117.527L92.9094 117.555L92.9187 117.564L92.928 117.575H92.9374C93.3134 117.719 93.6694 117.872 94.0347 118.007H94.0454L94.0934 118.027C94.5934 118.209 95.0654 118.383 95.556 118.528H95.5667C97.3374 119.056 99.0614 119.316 100.736 119.316C103.576 119.336 105.868 118.593 107.581 117.728L107.629 117.699C107.957 117.527 108.265 117.361 108.555 117.18L108.708 117.073H108.719C108.843 116.996 108.968 116.919 109.084 116.843C109.488 116.563 109.855 116.293 110.152 116.043C110.451 115.793 110.701 115.572 110.884 115.388C111.183 115.099 111.347 114.907 111.375 114.868L111.557 114.647L111.481 114.349C111.327 113.819 111.212 113.212 111.105 112.48L111.096 112.423L111.115 112.443C112.059 113.424 112.925 115.147 113.263 116.669C112.771 116.245 112.309 115.917 111.837 115.657ZM114.244 117.844C114.225 115.6 112.791 112.537 111.201 111.239C111.048 111.113 110.893 110.997 110.74 110.912L110.047 110.497L110.143 111.431C110.259 112.616 110.403 113.559 110.595 114.349C110.364 114.588 109.931 115.003 109.305 115.484C109.027 115.696 108.708 115.917 108.361 116.129C108.073 116.321 107.745 116.515 107.399 116.697C107.207 116.795 107.004 116.9 106.792 116.996L106.493 117.121L106.185 117.256L106.099 117.295L106.012 117.333L105.868 117.381L105.859 117.391L105.704 117.449L105.579 117.487L105.54 117.497L105.453 117.535L105.195 117.623L104.896 117.719L104.808 117.737H104.8L104.587 117.805L104.376 117.853L104.087 117.929L103.885 117.969L103.683 118.017L103.355 118.084L103.268 118.093L102.971 118.141L102.671 118.191L102.536 118.199L102.315 118.228L102.248 118.239H102.228L102.056 118.248L101.883 118.267L101.689 118.276L101.651 118.287L101.42 118.296H101.189L101.083 118.305H100.804H100.784H100.747C100.563 118.305 100.371 118.296 100.188 118.296C100.024 118.287 99.86 118.276 99.696 118.267C99.532 118.257 99.3694 118.239 99.2054 118.219C99.0414 118.209 98.8787 118.191 98.7147 118.161C98.58 118.151 98.4347 118.132 98.3 118.103H98.252L98.2227 118.093H98.2134L98.1747 118.084L98.0987 118.075C97.9827 118.055 97.8667 118.036 97.7427 118.007L97.5014 117.959L97.328 117.929L97.164 117.892L96.8654 117.824L96.8173 117.813L96.7787 117.805L96.7307 117.796L96.3747 117.699L96.3173 117.689L96.124 117.632H96.1147L96.076 117.623C95.9414 117.584 95.8067 117.545 95.6814 117.507L95.4894 117.449H95.4787L95.3347 117.401H95.3254C94.584 117.16 93.852 116.88 93.092 116.553C92.62 116.341 92.1387 116.12 91.6574 115.869L90.04 115.051L91.176 116.669C92.524 118.593 93.9974 120.857 94.68 122.975L94.7667 123.235L94.988 123.293C95.3054 123.379 95.624 123.447 95.9414 123.515H95.9507C97.068 123.736 98.1467 123.852 99.2147 123.852C101.632 123.861 103.904 123.303 105.955 122.185C107.043 121.597 108.083 120.848 109.045 119.952C109.613 119.432 110.152 118.855 110.672 118.228C111.057 117.767 111.433 117.275 111.789 116.755C112.348 117.092 112.916 117.584 113.551 118.248L114.253 118.96L114.244 117.844Z" fill="#E07832"/>
<path d="M102.147 128.251C102.147 128.251 99.5241 132.499 99.2014 134.195C97.4787 132.751 94.6614 129.677 94.488 127.395C96.5094 128.865 98.3107 130.052 102.147 128.251Z" fill="#E07832"/>
<path d="M136.365 81.1747C135.095 79.8867 133.049 80.3227 131.324 80.3827C129.484 80.4481 126.767 80.548 125.893 83.196C125.209 85.2774 125.169 88.0734 124.789 90.2787L123.275 104.155C123.961 104.725 126.404 105.113 127.317 104.565C128.516 103.845 134.557 91.76 136.251 86.784C137.032 84.4814 137.972 82.8027 136.365 81.1747Z" fill="#F79C5E"/>
<path d="M135.452 82.9053C135.312 81.5533 133.524 81.7867 132.301 81.7333C131.096 81.6827 129.017 81.3867 127.965 82.144C126.928 82.8894 126.861 85.5867 126.732 86.8733C129.901 86.552 129.129 90.88 126.559 90.2547L126.421 91.0494C126.239 92.1107 126.111 93.4254 126.323 94.1774C126.468 93.3494 126.436 91.6693 127.136 91.1173C127.816 90.58 129.097 90.9333 129.872 90.4373C131.899 89.14 129.933 87.0734 128.276 86.4107C128.435 85.8347 128.549 84.3774 128.964 83.944C129.44 83.448 130.835 83.4907 131.576 83.3893C132.687 83.2387 133.451 82.9133 133.848 83.8307C134.113 84.4493 133.725 85.4427 133.603 86.084C134.243 85.3867 135.547 83.8307 135.452 82.9053Z" fill="#E07832"/>
<path d="M94.0306 106.833L95.676 106.916C97.82 110.133 97.3173 114.823 98.296 118.407C97.38 118.784 96.1293 118.024 95.1266 118.039C95.8946 116.765 95.7026 107.173 94.0306 106.833Z" fill="#E07832"/>
<path d="M88.8974 83.5161C88.8974 83.5161 95.384 91.1174 92.7894 104.587C97.3107 104.967 104.933 106.423 104.196 101.848C108.033 107.085 96.1574 109.373 89.3107 106.667C92.9561 89.1214 87.9667 85.4174 88.8974 83.5161Z" fill="#E07832"/>
<path d="M80.4213 56.7547C82.8493 58.2854 87.1079 60.3934 89.6853 59.9174C94.3839 59.052 101.819 56.896 108.629 51.9227C125.316 39.7374 113.829 80.8507 124.147 80.8507C125.012 80.9174 123.233 91.2374 124.201 95.6627C125.267 100.544 126.109 97.6054 126.109 97.6054C126.109 97.6054 126.673 95.4934 127.528 92.2107C130.26 81.6934 135.949 59.1521 135.459 55.6387C134.408 48.1907 124.14 45.7201 118.296 40.5094C110.688 33.7254 98.5319 34.1161 89.6866 39.8667C87.1599 41.5107 80.0186 41.7614 75.9786 44.7187C74.68 45.6694 73.6733 46.5974 73.1906 47.4481C71.704 50.0747 77.1346 54.6814 80.4213 56.7547Z" fill="#604135"/>
<path d="M83.2814 44.7627C84.6107 43.4814 85.8641 42.2534 86.3147 41.296C87.1414 39.536 82.1894 45.1614 83.2814 44.7627Z" fill="#604135"/>
<path d="M75.7147 70.512C75.7613 76.7187 78.376 88.1093 78.36 88.9213C79.612 86.444 78.5867 79.0427 78.844 70.7134C79.0147 65.212 79.7453 59.304 82.0627 54.1414C82.192 53.856 82.3253 53.572 82.464 53.288L83.4867 44.66L83.2813 44.7627C81.544 46.4267 79.6667 48.1707 79.248 49.488C78.9147 50.5427 78.5173 52.1827 78.1173 54.1014C77.0333 59.284 75.8933 66.468 75.736 69.388C75.7187 69.736 75.712 70.1147 75.7147 70.512Z" fill="#604135"/>
<path d="M80.4213 56.7547C82.8493 58.2854 87.1079 60.3934 89.6853 59.9174C94.3839 59.052 101.819 56.896 108.629 51.9227C125.316 39.7374 113.829 80.8507 124.147 80.8507C125.012 80.9174 123.233 91.2374 124.201 95.6627C125.267 100.544 126.109 97.6054 126.109 97.6054C126.109 97.6054 126.673 95.4934 127.528 92.2107C125.539 88.4787 125.872 78.7667 126.355 76.684C118.607 78.2587 121.491 50.9174 116.093 47.2494C112.707 44.9494 108.836 48.996 105.905 50.528C102.953 52.0694 99.1986 53.76 95.8173 52.956C90.7559 51.7507 86.0373 48.7147 81.196 46.8627C79.476 46.2054 77.724 45.488 75.9786 44.7187C74.68 45.6694 73.6733 46.5974 73.1906 47.4481C71.704 50.0747 77.1346 54.6814 80.4213 56.7547Z" fill="#4F3229"/>
<path d="M109.671 175.927C106.575 173.263 97.8827 175.163 93.988 175.768C93.988 175.768 96.6614 187.047 97.4427 188.336C98.9734 189.635 100.597 189.192 101.549 188.903C102.967 188.472 112.24 178.139 109.671 175.927Z" fill="#1A3D3A"/>
<path d="M99.8893 208.779C98.2813 208.711 96.6827 208.605 95.104 208.452C95.556 200.836 96.2493 193.759 97.2413 187.887C98.1173 182.753 99.2147 178.547 100.592 175.707C100.66 175.553 100.727 175.409 100.804 175.273L100.939 175.659L101.016 175.9L102.036 178.961L102.373 179.972C101.979 181.128 101.785 184.265 101.767 188.792C101.748 193.972 101.949 200.971 102.296 208.856C101.959 208.856 101.621 208.856 101.285 208.827C100.823 208.827 100.351 208.807 99.8893 208.779Z" fill="#1A3D3A"/>
<path d="M130.069 147.747C127.988 150.84 124.932 153.719 122.357 156.524C121.197 157.787 114.764 163.985 115.103 164.901L108.277 176.601C108.389 176.592 108.305 176.268 108.624 176.432C110.564 179.52 112.891 182.495 114.703 185.801C116.467 189.023 117.048 192.141 117.676 195.648C121.844 193.568 137.333 167.241 130.069 147.747Z" fill="#939A9E"/>
<path d="M130.907 165.12C128.427 176.151 125.092 181.367 118.963 190.349C117.889 187.051 115.855 184.423 113.56 182.337C112.993 181.82 112.408 181.337 111.82 180.887C107.515 177.581 102.943 175.955 102.316 175.261C102.073 174.992 101.94 174.847 101.94 174.847C102.059 174.773 102.184 174.683 102.316 174.575C107.084 170.749 120.183 145.984 120.069 140.312C123.296 142.948 131.483 148.812 131.483 148.812C131.483 148.812 131.691 161.625 130.907 165.12Z" fill="#E8E8E8"/>
<path d="M99.5427 175.837C99.5427 175.837 97.9453 163.948 97.832 162.768V162.763C97.1733 156.028 96.9373 148.953 96.696 145.545L96.6733 145.217C93.4467 147.853 88.7813 157.064 88.7813 157.064C88.7813 157.064 84.1253 176.111 86.776 187.433C91.3107 177.187 99.5427 175.837 99.5427 175.837Z" fill="#939A9E"/>
<path d="M102.671 174.847C102.671 174.847 102.545 174.992 102.316 175.261C101.787 175.888 98.2853 175.528 94.5707 177.084C91.9933 178.167 89.3173 180.167 87.46 184.06C84.7387 172.755 89.828 149.476 89.828 149.476C89.828 149.476 94.1 144.343 97.3267 141.707C97.3347 141.812 97.1293 141.211 97.3493 142.035C98.2293 145.336 97.8267 152.519 98.484 159.252V159.257C98.5987 160.437 98.7267 161.607 98.8733 162.743C99.5693 168.267 100.632 173.035 102.316 174.575C102.431 174.683 102.551 174.773 102.671 174.847Z" fill="#E8E8E8"/>
<path d="M176.152 180.424C173.397 183.033 170.5 185.488 167.476 187.771C166.976 188.165 166.475 188.54 165.965 188.907C161.739 192.007 157.261 194.789 152.573 197.216C148.981 199.092 145.275 200.749 141.452 202.193C141.289 197.821 141.251 193.98 141.376 191.149C141.625 185.624 142.453 180.059 143.455 174.639C144.091 171.211 145.66 167.783 145.92 164.336L148.24 153.573L148.395 153.601C175.111 159.176 174.659 171.779 176.056 179.799C176.084 179.991 176.123 180.195 176.152 180.424Z" fill="#D3D3D3"/>
</svg>
