<svg width="209" height="209" viewBox="0 0 209 209" fill="none" xmlns="http://www.w3.org/2000/svg">
<path d="M192.571 160.453C187.005 169.263 180.333 176.936 172.861 183.435C172.389 183.84 171.917 184.244 171.447 184.639C171.091 184.937 170.724 185.236 170.359 185.533C170.003 185.823 169.645 186.112 169.289 186.391C167.432 187.873 165.535 189.279 163.6 190.608C163.292 190.82 162.973 191.031 162.656 191.233C162.348 191.436 162.049 191.648 161.741 191.831C160.751 192.505 159.749 193.14 158.728 193.756C157.823 194.305 156.917 194.844 155.993 195.364C155.455 195.672 154.896 195.98 154.348 196.279C153.943 196.5 153.529 196.721 153.096 196.933L152.961 197.001C152.355 197.319 151.739 197.637 151.123 197.944C150.651 198.176 150.168 198.417 149.688 198.639C148.763 199.089 147.839 199.515 146.895 199.927C146.664 200.033 146.424 200.139 146.183 200.247L145.913 200.361C145.567 200.516 145.22 200.659 144.873 200.804C144.499 200.959 144.123 201.112 143.748 201.256C143.313 201.439 142.881 201.612 142.437 201.785C142.091 201.912 141.753 202.045 141.408 202.171L141.235 202.239C140.965 202.355 140.676 202.451 140.396 202.556C140.213 202.624 140.031 202.692 139.839 202.757C139.713 202.805 139.588 202.855 139.453 202.903L139.125 203.019C138.528 203.231 137.932 203.432 137.325 203.635C136.488 203.904 135.649 204.173 134.812 204.424L134.784 204.433L134.475 204.529C134.225 204.607 133.975 204.675 133.724 204.751C133.041 204.944 132.367 205.137 131.673 205.319C131.028 205.492 130.384 205.656 129.739 205.82C129.604 205.849 129.469 205.887 129.333 205.917L129.027 205.993C128.419 206.139 127.804 206.283 127.196 206.427C127.061 206.456 126.927 206.484 126.792 206.513C126.139 206.657 125.473 206.803 124.819 206.927L124.761 206.936L124.463 206.995C123.915 207.1 123.364 207.207 122.816 207.293C122.431 207.369 122.056 207.437 121.671 207.495C118.965 207.948 116.24 208.285 113.505 208.516C112.871 208.584 112.255 208.621 111.619 208.66C110.993 208.717 110.367 208.748 109.741 208.765C108.74 208.833 107.749 208.853 106.748 208.872C106.535 208.881 106.324 208.892 106.121 208.881C105.843 208.901 105.563 208.901 105.284 208.892C105.063 208.901 104.841 208.911 104.611 208.911C104.167 208.911 103.715 208.901 103.272 208.892C100.797 208.861 98.3227 208.737 95.8587 208.535C95.5693 208.507 95.2707 208.487 94.9813 208.448C91.7947 208.16 88.628 207.717 85.4507 207.12C85.2093 207.072 84.96 207.024 84.7093 206.975C84.488 206.936 84.2667 206.899 84.0453 206.86L83.804 206.803C83.428 206.725 83.0627 206.648 82.668 206.561L82.3507 206.493C81.908 206.397 81.4733 206.301 81.0307 206.195C78.2107 205.54 75.3893 204.76 72.6067 203.856C71.7013 203.557 70.8067 203.249 69.9107 202.932C69.6414 202.836 69.372 202.74 69.112 202.643C68.7267 202.508 68.3507 202.363 67.976 202.219C66.8307 201.785 65.684 201.333 64.548 200.852L64.4907 200.823L64.3654 200.765L64.2587 200.727C63.768 200.533 63.2867 200.323 62.796 200.101C62.6614 200.043 62.536 199.985 62.4107 199.917C62.0934 199.773 61.776 199.639 61.468 199.484C61.1787 199.36 60.8894 199.235 60.6107 199.1C60.3894 199.004 60.1667 198.897 59.9453 198.801C59.484 198.571 59.0307 198.349 58.5787 198.128C58.2027 197.935 57.828 197.743 57.452 197.549L57.2414 197.444C56.8067 197.232 56.3747 196.991 55.9507 196.769L55.8253 196.701L55.6427 196.596C55.46 196.509 55.2867 196.415 55.112 196.317C54.8427 196.173 54.5733 196.028 54.304 195.884C54.044 195.74 53.784 195.595 53.524 195.441C52.928 195.104 52.3214 194.757 51.724 194.401C51.4734 194.248 51.2133 194.103 50.964 193.939L50.924 193.911L50.6747 193.765C50.308 193.544 49.9427 193.323 49.5867 193.101C49.432 193.005 49.2787 192.909 49.124 192.812C48.9707 192.716 48.8067 192.611 48.652 192.515C48.3347 192.312 48.0173 192.1 47.7093 191.899L47.5267 191.773L47.3813 191.677L47.228 191.571L47.1414 191.513L47.1027 191.493C46.824 191.32 46.5627 191.147 46.304 190.945C45.9667 190.743 45.648 190.521 45.3307 190.291L45.264 190.243L45.148 190.165C45.004 190.059 44.868 189.964 44.7333 189.867C44.6 189.771 44.464 189.684 44.3387 189.597C44.128 189.443 43.916 189.299 43.7134 189.153L43.6453 189.096C42.8373 188.519 42.048 187.931 41.2774 187.324C40.768 186.94 40.2667 186.555 39.7667 186.16C39.1693 185.679 38.5627 185.188 37.9747 184.696L37.696 184.465C36.868 183.781 36.0494 183.069 35.26 182.337C34.6254 181.779 33.9987 181.201 33.3827 180.615L33.3253 180.556C32.3907 179.691 31.476 178.813 30.5907 177.909C30.3214 177.639 30.0613 177.369 29.792 177.1C29.416 176.705 29.04 176.301 28.6654 175.907L28.6173 175.849C27.6547 174.828 26.7293 173.788 25.8346 172.729C25.632 172.517 25.4493 172.296 25.2667 172.084C23.7067 170.225 22.1947 168.329 20.7707 166.375C19.972 165.277 19.192 164.169 18.4307 163.043C18.296 162.851 18.1707 162.659 18.036 162.467C17.824 162.148 17.612 161.82 17.4 161.493L17.352 161.407C16.1974 159.625 15.0894 157.805 14.06 155.957C13.9347 155.755 13.8093 155.524 13.704 155.293C12.972 154.013 12.2973 152.703 11.6427 151.384C11.2093 150.508 10.7867 149.651 10.372 148.775C8.95735 145.703 7.68668 142.584 6.56935 139.408C6.05868 137.933 5.568 136.461 5.12534 134.959C5.08667 134.844 5.04803 134.728 5.0187 134.603C4.93203 134.295 4.83599 133.996 4.73999 133.679C4.49999 132.841 4.26802 131.993 4.04669 131.156C-2.95331 104.284 0.753376 74.688 16.7654 49.3667C47.44 0.813352 111.667 -13.6666 160.211 17.008C208.764 47.6827 223.245 111.911 192.571 160.453Z" fill="#F7F2DA"/>
<path d="M161.741 191.831C160.751 192.505 159.749 193.14 158.728 193.756C157.823 194.305 156.917 194.844 155.993 195.364C155.455 195.672 154.896 195.98 154.348 196.279C153.943 196.5 153.529 196.721 153.096 196.933L152.961 197.001C152.355 197.319 151.739 197.637 151.123 197.944C150.651 198.176 150.168 198.417 149.688 198.639C148.763 199.089 147.839 199.515 146.895 199.927C146.664 200.033 146.424 200.139 146.183 200.247L145.913 200.361C145.567 200.516 145.22 200.659 144.873 200.804C144.499 200.959 144.123 201.112 143.748 201.256C143.313 201.439 142.881 201.612 142.437 201.785C142.091 201.912 141.753 202.045 141.408 202.171L141.235 202.239C140.965 202.355 140.676 202.451 140.396 202.556C140.213 202.624 140.031 202.692 139.839 202.757C139.713 202.805 139.588 202.855 139.453 202.903L139.125 203.019C138.528 203.231 137.932 203.432 137.325 203.635C136.488 203.904 135.649 204.173 134.812 204.424L134.784 204.433L134.475 204.529C134.225 204.607 133.975 204.675 133.724 204.751C133.041 204.944 132.367 205.137 131.673 205.319C131.028 205.492 130.384 205.656 129.739 205.82C129.604 205.849 129.469 205.887 129.333 205.917L129.027 205.993C128.419 206.139 127.804 206.283 127.196 206.427C127.061 206.456 126.927 206.484 126.792 206.513L142.544 178.813L149.072 167.348L149.081 167.328L149.668 166.299C157.4 170.236 162.877 174.221 161.741 191.831Z" fill="#D8CDAF"/>
<path d="M150.304 168.752C150.304 168.752 150.236 172.691 150.101 179.44C150.005 184.447 149.871 190.993 149.688 198.639C148.763 199.089 147.839 199.515 146.895 199.927C146.664 200.033 146.424 200.139 146.183 200.247L145.913 200.361C145.567 200.516 145.22 200.659 144.873 200.804C144.499 200.959 144.123 201.112 143.748 201.256C143.313 201.439 142.881 201.612 142.437 201.785C142.091 201.912 141.753 202.045 141.408 202.171L141.235 202.239C140.965 202.355 140.676 202.451 140.396 202.556C140.213 202.624 140.031 202.692 139.839 202.757C139.713 202.805 139.588 202.855 139.453 202.903L139.125 203.019C138.528 203.231 137.932 203.432 137.325 203.635C136.488 203.904 135.649 204.173 134.812 204.424L134.784 204.433L134.475 204.529C134.225 204.607 133.975 204.675 133.724 204.751C133.041 204.944 132.367 205.137 131.673 205.319C131.028 205.492 130.384 205.656 129.739 205.82C129.604 205.849 129.469 205.887 129.333 205.917L129.027 205.993C128.419 206.139 127.804 206.283 127.196 206.427C127.061 206.456 126.927 206.484 126.792 206.513C126.139 206.657 125.473 206.803 124.819 206.927L124.761 206.936L124.463 206.995C123.915 207.1 123.364 207.207 122.816 207.293C122.431 207.369 122.056 207.437 121.671 207.495C118.965 207.948 116.24 208.285 113.505 208.516C112.871 208.584 112.255 208.621 111.619 208.66C110.993 208.717 110.367 208.748 109.741 208.765C108.74 208.833 107.749 208.853 106.748 208.872C106.535 208.881 106.324 208.892 106.121 208.881C105.843 208.901 105.563 208.901 105.284 208.892C105.063 208.901 104.841 208.911 104.611 208.911C104.167 208.911 103.715 208.901 103.272 208.892C100.797 208.861 98.3226 208.737 95.8586 208.535C95.5693 208.507 95.2706 208.487 94.9813 208.448C91.7946 208.16 88.628 207.717 85.4506 207.12C85.2093 207.072 84.96 207.024 84.7093 206.975C84.488 206.936 84.2666 206.899 84.0453 206.86L83.804 206.803C83.428 206.725 83.0626 206.648 82.668 206.561L82.3506 206.493C81.908 206.397 81.4733 206.301 81.0307 206.195C78.2107 205.54 75.3893 204.76 72.6066 203.856C71.7013 203.557 70.8067 203.249 69.9107 202.932C69.6413 202.836 69.372 202.74 69.112 202.643C68.7266 202.508 68.3506 202.363 67.976 202.219C66.8306 201.785 65.684 201.333 64.548 200.852L64.4907 200.823L64.3654 200.765L64.2586 200.727C63.768 200.533 63.2867 200.323 62.796 200.101C62.6614 200.043 62.536 199.985 62.4107 199.917C62.0933 199.773 61.776 199.639 61.468 199.484C61.1786 199.36 60.8893 199.235 60.6107 199.1C60.3893 199.004 60.1666 198.897 59.9453 198.801C59.484 198.571 59.0306 198.349 58.5786 198.128C58.2026 197.935 57.828 197.743 57.452 197.549L57.2413 197.444C56.8067 197.232 56.3746 196.991 55.9506 196.769L55.8253 196.701L55.6426 196.596C55.46 196.509 55.2866 196.415 55.112 196.317C54.8426 196.173 54.5733 196.028 54.304 195.884C54.044 195.74 53.784 195.595 53.524 195.441C52.928 195.104 52.3213 194.757 51.724 194.401C51.4733 194.248 51.2133 194.103 50.964 193.939L50.924 193.911L50.6747 193.765C50.308 193.544 49.9426 193.323 49.5866 193.101C49.432 193.005 49.2787 192.909 49.124 192.812C48.9707 192.716 48.8067 192.611 48.652 192.515C48.3347 192.312 48.0173 192.1 47.7093 191.899L47.5267 191.773L47.3813 191.677L47.228 191.571L47.1413 191.513L47.1027 191.493C46.824 191.32 46.5626 191.147 46.304 190.945C45.9666 190.743 45.648 190.521 45.3307 190.291L45.264 190.243L45.148 190.165C45.004 190.059 44.868 189.964 44.7333 189.867C44.6 189.771 44.464 189.684 44.3387 189.597C44.128 189.443 43.916 189.299 43.7133 189.153L43.6453 189.096C42.8373 188.519 42.048 187.931 41.2773 187.324C40.768 186.94 40.2667 186.555 39.7667 186.16C39.1693 185.679 38.5627 185.188 37.9747 184.696L37.696 184.465C36.868 183.781 36.0494 183.069 35.26 182.337C34.6254 181.779 33.9987 181.201 33.3827 180.615L33.3253 180.556C38.6013 172.787 46.3706 167.587 55.112 163.697C56.24 163.197 57.3947 162.707 58.56 162.245C59.724 161.783 60.8986 161.34 62.084 160.916C68.8613 158.471 75.9667 156.564 82.8027 154.677C84.6893 154.167 86.548 153.647 88.3773 153.127C88.8387 152.992 89.3013 152.857 89.764 152.723C90.0613 152.636 90.3613 152.549 90.6586 152.453C93.028 151.751 95.3373 151.028 97.5426 150.248C97.5426 150.248 110.357 152.201 123.509 155.841C123.712 155.9 123.904 155.948 124.096 156.005C124.395 156.092 124.693 156.169 124.992 156.255C126.975 156.824 128.968 157.429 130.904 158.076C134.475 159.259 137.893 160.569 140.888 161.993L141.157 162.129C142.533 162.793 143.815 163.476 144.971 164.199L145.056 164.248C146.645 165.229 148.003 166.251 149.072 167.317L149.081 167.328C149.543 167.8 149.957 168.271 150.304 168.752Z" fill="#D8CDAF"/>
<path d="M101.152 177.745C94.94 173.564 90.4413 167.613 86.2066 161.399C93.4066 171.751 95.9013 183.096 98.56 195.573C101.229 192.153 104.352 188.739 107.791 185.597C110.971 182.695 115.795 177.413 120.156 177.128L101.152 177.745Z" fill="#C6BA9B"/>
<path d="M134.64 180.955C134.665 178.748 133.983 177.381 133.459 175.253C132.747 172.363 131.835 171.603 130.928 168.752C130.293 166.756 129.007 164.924 128.379 162.971L120.156 177.128C121.125 176.668 131.94 181.205 134.137 186.939C134.641 184.971 134.627 182.221 134.64 180.955Z" fill="#C6BA9B"/>
<path d="M128.307 162.757L128.379 162.971L128.52 162.764L128.307 162.757Z" fill="#C6BA9B"/>
<path d="M123.481 153.547L101.236 146.743C94.9226 144.649 87.5613 150.985 87.2213 157.084C86.556 168.997 110.032 176.977 119.564 177.128C125.699 177.224 129.257 161.421 123.481 153.547Z" fill="#FBA479"/>
<path d="M123.555 159.488L88.9839 152.096C88.9839 152.096 89.2653 145.776 89.9226 136.733V136.728C90.3613 130.679 90.972 123.408 91.7746 116.001C92.0973 113.009 92.4546 109.992 92.8413 107.029C93.9146 98.8814 123.076 119.341 123.076 119.341L123.18 127.816L123.497 154.713L123.555 159.488Z" fill="#FBA479"/>
<path d="M124.316 154.817C124.04 154.783 123.768 154.753 123.497 154.713C104.127 152.251 94.7786 143.605 89.9226 136.733V136.728C90.3613 130.679 90.972 123.408 91.7746 116.001L115.499 123.544L123.168 127.611L123.18 127.816L124.316 154.817Z" fill="#EF7950"/>
<path d="M83.1493 119.203C80.5893 101.949 80.2187 82.4014 77.7573 65.804C77.7573 65.804 90.4706 52.7627 92.6586 51.4907C94.0266 50.6934 108.139 43.844 121.756 54.1334C135.144 64.2507 136.165 86.084 142.495 102.336C145.073 108.964 144.271 140.412 132.236 143.604C114.528 148.301 100.087 136.811 93.4426 131.881C87.4879 127.464 84.192 126.236 83.1493 119.203Z" fill="#FBA479"/>
<path d="M143.807 81.3627C142.117 80.244 139.309 80.4734 137.136 81.544C138.185 87.1774 139.2 92.816 140.093 98.476C140.721 98.6787 141.416 98.7187 142.183 98.556C145.205 97.9107 146.879 83.3987 143.807 81.3627Z" fill="#FBA479"/>
<path d="M138.697 90.1427C138.911 91.356 139.12 92.568 139.325 93.7813C139.993 93.4813 140.589 92.84 140.531 92.184C140.448 91.268 139.627 90.3827 138.697 90.1427Z" fill="#EF7950"/>
<path d="M141.965 82.3347C141.347 82.1347 140.281 82.4653 139.667 82.664C139.005 82.8773 138.213 83.0987 137.491 83.46C137.589 83.9987 137.691 84.5374 137.789 85.0774L137.952 84.888C139.088 83.7307 141.66 82.4894 143.16 83.472C142.823 83.124 142.457 82.4947 141.965 82.3347Z" fill="#EF7950"/>
<path d="M80.5187 93.5654L80.38 93.696C80.3467 93.5533 80.3107 93.4093 80.28 93.264C80.5547 93.228 80.3694 93.4307 80.5187 93.5654Z" fill="#D6D2BF"/>
<path d="M80.9693 109.876C79.8359 104.943 79.068 99.944 77.9413 95.0294L79.6266 93.4574C80.6133 97.6947 82.4666 101.779 83.6773 105.941C84.724 109.541 85.7866 113.943 87.5773 117.2C90.6373 122.772 136.141 116.34 143.492 107.743C143.699 107.5 147.392 119.48 144.469 129.403C141.513 139.448 131.941 147.443 131.941 147.443L129.235 144.507L129.011 149.343C129.011 149.343 112.375 147.577 108.824 146.357C107.337 145.847 105.849 145.252 104.376 144.569C96.1773 140.764 88.4573 134.209 83.9866 124.115C81.9919 119.608 82.0506 114.585 80.9693 109.876Z" fill="#C9C4AF"/>
<path d="M101.249 118.755C103.843 122.396 113.229 129.863 119.863 128.941C124.984 128.231 130.491 119.247 132.259 116.129C130.277 116.593 126.679 117.119 124.896 117.367C122.889 117.644 106.697 119.831 101.249 118.755Z" fill="#60281F"/>
<path d="M103.653 118.516C104.715 120.476 106.021 122.863 107.565 123.557C107.917 123.713 109.708 123.745 112.084 123.659C117.427 123.468 125.729 122.685 127.212 121.396C128.357 120.397 129.207 118.417 129.807 116.521C129.852 116.373 129.896 116.233 129.943 116.087C129.741 116.12 129.532 116.157 129.313 116.195C128.543 116.325 127.681 116.46 126.752 116.6C119.868 117.629 109.287 118.773 103.653 118.516Z" fill="white"/>
<path d="M107.565 123.557C108.777 123.837 125.729 122.685 127.212 121.396C128.357 120.397 129.207 118.417 129.807 116.521L129.313 116.195C128.543 116.325 127.681 116.46 126.752 116.6C126.673 117.755 126.461 118.972 126.192 120.015C126.045 120.569 126.088 120.561 125.669 120.824C125.045 121.22 109.516 123.261 107.565 123.557Z" fill="#E8E6E6"/>
<path d="M131.173 117.967C130.904 118.409 130.605 118.88 130.277 119.381C130.076 119.689 129.864 120.007 129.633 120.335C128.833 121.519 127.9 122.769 126.889 123.944L126.783 124.071C126.532 124.368 126.281 124.647 126.012 124.927C125.888 125.061 125.763 125.196 125.637 125.331C125.407 125.563 125.185 125.784 124.953 125.995L124.732 126.207C124.511 126.4 124.289 126.601 124.068 126.785L123.847 126.968C123.625 127.14 123.413 127.305 123.181 127.469V127.477H123.172L123.056 127.555L122.759 127.767L122.72 127.787L122.489 127.931C122.335 128.017 122.181 128.104 122.027 128.191C121.796 128.315 121.575 128.421 121.343 128.519L121.247 128.556L121.112 128.615L120.881 128.692L120.601 128.777L120.428 128.825L120.265 128.864L120.217 128.873C120.101 128.903 119.985 128.921 119.861 128.941C119.216 129.028 118.532 129.037 117.839 128.98L117.713 128.971C117.569 128.961 117.415 128.941 117.271 128.913C117.068 128.893 116.876 128.855 116.673 128.816L116.375 128.759L116.077 128.7C115.893 128.663 115.711 128.615 115.528 128.556C115.316 128.499 115.095 128.431 114.873 128.363C114.661 128.297 114.44 128.219 114.219 128.141L113.911 128.028C113.737 127.96 113.555 127.892 113.371 127.815L113.063 127.691L112.764 127.565C112.456 127.429 112.148 127.285 111.84 127.132C111.58 127.007 111.311 126.861 111.051 126.727L110.955 126.679C110.704 126.535 110.453 126.4 110.204 126.255C109.924 126.101 109.655 125.937 109.376 125.764L109.096 125.591C108.875 125.456 108.653 125.311 108.432 125.157L108.085 124.936L107.845 124.763L107.547 124.561C106.959 124.156 106.391 123.723 105.852 123.3L105.583 123.079L105.323 122.876L105.063 122.655L104.995 122.607C104.851 122.48 104.705 122.356 104.572 122.231L104.311 122C104.089 121.816 103.888 121.624 103.685 121.432C103.483 121.249 103.291 121.067 103.108 120.883L102.905 120.681C102.791 120.556 102.675 120.44 102.559 120.315C102.337 120.084 102.116 119.843 101.933 119.621L101.856 119.535L101.741 119.391L101.539 119.149L101.5 119.092L101.404 118.957L101.249 118.755L101.528 118.804L101.664 118.832C102.011 118.88 102.395 118.919 102.809 118.957C103.06 118.976 103.309 118.996 103.589 119.005H103.599H103.609H103.628L103.685 119.016L103.927 119.025H103.955L104.263 119.033L104.543 119.044H104.851C105.264 119.053 105.688 119.053 106.14 119.044H106.545L106.844 119.033L107.171 119.025C107.412 119.016 107.643 119.005 107.884 119.005C108.489 118.985 109.096 118.948 109.723 118.919C110.348 118.88 110.973 118.832 111.609 118.793C111.744 118.784 111.869 118.775 112.004 118.764C112.804 118.707 113.612 118.639 114.401 118.563C114.604 118.543 114.805 118.524 115.008 118.505C115.268 118.476 115.519 118.457 115.768 118.437C116.096 118.399 116.423 118.369 116.751 118.341C116.885 118.321 117.029 118.312 117.173 118.293H117.213L117.559 118.253C117.905 118.216 118.252 118.177 118.589 118.148C118.792 118.12 118.993 118.1 119.196 118.072C119.321 118.063 119.447 118.043 119.561 118.032L119.889 117.995C120.245 117.956 120.592 117.917 120.919 117.869H120.929C121.612 117.793 122.229 117.715 122.768 117.648C122.941 117.629 123.115 117.6 123.277 117.581C123.779 117.513 124.193 117.465 124.492 117.427L124.732 117.388L124.896 117.368C125.011 117.349 125.145 117.331 125.28 117.311C125.396 117.292 125.521 117.283 125.647 117.263C125.82 117.235 126.003 117.204 126.205 117.176L126.445 117.147L126.523 117.128L126.687 117.109H126.705C127.12 117.051 127.553 116.983 127.987 116.907C128.247 116.868 128.505 116.829 128.756 116.792L129.016 116.744C129.267 116.704 129.527 116.665 129.777 116.617C129.951 116.588 130.113 116.56 130.277 116.531C130.731 116.444 131.173 116.367 131.568 116.281C131.819 116.233 132.049 116.175 132.261 116.127C132.011 116.569 131.693 117.128 131.299 117.753L131.173 117.967ZM129.941 116.088L129.633 116.137L129.333 116.195H129.315C129.161 116.223 129.007 116.251 128.843 116.271C128.699 116.3 128.555 116.319 128.411 116.348L128.352 116.359C128.197 116.377 128.053 116.407 127.9 116.425C127.745 116.444 127.592 116.472 127.437 116.492C127.207 116.531 126.985 116.569 126.753 116.599V116.608C126.32 116.665 125.877 116.733 125.416 116.801C125.252 116.82 125.097 116.839 124.935 116.859C124.741 116.887 124.549 116.917 124.357 116.945L124.289 116.955C123.952 116.993 123.605 117.041 123.259 117.089L122.98 117.128H122.951L122.893 117.139C122.768 117.157 122.643 117.167 122.528 117.187L122.431 117.195C122.22 117.224 122.007 117.252 121.796 117.272L121.623 117.292C121.42 117.32 121.227 117.349 121.025 117.368L120.765 117.397C120.611 117.427 120.457 117.445 120.304 117.456L120.255 117.465C120.111 117.475 119.967 117.493 119.821 117.513H119.812H119.803L119.533 117.541L119.235 117.581C118.628 117.648 118.012 117.715 117.387 117.783C117.232 117.803 117.079 117.811 116.924 117.831L116.683 117.851C116.201 117.899 115.72 117.947 115.249 117.995L115.056 118.004C114.767 118.032 114.479 118.063 114.189 118.091H114.18L113.824 118.12C113.603 118.139 113.381 118.157 113.16 118.177C112.919 118.196 112.668 118.216 112.428 118.236C111.965 118.273 111.503 118.303 111.051 118.332L110.791 118.351H110.743C110.531 118.361 110.319 118.38 110.117 118.389C109.983 118.399 109.847 118.409 109.713 118.417H109.693C109.568 118.427 109.433 118.437 109.299 118.437H109.241C109.096 118.447 108.952 118.457 108.817 118.467C108.672 118.467 108.537 118.476 108.403 118.476C108.259 118.485 108.124 118.495 107.989 118.495C107.681 118.505 107.373 118.524 107.075 118.524C106.507 118.543 105.957 118.553 105.437 118.553H105.361C105.225 118.553 105.091 118.553 104.956 118.543C104.725 118.543 104.513 118.543 104.301 118.533H104.071L103.744 118.515H103.657C102 118.437 100.777 118.245 100.2 117.888C100.297 118.168 100.471 118.485 100.711 118.843L100.961 119.179L101.172 119.459C101.539 119.929 101.981 120.44 102.511 120.971C104.841 123.376 108.605 126.284 112.524 128.008C115.047 129.135 117.617 129.751 119.928 129.432C120.188 129.395 120.448 129.347 120.708 129.259V129.268C121.536 129.037 122.364 128.615 123.181 128.065H123.192C124.251 127.353 125.28 126.419 126.263 125.379C130.172 121.268 133.195 115.481 133.281 115.299C133.031 115.472 131.799 115.751 129.941 116.088Z" fill="#EF7950"/>
<path d="M113.717 72.4213C114.332 72.228 115.512 71.9413 115.512 71.9413L117.592 73.764C117.592 73.764 117.187 71.7547 117.533 71.7013C126.671 70.2933 130.528 75.9973 130.528 75.9973C127.783 75.4853 125.045 75.3507 122.503 75.7347C119.017 76.264 117.196 77.36 115.964 79.3627C115.024 77.124 114.208 74.812 113.717 72.4213Z" fill="#C9C4AF"/>
<path d="M96.6947 76.1067C96.1133 76.3867 95.056 76.9827 95.056 76.9827L94.7787 79.7347C94.7787 79.7347 93.704 77.988 93.416 78.184C85.7774 83.3947 86.8507 90.1947 86.8507 90.1947C88.508 87.9467 90.416 85.98 92.5346 84.5267C95.444 82.5307 97.524 82.0907 99.792 82.7147C98.948 80.436 97.9693 78.1894 96.6947 76.1067Z" fill="#C9C4AF"/>
<path d="M88.9587 100.211L88.9733 100.22L89.288 100.492C92.924 103.197 102.719 99.8333 104.732 96.62C100.384 95.036 99.8173 90.3693 95.848 91.5013C91.464 92.7427 88.8107 96.3334 88.956 100.179L88.9587 100.211Z" fill="white"/>
<path d="M91.3267 98.188C92.2187 100.931 94.62 102.621 96.688 101.964C98.7533 101.307 99.7066 98.548 98.8146 95.8054C97.92 93.0614 95.52 91.3733 93.4533 92.028C91.3866 92.6853 90.4333 95.4427 91.3267 98.188Z" fill="#6D4A44"/>
<path d="M93.5107 97.3787C94.084 99.14 95.6254 100.224 96.9494 99.8027C98.2774 99.3813 98.8893 97.612 98.3147 95.8493C97.744 94.0907 96.2027 93.004 94.8747 93.4267C93.548 93.848 92.9373 95.6187 93.5107 97.3787Z" fill="#44322E"/>
<path d="M94.968 95.2867L98.7226 92.252C98.7226 92.252 100.484 93.9934 100.1 94.6121C99.4627 95.6481 94.968 95.2867 94.968 95.2867Z" fill="white"/>
<path d="M89.288 100.492C90.9187 101.887 98.5694 107.492 104.947 96.908C102.467 90.6013 97.452 83.7773 93.408 84.9013C89.6774 85.9427 88.136 92.996 88.724 98.588L88.7227 98.6093C88.78 99.1107 88.848 99.5973 88.9333 100.069L88.956 100.179C88.8107 96.3333 91.464 92.7427 95.848 91.5013C99.8173 90.3693 100.384 95.036 104.732 96.62C102.719 99.8333 92.924 103.197 89.288 100.492Z" fill="#EF7950"/>
<path d="M121.121 79.2827C121.121 79.2827 121.907 84.8 122.163 87.7134C122.297 89.2414 125.353 100.703 127.653 105.78C121.599 103.567 117.424 88.4627 121.121 79.2827Z" fill="#EF7950"/>
<path d="M123.633 92.136C124.917 92.792 127.04 92.6893 129.059 92.0186C130.756 91.452 132.387 90.492 133.395 89.2493C134.009 88.4907 134.387 87.628 134.415 86.6906L134.419 86.6213C133.703 85.5253 132.825 84.6373 131.847 83.9893C130.243 82.928 128.389 82.528 126.593 82.9787C126.277 83.052 125.971 83.1533 125.66 83.2827C122.816 84.4907 125.148 88.54 123.633 92.136Z" fill="white"/>
<path d="M124.185 88.4293C125.235 91.2693 127.592 93.0147 129.451 92.328C131.309 91.6413 131.967 88.7814 130.919 85.9427C129.869 83.104 127.512 81.3547 125.653 82.0454C123.793 82.7294 123.137 85.588 124.185 88.4293Z" fill="#6D4A44"/>
<path d="M126.039 87.7973C126.712 89.6213 128.225 90.7413 129.417 90.3C130.611 89.8613 131.033 88.0253 130.36 86.2027C129.687 84.38 128.173 83.26 126.98 83.7C125.787 84.1413 125.365 85.976 126.039 87.7973Z" fill="#44322E"/>
<path d="M127.435 85.2413L131.196 82.7467C131.196 82.7467 132.597 84.8493 132.177 85.4227C131.48 86.384 127.435 85.2413 127.435 85.2413Z" fill="white"/>
<path d="M123.675 92.4747C133.927 97.9774 134.397 87.6467 134.415 86.6907C134.387 87.628 134.009 88.4907 133.395 89.2494C132.387 90.492 130.756 91.452 129.059 92.0187C127.04 92.6893 124.917 92.792 123.633 92.136C125.148 88.54 122.816 84.4907 125.66 83.2827C125.971 83.1534 126.277 83.052 126.593 82.9787C128.389 82.528 130.243 82.928 131.847 83.9893C132.825 84.6373 133.703 85.5253 134.419 86.6213L134.356 86.488C134.137 86.064 133.897 85.6387 133.651 85.2054L133.633 85.188C131.407 79.5467 125.044 76.44 122.383 77.592C119.5 78.84 121.481 86.0827 123.675 92.4747Z" fill="#EF7950"/>
<path d="M72.9786 62.9387C76.7533 50.9453 93.748 51.5453 92.6626 51.504C78.32 69.9107 83.6093 106.644 82.9386 107.852C81.9293 103.78 68.1279 78.3507 72.9786 62.9387Z" fill="#C9C4AF"/>
<path d="M78.2053 96.06C75 94.3267 69.0827 97.1627 68.224 100.669C67.268 104.572 79.3399 114.965 82.2399 113.245C88.9719 109.251 78.2053 96.06 78.2053 96.06Z" fill="#FBA479"/>
<path d="M81.6013 103.316C81.1279 102.281 80.5866 101.129 79.9613 100.172C79.628 99.66 79.1667 99.1667 78.7827 98.7067C78.5747 98.456 78.2867 98.156 78.0827 98.0213C76.148 96.7573 74.0453 97.936 72.5013 98.652C71.8639 98.944 70.7653 99.4693 70.4173 100.087C70.14 100.579 70.3146 101.355 70.3013 101.881C70.7759 99.9867 73.756 99.0787 75.52 99.1613C77.36 99.2533 79.2533 101.431 79.6399 103.195C78.3199 103.788 78.0213 105.836 78.852 106.917C79.6773 107.995 82.356 107.305 82.0533 105.961C79.8373 106.736 80.5386 104.176 81.6013 103.316Z" fill="#EF7950"/>
<path d="M106.992 48.5827C107.841 47.872 120.981 44.436 130.44 55.58C137.475 63.864 137.307 84.0466 138.884 90.928C133.879 81.884 129.767 65.7013 122.776 58.2373C119.613 54.86 106.992 48.5827 106.992 48.5827Z" fill="#C9C4AF"/>
<path d="M123.864 109.5C125.052 107.361 146.056 110.425 148.425 110.772C147.745 111.847 119.927 118.596 119.181 117.264C118.544 116.125 123.864 109.5 123.864 109.5Z" fill="#DDDACA"/>
<path d="M113.212 111.637C111.303 110.107 93.0213 120.893 90.9586 122.111C91.9946 122.847 120.3 118.565 120.485 117.051C120.644 115.755 113.212 111.637 113.212 111.637Z" fill="#DDDACA"/>
<path d="M125.299 104.355C126.357 103.933 127.484 104.081 128.025 105.189C128.968 107.124 125.844 108.911 124.497 109.964C121.964 111.947 117.797 112.965 114.751 111.869C122.629 110.476 125.299 104.355 125.299 104.355Z" fill="#EF7950"/>
<path d="M106.136 71.6387C108.693 70.884 111.267 70.0307 113.851 69.4867C114.957 69.2547 116.1 69.072 117.209 69.1907C117.96 69.2707 116.167 69.024 113.729 69.6627C111.559 70.2294 109.476 70.9507 107.509 71.8934C104.528 73.3187 97.4747 75.5827 94.9827 73.24C98.728 73.5627 102.36 72.7507 106.136 71.6387Z" fill="#EF7950"/>
<path d="M92.1253 103.46C93.8226 102.857 95.528 102.187 97.2506 101.723C97.988 101.525 98.7506 101.36 99.504 101.397C100.015 101.424 98.7947 101.325 97.1747 101.845C95.732 102.309 94.3533 102.873 93.0613 103.583C91.104 104.655 86.4306 106.445 84.6613 104.955C87.2 105.035 89.62 104.353 92.1253 103.46Z" fill="#EF7950"/>
<path d="M133.479 91.8893C132.272 92.1827 131.027 92.4187 129.877 92.8413C129.387 93.0213 128.899 93.2413 128.523 93.6267C128.268 93.888 128.857 93.232 129.981 92.908C130.98 92.6187 132 92.4453 133.049 92.4307C134.639 92.4107 138.028 91.716 138.184 89.64C136.889 90.8973 135.26 91.46 133.479 91.8893Z" fill="#EF7950"/>
<path d="M133.1 90.1814C132.096 90.9134 131.035 91.608 130.135 92.4347C129.749 92.7867 129.381 93.1774 129.181 93.6774C129.045 94.0174 129.34 93.1854 130.255 92.456C131.069 91.808 131.945 91.2574 132.909 90.8454C134.371 90.2201 137.239 88.284 136.591 86.3067C135.873 87.9627 134.584 89.1041 133.1 90.1814Z" fill="#EF7950"/>
<path d="M91.264 101.828C93.0653 101.84 94.8973 101.793 96.6747 101.947C97.436 102.011 98.2093 102.116 98.9053 102.411C99.3746 102.609 98.2613 102.099 96.5613 102.035C95.0466 101.976 93.5586 102.037 92.1026 102.261C89.896 102.601 84.8933 102.687 83.7386 100.685C86.0973 101.625 88.6053 101.809 91.264 101.828Z" fill="#EF7950"/>
<path d="M105.667 68.5227C109.62 67.3574 113.616 66.1 117.569 65.12C119.261 64.7027 121 64.3214 122.632 64.2214C123.736 64.1534 121.107 64.2654 117.356 65.3C114.015 66.224 110.775 67.272 107.667 68.4947C102.957 70.352 92.0226 73.732 88.7466 72.0694C94.268 71.6614 99.8333 70.2414 105.667 68.5227Z" fill="#EF7950"/>
<path d="M103.936 64.7C108.337 63.4027 112.789 62.0107 117.185 60.9013C119.067 60.428 120.999 59.9893 122.803 59.8387C124.025 59.736 121.119 59.9307 116.945 61.0893C113.225 62.1253 109.615 63.2813 106.144 64.612C100.888 66.6307 88.7067 70.376 85.1387 68.8C91.2507 68.2173 97.4387 66.6133 103.936 64.7Z" fill="#EF7950"/>
<path d="M82.764 154.305C82.764 154.305 83.2386 159.135 86.2066 166.976C88.5826 173.256 99.1733 191.344 99.1733 191.344C99.1733 191.344 106.229 181.571 109.432 180.483C116.501 178.081 120.156 177.128 120.156 177.128L88.984 152.096L82.764 154.305Z" fill="#E1D6B6"/>
<path d="M130.673 157.38C130.673 157.38 132.999 164.453 133.216 166.521C133.641 170.581 135.244 182.695 135.244 182.695C135.244 182.695 131.211 179.263 128.413 178.384C124.936 177.295 120.156 177.128 120.156 177.128L124.316 154.817L130.673 157.38Z" fill="#E1D6B6"/>
<path d="M121.671 207.495C121.593 193.66 120.861 182.809 119.061 177.495L120.063 177.157L120.159 177.129C121.969 182.521 122.729 193.419 122.816 207.293C122.431 207.369 122.056 207.437 121.671 207.495Z" fill="#C6BA9B"/>
<path d="M119.564 195.575C119.564 196.741 118.616 197.688 117.449 197.688C116.281 197.688 115.335 196.741 115.335 195.575C115.335 194.405 116.281 193.459 117.449 193.459C118.616 193.459 119.564 194.405 119.564 195.575Z" fill="#C6BA9B"/>
<path d="M68.3119 183.416C69.7479 189.655 71.2013 196.528 72.6066 203.856C71.7013 203.557 70.8066 203.249 69.9106 202.932C69.6413 202.836 69.3719 202.74 69.1119 202.643C68.7266 202.508 68.3506 202.363 67.9759 202.219C66.8306 201.785 65.6839 201.333 64.5479 200.852L64.4906 200.823L64.3653 200.765C63.392 195.884 62.4013 191.233 61.4093 186.881C58.6946 174.905 56.5959 167.839 55.1119 163.697V163.689C56.2493 163.188 57.3947 162.707 58.56 162.245C59.724 161.783 60.8986 161.34 62.0839 160.916C63.7399 165.479 65.7799 172.497 68.3119 183.416Z" fill="#4A3C3C"/>
<path d="M142.544 178.813C142.004 171.496 141.436 166.047 140.888 161.993V161.984L141.157 162.129C142.437 162.803 143.708 163.485 144.971 164.199L145.056 164.248C146.376 164.988 147.685 165.749 148.985 166.52C149.013 166.779 149.043 167.048 149.072 167.317V167.348C149.399 170.447 149.707 174.009 150.005 178.091C150.033 178.535 150.072 178.987 150.101 179.44C150.505 185.111 150.843 191.331 151.123 197.944C150.651 198.176 150.168 198.417 149.688 198.639C148.763 199.089 147.839 199.515 146.895 199.927C146.664 200.033 146.424 200.139 146.183 200.247L145.913 200.361C145.567 200.516 145.22 200.659 144.873 200.804C144.499 200.959 144.123 201.112 143.748 201.256C143.459 193.66 143.092 186.535 142.64 180.124C142.611 179.68 142.572 179.237 142.544 178.813Z" fill="#4A3C3C"/>
<path d="M55.112 163.697V196.317C54.8426 196.173 54.5733 196.028 54.304 195.884C54.044 195.74 53.784 195.595 53.524 195.441C52.928 195.104 52.3214 194.757 51.724 194.401C51.4734 194.248 51.2133 194.103 50.964 193.939L50.924 193.911L50.6747 193.765C50.308 193.544 49.9427 193.323 49.5867 193.101C49.432 193.005 49.2787 192.909 49.124 192.812C48.9707 192.716 48.8067 192.611 48.652 192.515C48.3347 192.312 48.0173 192.1 47.7093 191.899L47.5267 191.773L47.3813 191.677L47.228 191.571L47.1413 191.513L47.1027 191.493C46.824 191.32 46.5626 191.147 46.304 190.945C45.9666 190.743 45.648 190.521 45.3307 190.291L45.264 190.243L45.148 190.165C45.004 190.059 44.868 189.964 44.7333 189.867C44.6 189.771 44.464 189.684 44.3387 189.597C44.128 189.443 43.916 189.299 43.7133 189.153L43.6453 189.096C42.8373 188.519 42.048 187.931 41.2773 187.324C40.768 186.94 40.2667 186.555 39.7667 186.16C39.1693 185.679 38.5627 185.188 37.9747 184.696L37.696 184.465C36.868 183.781 36.0494 183.069 35.26 182.337C34.6254 181.779 33.9987 181.201 33.3827 180.615L33.3253 180.556C32.3907 179.691 31.476 178.813 30.5907 177.909C30.3214 177.639 30.0613 177.369 29.792 177.1C32.4773 168.04 40.9986 166.461 55.112 163.697Z" fill="#D8CDAF"/>
</svg>
