<svg width="209" height="209" viewBox="0 0 209 209" fill="none" xmlns="http://www.w3.org/2000/svg">
<path d="M192.571 160.453C187.199 168.965 180.787 176.417 173.623 182.761C173.373 182.992 173.113 183.213 172.863 183.435C172.391 183.84 171.919 184.244 171.447 184.639C171.091 184.937 170.725 185.236 170.36 185.533C170.003 185.823 169.647 186.112 169.291 186.391L169.088 186.545C167.297 187.971 165.469 189.327 163.601 190.608C163.408 190.743 163.216 190.868 163.013 190.993L162.657 191.235C161.367 192.109 160.057 192.948 158.729 193.756C158.547 193.872 158.363 193.977 158.18 194.084L157.901 194.256C157.265 194.633 156.64 194.999 155.995 195.364C155.456 195.672 154.897 195.98 154.348 196.279C153.944 196.5 153.529 196.721 153.097 196.933L152.961 197.001C151.777 197.617 150.584 198.213 149.38 198.783C148.561 199.187 147.733 199.563 146.896 199.927C146.665 200.033 146.424 200.139 146.184 200.247L145.915 200.361C145.568 200.516 145.221 200.659 144.875 200.804C144.065 201.14 143.257 201.469 142.439 201.787C142.092 201.912 141.755 202.045 141.408 202.171L141.235 202.239C140.965 202.355 140.676 202.451 140.397 202.556C140.215 202.624 140.032 202.692 139.839 202.757C139.715 202.805 139.588 202.855 139.453 202.903L139.127 203.019C138.529 203.231 137.933 203.432 137.327 203.635C136.488 203.904 135.651 204.173 134.813 204.424L134.784 204.433L134.476 204.529C134.225 204.607 133.976 204.675 133.725 204.751C133.041 204.944 132.368 205.137 131.675 205.319C131.029 205.492 130.385 205.656 129.74 205.82C129.605 205.849 129.471 205.888 129.335 205.917L129.027 205.993C128.42 206.139 127.804 206.283 127.197 206.427C126.408 206.6 125.609 206.773 124.82 206.927L124.761 206.936L124.464 206.995C123.481 207.188 122.5 207.361 121.517 207.515C118.86 207.957 116.193 208.295 113.507 208.516C112.872 208.584 112.255 208.621 111.62 208.66C111.043 208.717 110.455 208.748 109.877 208.756L109.743 208.765C108.741 208.833 107.749 208.853 106.748 208.872C106.536 208.881 106.324 208.892 106.123 208.881C105.843 208.901 105.564 208.901 105.284 208.892C105.063 208.901 104.841 208.911 104.611 208.911C104.476 208.911 104.351 208.911 104.216 208.901C103.899 208.901 103.581 208.901 103.272 208.892C100.799 208.861 98.324 208.737 95.8586 208.535C95.5706 208.507 95.272 208.487 94.9827 208.448C93.9813 208.361 92.98 208.256 91.9786 208.121C89.804 207.861 87.6266 207.525 85.4506 207.12L85.316 207.091C85.124 207.052 84.912 207.015 84.7093 206.975C84.488 206.936 84.2666 206.899 84.0453 206.86L83.8053 206.803C83.4293 206.725 83.0626 206.648 82.668 206.561L82.3506 206.493C81.908 206.397 81.4747 206.301 81.032 206.195C79.848 205.917 78.664 205.628 77.4893 205.3C74.9466 204.617 72.4146 203.827 69.912 202.932C69.6426 202.836 69.372 202.74 69.112 202.643C68.7266 202.508 68.352 202.363 67.976 202.219C66.8306 201.787 65.6853 201.333 64.5493 200.852L64.492 200.823L64.26 200.727C63.7693 200.533 63.288 200.323 62.7973 200.101C62.6627 200.043 62.5373 199.985 62.412 199.917C62.1333 199.793 61.8627 199.677 61.5933 199.543L61.468 199.484C61.18 199.36 60.8907 199.235 60.6107 199.1C60.3893 199.004 60.168 198.897 59.9467 198.801C59.6867 198.667 59.4267 198.541 59.1773 198.425C58.9747 198.32 58.7813 198.224 58.58 198.128C58.204 197.935 57.8293 197.743 57.4533 197.549L57.2413 197.444C56.808 197.232 56.3746 196.991 55.9506 196.769L55.8267 196.701L55.6426 196.596C55.1906 196.365 54.748 196.125 54.3053 195.884C54.0453 195.74 53.7853 195.595 53.5253 195.441C52.928 195.104 52.3213 194.757 51.724 194.401L51.5893 194.315C51.3786 194.199 51.1667 194.075 50.964 193.939L50.9253 193.911L50.6747 193.765C50.3093 193.544 49.944 193.323 49.5866 193.101C49.4333 193.005 49.2786 192.909 49.1253 192.812C48.972 192.716 48.8066 192.611 48.6533 192.515C48.336 192.312 48.0187 192.1 47.7107 191.899L47.528 191.773L47.3827 191.677L47.228 191.571L47.1413 191.513L47.104 191.493C46.824 191.32 46.564 191.147 46.304 190.945L46.064 190.791C45.8133 190.637 45.572 190.464 45.332 190.291L45.264 190.243L45.1493 190.165C45.004 190.059 44.8693 189.964 44.7346 189.867C44.6 189.771 44.4653 189.684 44.34 189.597C44.128 189.443 43.9173 189.299 43.7146 189.153L43.6467 189.096C42.8387 188.519 42.0493 187.931 41.2786 187.324C40.768 186.94 40.268 186.555 39.7667 186.16C39.1693 185.679 38.564 185.188 37.976 184.696L37.696 184.465C36.8694 183.781 36.0507 183.069 35.2613 182.337C34.6253 181.779 34 181.201 33.384 180.615C32.4306 179.728 31.4973 178.833 30.592 177.909C29.9373 177.253 29.3013 176.581 28.6667 175.907L28.6173 175.849C27.6546 174.828 26.7306 173.788 25.8346 172.729C25.6333 172.517 25.4506 172.296 25.268 172.084C23.708 170.225 22.196 168.329 20.772 166.375C19.972 165.277 19.192 164.169 18.432 163.043C18.2974 162.851 18.172 162.659 18.0373 162.467C17.8253 162.148 17.6133 161.82 17.4013 161.493L17.3533 161.407C16.1973 159.625 15.0907 157.805 14.06 155.957C13.936 155.755 13.8106 155.524 13.704 155.293C12.972 154.013 12.2987 152.703 11.644 151.384C11.2107 150.508 10.7866 149.651 10.3733 148.775C8.9573 145.703 7.68663 142.584 6.57063 139.408C6.05996 137.933 5.56932 136.461 5.12532 134.959C5.08665 134.844 5.04931 134.728 5.01998 134.603C4.93331 134.295 4.83733 133.996 4.74133 133.679C4.5 132.841 4.26931 131.993 4.04797 131.156C-2.95203 104.284 0.754658 74.688 16.7667 49.3667C47.44 0.813352 111.668 -13.6666 160.212 17.008C208.765 47.6827 223.245 111.911 192.571 160.453Z" fill="#F7F2DA"/>
<path d="M51.5893 194.315C51.3786 194.199 51.1666 194.075 50.964 193.939L50.9253 193.911L50.6746 193.765C50.3093 193.544 49.944 193.323 49.5866 193.101C49.4333 193.005 49.2786 192.909 49.1253 192.812C48.972 192.716 48.8066 192.611 48.6533 192.515C48.336 192.312 48.0186 192.1 47.7106 191.899L47.528 191.773L47.3826 191.677L47.228 191.571L47.1413 191.513L47.1039 191.493C46.8239 191.32 46.5639 191.147 46.3039 190.945L46.064 190.791C46.9786 183.993 48.8066 177.793 52.2346 174.463C53.0733 173.643 54.0066 172.999 55.0466 172.556C55.0466 172.556 56.944 182.319 59.1773 198.425C58.9746 198.32 58.7813 198.224 58.58 198.128C58.204 197.935 57.8293 197.743 57.4533 197.549L57.2413 197.444C56.808 197.232 56.3746 196.991 55.9506 196.769L55.8267 196.701L55.6426 196.596C55.1906 196.365 54.748 196.125 54.3053 195.884C54.0453 195.74 53.7853 195.595 53.5253 195.441C52.928 195.104 52.3213 194.757 51.724 194.401L51.5893 194.315Z" fill="#D8953D"/>
<path d="M169.088 186.545C167.297 187.971 165.469 189.327 163.601 190.608C163.408 190.743 163.216 190.868 163.013 190.993L162.657 191.235C161.367 192.109 160.057 192.948 158.729 193.756C158.547 193.872 158.363 193.977 158.18 194.084L157.901 194.256C157.265 194.633 156.64 194.999 155.995 195.364C155.456 195.672 154.897 195.98 154.348 196.279C153.944 196.5 153.529 196.721 153.097 196.933L152.961 197.001C151.777 197.617 150.584 198.213 149.38 198.783C148.561 199.187 147.733 199.563 146.896 199.927C146.665 200.033 146.424 200.139 146.184 200.247L145.915 200.361C145.568 200.516 145.221 200.659 144.875 200.804C144.065 201.14 143.257 201.469 142.439 201.787C142.092 201.912 141.755 202.045 141.408 202.171L141.235 202.239C140.965 202.355 140.676 202.451 140.397 202.556C140.215 202.624 140.032 202.692 139.839 202.757C139.715 202.805 139.588 202.855 139.453 202.903L139.127 203.019C138.529 203.231 137.933 203.432 137.327 203.635C136.488 203.904 135.651 204.173 134.813 204.424L134.784 204.433L134.476 204.529C134.225 204.607 133.976 204.675 133.725 204.751C133.041 204.944 132.368 205.137 131.675 205.319C131.029 205.492 130.385 205.656 129.74 205.82C129.605 205.849 129.471 205.888 129.335 205.917L129.027 205.993C128.42 206.139 127.804 206.283 127.197 206.427C126.408 206.6 125.609 206.773 124.82 206.927L124.761 206.936L124.464 206.995C123.481 207.188 122.5 207.361 121.517 207.515C118.86 207.957 116.193 208.295 113.507 208.516C112.872 208.584 112.255 208.621 111.62 208.66C111.043 208.717 110.455 208.748 109.877 208.756L109.743 208.765C108.741 208.833 107.749 208.853 106.748 208.872C106.536 208.881 106.324 208.892 106.123 208.881C105.843 208.901 105.564 208.901 105.284 208.892C105.063 208.901 104.841 208.911 104.611 208.911C104.476 208.911 104.351 208.911 104.216 208.901C103.899 208.901 103.581 208.901 103.272 208.892C100.799 208.861 98.324 208.737 95.8586 208.535C95.5706 208.507 95.272 208.487 94.9826 208.448C93.9813 208.361 92.9799 208.256 91.9786 208.121C89.8039 207.861 87.6266 207.525 85.4506 207.12L85.316 207.091C85.124 207.052 84.9119 207.015 84.7093 206.975C84.4879 206.936 84.2666 206.899 84.0453 206.86L83.8053 206.803C83.4293 206.725 83.0626 206.648 82.6679 206.561L82.3506 206.493C81.9079 206.397 81.4747 206.301 81.032 206.195C79.848 205.917 78.664 205.628 77.4893 205.3C74.9466 204.617 72.4146 203.827 69.9119 202.932C69.6426 202.836 69.3719 202.74 69.1119 202.643C68.7266 202.508 68.3519 202.363 67.9759 202.219C66.8306 201.787 65.6853 201.333 64.5493 200.852L64.492 200.823L64.26 200.727C63.7693 200.533 63.288 200.323 62.7973 200.101C62.6626 200.043 62.5373 199.985 62.4119 199.917C62.1333 199.793 61.8627 199.677 61.5933 199.543V167.664L76.132 166.827L83.3613 166.404L91.3333 165.951L91.5933 165.932L112.487 164.728L113.728 164.651L116.376 164.497L131.809 163.612L142.881 162.967L158.44 162.071C158.681 162.369 161.627 168.261 161.848 168.571C163.572 170.939 164.948 173.084 166.008 175.069C168.387 179.459 169.243 183.06 169.088 186.545Z" fill="#C6BA9B"/>
<path d="M115.084 102.005L116.964 126.108C119.919 128.035 129.045 125.536 132.223 124.529C138.468 122.552 142.195 112.744 142.237 107.215C142.331 95.2613 125.96 93.5107 115.084 102.005Z" fill="#C9C4AF"/>
<path d="M117.849 157.099C115.441 164.944 108.637 170.443 101.38 173.744C94.4733 176.892 92.8586 172.861 91.2133 165.367C89.7813 158.851 89.8399 154.023 91.4039 146.464L91.2813 145.948L89.5826 138.804L85.2506 120.596L112.34 104.887C112.34 104.887 113.284 110.741 114.409 118.552C114.847 121.571 115.309 124.879 115.757 128.252C117.392 140.653 118.813 153.969 117.849 157.099Z" fill="#FBA479"/>
<path d="M115.757 128.252C113.557 132.987 107.561 140.191 91.2813 145.948L89.5826 138.804L85.2506 120.596L103.211 111.105L111.377 122.256L114.409 118.552C114.847 121.571 115.309 124.879 115.757 128.252Z" fill="#F48656"/>
<path d="M76.0346 117.763L75.7373 117.811C75.7306 117.912 75.8693 117.856 76.0346 117.763Z" fill="#EF7950"/>
<path d="M79.528 103.967C79.6746 103.871 79.8013 103.743 79.9066 103.587L79.528 103.967Z" fill="#EF7950"/>
<path d="M90.5133 63.0333L82.772 58.4547C75.1947 61.7947 75.9307 63.3827 71.0574 69.944C64.312 79.024 61.904 107.549 69.9506 118.251C72.0266 121.012 80.8587 127.353 90.5133 132.637V63.0333Z" fill="#C9C4AF"/>
<path d="M125.831 106.053C124.623 112.437 115.161 128.363 114.801 128.729C109.584 133.991 99.8573 138.108 92.8373 140.149C92.0093 140.393 91.1973 140.595 90.4147 140.756C84.8267 141.919 64.76 123.704 67.9733 103.747C68.1493 102.661 68.292 101.567 68.4187 100.467C68.4414 100.305 68.46 100.139 68.472 99.972L68.492 99.836C68.5147 99.6467 68.5307 99.4573 68.5494 99.264L68.564 99.1507C68.5853 98.9627 68.604 98.7734 68.6214 98.5787C69.6227 88.3067 69.356 77.6934 74.8654 69.0787C82.4174 57.2747 106.651 60.0587 111.355 64.212C121.767 73.3987 128.28 93.0373 125.831 106.053Z" fill="#FBA479"/>
<path d="M79.812 87.852L79.072 89.3333C82.772 95.2413 85.2054 102.067 84.3574 107.215C84.9014 106.28 89.26 102.896 79.812 87.852Z" fill="#F48656"/>
<path d="M79.0253 89.428L79.072 89.3333L78.9293 89.1253L79.0253 89.428Z" fill="#EF7950"/>
<path d="M93.5987 84.4507C91.1574 84.4507 88.6747 84.3667 86.2627 84.5587C85.2307 84.64 84.18 84.776 83.2347 85.1667C82.596 85.432 84.1093 84.7507 86.4147 84.68C88.4693 84.616 90.4853 84.712 92.4587 85.0294C95.4453 85.5107 102.228 85.6734 103.811 82.9707C100.605 84.2227 97.204 84.4507 93.5987 84.4507Z" fill="#EF7950"/>
<path d="M93.2039 81.592C89.4279 81.592 85.592 81.52 81.8653 81.684C80.2707 81.7547 78.6453 81.8694 77.1853 82.204C76.1973 82.4307 78.536 81.848 82.1 81.788C85.2746 81.7333 88.3919 81.8147 91.4399 82.0867C96.0573 82.4973 106.54 82.6374 108.988 80.328C104.031 81.3974 98.7746 81.592 93.2039 81.592Z" fill="#EF7950"/>
<path d="M93.7346 77.7853C89.532 77.7853 85.2613 77.7147 81.1107 77.8787C79.3347 77.948 77.5254 78.0627 75.8987 78.3973C74.8 78.6253 77.4026 78.0427 81.3706 77.9814C84.9066 77.928 88.3787 78.0094 91.772 78.28C96.9133 78.692 108.584 78.832 111.309 76.5213C105.791 77.592 99.9386 77.7853 93.7346 77.7853Z" fill="#EF7950"/>
<path d="M112.259 86.976L112.528 87.4987C111.372 85.6187 103.847 82.7866 102.025 84.0893C102.451 76.5693 110.839 83.7893 112.259 86.976Z" fill="#C9C4AF"/>
<path d="M83.5934 107.029C82.5627 107.917 81.5374 108.589 82.8054 110.035C84.5707 112.052 87.9094 111.428 89.26 111.071C88.428 110.943 84.712 110.165 83.6107 109.28C82.8534 108.672 86.9987 104.088 83.5934 107.029Z" fill="#F48656"/>
<path d="M71.32 86.056L71.0574 86.5147C72.1467 84.908 78.1667 83.6374 79.3973 85.2747C79.9373 77.8334 72.76 83.2227 71.32 86.056Z" fill="#C9C4AF"/>
<path d="M90.22 131.788C90.6066 132.393 91.1293 133.017 91.5533 133.639C92.5653 131.5 94.6533 131.315 96.7373 130.639C96.7373 130.639 91.3173 130.569 90.22 131.788Z" fill="#F48656"/>
<path d="M77.6453 117.608C78.6853 117.691 98.0187 145.205 102.597 116.119C102.097 119.305 77.6453 117.608 77.6453 117.608Z" fill="#60281F"/>
<path d="M102.144 116.271C102.008 117.067 102.04 118.427 101.795 119.26C101.763 119.383 101.721 119.489 101.672 119.583C101.448 120.04 92.2667 124.085 85.86 123.091C84.6773 122.839 82.2373 119.444 81.7346 118.251L84.0853 118.289L93.8373 118.443C94.3186 118.251 94.9093 118.312 95.408 118.251C96.2973 118.144 97.1493 117.868 98.0306 117.679C99.1093 117.448 101.4 117.663 102.144 116.271Z" fill="white"/>
<path d="M101.795 119.26C101.763 119.383 101.721 119.489 101.672 119.583C101.448 120.04 92.2667 124.085 85.86 123.091C84.6773 122.839 82.2373 119.444 81.7346 118.251L84.0853 118.289C85.2413 120.285 86.1733 121.8 86.3146 121.868C86.8226 122.089 97.8826 120.14 101.795 119.26Z" fill="#E8E6E6"/>
<path d="M82.264 122.452C81.0413 121.257 79.992 120.103 79.212 119.189L79.164 119.131L79.116 119.083L78.836 118.755C79.732 118.823 80.8493 118.889 82.1013 118.957C82.8613 118.985 83.68 119.025 84.5267 119.044C85.576 119.083 86.6733 119.112 87.7907 119.121L88.0226 119.131H90.516C97.188 119.073 100.288 118.495 101.751 117.841C101.645 118.361 101.539 118.861 101.424 119.343C101.376 119.516 101.337 119.689 101.289 119.853V119.861C99.7493 125.793 97.1386 128.797 93.52 128.797C92.5373 128.797 91.5267 128.584 90.516 128.209C89.1773 127.728 87.8387 126.968 86.5587 126.083C85.056 125.024 83.632 123.791 82.3893 122.577L82.264 122.452ZM102.097 115.896C102.031 116.069 101.077 117.475 90.9387 117.589H90.9294C90.7947 117.589 90.66 117.6 90.516 117.6H89.4853C84.5173 117.6 77.3253 117.139 77.3253 117.139C77.3253 117.139 77.4413 117.301 77.6426 117.609C78.7306 119.189 82.5147 124.436 86.9333 127.68C88.0987 128.528 89.3027 129.24 90.516 129.712C91.5173 130.107 92.528 130.328 93.52 130.328C98.4106 130.328 101.636 125.611 103.099 116.309L103.109 116.291L102.097 115.896Z" fill="#F48656"/>
<path d="M97.5506 109.865L96.9346 111.516C107.512 114.764 108.517 121.049 108.335 121.933C108.624 116.1 104.199 112.236 97.5506 109.865Z" fill="#F48656"/>
<path d="M108.737 103.804L108.82 104.413C113.664 103.348 115.315 105.028 115.42 105.325C114.372 103.533 111.845 103.232 108.737 103.804Z" fill="#F48656"/>
<path d="M110.288 102.829L110.515 103.401C114.967 101.215 116.969 102.452 117.141 102.719C115.699 101.227 113.173 101.535 110.288 102.829Z" fill="#F48656"/>
<path d="M110.619 102.979L110.644 103.595C116.352 102.809 118.061 104.587 118.147 104.892C117.145 103.036 114.269 102.588 110.619 102.979Z" fill="#F48656"/>
<path d="M71.8294 100.196L71.7494 100.809C70.4014 100.512 69.3027 100.427 68.4187 100.467C68.4414 100.305 68.46 100.139 68.472 99.972C68.8294 99.936 69.2027 99.9253 69.5947 99.944L69.9227 99.9573C70.528 99.9946 71.1667 100.075 71.8294 100.196Z" fill="#F48656"/>
<path d="M70.28 99.2227L70.0547 99.796L69.9333 99.736C69.572 99.5613 69.2253 99.412 68.896 99.2813L68.564 99.1506C68.5853 98.9626 68.604 98.7733 68.6213 98.5787C69.1573 98.7507 69.712 98.9707 70.28 99.2227Z" fill="#F48656"/>
<path d="M69.9507 99.372L69.9333 99.736L69.9227 99.9574V99.9893L69.5947 99.944C69.2067 99.8987 68.8373 99.8627 68.492 99.836C68.5147 99.6467 68.5307 99.4574 68.5494 99.264L68.896 99.2814C69.24 99.304 69.5907 99.332 69.9507 99.372Z" fill="#F48656"/>
<path d="M110.683 101.752C109.707 97.972 106.308 92.316 99.8134 97.7667C97.7214 99.1587 96.0573 101.08 95.6733 101.536L95.6134 101.615L95.5894 101.639C95.7134 101.685 95.8374 101.732 95.9614 101.776C96.488 101.973 97.0134 102.164 97.5387 102.344C97.928 102.477 98.3187 102.607 98.712 102.729C98.8427 102.773 98.9734 102.813 99.1054 102.852C99.236 102.892 99.3667 102.932 99.4987 102.971C99.6574 103.02 99.8213 103.065 99.9813 103.111L100.536 103.264C100.845 103.344 101.155 103.424 101.465 103.497L101.653 103.541C101.839 103.584 102.025 103.625 102.209 103.663L102.259 103.673C102.429 103.712 102.599 103.747 102.769 103.776L103.099 103.837L103.453 103.897C103.597 103.923 103.745 103.947 103.893 103.968C104.052 103.992 104.213 104.015 104.376 104.035L104.456 104.045L104.657 104.067C104.791 104.085 104.924 104.1 105.057 104.111C105.327 104.139 105.596 104.161 105.865 104.179C106.003 104.189 106.139 104.196 106.273 104.2C106.404 104.204 106.541 104.212 106.677 104.215C106.796 104.216 106.913 104.22 107.036 104.221L107.121 104.22C107.379 104.221 107.64 104.219 107.901 104.211C108.468 104.195 109.029 104.151 109.603 104.085C109.831 104.056 110.061 104.025 110.288 103.988H110.3C110.528 103.955 110.753 103.915 110.98 103.871L110.984 103.676C110.987 103.017 110.888 102.375 110.683 101.752Z" fill="white"/>
<path d="M108.107 99.7587C108.237 102.251 106.989 104.343 105.319 104.432C103.647 104.519 102.185 102.569 102.055 100.077C101.923 97.5853 103.171 95.4933 104.843 95.4053C106.513 95.3173 107.975 97.2653 108.107 99.7587Z" fill="#544E6D"/>
<path d="M107.02 99.6481C107.112 101.384 106.313 102.836 105.237 102.893C104.16 102.951 103.213 101.589 103.121 99.8534C103.031 98.1174 103.828 96.6654 104.905 96.608C105.983 96.5507 106.929 97.9121 107.02 99.6481Z" fill="#211A3F"/>
<path d="M108.84 97.9414L105.468 98.7653C105.468 98.7653 108.051 100.144 108.737 99.6507C109.087 99.4 108.84 97.9414 108.84 97.9414Z" fill="white"/>
<path d="M110.98 103.871C110.996 103.357 110.92 102.597 110.683 101.752C107.196 89.3573 95.844 101.385 95.6134 101.615L95.5894 101.639C95.5894 101.639 99.5027 85.0387 107.028 87.5894C110.804 88.8654 112.088 100.704 110.98 103.871Z" fill="#EF7950"/>
<path d="M110.288 103.988C104.075 106.596 98.372 103.7 95.9613 101.776C96.488 101.973 97.0133 102.164 97.5386 102.344C97.928 102.477 98.3186 102.607 98.712 102.729C98.8426 102.773 98.9733 102.813 99.1053 102.852C99.236 102.892 99.3667 102.932 99.4987 102.971C99.6573 103.02 99.8213 103.065 99.9813 103.111L100.536 103.264C100.845 103.344 101.155 103.424 101.465 103.497L101.653 103.541C101.839 103.584 102.025 103.625 102.209 103.663L102.259 103.673C102.429 103.712 102.599 103.747 102.769 103.776L103.099 103.837L103.453 103.897C103.597 103.923 103.745 103.947 103.893 103.968C104.052 103.992 104.213 104.015 104.376 104.035L104.456 104.045L104.657 104.067C104.791 104.085 104.924 104.1 105.057 104.111C105.327 104.139 105.596 104.161 105.865 104.179C106.003 104.189 106.139 104.196 106.273 104.2C106.404 104.204 106.541 104.212 106.677 104.215C106.796 104.216 106.913 104.22 107.036 104.221L107.121 104.22C107.379 104.221 107.64 104.219 107.901 104.211C108.468 104.195 109.029 104.151 109.603 104.085C109.831 104.056 110.061 104.025 110.288 103.988Z" fill="#EF7950"/>
<path d="M70.3946 97.9427C72.1373 94.8627 76.9893 89.6667 80.9399 95.9054C82.3039 97.5974 82.5266 100.683 82.7253 101.169L82.756 101.252L82.7706 101.277L82.4293 101.313C81.9507 101.367 81.4733 101.415 80.9987 101.451C80.6467 101.479 80.2946 101.504 79.9426 101.521L79.5907 101.537L79.2399 101.553C79.0973 101.559 78.9506 101.561 78.8093 101.565L78.316 101.572C78.044 101.572 77.772 101.572 77.4987 101.565L77.3333 101.56C77.1693 101.556 77.0093 101.551 76.8493 101.54L76.8053 101.537C76.656 101.532 76.5093 101.525 76.3627 101.512L76.0773 101.491L75.7733 101.461C75.6493 101.451 75.5213 101.439 75.3946 101.423C75.2586 101.408 75.1213 101.391 74.9826 101.372L74.916 101.363L74.7453 101.336L74.408 101.283C74.18 101.247 73.9533 101.204 73.7293 101.159L73.3907 101.084L73.056 101.005L72.7613 100.929L72.692 100.908C72.4813 100.851 72.2666 100.789 72.056 100.723C71.5986 100.581 71.1467 100.415 70.696 100.227C70.5173 100.148 70.336 100.069 70.1586 99.9853L70.1506 99.9827C69.9719 99.9014 69.7973 99.8147 69.6226 99.724L69.6679 99.5547C69.8319 98.9787 70.0733 98.44 70.3946 97.9427Z" fill="white"/>
<path d="M80.3426 97.1667C80.3426 99.872 78.8706 102.067 77.056 102.067C75.2413 102.067 73.7706 99.872 73.7706 97.1667C73.7706 94.46 75.2413 92.2667 77.056 92.2667C78.8706 92.2667 80.3426 94.46 80.3426 97.1667Z" fill="#544E6D"/>
<path d="M79.172 96.984C79.172 98.8693 78.224 100.397 77.056 100.397C75.8866 100.397 74.9399 98.8693 74.9399 96.984C74.9399 95.1 75.8866 93.572 77.056 93.572C78.224 93.572 79.172 95.1 79.172 96.984Z" fill="#211A3F"/>
<path d="M81.24 95.2413L77.5413 95.94C77.5413 95.94 80.26 97.5813 81.032 97.084C81.4227 96.8333 81.24 95.2413 81.24 95.2413Z" fill="white"/>
<path d="M69.6226 99.724C78.1799 85.3173 82.6239 100.999 82.7559 101.252L82.7706 101.277C82.7706 101.277 83.0853 85.4853 76.2946 85.9987C72.8866 86.2547 69.5066 96.7067 69.6226 99.724Z" fill="#EF7950"/>
<path d="M70.1587 99.9854C74.5907 103.677 79.9774 102.445 82.4294 101.313C81.9507 101.367 81.4734 101.415 80.9987 101.451C80.6467 101.479 80.2947 101.504 79.9427 101.521L79.5907 101.537L79.24 101.553C79.0973 101.559 78.9507 101.561 78.8093 101.565L78.316 101.572C78.044 101.572 77.7721 101.572 77.4987 101.565L77.3334 101.56C77.1694 101.556 77.0094 101.551 76.8494 101.54L76.8054 101.537C76.656 101.532 76.5094 101.525 76.3627 101.512L76.0774 101.491L75.7733 101.461C75.6493 101.451 75.5214 101.439 75.3947 101.423C75.2587 101.408 75.1214 101.391 74.9827 101.372L74.916 101.363L74.7453 101.336L74.408 101.283C74.18 101.247 73.9534 101.204 73.7294 101.159L73.3907 101.084L73.056 101.005L72.7614 100.929L72.692 100.908C72.4814 100.851 72.2667 100.789 72.056 100.723C71.5987 100.581 71.1467 100.415 70.6961 100.227C70.5174 100.148 70.336 100.069 70.1587 99.9854Z" fill="#EF7950"/>
<path d="M121.951 106.355C122.076 105.72 122.225 105.057 122.401 104.377C124.063 97.9387 115.868 100.168 111.043 88.0774C104.551 71.808 85.2053 74.2227 85.2053 74.2227C85.2053 74.2227 86.9213 62.856 91.9493 58.216C92.2693 57.9227 92.5987 57.656 92.9413 57.4227C95.0947 55.9534 97.424 54.408 99.8973 53.0334C109.673 47.596 123.405 46.2494 135.849 60.4107C140.391 65.5734 144.756 72.8 148.697 82.6387C162.963 118.252 121.085 110.675 121.951 106.355Z" fill="#C9C4AF"/>
<path d="M66.9093 67.5707C64.0066 76.176 65.8733 84.7707 65.8733 84.7707C67.9786 82.8387 71.3706 72.3014 74.1426 72.3014C76.2573 72.3 78.736 72.316 80.628 73.308C80.7573 70.6027 82.812 67.4427 84.2293 65.2027C85.6093 63.0227 104.28 52.9947 106.032 51.2467C103.763 51.1214 74.9613 43.6907 66.9093 67.5707Z" fill="#D6D2BF"/>
<path d="M131.492 99.9906V99.98C131.271 98.556 130.443 97.5267 129.297 96.7267C128.372 96.0813 127.236 95.5813 126.043 95.1186C123.52 94.156 120.737 93.376 119.111 91.8453C115.404 88.36 114.191 80.2733 109.511 78.2893C109.772 77.5573 117.791 79.936 122.432 81.0427H122.441C124.232 81.4667 125.513 81.6973 125.667 81.5053C124.184 79.868 122.537 78.4813 120.805 77.3173C110.744 70.548 97.304 70.9333 91.1507 70.6067H91.1414C91.0067 70.596 90.8907 70.5866 90.776 70.5866C91.2187 66.668 92.7293 63.3373 94.54 60.6506C95.772 58.812 97.1494 57.272 98.4107 56.0493L98.42 56.0387C100.596 53.9213 102.435 52.756 102.656 52.6107C101.732 52.7267 95.9933 55.5093 93.4613 57.0787L92.9414 57.4253C92.5947 57.6573 92.268 57.9267 91.9494 58.2147L91.94 58.224L91.9214 58.244L91.8627 58.3013L91.652 58.504L91.4107 58.7533L91.2574 58.9173L91.0453 59.1586L90.9 59.332L90.7267 59.5533L90.6214 59.688L90.4187 59.9573L90.284 60.14L90.12 60.3813L90.0054 60.5347L89.832 60.8147L89.668 61.056V61.0653L89.5907 61.2093L89.504 61.3533L89.4854 61.3827V61.392L89.476 61.4013L89.456 61.412L89.2827 61.72L89.1867 61.9027L89.1667 61.9413L89.1107 62.0373L89.052 62.1627H89.0427V62.172L88.9267 62.3933L88.744 62.7307C88.628 62.9613 88.5227 63.1933 88.4173 63.424C88.2533 63.7706 88.0894 64.1267 87.944 64.4827L87.8774 64.656L87.7333 64.984L87.608 65.32C87.5307 65.5133 87.464 65.7053 87.3867 65.8973C87.3093 66.12 87.2227 66.3413 87.1453 66.572C87.108 66.6973 87.0587 66.832 87.0107 66.9573C86.828 67.516 86.6547 68.064 86.5 68.5933C86.4627 68.7387 86.424 68.8627 86.3854 68.9987L86.328 69.2107L86.2987 69.316L86.212 69.6427L86.164 69.8067C86.0573 70.2013 85.9614 70.5773 85.8747 70.9333C85.788 71.2893 85.7107 71.6173 85.644 71.9347L85.596 72.156C85.5667 72.3013 85.5373 72.4453 85.5093 72.58L85.5 72.6093C85.48 72.7333 85.4507 72.8493 85.432 72.9653L85.384 73.196L85.3547 73.36C85.2974 73.6386 85.268 73.8507 85.24 73.996L85.2107 74.1973V74.2266C85.2107 74.2266 85.3547 74.2066 85.624 74.188L85.904 74.1586L86.116 74.1493L86.2987 74.1387L86.5107 74.1307L86.7507 74.12C86.9147 74.1106 87.088 74.1107 87.2707 74.1107C87.772 74.0907 88.34 74.0906 88.9747 74.12C89.3694 74.1306 89.7934 74.1493 90.236 74.188L90.516 74.2067C90.8134 74.2267 91.1213 74.2546 91.44 74.2933L91.7387 74.332L91.844 74.3413C92.008 74.3613 92.1814 74.38 92.3547 74.4093C92.6054 74.4387 92.8547 74.476 93.1147 74.5253C93.3653 74.5533 93.6254 74.6013 93.8854 74.66C94.1734 74.708 94.472 74.7653 94.7707 74.8333C95.272 74.9387 95.7814 75.0733 96.3027 75.2186C96.4747 75.2666 96.6387 75.3146 96.812 75.3613L96.8893 75.3906C97.0427 75.4293 97.2067 75.4773 97.3613 75.536C97.5627 75.5933 97.7653 75.6613 97.968 75.7373C98.2467 75.824 98.5267 75.9307 98.8054 76.0467C99.036 76.1333 99.2667 76.22 99.4987 76.3253C99.6627 76.392 99.816 76.46 99.98 76.5373C100.327 76.6907 100.673 76.8547 101.02 77.0373C101.365 77.2107 101.713 77.3933 102.059 77.596H102.069C102.387 77.7787 102.704 77.9813 103.023 78.1827L103.311 78.3653L103.513 78.5107L103.716 78.6546C104.043 78.876 104.361 79.1173 104.668 79.368C104.871 79.5213 105.073 79.6853 105.265 79.8586L105.352 79.936C105.573 80.1187 105.795 80.32 106.007 80.532L106.305 80.8213H106.315L106.565 81.0813L106.815 81.3413L106.855 81.38C106.969 81.5053 107.095 81.64 107.211 81.7653L107.22 81.7747V81.784H107.229L107.46 82.0627L107.605 82.236C107.769 82.4293 107.923 82.612 108.067 82.824L108.077 82.8333L108.105 82.872L108.356 83.2093L108.365 83.228L108.423 83.3053C108.529 83.42 108.607 83.5467 108.693 83.6707V83.6813L108.712 83.7093C108.865 83.9213 109.011 84.1333 109.136 84.3546L109.3 84.6053C109.424 84.8067 109.551 85.0093 109.656 85.212L109.675 85.24L109.868 85.568L109.877 85.5773V85.5866L109.935 85.712L109.944 85.7226L109.964 85.76L110.128 86.0787L110.176 86.1653C110.311 86.416 110.425 86.6747 110.551 86.9347C110.724 87.3013 110.888 87.6867 111.043 88.0813C111.177 88.4267 111.321 88.764 111.465 89.0827C111.581 89.352 111.707 89.6107 111.832 89.872L111.899 90.0067C112.004 90.228 112.111 90.44 112.227 90.652L112.245 90.6906C112.38 90.9493 112.525 91.2 112.669 91.4506C112.765 91.6133 112.861 91.7773 112.959 91.932C113.141 92.2493 113.343 92.548 113.536 92.828C113.623 92.952 113.709 93.0867 113.796 93.2027C113.883 93.328 113.969 93.4533 114.056 93.568C114.181 93.732 114.305 93.8867 114.421 94.0307C114.72 94.4067 115.028 94.752 115.327 95.08L115.625 95.3973C116.029 95.8027 116.424 96.1773 116.809 96.5147C117.204 96.8613 117.589 97.1693 117.955 97.4586C118.292 97.7186 118.609 97.9493 118.917 98.18C119.207 98.3827 119.476 98.5747 119.736 98.768L120.035 98.98C120.535 99.3547 120.988 99.7013 121.363 100.077H121.373L121.575 100.289L121.757 100.491L121.777 100.52L121.931 100.712L122.037 100.867L122.085 100.935C122.181 101.088 122.268 101.243 122.336 101.405C122.393 101.531 122.432 101.656 122.471 101.791L122.489 101.848L122.5 101.868C122.528 101.983 122.557 102.099 122.576 102.233V102.252L122.585 102.32L122.605 102.532L122.624 102.84C122.624 102.985 122.615 103.139 122.596 103.303C122.585 103.447 122.567 103.581 122.537 103.736L122.528 103.803C122.5 103.985 122.451 104.179 122.403 104.381C122.22 105.064 122.076 105.719 121.951 106.355C122.528 107.085 123.424 107.317 124.444 107.173C124.829 107.125 125.233 107.019 125.639 106.875H125.648C125.908 106.779 126.177 106.663 126.437 106.537H126.447C129.075 105.248 131.684 102.388 131.492 99.9906Z" fill="#D6D2BF"/>
<path d="M99.6493 63.1173C103.285 63.1973 109.52 65.0094 112.053 67.736C110.573 67.6907 89.7053 69.6134 86.9839 72.272L91.9413 58.2294L91.9493 58.216C92.2693 57.9227 92.5986 57.656 92.9413 57.4227C95.0946 55.9534 97.424 54.408 99.8973 53.0334C109.673 47.596 123.405 46.2494 135.849 60.4107C127.483 57.8014 113.705 54.3547 111.363 55.152C115.805 56.9133 124.077 59.2067 127.063 66.664C125.005 65.4054 112.079 58.4533 99.6493 63.1173Z" fill="#D6D2BF"/>
<path d="M128.113 96.372C125.407 95.8254 122.511 98.3174 121.235 100.268C119.367 103.12 118.211 112.321 121.207 113.909C126.003 116.449 132.081 107.575 131.96 102.376C131.912 100.204 130.561 96.8627 128.113 96.372Z" fill="#FBA479"/>
<path d="M130.436 100.569C128.367 94.7893 120.639 99.2813 121.392 104.212C122.989 102.843 124.832 105.192 124.553 106.785C124.243 108.555 121.972 109.295 120.776 107.917C121.411 110.573 125.167 109.288 126.111 107.523C127.289 105.315 125.56 102.391 123.067 102.3C124.056 98.736 129.74 98.2733 130.564 102.1L130.436 100.569Z" fill="#F48656"/>
<path d="M54.3053 195.884C54.0453 195.74 53.7853 195.595 53.5253 195.441C52.9279 195.104 52.3213 194.757 51.724 194.401L51.5893 194.315C51.1853 187.633 50.9733 182.887 51.0306 181.288C51.1373 178.669 51.5519 176.417 52.2346 174.463C55.9426 163.804 67.4173 161.975 77.9706 156.929V156.92C79.6066 156.149 81.2239 155.293 82.7839 154.311L83.3613 166.404L85.316 207.091C85.124 207.052 84.9119 207.015 84.7093 206.975C84.4879 206.936 84.2666 206.899 84.0453 206.86L83.8053 206.803C83.4293 206.725 83.0626 206.648 82.6679 206.561L82.3506 206.493C81.9079 206.397 81.4746 206.301 81.032 206.195C79.848 205.917 78.6639 205.628 77.4893 205.3C74.9466 204.617 72.4146 203.827 69.9119 202.932C69.6426 202.836 69.3719 202.74 69.1119 202.643C68.7266 202.508 68.3519 202.363 67.9759 202.219C66.8306 201.787 65.6853 201.333 64.5493 200.852L64.4919 200.823L64.26 200.727C63.7693 200.533 63.2879 200.323 62.7973 200.101C62.6626 200.043 62.5373 199.985 62.4119 199.917C62.1333 199.793 61.8626 199.677 61.5933 199.543L61.4679 199.484C61.1799 199.36 60.8906 199.235 60.6106 199.1C60.3893 199.004 60.168 198.897 59.9466 198.801C59.6866 198.667 59.4266 198.541 59.1773 198.425C58.9746 198.32 58.7813 198.224 58.58 198.128C58.204 197.935 57.8293 197.743 57.4533 197.549L57.2413 197.444C56.808 197.232 56.3746 196.991 55.9506 196.769L55.8266 196.701L55.6426 196.596C55.1906 196.365 54.748 196.125 54.3053 195.884Z" fill="#E8A749"/>
<path d="M109.877 208.756C110.733 204.347 111.235 201.728 111.235 201.728C111.235 192.437 110.965 184.34 113.42 175.723C114.508 171.881 115.5 168.185 116.376 164.497C117.551 159.664 118.532 154.831 119.371 149.691C122.759 150.373 125.724 150.805 128.661 151.231C136.219 152.317 143.527 153.309 157.131 158.181L157.149 158.192C164.708 160.907 166.528 167.328 166.008 175.069C165.68 180.045 164.381 185.563 163.013 190.993L162.657 191.235C161.367 192.109 160.057 192.948 158.729 193.756C158.547 193.872 158.363 193.977 158.18 194.084L157.901 194.256C157.265 194.633 156.64 194.999 155.995 195.364C155.456 195.672 154.897 195.98 154.348 196.279C153.944 196.5 153.529 196.721 153.097 196.933L152.961 197.001C151.777 197.617 150.584 198.213 149.38 198.783C148.561 199.187 147.733 199.563 146.896 199.927C146.665 200.033 146.424 200.139 146.184 200.247L145.915 200.361C145.568 200.516 145.221 200.659 144.875 200.804C144.065 201.14 143.257 201.469 142.439 201.787C142.092 201.912 141.755 202.045 141.408 202.171L141.235 202.239C140.965 202.355 140.676 202.451 140.397 202.556C140.215 202.624 140.032 202.692 139.839 202.757C139.715 202.805 139.588 202.855 139.453 202.903L139.127 203.019C138.529 203.231 137.933 203.432 137.327 203.635C136.488 203.904 135.651 204.173 134.813 204.424L134.784 204.433L134.476 204.529C134.225 204.607 133.976 204.675 133.725 204.751C133.041 204.944 132.368 205.137 131.675 205.319C131.029 205.492 130.385 205.656 129.74 205.82C129.605 205.849 129.471 205.888 129.335 205.917L129.027 205.993C128.42 206.139 127.804 206.283 127.197 206.427C126.408 206.6 125.609 206.773 124.82 206.927L124.761 206.936L124.464 206.995C123.481 207.188 122.5 207.361 121.517 207.515C118.86 207.957 116.193 208.295 113.507 208.516C112.872 208.584 112.255 208.621 111.62 208.66C111.043 208.717 110.455 208.748 109.877 208.756Z" fill="#E8A749"/>
<path d="M91.9786 208.121C89.8039 207.861 87.6266 207.525 85.4506 207.12L85.316 207.091C85.124 207.052 84.9119 207.015 84.7093 206.975C84.4879 206.936 84.2666 206.899 84.0453 206.86L83.8053 206.803C83.4293 206.725 83.0626 206.648 82.6679 206.561L82.3506 206.493C81.9079 206.397 81.4746 206.301 81.032 206.195C79.848 205.917 78.6639 205.628 77.4893 205.3C75.9293 190.608 75.1586 177.061 76.132 166.827C76.488 163.033 77.0839 159.693 77.9706 156.929V156.92C78.8079 154.272 79.916 152.144 81.3106 150.633C83.9973 147.725 87.868 146.204 91.2853 145.944C91.2853 145.944 91.296 146.291 91.3053 146.945C91.344 149.411 91.4693 156.313 91.5933 165.932C91.5933 166.316 91.6039 166.701 91.6039 167.096C91.7573 178.197 91.9119 192.688 91.9786 208.121Z" fill="#FFCC7B"/>
<path d="M131.809 163.612C131.809 164.344 131.761 165.045 131.675 165.72C131.077 170.332 127.053 186.92 121.517 207.515C118.86 207.957 116.193 208.295 113.507 208.516C112.872 208.584 112.255 208.621 111.62 208.66C111.043 208.717 110.455 208.748 109.877 208.756L109.743 208.765C108.741 208.833 107.749 208.853 106.748 208.872C106.536 208.881 106.324 208.892 106.123 208.881C105.843 208.901 105.564 208.901 105.284 208.892C105.063 208.901 104.841 208.911 104.611 208.911C104.476 208.911 104.351 208.911 104.216 208.901C107.065 193.149 109.887 178.247 112.168 166.393C112.275 165.836 112.38 165.277 112.487 164.728C115.307 150.065 117.233 140.485 117.233 140.485L117.243 140.495C119.668 142.613 124.512 145.144 126.563 147.861C127.333 148.88 128.035 150.017 128.661 151.231C130.635 155.043 131.839 159.616 131.809 163.612Z" fill="#FFCC7B"/>
<path d="M154.348 196.279C153.944 196.5 153.529 196.721 153.097 196.933L152.961 197.001C151.777 197.617 150.584 198.213 149.38 198.783C146.704 182.059 144.056 168.713 142.881 162.967C142.468 160.983 142.236 159.905 142.236 159.905C144.923 158.364 151.373 156.977 157.131 158.181L157.149 158.192C160.751 158.941 164.072 160.713 166.047 164.084C168.973 169.08 171.476 175.464 173.623 182.761C173.373 182.992 173.113 183.213 172.863 183.435C172.391 183.84 171.919 184.244 171.447 184.639C171.091 184.937 170.725 185.236 170.36 185.533C170.003 185.823 169.647 186.112 169.291 186.391L169.088 186.545C167.297 187.971 165.469 189.327 163.601 190.608C163.408 190.743 163.216 190.868 163.013 190.993L162.657 191.235C161.367 192.109 160.057 192.948 158.729 193.756C158.547 193.872 158.363 193.977 158.18 194.084L157.901 194.256C157.265 194.633 156.64 194.999 155.995 195.364C155.456 195.672 154.897 195.98 154.348 196.279Z" fill="#E8A749"/>
<path d="M158.18 194.084L157.901 194.256C157.968 193.987 158.056 193.717 158.132 193.459C158.132 193.459 158.151 193.669 158.18 194.084Z" fill="#D8953D"/>
</svg>
