<svg width="209" height="209" viewBox="0 0 209 209" fill="none" xmlns="http://www.w3.org/2000/svg">
<path d="M208.648 104.912C208.648 134.384 196.383 160.985 176.692 179.905C176.52 180.077 176.337 180.252 176.153 180.424C175.067 181.455 173.949 182.467 172.813 183.437C171.081 184.949 169.309 186.393 167.479 187.771C166.979 188.165 166.477 188.54 165.968 188.907C164.532 189.967 163.069 190.976 161.576 191.949L161.443 192.035C161.211 192.189 160.98 192.344 160.74 192.488C160.557 192.613 160.364 192.739 160.172 192.855L160.124 192.883C159.536 193.257 158.949 193.615 158.363 193.972C156.803 194.915 155.213 195.819 153.596 196.676C153.259 196.859 152.921 197.041 152.576 197.216C151.487 197.784 150.38 198.343 149.263 198.861C148.897 199.035 148.531 199.208 148.165 199.372C145.969 200.403 143.728 201.336 141.456 202.193C141.099 202.328 140.741 202.463 140.376 202.597C139.048 203.079 137.709 203.541 136.363 203.973C132.145 205.321 127.812 206.411 123.373 207.219C119.831 207.864 116.211 208.325 112.552 208.596L112.417 208.605C111.368 208.683 110.319 208.749 109.259 208.788C108.749 208.817 108.229 208.836 107.709 208.847L107.449 208.856C107.248 208.865 107.035 208.865 106.833 208.865L106.487 208.875C105.88 208.884 105.273 208.895 104.667 208.895C103.907 208.895 103.155 208.884 102.395 208.856H102.299C101.963 208.856 101.625 208.856 101.288 208.827C100.825 208.827 100.355 208.807 99.892 208.779C98.284 208.711 96.6852 208.605 95.1066 208.452C87.6439 207.777 80.4146 206.313 73.5012 204.137L73.4333 204.119C71.4133 203.483 69.4186 202.791 67.4653 202.029L67.3879 202.011C67.1186 201.905 66.8492 201.799 66.5799 201.693C66.3959 201.616 66.2026 201.548 66.0213 201.471C64.7493 200.961 63.4786 200.421 62.2373 199.872C59.888 198.823 57.5866 197.688 55.3439 196.475C52.9653 195.193 50.644 193.816 48.392 192.364C45.8893 190.747 43.4533 189.032 41.104 187.204C40.2173 186.529 39.3425 185.825 38.4852 185.113C37.8399 184.583 37.1945 184.044 36.5692 183.496L36.2905 183.245C36.0492 183.033 35.8092 182.832 35.5679 182.611C34.9319 182.052 34.3052 181.483 33.6905 180.907L33.6333 180.848C13.3573 161.871 0.686646 134.875 0.686646 104.912C0.686646 47.4827 47.2373 0.932018 104.667 0.932018C162.097 0.932018 208.648 47.4827 208.648 104.912Z" fill="#F7F2DA"/>
<path d="M140.376 202.597C139.048 203.08 137.709 203.541 136.361 203.973C136.507 199.835 136.815 195.713 137.199 191.68C137.536 188.195 138.519 184.739 138.585 181.224L142.052 172.511C147.029 174.513 150.755 176.795 153.577 179.231V179.241C158.227 183.255 160.403 187.684 161.577 191.949L161.443 192.035C161.211 192.191 160.98 192.344 160.74 192.488C160.557 192.613 160.364 192.739 160.172 192.855L160.124 192.883C159.536 193.257 158.949 193.615 158.361 193.972C156.803 194.915 155.213 195.819 153.596 196.676C153.259 196.86 152.921 197.041 152.576 197.216C151.487 197.784 150.38 198.343 149.263 198.861C148.897 199.035 148.531 199.208 148.165 199.372C145.971 200.403 143.728 201.336 141.456 202.193C141.099 202.328 140.743 202.463 140.376 202.597Z" fill="#0C83C4"/>
<path d="M48.392 192.363C45.8894 190.747 43.4533 189.031 41.104 187.203C40.2173 186.528 39.3426 185.825 38.4853 185.113C38.0239 177.815 40.6613 168.284 59.3013 163.316C59.5706 163.239 59.8973 163.161 60.2733 163.056C63.5173 162.208 70.3439 160.437 77.5746 158.435C77.9399 158.339 78.3053 158.232 78.6626 158.127C78.9799 158.04 79.288 157.953 79.6053 157.876C82.7453 156.991 85.912 156.076 88.8386 155.191C89.4173 155.017 89.9933 154.844 90.5519 154.68C94.0666 153.583 97.1466 152.552 99.3239 151.676C101.056 150.983 102.212 150.385 102.539 149.943C102.539 149.943 106.428 151.829 112.071 154.66L112.283 154.776C112.581 154.92 112.889 155.075 113.197 155.239C113.707 155.488 114.217 155.749 114.748 156.019C116.489 156.895 118.349 157.848 120.264 158.839C134.62 166.233 152.615 176.053 153.577 179.231V179.241C154.385 181.993 150.881 191.872 148.165 199.372C145.971 200.403 143.728 201.336 141.456 202.193C141.099 202.328 140.743 202.463 140.376 202.597C139.048 203.08 137.709 203.541 136.361 203.973C132.144 205.321 127.812 206.411 123.373 207.219C119.831 207.863 116.211 208.325 112.552 208.596L112.417 208.605C111.368 208.683 110.319 208.751 109.259 208.788C108.749 208.817 108.229 208.836 107.709 208.847L107.449 208.856C107.248 208.865 107.035 208.865 106.833 208.865L106.487 208.875C105.88 208.884 105.273 208.895 104.667 208.895C103.907 208.895 103.155 208.884 102.395 208.856H102.299C101.963 208.856 101.625 208.856 101.288 208.827C100.825 208.827 100.355 208.807 99.892 208.779C98.284 208.711 96.6866 208.605 95.1066 208.452C87.6439 207.777 80.4146 206.313 73.5013 204.139L73.4333 204.119C71.4133 203.483 69.4187 202.791 67.4653 202.029L67.388 202.011C67.1187 201.905 66.8492 201.799 66.5799 201.693C66.3959 201.616 66.2027 201.548 66.0213 201.472C64.7507 200.961 63.4787 200.421 62.2373 199.872C59.888 198.823 57.5866 197.688 55.344 196.473C52.9653 195.195 50.644 193.816 48.392 192.363Z" fill="#1B96EA"/>
<path d="M67.4653 202.029L67.3879 202.011C67.1186 201.905 66.8492 201.799 66.5799 201.693C66.3959 201.616 66.2026 201.548 66.0213 201.472C64.7506 200.961 63.4786 200.421 62.2373 199.872C59.888 198.823 57.5866 197.688 55.3439 196.473C52.9653 195.195 50.644 193.816 48.392 192.363C45.8893 190.747 43.4533 189.031 41.104 187.203C40.2173 186.528 39.3425 185.825 38.4852 185.113C37.8399 184.584 37.1945 184.044 36.5692 183.496L36.2906 183.247C36.0492 183.033 35.8079 182.832 35.5679 182.611C34.9319 182.052 34.3052 181.483 33.6906 180.907C35.9239 174.119 41.6919 166.936 60.2732 163.056L60.4079 163.028L62.7852 174.06C63.0452 177.593 64.6532 181.108 65.3172 184.613C66.3479 190.168 67.1946 195.867 67.4452 201.528C67.4559 201.693 67.456 201.857 67.4653 202.029Z" fill="#1B96EA"/>
<path d="M67.4653 202.029L67.3879 202.011C67.4079 201.827 67.4266 201.664 67.4452 201.528C67.4559 201.693 67.4559 201.857 67.4653 202.029Z" fill="#0C83C4"/>
<path d="M109.259 208.788C108.749 208.817 108.229 208.836 107.709 208.847L107.449 208.856C107.46 208.421 107.449 207.999 107.449 207.565C107.429 201.037 107.344 194.491 107.075 187.964C107.045 187.184 107.007 186.393 106.977 185.604C106.959 185.075 106.929 184.555 106.901 184.035C106.756 180.992 106.516 177.931 105.9 174.984C105.659 173.849 107.401 173.367 107.641 174.504C108.209 177.239 108.451 180.049 108.615 182.841C108.672 183.755 108.72 184.66 108.768 185.567V185.652C109.067 191.285 109.163 196.927 109.221 202.569C109.241 204.639 109.259 206.708 109.259 208.788Z" fill="#0C83C4"/>
<path d="M98.4679 197.313C98.4679 198.92 99.7693 200.223 101.376 200.223C102.983 200.223 104.287 198.92 104.287 197.313C104.287 195.707 102.983 194.405 101.376 194.405C99.7693 194.405 98.4679 195.707 98.4679 197.313Z" fill="#0C83C4"/>
<path d="M59.2186 70.9774C59.9106 68.7387 68.2826 61.8733 70.0999 60.472L85.4266 61.0454C81.5146 67.0174 81.5746 73.4667 81.1839 80.38C75.5159 78.624 69.4186 78.4227 63.8066 76.5333C60.6866 75.4827 58.0799 74.6547 59.2186 70.9774Z" fill="#B50F0F"/>
<path d="M87.4573 173.416C87.4573 173.416 88.5493 179.388 89.728 182.464C91.2626 186.483 93.4533 189.923 95.944 192.504C96.5267 191.973 97.1253 191.479 97.7267 191.017C102.139 187.631 106.824 185.965 107.465 185.253C108.008 185.895 111.595 185.527 115.403 187.121C115.584 185.769 115.641 184.333 115.569 182.841C115.525 181.904 115.428 180.94 115.279 179.967C115.249 179.769 115.219 179.575 115.184 179.376C115.144 179.151 115.101 178.924 115.057 178.699C115.019 178.489 114.972 178.276 114.928 178.067C114.808 177.512 114.671 176.955 114.515 176.395C114.475 176.245 114.431 176.091 114.385 175.939L114.359 175.849C114.311 175.684 114.259 175.516 114.205 175.348C114.132 175.093 114.047 174.839 113.96 174.584C113.821 174.183 113.679 173.777 113.524 173.373L113.46 173.205C113.321 172.845 113.177 172.492 113.025 172.141C112.953 171.968 112.875 171.797 112.797 171.623C112.728 171.468 112.656 171.313 112.584 171.157L112.555 171.092C112.497 170.971 112.44 170.853 112.38 170.733C112.117 170.188 111.839 169.653 111.549 169.136L111.392 168.851L111.233 168.575L112.555 151.209L112.579 150.873L114.544 125.011L115.997 105.892L92.7186 104.127L92.24 110.472L90.6959 130.751V130.753L89.2746 149.444L88.8066 155.588L87.4573 173.416Z" fill="#F79C5E"/>
<path d="M113.527 173.373C114.757 176.604 115.427 179.839 115.572 182.843C115.145 180.884 114.575 178.961 113.884 177.221C112.844 174.611 110.915 172.725 109.783 170.357C108.639 167.953 109.795 165.203 108.964 162.46C107.423 157.377 100.005 153.587 96.9572 148.823C93.4466 143.331 91.9199 137.761 90.7893 131.321C90.7546 131.132 90.724 130.94 90.6973 130.752C89.6067 123.501 91.9572 117.225 91.7906 110.179L92.2399 110.472L114.544 125.011L111.231 168.575C112.095 170.056 112.871 171.66 113.527 173.373Z" fill="#E07832"/>
<path d="M87.4573 173.416C87.4573 173.416 88.5493 179.388 89.728 182.464C91.2626 186.483 93.4533 189.923 95.944 192.504C96.5267 191.973 97.1253 191.479 97.7267 191.017C96.1507 188.544 94.916 185.74 93.9066 183.428C91.028 176.851 90.2066 169.511 89.4519 162.479C89.2066 160.2 88.9813 157.899 88.8066 155.588L87.4573 173.416Z" fill="#EF9C62"/>
<path d="M72.3132 91.26C73.3758 89.8253 75.3452 90.0774 76.9732 89.976C78.7105 89.8707 81.2785 89.716 82.3692 92.3334C83.2278 94.3894 83.5518 97.236 84.1358 99.448L86.9866 113.452C86.4013 114.099 84.1425 114.725 83.2279 114.251C82.0265 113.629 75.1013 101.881 72.9973 96.9667C72.0253 94.6934 70.9692 93.0707 72.3132 91.26Z" fill="#F79C5E"/>
<path d="M73.3506 92.9373C73.3426 91.5467 75.048 91.6147 76.1946 91.4454C77.3213 91.28 79.2466 90.7827 80.3132 91.4547C81.3652 92.1173 81.7053 94.8613 81.96 96.1613C78.9453 96.132 80.1173 100.471 82.4707 99.5907L82.6813 100.389C82.9627 101.453 83.2173 102.78 83.0946 103.568C82.8746 102.737 82.7306 101.021 82.0173 100.525C81.3213 100.041 80.152 100.523 79.372 100.089C77.3333 98.9587 78.9693 96.6653 80.46 95.8333C80.2507 95.2627 79.9947 93.788 79.56 93.3853C79.06 92.924 77.7533 93.0987 77.0453 93.0653C75.9853 93.0173 75.2333 92.756 74.9547 93.7293C74.7667 94.3853 75.2346 95.3613 75.4173 96.004C74.7439 95.3533 73.3559 93.8893 73.3506 92.9373Z" fill="#E07832"/>
<path d="M78.644 104.361C79.3307 119.788 92.2427 134.309 91.9761 134.907C87.2721 145.496 97.856 148.807 101.747 149.295C108.143 150.091 127.688 148.652 130.169 120.917C130.592 116.181 128.549 108.259 128.259 102.383C128.247 102.103 128.236 101.819 128.236 101.521C128.217 98.2881 128.856 94.2001 129.017 90.2734C129.088 88.5174 129.063 86.7907 128.84 85.1907C128.565 83.2321 129.185 75.0401 127.577 66.4267C125.709 56.3987 120.831 45.7987 108.027 43.8041C94.6294 41.7201 86.8134 51.1454 82.7814 61.2801C79.4987 69.5094 78.7148 78.2081 79.4641 81.5774C79.5161 81.8054 79.5734 82.0121 79.6374 82.1894C85.9041 99.4054 78.092 91.9734 78.644 104.361Z" fill="#F79C5E"/>
<path d="M92.0974 91.248C91.6894 90.9094 86.8853 91.6773 85.1133 92.2307C84.592 92.3933 83.988 92.4533 83.7466 93.132C83.5066 93.804 83.2374 95.124 83.1587 95.812C83.1267 96.1014 83.2254 96.9853 83.2254 96.9853C85.3241 96.2667 88.36 95.0573 90.6374 95.632C91.6307 95.8827 93.4653 98.5853 93.624 98.6227C93.588 98.392 92.5134 91.596 92.0974 91.248Z" fill="#E07832"/>
<path d="M83.9986 99.0947C83.9986 99.0947 85.0586 101.227 88.6012 101.023C92.1452 100.819 92.9506 98.5801 92.9506 98.5801C92.9506 98.5801 93.3306 98.788 93.4159 98.632C93.4999 98.476 93.0093 98.1414 92.9333 97.6627C92.8573 97.184 91.8559 93.4507 90.9359 93.1454C90.0159 92.84 84.3973 93.1694 83.6373 94.8481C82.8786 96.5241 83.9986 99.0947 83.9986 99.0947Z" fill="white"/>
<path d="M91.1201 96.372C91.2254 98.208 90.16 99.76 88.7413 99.8427C87.3213 99.924 86.0853 98.5027 85.98 96.6667C85.8746 94.8307 86.94 93.2787 88.36 93.196C89.7787 93.1147 91.0147 94.536 91.1201 96.372Z" fill="#3A2E26"/>
<path d="M89.196 96.0307C89.24 96.7987 88.796 97.4467 88.2013 97.48C87.6093 97.5147 87.0934 96.9213 87.0494 96.1533C87.0054 95.388 87.4494 94.7387 88.0428 94.704C88.6361 94.6693 89.152 95.264 89.196 96.0307Z" fill="#4C3F35"/>
<path d="M89.028 96.04C89.0426 96.2987 88.8933 96.5187 88.6933 96.5307C88.492 96.5414 88.3174 96.3414 88.304 96.0814C88.288 95.8227 88.4387 95.604 88.6387 95.592C88.8387 95.5814 89.0146 95.7814 89.028 96.04Z" fill="white"/>
<path d="M92.7666 98.4627C92.7572 98.4814 91.9493 100.571 88.5879 100.772C85.2186 100.965 84.1785 98.9827 84.1692 98.9734C84.1598 98.9627 83.9572 98.4814 83.7946 97.8267C83.7172 97.528 83.6492 97.2014 83.6106 96.8547C83.5332 96.2187 83.5532 95.5361 83.8132 94.9774C83.9385 94.6881 84.2652 94.4387 84.7078 94.2267L84.7172 94.2174C85.4492 93.8694 86.4799 93.6107 87.5679 93.4654H87.5785C88.0492 93.3987 88.512 93.3507 88.964 93.3214C89.984 93.264 90.6679 93.3107 90.8892 93.388C91.3612 93.552 91.9586 95.0347 92.3439 96.2481C92.5066 96.7587 92.6333 97.2294 92.6986 97.5187L92.7386 97.7121C92.7772 97.9721 92.9026 98.1734 93.0172 98.3467L92.8546 98.2507L92.7666 98.4627ZM93.5946 98.4534L93.5759 98.4147V98.4054L93.4025 98.136C93.2972 97.9814 93.1519 97.808 93.1239 97.6254C93.1132 97.528 93.0358 97.1907 92.9025 96.7294C92.5452 95.42 91.7933 93.168 90.9759 92.8974C90.8893 92.868 90.7839 92.8494 90.6386 92.8294L90.3412 92.8014H90.3306C89.956 92.772 89.4745 92.7814 88.9345 92.8107C88.1452 92.8587 84.1693 93.168 83.4653 94.7174C83.4093 94.8334 83.3693 94.9574 83.3319 95.0827L83.2546 95.372V95.4L83.2452 95.4587C83.2159 95.5827 83.2066 95.7094 83.1973 95.8441C83.1773 95.9694 83.1772 96.1027 83.1772 96.2294C83.1772 96.3734 83.188 96.508 83.1973 96.652L83.2065 96.8161V96.8254L83.2159 96.8734V96.9214L83.2253 96.9894C83.2546 97.2494 83.3039 97.4907 83.3612 97.7214C83.4172 97.9907 83.4853 98.2414 83.5533 98.4627C83.688 98.896 83.8133 99.1934 83.8319 99.2227C83.8519 99.252 83.9573 99.4641 84.1986 99.7427C84.7653 100.397 86.0746 101.428 88.6172 101.283C91.6599 101.1 92.7465 99.464 93.0465 98.8867L93.3253 98.9441C93.4693 98.9347 93.5466 98.8481 93.5759 98.7801L93.6146 98.664V98.6547L93.6239 98.6267V98.6161L93.5946 98.4534Z" fill="#E89258"/>
<path d="M83.4639 98.1507C83.4066 97.9427 83.3506 97.7133 83.3039 97.472C83.3213 97.556 83.3399 97.64 83.3612 97.7213C83.3919 97.8707 83.4266 98.0147 83.4639 98.1507ZM83.2159 96.908C83.2132 96.8813 83.2092 96.8533 83.2065 96.8267L83.2106 96.8427C83.2119 96.864 83.2146 96.8827 83.2159 96.9V96.908ZM83.2065 96.824C83.1999 96.7573 83.1945 96.692 83.1892 96.6253C83.1945 96.6893 83.2012 96.748 83.2052 96.7987L83.2065 96.816V96.824Z" fill="#DE8C54"/>
<path d="M83.216 96.9C83.2146 96.8827 83.212 96.864 83.2106 96.8427L83.216 96.8733V96.9ZM83.2053 96.7987C83.2013 96.748 83.1946 96.6893 83.1893 96.6253C83.1599 96.212 83.1733 95.7854 83.2546 95.38V95.4L83.2453 95.4587C83.2159 95.5827 83.2067 95.7094 83.1973 95.844C83.1773 95.9694 83.1773 96.1027 83.1773 96.2293C83.1773 96.3733 83.188 96.508 83.1973 96.652L83.2053 96.7987ZM92.9066 96.7253C92.9039 96.724 92.9013 96.7213 92.8999 96.72C92.8079 96.3827 92.6892 95.9854 92.5519 95.5747C92.6919 95.988 92.8119 96.3893 92.9066 96.7253ZM83.2626 95.344C83.2972 95.176 83.3453 95.0133 83.4066 94.8547C83.3786 94.9293 83.3546 95.0067 83.332 95.0827L83.2626 95.344ZM83.4412 94.768C83.4492 94.7507 83.4573 94.732 83.4653 94.7147C83.9906 93.556 86.3413 93.0934 87.8279 92.9134C86.3426 93.0947 83.9906 93.56 83.4653 94.7173C83.4573 94.7347 83.4492 94.7507 83.4412 94.768ZM91.4373 93.252C91.288 93.0747 91.1333 92.9493 90.976 92.8973C90.8893 92.868 90.784 92.8493 90.6386 92.8293L90.3973 92.8067C90.652 92.8253 90.8519 92.856 90.9786 92.8973C91.1346 92.9493 91.288 93.0747 91.4373 93.252Z" fill="#C96C2D"/>
<path d="M83.792 97.82C83.716 97.524 83.6493 97.1987 83.6106 96.8547C83.5333 96.2187 83.5532 95.536 83.8132 94.9774C83.9385 94.688 84.2652 94.4387 84.7079 94.2267L84.7172 94.2174C85.4172 93.8854 86.3892 93.6334 87.4226 93.4854C86.8292 93.836 86.3679 94.4747 86.1359 95.2587C84.8785 95.8507 84.1733 96.9467 83.792 97.82ZM92.3412 96.2427C91.9612 95.948 91.4972 95.6507 90.9519 95.4054C90.6479 94.3827 89.9733 93.5974 89.1586 93.3107C89.3946 93.3 89.6093 93.296 89.804 93.296C90.36 93.296 90.7359 93.3347 90.8892 93.388C91.3612 93.552 91.9559 95.0307 92.3412 96.2427Z" fill="#E5E5E5"/>
<path d="M90.9519 95.4054C90.2772 95.1027 89.4772 94.8774 88.5559 94.836C88.4132 94.7507 88.256 94.7027 88.092 94.7027C88.076 94.7027 88.0586 94.7027 88.0426 94.704C87.88 94.7134 87.7279 94.7694 87.5946 94.8614C87.0399 94.92 86.5572 95.0614 86.1359 95.2587C86.3679 94.4747 86.8292 93.836 87.4226 93.4854C87.4706 93.4787 87.5186 93.472 87.5679 93.4654H87.5786C88.0492 93.3987 88.512 93.3507 88.964 93.3214C89.0293 93.3174 89.0947 93.3134 89.1587 93.3107C89.9733 93.5974 90.6479 94.3827 90.9519 95.4054Z" fill="#342922"/>
<path d="M87.5946 94.8613C87.7279 94.7693 87.88 94.7134 88.0427 94.704C88.0587 94.7027 88.076 94.7027 88.092 94.7027C88.256 94.7027 88.4133 94.7507 88.5559 94.836C88.4546 94.832 88.352 94.8293 88.248 94.8293C88.1147 94.8293 87.9813 94.8334 87.844 94.8414C87.7586 94.8467 87.6759 94.8533 87.5946 94.8613Z" fill="#443930"/>
<path d="M83.5546 98.4574C83.5239 98.3614 83.4933 98.2587 83.464 98.1507C83.4266 98.0147 83.3919 97.8707 83.3612 97.7213C83.3399 97.64 83.3213 97.556 83.3039 97.472C83.2679 97.2894 83.2386 97.1014 83.2159 96.908V96.9V96.8734L83.2106 96.8427L83.2065 96.8267C83.2065 96.8267 83.2065 96.8254 83.2065 96.824V96.816L83.2052 96.7987L83.1973 96.652C83.188 96.508 83.1772 96.3734 83.1772 96.2294C83.1772 96.1027 83.1773 95.9694 83.1973 95.844C83.2066 95.7094 83.2159 95.5827 83.2452 95.4587L83.2546 95.4V95.38C83.2573 95.368 83.2599 95.356 83.2625 95.344L83.3319 95.0827C83.3546 95.0067 83.3785 94.9293 83.4065 94.8547C83.4185 94.8253 83.4292 94.7974 83.4412 94.768C83.4492 94.7507 83.4573 94.7347 83.4653 94.7173C83.9906 93.56 86.3426 93.0947 87.8279 92.9134C88.3306 92.8534 88.7358 92.824 88.9358 92.8134C89.2372 92.796 89.5226 92.7867 89.7813 92.7867C90.0093 92.7867 90.2173 92.7934 90.3973 92.8067L90.6386 92.8294C90.7839 92.8494 90.8893 92.868 90.9759 92.8974C91.1333 92.9494 91.2879 93.0747 91.4373 93.252C91.8639 93.7587 92.2532 94.696 92.5519 95.5747C92.6892 95.9854 92.8079 96.3827 92.8999 96.72C92.7386 96.5667 92.5532 96.4054 92.3439 96.244C92.3426 96.2427 92.3425 96.2427 92.3412 96.2427C91.9558 95.0307 91.3612 93.552 90.8892 93.388C90.7359 93.3347 90.3599 93.296 89.8039 93.296C89.6093 93.296 89.3946 93.3 89.1586 93.3107C89.0946 93.3134 89.0293 93.3173 88.964 93.3213C88.512 93.3507 88.0492 93.3987 87.5785 93.4654H87.5679C87.5185 93.472 87.4706 93.4787 87.4226 93.4853C86.3892 93.6333 85.4172 93.8853 84.7172 94.2173L84.7078 94.2267C84.2652 94.4387 83.9385 94.688 83.8132 94.9774C83.5532 95.536 83.5332 96.2187 83.6106 96.8547C83.6492 97.1987 83.716 97.524 83.792 97.82C83.792 97.8213 83.792 97.8214 83.792 97.8227C83.6906 98.0547 83.6133 98.2694 83.5546 98.4574Z" fill="#D0834F"/>
<path d="M110.548 91.084C110.975 90.6973 116.587 90.8667 118.688 91.1974C119.307 91.296 120.008 91.28 120.368 91.924C120.728 92.5627 121.2 93.84 121.375 94.5134C121.448 94.7947 121.443 95.6853 121.443 95.6853C118.943 95.232 115.308 94.4053 112.764 95.256C111.655 95.628 109.883 98.536 109.704 98.5947C109.717 98.3613 110.113 91.48 110.548 91.084Z" fill="#E07832"/>
<path d="M120.813 97.8747C120.813 97.8747 119.861 100.123 115.767 100.359C111.672 100.593 110.472 98.468 110.472 98.468C110.472 98.468 110.061 98.7227 109.944 98.5774C109.827 98.4334 110.351 98.04 110.379 97.556C110.408 97.0707 111.096 93.2414 112.116 92.8227C113.133 92.4067 119.627 92.0414 120.704 93.6147C121.783 95.1867 120.813 97.8747 120.813 97.8747Z" fill="white"/>
<path d="M112.733 95.7933C112.839 97.628 114.253 99.04 115.893 98.9467C117.532 98.852 118.776 97.288 118.671 95.452C118.565 93.6173 117.151 92.2053 115.512 92.2987C113.872 92.3933 112.628 93.9587 112.733 95.7933Z" fill="#3A2E26"/>
<path d="M113.029 95.5774C113.075 96.344 113.665 96.9347 114.351 96.8947C115.035 96.8547 115.555 96.2013 115.511 95.4347C115.467 94.668 114.876 94.0787 114.191 94.1173C113.507 94.1573 112.985 94.8107 113.029 95.5774Z" fill="#4C3F35"/>
<path d="M115.093 95.2054C115.108 95.4654 115.308 95.664 115.539 95.6507C115.771 95.6387 115.947 95.4174 115.931 95.1574C115.917 94.8987 115.717 94.6987 115.485 94.712C115.253 94.7254 115.079 94.9467 115.093 95.2054Z" fill="white"/>
<path d="M120.9 96.5853C120.784 97.268 120.611 97.7694 120.601 97.7787C120.601 97.788 119.639 99.8774 115.748 100.109C111.868 100.331 110.675 98.3574 110.665 98.3374L110.549 98.1253L110.357 98.2414C110.481 98.0574 110.597 97.8374 110.608 97.5774L110.627 97.384C110.665 97.1147 110.743 96.6813 110.848 96.2L110.859 96.1613L110.877 96.0747C111.176 94.8334 111.676 93.2827 112.196 93.0613C112.447 92.9547 113.227 92.82 114.401 92.7533C114.661 92.744 114.931 92.7333 115.189 92.724H115.209C117.52 92.676 119.975 92.964 120.524 93.764C120.88 94.2933 120.996 94.9573 120.985 95.6027C120.985 95.9493 120.948 96.2867 120.9 96.5853ZM121.429 95.208V95.14L121.419 95.044V95.0054L121.371 94.708L121.323 94.4667L121.275 94.2747L121.217 94.1013C121.14 93.88 121.024 93.6587 120.889 93.456C119.889 92.012 115.287 92.1947 114.372 92.2533L114.044 92.272L113.745 92.2907H113.737L113.659 92.3013L113.601 92.3107L113.516 92.32L113.179 92.3573H113.168H113.149C113.025 92.368 112.899 92.3867 112.793 92.4054L112.476 92.464C112.292 92.5027 112.137 92.5414 112.032 92.58C111.136 92.9454 110.549 95.2853 110.3 96.624C110.203 97.0947 110.155 97.4427 110.155 97.5387C110.145 97.7214 110.001 97.924 109.895 98.0774L109.721 98.3853L109.712 98.4054L109.701 98.54V98.5973L109.78 98.7507C109.828 98.8093 109.925 98.8867 110.087 98.876L110.405 98.7893C110.809 99.3293 112.263 100.812 115.777 100.609C119.967 100.379 120.985 98.0867 121.024 97.9907C121.033 97.9427 121.14 97.644 121.247 97.1907C121.275 97.076 121.295 96.96 121.323 96.836C121.363 96.604 121.4 96.3627 121.419 96.1027C121.429 95.9693 121.439 95.8347 121.439 95.6893V95.5933V95.3134L121.429 95.208Z" fill="#E89258"/>
<path d="M110.295 96.6227C110.419 95.9747 110.62 95.092 110.896 94.3134C110.621 95.0894 110.423 95.9694 110.301 96.616C110.299 96.6187 110.297 96.62 110.295 96.6227Z" fill="#C96C2D"/>
<path d="M120.899 96.5893C120.899 96.588 120.897 96.5867 120.897 96.5867C120.429 95.8827 119.669 95.0467 118.505 94.5507C118.269 93.7987 117.8 93.1707 117.203 92.7707C118.781 92.8854 120.135 93.196 120.524 93.764C120.88 94.2933 120.996 94.9574 120.985 95.6027C120.985 95.9494 120.948 96.2867 120.9 96.5853C120.9 96.5867 120.899 96.588 120.899 96.5893ZM110.876 96.0787L110.877 96.0747C111.176 94.8334 111.676 93.2827 112.196 93.0613C112.427 92.9627 113.109 92.8414 114.137 92.7694C113.461 93.2294 112.969 93.984 112.796 94.8667C112.008 95.2214 111.372 95.6587 110.881 96.0747C110.88 96.076 110.879 96.0774 110.876 96.0787Z" fill="#E5E5E5"/>
<path d="M112.796 94.8667C112.969 93.984 113.461 93.2294 114.137 92.7694C114.223 92.764 114.311 92.7587 114.401 92.7533C114.661 92.744 114.931 92.7333 115.189 92.724H115.209C115.372 92.72 115.535 92.7187 115.697 92.7187C116.205 92.7187 116.715 92.736 117.203 92.7707C117.8 93.1707 118.269 93.7987 118.505 94.5507C117.884 94.284 117.145 94.1147 116.276 94.1147C116.145 94.1147 116.012 94.1187 115.876 94.1267C115.497 94.148 115.136 94.192 114.795 94.252C114.631 94.164 114.448 94.116 114.256 94.116C114.235 94.116 114.213 94.116 114.191 94.1173C113.809 94.14 113.477 94.3534 113.267 94.6707C113.104 94.732 112.947 94.7974 112.796 94.8667Z" fill="#342922"/>
<path d="M113.267 94.6707C113.477 94.3533 113.809 94.14 114.191 94.1173C114.213 94.116 114.235 94.116 114.256 94.116C114.448 94.116 114.631 94.164 114.795 94.252C114.237 94.3507 113.729 94.496 113.267 94.6707Z" fill="#443930"/>
<path d="M121.415 96.1573C121.416 96.14 121.417 96.1213 121.419 96.1027C121.429 95.9693 121.439 95.8347 121.439 95.6893V95.684C121.44 95.684 121.441 95.6853 121.443 95.6853C121.439 95.8453 121.429 96.004 121.415 96.1573ZM121.443 95.6827C121.443 95.6627 121.444 95.516 121.44 95.328C121.444 95.448 121.445 95.5654 121.443 95.6827Z" fill="#DE8C54"/>
<path d="M121.443 95.6853C121.441 95.6853 121.44 95.684 121.439 95.684V95.5933V95.3187C121.439 95.3227 121.439 95.3253 121.44 95.328C121.444 95.516 121.443 95.6627 121.443 95.6827C121.443 95.684 121.443 95.684 121.443 95.6853ZM121.439 95.308L121.429 95.208V95.164C121.433 95.212 121.436 95.26 121.439 95.308ZM121.421 95.068L121.419 95.044V95.0413C121.42 95.0493 121.421 95.0587 121.421 95.068ZM121.407 94.924L121.371 94.708L121.325 94.476C121.36 94.624 121.387 94.7733 121.407 94.924ZM119.287 92.5667C118.189 92.28 116.8 92.2133 115.753 92.2133C115.123 92.2133 114.616 92.2373 114.372 92.2533L114.044 92.272L113.807 92.2867C113.988 92.272 114.176 92.2587 114.371 92.248C114.613 92.2333 115.112 92.2107 115.736 92.2107C116.785 92.2107 118.184 92.2773 119.287 92.5667ZM112.128 92.5493C112.309 92.4893 112.58 92.4347 112.915 92.3853C112.872 92.392 112.832 92.3987 112.793 92.4053L112.476 92.464C112.341 92.492 112.223 92.52 112.128 92.5493ZM113.001 92.3733C113.208 92.3453 113.436 92.32 113.681 92.2987L113.659 92.3013L113.601 92.3107L113.516 92.32L113.179 92.3573H113.168H113.149C113.1 92.3613 113.051 92.368 113.001 92.3733Z" fill="#C96C2D"/>
<path d="M121.247 97.188C121.157 97.0107 121.04 96.808 120.899 96.5893C120.899 96.588 120.9 96.5867 120.9 96.5853C120.948 96.2867 120.985 95.9494 120.985 95.6027C120.996 94.9574 120.88 94.2933 120.524 93.764C120.135 93.196 118.781 92.8854 117.203 92.7707C116.715 92.736 116.205 92.7187 115.697 92.7187C115.535 92.7187 115.372 92.72 115.209 92.724H115.189C114.931 92.7333 114.661 92.744 114.401 92.7533C114.311 92.7587 114.223 92.764 114.137 92.7694C113.109 92.8414 112.427 92.9627 112.196 93.0613C111.676 93.2827 111.176 94.8334 110.877 96.0747L110.876 96.0787C110.657 96.264 110.464 96.4454 110.301 96.616C110.423 95.9694 110.621 95.0894 110.896 94.3134C111.191 93.484 111.571 92.772 112.033 92.5827C112.061 92.5707 112.093 92.56 112.128 92.5494C112.223 92.52 112.341 92.492 112.476 92.464L112.793 92.4054C112.832 92.3987 112.872 92.392 112.915 92.3853C112.944 92.3813 112.972 92.3774 113.001 92.3734C113.051 92.368 113.1 92.3613 113.149 92.3573H113.168H113.179L113.516 92.32L113.601 92.3107L113.659 92.3014L113.681 92.2987C113.723 92.2947 113.764 92.2907 113.807 92.2867L114.044 92.272L114.372 92.2533C114.616 92.2373 115.123 92.2134 115.753 92.2134C116.8 92.2134 118.189 92.28 119.287 92.5667C120.004 92.756 120.596 93.0387 120.885 93.46C121.099 93.7693 121.239 94.116 121.325 94.476L121.371 94.708L121.407 94.924C121.411 94.9627 121.416 95.0014 121.419 95.0414V95.044L121.421 95.068C121.425 95.1 121.428 95.132 121.429 95.164V95.208L121.439 95.308C121.439 95.312 121.439 95.316 121.439 95.3187V95.5933V95.684V95.6893C121.439 95.8347 121.429 95.9694 121.419 96.1027C121.417 96.1214 121.416 96.14 121.415 96.1573C121.379 96.54 121.313 96.8947 121.247 97.188Z" fill="#D0834F"/>
<path d="M90.1798 83.5134C88.1572 81.9734 83.0065 81.5707 81.4572 81.4827C81.1719 81.4681 81.0093 81.4614 81.0093 81.4614C81.2373 81.0454 81.6452 79.3307 82.0772 78.7867C82.5492 78.1907 83.5185 77.9374 84.1452 77.7187C85.9172 77.0894 87.9172 76.6227 89.6852 76.3454C90.0479 77.712 90.0733 79.2254 90.0866 80.7214C90.0933 81.6747 90.0972 82.62 90.1798 83.5134Z" fill="#604135"/>
<path d="M110.421 87.0814C113.381 85.6134 120.605 85.388 122.773 85.356C123.175 85.352 123.401 85.3494 123.401 85.3494C123.12 84.924 122.7 83.1974 122.148 82.6387C121.541 82.024 120.213 81.7374 119.357 81.4974C116.939 80.8054 114.191 80.2694 111.748 79.9294C111.121 81.284 110.953 82.7974 110.8 84.2934C110.704 85.2454 110.616 86.1907 110.421 87.0814Z" fill="#604135"/>
<path d="M114.821 123.007C114.549 122.007 114.396 120.859 114.289 119.788C115.937 120.757 117.627 124.097 117.643 126.432C116.963 125.732 116.232 125.092 115.432 124.661C111.7 130.281 105.919 133.417 98.4226 131.495C97.6799 129.175 96.0506 126.724 94.7612 124.883C107.78 131.527 114.821 123.007 114.821 123.007Z" fill="#60120F"/>
<path d="M95.2999 125.092C95.6199 125.433 95.9252 125.776 96.2132 126.127L96.3239 126.257C96.9066 126.967 97.4425 127.705 97.9519 128.516C98.2039 128.92 98.4279 129.319 98.6613 129.705L98.7399 129.84C108.315 131.028 112.293 126.653 112.776 125.401L112.728 125.231C112.399 124.796 110.444 126.388 110.435 125.548C108.821 126.301 106.745 126.903 104.235 126.895C104.045 126.895 103.853 126.888 103.661 126.881C102.163 126.821 100.62 126.552 99.0452 126.076C98.2066 125.919 97.3533 125.716 96.492 125.465C96.096 125.351 95.6973 125.228 95.2999 125.092Z" fill="#EFEAE8"/>
<path d="M96.4919 125.465L96.5732 125.56C97.1545 126.267 97.6919 127.008 98.1999 127.817C98.4519 128.221 98.6772 128.62 98.9119 129.007L98.9879 129.141C107.492 130.195 111.58 126.867 112.728 125.231C112.399 124.796 110.444 126.388 110.435 125.548C108.821 126.301 106.745 126.903 104.235 126.895C104.045 126.895 103.853 126.888 103.661 126.881C102.163 126.821 100.62 126.552 99.0452 126.076C98.2065 125.919 97.3533 125.716 96.4919 125.465Z" fill="white"/>
<path d="M115.604 124.179L115.305 124.025L115.093 124.332C114.912 124.612 114.728 124.881 114.535 125.141C113.911 125.999 113.247 126.768 112.532 127.452C112.235 127.751 111.917 128.029 111.599 128.3C109.02 130.447 105.996 131.553 102.664 131.544C101.751 131.533 100.797 131.448 99.8333 131.275C99.468 131.207 99.1012 131.131 98.7359 131.043C98.1586 129.368 97.1773 127.673 96.1453 126.093L96.2133 126.124C96.5986 126.297 96.984 126.451 97.36 126.595H97.3679L97.4267 126.615C99.756 127.491 102.039 127.933 104.235 127.933C107.141 127.943 109.48 127.192 111.233 126.297L111.292 126.268C111.628 126.104 111.945 125.92 112.235 125.748L112.379 125.661L112.408 125.641C112.532 125.555 112.657 125.477 112.773 125.401C113.197 125.112 113.564 124.833 113.881 124.573C114.189 124.323 114.439 124.092 114.632 123.9C114.931 123.611 115.093 123.409 115.123 123.369L115.315 123.148L115.229 122.84C115.084 122.301 114.96 121.685 114.853 120.933V120.924L114.844 120.865L114.863 120.885C115.825 121.897 116.721 123.659 117.059 125.219C116.557 124.785 116.085 124.448 115.604 124.179ZM118.069 126.421C118.049 124.121 116.577 120.992 114.949 119.653C114.796 119.519 114.632 119.413 114.477 119.316L113.775 118.903L113.861 119.847C113.987 121.069 114.132 122.031 114.333 122.84C114.092 123.091 113.649 123.515 113.005 124.005C112.716 124.217 112.399 124.448 112.041 124.669C111.744 124.861 111.417 125.055 111.06 125.248H111.051C110.859 125.353 110.645 125.449 110.433 125.545C110.243 125.641 110.039 125.739 109.817 125.815L109.625 125.892L109.317 126.017L109.193 126.056L109.153 126.065L109.057 126.104L108.797 126.191C108.683 126.229 108.567 126.268 108.441 126.297C108.192 126.373 107.931 126.441 107.661 126.508C107.42 126.567 107.16 126.624 106.901 126.663L106.824 126.683C106.621 126.711 106.419 126.749 106.207 126.768L106.033 126.788L105.841 126.816L105.775 126.825C105.659 126.836 105.533 126.845 105.399 126.856L105.205 126.864C105.072 126.873 104.936 126.884 104.792 126.884C104.647 126.893 104.484 126.893 104.32 126.893H104.235C104.041 126.893 103.849 126.884 103.665 126.884C103.339 126.864 103.001 126.845 102.664 126.807C102.357 126.779 102.057 126.74 101.751 126.692L101.653 126.683H101.644C100.787 126.537 99.92 126.345 99.044 126.076C98.928 126.036 98.8133 125.999 98.6893 125.96C97.9373 125.729 97.1667 125.429 96.3974 125.093C95.916 124.891 95.4146 124.649 94.9226 124.4L93.2679 123.552L94.432 125.219C95.8187 127.192 97.3199 129.512 98.0239 131.689L98.1107 131.948L98.332 132.007C99.8147 132.381 101.268 132.575 102.664 132.584C105.148 132.593 107.469 132.016 109.577 130.869C110.695 130.263 111.752 129.503 112.745 128.579C113.323 128.049 113.881 127.463 114.411 126.816C114.805 126.345 115.191 125.844 115.547 125.305C116.124 125.661 116.712 126.152 117.365 126.836L118.079 127.568L118.069 126.421ZM115.229 122.84C115.084 122.301 114.96 121.685 114.853 120.933L114.728 122.599C114.756 122.735 114.787 122.868 114.824 123.004L114.691 123.157L114.632 123.9C114.931 123.611 115.093 123.409 115.123 123.369L115.315 123.148L115.229 122.84Z" fill="#E07832"/>
<path d="M105.673 137.084C105.673 137.084 102.985 141.439 102.655 143.176C100.891 141.695 98.0027 138.547 97.8253 136.208C99.896 137.716 101.743 138.932 105.673 137.084Z" fill="#E07832"/>
<path d="M140.733 88.8494C139.431 87.5294 137.335 87.976 135.569 88.0387C133.684 88.1067 130.899 88.208 130.005 90.9213C129.304 93.0533 129.263 95.9187 128.872 98.1787L127.32 112.396C128.024 112.981 130.528 113.379 131.463 112.816C132.691 112.079 138.881 99.696 140.616 94.5973C141.417 92.2387 142.38 90.5174 140.733 88.8494Z" fill="#F79C5E"/>
<path d="M139.799 90.6227C139.655 89.2373 137.823 89.4773 136.569 89.4227C135.335 89.3707 133.204 89.068 132.127 89.8427C131.065 90.608 130.996 93.3707 130.863 94.6893C134.111 94.36 133.319 98.7947 130.687 98.1533L130.545 98.968C130.357 100.056 130.227 101.401 130.444 102.173C130.592 101.325 130.56 99.6027 131.277 99.0387C131.973 98.4867 133.287 98.8494 134.081 98.34C136.157 97.012 134.143 94.8934 132.445 94.2147C132.608 93.6254 132.725 92.132 133.149 91.688C133.639 91.18 135.067 91.2227 135.827 91.12C136.965 90.9653 137.748 90.6307 138.153 91.572C138.427 92.2054 138.028 93.2227 137.903 93.8814C138.559 93.1654 139.896 91.5707 139.799 90.6227Z" fill="#E07832"/>
<path d="M97.3572 115.14L99.0412 115.225C101.24 118.521 100.724 123.327 101.727 126.999C100.789 127.385 99.5065 126.605 98.4798 126.621C99.2665 125.317 99.0705 115.488 97.3572 115.14Z" fill="#E07832"/>
<path d="M92.0973 91.2494C92.0973 91.2494 98.7426 99.0387 96.0839 112.839C100.717 113.228 108.528 114.72 107.772 110.032C111.704 115.4 99.5346 117.744 92.5213 114.969C96.2546 96.9934 91.1427 93.1974 92.0973 91.2494Z" fill="#E07832"/>
<path d="M83.4119 63.8294C85.8999 65.3974 90.2639 67.5574 92.9053 67.0694C97.7173 66.1827 105.337 63.9734 112.313 58.8787C129.412 46.392 117.644 88.5173 128.213 88.5173C129.101 88.5867 127.279 99.16 128.271 103.695C129.361 108.696 130.225 105.685 130.225 105.685C130.225 105.685 130.803 103.521 131.679 100.159C134.479 89.3813 140.307 66.2853 139.805 62.6853C138.728 55.0533 128.208 52.5213 122.22 47.184C114.424 40.2333 101.969 40.632 92.9066 46.524C90.3159 48.2093 82.9986 48.4667 78.8613 51.496C77.5293 52.4707 76.4986 53.42 76.004 54.2933C74.48 56.984 80.0439 61.7054 83.4119 63.8294Z" fill="#604135"/>
<path d="M86.3426 51.5427C87.7039 50.2294 88.9892 48.9707 89.4505 47.9894C90.2985 46.1854 85.2239 51.9481 86.3426 51.5427Z" fill="#604135"/>
<path d="M78.588 77.924C78.6386 84.284 81.3146 95.9547 81.2986 96.788C82.5826 94.248 81.532 86.6654 81.7973 78.1307C81.9707 72.4934 82.7186 66.44 85.0933 61.152C85.2266 60.8587 85.3613 60.5667 85.504 60.2761L86.5533 51.4361L86.3427 51.5427C84.5627 53.2467 82.6387 55.0334 82.2093 56.3827C81.8667 57.4641 81.4613 59.1441 81.0506 61.1094C79.9413 66.4201 78.7733 73.7814 78.6119 76.7721C78.5919 77.1307 78.5853 77.5174 78.588 77.924Z" fill="#604135"/>
<path d="M83.4119 63.8294C85.8999 65.3974 90.2639 67.5574 92.9053 67.0694C97.7173 66.1827 105.337 63.9734 112.313 58.8787C129.412 46.392 117.644 88.5173 128.213 88.5173C129.101 88.5867 127.279 99.16 128.271 103.695C129.361 108.696 130.225 105.685 130.225 105.685C130.225 105.685 130.803 103.521 131.679 100.159C129.64 96.3333 129.981 86.384 130.476 84.2494C122.537 85.8627 125.492 57.848 119.963 54.0893C116.492 51.7333 112.527 55.8787 109.524 57.4494C106.5 59.028 102.651 60.7614 99.1866 59.936C94.0013 58.7014 89.1666 55.5907 84.2066 53.6933C82.4439 53.0187 80.6493 52.284 78.8613 51.496C77.5293 52.4707 76.4986 53.42 76.004 54.2933C74.48 56.984 80.0439 61.7054 83.4119 63.8294Z" fill="#4F3229"/>
<path d="M128.445 89.1533C125.747 87.948 123.057 86.6933 120.327 85.5653C120.231 85.5253 120.136 85.4867 120.04 85.448C121.204 85.388 122.179 85.3653 122.773 85.356C123.175 85.352 123.401 85.3494 123.401 85.3494C123.12 84.924 122.7 83.1974 122.148 82.6387C121.541 82.024 120.213 81.7373 119.357 81.4973C116.939 80.8053 114.191 80.2693 111.748 79.9293C111.388 80.7067 111.18 81.5373 111.039 82.3853C106.983 81.2587 102.849 80.4187 98.6466 79.7867C96.3506 79.4413 93.3027 79.1013 90.0373 78.7973C89.9893 77.952 89.8919 77.1254 89.6853 76.3454C87.9173 76.6227 85.9173 77.0893 84.1453 77.7187C83.7759 77.848 83.2866 77.9894 82.8506 78.2054C82.4973 78.18 82.1454 78.1547 81.7974 78.1307C81.9387 73.5347 82.4627 68.6627 83.9373 64.152C86.2107 65.516 89.624 67.14 92.0827 67.14C92.3707 67.14 92.6453 67.1174 92.9053 67.0694C96.5586 66.396 101.831 64.96 107.211 62.0787C110.953 62.5667 114.64 63.2387 118.521 63.9587C119.849 64.2053 121.115 64.4227 122.355 64.6947C123.487 74.1613 122.043 88.5173 128.213 88.5173C128.341 88.528 128.413 88.756 128.445 89.1533Z" fill="#EE8145"/>
<path d="M90.0373 78.7973C87.688 78.5773 85.2266 78.3774 82.8506 78.2054C83.2866 77.9894 83.7759 77.848 84.1452 77.7187C85.9172 77.0893 87.9172 76.6227 89.6852 76.3454C89.8919 77.1254 89.9893 77.952 90.0373 78.7973Z" fill="#5C3627"/>
<path d="M120.04 85.448C117.084 84.2413 114.083 83.232 111.039 82.3853C111.18 81.5373 111.388 80.7067 111.748 79.9293C114.191 80.2693 116.939 80.8053 119.357 81.4973C120.213 81.7373 121.541 82.024 122.148 82.6387C122.7 83.1973 123.12 84.924 123.401 85.3493C123.401 85.3493 123.175 85.352 122.773 85.356C122.179 85.3653 121.204 85.388 120.04 85.448Z" fill="#5C3627"/>
<path d="M128.771 84.0947C125.217 82.532 124.617 72.9667 123.527 64.9734C124.763 65.292 125.984 65.6947 127.229 66.268C127.336 66.3174 127.453 66.372 127.577 66.4267C128.972 73.8973 128.691 81.0507 128.771 84.0947Z" fill="#5C3627"/>
<path d="M81.7974 78.1307C80.6921 78.056 79.6187 77.9854 78.588 77.924C78.588 77.8734 78.588 77.8227 78.588 77.7734C78.588 77.4214 78.5946 77.0854 78.612 76.772C78.764 73.948 79.8134 67.2293 80.8641 62.0173C81.7547 62.72 82.6413 63.3427 83.412 63.8294C83.58 63.9347 83.7547 64.0427 83.9374 64.152C82.4627 68.6627 81.9387 73.5347 81.7974 78.1307Z" fill="#5C3627"/>
<path d="M129.036 89.4173C128.897 89.356 128.76 89.292 128.617 89.2307C128.56 89.2054 128.503 89.1787 128.445 89.1533C128.413 88.756 128.341 88.528 128.213 88.5173C122.043 88.5173 123.487 74.1614 122.355 64.6947C122.748 64.7814 123.137 64.8734 123.527 64.9734C124.617 72.9667 125.217 82.532 128.771 84.0947C128.783 84.5614 128.804 84.9307 128.84 85.1907C129.025 86.5293 129.069 87.96 129.036 89.4173ZM92.0826 67.14C89.624 67.14 86.2107 65.516 83.9373 64.152C83.7547 64.0427 83.5799 63.9347 83.4119 63.8294C82.6413 63.3427 81.7547 62.72 80.864 62.0173C80.9267 61.7093 80.9893 61.4054 81.0506 61.1094C82.6426 61.1307 84.1346 61.1547 84.8 61.1547C84.9333 61.1547 85.0333 61.1533 85.0933 61.152H85.104C86.4213 61.1027 87.7413 61.0814 89.0653 61.0814C92.5026 61.0814 95.9519 61.2227 99.3572 61.3747C102.053 61.4934 104.645 61.7427 107.211 62.0787C101.831 64.96 96.5586 66.396 92.9053 67.0694C92.6453 67.1174 92.3706 67.14 92.0826 67.14Z" fill="#4C2A1E"/>
<path d="M79.028 157.061C81.1613 160.231 84.2934 163.181 86.9307 166.055C88.1187 167.349 94.7107 173.7 94.3641 174.639L101.359 186.627C101.243 186.617 101.328 186.285 101.001 186.453C99.016 189.617 96.6306 192.665 94.7746 196.052C92.9666 199.355 92.3707 202.549 91.7267 206.143C87.4574 204.011 71.5853 177.036 79.028 157.061Z" fill="#0C83C4"/>
<path d="M78.1707 174.863C80.712 186.165 84.1294 191.509 90.4094 200.713C91.508 197.332 93.5933 194.64 95.944 192.504C96.5267 191.973 97.1253 191.479 97.7267 191.017C102.139 187.631 106.824 185.965 107.465 185.253C107.713 184.977 107.852 184.828 107.852 184.828C107.729 184.752 107.6 184.66 107.465 184.549C102.58 180.629 89.1586 155.255 89.2746 149.444C85.9706 152.144 77.5814 158.153 77.5814 158.153C77.5814 158.153 77.368 171.281 78.1707 174.863Z" fill="#26ACF7"/>
<path d="M110.307 185.843C110.307 185.843 111.943 173.661 112.06 172.453V172.447C112.735 165.547 112.976 158.297 113.223 154.805L113.248 154.471C116.552 157.171 121.333 166.608 121.333 166.608C121.333 166.608 126.104 186.124 123.388 197.725C118.743 187.227 110.307 185.843 110.307 185.843Z" fill="#0C83C4"/>
<path d="M107.103 184.828C107.103 184.828 107.232 184.977 107.465 185.253C108.008 185.895 111.595 185.527 115.403 187.121C118.041 188.231 120.785 190.28 122.688 194.269C125.475 182.685 120.261 158.833 120.261 158.833C120.261 158.833 115.884 153.575 112.579 150.873C112.569 150.981 112.78 150.364 112.555 151.209C111.652 154.591 112.065 161.951 111.392 168.851V168.857C111.275 170.064 111.143 171.263 110.993 172.425C110.28 178.087 109.192 182.972 107.465 184.549C107.349 184.66 107.225 184.752 107.103 184.828Z" fill="#26ACF7"/>
<path d="M70.26 59.2707C80.5373 60.4 95.952 60.484 105.417 64.9173C111.228 67.64 119.072 72.2253 124.861 77.572C127.388 79.9093 129.521 82.3893 130.924 84.9227L135.441 87.504C145.641 75.036 145.596 57.292 136.216 46.812C128.243 37.896 113.516 34.2334 92.6066 43.5467C87.408 45.86 72.48 53.804 70.26 59.2707Z" fill="#F45347"/>
<path d="M124.861 77.572C127.388 79.9093 129.521 82.3893 130.924 84.9227L135.441 87.504C145.641 75.036 145.596 57.292 136.216 46.812C136.732 51.2254 136.648 56.1947 135.603 60.2454C134.636 63.988 133.232 67.5467 131.091 70.7187C129.329 73.336 127.275 75.6947 124.861 77.572Z" fill="#D31111"/>
<path d="M59.8906 69.3053C62.7466 66.844 66.792 64.0787 70.2387 62.972C75.7627 61.2 81.4 64.4747 86.6147 66.5213C94.5907 69.648 135.441 87.504 135.441 87.504C133.025 84.8947 130.311 82.228 127.511 79.6253C118.347 71.112 108.259 63.3067 104.609 60.4707C94.7614 52.8173 87.8467 49.68 81.0094 48.944C75.7507 48.38 68.9827 54.1467 65.9053 58.3027C64.5627 60.116 63.752 61.8613 62.9773 63.5947C62.1267 65.4947 61.316 67.376 59.8906 69.3053Z" fill="#D31111"/>
<path d="M62.9773 63.5947C65.5293 61.668 68.5466 59.8254 71.2053 58.9734C76.7306 57.1987 82.3666 60.4773 87.5826 62.5227C93.188 64.7213 115.02 74.188 127.511 79.6254C118.347 71.112 108.259 63.3067 104.609 60.4707C94.7613 52.8174 87.8467 49.68 81.0093 48.944C75.7507 48.38 68.9826 54.1467 65.9053 58.3027C64.5626 60.116 63.752 61.8614 62.9773 63.5947Z" fill="#FF3939"/>
</svg>
