<svg width="209" height="209" viewBox="0 0 209 209" fill="none" xmlns="http://www.w3.org/2000/svg">
<path d="M192.573 160.453C188.227 167.337 183.2 173.537 177.627 179.007C176.08 180.537 174.493 182.02 172.867 183.435C172.387 183.84 171.92 184.244 171.453 184.639C171.093 184.937 170.72 185.236 170.36 185.533C170 185.823 169.653 186.112 169.293 186.391C167.44 187.873 165.533 189.279 163.6 190.608C163.293 190.82 162.973 191.031 162.653 191.235C161.733 191.86 160.8 192.467 159.853 193.053C159.48 193.295 159.107 193.525 158.733 193.756C157.827 194.305 156.92 194.844 156 195.364C155.76 195.499 155.533 195.624 155.307 195.759C154.987 195.932 154.667 196.105 154.347 196.279C153.947 196.5 153.533 196.721 153.093 196.933L152.96 197.001C150.987 198.04 148.96 199.023 146.893 199.928C146.667 200.033 146.427 200.139 146.187 200.247L145.92 200.361C145.573 200.516 145.227 200.659 144.88 200.804C144.067 201.14 143.253 201.469 142.44 201.787C142.147 201.892 141.853 202.008 141.56 202.113L141.413 202.171L141.24 202.239C140.973 202.355 140.68 202.451 140.4 202.556C140.213 202.624 140.04 202.692 139.84 202.757C139.72 202.805 139.587 202.855 139.453 202.903L139.133 203.019C138.533 203.231 137.933 203.432 137.333 203.635C136.493 203.904 135.653 204.173 134.813 204.424L134.787 204.433L134.48 204.529C134.227 204.607 133.973 204.675 133.72 204.751C133.04 204.944 132.373 205.137 131.68 205.319C131.48 205.377 131.28 205.425 131.08 205.473C130.64 205.588 130.187 205.704 129.747 205.82C129.613 205.849 129.467 205.888 129.333 205.917L129.027 205.993L128.747 206.061C128.227 206.187 127.707 206.301 127.2 206.427L127.12 206.445C126.907 206.493 126.693 206.541 126.467 206.581C125.92 206.705 125.373 206.821 124.827 206.927L124.76 206.937L124.467 206.995C123.627 207.159 122.773 207.312 121.947 207.447C120.427 207.707 118.893 207.928 117.373 208.112C117.027 208.16 116.693 208.197 116.36 208.237C115.773 208.304 115.2 208.361 114.613 208.411C114.24 208.448 113.88 208.487 113.507 208.516C112.88 208.584 112.253 208.621 111.627 208.66C111 208.717 110.373 208.748 109.747 208.765C108.747 208.833 107.747 208.853 106.747 208.872C106.533 208.881 106.333 208.892 106.12 208.881L105.973 208.892C105.747 208.901 105.52 208.901 105.28 208.892C105.067 208.901 104.84 208.911 104.613 208.911C104.173 208.911 103.72 208.901 103.28 208.892C102.373 208.881 101.48 208.861 100.573 208.813C98.9999 208.756 97.4266 208.66 95.8666 208.535C95.5733 208.507 95.28 208.487 94.9866 208.448C94.5866 208.411 94.1866 208.371 93.7866 208.323C91.7733 208.131 89.7732 207.861 87.7732 207.533C86.9999 207.399 86.2266 207.264 85.4533 207.12C85.2133 207.072 84.9599 207.024 84.7066 206.975C84.4932 206.937 84.2666 206.899 84.0533 206.86L83.7999 206.803C83.4266 206.725 83.0666 206.648 82.6666 206.561L82.3465 206.493C81.9065 206.397 81.4932 206.301 81.0399 206.195C79.4266 205.82 77.8133 205.407 76.2266 204.953C76.0533 204.905 75.9065 204.857 75.7465 204.819C74.2665 204.385 72.7866 203.923 71.32 203.423C70.8533 203.259 70.3866 203.095 69.92 202.931C69.64 202.836 69.3733 202.74 69.12 202.643C68.7333 202.508 68.3599 202.363 67.9732 202.219C66.8399 201.787 65.6932 201.333 64.5465 200.852L64.4933 200.823L64.2666 200.727L64.0533 200.64C63.64 200.476 63.2266 200.295 62.7999 200.101C62.6666 200.043 62.5332 199.985 62.4132 199.917C62.0932 199.773 61.7733 199.639 61.4666 199.484C61.1866 199.36 60.8932 199.235 60.6132 199.1C60.3865 199.004 60.1732 198.897 59.9466 198.801C59.4932 198.571 59.04 198.349 58.5867 198.128C58.2 197.935 57.8267 197.743 57.4533 197.549L57.2399 197.444C56.9599 197.308 56.6799 197.155 56.3999 197.001C56.2399 196.923 56.0932 196.847 55.9466 196.769L55.8266 196.701L55.6399 196.596C55.1866 196.365 54.7466 196.125 54.3066 195.884C54.0932 195.768 53.8932 195.652 53.6799 195.528L53.5333 195.441C52.9333 195.104 52.32 194.757 51.72 194.401C51.48 194.248 51.2133 194.103 50.96 193.939L50.9333 193.911L50.6799 193.765C50.5466 193.689 50.4266 193.612 50.3066 193.535C50.0666 193.391 49.8267 193.247 49.5867 193.101C49.44 193.005 49.2799 192.909 49.1333 192.812C48.9733 192.716 48.8133 192.611 48.6533 192.515C48.3333 192.312 48.0132 192.1 47.7066 191.899L47.5333 191.773L47.3867 191.677L47.2266 191.571L47.1466 191.513L47.1066 191.493C46.8266 191.32 46.5599 191.147 46.3066 190.945C45.9732 190.743 45.6533 190.521 45.3333 190.291L45.2666 190.243L45.1466 190.165C44.9999 190.059 44.8666 189.963 44.7333 189.867L44.5999 189.771L44.3466 189.597C44.1332 189.443 43.92 189.299 43.72 189.153L43.6533 189.096C42.84 188.519 42.0532 187.931 41.2799 187.324C40.7732 186.94 40.2666 186.555 39.7732 186.16C39.1732 185.679 38.5599 185.188 37.9732 184.696L37.6933 184.465C36.8666 183.781 36.0533 183.069 35.2666 182.337C34.6266 181.779 34 181.201 33.3867 180.615C32.4267 179.728 31.4933 178.833 30.5999 177.909C29.9333 177.253 29.3066 176.581 28.6666 175.907L28.6132 175.849C27.6532 174.828 26.7332 173.788 25.8399 172.729C25.6399 172.517 25.4533 172.296 25.2666 172.084C23.7066 170.225 22.1999 168.329 20.7732 166.375C19.9732 165.277 19.1999 164.169 18.4399 163.043C18.2932 162.851 18.1732 162.659 18.0399 162.467C17.8266 162.148 17.6133 161.82 17.3999 161.493L17.36 161.407C16.2 159.625 15.0933 157.805 14.0666 155.957C13.9333 155.755 13.8132 155.524 13.7066 155.293C12.9732 154.013 12.3066 152.703 11.6399 151.384C11.2132 150.508 10.7866 149.651 10.3732 148.775C8.95991 145.703 7.69325 142.584 6.57325 139.407C6.06658 137.933 5.57327 136.461 5.13327 134.959C5.09327 134.844 5.0533 134.728 5.02663 134.603C4.9333 134.295 4.83989 133.996 4.74655 133.679C4.50655 132.841 4.26666 131.993 4.05332 131.156C-2.94668 104.284 0.759913 74.688 16.7732 49.3667C47.4399 0.813352 111.667 -13.6666 160.213 17.008C208.773 47.6827 223.253 111.911 192.573 160.453Z" fill="#F7F2DA"/>
<path d="M81.9999 187.797C78.5732 193.053 74.9866 198.272 71.3199 203.423C70.8532 203.259 70.3866 203.095 69.9199 202.931C69.6399 202.836 69.3732 202.74 69.1199 202.643C68.7332 202.508 68.3598 202.363 67.9732 202.219C66.8398 201.787 65.6931 201.333 64.5465 200.852L64.4932 200.823L64.2665 200.727L64.0532 200.64C63.6399 200.476 63.2265 200.295 62.7999 200.101C62.6665 200.043 62.5331 199.985 62.4131 199.917C62.0931 199.773 61.7732 199.639 61.4665 199.484C61.1865 199.36 60.8931 199.235 60.6131 199.1C60.3865 199.004 60.1731 198.897 59.9465 198.801C59.4931 198.571 59.0399 198.349 58.5866 198.128C58.1999 197.935 57.8266 197.743 57.4532 197.549L57.2398 197.444C56.9598 197.308 56.6799 197.155 56.3999 197.001C56.2399 196.923 56.0931 196.847 55.9465 196.769L55.8265 196.701L55.6398 196.596C55.1865 196.365 54.7465 196.125 54.3065 195.884C54.0932 195.768 53.8931 195.652 53.6798 195.528L53.5332 195.441C52.9332 195.104 52.3199 194.757 51.7199 194.401C51.4799 194.248 51.2132 194.103 50.9599 193.939L50.9332 193.911L50.6798 193.765C50.5465 193.689 50.4265 193.612 50.3065 193.535C50.0665 193.391 49.8266 193.247 49.5866 193.101C49.4399 193.005 49.2799 192.909 49.1332 192.812C48.9732 192.716 48.8132 192.611 48.6532 192.515C48.3332 192.312 48.0132 192.1 47.7065 191.899L47.5332 191.773L47.3866 191.677L47.2265 191.571L47.1465 191.513L47.1065 191.493C46.8265 191.32 46.5598 191.147 46.3065 190.945C45.9732 190.743 45.6532 190.521 45.3332 190.291L45.2665 190.243L45.1465 190.165C44.9998 190.059 44.8665 189.963 44.7332 189.867L44.5999 189.771C49.1732 182.365 53.2132 176.244 56.1199 172.777C56.5332 172.296 57.6799 171.285 59.0532 170.12C61.5599 168.021 64.7599 165.431 65.5332 164.584L81.9999 187.797Z" fill="#686766"/>
<path d="M166.4 165.383C166.24 165.836 166.08 166.299 165.92 166.769C163.627 173.509 161.64 182.385 159.92 192.659C159.907 192.793 159.88 192.919 159.853 193.053C159.48 193.295 159.107 193.525 158.733 193.756C157.827 194.305 156.92 194.844 156 195.364C155.76 195.499 155.533 195.624 155.307 195.759C154.987 195.932 154.667 196.105 154.347 196.279C153.947 196.5 153.533 196.721 153.093 196.933L152.96 197.001C150.987 198.04 148.96 199.023 146.893 199.928C146.667 200.033 146.427 200.139 146.187 200.247L145.92 200.361C145.573 200.516 145.227 200.659 144.88 200.804C144.067 201.14 143.253 201.469 142.44 201.787C142.147 201.892 141.853 202.008 141.56 202.113L141.413 202.171L141.24 202.239C140.973 202.355 140.68 202.451 140.4 202.556C140.213 202.624 140.04 202.692 139.84 202.757C139.72 202.805 139.587 202.855 139.453 202.903L139.133 203.019C138.533 203.231 137.933 203.432 137.333 203.635C136.493 203.904 135.653 204.173 134.813 204.424L134.787 204.433L134.48 204.529C134.227 204.607 133.973 204.675 133.72 204.751C133.04 204.944 132.373 205.137 131.68 205.319C131.48 205.377 131.28 205.425 131.08 205.473C130.64 205.588 130.187 205.704 129.747 205.82C129.613 205.849 129.467 205.888 129.333 205.917L129.027 205.993L128.747 206.061C128.227 206.187 127.707 206.301 127.2 206.427L127.12 206.445C126.907 206.493 126.693 206.541 126.467 206.581C125.92 206.705 125.373 206.821 124.827 206.927L124.76 206.937L124.467 206.995C123.627 207.159 122.773 207.312 121.947 207.447C120.427 207.707 118.893 207.928 117.373 208.112C117.027 208.16 116.693 208.197 116.36 208.237C115.773 208.304 115.2 208.361 114.613 208.411C114.24 208.448 113.88 208.487 113.507 208.516C112.88 208.584 112.253 208.621 111.627 208.66C111 208.717 110.373 208.748 109.747 208.765C108.747 208.833 107.747 208.853 106.747 208.872C106.533 208.881 106.333 208.892 106.12 208.881L105.973 208.892C105.747 208.901 105.52 208.901 105.28 208.892C105.067 208.901 104.84 208.911 104.613 208.911C104.173 208.911 103.72 208.901 103.28 208.892C102.373 208.881 101.48 208.861 100.573 208.813C99 208.756 97.4267 208.66 95.8667 208.535C95.5734 208.507 95.2801 208.487 94.9867 208.448C94.5867 208.411 94.1867 208.371 93.7867 208.323C91.7734 208.131 89.7733 207.861 87.7733 207.533C87 207.399 86.2267 207.264 85.4534 207.12C85.2134 207.072 84.96 207.024 84.7067 206.975C84.4933 206.937 84.2667 206.899 84.0534 206.86L83.8 206.803C83.4267 206.725 83.0667 206.648 82.6667 206.561L82.3466 206.493C81.9066 206.397 81.4933 206.301 81.04 206.195C79.4267 205.82 77.8134 205.407 76.2267 204.953C76.0534 204.905 75.9066 204.857 75.7466 204.819C74.2666 204.385 72.7867 203.923 71.3201 203.423C70.8534 203.259 70.3867 203.095 69.9201 202.931C69.6401 202.836 69.3734 202.74 69.1201 202.643C68.7334 202.508 68.36 202.363 67.9733 202.219C66.84 201.787 65.6933 201.333 64.5466 200.852L64.4934 200.823L64.2667 200.727L64.0534 200.64C63.6401 200.476 63.2267 200.295 62.8 200.101C62.6667 200.043 62.5333 199.985 62.4133 199.917C62.0933 199.773 61.7734 199.639 61.4667 199.484C61.1867 199.36 60.8933 199.235 60.6133 199.1C60.3866 199.004 60.1733 198.897 59.9466 198.801C59.4933 198.571 59.0401 198.349 58.5867 198.128C58.2001 197.935 57.8267 197.743 57.4534 197.549L57.24 197.444C56.96 197.308 56.68 197.155 56.4 197.001C56.64 186.853 57.44 177.745 58.6133 171.612C58.72 171.121 58.8667 170.621 59.0534 170.12C61.5734 163.592 72.4 156.632 87.4667 152.751C89.9334 152.116 92.52 151.557 95.2 151.105C96.08 150.961 96.9601 150.816 97.8534 150.691C98.9734 150.536 100.107 150.392 101.253 150.267C101.907 150.199 102.56 150.133 103.227 150.075C107.507 149.699 111.973 149.584 116.547 149.767C117.44 149.805 118.333 149.853 119.227 149.912C120.907 150.027 122.573 150.181 124.267 150.383C124.653 150.421 125.04 150.469 125.413 150.517C125.8 150.565 126.187 150.613 126.573 150.681C139.72 152.501 153.44 157.027 166.4 165.383Z" fill="#5E5D5B"/>
<path d="M159.92 192.659C159.907 192.793 159.88 192.919 159.853 193.053C159.48 193.295 159.107 193.525 158.733 193.756C157.827 194.305 156.92 194.844 156 195.364C155.76 195.499 155.533 195.624 155.307 195.759C156.547 192.919 157.92 190.483 159.4 189.096L159.92 192.659Z" fill="#424140"/>
<path d="M95.2 151.309L114.987 151.04C120.84 149.547 122.547 148.333 126.547 152.18C141.347 166.427 100.987 190.745 92.3333 190.961C77.2 191.343 82.4666 158.368 95.2 151.309Z" fill="#424140"/>
<path d="M95.1999 151.309L115.787 146.56C121.627 145.064 127.907 151.265 127.827 156.809C127.68 167.639 105.28 183.635 96.6266 183.852C81.4933 184.233 89.4666 158.076 95.1999 151.309Z" fill="#FBA479"/>
<path d="M97.72 120.363L94.76 156.687L126.547 152.18C126.547 152.18 127.08 130.588 125.893 111.136C125.44 103.685 97.72 120.363 97.72 120.363Z" fill="#FBA479"/>
<path d="M97.1201 127.848L95.3867 149.076C107.987 154.861 120.773 138.332 124.133 132.756C128.133 126.121 126.413 119.297 126.413 119.297L104.32 124.651L97.1201 127.848Z" fill="#EF7950"/>
<path d="M133.733 114.148C133.56 96.3334 138.467 79.1627 130.613 63.9253C128.093 59.0573 115.013 52.5707 112.493 51.596C110.92 50.9893 109.267 50.5254 107.6 50.216C105.893 50.1454 104.2 50.2293 102.52 50.472C99.8534 50.86 90.4934 56.6213 87.3867 59.808C81.16 66.2187 80.7866 72.908 78.3066 89.524C77.56 94.588 76.6133 100.575 75.24 107.756C73.1466 118.737 77.72 127.653 84.2 136.141C87.56 140.525 85.7867 144.576 92.52 145.304C107.307 146.216 117.107 137.215 123.293 131.272C128.84 125.948 133.813 121.411 133.733 114.148Z" fill="#FBA479"/>
<path d="M106.213 134.585C102.48 134.768 96.8401 135.447 94.3867 138.291L94.6 134.668C98.1333 133.491 102.467 134.361 106.213 134.585Z" fill="#EF7950"/>
<path d="M124.773 72.0347C129.2 73.076 133.907 73.1573 136.027 71.728C138.467 57.4427 128.173 48.8587 110.227 49.276C106.16 49.3694 46.4267 49.82 77.5334 72.6094C85.1334 78.1747 100.093 70.0054 107.96 66.2494C110.84 64.872 112.613 63.624 115.08 64.264C117.973 64.4534 123.067 69.4827 124.773 72.0347Z" fill="#261411"/>
<path d="M112.96 117.571C111.133 122.027 103.133 132.164 95.9466 132.835C90.4 133.351 82.4134 125.288 79.7867 122.456C81.9734 122.455 85.88 122.12 87.8133 121.939C89.9866 121.739 107.507 120.04 112.96 117.571Z" fill="#873421"/>
<path d="M107.587 123.78C107.147 124.953 106.493 126.22 105.68 127.215C105.467 127.48 105.253 127.751 105.04 128.028C104.52 128.703 103.987 129.4 103.413 130.053C101.053 131.844 98.4933 133.132 96 133.363C93.6533 133.583 90.9333 132.379 88.3466 130.68L88.1466 130.303C87.8533 130.056 87.6133 129.763 87.4 129.439C86.8533 128.608 86.52 127.592 86.0667 126.747C87.3867 126.648 106.653 123.865 107.587 123.78Z" fill="white"/>
<path d="M110.373 117.913C109.747 120.229 108.96 123.051 107.52 124.159C107.187 124.409 105.32 124.885 102.8 125.38C97.1466 126.495 88.2533 127.72 86.3733 126.735C84.9333 125.969 83.5467 124.101 82.4533 122.261C82.3733 122.121 82.28 121.983 82.2 121.84C82.4266 121.825 82.6533 121.815 82.8933 121.797C83.7333 121.745 84.6666 121.676 85.6799 121.591C93.1466 120.976 104.533 119.571 110.373 117.913Z" fill="white"/>
<path d="M107.52 124.159C106.32 124.752 88.2533 127.72 86.3733 126.735C84.9333 125.969 83.5467 124.101 82.4534 122.261L82.8933 121.797C83.7333 121.745 84.6666 121.676 85.6799 121.591C86.0399 122.783 86.56 124.008 87.1066 125.032C87.4 125.579 87.3467 125.584 87.8534 125.755C88.6 126.016 105.4 124.331 107.52 124.159Z" fill="#E8E6E6"/>
<path d="M112.88 117.745V117.763L112.787 117.975L112.72 118.12L112.693 118.159L112.68 118.177L112.667 118.236L112.547 118.467L112.52 118.505V118.515C112.427 118.688 112.333 118.88 112.227 119.064L112.04 119.4L111.867 119.708C111.787 119.833 111.707 119.969 111.627 120.103C111.52 120.276 111.4 120.46 111.28 120.652L111.253 120.681C111.107 120.903 110.947 121.143 110.787 121.383L110.747 121.441L110.6 121.653L110.547 121.74L110.293 122.077L110.2 122.201C110.12 122.337 110.013 122.472 109.907 122.607C109.827 122.721 109.72 122.847 109.627 122.972L109.453 123.195L109.373 123.319L109.267 123.453L109 123.771C108.88 123.925 108.747 124.088 108.613 124.244L108.547 124.34L108.48 124.407L108.427 124.473C108.293 124.639 108.147 124.792 108 124.956L107.973 124.993C107.8 125.196 107.627 125.389 107.44 125.591V125.6L107.36 125.677L107.093 125.967L106.813 126.264L106.533 126.553L106.467 126.621L106.373 126.717L106.24 126.843L105.907 127.18L105.867 127.208L105.653 127.42L105.333 127.719L105.253 127.787L105.16 127.883L105.147 127.892V127.901L104.973 128.056L104.827 128.181L104.747 128.249L104.68 128.305L104.44 128.519L104.4 128.547C104.213 128.72 104 128.884 103.813 129.047L103.507 129.288L103.347 129.413L103 129.673C102.667 129.923 102.333 130.164 102 130.396C101.827 130.511 101.653 130.627 101.48 130.732L101.453 130.743C101.307 130.839 101.16 130.935 101 131.021C100.84 131.117 100.68 131.213 100.52 131.301C100.36 131.387 100.2 131.473 100.04 131.551C99.8933 131.628 99.7466 131.695 99.5999 131.761L99.5333 131.801C99.3733 131.868 99.2266 131.936 99.0666 132.003C98.9066 132.071 98.7599 132.139 98.5999 132.195C98.4533 132.244 98.32 132.292 98.1867 132.34L98.0933 132.368L97.9733 132.408C97.7199 132.493 97.4532 132.561 97.2132 132.62L97.0132 132.668L96.8266 132.705L96.7466 132.715L96.72 132.725H96.7066L96.56 132.753L96.4533 132.773L96.2132 132.803L95.9466 132.831L95.6933 132.851C95.5733 132.86 95.44 132.86 95.32 132.851L95.0533 132.841L94.8933 132.831L94.7867 132.821H94.7466L94.4399 132.783L94.3733 132.763C94.2133 132.745 94.0533 132.715 93.9066 132.687C93.7733 132.657 93.6399 132.629 93.5066 132.589L93.2799 132.513L93.1333 132.475H93.12C92.9867 132.436 92.8533 132.388 92.72 132.34L92.6266 132.311L92.3466 132.205C92.1866 132.147 92.0266 132.081 91.8666 132.013L91.5867 131.888C91.4667 131.829 91.32 131.772 91.1867 131.704L91.0266 131.628C90.8666 131.54 90.6933 131.455 90.52 131.359C90.4 131.301 90.28 131.233 90.16 131.165L89.8666 130.992L89.6799 130.887L89.6266 130.848L89.5867 130.839L89.3867 130.713L89.2132 130.607C89.0532 130.501 88.8933 130.405 88.72 130.289L88.6933 130.269C88.52 130.164 88.3732 130.059 88.2132 129.943L88.1333 129.895L88.0533 129.837C87.8133 129.673 87.5733 129.5 87.3333 129.327V129.316H87.32L87.0533 129.115L86.96 129.047L86.7466 128.884L86.4933 128.681H86.4799L86.2 128.46L86.1867 128.44L85.8933 128.219C85.7466 128.093 85.6133 127.979 85.4666 127.853C85.3333 127.757 85.1999 127.641 85.0799 127.536L84.8533 127.344C84.72 127.237 84.6 127.132 84.4666 127.016C84.3466 126.911 84.2266 126.795 84.0933 126.689C83.8533 126.468 83.5999 126.255 83.3733 126.033L83.0399 125.716L82.8666 125.563L82.8132 125.504L82.6933 125.408L82.5333 125.253L82.2666 124.993C82.0933 124.831 81.9333 124.667 81.76 124.503C81.52 124.261 81.2933 124.031 81.0666 123.8C80.9333 123.656 80.7867 123.512 80.6533 123.376L80.3466 123.049L80.1066 122.799L80.0933 122.78L80.0533 122.741L79.9066 122.596L79.8799 122.559L79.7867 122.463V122.452H79.9733C80.1199 122.452 80.28 122.449 80.4533 122.445L80.6799 122.443L80.9333 122.433C81.12 122.423 81.32 122.415 81.5333 122.404L81.7466 122.395L81.96 122.385L82.2266 122.375L82.5066 122.356L82.7733 122.337L82.8799 122.327H82.9333L83.3333 122.299C83.6266 122.279 83.9199 122.259 84.2132 122.241C84.3866 122.231 84.56 122.212 84.7333 122.201C84.92 122.183 85.0933 122.173 85.2666 122.163V122.153L85.4533 122.144L85.7867 122.115H85.8533L86.0533 122.096L86.12 122.085C86.2667 122.077 86.3999 122.068 86.5466 122.048C86.7866 122.028 87.0133 122.009 87.2266 121.989C87.4266 121.972 87.6133 121.961 87.7867 121.941H87.8266L87.96 121.923L88.0666 121.913H88.16L88.2132 121.904H88.2266L88.3066 121.893C88.4133 121.884 88.5199 121.875 88.6399 121.864C88.8933 121.836 89.2133 121.797 89.56 121.768L89.8 121.74H89.8533C89.9733 121.72 90.0932 121.711 90.2132 121.701C90.4132 121.683 90.6 121.663 90.8 121.635C90.92 121.624 91.04 121.615 91.16 121.595C91.32 121.576 91.4933 121.557 91.6666 121.537L91.7733 121.528H91.7867L91.8533 121.519H91.9333L92.2799 121.479L92.5733 121.441L92.8132 121.413C92.9866 121.393 93.16 121.373 93.3333 121.355H93.3466C93.5466 121.336 93.7333 121.305 93.9333 121.288C94.1866 121.257 94.4399 121.22 94.7066 121.192L94.8799 121.172H94.8933L95.0266 121.152L95.0799 121.143L95.4132 121.104C95.6532 121.076 95.8933 121.047 96.1333 121.019L96.2266 120.999L96.2933 120.988C96.44 120.971 96.5733 120.96 96.72 120.94C96.8667 120.921 97.0266 120.903 97.1733 120.873C97.3466 120.855 97.5199 120.835 97.6799 120.805C97.8399 120.796 97.9999 120.767 98.1466 120.749C98.3866 120.719 98.6133 120.681 98.8533 120.652L99.1066 120.613L99.16 120.604C99.4266 120.565 99.7066 120.527 99.9733 120.488C100.2 120.46 100.44 120.42 100.667 120.383C100.787 120.372 100.92 120.353 101.053 120.324L101.173 120.305L101.48 120.267C101.72 120.228 101.947 120.191 102.187 120.151L102.373 120.123L102.52 120.093L102.68 120.065C102.84 120.045 103.013 120.017 103.173 119.987C103.347 119.959 103.507 119.929 103.667 119.901H103.68C103.813 119.881 103.96 119.853 104.107 119.824L104.173 119.813C104.587 119.747 104.973 119.669 105.373 119.592L105.44 119.584L105.547 119.564C105.68 119.544 105.8 119.516 105.947 119.487L106.107 119.459L106.213 119.439L106.307 119.419L106.56 119.361C106.707 119.343 106.84 119.313 106.987 119.285L107.04 119.275C107.44 119.179 107.813 119.101 108.187 119.016C108.333 118.985 108.467 118.957 108.6 118.919C108.76 118.88 108.92 118.841 109.093 118.804L109.293 118.755C109.587 118.679 109.867 118.611 110.133 118.533L110.2 118.515C110.373 118.467 110.533 118.417 110.693 118.38C110.84 118.332 111 118.284 111.147 118.245L111.213 118.216L111.387 118.159C111.56 118.1 111.72 118.052 111.867 117.995C112.027 117.947 112.173 117.888 112.32 117.831L112.493 117.763L112.813 117.629H112.827L112.853 117.609L112.907 117.589L112.947 117.571L112.933 117.629L112.92 117.657L112.88 117.745ZM113.36 116.772C113.013 116.973 112.573 117.176 112.04 117.379C111.56 117.561 111 117.735 110.387 117.917H110.373C110.2 117.967 110.027 118.013 109.827 118.063C109.653 118.111 109.467 118.159 109.267 118.205C109.16 118.236 109.027 118.264 108.907 118.293L108.587 118.369L108.533 118.389L108.253 118.457L108.16 118.476L108.053 118.495L107.947 118.515L107.867 118.533L107.72 118.572L107.493 118.62L107.267 118.668L107.093 118.707C106.947 118.736 106.813 118.764 106.667 118.795L106.56 118.812L106.213 118.889L106.093 118.909L105.84 118.957L105.627 119.005L105.373 119.044C105.253 119.073 105.12 119.101 105 119.121L104.667 119.179L104.613 119.189L104.493 119.207L104.36 119.237L104.24 119.255L104.147 119.275L104.053 119.285L104.04 119.295L103.947 119.313L103.853 119.323L103.8 119.333L103.467 119.391L103.133 119.448L102.92 119.487L102.653 119.525C102.44 119.564 102.227 119.603 102 119.64H101.96L101.707 119.68L101.693 119.689L101.547 119.708C101.387 119.737 101.227 119.756 101.053 119.785L100.747 119.833C100.6 119.853 100.467 119.881 100.32 119.901C100.133 119.929 99.9466 119.949 99.7733 119.977C99.5066 120.017 99.24 120.055 98.9867 120.093L98.6399 120.141C98.4533 120.161 98.2799 120.191 98.1066 120.219L97.9333 120.239L97.7867 120.256C97.6267 120.287 97.4532 120.305 97.2799 120.324L96.9733 120.372C96.7066 120.412 96.4399 120.44 96.1733 120.479L95.8799 120.517L95.6933 120.536L95.6 120.545C95.3333 120.584 95.0667 120.613 94.7867 120.652L94.6 120.671C94.3333 120.7 94.0666 120.739 93.8 120.767L93.5066 120.805L93.2799 120.835C93.0799 120.855 92.8799 120.873 92.7066 120.892C92.5333 120.912 92.3999 120.931 92.2399 120.951C92.1066 120.971 91.9733 120.979 91.8399 120.999C91.7066 121.008 91.5867 121.028 91.4533 121.036C91.0933 121.076 90.7466 121.113 90.4 121.152L90.2266 121.161L90.2 121.172C90 121.192 89.8133 121.209 89.6266 121.229L89.5333 121.24L89.4533 121.249C89.3067 121.257 89.1599 121.277 89.0132 121.288C88.8666 121.297 88.7466 121.316 88.6132 121.325C88.3599 121.355 88.1067 121.383 87.8533 121.403C87.4267 121.441 86.9999 121.479 86.5733 121.519C86.2666 121.547 85.9732 121.567 85.6799 121.595C85.5466 121.605 85.4266 121.615 85.2933 121.624C85.0933 121.643 84.88 121.663 84.6666 121.672L84.5066 121.683L84.1333 121.711L83.8799 121.731L83.5333 121.759L83.1867 121.779L82.8933 121.797C82.7733 121.807 82.6533 121.816 82.5333 121.816H82.52L82.2132 121.845C81.1866 121.893 80.3333 121.932 79.7066 121.932C79.0666 121.932 78.6533 121.893 78.5066 121.836C78.5066 121.836 79.72 123.26 81.6266 125.109C81.8533 125.341 82.1066 125.572 82.3466 125.812C82.4932 125.947 82.6266 126.083 82.7733 126.216C84.3866 127.719 86.3332 129.356 88.3466 130.684L88.6132 130.848C88.7866 130.953 88.9467 131.06 89.12 131.165L89.32 131.291C89.4933 131.397 89.6532 131.483 89.8132 131.58L89.8799 131.608C89.9999 131.685 90.1466 131.752 90.2666 131.82C90.3866 131.897 90.5333 131.965 90.6533 132.023C90.8533 132.129 91.0533 132.224 91.2666 132.32C91.4133 132.388 91.56 132.456 91.72 132.524C92.1067 132.687 92.4933 132.831 92.8666 132.956C93.1333 133.033 93.4132 133.111 93.6799 133.177C93.8932 133.225 94.12 133.273 94.3333 133.304C94.5066 133.332 94.6666 133.352 94.8399 133.361C95.0266 133.38 95.2 133.389 95.3867 133.389C95.5867 133.389 95.7866 133.38 96 133.361C96.2133 133.341 96.44 133.312 96.6666 133.273L96.8933 133.236C97.0266 133.207 97.1599 133.188 97.3066 133.148C97.4399 133.12 97.5866 133.083 97.7333 133.043C97.8533 133.004 97.9866 132.967 98.1066 132.927H98.1333L98.3466 132.851L98.5466 132.783L98.5867 132.773C98.7067 132.725 98.84 132.677 98.96 132.629L99.2933 132.504C99.44 132.436 99.5999 132.36 99.7466 132.292L99.8666 132.244L100.187 132.089C100.347 132.003 100.52 131.917 100.68 131.82C101 131.656 101.307 131.473 101.613 131.291L101.627 131.281C101.76 131.195 101.907 131.108 102.053 131.021L102.08 131.001C102.227 130.896 102.373 130.8 102.507 130.703L102.52 130.695C102.653 130.617 102.76 130.529 102.893 130.444C103.067 130.317 103.24 130.184 103.413 130.048C103.8 129.769 104.173 129.472 104.533 129.153C106.653 127.391 108.573 125.273 110.12 123.243C110.56 122.664 110.96 122.096 111.333 121.547C111.56 121.209 111.76 120.892 111.973 120.575C112.133 120.296 112.293 120.017 112.453 119.747C112.8 119.169 113.08 118.611 113.293 118.111L113.427 117.821C113.56 117.504 113.653 117.204 113.733 116.945C113.787 116.744 113.827 116.569 113.84 116.407C113.72 116.531 113.56 116.647 113.36 116.772Z" fill="#E26939"/>
<path d="M135.867 99.5227L133.6 94.6334C131.613 94.7934 129.587 95.5934 127.48 95.736C124.747 119.703 109.52 136.901 99.7999 139.117C99.1599 137.403 97.4933 136.244 97.4266 134.363C94.88 134.495 95.9199 137.768 94.3466 138.584C92.9199 139.327 78.5333 129.071 75.92 122.663C75.3467 125.497 82.5733 145.477 84.2533 148.315C86.9867 152.951 91.1999 156.589 94.6399 160.711C94.8266 160.021 95.3866 159.492 95.5333 158.799C96.7733 159.637 98.32 162.84 99.16 164.32C103.413 162.159 107.12 158.719 109.453 154.595C109.787 155.513 110.347 156.348 110.707 157.245C123.84 141.096 137.053 121.183 135.867 99.5227Z" fill="#261411"/>
<path d="M92.2534 116.993L85.2667 116.735C80.72 119.303 74.96 123.347 70.4 126.581C73.9067 126.709 89.76 123.721 93.4 122.649C93.4134 120.863 93.0001 118.564 92.2534 116.993Z" fill="#261411"/>
<path d="M94.44 116.639L101.04 114.331C106.147 115.443 112.84 117.608 118.16 119.351C114.84 120.511 98.8134 122.332 95.0267 122.383C94.48 120.681 94.2 118.361 94.44 116.639Z" fill="#261411"/>
<path d="M97.3999 115.603C95.2666 114.251 89.7866 115.284 88.2399 114.136C87.0266 113.223 91.7199 94.1667 85.1066 87.1973C89.2666 95.9693 85.3732 111.287 82.9465 116.803C87.7599 118.187 93.5333 117.293 97.3999 115.603Z" fill="#EF7950"/>
<path d="M97.6399 88.6827C96.2399 91.0827 98.8133 97.3013 99.4933 99.4173L102.52 100.176C101.973 98.6614 99.6267 93.9133 102.387 88.8547C103.787 86.3027 107.32 84.6427 107.893 84.18C106.933 84.6267 98.6266 86.9734 97.6399 88.6827Z" fill="#EF7950"/>
<path d="M116.813 97.0587L116.787 97.124C116.373 97.98 115.507 98.6787 114.347 99.224C112.44 100.116 109.773 100.587 107.16 100.681C104.053 100.789 101.04 100.345 99.4933 99.4173L99.7465 99.1933L99.7999 99.1373C100.013 98.9493 100.187 98.7547 100.36 98.5573L100.373 98.5307C102.76 95.6867 101.773 92.1253 105.813 91.7693C106.307 91.7293 106.773 91.7133 107.253 91.724C109.947 91.764 112.4 92.6027 114.24 93.984C115.36 94.8267 116.24 95.8627 116.813 97.0454V97.0587Z" fill="white"/>
<path d="M102.827 95.772C102.347 98.5774 103.88 101.248 106.24 101.736C108.6 102.227 110.907 100.351 111.387 97.5481C111.867 94.7441 110.333 92.0707 107.96 91.584C105.6 91.0947 103.293 92.9694 102.827 95.772Z" fill="#6D4A44"/>
<path d="M103.373 95.5014C103.067 97.3014 104.053 99.0147 105.573 99.3294C107.08 99.6427 108.573 98.44 108.88 96.64C109.173 94.8414 108.2 93.128 106.68 92.812C105.16 92.4987 103.68 93.704 103.373 95.5014Z" fill="#261411"/>
<path d="M107.987 95.5733L113.4 95.6987C113.4 95.6987 113.706 98.1187 112.946 98.3373C111.653 98.704 107.987 95.5733 107.987 95.5733Z" fill="white"/>
<path d="M116.813 97.0587C116.24 95.8773 115.307 95.304 114.187 94.4627C112.347 93.08 109.893 92.24 107.2 92.2C106.72 92.1894 106.733 92.1667 106.253 92.2067C102.52 92.5347 102.32 96.532 100.187 98.736C101.827 96.5774 101.427 92.8494 102.053 90.5347C102.467 89.604 103.147 88.9707 104.36 88.864C104.84 88.824 105.32 88.8067 105.787 88.8173C108.493 88.8587 110.933 89.6974 112.773 91.08C113.907 91.924 114.52 92.4747 115.107 93.664C115.107 93.68 116.773 96.9387 116.813 97.0587Z" fill="#6D4A44"/>
<path d="M116.813 97.0454C116.587 96.5707 116.307 96.1227 115.973 95.7C115.493 95.064 114.907 94.4893 114.24 93.984C112.4 92.6027 109.947 91.764 107.253 91.724C106.773 91.7133 106.307 91.7294 105.813 91.7694C101.787 92.1254 102.467 96.0133 100.093 98.8547C101.72 96.6947 101.427 92.8494 102.053 90.5347C102.36 89.352 103 88.5107 104.413 88.3867C104.893 88.348 105.373 88.3294 105.84 88.34C108.547 88.3814 110.987 89.22 112.827 90.6014C113.947 91.448 114.573 91.9973 115.16 93.1867C115.147 93.216 116.72 96.792 116.813 97.0454Z" fill="#EF7950"/>
<path d="M116.813 97.0494C116.813 97.0534 116.227 99.0974 114.253 100.133C112.387 101.107 109.68 101.495 107.067 101.589C103.96 101.697 101.04 100.336 99.4933 99.4067C101.04 100.336 104.067 100.779 107.173 100.673C109.773 100.576 112.44 100.107 114.347 99.2134C115.507 98.6694 116.387 97.9707 116.787 97.1134L116.813 97.0494Z" fill="#EF7950"/>
<path d="M99.8667 100.883L101.84 103.02C105.8 104.823 109.507 103.165 112.133 102.645C108.373 103.392 102.813 102.615 99.8667 100.883Z" fill="#EF7950"/>
<path d="M86.4533 99.9587C86.4533 99.9587 85.2133 102.805 84.4266 103.357C83.6266 103.915 82.7599 103.845 81.8799 104.117C83.1865 104.132 84.4267 104.169 85.6533 103.604C85.9867 103.449 87.1199 103.048 87.2799 102.657C87.4665 102.22 86.5467 100.373 86.4533 99.9587Z" fill="#EF7950"/>
<path d="M76.0266 99.3067L76.0533 99.368C76.3733 100.181 76.96 100.809 77.72 101.269C78.96 102.021 80.6265 102.311 82.2132 102.239C84.1065 102.144 85.9199 101.517 86.7732 100.508L86.5999 100.305L86.5465 100.255C86.4132 100.084 86.2799 99.9053 86.1599 99.724L86.1465 99.6974C84.4399 97.0627 84.7199 93.5107 82.2399 93.42C81.9332 93.4133 81.6533 93.4267 81.3599 93.4694C79.7199 93.6787 78.3066 94.6587 77.32 96.1294C76.7066 97.0254 76.2666 98.0987 76.0266 99.292V99.3067Z" fill="white"/>
<path d="M78.2933 98.0533C78.24 100.88 79.3866 103.249 80.8399 103.341C82.2932 103.435 83.5199 101.217 83.5732 98.3907C83.6132 95.5627 82.4799 93.1933 81.0132 93.1027C79.5599 93.0093 78.3333 95.2253 78.2933 98.0533Z" fill="#6D4A44"/>
<path d="M80.0133 98.408C79.9733 100.223 80.7066 101.743 81.64 101.803C82.5866 101.861 83.36 100.441 83.4 98.624C83.4267 96.8093 82.6934 95.2907 81.76 95.2307C80.8267 95.1707 80.0399 96.596 80.0133 98.408Z" fill="#261411"/>
<path d="M82.2666 97.076L83.5066 97.0333C83.5066 97.0333 84.56 99.468 84.12 99.808C83.3867 100.377 82.2666 97.076 82.2666 97.076Z" fill="white"/>
<path d="M76.0266 99.3067C76.2666 98.112 76.7866 97.4893 77.3866 96.5947C78.3866 95.1227 79.7999 94.1427 81.4399 93.932C81.7199 93.8907 81.7065 93.8693 82.0132 93.8773C84.3065 93.96 84.7865 97.864 86.2799 99.8867C85.0932 97.876 84.9999 94.1987 84.4132 91.972C84.0799 91.0867 83.6133 90.5094 82.8666 90.4814C82.5599 90.4747 82.28 90.488 81.9866 90.528C80.3466 90.7413 78.9332 91.7187 77.9465 93.1907C77.3332 94.0907 76.9999 94.6693 76.7599 95.8693C76.7599 95.888 76.0399 99.1853 76.0266 99.3067Z" fill="#6D4A44"/>
<path d="M76.0266 99.292C76.1199 98.8133 76.2532 98.356 76.4132 97.92C76.6532 97.2693 76.96 96.6667 77.32 96.1293C78.3066 94.6587 79.7199 93.6787 81.3599 93.4694C81.6533 93.4267 81.9332 93.4133 82.2399 93.42C84.7199 93.512 85.1466 99.0347 86.7732 100.508C86.0932 98.0214 84.9999 94.1987 84.4132 91.972C84.1199 90.8334 83.6533 90.048 82.7866 90.0173C82.4933 90.0093 82.2 90.024 81.92 90.064C80.28 90.276 78.8666 91.2547 77.8666 92.7253C77.2666 93.6267 76.9332 94.2054 76.6799 95.4067C76.6932 95.436 76.0533 99.0387 76.0266 99.292Z" fill="#EF7950"/>
<path d="M76.0266 99.2973C76.0266 99.3 76.8799 101.777 78.1732 102.665C79.3999 103.501 80.7066 103.613 82.3066 103.541C84.1999 103.447 85.9066 101.508 86.7732 100.499C85.9066 101.508 84.1065 102.135 82.2132 102.228C80.6132 102.301 78.96 102.012 77.72 101.259C76.96 100.801 76.3732 100.172 76.0399 99.3587L76.0266 99.2973Z" fill="#EF7950"/>
<path d="M97.3866 82.8347C98.0933 82.6534 99.4266 82.3947 99.4266 82.3947L101.667 84.552C101.667 84.552 101.32 82.2734 101.707 82.2334C112.04 81.1507 116.307 85.5134 116.307 85.5134C102.267 84.1107 100.226 89.8467 96.6798 89.4014C93.9732 89.06 94.6799 84.1974 97.3866 82.8347Z" fill="#261411"/>
<path d="M84.6666 84.884C83.9466 84.7387 82.6 84.5507 82.6 84.5507L80.4799 86.8213C80.4799 86.8213 80.7067 84.528 80.32 84.508C74.1467 84.2134 72.52 89.768 72.52 89.768C86.48 87.636 82.2 92.0347 85.72 91.4054C88.4 90.924 87.44 86.104 84.6666 84.884Z" fill="#261411"/>
<path d="M131.933 90.232C134.48 87.4467 141.253 88.216 143.28 91.364C145.547 94.864 137.24 109.143 133.813 108.441C125.853 106.809 131.933 90.232 131.933 90.232Z" fill="#FBA479"/>
<path d="M131.067 98.4947C131.173 97.32 131.32 96.0053 131.6 94.8573C131.76 94.2413 132.04 93.6027 132.267 93.024C132.387 92.7067 132.56 92.3133 132.72 92.112C134.187 90.2187 136.64 90.66 138.4 90.8373C139.133 90.908 140.387 91.0493 140.933 91.5373C141.373 91.9253 141.467 92.7427 141.653 93.256C140.547 91.5587 137.32 91.6813 135.613 92.3613C133.84 93.0733 132.72 95.852 132.947 97.7107C134.44 97.8453 135.427 99.7493 134.987 101.091C134.533 102.427 131.68 102.66 131.52 101.239C133.96 101.247 132.4 98.9773 131.067 98.4947Z" fill="#EF7950"/>
<path d="M177.627 179.007C176.08 180.537 174.493 182.02 172.867 183.435C172.387 183.84 171.92 184.244 171.453 184.639C171.093 184.937 170.72 185.236 170.36 185.533C170 185.823 169.653 186.112 169.293 186.391C167.44 187.873 165.533 189.279 163.6 190.608C163.293 190.82 162.973 191.031 162.653 191.235C161.733 191.86 160.8 192.467 159.853 193.053C159.48 193.295 159.107 193.525 158.733 193.756C157.827 194.305 156.92 194.844 156 195.364C155.76 195.499 155.533 195.624 155.307 195.759C154.987 195.932 154.667 196.105 154.347 196.279C153.947 196.5 153.533 196.721 153.093 196.933L152.96 197.001C150.987 198.04 148.96 199.023 146.893 199.928C146.667 200.033 146.427 200.139 146.187 200.247L145.92 200.361C145.573 200.516 145.227 200.659 144.88 200.804C144.067 201.14 143.253 201.469 142.44 201.787C142.147 201.892 141.853 202.008 141.56 202.113L141.413 202.171L141.24 202.239C140.973 202.355 140.68 202.451 140.4 202.556C140.213 202.624 140.04 202.692 139.84 202.757C139.72 202.805 139.587 202.855 139.453 202.903L139.133 203.019C138.533 203.231 137.933 203.432 137.333 203.635C136.493 203.904 135.653 204.173 134.813 204.424L134.787 204.433L134.48 204.529C134.227 204.607 133.973 204.675 133.72 204.751C133.04 204.944 132.373 205.137 131.68 205.319C131.48 205.377 131.28 205.425 131.08 205.473C130.64 205.588 130.187 205.704 129.747 205.82C129.613 205.849 129.467 205.888 129.333 205.917L129.027 205.993L128.747 206.061C128.227 206.187 127.707 206.301 127.2 206.427L127.12 206.445C128.493 203.693 129.92 201.016 131.36 198.435C141.32 180.643 152.747 167.405 164.053 166.779C164.707 166.741 165.32 166.741 165.92 166.769C172.92 167.155 176.427 172.113 177.627 179.007Z" fill="#686766"/>
<path d="M131.36 198.435C130.427 200.939 129.573 203.489 128.747 206.061C128.227 206.187 127.707 206.301 127.2 206.427L127.12 206.445C128.493 203.693 129.92 201.016 131.36 198.435Z" fill="#424140"/>
</svg>
