<svg width="209" height="209" viewBox="0 0 209 209" fill="none" xmlns="http://www.w3.org/2000/svg">
<path d="M197.307 152.147C192.947 160.691 187.573 168.36 181.427 175.096L181.24 175.297C180.76 175.815 180.28 176.333 179.787 176.843C179.04 177.628 178.28 178.404 177.493 179.163C177 179.652 176.493 180.135 175.987 180.616L175.96 180.637C174.427 182.084 172.84 183.487 171.227 184.836C168.44 187.152 165.547 189.324 162.533 191.332C162.16 191.589 161.76 191.849 161.347 192.099L161.227 192.179C159.12 193.543 156.973 194.833 154.773 196.032C153.267 196.868 151.733 197.647 150.187 198.389C149.88 198.563 149.547 198.709 149.227 198.865C147.44 199.725 145.627 200.512 143.8 201.251L143.507 201.375C140.413 202.617 137.253 203.711 134.053 204.664C130.413 205.736 126.72 206.608 122.987 207.271C122.36 207.396 121.76 207.491 121.12 207.587C120.507 207.703 119.893 207.789 119.267 207.865C118.28 208.025 117.293 208.136 116.293 208.247C116.08 208.276 115.88 208.305 115.667 208.313L115.4 208.349C115.213 208.375 115.027 208.393 114.84 208.4C114.613 208.429 114.4 208.46 114.173 208.481C113.733 208.523 113.28 208.553 112.84 208.584C111.453 208.693 110.053 208.773 108.667 208.824C107.587 208.876 106.507 208.899 105.427 208.912C101.92 208.935 98.44 208.792 94.9333 208.459C94.4533 208.415 93.9866 208.361 93.5066 208.328L93.2534 208.293C92.88 208.251 92.5066 208.208 92.1066 208.157C89.6266 207.856 87.1334 207.467 84.6534 206.979C82.7867 206.611 80.9333 206.192 79.0667 205.716C78.0133 205.447 76.9467 205.157 75.8934 204.849C75.1067 204.621 74.32 204.384 73.5333 204.139L73.4799 204.115C72.8933 203.947 72.3067 203.757 71.72 203.551C71.5867 203.505 71.4534 203.46 71.32 203.404C70.4667 203.116 69.6134 202.817 68.76 202.519C67.8934 202.184 67.0266 201.857 66.1733 201.501L65.9466 201.416C65.4933 201.245 65.04 201.044 64.6 200.863L64.4667 200.807L64.2799 200.719C63.7999 200.529 63.3466 200.331 62.8799 200.133C62.6133 200.012 62.3333 199.892 62.0667 199.763C61.44 199.481 60.8 199.193 60.1733 198.893C59.9066 198.761 59.64 198.641 59.3733 198.503L59.0667 198.357C58.68 198.169 58.3067 197.983 57.9333 197.796C57.76 197.713 57.6 197.632 57.44 197.549C56.76 197.205 56.0933 196.853 55.44 196.487L55.3466 196.437C55.0399 196.292 54.7467 196.136 54.4534 195.949C54.08 195.761 53.72 195.563 53.36 195.345L53.24 195.279C53.08 195.187 52.9467 195.103 52.8 195.02C52.4267 194.811 52.08 194.613 51.72 194.404L51.64 194.353C50.7866 193.852 49.9467 193.34 49.12 192.805C48.5734 192.471 48.04 192.132 47.5066 191.785C46.8666 191.361 46.2267 190.927 45.5867 190.492L45.2934 190.288C44.4 189.684 43.52 189.049 42.6667 188.393C41.9867 187.896 41.3066 187.377 40.64 186.849C38.8666 185.485 37.1734 184.067 35.5201 182.595L35.4667 182.541C34.2 181.42 32.9733 180.276 31.7733 179.101C30.0533 177.393 28.3733 175.644 26.7733 173.829C26.5466 173.569 26.32 173.309 26.0934 173.051C25.0267 171.815 23.9866 170.557 22.9733 169.277L22.9201 169.195C21.6001 167.528 20.3333 165.817 19.1333 164.072C19 163.883 18.8534 163.664 18.7201 163.443C17.8801 162.236 17.08 160.993 16.3066 159.741C15.8 158.908 15.2933 158.093 14.8 157.259C13.1067 154.331 11.56 151.341 10.16 148.28C9.52003 146.861 8.89331 145.439 8.30664 143.983C8.26664 143.872 8.21331 143.76 8.17331 143.639C8.05331 143.34 7.93328 143.052 7.81328 142.744C7.49328 141.932 7.18669 141.109 6.89336 140.296C-2.54664 114.181 -1.57336 84.3693 12.04 57.684C38.12 6.5173 100.747 -13.8027 151.907 12.2813C203.067 38.364 223.387 100.989 197.307 152.147Z" fill="#F7F2DA"/>
<path d="M181.573 175.248L181.24 175.297C180.76 175.815 180.28 176.333 179.787 176.843C179.04 177.628 178.28 178.404 177.493 179.163C177 179.652 176.493 180.135 175.987 180.616L175.96 180.637C174.427 182.084 172.84 183.487 171.227 184.836C168.44 187.152 165.547 189.324 162.533 191.332C162.16 191.589 161.76 191.849 161.347 192.099L161.227 192.179C159.12 193.543 156.973 194.833 154.773 196.032C153.267 196.868 151.733 197.647 150.187 198.389C149.88 198.563 149.547 198.709 149.227 198.865C147.44 199.725 145.627 200.512 143.8 201.251L143.507 201.375C140.413 202.617 137.253 203.711 134.053 204.664C130.413 205.736 126.72 206.608 122.987 207.271C122.36 207.396 121.76 207.491 121.12 207.587C120.507 207.703 119.893 207.789 119.267 207.865C118.28 208.025 117.293 208.136 116.293 208.247C116.08 208.276 115.88 208.305 115.667 208.313L115.4 208.349C115.213 208.375 115.027 208.393 114.84 208.4C114.613 208.429 114.4 208.46 114.173 208.481C113.733 208.523 113.28 208.553 112.84 208.584C111.453 208.693 110.053 208.773 108.667 208.824C107.587 208.876 106.507 208.899 105.427 208.912C101.92 208.935 98.44 208.792 94.9333 208.459C94.4533 208.415 93.9866 208.361 93.5066 208.328L93.2534 208.293C92.88 208.251 92.5066 208.208 92.1066 208.157C89.6266 207.856 87.1334 207.467 84.6534 206.979C82.7867 206.611 80.9333 206.192 79.0667 205.716C78.0133 205.447 76.9467 205.157 75.8933 204.849C75.1067 204.621 74.32 204.384 73.5333 204.139L73.4799 204.115C72.8933 203.947 72.3067 203.757 71.72 203.551C71.5867 203.505 71.4534 203.46 71.32 203.404C70.4667 203.116 69.6133 202.817 68.76 202.519C67.8933 202.184 67.0266 201.857 66.1733 201.501L65.9466 201.416C65.4933 201.245 65.04 201.044 64.6 200.863L64.4667 200.807L64.2799 200.719C63.7999 200.529 63.3466 200.331 62.8799 200.133C62.6133 200.012 62.3333 199.892 62.0667 199.763C61.44 199.481 60.8 199.193 60.1733 198.893C59.9066 198.761 59.64 198.641 59.3733 198.503L59.0667 198.357C58.68 198.169 58.3067 197.983 57.9333 197.796C57.76 197.713 57.6 197.632 57.44 197.549C56.76 197.205 56.0933 196.853 55.44 196.487L55.3466 196.437C55.0399 196.292 54.7467 196.136 54.4534 195.949C54.08 195.761 53.72 195.563 53.36 195.345L53.24 195.279C53.08 195.187 52.9467 195.103 52.8 195.02C52.4267 194.811 52.08 194.613 51.72 194.404L51.64 194.353C50.7866 193.852 49.9467 193.34 49.12 192.805C48.5734 192.471 48.04 192.132 47.5066 191.785C46.8666 191.361 46.2267 190.927 45.5867 190.492L45.2933 190.288C44.4 189.684 43.52 189.049 42.6667 188.393C41.9867 187.896 41.3066 187.377 40.64 186.849C38.8666 185.485 37.1734 184.067 35.52 182.595L35.4667 182.541C34.2 181.42 32.9733 180.276 31.7733 179.101C30.0533 177.393 28.3733 175.644 26.7733 173.829C26.5466 173.569 26.32 173.309 26.0933 173.051C26.04 172.069 26.04 171.103 26.0933 170.14C26.16 168.655 45.8933 163.132 55.9066 161.337C58.32 160.912 60.9333 160.496 63.7333 160.103C66.52 159.709 69.48 159.329 72.5867 158.995C78.0934 158.4 84.04 157.9 90.2267 157.56C92.8 157.42 95.4133 157.305 98.04 157.227C107.227 156.929 116.76 157.017 126.027 157.649C128.947 157.847 131.813 158.103 134.667 158.42C136.48 158.611 138.28 158.831 140.053 159.083C157.52 161.532 172.813 166.433 181.427 175.096L181.573 175.248Z" fill="#E7E1CB"/>
<path d="M134.667 158.42C136.48 158.611 138.28 158.831 140.053 159.083C138.493 165.523 135.52 172.08 133.493 176.647C129.227 186.237 124.747 195.632 118.653 204.075C117.6 205.544 116.493 206.961 115.4 208.349C115.213 208.375 115.026 208.393 114.84 208.4C114.613 208.429 114.4 208.46 114.173 208.481C113.733 208.523 113.28 208.553 112.84 208.584C111.453 208.693 110.053 208.773 108.667 208.824C107.587 208.876 106.507 208.899 105.427 208.912C101.92 208.935 98.4399 208.792 94.9332 208.459C94.4532 208.415 93.9865 208.361 93.5065 208.328L93.2532 208.293C92.8799 208.251 92.5065 208.208 92.1065 208.157C89.6265 207.856 87.1332 207.467 84.6532 206.979C82.7866 206.611 80.9332 206.192 79.0665 205.716C78.0132 205.447 76.9465 205.157 75.8932 204.849C71.4799 197.279 67.5865 189.323 63.9065 181.58C60.8665 175.197 58.1465 168.256 55.9065 161.337C58.3198 160.912 60.9332 160.496 63.7332 160.103C66.5199 159.709 69.4799 159.329 72.5866 158.995C78.1599 171.737 85.8132 184.557 93.7866 195.115C104.093 188.545 111.04 178.468 117.48 168.349C119.586 165.072 123 161.403 126.027 157.649C128.947 157.847 131.813 158.103 134.667 158.42Z" fill="#D6CFBA"/>
<path d="M134.667 158.42C135.8 169.096 122.093 196.525 108.667 208.824C107.587 208.876 106.507 208.899 105.427 208.912C101.92 208.935 98.4401 208.792 94.9334 208.459C94.4534 208.415 93.9867 208.361 93.5067 208.328L93.2535 208.293C92.8801 208.251 92.5067 208.208 92.1067 208.157C89.6267 207.856 87.1335 207.467 84.6535 206.979C74.0668 194.131 65.1868 169.317 63.7334 160.103C63.7068 159.833 81.2401 158.332 81.2001 155.551C81.1601 153.003 80.7068 150.076 80.0668 147.139C78.1468 138.361 74.4401 129.401 74.4401 129.401L78.88 128.703L79.5334 128.603H79.5467L81.2268 128.331L83.6001 127.957L103.907 124.759V124.757L104 124.74L109.12 123.939L111.32 123.591C111.32 123.591 111.32 123.679 111.307 123.844C111.293 124.048 111.28 124.388 111.253 124.836V124.845C111.227 125.147 111.2 125.497 111.187 125.896C111 129.585 110.787 137.099 111.613 143.829C111.827 145.58 112.107 147.284 112.48 148.845C113.307 152.307 114.587 155.1 116.48 156.336C118.453 157.615 134.6 157.943 134.6 157.943C134.627 158.095 134.64 158.257 134.667 158.42Z" fill="#CE5C37"/>
<path d="M112.48 148.844C109.16 151.616 105.373 153.931 101.347 155.896C99.5732 156.755 97.8266 157.365 96.0799 157.767C94.3066 157.919 92.4533 157.877 90.5066 157.605C87.3066 157.156 84.1866 156.488 81.2 155.551C81.04 145.387 74.4399 129.403 74.4399 129.403L111.32 123.588C111.32 123.588 110.12 138.949 112.48 148.844Z" fill="#B74D30"/>
<path d="M121.853 119.368C120.587 102.884 117.987 86.3 116.76 70.44C116.76 70.44 102.267 61.072 99.9734 60.356C98.5334 59.908 97.0534 59.6 95.5601 59.436C94.0534 59.496 92.5468 59.7 91.0934 60.0467C88.7468 60.6014 73.64 68.9387 73.64 68.9387C71.3067 84.672 67.0667 101.504 64.64 117.86C63.6534 124.528 64.8801 131.857 69.0667 137.503C73.7467 143.8 80.2668 147.891 87.4534 150.62C89.1201 151.253 90.7467 151.64 92.3334 151.823C93.9334 151.752 95.5868 151.48 97.2934 150.964C104.64 148.741 111.44 145.113 116.533 139.156C121.107 133.816 122.373 126.087 121.853 119.368Z" fill="#CE5C37"/>
<path d="M81.6533 88.196C77.0666 85.9293 72.9999 95.804 71.2399 100.852C71.2399 100.852 74.6132 108.757 86.6132 105.488C86.8398 98.964 85.2799 89.988 81.6533 88.196Z" fill="#B74D30"/>
<path d="M81.8266 97.3187C77.2399 95.052 73.5332 97.8027 71.2399 100.852C71.2399 100.852 72.4398 112.94 86.6132 105.488C84.5998 101.561 85.4399 99.1107 81.8266 97.3187Z" fill="#B74D30"/>
<path d="M86.6132 105.485C85.2398 105.857 83.9999 106.087 82.8533 106.197C82.3866 106.239 81.9466 106.268 81.5199 106.277C79.3866 106.32 77.6532 105.948 76.2666 105.38C75.7332 105.156 75.2399 104.9 74.7999 104.632C72.1732 103.036 71.2399 100.852 71.2399 100.852C73.5332 97.8027 77.3066 93.3014 81.8933 95.568C85.5066 97.3587 84.5998 101.561 86.6132 105.485Z" fill="white"/>
<path d="M83.5867 103.468C83.56 104.48 83.28 105.411 82.8534 106.197C82.3867 106.239 81.9467 106.268 81.52 106.277C79.3867 106.32 77.6533 105.948 76.2667 105.38C75.7333 105.156 75.24 104.9 74.8 104.632C74.6933 104.161 74.6533 103.667 74.6667 103.157C74.6933 102.405 74.8533 101.699 75.1066 101.06C75.4133 100.312 75.8533 99.6614 76.4 99.1534C77.2 98.4027 78.2134 97.972 79.32 98.0094C81.7734 98.0947 83.6934 100.537 83.5867 103.468Z" fill="#44322E"/>
<path d="M82.0532 104.397C82.0265 105.099 81.8398 105.739 81.5198 106.277C79.3865 106.32 77.6531 105.948 76.2665 105.38C76.1731 105.004 76.1198 104.605 76.1331 104.192C76.1731 103.327 76.4532 102.543 76.9198 101.945C77.1465 101.647 77.4131 101.393 77.7064 101.204C78.1598 100.909 78.6798 100.752 79.2265 100.771C80.8532 100.827 82.1198 102.453 82.0532 104.397Z" fill="#56413D"/>
<path d="M74.36 100.208C74.24 99.6147 75.8534 98.3014 75.8534 98.3014L78.5333 102.503C78.5333 102.503 74.6 101.376 74.36 100.208Z" fill="white"/>
<path d="M105.96 89.7C110.68 87.7587 114.067 97.892 115.467 103.051C115.467 103.051 111.547 110.701 99.7999 106.607C100.027 100.079 102.213 91.2347 105.96 89.7Z" fill="#B74D30"/>
<path d="M105.147 98.7893C109.88 96.8453 113.387 99.8493 115.467 103.051C115.467 103.051 113.427 115.027 99.7999 106.607C102.093 102.827 101.413 100.323 105.147 98.7893Z" fill="#B74D30"/>
<path d="M99.8132 106.603C101.147 107.068 102.373 107.383 103.507 107.575C103.973 107.648 104.413 107.707 104.84 107.748C106.96 107.937 108.707 107.688 110.133 107.216C110.68 107.029 111.2 106.809 111.653 106.573C114.387 105.164 115.467 103.051 115.467 103.051C113.387 99.8493 109.933 95.096 105.213 97.0373C101.48 98.572 102.093 102.827 99.8132 106.603Z" fill="white"/>
<path d="M102.96 104.8C102.92 105.811 103.133 106.757 103.507 107.575C103.973 107.648 104.413 107.707 104.84 107.748C106.96 107.937 108.707 107.688 110.133 107.216C110.68 107.029 111.2 106.809 111.653 106.573C111.787 106.111 111.867 105.621 111.88 105.111C111.907 104.359 111.8 103.643 111.587 102.989C111.333 102.221 110.933 101.54 110.44 100.997C109.68 100.192 108.707 99.6906 107.6 99.652C105.147 99.5666 103.067 101.869 102.96 104.8Z" fill="#44322E"/>
<path d="M104.427 105.833C104.4 106.535 104.546 107.187 104.84 107.748C106.96 107.937 108.707 107.688 110.133 107.216C110.253 106.851 110.333 106.455 110.346 106.04C110.373 105.176 110.133 104.375 109.72 103.747C109.52 103.433 109.267 103.161 108.987 102.952C108.56 102.625 108.053 102.432 107.507 102.413C105.88 102.357 104.493 103.891 104.427 105.833Z" fill="#56413D"/>
<path d="M112.4 102.191C112.56 101.607 111.04 100.183 111.04 100.183L108.067 104.188C108.067 104.188 112.08 103.337 112.4 102.191Z" fill="white"/>
<path d="M86.5199 116.321C85.0399 116.547 83.8532 117.461 83.9866 119.077C84.1999 121.891 88.9198 121.841 91.1465 122.14C95.3331 122.705 100.72 121.095 103.44 117.832C93.5998 121.481 86.5199 116.321 86.5199 116.321Z" fill="#B74D30"/>
<path d="M83.5867 91.1027C83.5867 91.1027 89.08 105.412 86.12 119.584C87.4 120.289 89.6933 119.752 91 120.376C92.9466 112.985 87.4933 95.08 83.5867 91.1027Z" fill="#B74D30"/>
<path d="M112.013 123.656C109.48 128.128 99.6267 137.78 91.92 137.512C85.9867 137.305 78.6134 127.677 76.2267 124.32C78.5467 124.617 82.72 124.792 84.8 124.864C87.12 124.947 105.907 125.531 112.013 123.656Z" fill="#873421"/>
<path d="M105.48 129.503C104.866 130.688 103.987 131.937 103 132.883C102.733 133.136 102.466 133.395 102.213 133.657C101.56 134.303 100.893 134.967 100.213 135.581C97.4531 137.159 94.5865 138.173 91.9065 138.08C89.3998 137.992 86.6798 136.349 84.1732 134.196L84.0131 133.769C83.7331 133.471 83.5199 133.127 83.3332 132.755C82.8665 131.8 82.6665 130.677 82.2932 129.719C83.7065 129.796 104.48 129.467 105.48 129.503Z" fill="white"/>
<path d="M109.227 123.667C108.253 126.033 107.04 128.917 105.36 129.895C104.973 130.115 102.92 130.363 100.2 130.547C94.0667 130.96 84.4801 131.047 82.6267 129.748C81.2001 128.741 79.9866 126.576 79.08 124.477C79.0133 124.316 78.9467 124.159 78.8667 123.997C79.1067 124.012 79.3467 124.031 79.6 124.045C80.5067 124.105 81.5068 124.157 82.5868 124.205C90.5868 124.571 102.813 124.628 109.227 123.667Z" fill="white"/>
<path d="M105.36 129.895C104 130.361 84.4799 131.047 82.6266 129.748C81.1999 128.741 79.9865 126.576 79.0798 124.477L79.5999 124.045C80.5066 124.105 81.5066 124.157 82.5866 124.205C82.8133 125.519 83.1999 126.887 83.6266 128.045C83.8666 128.663 83.8133 128.661 84.3199 128.913C85.0799 129.292 103.093 129.788 105.36 129.895Z" fill="#E8E6E6"/>
<path d="M111.547 124.412C111.453 124.545 111.36 124.691 111.253 124.836V124.845L111.24 124.856C110.347 126.137 109.053 127.639 107.52 129.152C107.373 129.312 107.213 129.463 107.053 129.623C106.547 130.113 106 130.597 105.453 131.075C105.133 131.356 104.813 131.627 104.48 131.899L104.413 131.944C104.2 132.129 103.973 132.305 103.747 132.479C103.52 132.655 103.28 132.832 103.053 133.008C102.827 133.184 102.587 133.351 102.347 133.517V133.528H102.333L102.253 133.593C101.92 133.828 101.573 134.052 101.227 134.268C101.04 134.392 100.853 134.517 100.653 134.632C100.467 134.745 100.28 134.86 100.093 134.972C99.7066 135.201 99.3199 135.412 98.9333 135.612C98.7466 135.707 98.5466 135.803 98.3466 135.899C98.2266 135.957 98.0933 136.019 97.96 136.079C97.6933 136.209 97.4132 136.321 97.1466 136.433C96.9599 136.509 96.7866 136.584 96.5999 136.648C96.2133 136.791 95.8266 136.913 95.4399 137.027C94.2399 137.368 93.0533 137.547 91.92 137.507C91.5733 137.499 91.2266 137.455 90.8799 137.379L90.5999 137.317L90.3732 137.252L90.0666 137.164C89.7866 137.075 89.5066 136.973 89.2399 136.855C89.1066 136.808 88.9866 136.751 88.8666 136.695L88.76 136.647C88.6533 136.589 88.5332 136.532 88.4132 136.467C88.2399 136.385 88.0666 136.285 87.8933 136.187C87.5066 135.971 87.1067 135.716 86.72 135.443C86.5333 135.324 86.3332 135.188 86.1466 135.051C85.7599 134.757 85.3599 134.447 84.9732 134.125C84.7866 133.977 84.5999 133.811 84.4132 133.645C84.0265 133.312 83.6533 132.979 83.2933 132.627L83.2799 132.619C82.7199 132.088 82.1866 131.549 81.6666 130.997C81.4933 130.82 81.3332 130.64 81.1732 130.463C80.8799 130.151 80.5999 129.839 80.3333 129.525C80.1333 129.293 79.9199 129.06 79.7333 128.827L79.5465 128.603L79.2799 128.299C78.9865 127.937 78.7199 127.596 78.4399 127.263C78.0532 126.757 77.6799 126.28 77.3465 125.847C77.1199 125.548 76.9199 125.276 76.7333 125.024C76.5466 124.769 76.3866 124.533 76.2266 124.325C76.56 124.361 76.9333 124.405 77.32 124.447C77.52 124.457 77.7332 124.476 77.9465 124.495C78.2265 124.519 78.52 124.539 78.8266 124.569L79.12 124.58L79.3999 124.603C79.9999 124.635 80.5999 124.676 81.1999 124.708C81.5866 124.729 81.9866 124.751 82.36 124.764L82.6933 124.783L82.7066 124.781C83.1332 124.8 83.5599 124.819 83.9333 124.832C84.2533 124.841 84.5466 124.853 84.7999 124.868C84.8933 124.869 85.0266 124.876 85.1999 124.88L85.2533 124.884C85.4 124.891 85.5733 124.893 85.76 124.896C86.5466 124.919 87.68 124.951 89.0266 124.972C89.3866 124.977 89.7333 124.983 90.12 124.987C90.52 124.997 90.9467 124.997 91.3867 125.005C91.52 125.012 91.6666 125.008 91.7999 125.005C92.5466 125.015 93.3333 125.02 94.1333 125.013C94.6266 125.005 95.1333 125.008 95.6533 125.008C96.52 125.005 97.4 124.991 98.2933 124.968C98.5866 124.96 98.8666 124.953 99.1466 124.947C99.4266 124.94 99.7332 124.931 100.013 124.924C100.573 124.912 101.133 124.888 101.693 124.867C101.973 124.861 102.24 124.844 102.52 124.828C102.76 124.816 102.987 124.815 103.213 124.793C103.453 124.781 103.68 124.769 103.907 124.759L104.173 124.735C104.44 124.719 104.707 124.704 104.973 124.68C105.24 124.665 105.493 124.64 105.76 124.617C106.307 124.585 106.827 124.537 107.333 124.472C107.573 124.449 107.8 124.428 108.04 124.397C108.36 124.367 108.667 124.319 108.973 124.281C109.187 124.252 109.387 124.213 109.6 124.185C109.827 124.144 110.053 124.104 110.28 124.065C110.493 124.025 110.707 123.985 110.907 123.939C111.04 123.908 111.173 123.876 111.307 123.844C111.56 123.792 111.787 123.721 112.013 123.653V123.652C111.947 123.785 111.853 123.917 111.76 124.063C111.693 124.175 111.627 124.289 111.547 124.412ZM109.24 123.668C109.027 123.696 108.813 123.725 108.6 123.755C108.387 123.785 108.173 123.813 107.947 123.835C107.72 123.864 107.493 123.896 107.253 123.908L106.907 123.949L105.84 124.048C105.64 124.057 105.44 124.077 105.227 124.095L105.187 124.099C104.987 124.119 104.773 124.128 104.573 124.137C104.4 124.152 104.227 124.168 104.053 124.175C103.72 124.196 103.373 124.209 103.027 124.232L102.827 124.24C102.693 124.251 102.547 124.255 102.4 124.259C102.16 124.272 101.92 124.284 101.68 124.297L101.347 124.308C101.187 124.313 101.013 124.319 100.84 124.325C100.493 124.348 100.16 124.36 99.8132 124.363C99.4666 124.375 99.1332 124.387 98.7732 124.392L98.5867 124.399C98.2933 124.407 98.0133 124.413 97.72 124.42C97.4933 124.421 97.2799 124.423 97.0399 124.424C96.5599 124.431 96.08 124.436 95.5867 124.444C95.2933 124.441 94.9999 124.449 94.7066 124.448C94.1466 124.451 93.5999 124.453 93.0399 124.447L92.7066 124.448L92.3732 124.451C92.0132 124.445 91.6533 124.449 91.2933 124.443C91.08 124.444 90.8666 124.444 90.6666 124.433C90.1466 124.432 89.6399 124.421 89.1333 124.411C88.6266 124.409 88.1332 124.396 87.6399 124.384C87.3599 124.38 87.0932 124.367 86.8132 124.355L86.6266 124.352C86.1866 124.344 85.7599 124.325 85.3333 124.316C84.8533 124.304 84.3866 124.288 83.9333 124.263C83.7999 124.264 83.6799 124.256 83.5465 124.249C83.2265 124.241 82.9067 124.232 82.5867 124.212H82.5732C82.3066 124.199 82.04 124.185 81.7867 124.171C81.6533 124.164 81.5199 124.156 81.3999 124.148C81.2399 124.143 81.0799 124.139 80.9333 124.123L80.6132 124.104C80.2665 124.087 79.9199 124.061 79.5999 124.043C79.3466 124.028 79.1065 124.011 78.8799 124.004C76.7065 123.836 75.2533 123.66 74.96 123.495C74.96 123.495 76.5199 125.864 78.8799 128.703C80.3732 130.517 82.2132 132.513 84.1732 134.197C86.6799 136.347 89.3866 137.991 91.9066 138.079C94.5866 138.169 97.4532 137.159 100.213 135.581C104.693 133.021 108.84 128.993 111.187 125.896C112.227 124.532 112.907 123.339 113.12 122.545C112.493 123.02 111.107 123.388 109.24 123.668Z" fill="#B74D30"/>
<path d="M99.12 140.5C95.0533 137.445 87.5732 141.332 87.5732 141.332C89.2532 140.844 97.1333 141.481 98.4666 142.071C98.6666 141.639 99.5733 140.841 99.12 140.5Z" fill="#B74D30"/>
<path d="M87.72 77.7173C87.1066 77.6693 85.9599 77.652 85.9599 77.652L84.4266 79.776C84.4266 79.776 84.3732 77.8333 84.0399 77.8573C75.3066 78.484 72.9465 84.5667 72.9465 84.5667C75.3732 83.516 77.8666 82.8147 80.3066 82.6333C83.6399 82.384 85.5466 83.0173 87.1066 84.608C87.5066 82.3373 87.7733 80.0293 87.72 77.7173Z" fill="#44322E"/>
<path d="M100.973 81.868C101.587 81.8627 102.733 81.9253 102.733 81.9253L104.12 84.152C104.12 84.152 104.307 82.2173 104.64 82.2627C113.307 83.4987 115.24 89.7307 115.24 89.7307C112.893 88.5147 110.453 87.64 108.04 87.288C104.72 86.808 102.773 87.3067 101.107 88.784C100.867 86.4933 100.76 84.172 100.973 81.868Z" fill="#44322E"/>
<path d="M67.3065 99.4454C65.6398 96.752 59.9599 96.3307 57.7866 98.6027C55.3866 101.131 59.9866 114.192 62.9199 114.148C69.7199 114.048 67.3065 99.4454 67.3065 99.4454Z" fill="#CE5C37"/>
<path d="M66.7333 106.387C66.8267 105.401 66.9067 104.299 66.8534 103.307C66.8267 102.775 66.6933 102.204 66.6 101.692C66.56 101.413 66.4666 101.061 66.3733 100.872C65.4533 99.0827 63.36 99.06 61.8934 98.932C61.28 98.8787 60.2267 98.7974 59.6934 99.112C59.28 99.3627 59.0666 100.024 58.84 100.415C60.0133 99.1907 62.6533 99.796 63.9466 100.623C65.2933 101.488 65.7733 103.949 65.3066 105.447C64.0533 105.321 62.9466 106.739 63.1066 107.913C63.2533 109.083 65.5733 109.72 65.9333 108.577C63.92 108.2 65.56 106.576 66.7333 106.387Z" fill="#B74D30"/>
<path d="M120.413 100.735C122.266 98.164 127.973 98.1373 129.973 100.556C132.2 103.247 126.693 115.953 123.773 115.708C116.987 115.135 120.413 100.735 120.413 100.735Z" fill="#CE5C37"/>
<path d="M120.507 107.699C120.48 106.708 120.467 105.603 120.6 104.617C120.667 104.089 120.84 103.529 120.96 103.025C121.027 102.751 121.147 102.405 121.253 102.224C122.28 100.501 124.387 100.624 125.853 100.599C126.467 100.588 127.533 100.581 128.027 100.932C128.44 101.212 128.587 101.885 128.8 102.292C127.72 100.988 125.04 101.409 123.693 102.144C122.28 102.913 121.627 105.335 122 106.861C123.253 106.824 124.267 108.312 124.027 109.473C123.787 110.629 121.427 111.105 121.16 109.94C123.187 109.703 121.667 107.969 120.507 107.699Z" fill="#B74D30"/>
<path d="M119.48 64.3267C119.293 61.1613 109.733 44.6413 105.907 54.2267C104.867 52.64 103.4 49.8147 102.04 48.4987C100.173 46.7107 97.1066 47.4827 94.5066 47.2747C89.1999 46.8453 83.24 49.6533 85.56 51.052C80.1467 51.076 67.8133 52.5507 74.4666 58.1907C75.36 58.948 73.9733 60.3693 73.5867 61.384C72.6 63.936 71.76 66.56 71.4267 69.1627C70.8667 73.4067 70.2666 87.592 71.3466 83.7507C72.2932 80.3907 74.4933 76.1413 74.4399 72.6454C80.2933 73.2854 86.2267 69.8693 88.56 64.6627C88.52 65.6013 87.6266 69.0147 88.1733 69.704C88.7733 70.4547 91.9466 69.7827 92.9466 69.8533C96.3066 70.0853 99.2533 70.9947 102.387 71.8533C102.467 71.1093 102.827 70.4613 103.04 69.736C105.24 73.1947 106.813 73.2307 110.613 74.5973C113 75.4587 114.227 75.8947 116.387 76.752C117.8 80.9387 118.52 88.3853 119.013 92.3373C119.587 88.0533 119.853 70.912 119.48 64.3267Z" fill="#44322E"/>
<path d="M181.24 175.297C180.76 175.815 180.28 176.333 179.787 176.843C179.04 177.628 178.28 178.404 177.493 179.163C177 179.652 176.493 180.135 175.987 180.616C178.2 177.58 180.08 175.597 181.24 175.297Z" fill="#D6CFBA"/>
</svg>
