<svg width="209" height="209" viewBox="0 0 209 209" fill="none" xmlns="http://www.w3.org/2000/svg">
<path d="M192.573 160.453C189.48 165.355 186.04 169.908 182.307 174.096L182.133 174.289C179.427 177.321 176.56 180.161 173.573 182.819C173.333 183.02 173.093 183.233 172.867 183.435C172.4 183.84 171.92 184.244 171.453 184.64C171.093 184.937 170.733 185.236 170.36 185.533C170.013 185.813 169.667 186.092 169.32 186.371L169.293 186.391C168.787 186.795 168.28 187.191 167.76 187.585C167.107 188.095 166.44 188.587 165.773 189.077C165.053 189.597 164.333 190.107 163.6 190.608C163.293 190.82 162.973 191.032 162.667 191.235C162.027 191.667 161.373 192.091 160.733 192.505C160.253 192.812 159.773 193.111 159.28 193.419C159.093 193.524 158.92 193.64 158.733 193.756C158.427 193.949 158.107 194.132 157.8 194.305L157.693 194.372C157.16 194.7 156.6 195.027 156.053 195.336L156 195.365C155.453 195.672 154.907 195.98 154.347 196.279C153.947 196.5 153.533 196.721 153.093 196.933L152.96 197.001C151.773 197.627 150.573 198.233 149.347 198.801C148.84 199.052 148.333 199.283 147.827 199.515H147.813C147.52 199.657 147.213 199.793 146.893 199.928C146.667 200.035 146.427 200.139 146.187 200.247L145.92 200.36L145.6 200.496C145.36 200.601 145.12 200.708 144.88 200.803C144.347 201.016 143.827 201.237 143.293 201.449C143.12 201.516 142.947 201.584 142.773 201.651L142.44 201.787C142.147 201.892 141.853 202.008 141.56 202.113L141.413 202.171L141.24 202.239C140.973 202.355 140.68 202.451 140.4 202.556C140.213 202.624 140.04 202.692 139.84 202.757L139.653 202.836L139.453 202.903L139.133 203.019C138.533 203.231 137.933 203.432 137.333 203.635C137.067 203.721 136.787 203.807 136.507 203.904C135.947 204.077 135.387 204.251 134.813 204.424L134.787 204.433L134.48 204.529C134.293 204.588 134.12 204.636 133.933 204.693L133.733 204.752C133.333 204.867 132.933 204.972 132.547 205.088L132.28 205.156C132.08 205.213 131.88 205.261 131.68 205.319C131.48 205.377 131.28 205.425 131.08 205.473C130.853 205.531 130.64 205.588 130.413 205.647C130.2 205.704 129.96 205.761 129.747 205.82C129.613 205.849 129.48 205.888 129.333 205.917L129.027 205.993C128.427 206.137 127.813 206.283 127.2 206.427C126.96 206.484 126.72 206.532 126.467 206.58C125.92 206.705 125.373 206.821 124.827 206.927L124.76 206.936L124.467 206.995C123.627 207.159 122.787 207.312 121.947 207.447C120.627 207.668 119.293 207.871 117.973 208.033C117.76 208.064 117.573 208.092 117.373 208.112C117.04 208.16 116.693 208.197 116.36 208.237C115.773 208.304 115.2 208.363 114.613 208.411C114.24 208.448 113.88 208.487 113.507 208.516C112.88 208.583 112.253 208.621 111.627 208.66C111 208.717 110.373 208.747 109.747 208.765C109.08 208.815 108.413 208.833 107.76 208.844C107.427 208.863 107.093 208.863 106.747 208.872H106.733C106.533 208.881 106.32 208.892 106.12 208.881L105.987 208.892C105.747 208.901 105.52 208.901 105.293 208.892C105.067 208.901 104.84 208.911 104.613 208.911C104.347 208.911 104.08 208.911 103.8 208.901C103.627 208.901 103.453 208.892 103.28 208.892C102.933 208.892 102.587 208.881 102.253 208.872C101.693 208.863 101.133 208.844 100.587 208.815C99.16 208.765 97.7333 208.68 96.32 208.564C96.16 208.555 96.0133 208.544 95.8666 208.535L95.6933 208.527C95.4533 208.496 95.2133 208.479 94.9866 208.448C94.5866 208.411 94.1866 208.371 93.7866 208.323C92.16 208.169 90.5332 207.957 88.9066 207.707C88.5199 207.659 88.1466 207.591 87.7732 207.533C86.9999 207.399 86.2266 207.264 85.4533 207.12C85.2133 207.072 84.9599 207.023 84.7066 206.975C84.4932 206.936 84.2666 206.899 84.0533 206.86L83.8132 206.803C83.4265 206.725 83.0666 206.648 82.6666 206.561L82.36 206.493C81.9066 206.397 81.4932 206.301 81.0399 206.196C79.4266 205.82 77.8266 205.407 76.2266 204.953C76.0533 204.905 75.9065 204.856 75.7465 204.819L75.3999 204.712C74.6399 204.491 73.88 204.26 73.12 204.02C72.3466 203.769 71.5866 203.52 70.8266 203.251C70.52 203.144 70.2133 203.037 69.92 202.931C69.64 202.836 69.3733 202.74 69.12 202.643C68.7333 202.508 68.36 202.363 67.9867 202.219C67.4933 202.036 67.0133 201.853 66.5333 201.66C66.2133 201.535 65.9066 201.411 65.5999 201.285C65.3733 201.2 65.1599 201.112 64.9465 201.016C64.8132 200.959 64.6932 200.909 64.5465 200.852L64.4933 200.823L64.2666 200.727L64.0533 200.641L63.7867 200.533L63.52 200.419C63.28 200.323 63.0399 200.216 62.7999 200.101C62.6666 200.043 62.5465 199.985 62.4132 199.919C62.0932 199.773 61.7733 199.64 61.4666 199.484C61.1866 199.36 60.8932 199.235 60.6132 199.1C60.3999 199.004 60.1732 198.897 59.9466 198.801C59.4932 198.571 59.04 198.349 58.5867 198.128C58.2133 197.935 57.8267 197.741 57.4533 197.549L57.2399 197.444C56.8132 197.232 56.3733 196.991 55.96 196.769L55.8266 196.703L55.6533 196.596C55.2 196.365 54.7466 196.125 54.3066 195.884C54.0932 195.768 53.8932 195.652 53.6799 195.527L53.5333 195.441C53.2533 195.288 52.9867 195.133 52.72 194.971L52.5333 194.864C52.2666 194.719 51.9999 194.565 51.7333 194.401C51.4799 194.248 51.2132 194.103 50.9732 193.939L50.9333 193.911L50.6799 193.765C50.5599 193.689 50.4266 193.612 50.3066 193.535C50.1332 193.439 49.9866 193.343 49.8266 193.247L49.5867 193.101C49.44 193.005 49.2799 192.909 49.1333 192.812C48.9733 192.716 48.8133 192.611 48.6533 192.515C48.3333 192.313 48.0266 192.1 47.7066 191.899L47.5333 191.773L47.3867 191.677L47.2266 191.571L47.1466 191.513L47.1066 191.493C46.8266 191.32 46.5732 191.148 46.3066 190.945C45.9732 190.743 45.6533 190.521 45.3333 190.291L45.2666 190.243L45.1466 190.165C45.0132 190.059 44.8799 189.964 44.7333 189.867C44.5999 189.771 44.4666 189.684 44.3466 189.597C44.1332 189.443 43.92 189.297 43.72 189.153L43.6533 189.096C42.84 188.519 42.0532 187.931 41.2799 187.324C40.7732 186.94 40.2666 186.555 39.7732 186.16C39.1732 185.679 38.5599 185.187 37.9732 184.696L37.7066 184.465C36.9732 183.869 36.2399 183.243 35.5466 182.597L35.2666 182.337C34.6266 181.779 34 181.201 33.3867 180.615C33.2 180.451 33.0267 180.287 32.8533 180.113C32.3733 179.671 31.92 179.219 31.4533 178.757C31.16 178.487 30.8799 178.207 30.5999 177.917V177.908C30.0266 177.341 29.4667 176.753 28.92 176.167L28.6666 175.907L28.6266 175.849C28.28 175.492 27.9466 175.135 27.6266 174.769C27.0133 174.096 26.4132 173.421 25.8399 172.729C25.6399 172.517 25.4533 172.296 25.2666 172.083C23.7066 170.225 22.1999 168.329 20.7732 166.375C19.9732 165.277 19.1999 164.169 18.4399 163.043C18.3066 162.851 18.1732 162.659 18.0399 162.467C17.8266 162.148 17.6133 161.82 17.3999 161.493L17.36 161.407C16.2 159.625 15.0933 157.807 14.0666 155.957C13.9333 155.756 13.8132 155.524 13.7066 155.293C12.9732 154.013 12.3067 152.703 11.6533 151.384C11.2133 150.508 10.7866 149.651 10.3732 148.775C8.95991 145.703 7.69325 142.584 6.57325 139.407C6.06658 137.933 5.57327 136.461 5.13327 134.959C5.09327 134.844 5.0533 134.728 5.02663 134.603C4.9333 134.295 4.83989 133.996 4.74655 133.679C4.50655 132.841 4.26666 131.993 4.05332 131.156C-2.94668 104.284 0.759913 74.688 16.7732 49.3667C47.4399 0.814706 111.667 -13.6666 160.213 17.008C208.773 47.6827 223.253 111.911 192.573 160.453Z" fill="#F7F2DA"/>
<path d="M139.84 202.757L139.653 202.836C140.013 202.277 140.387 201.805 140.773 201.439C141.133 201.103 142.107 200.737 143.6 200.361C144.72 200.091 146.147 199.803 147.813 199.515C147.52 199.657 147.213 199.793 146.893 199.928C146.667 200.033 146.427 200.139 146.187 200.247L145.92 200.361L145.6 200.496C145.36 200.601 145.12 200.708 144.88 200.804C144.347 201.016 143.827 201.237 143.293 201.449C143.12 201.517 142.947 201.584 142.773 201.651L142.44 201.787C142.147 201.892 141.853 202.008 141.56 202.113L141.413 202.171L141.24 202.239C140.973 202.355 140.68 202.451 140.4 202.556C140.213 202.624 140.04 202.692 139.84 202.757Z" fill="#1B313D"/>
<path d="M158.333 188.915C160.653 188.932 163.147 188.991 165.773 189.077C165.053 189.597 164.333 190.107 163.6 190.608C163.293 190.82 162.973 191.031 162.667 191.235C162.027 191.667 161.387 192.091 160.733 192.505C160.253 192.812 159.773 193.111 159.28 193.419C158.813 193.411 158.333 193.4 157.88 193.391C153.52 193.304 149.36 193.371 145.52 193.612C143.8 193.737 142.147 193.881 140.56 194.075C141.04 193.237 140.787 190.781 141.307 190.28C141.84 189.771 143.8 189.405 146.8 189.184C149.733 188.952 153.693 188.865 158.333 188.915Z" fill="#36474F"/>
<path d="M70.8267 203.251C70.5201 203.143 70.2134 203.037 69.9201 202.931C69.6401 202.836 69.3734 202.74 69.1201 202.643C68.7334 202.508 68.3601 202.363 67.9867 202.219C67.4934 202.036 67.0134 201.853 66.5334 201.66C66.2134 201.535 65.9067 201.411 65.6 201.285C65.3867 201.199 65.16 201.112 64.9466 201.016C64.8133 200.959 64.6933 200.911 64.5466 200.852L64.4934 200.823L64.2667 200.727L64.0534 200.64L63.7867 200.533L63.5201 200.419C63.2801 200.323 63.04 200.216 62.8 200.101C62.6667 200.043 62.5466 199.985 62.4133 199.917C62.0933 199.773 61.7734 199.639 61.4667 199.484C61.1867 199.36 60.8933 199.235 60.6133 199.1C60.3866 199.004 60.1733 198.897 59.9466 198.801C59.4933 198.571 59.0401 198.349 58.5867 198.128C58.2134 197.935 57.8267 197.743 57.4534 197.549L57.24 197.444C56.8133 197.232 56.3734 196.991 55.9601 196.769L55.8267 196.703L55.6534 196.596C55.2001 196.365 54.7467 196.125 54.3067 195.884C54.0933 195.768 53.8933 195.652 53.68 195.528L53.5334 195.441C53.2534 195.288 52.9868 195.133 52.7201 194.971L52.5334 194.863C52.2667 194.719 52 194.565 51.7334 194.401C51.48 194.248 51.2133 194.103 50.9733 193.939L50.9334 193.911L50.68 193.765C50.56 193.689 50.4267 193.612 50.3067 193.535C50.1333 193.439 49.9867 193.343 49.8267 193.247L49.5868 193.101C49.4401 193.005 49.28 192.909 49.1334 192.812C48.9734 192.716 48.8134 192.611 48.6534 192.515C48.3334 192.312 48.0268 192.1 47.7201 191.899L47.5334 191.773L47.3868 191.677L47.2267 191.571L47.1466 191.513L47.1067 191.493C46.8267 191.32 46.5733 191.147 46.3067 190.945C45.9733 190.743 45.6534 190.521 45.3334 190.291L45.2667 190.243L45.1466 190.165C45.0133 190.059 44.88 189.964 44.7334 189.867C44.6 189.771 44.4666 189.684 44.3466 189.597C44.1333 189.443 43.9201 189.299 43.7201 189.153L43.6534 189.096C42.8401 188.519 42.0533 187.931 41.28 187.324C40.7733 186.94 40.2667 186.555 39.7733 186.16C39.1733 185.679 38.56 185.188 37.9733 184.696L37.7067 184.465C36.9733 183.868 36.2401 183.243 35.5601 182.597C38.6534 174.616 41.9867 168.868 45.24 168.359C53.9733 167 60.7734 173.779 64.7601 180.864C65.4001 182.011 65.9734 183.165 66.4534 184.292C67.1067 185.823 67.64 187.296 68.0133 188.653C69.32 193.459 70.3334 198.493 70.8267 203.251Z" fill="#29526D"/>
<path d="M85.9467 150.293L110.373 142.715C117.307 140.388 125.453 147.235 125.867 153.875C126.693 166.849 101.267 175.213 101.267 175.213C101.267 175.213 79.6534 158.916 85.9467 150.293Z" fill="#FCBD88"/>
<path d="M86.1332 113.027L86.0932 120.848L85.9465 150.793L85.9065 156.764L123.893 148.455C123.893 148.455 123.493 140.705 122.6 129.891C122.12 124.043 121.48 117.293 120.693 110.393C120.28 106.733 119.813 103.028 119.306 99.3893C118.066 90.5173 86.1332 113.027 86.1332 113.027Z" fill="#FCBD88"/>
<path d="M86.0933 120.848L85.9465 150.793C102.68 154.987 116.653 138.933 122.6 129.891C122.12 124.043 121.48 117.293 120.693 110.393L97.5465 117.849L86.0933 120.848Z" fill="#FCA265"/>
<path d="M78.7867 89.5494C77.3067 86.8854 71.8666 86.2067 69.6799 88.2853C67.2399 90.5987 71.0399 103.357 73.8666 103.456C80.3999 103.684 78.7867 89.5494 78.7867 89.5494Z" fill="#FCBD88"/>
<path d="M77.8932 96.1867C78.0265 95.244 78.1732 94.188 78.1599 93.2347C78.1599 92.7227 78.0532 92.168 77.9866 91.672C77.9599 91.404 77.8931 91.06 77.8131 90.8747C77.0131 89.112 75.0132 88.992 73.5999 88.7974C73.0132 88.716 72.0131 88.588 71.4798 88.8667C71.0665 89.0867 70.8399 89.7107 70.5999 90.076C71.7865 88.9574 74.2932 89.664 75.4932 90.52C76.7465 91.4133 77.0932 93.8 76.5732 95.2147C75.3732 95.0347 74.2399 96.3414 74.3332 97.476C74.4265 98.6067 76.6265 99.332 77.0131 98.2507C75.1065 97.792 76.7599 96.312 77.8932 96.1867Z" fill="#FCA265"/>
<path d="M86.4534 58.256C85.5867 57.7533 82.5066 54.444 81.7466 55.4733C77.4133 61.364 77.6266 90.2787 77.3066 96.7053C80.36 87.7947 88.2 68.4587 91.04 59.58L86.4534 58.256Z" fill="#261411"/>
<path d="M127.36 115.156C126.92 99.268 126.987 81.0413 126.56 65.7587C126.56 65.7587 113.093 56.0707 110.92 55.2747C109.573 54.7773 108.16 54.4094 106.733 54.1814C105.28 54.1667 103.827 54.2907 102.413 54.5533C100.133 54.976 85.2267 62.2587 85.2267 62.2587C82.24 77.2547 77.9867 93.348 74.2533 108.796C71.68 119.464 73.8799 123.451 77.2132 129.443C81.3466 136.872 84.5599 143.607 93.0132 144.544C104.773 145.28 117.267 135.485 122.453 130.009C127.093 125.101 127.547 121.632 127.36 115.156Z" fill="#FCBD88"/>
<path d="M108.053 82.5067C108.72 82.444 109.96 82.388 109.96 82.388L111.08 84.112C111.08 84.112 111.627 82.4787 111.987 82.488C121.24 82.6933 122.227 87.7107 122.227 87.7107C119.88 86.9174 112.707 86.2934 107.107 86.8014C107.253 84.9094 107.4 84.4494 108.053 82.5067Z" fill="#261411"/>
<path d="M92.6934 107.657C91.6668 107.449 90.6801 107.759 90.3734 108.839C89.8401 110.724 92.9201 111.833 94.2934 112.564C96.8801 113.943 100.787 114.196 103.347 112.731C96.0534 112.728 92.6934 107.657 92.6934 107.657Z" fill="#FCA265"/>
<path d="M90.84 83.76C90.84 83.76 96.6934 98.6253 92.32 108.933C95.2534 105.795 98.8133 95.8533 90.84 83.76Z" fill="#FCA265"/>
<path d="M93.1333 95.6853L93 95.596C92.92 95.5226 92.7733 95.4733 92.6 95.392C92.4266 95.3226 92.2133 95.2346 91.96 95.152C91.7067 95.0693 91.4133 94.9813 91.1066 94.8973C90.7866 94.8053 90.4399 94.7347 90.0799 94.6413C89.7066 94.5653 89.32 94.48 88.92 94.408C88.5334 94.3253 88.1067 94.2773 87.6933 94.208C87.2667 94.1387 86.8266 94.0973 86.4 94.052C85.9733 94.02 85.5467 93.956 85.12 93.9506C84.68 93.9386 84.2667 93.8907 83.8534 93.9027C83.4534 93.9 83.0532 93.8826 82.6799 93.8986C82.3066 93.916 81.9467 93.9026 81.6267 93.932C81.2933 93.956 80.9867 93.968 80.72 93.98C80.4534 94.0067 80.2267 94.028 80.0267 94.044C79.8267 94.06 79.6666 94.072 79.5733 94.076L79.5466 94.032L79.4399 93.828V93.8147V93.7853C80.4799 90.4493 83.6933 88.2093 87.5733 88.5213C91.0799 88.8 92.4933 91.5626 93.1333 95.6853Z" fill="white"/>
<path d="M89.8799 91.3773L89.8666 91.6373C89.8399 92.3893 89.6799 93.092 89.4266 93.7013C89.3199 93.9627 89.1865 94.2067 89.0399 94.4293L88.92 94.408C88.5333 94.3253 88.1066 94.2773 87.6933 94.208C87.2666 94.1387 86.8266 94.0973 86.3999 94.052C85.9732 94.02 85.5466 93.956 85.12 93.9506C84.7333 93.9413 84.3599 93.9013 83.9999 93.9013C83.8932 93.652 83.7999 93.3813 83.7332 93.0987C83.5866 92.5547 83.5199 91.964 83.5465 91.348C83.6532 88.868 85.1599 86.9253 86.9065 87.008C88.1865 87.0667 89.2399 88.2 89.6666 89.7747C89.7999 90.272 89.8799 90.8093 89.8799 91.3773Z" fill="#496B7A"/>
<path d="M84.9732 91.4107C84.9199 92.7707 85.6532 93.9053 86.5999 93.9493C87.5599 93.9933 88.3865 92.928 88.4399 91.568C88.5065 90.2133 87.7732 89.076 86.8132 89.0307C85.8532 88.988 85.0399 90.0533 84.9732 91.4107Z" fill="#261411"/>
<path d="M87.52 90.5507L90.3066 89.54C90.3066 89.54 90.9334 90.9907 90.5867 91.2814C90 91.7694 87.52 90.5507 87.52 90.5507Z" fill="white"/>
<path d="M93.1333 95.6827C91.9466 92.3667 90.7199 88.9067 87.5466 88.6574C83.7066 88.352 80.5334 90.5413 79.4534 93.8173L79.4399 93.816C79.4666 93.6294 79.5066 93.4413 79.5466 93.2507C80.6666 90.0627 83.7999 87.9493 87.5733 88.2547C90.7466 88.5 91.5599 91.0107 92.7466 94.3227L93.1333 95.6827Z" fill="#6D4A44"/>
<path d="M86.9867 85.28C83.6934 85.0014 80.9466 87.3867 79.7333 92.3547V92.372C79.6266 92.8187 79.5334 93.2547 79.4534 93.6853L79.4399 93.7867C80.4799 90.4507 83.6666 88.0574 87.5466 88.3667C91.0666 88.6414 91.6933 91.8387 93.1333 95.6827L93.2132 95.672C93.1199 89.5027 90.5734 85.584 86.9867 85.28Z" fill="#FCA265"/>
<path d="M93.1333 95.6853L92.9999 95.596C92.9199 95.5226 92.7733 95.4733 92.5999 95.392C92.4266 95.3226 92.2133 95.2346 91.96 95.152C91.7066 95.0693 91.4132 94.9813 91.1066 94.8973C90.7866 94.8053 90.4399 94.7347 90.0799 94.6413C89.7465 94.5747 89.3999 94.4986 89.0399 94.4293L88.92 94.408C88.5333 94.3253 88.1066 94.2773 87.6933 94.208C87.2666 94.1387 86.8266 94.0973 86.3999 94.052C85.9733 94.02 85.5466 93.956 85.12 93.9506C84.7333 93.9413 84.3599 93.9013 83.9999 93.9013L83.8533 93.9027C83.4533 93.9 83.0532 93.8826 82.6799 93.8986C82.3065 93.916 81.9466 93.9026 81.6266 93.932C81.2933 93.956 80.9866 93.968 80.72 93.98C80.4533 94.0067 80.2266 94.028 80.0266 94.044C79.8266 94.06 79.6666 94.072 79.5732 94.076L79.4132 94.0866L79.5465 94.032C79.6399 93.996 79.8 93.9346 79.9866 93.8626C80.1733 93.8013 80.3999 93.716 80.6666 93.636C80.9199 93.5627 81.2266 93.4813 81.56 93.412C81.88 93.3213 82.24 93.2747 82.6266 93.216C82.9733 93.156 83.3466 93.1213 83.7333 93.0986L83.8399 93.092C84.2666 93.056 84.7065 93.0493 85.1465 93.0613L85.3465 93.0667C85.7332 93.0773 86.1066 93.1147 86.4933 93.1347C86.9466 93.196 87.3866 93.2493 87.8266 93.332V93.3306C88.2666 93.408 88.6932 93.5093 89.1066 93.6173L89.4266 93.7013C89.72 93.7933 89.9999 93.8946 90.2666 93.984C90.6399 94.1186 90.9732 94.2507 91.2799 94.4053C91.5999 94.54 91.8666 94.6907 92.1066 94.836C92.3466 94.972 92.5333 95.1173 92.6933 95.236C92.8533 95.3733 92.9732 95.4693 93.0399 95.5586L93.1333 95.6853Z" fill="#FCA265"/>
<path d="M105.84 97.6307L106 97.5787C106.093 97.5294 106.253 97.5213 106.427 97.4853C106.613 97.464 106.853 97.4347 107.12 97.42C107.387 97.4053 107.68 97.3974 108.013 97.396C108.333 97.388 108.693 97.4134 109.067 97.416C109.44 97.4374 109.84 97.4547 110.24 97.4894C110.64 97.512 111.053 97.576 111.48 97.6173C111.907 97.66 112.333 97.7334 112.76 97.8C113.187 97.8814 113.627 97.932 114.04 98.0387C114.453 98.1374 114.88 98.2 115.267 98.3173C115.653 98.42 116.04 98.5053 116.4 98.6187C116.76 98.732 117.107 98.812 117.413 98.9254C117.72 99.0334 118.013 99.124 118.267 99.2054C118.52 99.3 118.747 99.3827 118.92 99.448C119.107 99.5147 119.267 99.5667 119.36 99.5987L119.387 99.5614L119.547 99.3894L119.56 99.3814V99.3494C119.413 95.8587 116.907 92.864 113.08 92.1574C109.613 91.5134 107.533 93.816 105.84 97.6307Z" fill="white"/>
<path d="M110.107 94.316L110.04 94.568C109.88 95.3027 109.853 96.0227 109.946 96.6787C109.973 96.9587 110.04 97.2267 110.12 97.4787L110.24 97.4893C110.64 97.512 111.053 97.576 111.48 97.6173C111.906 97.66 112.333 97.7333 112.76 97.8C113.187 97.8813 113.627 97.932 114.04 98.0387C114.4 98.1267 114.773 98.1854 115.12 98.28C115.293 98.068 115.453 97.8294 115.6 97.5734C115.88 97.0854 116.093 96.532 116.227 95.9293C116.76 93.508 115.827 91.2427 114.12 90.8694C112.867 90.5934 111.547 91.4133 110.72 92.8213C110.467 93.2667 110.253 93.7667 110.107 94.316Z" fill="#496B7A"/>
<path d="M114.827 95.62C114.533 96.9466 113.533 97.8547 112.6 97.6493C111.667 97.4427 111.147 96.1987 111.44 94.872C111.733 93.548 112.733 92.64 113.667 92.8453C114.613 93.052 115.12 94.2946 114.827 95.62Z" fill="#261411"/>
<path d="M112.587 94.1267L110.16 92.4294C110.16 92.4294 109.187 93.6667 109.44 94.0387C109.88 94.6614 112.587 94.1267 112.587 94.1267Z" fill="white"/>
<path d="M105.84 97.628C107.853 94.7333 109.933 91.7107 113.067 92.2947C116.853 92.996 119.347 95.9347 119.533 99.3773L119.56 99.3813C119.573 99.1933 119.587 99.0013 119.6 98.808C119.333 95.4373 116.867 92.584 113.147 91.8973C110.013 91.312 108.573 93.5253 106.573 96.4173L105.84 97.628Z" fill="#6D4A44"/>
<path d="M119.64 97.892C119.76 92.78 117.733 89.764 114.48 89.176C110.947 88.5413 107.453 91.6627 105.773 97.5973L105.84 97.628C108.227 94.288 109.667 91.3653 113.133 92.012C116.96 92.7213 119.413 95.86 119.56 99.352L119.573 99.2494C119.613 98.8147 119.64 98.3693 119.653 97.9107L119.64 97.892Z" fill="#FCA265"/>
<path d="M105.84 97.6307L106 97.5787C106.093 97.5293 106.253 97.5213 106.427 97.4853C106.613 97.464 106.853 97.4347 107.12 97.42C107.387 97.4053 107.68 97.3973 108.013 97.396C108.333 97.388 108.693 97.4134 109.067 97.416C109.4 97.436 109.76 97.452 110.12 97.4787L110.24 97.4893C110.64 97.512 111.053 97.576 111.48 97.6173C111.907 97.66 112.333 97.7333 112.76 97.8C113.187 97.8813 113.627 97.932 114.04 98.0387C114.4 98.1267 114.773 98.1854 115.12 98.28L115.267 98.3173C115.653 98.42 116.04 98.5053 116.4 98.6187C116.76 98.732 117.107 98.812 117.413 98.9253C117.72 99.0333 118.013 99.124 118.267 99.2053C118.52 99.3 118.747 99.3827 118.92 99.448C119.107 99.5147 119.267 99.5667 119.36 99.5987L119.507 99.6494L119.387 99.5613C119.307 99.5013 119.173 99.4027 119.013 99.2827C118.84 99.1747 118.653 99.036 118.427 98.8893C118.187 98.7507 117.92 98.5947 117.613 98.4413C117.32 98.2693 116.987 98.1307 116.627 97.9733C116.307 97.8253 115.96 97.6947 115.6 97.5733L115.493 97.54C115.093 97.3933 114.667 97.2733 114.24 97.1693L114.04 97.1227C113.667 97.0333 113.293 96.9707 112.92 96.8893C112.467 96.8333 112.027 96.7693 111.573 96.7347V96.732C111.133 96.6947 110.693 96.6814 110.267 96.68L109.947 96.6787C109.627 96.6893 109.333 96.716 109.053 96.7307C108.667 96.7667 108.293 96.8053 107.96 96.8733C107.627 96.924 107.32 96.9987 107.053 97.0773C106.787 97.1453 106.56 97.236 106.373 97.3093C106.187 97.4 106.053 97.4627 105.973 97.5333L105.84 97.6307Z" fill="#FCA265"/>
<path d="M105.52 134.439L105.44 134.324C105.387 134.256 105.307 134.14 105.2 134.019C104.973 133.756 104.64 133.413 104.16 133.064C103.693 132.717 103.093 132.379 102.413 132.113C101.733 131.848 100.96 131.665 100.173 131.584C99.7866 131.552 99.3867 131.532 99 131.553C98.6133 131.572 98.2267 131.615 97.8667 131.695C97.1333 131.847 96.4666 132.115 95.9466 132.461C95.6933 132.625 95.4934 132.824 95.32 133.001C95.1467 133.184 95.0266 133.367 94.9466 133.52C94.8666 133.675 94.8133 133.803 94.8 133.891L94.76 134.025L94.8667 133.939C94.9333 133.877 95.04 133.809 95.1733 133.72C95.3066 133.636 95.4667 133.551 95.6534 133.463C95.8534 133.385 96.08 133.305 96.32 133.245C97.3067 132.985 98.6667 132.932 100.027 133.071C100.373 133.103 100.72 133.144 101.053 133.199C101.387 133.251 101.707 133.313 102.027 133.379C102.347 133.451 102.653 133.517 102.947 133.596C103.24 133.672 103.52 133.752 103.773 133.832C104.027 133.912 104.267 133.983 104.48 134.06C104.693 134.135 104.867 134.2 105.027 134.255C105.333 134.375 105.52 134.439 105.52 134.439Z" fill="#FCA265"/>
<path d="M88.5201 119.108C88.1867 121.38 89.0934 124.711 90.0667 128.001C95.2534 129.969 108.76 131.197 114.547 115.469C101.667 120.005 91.2801 118.964 88.5201 119.108Z" fill="#B76049"/>
<path d="M116.307 113.859C116.173 113.396 115.267 113.377 114.667 113.232C115.76 115.616 115.107 124.391 115.107 124.391C115.8 123.86 116.733 115.197 116.307 113.859Z" fill="#FCA265"/>
<path d="M111.24 116.967C111.107 119.62 110.053 121.648 108.84 124.987C108.733 125.088 108.627 125.188 108.507 125.288C108.32 125.427 108.12 125.571 107.893 125.704L107.867 125.721C107.747 125.799 107.613 125.872 107.467 125.948C105.893 126.823 103.547 127.545 101.053 128.039C100.76 128.091 100.453 128.153 100.16 128.208C95.8133 128.981 91.3333 129.041 90.0666 128.001C89.6933 127.688 89.3467 127.276 89.0267 126.804C88.4667 125.948 87.9999 124.901 87.6399 123.891C86.9733 122.052 86.6666 120.387 86.6666 120.387L108.2 117.372L111.24 116.967Z" fill="white"/>
<path d="M111.24 116.967C111.107 119.62 110.053 121.648 108.84 124.987C108.733 125.088 108.627 125.188 108.507 125.288C108.32 125.427 108.12 125.571 107.893 125.704L107.867 125.721C106.32 126.663 103.76 127.472 101.053 128.039C100.76 128.091 100.453 128.153 100.16 128.208C95.4933 129.081 90.6933 129.195 90.0666 128.001C89.9066 127.68 89.5066 127.263 89.0266 126.804C88.4666 125.948 87.9999 124.901 87.6399 123.891C90.6132 124.417 95.2799 124.993 97.9465 124.6C100.573 124.213 106.813 124.527 108.2 117.372L111.24 116.967Z" fill="#EDEDED"/>
<path d="M88.4 120.239H88.4266L88.4533 120.228C89.1867 120.191 90.0799 120.141 90.4799 120.151C92.9599 120.18 97.1066 120.228 102.267 119.507C104.173 119.247 106.053 118.891 107.92 118.457C109.027 118.196 110.107 117.917 111.187 117.6C111.907 117.397 112.6 117.187 113.307 116.955C112.293 119.121 111.133 120.873 109.867 122.289L109.853 122.299C106.52 126.043 102.56 127.459 99.36 127.912C95.6266 128.431 91.3999 127.575 89.5733 126.295C89.2533 126.083 89.0133 125.852 88.8666 125.611C88.52 125.089 88.24 124.532 88.0266 123.955C87.5866 122.828 87.3867 121.624 87.3867 120.508V120.287C87.5467 120.287 87.9333 120.256 88.4 120.239ZM114.973 114.249L114.453 114.432C110.493 115.828 106.36 116.84 102.147 117.427C100.4 117.667 98.7733 117.821 97.2933 117.917H97.2666C94.3866 118.111 92.04 118.091 90.4266 118.063C87.8266 118.024 86.5466 119.496 86.0933 120.171C85.96 120.372 85.8933 120.497 85.8933 120.497C85.8933 120.497 85.9466 120.845 86.0933 121.393V121.413V121.421C86.8 124.32 89.7466 132.811 99.4666 129.991C104.427 129.299 111.133 126.343 114.853 116.203L115.133 115.433V115.415L115.667 114.009L114.973 114.249Z" fill="#FCA265"/>
<path d="M133.053 57.0027C132.48 55.6894 117.653 41.2093 76.6399 43.9573C72.7066 44.2213 78.8399 54.896 78.8399 54.896C81.4933 62.524 95 66.6387 96.1867 66.62C97.1333 66.604 117.053 63.3307 118.027 63.1213C128.613 72.8813 126.573 106.773 127.36 107.751C127.627 103.937 138.973 70.4827 133.053 57.0027Z" fill="#261411"/>
<path d="M97.3866 63.344C91.7866 63.344 84.5065 56.5946 81.2399 52.3306C82.7999 53.0746 84.8799 53.1333 86.2533 54.0946C84.1066 52.372 81.4266 48.9653 80.4666 46.4586C82.9999 49.1333 87.5199 51.348 90.8533 53.1986C94.6666 55.3146 98.3199 55.896 102.64 56.38C103.067 56.428 103.52 56.448 103.987 56.448C105.56 56.448 107.347 56.2173 109.173 55.9853C111 55.7533 112.867 55.5213 114.587 55.5213C117.907 55.5213 120.706 56.3733 121.746 59.712C121.746 59.712 116.533 61.7026 97.9599 63.32C97.7599 63.336 97.5733 63.344 97.3866 63.344Z" fill="#492620"/>
<path d="M129.787 95.952C132.387 93.8893 138.16 95.4947 139.48 98.5054C140.96 101.856 131.773 113.093 128.893 112.012C122.227 109.493 129.787 95.952 129.787 95.952Z" fill="#FCBD88"/>
<path d="M127.893 103.001C128.16 101.997 128.453 100.877 128.867 99.92C129.08 99.408 129.427 98.892 129.693 98.4187C129.84 98.1627 130.053 97.8467 130.213 97.6933C131.747 96.252 133.827 96.976 135.32 97.3734C135.947 97.536 137.013 97.8333 137.413 98.332C137.747 98.728 137.707 99.4507 137.813 99.9227C137.08 98.2973 134.267 97.9547 132.693 98.3094C131.053 98.6827 129.707 100.937 129.64 102.581C130.92 102.905 131.507 104.695 130.933 105.796C130.36 106.895 127.853 106.7 127.907 105.445C130.013 105.788 128.987 103.605 127.893 103.001Z" fill="#FCA265"/>
<path d="M95.3733 81.084C94.7333 80.876 93.5334 80.544 93.5334 80.544L92.0667 81.9787C92.0667 81.9787 91.8933 80.2653 91.5466 80.1946C82.4666 78.3426 80.4 83.0173 80.4 83.0173C82.8667 82.7653 90 83.748 95.3466 85.4827C95.6266 83.6053 95.5733 83.1226 95.3733 81.084Z" fill="#261411"/>
<path d="M172.893 165.845C170.8 171.092 169.2 178.737 167.76 187.584C167.107 188.095 166.44 188.585 165.773 189.077C165.053 189.597 164.333 190.107 163.6 190.608C163.293 190.82 162.973 191.031 162.667 191.235C162.027 191.667 161.387 192.091 160.733 192.505C160.253 192.812 159.773 193.111 159.28 193.419C159.093 193.525 158.92 193.64 158.733 193.756C158.427 193.949 158.107 194.132 157.8 194.305L157.693 194.372C157.16 194.7 156.6 195.028 156.053 195.336L156 195.364C155.453 195.672 154.907 195.98 154.347 196.279C153.947 196.5 153.533 196.721 153.107 196.933L152.96 197.001C151.773 197.627 150.573 198.233 149.347 198.801C148.84 199.052 148.333 199.283 147.827 199.515H147.813C147.52 199.657 147.213 199.793 146.893 199.928C146.667 200.033 146.427 200.139 146.187 200.247L145.92 200.361L145.6 200.496C145.36 200.601 145.12 200.708 144.88 200.804C144.347 201.016 143.827 201.237 143.293 201.449C143.12 201.517 142.947 201.584 142.773 201.651L142.44 201.787C142.147 201.892 141.853 202.008 141.56 202.113L141.413 202.171L141.24 202.239C140.973 202.355 140.68 202.451 140.4 202.556C140.213 202.624 140.04 202.692 139.84 202.757L139.653 202.836L139.453 202.903L139.133 203.019C138.533 203.231 137.933 203.432 137.333 203.635C137.053 203.721 136.787 203.807 136.507 203.904C135.947 204.077 135.387 204.251 134.813 204.424L134.787 204.433L134.48 204.529C134.293 204.587 134.12 204.636 133.933 204.695L133.733 204.751C133.333 204.867 132.947 204.972 132.547 205.088L132.28 205.156C132.08 205.213 131.88 205.261 131.68 205.319C131.48 205.377 131.28 205.425 131.08 205.473C130.853 205.531 130.64 205.588 130.413 205.647L135.613 185.939L125.56 173.643L135.613 159.337L136.867 152.828L136.92 152.529C139 153.425 141.093 154.235 143.213 155.004C152.613 158.441 162.453 161.012 172.893 165.845Z" fill="#29526D"/>
<path d="M140.573 188.884L136.507 203.904C135.947 204.077 135.387 204.251 134.813 204.424L134.787 204.433L134.48 204.529C134.293 204.587 134.12 204.636 133.933 204.695L133.733 204.751C133.333 204.867 132.947 204.972 132.547 205.088L132.28 205.156C132.08 205.213 131.88 205.261 131.68 205.319C131.48 205.377 131.28 205.425 131.08 205.473C130.853 205.531 130.64 205.588 130.413 205.647C130.2 205.704 129.96 205.761 129.747 205.82C129.613 205.849 129.48 205.888 129.333 205.917L129.027 205.993C128.427 206.139 127.813 206.283 127.2 206.427C126.96 206.484 126.72 206.532 126.467 206.581C125.92 206.705 125.373 206.821 124.827 206.927L124.76 206.936L124.467 206.995C123.627 207.159 122.787 207.312 121.947 207.447C120.627 207.668 119.293 207.871 117.973 208.033C117.76 208.064 117.573 208.092 117.373 208.112C117.04 208.16 116.693 208.197 116.36 208.237C115.773 208.304 115.2 208.361 114.613 208.411C114.24 208.448 113.88 208.487 113.507 208.516C112.88 208.584 112.253 208.621 111.627 208.66C111 208.717 110.373 208.748 109.747 208.765C109.08 208.813 108.413 208.833 107.76 208.844C107.427 208.861 107.093 208.861 106.747 208.872H106.733C106.533 208.881 106.32 208.892 106.12 208.881L105.987 208.892C105.747 208.901 105.52 208.901 105.293 208.892C105.067 208.901 104.84 208.911 104.613 208.911C104.347 208.911 104.08 208.911 103.8 208.901C103.627 208.901 103.453 208.892 103.28 208.892C102.933 208.892 102.587 208.881 102.253 208.872C101.693 208.861 101.133 208.844 100.587 208.813C99.1601 208.765 97.7334 208.68 96.3201 208.564C96.1601 208.555 96.0133 208.544 95.8667 208.535L95.6934 208.527C96.4267 198.417 97.2533 189.28 98.1333 181.808C98.2667 180.663 98.3999 179.555 98.5466 178.487C98.6266 177.869 98.7067 177.264 98.7867 176.667L98.8 176.599C98.9467 175.549 99.0933 174.548 99.24 173.595C99.6133 171.217 100 169.147 100.387 167.405C100.467 167.048 100.547 166.711 100.627 166.384C100.84 165.536 101.053 164.787 101.267 164.14L101.36 164.084H101.373L101.387 164.075C102.427 163.553 109.28 160.039 114.093 155.928C116.52 153.868 118.48 151.48 119.973 149.313C120.773 148.168 121.427 147.089 121.96 146.147C122.853 144.587 123.387 143.412 123.573 142.999V142.988L123.627 142.844L123.64 142.835L125.893 149.265L136.867 152.828L138.08 153.223C138.373 153.407 138.693 153.599 139.013 153.791L136.4 158.537L126.093 173.643L140.573 188.884Z" fill="#EFE6E8"/>
<path d="M53.5332 195.441C53.2532 195.288 52.9866 195.133 52.7199 194.971L52.5332 194.863C52.2666 194.719 51.9999 194.565 51.7332 194.401C51.4799 194.248 51.2132 194.103 50.9732 193.939L50.9332 193.911L50.6798 193.765C50.5598 193.689 50.4265 193.612 50.3065 193.535C50.1332 193.439 49.9866 193.343 49.8266 193.247C48.7333 183.012 47.3332 174.173 45.2399 168.359C50.4132 165.7 61.7865 160.656 67.9465 157.971C70.0265 157.065 71.5066 156.429 71.9599 156.247L72.0798 156.197L77.9599 166.875L81.4798 173.249L80.6666 174.269L76.9465 178.929L70.8533 186.575L69.6399 188.085L73.1199 204.02C72.3466 203.769 71.5866 203.52 70.8266 203.251C70.5199 203.143 70.2133 203.037 69.9199 202.931C69.6399 202.836 69.3733 202.74 69.1199 202.643C68.7333 202.508 68.3599 202.363 67.9866 202.219C67.4933 202.036 67.0132 201.853 66.5332 201.66C66.2132 201.535 65.9066 201.411 65.5999 201.285C65.3866 201.199 65.1598 201.112 64.9465 201.016C64.8132 200.959 64.6932 200.911 64.5465 200.852L64.4933 200.823L64.2666 200.727L64.0533 200.64L63.7866 200.533L63.5199 200.419C63.2799 200.323 63.0399 200.216 62.7999 200.101C62.6666 200.043 62.5465 199.985 62.4132 199.917C62.0932 199.773 61.7732 199.639 61.4666 199.484C61.1866 199.36 60.8932 199.235 60.6132 199.1C60.3865 199.004 60.1732 198.897 59.9465 198.801C59.4932 198.571 59.0399 198.349 58.5866 198.128C58.2133 197.935 57.8266 197.743 57.4533 197.549L57.2399 197.444C56.8132 197.232 56.3733 196.991 55.9599 196.769L55.8266 196.703L55.6533 196.596C55.1999 196.365 54.7465 196.125 54.3065 195.884C54.0932 195.768 53.8932 195.652 53.6798 195.528L53.5332 195.441Z" fill="#29526D"/>
<path d="M102.253 208.872C101.693 208.861 101.133 208.844 100.587 208.813C99.16 208.765 97.7333 208.68 96.32 208.564C96.16 208.555 96.0133 208.544 95.8666 208.535L95.6933 208.527C95.4533 208.496 95.2133 208.477 94.9867 208.448C94.5867 208.411 94.1867 208.371 93.7867 208.323C92.16 208.169 90.5333 207.957 88.9066 207.707C88.5199 207.659 88.1466 207.591 87.7733 207.533C86.9999 207.399 86.2267 207.264 85.4533 207.12C85.2133 207.072 84.96 207.024 84.72 206.975C84.4933 206.936 84.2667 206.899 84.0533 206.86L83.8132 206.803C83.4266 206.725 83.0666 206.648 82.6666 206.561L82.36 206.493C81.9067 206.397 81.4933 206.303 81.0399 206.195C79.4266 205.82 77.8267 205.407 76.2267 204.953C76.0533 204.905 75.9066 204.857 75.7466 204.819L75.4 204.712C74.64 204.491 73.88 204.26 73.12 204.02C72.3467 203.769 71.5867 203.52 70.8267 203.251C70.52 203.143 70.2133 203.037 69.92 202.931C69.64 202.836 69.3733 202.74 69.12 202.643C68.7333 202.508 68.36 202.363 67.9867 202.219C67.4933 202.036 67.0133 201.853 66.5333 201.66C66.2133 201.535 65.9066 201.411 65.6 201.285C65.3866 201.199 65.1599 201.112 64.9466 201.016C64.8132 200.959 64.6932 200.911 64.5466 200.852L60.7867 187.7V187.681L60.6666 187.248L60.6933 187.229L66.4533 184.292L76.9466 178.929L81.3066 176.705L81.52 176.599L81.3733 176.215L80.6666 174.269L77.96 166.875L74.5867 157.604C79.72 155.755 79.3733 155.188 79.52 153.917C81.1733 153.551 84.8 152.712 84.8 152.712L85.0533 151.124L85.3333 151.356L85.9333 151.895L90.4132 155.784L99.96 164.084L100.027 164.14C100.107 164.372 100.187 164.623 100.267 164.892C100.387 165.345 100.507 165.845 100.627 166.384C101.08 168.503 101.44 171.237 101.693 174.491C101.72 174.675 101.72 174.865 101.747 175.049C101.787 175.549 101.827 176.071 101.867 176.599C101.907 177.467 101.96 178.371 102.013 179.315C102.067 180.451 102.12 181.636 102.16 182.859C102.413 190.223 102.413 199.089 102.253 208.872Z" fill="#EFE6E8"/>
<path d="M100.587 208.813C99.1599 208.765 97.7333 208.68 96.3199 208.564L98.3732 182.049L98.6399 178.544L98.7866 176.667L98.7999 176.599H104.24L104.453 178.516L104.76 181.384L107.76 208.844C107.427 208.861 107.093 208.861 106.747 208.872H106.733C106.533 208.881 106.32 208.892 106.12 208.881L105.987 208.892C105.747 208.901 105.52 208.901 105.293 208.892C105.067 208.901 104.84 208.911 104.613 208.911C104.347 208.911 104.08 208.911 103.8 208.901C103.627 208.901 103.453 208.892 103.28 208.892C102.933 208.892 102.587 208.881 102.253 208.872C101.693 208.861 101.133 208.844 100.587 208.813Z" fill="#B20D28"/>
<path d="M90.1732 164.084H115.16L115.187 164.233C115.187 165.277 113.72 169.733 112.907 171.741C110.84 176.825 103.293 183.945 99.9999 183.139C96.7999 182.357 88.0266 167.389 88.5333 164.233C88.6666 164.247 89.3199 164.181 90.1732 164.084Z" fill="#B20D28"/>
<path d="M101.267 164.137L121.88 178.965L122.347 179.297L125.893 149.263L123.64 142.832L123.627 142.845C123.44 143.127 120.413 147.725 113 154.783C106.933 160.564 101.453 164.017 101.267 164.137Z" fill="white"/>
<path d="M80.92 179.297L86.4799 175.163L100.253 164.888L101.267 164.137C101.267 164.137 95.12 159.064 91.52 154.783C87.4534 149.944 86.12 144.692 86.12 144.692L85.0534 151.128L84.8 152.711L81.3733 176.212L81.3066 176.708L80.92 179.297Z" fill="white"/>
<path d="M148.88 181.837C148.88 181.837 148.08 184.687 146.8 189.184C146.413 190.521 145.987 192.004 145.52 193.612C144.933 195.692 144.293 197.964 143.6 200.361C143.507 200.717 143.4 201.084 143.293 201.449C143.12 201.517 142.947 201.584 142.773 201.651L142.44 201.787C142.147 201.892 141.853 202.008 141.56 202.113L141.413 202.171L141.24 202.239C140.973 202.355 140.68 202.451 140.4 202.556C140.213 202.624 140.04 202.692 139.84 202.757L139.653 202.836L139.453 202.903L139.133 203.019C138.533 203.231 137.933 203.432 137.333 203.635C137.053 203.721 136.787 203.807 136.507 203.904C135.947 204.077 135.387 204.251 134.813 204.424L134.787 204.433L134.48 204.529C134.293 204.587 134.12 204.636 133.933 204.695L133.733 204.751C133.333 204.867 132.947 204.972 132.547 205.088L132.28 205.156C132.08 205.213 131.88 205.261 131.68 205.319C131.48 205.377 131.28 205.425 131.08 205.473C130.853 205.531 130.64 205.588 130.413 205.647C130.2 205.704 129.96 205.761 129.747 205.82C129.613 205.849 129.48 205.888 129.333 205.917L129.027 205.993C128.427 206.139 127.813 206.283 127.2 206.427C126.96 206.484 126.72 206.532 126.467 206.581C125.92 206.705 125.373 206.821 124.827 206.927L124.76 206.936L124.467 206.995C123.627 207.159 122.787 207.312 121.947 207.447C120.627 207.668 119.293 207.871 117.973 208.033L121.893 178.968L124.48 159.673L125.533 151.932L125.893 149.265C125.893 149.265 130.52 149.265 136 151.48C137.853 152.232 143.253 154.908 143.253 154.908L143.213 155.004C142.96 155.668 141.32 159.808 138.64 164.208C134.8 170.485 130.333 174.423 130.333 174.423C130.333 174.423 133.72 177.515 137.973 179.488C143.133 181.865 148.88 181.837 148.88 181.837Z" fill="#346682"/>
<path d="M69.12 202.643C68.7334 202.508 68.36 202.363 67.9867 202.219C67.4934 202.036 67.0133 201.853 66.5333 201.66C66.2133 201.535 65.9066 201.411 65.6 201.285C65.3867 201.199 65.1599 201.112 64.9466 201.016C64.8133 200.959 64.6933 200.911 64.5466 200.852L64.4933 200.823L64.2667 200.727L64.0534 200.64L63.7867 200.533L63.52 200.419C62.4667 195.509 61.52 191.08 60.7867 187.7V187.681C60.76 187.528 60.72 187.383 60.6933 187.229C59.88 183.445 59.3733 181.115 59.3733 181.115C59.3733 181.115 61.6933 181.279 64.76 180.864C66.4933 180.635 68.4666 180.22 70.4 179.469C74.7733 177.784 78.3733 174.915 78.3733 174.915C78.3733 174.915 74.1599 170.697 70.7466 164.189C69.5199 161.86 68.2666 158.797 67.9466 157.971C67.8799 157.835 67.8534 157.757 67.8534 157.757C67.8534 157.757 69.7067 157.045 71.96 156.247L72.0799 156.197C74.5333 155.321 77.44 154.34 79.0267 154.013C79.16 153.983 79.32 153.945 79.52 153.917C81.1734 153.551 84.8 152.712 84.8 152.712L84.84 153.233L85.0267 155.804L86.4799 175.165L88.9066 207.707C88.52 207.659 88.1466 207.591 87.7733 207.533C87 207.399 86.2267 207.264 85.4534 207.12C85.2134 207.072 84.96 207.024 84.72 206.975C84.4934 206.936 84.2667 206.899 84.0534 206.86L83.8133 206.803C83.4266 206.725 83.0666 206.648 82.6666 206.561L82.36 206.493C81.9067 206.397 81.4933 206.303 81.04 206.195C79.4266 205.82 77.8267 205.407 76.2267 204.953C76.0533 204.905 75.9066 204.857 75.7466 204.819L75.4 204.712C74.64 204.491 73.88 204.26 73.12 204.02C72.3467 203.769 71.5867 203.52 70.8267 203.251C70.52 203.143 70.2134 203.037 69.92 202.931C69.64 202.836 69.3734 202.74 69.12 202.643Z" fill="#346682"/>
<path d="M106.107 174.964L106.72 174.292C106.573 174.555 106.36 174.776 106.107 174.964Z" fill="#AA0E28"/>
<path d="M94.3866 170.689C95.52 170.128 99.72 167.94 100.52 167.317C100.653 169.447 100.547 172.511 101.653 174.427C102.48 175.869 107.587 175.273 108.867 174.292C108.867 174.292 103.987 181.913 98.4933 178.457C96.4933 177.195 94.08 173.169 94.3866 170.689Z" fill="#AA0E28"/>
<path d="M182.307 174.096L182.133 174.289C179.427 177.321 176.56 180.161 173.573 182.819C173.333 183.021 173.093 183.233 172.867 183.435C172.4 183.84 171.92 184.244 171.453 184.639C171.093 184.937 170.733 185.236 170.36 185.533C170.013 185.813 169.667 186.092 169.32 186.371L169.293 186.391C168.787 186.796 168.28 187.191 167.76 187.584C167.107 188.095 166.44 188.585 165.773 189.077C165.053 189.597 164.333 190.107 163.6 190.608C163.293 190.82 162.973 191.031 162.667 191.235C162.027 191.667 161.387 192.091 160.733 192.505C160.253 192.812 159.773 193.111 159.28 193.419C159.093 193.525 158.92 193.64 158.733 193.756C158.427 193.949 158.107 194.132 157.8 194.305C157.813 193.997 157.84 193.697 157.88 193.391C158.013 191.879 158.16 190.376 158.333 188.915C159.533 178.457 161.64 169.379 165.053 167.317C167.76 165.7 170.427 165.315 172.893 165.845C176.893 166.693 180.333 169.927 182.307 174.096Z" fill="#29526D"/>
</svg>
