<svg width="209" height="209" viewBox="0 0 209 209" fill="none" xmlns="http://www.w3.org/2000/svg">
<path d="M192.568 159.776C187.003 168.586 180.331 176.258 172.86 182.757C172.388 183.162 171.916 183.567 171.444 183.962C171.089 184.258 170.723 184.559 170.356 184.857C170.001 185.145 169.644 185.433 169.288 185.713C167.429 187.196 165.533 188.601 163.597 189.931C163.289 190.141 162.972 190.353 162.655 190.556C161.364 191.432 160.055 192.269 158.727 193.079C157.821 193.628 156.916 194.167 155.992 194.686C155.453 194.995 154.895 195.304 154.345 195.601C153.941 195.822 153.527 196.044 153.093 196.256L152.959 196.322C150.976 197.364 148.953 198.345 146.893 199.251C146.663 199.356 146.421 199.463 146.181 199.568L145.912 199.684C145.565 199.838 145.217 199.981 144.872 200.127C144.063 200.464 143.255 200.791 142.436 201.108C142.089 201.233 141.752 201.368 141.405 201.493L141.232 201.562C140.963 201.676 140.673 201.772 140.395 201.879C140.212 201.947 140.028 202.014 139.837 202.081C139.712 202.129 139.585 202.177 139.451 202.225L139.124 202.341C138.527 202.552 137.931 202.755 137.324 202.957C136.485 203.227 135.648 203.496 134.811 203.745L134.781 203.756L134.473 203.853C134.223 203.929 133.973 203.996 133.723 204.075C133.039 204.265 132.365 204.459 131.672 204.643L131.393 204.709C131.104 204.795 130.805 204.872 130.517 204.94C130.256 205.008 129.997 205.076 129.737 205.141C129.603 205.172 129.468 205.209 129.332 205.239L129.024 205.315C128.467 205.451 127.908 205.576 127.349 205.71L127.195 205.748C126.405 205.921 125.607 206.095 124.817 206.251L124.759 206.258L124.461 206.317C120.831 207.02 117.183 207.529 113.504 207.839C112.868 207.907 112.252 207.944 111.617 207.983C110.992 208.04 110.365 208.069 109.74 208.088C108.739 208.156 107.747 208.176 106.745 208.195C106.533 208.204 106.321 208.213 106.12 208.204C105.84 208.224 105.561 208.224 105.283 208.213C105.06 208.224 104.84 208.233 104.608 208.233C104.165 208.233 103.713 208.224 103.269 208.213C100.796 208.186 98.3213 208.06 95.856 207.859C95.568 207.828 95.2693 207.81 94.98 207.771C91.7933 207.481 88.6253 207.039 85.448 206.443C85.208 206.395 84.9573 206.347 84.7066 206.298C84.4853 206.258 84.264 206.221 84.0426 206.183L83.8026 206.125C83.4266 206.048 83.06 205.971 82.6653 205.884L82.348 205.816C81.9053 205.72 81.472 205.624 81.0297 205.517C77.2937 204.651 73.577 203.564 69.9088 202.253C69.639 202.157 69.3697 202.061 69.1098 201.965C68.7254 201.831 68.3494 201.686 67.974 201.541C66.8286 201.108 65.6822 200.656 64.5464 200.175L64.4885 200.145L64.2578 200.049C63.7661 199.857 63.2849 199.644 62.7942 199.422C62.6593 199.365 62.5338 199.308 62.4088 199.24C62.0912 199.096 61.7734 198.962 61.465 198.808C61.1765 198.683 60.888 198.557 60.6088 198.421C60.3869 198.325 60.1661 198.22 59.9437 198.124C59.4822 197.893 59.0297 197.672 58.5765 197.449C58.2016 197.256 57.826 197.065 57.4505 196.872L57.239 196.765C56.8052 196.555 56.3724 196.313 55.9484 196.092L55.8234 196.024L55.6406 195.919C55.188 195.688 54.7453 195.448 54.3026 195.207C54.0426 195.063 53.7822 194.917 53.5229 194.764C52.9254 194.427 52.3193 194.08 51.7218 193.724C51.4724 193.571 51.2114 193.425 50.9614 193.262L50.9229 193.233L50.6724 193.088C50.3068 192.867 49.9412 192.645 49.5849 192.424C49.4302 192.328 49.2765 192.232 49.1224 192.136C48.9688 192.039 48.8041 191.933 48.651 191.838C48.3426 191.635 48.025 191.432 47.7265 191.24L47.7068 191.22L47.5245 191.095L47.3802 190.998L47.2254 190.893L47.1396 190.836L47.101 190.816C46.8213 190.643 46.562 190.469 46.3016 190.267C45.965 190.065 45.6469 189.844 45.3292 189.614L45.2614 189.565L45.1469 189.486C45.0021 189.381 44.8672 189.285 44.7322 189.188C44.5978 189.092 44.463 189.007 44.3369 188.92C44.1254 188.765 43.914 188.621 43.712 188.476L43.6442 188.419C42.8354 187.841 42.0458 187.253 41.276 186.646C40.7656 186.262 40.265 185.877 39.7645 185.481C39.553 185.319 39.35 185.145 39.1385 184.974C38.7432 184.655 38.3588 184.338 37.9734 184.019L37.6937 183.788C36.8666 183.104 36.0478 182.392 35.2588 181.66C34.6229 181.101 33.9973 180.524 33.3806 179.936C32.4276 179.051 31.4937 178.155 30.5896 177.232C29.9344 176.577 29.2989 175.903 28.6636 175.229L28.6156 175.171C27.6526 174.15 26.7281 173.11 25.8322 172.052C25.6306 171.84 25.4478 171.619 25.2645 171.407C23.7046 169.548 22.1932 167.651 20.7682 165.696C19.9697 164.598 19.1896 163.492 18.4286 162.367C18.2942 162.174 18.1693 161.98 18.0349 161.788C17.8224 161.469 17.6104 161.143 17.3984 160.816L17.35 160.729C16.1953 158.948 15.0874 157.128 14.0584 155.28C13.9333 155.077 13.8073 154.847 13.7021 154.616C12.9702 153.334 12.2964 152.027 11.6417 150.707C11.2078 149.831 10.7844 148.975 10.3702 148.097C8.95517 145.025 7.68437 141.907 6.56717 138.729C6.0573 137.256 5.56664 135.784 5.1229 134.281C5.0849 134.165 5.04637 134.051 5.0177 133.924C4.93117 133.617 4.83437 133.319 4.73797 133.001C4.4973 132.163 4.2661 131.316 4.0453 130.479C-2.95417 103.607 0.752105 74.0107 16.763 48.6907C47.4374 0.137388 111.665 -14.344 160.209 16.3307C208.763 47.0054 223.243 111.232 192.568 159.776Z" fill="#F7F2DA"/>
<path d="M104.743 140.28C102.596 142.648 99.592 145.614 96.02 148.859C95.6547 149.185 95.288 149.523 94.9133 149.86C94.0947 150.591 93.256 151.332 92.3907 152.084C87.8174 156.069 82.5987 160.305 77.1973 164.263L76.9276 164.465C76.3021 164.927 75.6766 165.379 75.0412 165.821C73.9719 166.601 72.8937 167.353 71.8156 168.084C70.8235 168.758 69.8318 169.422 68.8506 170.068C68.3979 170.357 67.9542 170.645 67.512 170.924C67.3672 171.021 67.2323 171.108 67.088 171.195L67.0407 171.224C66.7229 171.434 66.4047 171.628 66.0864 171.829C65.9328 171.925 65.7787 172.023 65.6251 172.129C61.7547 174.68 57.6719 179.263 53.6579 184.085C51.6547 186.493 49.6615 188.948 47.7265 191.24L47.7073 191.22L47.524 191.095L47.3803 190.998L47.226 190.893L47.1396 190.836L47.1011 190.816C46.8213 190.643 46.562 190.471 46.3016 190.267C45.9646 190.065 45.6474 189.844 45.3298 189.614L45.262 189.565L45.1464 189.486C45.0022 189.381 44.8672 189.285 44.7323 189.19C44.5973 189.092 44.4631 189.007 44.3369 188.919C44.1255 188.765 43.914 188.621 43.7115 188.476L43.6448 188.419C42.8355 187.841 42.0464 187.253 41.276 186.646C40.7656 186.261 40.2651 185.877 39.764 185.481C39.5527 185.319 39.3505 185.145 39.1385 184.972C45.9068 177.8 50.7588 172.235 53.0312 169.298C55.2464 166.428 57.5953 163.424 59.9536 160.42L60.1751 160.141L60.2912 159.997C61.8214 158.052 63.3527 156.117 64.874 154.22C65.5385 153.383 66.2125 152.545 66.8667 151.727C67.6177 150.793 68.3495 149.868 69.0812 148.973C69.1776 148.848 69.2735 148.733 69.3697 148.617L69.3798 148.597C71.623 145.834 73.7312 143.245 75.6188 140.981C77.6307 138.556 79.3927 136.496 80.75 134.965C80.9625 134.724 81.164 134.503 81.3573 134.291L81.3853 134.252H81.472C83.8893 134.088 84.544 136.861 86.9894 136.563C87.7974 136.468 88.7707 136.468 89.8293 136.525C90.1173 136.544 90.4174 136.573 90.724 136.601L90.8787 136.611C92.9107 136.804 95.192 137.199 97.3 137.671C101.547 138.613 105.128 139.856 104.743 140.28Z" fill="#FBA479"/>
<path d="M76.2635 160.036L69.3843 148.603C66.3745 152.324 63.1463 156.372 59.9573 160.422C59.9603 160.431 63.4218 168.562 65.6322 172.139C65.7838 172.038 65.9374 171.919 66.0879 171.826C67.9849 170.65 69.8994 169.395 71.813 168.086C74.1207 164.32 76.2635 160.036 76.2635 160.036Z" fill="#EF7950"/>
<path d="M130.517 204.94C130.256 205.008 129.997 205.076 129.737 205.141C129.603 205.172 129.468 205.209 129.332 205.239L129.024 205.315C128.467 205.451 127.908 205.576 127.349 205.71L127.195 205.749C126.405 205.921 125.607 206.095 124.817 206.251L124.759 206.258L124.461 206.317C120.831 207.02 117.183 207.529 113.504 207.839C112.868 207.907 112.252 207.944 111.617 207.983C110.992 208.04 110.365 208.069 109.74 208.088C108.739 208.156 107.747 208.176 106.745 208.195C106.533 208.204 106.321 208.213 106.12 208.204C105.84 208.224 105.561 208.224 105.281 208.213C105.06 208.224 104.839 208.233 104.608 208.233C104.165 208.233 103.713 208.224 103.269 208.213C100.796 208.186 98.3213 208.06 95.856 207.859C95.568 207.828 95.2693 207.809 94.98 207.771C91.7933 207.481 88.6253 207.039 85.448 206.443C85.208 206.395 84.9573 206.347 84.7067 206.298C84.4853 206.258 84.264 206.221 84.0427 206.183L83.8027 206.125C83.4267 206.048 83.06 205.971 82.6667 205.884L82.348 205.816C81.9053 205.72 81.472 205.624 81.0292 205.519C77.2937 204.651 73.5776 203.564 69.9088 202.253C69.6396 202.157 69.3697 202.061 69.1099 201.965C68.7251 201.831 68.3495 201.686 67.974 201.541C69.8803 192.029 71.6417 183.152 73.0573 175.941C73.1823 175.334 73.2979 174.748 73.4041 174.169C73.4328 174.044 73.4527 173.919 73.4812 173.804C73.7703 172.34 74.0396 170.964 74.2896 169.674C74.5593 168.286 74.8099 166.997 75.0412 165.821C75.0891 165.563 75.1375 165.321 75.1849 165.072C75.4453 163.713 75.6765 162.52 75.8593 161.538C75.936 161.135 76.0036 160.757 76.0708 160.42C76.1093 160.228 76.1385 160.045 76.1672 159.881L76.2057 159.68C76.6396 157.303 78.9787 138.661 80.75 134.965C80.8948 134.667 81.0292 134.473 81.164 134.377L81.3573 134.291L81.472 134.252C82.704 133.876 86.2867 134.06 90.8213 134.541C91.0613 134.571 91.3027 134.589 91.5427 134.619L91.8413 134.656C92.8133 134.763 93.8253 134.888 94.864 135.013H94.8747C97.8307 135.388 100.988 135.832 104.031 136.284L104.223 136.312C104.868 136.419 105.503 136.516 106.129 136.611C113.167 137.719 119.175 138.825 120.119 139.172C122.217 139.943 122.929 143.129 123.536 148.444C123.903 151.612 124.229 155.529 124.788 160.151C124.893 161.076 125.019 162.02 125.153 163.001V163.01C125.347 164.465 125.568 165.976 125.828 167.555C125.915 168.065 125.992 168.576 126.068 169.086C127.763 179.783 129.227 192.221 130.517 204.94Z" fill="white"/>
<path d="M107.101 123.245L105.296 131.327L104.195 136.259L90.032 139.176L91.276 135.432L96.2693 120.415L107.101 123.245Z" fill="#FBA479"/>
<path d="M86.156 150.865C84.8454 147.415 88.532 138.905 90.82 134.54C95.4454 135.028 101.052 135.819 106.128 136.612C108.692 149.693 87.8214 155.263 86.156 150.865Z" fill="#D8EBEF"/>
<path d="M104.196 136.26C102.973 134.016 101.888 134.148 99.992 134.772C99.992 134.772 93.7333 133.799 92.144 134.377C91.1786 134.728 86.5786 145.379 87.1773 148.921C88 153.786 110.223 147.322 104.196 136.26Z" fill="#FBA479"/>
<path d="M107.101 123.245L105.296 131.327C101.137 133.896 94.7227 135.124 92.556 135.419C92.5267 135.425 91.9653 135.428 91.276 135.432L96.2693 120.415L107.101 123.245Z" fill="#EF7950"/>
<path d="M90.684 100.184L83.024 95.4361C80.3735 98.5481 79.7703 98.4267 77.2047 101.789C73.6126 106.496 70.2954 112.084 64.6746 115.375C68.0479 119.703 84.736 132.699 95.8147 123.883C91.0254 116.911 92.2 108.063 90.684 100.184Z" fill="#721F17"/>
<path d="M135.209 91.552C130.455 81.42 119.528 75.2854 108.731 73.2587C98.2786 71.3 91.6733 80.1787 88.8626 84.7467C86.248 88.9947 83.5666 91.052 79.8713 94.288C76.3672 97.3574 73.7172 101.955 74.9088 107.017C76.1713 112.38 82.4346 127.296 85.4546 128.56C96.7466 133.284 123.688 133.257 131.315 124.247C138.6 115.639 139.937 101.629 135.209 91.552Z" fill="#FBA479"/>
<path d="M90.4013 102.751C90.4013 102.751 86.044 104.535 87.7947 106.163C88.9133 107.203 90.3333 107.781 91.812 108.072C90.532 106.961 87.8333 104.248 90.4013 102.751Z" fill="#EF7950"/>
<path d="M85.7227 91.6734C85.5627 92.8027 85.2414 96.2827 86.984 97.6147C88.932 99.1 93.2427 97.9014 93.8614 97.7214L93.94 97.6814L93.9534 97.632C94.0894 96.9827 94.684 92.2774 92.7067 90.7707C90.9814 89.452 86.3574 91.8534 85.7227 91.6734Z" fill="#EF7950"/>
<path d="M85.6907 91.6587L85.7627 91.4041L85.7934 91.3014L85.7761 91.3254C85.6347 91.5161 85.6134 91.6201 85.6907 91.6587Z" fill="#EF7950"/>
<path d="M85.7774 91.3093L85.776 91.3253L85.7627 91.404L85.7227 91.6734C85.5627 92.8027 85.2414 96.2827 86.984 97.6147C88.932 99.1 93.2427 97.9014 93.8614 97.7214L93.9387 97.6947L93.94 97.6814L93.9534 97.632C94.1947 96.88 96.6774 89.6814 94.6947 88.168C92.6614 86.616 86.136 91.1014 85.7934 91.3014L85.7774 91.3093Z" fill="white"/>
<path d="M87.8694 92.3627C86.8094 94.8227 87.2067 97.356 88.756 98.0254C90.3054 98.6934 92.42 97.24 93.4814 94.7814C94.54 92.3214 94.1427 89.7867 92.5933 89.1187C91.044 88.452 88.9307 89.904 87.8694 92.3627Z" fill="#3527BA"/>
<path d="M88.9493 92.4214C88.364 93.78 88.584 95.1814 89.44 95.5494C90.296 95.9174 91.464 95.116 92.0506 93.7574C92.636 92.3987 92.4159 90.9974 91.5599 90.6294C90.7039 90.26 89.5346 91.0614 88.9493 92.4214Z" fill="#27237C"/>
<path d="M94.572 92.7201L91.9854 92.4481C91.9854 92.4481 93.3347 94.7868 94.06 94.6028C94.532 94.4801 94.572 92.7201 94.572 92.7201Z" fill="white"/>
<path d="M93.9427 97.6814C94.0174 97.408 95.3347 93.668 95.448 90.8907C95.4654 90.5387 95.456 90.196 95.4267 89.8827C95.3827 89.432 95.2894 89.0294 95.1294 88.712C95.0174 88.488 94.8747 88.3054 94.6934 88.1667C94.012 87.6467 92.8267 87.8054 91.5334 88.2574C88.98 89.1414 86.024 91.1694 85.796 91.3027C85.996 91.1347 87.8054 88.8694 90.0667 87.1147C90.2 87.0094 90.3347 86.908 90.4734 86.8067C90.944 86.464 91.432 86.1467 91.9294 85.88L92.1534 85.7614C92.8787 85.3947 93.6174 85.1387 94.3294 85.0707L94.3614 85.0694C95.1574 84.992 95.9294 85.1494 96.6294 85.632C100.891 88.572 94.152 97.216 93.9427 97.6814Z" fill="#EF7950"/>
<path d="M85.6906 91.6587C85.3333 92.964 84.2586 97.4787 86.048 98.844C88.0066 100.335 93.16 98.0494 93.8613 97.7214C93.2426 97.9014 88.932 99.1 86.984 97.6147C85.2413 96.2827 85.5626 92.8014 85.7226 91.6734L85.6906 91.6587Z" fill="#EF7950"/>
<path d="M104.16 105.745C104.073 106.932 103.977 110.583 105.989 112.117C108.216 113.816 112.777 112.913 113.523 112.745L113.629 112.701L113.639 112.651C113.74 111.975 114.045 107.049 111.763 105.311C109.769 103.787 104.861 105.988 104.16 105.745Z" fill="#EF7950"/>
<path d="M104.131 105.733L104.187 105.489L104.217 105.361L104.196 105.391C104.056 105.579 104.041 105.689 104.131 105.733Z" fill="#EF7950"/>
<path d="M104.197 105.368L104.196 105.391L104.187 105.489L104.16 105.745C104.073 106.932 103.977 110.583 105.989 112.117C108.216 113.816 112.777 112.913 113.523 112.745L113.628 112.724L113.629 112.701L113.639 112.651C113.836 111.893 115.969 104.555 113.675 102.807C111.329 101.016 104.576 105.175 104.217 105.361L104.197 105.368Z" fill="white"/>
<path d="M113.299 109.164C112.195 111.603 109.864 112.932 108.091 112.131C106.315 111.327 105.772 108.7 106.873 106.259C107.976 103.819 110.309 102.489 112.084 103.293C113.859 104.095 114.401 106.723 113.299 109.164Z" fill="#3527BA"/>
<path d="M111.451 108.245C110.584 109.56 109.105 110.115 108.148 109.483C107.193 108.852 107.121 107.273 107.989 105.959C108.857 104.643 110.337 104.089 111.293 104.72C112.251 105.352 112.32 106.931 111.451 108.245Z" fill="#27237C"/>
<path d="M114.455 105.668L111.669 106.688C111.669 106.688 114.3 108.079 114.94 107.564C115.357 107.229 114.455 105.668 114.455 105.668Z" fill="white"/>
<path d="M113.629 112.703C113.717 112.3 116.028 104.603 113.672 102.807C111.328 101.016 104.579 105.175 104.217 105.361C104.619 105.045 111.024 96.9173 115.683 100.175C120.579 103.596 113.828 112.233 113.629 112.703Z" fill="#EF7950"/>
<path d="M104.131 105.733C103.836 107.091 102.995 111.771 105.052 113.347C107.292 115.055 112.701 113.075 113.523 112.745C112.777 112.913 108.216 113.816 105.989 112.117C103.977 110.583 104.073 106.932 104.16 105.745L104.131 105.733Z" fill="#EF7950"/>
<path d="M117.984 98.028C116.945 97.1 115.168 96.8347 114.345 98.1013C115.659 97.6507 118.787 101.8 119.396 102.619C119.396 102.619 118.677 98.6453 117.984 98.028Z" fill="#721F17"/>
<path d="M98.6386 82.6387C99.8066 83.3961 100.532 85.0401 99.5279 86.1667C99.6159 84.7827 94.7893 82.8601 93.8359 82.4894C93.8359 82.4894 97.8586 82.1334 98.6386 82.6387Z" fill="#721F17"/>
<path d="M82.2186 107.541C84.28 112.731 85.8626 120.857 92.556 122.061C97.4426 122.94 103.183 119.187 106.099 115.713C105.024 116.124 82.2186 107.541 82.2186 107.541Z" fill="#60281F"/>
<path d="M105.487 115.308C104.767 115.583 104.371 117.119 103.512 117.475C102.417 117.927 90.0454 117.081 86.7854 113.936C86.4134 113.577 85.9841 111.885 85.7094 110.409L85.7054 110.397C85.5361 109.515 85.4121 108.728 85.3374 108.401L91.9241 110.657L91.9561 110.677L104.779 115.065L105.487 115.308Z" fill="white"/>
<path d="M99.492 121.881C99.4026 122.02 99.256 122.149 99.0893 122.26L99.076 122.269C97.048 123.152 94.7547 123.504 92.356 122.697C91.3933 122.38 90.5413 121.975 89.6907 121.485C88.1413 120.599 86.9493 119.281 85.9813 117.756C86.264 117.651 86.5573 117.575 86.764 117.532L86.8733 117.517C87.864 117.341 88.8773 117.655 89.8467 117.852C90.716 118.028 91.3773 118.349 92.1427 118.791C92.516 119.003 93.0467 119.425 93.404 119.56C93.9107 119.755 94.728 119.572 95.3187 119.725C96.4453 120.012 97.4787 120.257 98.4787 120.768C98.72 120.885 98.96 121.028 99.1987 121.184C99.6627 121.491 99.7426 121.48 99.492 121.881Z" fill="#EA6453"/>
<path d="M98.484 120.773H98.4746L98.128 120.908C97.388 121.196 96.636 121.417 95.8853 121.563C95.4426 121.649 94.9893 121.717 94.556 121.736C93.892 121.775 93.256 121.747 92.6306 121.631C92.3906 121.583 92.16 121.533 91.928 121.467C91.292 121.304 90.6866 121.052 90.1173 120.735C88.7893 119.965 87.74 118.839 86.8733 117.52C85.448 115.353 84.5146 112.676 83.648 110.193C83.4173 109.528 83.196 108.903 82.9733 108.296C83.7346 108.576 84.5826 108.893 85.4866 109.229H85.4973C87.268 109.884 89.2506 110.625 91.292 111.367C91.4853 111.444 91.6973 111.512 91.8986 111.579L91.9373 111.588C96.5586 113.273 101.277 114.919 103.992 115.691H104.001C104.309 115.776 104.588 115.855 104.839 115.912H104.849C104.993 115.96 105.119 115.988 105.244 116.017C103.481 117.923 101.045 119.715 98.484 120.773ZM91.812 110.463C88.404 109.316 85.0253 108.132 82.3773 107.131L81.444 106.784L81.8186 107.708C82.156 108.556 82.4733 109.489 82.8306 110.472C83.6773 112.927 84.6013 115.555 85.988 117.76C86.3533 118.328 86.7386 118.876 87.172 119.377C87.8933 120.205 88.7226 120.927 89.6946 121.485C90.5413 121.976 91.3986 122.381 92.352 122.699C93.372 123.045 94.3733 123.171 95.336 123.141H95.3653C96.6746 123.103 97.9173 122.767 99.072 122.265H99.0906C99.5826 122.053 100.064 121.804 100.527 121.525C104.396 119.271 107.005 115.449 107.005 115.449C107.005 115.449 99.3506 113.024 91.812 110.463Z" fill="#EF7950"/>
<path d="M89.4974 123.016C89.0547 122.972 87.7707 123.117 87.524 123.62C87.28 124.108 87.86 124.667 88.0787 125.157C89.7494 124.241 91.5814 124.127 93.1387 125.153C92.404 124.14 90.7214 123.141 89.4974 123.016Z" fill="#EF7950"/>
<path d="M109.801 124.889C107.808 124.268 106.415 122.959 106.332 121.38C106.211 119.048 108.985 117.008 112.529 116.824C112.703 116.815 112.876 116.811 113.048 116.811C115.288 116.811 117.245 117.58 118.312 118.765C115.703 120.964 112.7 123.101 109.801 124.889Z" fill="#FA8E6E"/>
<path d="M82.3106 105.945C80.6587 105.945 79.0021 104.148 78.463 101.656C77.8707 98.9267 78.8463 96.3973 80.6417 96.0107C80.7994 95.976 80.9583 95.96 81.1171 95.96C82.7666 95.96 84.4239 97.7573 84.9653 100.247C85.5559 102.977 84.5799 105.505 82.7866 105.895C82.6279 105.928 82.4693 105.945 82.3106 105.945Z" fill="#FA8E6E"/>
<path d="M95.4321 90.992L95.4267 89.8827L95.4254 89.7081L95.1294 88.712C95.0174 88.488 94.8747 88.3054 94.6934 88.1667C94.0121 87.6467 92.8267 87.8054 91.5334 88.2574C91.1441 87.9814 90.5774 87.572 90.0667 87.1147C89.5307 86.6334 89.0561 86.1014 88.8894 85.612C89.0667 86.056 89.7241 86.4667 90.4734 86.8067C91.7134 87.376 93.2094 87.748 93.2094 87.748C92.8747 87.2214 92.1841 86.5467 91.9294 85.88C91.8334 85.632 91.7987 85.3814 91.8694 85.1414C91.8894 85.3507 91.9961 85.556 92.1534 85.7614C92.6667 86.4174 93.7374 87.0294 94.3041 87.6494C94.1881 87.2454 94.0107 86.6547 93.9961 86.4307C93.9641 85.972 94.1254 85.4827 94.3294 85.0707L94.3734 84.984L94.3614 85.0694C94.2414 85.856 94.4441 86.528 94.7614 87.2654C94.8881 87.5534 95.0681 87.9467 95.2134 88.3347C95.1734 87.5734 95.4747 86.8161 96.0174 86.2747C95.9161 86.5841 95.7401 86.864 95.6854 87.1907C95.6107 87.6374 95.5347 88.1227 95.5401 88.5774C95.5441 88.836 95.5721 89.0907 95.5734 89.3467C95.8481 88.6934 96.1121 88.0241 96.6974 87.5747C96.1334 88.5881 95.6214 89.76 95.4481 90.8907L95.4321 90.992Z" fill="#8E3E28"/>
<path d="M114.701 105.681C114.701 105.681 114.641 103.985 114.241 103.5C114.113 103.269 113.875 102.953 113.675 102.807C112.925 102.259 111.575 102.275 110.2 102.691C109.772 102.4 109.373 102.063 108.809 101.584C108.22 101.079 107.691 100.525 107.497 100.024C107.701 100.479 108.421 100.917 109.237 101.285C110.588 101.9 112.208 102.323 112.208 102.323C111.832 101.779 111.068 101.075 110.775 100.392C110.663 100.137 110.617 99.8827 110.685 99.64C110.713 99.8534 110.835 100.067 111.011 100.279C111.583 100.957 112.753 101.613 113.381 102.257C113.244 101.845 113.035 101.241 113.012 101.016C112.964 100.548 113.123 100.059 113.328 99.6467L113.373 99.5614L113.363 99.6454C113.257 100.44 113.499 101.127 113.863 101.884C114.007 102.18 114.212 102.584 114.381 102.98C114.313 102.208 114.615 101.451 115.181 100.919C115.081 101.229 114.901 101.508 114.853 101.836C114.785 102.287 114.72 102.776 114.741 103.236C114.753 103.499 114.791 103.757 114.801 104.017C115.075 103.364 115.337 102.695 115.953 102.257C115.379 103.267 114.864 104.437 114.715 105.579L114.701 105.681Z" fill="#8E3E28"/>
<path d="M136.177 121.223C133.565 119.868 131.177 119.423 128.437 120.469C126.08 121.367 120.871 127.377 120.871 127.377C118.345 130.108 121.581 133.149 124.311 133.499C127.709 133.935 131.887 132.959 134.885 131.537C139.671 129.273 142.16 124.327 136.177 121.223Z" fill="#FBA479"/>
<path d="M133.455 121.848C132.105 121.507 129.68 121.331 129.413 123.063C129.255 124.073 129.452 125.528 128.548 126.416C127.819 127.131 124.975 127.116 124.423 125.94C124.423 125.94 126.627 129.704 128.633 129.071C130.62 128.441 131.121 125.831 130.671 123.853C132.387 123.117 137.832 125.589 136.489 127.76C136.581 127.641 136.677 127.525 136.764 127.403C138.748 124.581 136.041 122.497 133.455 121.848Z" fill="#EF7950"/>
<path d="M116.725 75.1761C112.301 76.0467 109.12 70.9921 105.123 70.5494C83.5653 68.1667 83.8853 87.8574 83.424 91.2814C84.1066 90.6934 87.544 86.7227 88.8893 85.6121C91.752 83.2481 94.8253 81.2587 98.272 79.6374C104.281 76.8107 112.736 77.2787 118.699 79.9894L116.725 75.1761Z" fill="#721F17"/>
<path d="M132.307 138.961C132.652 136.928 132.94 134.837 133.375 132.868C132.639 134.496 131.584 136.115 130.845 137.38C130.579 137.844 130.255 138.417 129.891 139.037C127.565 139.005 125.073 138.7 122.56 138.204C124.348 134.881 126.859 131.776 128.323 128.295C127.309 130.484 124.939 132.583 123.332 134.137C122.525 134.911 121.259 136.333 119.88 137.608C111.397 135.519 103.28 131.604 101.145 129.173C108.085 127.001 122.687 117.02 125.352 110.631C128.273 103.632 125.087 97.1174 123.607 97.1041C121.24 97.0787 121.167 98.6721 121.109 100.539C119.816 98.6947 118.163 95.7947 119.389 93.4867C120.685 91.0534 123.572 90.6681 125.768 91.7374C125.087 84.2587 106.975 83.3267 109.392 92.0934C106.687 89.7614 106.241 85.7507 107.543 82.8614C108.904 79.8387 112.471 77.9547 115.787 77.5094C157.04 71.9747 144.48 122.028 142.172 132.067C141.129 136.597 137.279 138.563 132.307 138.961Z" fill="#721F17"/>
<path d="M120.16 76.308C118.517 76.4214 115.927 74.932 114.713 73.8787C113.056 72.4387 112.271 70.1214 110.669 68.58C107.799 65.8147 101.297 64.3734 99.6506 69.3627C100.401 68.8067 101.692 69.428 102.373 69.9267C104.368 71.384 105.356 73.824 107.409 75.3507C111.153 78.1334 115.303 78.264 119.737 77.932L120.16 76.308Z" fill="#721F17"/>
<path d="M114.636 77.2134L105.999 71.524C103.739 71.1307 102.539 73.916 101.868 75.9014C101.011 78.4347 103.177 82.0907 105.253 83.5587C102.308 79.1667 111.836 76.808 114.636 77.2134Z" fill="#721F17"/>
<path d="M113.499 76.9881C117.544 93.9774 140.601 108.295 145.513 109.84C145.513 109.84 147.979 104.472 151.42 96.7987C152.544 94.2947 153.772 91.5441 155.049 88.6534V88.6494C159.988 77.4987 165.699 64.2707 169.211 55.0681C170.379 52.0041 171.304 49.3854 171.875 47.4387C171.945 47.1894 172.016 46.9494 172.077 46.7214C171.365 46.8161 169.355 47.5627 166.48 48.7641C163.944 49.8281 160.733 51.2481 157.153 52.8867L157.148 52.8881C155.209 53.7761 153.161 54.7281 151.053 55.7227C144.685 58.7374 137.767 62.1374 131.624 65.344C129.619 66.3907 127.699 67.412 125.903 68.396C119.437 71.936 114.635 74.9347 113.665 76.4214C113.52 76.6467 113.461 76.8374 113.499 76.9881Z" fill="#82BC44"/>
<path d="M150.095 93.8441L148.189 97.2801L151.42 96.7987C152.544 94.2947 153.772 91.5441 155.049 88.6534V88.6494L155.008 88.3147L152.203 91.0721L148.343 90.3201L150.095 93.8441Z" fill="white"/>
<path d="M155.052 70.1014L151.132 69.7987L149.157 66.3974L147.659 70.0334L143.813 70.8614L146.808 73.4094L146.405 77.3214L149.756 75.2614L153.352 76.852L152.428 73.0294L155.052 70.1014Z" fill="white"/>
<path d="M125.903 68.396L126.488 68.8934L126.084 72.8027L129.433 70.744L133.029 72.3347L132.105 68.5134L134.731 65.584L131.624 65.344C129.619 66.3907 127.697 67.412 125.903 68.396Z" fill="white"/>
<path d="M139.579 85.892L135.659 85.588L133.684 82.188L132.185 85.824L128.34 86.6507L131.335 89.2014L130.933 93.1107L134.283 91.0507L137.879 92.6427L136.953 88.8187L139.579 85.892Z" fill="white"/>
<path d="M151.053 55.7228L151.876 56.4241L151.476 60.3347L154.827 58.2774L158.421 59.8667L157.499 56.0467L160.123 53.1161L157.153 52.8867L157.148 52.8881C155.209 53.7761 153.161 54.7281 151.053 55.7228Z" fill="white"/>
<path d="M166.317 51.532L169.309 54.08L169.211 55.068C170.379 52.004 171.304 49.3854 171.875 47.4387L171.66 47.0707L170.16 50.7054L166.317 51.532Z" fill="white"/>
<path d="M145.513 109.84C140.619 108.3 117.715 94.0827 113.544 77.1774C113.529 77.1134 113.513 77.0521 113.499 76.9881C113.491 76.9574 113.488 76.9254 113.488 76.892C113.489 76.7587 113.549 76.6001 113.665 76.4214L113.704 76.5401C115.175 81.0534 117.164 83.0987 120.577 86.0334C123.64 88.6627 127.156 90.9947 130.996 92.4867H130.997L130.933 93.1107L131.587 92.7081C134.088 93.6227 136.728 94.1747 139.46 94.2201C139.529 94.2214 139.599 94.2214 139.667 94.2214C145.105 94.2214 147.852 90.4574 150.641 86.3147C155.651 78.8827 158.633 70.3294 161.957 62.0401C163.457 58.2974 164.627 54.3721 165.957 50.5654C166.144 50.0294 166.312 49.4187 166.48 48.7641C169.355 47.5627 171.365 46.8161 172.077 46.7214C172.016 46.9494 171.945 47.1894 171.875 47.4387L171.66 47.0707L170.16 50.7054L166.317 51.5321L169.309 54.0801L169.211 55.0681C165.699 64.2707 159.988 77.4987 155.049 88.6494L155.008 88.3147L152.203 91.0721L148.343 90.3201L150.095 93.844L148.189 97.28L151.42 96.7987C147.979 104.472 145.513 109.84 145.513 109.84Z" fill="#4EA825"/>
<path d="M148.189 97.2801L150.095 93.8441L148.343 90.3201L152.203 91.0721L155.008 88.3147L155.049 88.6494V88.6534C153.772 91.5441 152.544 94.2947 151.42 96.7987L148.189 97.2801Z" fill="#9AE48D"/>
<path d="M130.933 93.1107L130.997 92.4867C131.192 92.5667 131.388 92.6427 131.587 92.708L130.933 93.1107Z" fill="#9AE48D"/>
<path d="M169.211 55.068L169.309 54.08L166.317 51.532L170.16 50.7054L171.66 47.0707L171.875 47.4387C171.304 49.3854 170.379 52.004 169.211 55.068Z" fill="#9AE48D"/>
<path d="M119.32 144.723L105.012 159.11C104.093 166.731 106.077 180.252 110.879 187.781C115.232 194.608 119.189 192.46 122.059 185.531C127.329 172.808 124.969 151.8 119.32 144.723Z" fill="#D8EBEF"/>
<path d="M131.392 204.709C131.104 204.796 130.805 204.872 130.517 204.94C130.256 205.008 129.997 205.076 129.737 205.141C129.603 205.172 129.468 205.209 129.332 205.239L129.024 205.315C128.467 205.451 127.908 205.576 127.349 205.71C127.388 200.802 127.368 195.88 127.368 190.864C127.377 187.61 125.78 173.785 126.068 169.085C126.127 168.277 126.232 167.739 126.416 167.575L126.733 167.555C128.504 178.521 130.045 191.461 131.392 204.709Z" fill="#D8EBEF"/>
<path d="M122.06 179.698C120.024 184.616 117.437 187.127 114.551 185.729L114.548 185.727C113.371 185.152 112.14 183.928 110.877 181.948C108.047 177.51 106.197 170.989 105.344 164.825C105.217 163.907 105.109 162.995 105.029 162.1C104.723 158.809 104.716 155.737 105.015 153.277L119.783 140.027C122.717 143.701 124.639 150.837 125.071 158.629C125.468 165.828 124.592 173.588 122.06 179.698Z" fill="#FBA479"/>
<path d="M58.5469 116.813L56.8959 124.98C57.414 123.956 58.4183 122.872 58.8885 122.265C59.7031 121.217 60.6307 120.272 61.0271 119.005C61.4973 117.504 61.25 115.957 61.562 114.451C61.7588 113.497 62.4995 112.683 62.6609 111.805C59.974 111.044 58.8355 114.853 58.5469 116.813Z" fill="#FBA479"/>
<path d="M56.6084 126.403L56.8958 124.98C56.6374 125.491 56.4978 125.987 56.6084 126.403Z" fill="#FBA479"/>
<path d="M31.2724 116.855L31.3203 116.941L31.3016 117.028L31.436 116.951L31.5907 116.989C31.7735 117.124 31.8213 117.307 31.8307 117.404C31.8407 117.5 31.8505 117.683 31.7057 117.865C31.5229 118.107 31.2631 118.26 30.9552 118.308C30.714 118.337 30.4828 118.3 30.2713 118.184L31.2724 116.855ZM59.8093 113.12L59.376 111.839L59.0203 110.78C57.5369 111.28 55.9297 111.501 54.2636 111.521C53.5317 111.531 52.7812 111.492 52.0303 111.424C51.7803 111.405 51.5292 111.387 51.2792 111.348L51.0193 111.319L50.9713 111.308C50.7688 111.291 50.5573 111.26 50.3453 111.223C50.1432 111.195 49.9317 111.165 49.7292 111.127C49.2672 111.049 48.8047 110.963 48.3421 110.857C48.2177 110.837 48.0921 110.808 47.9677 110.769C47.7364 110.721 47.4953 110.664 47.264 110.607C46.1568 110.337 45.0787 110.009 44.0579 109.663C43.1057 109.345 42.1907 108.999 41.3432 108.641H41.3339C40.0339 108.113 38.8781 107.555 37.9349 107.053C36.9531 106.533 35.9136 106.177 34.8349 105.995C34.6136 105.956 34.4016 105.917 34.1803 105.899C33.776 105.851 33.362 105.821 32.9573 105.821H32.938C29.4432 105.803 25.9193 107.391 23.724 110.279C20.6145 114.38 21.4136 120.263 25.5251 123.383C26.5932 124.192 27.8156 124.683 29.0677 124.865L29.2604 124.895C29.414 124.915 29.5683 124.932 29.7229 124.943C31.0604 125.028 32.3989 124.759 33.612 124.183C33.8812 124.047 34.1417 123.903 34.3917 123.749C34.6427 123.584 34.8927 123.412 35.124 123.219C35.5959 122.833 36.0188 122.381 36.4041 121.88C38.5803 119.031 38.0125 114.939 35.162 112.772C34.1703 112.023 32.9964 111.656 31.8407 111.656L31.5708 111.675C30.0016 111.743 28.4807 112.484 27.4593 113.832C25.9005 115.883 26.3047 118.828 28.3645 120.388C28.8464 120.753 29.3755 120.995 29.9245 121.111L30.2235 121.168L30.4349 121.188C30.8588 121.225 31.2917 121.196 31.7057 121.1L31.7536 121.091C32.6203 120.879 33.4391 120.388 34.0161 119.619C34.5849 118.867 34.8251 117.943 34.7 117.009C34.9792 118.059 34.8063 119.204 34.1027 120.139C32.938 121.669 31.0417 122.313 29.2703 121.968H29.2505C29.0869 121.928 28.9235 121.891 28.75 121.832L28.6828 121.813C28.5385 121.765 28.3844 121.707 28.2396 121.639L27.9031 121.476L27.614 121.304L27.2677 121.072C26.8536 120.753 26.4969 120.399 26.1697 120.013L25.9391 119.704C25.7943 119.512 25.6693 119.301 25.5437 119.088C24.3307 116.913 24.4369 114.131 26.0355 112.031C26.8339 110.972 27.864 110.153 29.0099 109.595L29.3276 109.451C29.7229 109.268 30.1364 109.124 30.5511 109.008C30.6755 108.979 30.8011 108.951 30.9161 108.921C31.0803 108.883 31.2432 108.845 31.4167 108.825C31.5708 108.797 31.7251 108.777 31.8792 108.757C32.1484 108.719 32.4183 108.709 32.6973 108.7C34.036 108.681 35.374 108.971 36.5677 109.615C36.9531 109.816 38.1661 110.452 39.9276 111.195C42.0265 112.08 44.9057 113.12 48.064 113.773C51.7417 114.533 55.8235 114.785 59.5016 113.659C59.6557 113.62 59.8 113.572 59.9437 113.524L59.8093 113.12Z" fill="#FF2C2C"/>
<path d="M24.7547 111.945C22.5973 114.785 23.1563 118.839 25.9869 120.985C26.9588 121.727 28.1245 122.044 29.2505 121.968C29.0776 121.928 28.9136 121.891 28.75 121.832L28.6828 121.813C28.5287 121.765 28.3844 121.707 28.2396 121.639L27.9031 121.476L27.614 121.304L27.2677 121.072C26.8536 120.753 26.4875 120.399 26.1697 120.013L25.9391 119.704C25.7943 119.503 25.6593 119.301 25.5437 119.088C24.3307 116.913 24.4369 114.131 26.0355 112.031C26.8339 110.972 27.864 110.153 29.0099 109.595L29.3276 109.451C29.7229 109.268 30.1364 109.124 30.5511 109.008C30.6755 108.979 30.8011 108.94 30.9161 108.921C31.0803 108.883 31.2432 108.845 31.4167 108.825C31.5708 108.797 31.7251 108.767 31.8792 108.757C32.1484 108.719 32.4183 108.709 32.6973 108.7C29.7708 108.296 26.6125 109.489 24.7547 111.945ZM33.4193 116.932C33.5448 117.857 33.3041 118.791 32.736 119.531C32.0235 120.465 31.0027 120.995 29.9245 121.111L30.2235 121.168L30.4349 121.188C30.8588 121.225 31.2917 121.196 31.7057 121.1H31.7344L31.7536 121.091C32.1396 120.803 32.514 120.456 32.8229 120.061C33.5156 119.128 33.6984 117.972 33.4193 116.932ZM35.162 112.772C34.1703 112.023 32.9964 111.656 31.8407 111.656L31.5421 111.665L31.5708 111.675C32.3797 111.819 33.1792 112.156 33.8719 112.695C36.7312 114.861 37.2896 118.944 35.124 121.804C33.6312 123.777 31.3688 124.836 29.0677 124.865L29.2604 124.895C29.414 124.915 29.5683 124.932 29.7229 124.943C31.0604 125.028 32.3989 124.759 33.612 124.183C33.8812 124.047 34.1417 123.903 34.3917 123.749C34.6427 123.584 34.8927 123.412 35.124 123.219C35.5959 122.833 36.0188 122.381 36.4041 121.88C38.5803 119.031 38.0125 114.939 35.162 112.772ZM51.2792 111.348L51.0193 111.319L50.9713 111.308C50.7688 111.291 50.5573 111.26 50.3453 111.223C50.1432 111.195 49.9407 111.165 49.7292 111.127C49.2672 111.049 48.8047 110.963 48.3421 110.857C48.2177 110.837 48.0921 110.808 47.9677 110.78C47.7265 110.721 47.4953 110.664 47.264 110.607C46.1568 110.337 45.0787 110.009 44.0579 109.663C43.1057 109.345 42.1907 108.999 41.3432 108.641H41.3339C40.0339 108.113 38.8781 107.555 37.9349 107.053C36.9531 106.533 35.9136 106.177 34.8349 105.995C34.6136 105.956 34.4016 105.917 34.1803 105.899C33.776 105.851 33.362 105.821 32.9573 105.821C34.238 105.975 35.4995 106.351 36.6541 106.976C37.8484 107.612 39.3885 108.324 41.1312 108.988C41.9688 109.316 42.8645 109.624 43.7885 109.913C45.1172 110.327 46.5229 110.693 47.938 110.953C48.5355 111.069 49.1417 111.165 49.7391 111.232C50.5088 111.339 51.2693 111.396 52.0303 111.424C51.7803 111.405 51.5292 111.387 51.2792 111.348Z" fill="#E80F0F"/>
<path d="M64.5907 115.261C64.5907 115.261 62.1584 116.464 52.364 115.325C45.3303 114.508 39.8599 111.157 39.8599 111.157L41.3303 108.644L64.9099 110.111L64.5907 115.261Z" fill="#FF8080"/>
<path d="M65.8776 115.501C65.8317 116.236 65.2005 116.795 64.4667 116.748C63.7323 116.703 63.1745 116.071 63.2197 115.337L63.5527 109.984C63.5984 109.251 64.2307 108.693 64.9645 108.739C65.6984 108.784 66.2568 109.416 66.2109 110.149L65.8776 115.501Z" fill="#FF8080"/>
<path d="M62.5463 111.381C62.5239 111.741 62.2145 112.013 61.8557 111.989L44.3041 110.899C43.9458 110.876 43.6739 110.568 43.6958 110.209C43.7182 109.851 44.0265 109.579 44.3849 109.6L61.9369 110.692C62.2958 110.713 62.5682 111.023 62.5463 111.381Z" fill="#F2F2F2"/>
<path d="M58.5193 108.64C56.8719 107.536 57.1303 107.556 55.312 108.451C54.8027 108.7 53.8172 107.732 53.2328 107.759C52.3312 107.803 51.5265 108.865 50.8645 109.116C49.5027 109.631 49.8084 108.84 48.5104 109.733C46.2323 111.301 50.9609 124.504 51.5645 125.807C53.1932 125.868 55.6636 124.935 57.2683 124.405C57.3052 122.517 60.9713 112.653 60.9401 110.231C60.9203 108.729 59.7527 109.467 58.5193 108.64Z" fill="#FBA479"/>
<path d="M78.1547 166.237C76.7484 167.281 74.3255 169.986 72.7803 170.69C72.5776 170.781 72.3776 170.869 72.1869 170.952C72.0027 171.031 71.8255 171.107 71.6511 171.177C70.664 171.577 69.7631 171.857 68.6651 172.028C68.4588 172.063 68.2469 172.091 68.0213 172.116L67.8527 172.136L67.6531 171.917C65.5568 169.627 63.012 166.037 62.0312 164.098C59.0651 158.24 56.914 152.104 55.4484 145.69C55.0104 143.772 53.7636 137.24 52.7198 131.939C52.6948 131.805 52.6661 131.672 52.6407 131.541C52.6151 131.383 52.5834 131.231 52.549 131.079V131.076L52.5235 130.955L52.5203 130.945V130.943L52.5172 130.929C52.0126 128.385 51.5713 126.237 51.3177 125.203L57.4792 123.176C57.1901 125.149 69.1005 147.909 75.9943 161.821C76.7907 163.427 77.5203 164.915 78.1547 166.237Z" fill="#FBA479"/>
<path d="M125.071 158.629C124.919 159.802 124.668 160.768 124.313 161.428C122.832 164.179 119.351 154.6 109.741 161.729L109.611 161.828C108.253 162.85 106.823 163.856 105.344 164.826C99.116 168.928 92.0693 172.48 86.1907 174.641C81.2516 176.46 77.136 177.297 75.0136 176.656C66.9745 174.222 65.6672 168.489 66.1145 168.201C67.5776 167.247 73.5735 165.838 78.8079 163.753C96.8893 156.562 117.283 138.588 120.115 139.176C123.868 139.949 125.909 152.262 125.071 158.629Z" fill="#FBA479"/>
<path d="M72.3677 173.271L72.8437 173.748C74.9578 175.417 77.1797 176.444 79.2921 174.057C77.2349 174.898 74.2281 174.385 72.3677 173.271Z" fill="#EF7950"/>
<path d="M109.021 173.862C109.469 178.075 111.381 182.712 114.548 185.727C113.371 185.152 112.14 183.928 110.877 181.948C108.047 177.51 106.197 170.989 105.344 164.826C99.1159 168.928 92.0693 172.48 86.1906 174.641L86.0093 174.54C88.9893 172.48 97.8719 166.704 105.029 162.1C109.871 158.988 113.925 156.412 114.833 155.886C112.441 157.523 110.715 159.293 109.741 161.729C109.411 162.548 109.169 163.445 109.015 164.434C108.532 167.528 108.695 170.784 109.021 173.862Z" fill="#EF7950"/>
</svg>
