<svg width="209" height="209" viewBox="0 0 209 209" fill="none" xmlns="http://www.w3.org/2000/svg">
<path d="M192.569 159.776C187.004 168.586 180.332 176.258 172.861 182.757C172.389 183.162 171.917 183.567 171.445 183.962C171.089 184.258 170.723 184.559 170.357 184.857C170.001 185.145 169.645 185.433 169.289 185.713C167.431 187.196 165.533 188.601 163.599 189.931C163.291 190.141 162.973 190.353 162.656 190.556C161.365 191.432 160.056 192.269 158.727 193.079C157.823 193.628 156.917 194.167 155.992 194.686C155.453 194.995 154.895 195.304 154.347 195.601C153.941 195.822 153.528 196.044 153.095 196.256L152.96 196.322C150.977 197.364 148.955 198.345 146.895 199.251C146.663 199.356 146.423 199.463 146.183 199.568L145.913 199.684C145.565 199.838 145.22 199.981 144.873 200.127L144.623 200.222C143.9 200.532 143.169 200.819 142.436 201.108C142.091 201.233 141.753 201.368 141.407 201.493L141.233 201.562C140.964 201.676 140.676 201.772 140.396 201.879C140.213 201.947 140.029 202.014 139.837 202.081C139.712 202.129 139.588 202.177 139.452 202.225L139.125 202.341C138.528 202.552 137.931 202.755 137.324 202.957C136.747 203.139 136.169 203.332 135.591 203.505C135.332 203.592 135.072 203.669 134.812 203.745L134.783 203.756L134.475 203.853C134.224 203.929 133.973 203.996 133.724 204.075C133.04 204.265 132.365 204.459 131.673 204.643L131.412 204.709C130.855 204.863 130.296 204.998 129.737 205.141C129.603 205.172 129.468 205.209 129.333 205.239L129.103 205.297L129.025 205.315C128.419 205.46 127.803 205.604 127.196 205.748C126.407 205.921 125.608 206.095 124.817 206.251L124.76 206.258L124.461 206.317C121.717 206.847 118.955 207.271 116.181 207.579C115.287 207.675 114.4 207.762 113.505 207.839C112.869 207.907 112.253 207.944 111.617 207.983C110.992 208.04 110.367 208.069 109.74 208.088C108.74 208.156 107.748 208.176 106.747 208.195C106.535 208.204 106.323 208.213 106.12 208.204C105.841 208.224 105.561 208.224 105.283 208.213C105.061 208.224 104.84 208.233 104.609 208.233C104.167 208.233 103.713 208.224 103.271 208.213C100.796 208.186 98.3227 208.06 95.8574 207.859C95.568 207.828 95.2707 207.81 94.9814 207.771C93.7774 207.665 92.5747 207.529 91.3707 207.365C89.3974 207.127 87.4241 206.817 85.4494 206.443C85.2094 206.395 84.9587 206.347 84.7081 206.298C84.4867 206.258 84.2654 206.221 84.0441 206.183L83.8041 206.125C83.4281 206.048 83.0614 205.971 82.6667 205.884L82.3494 205.816C82.0987 205.758 81.8494 205.71 81.5987 205.644C81.4054 205.604 81.2227 205.567 81.0307 205.517C77.2947 204.651 73.5774 203.564 69.9107 202.253L69.7947 202.216C69.5627 202.129 69.3334 202.052 69.1107 201.965C68.7267 201.831 68.3507 201.686 67.9747 201.541C66.8294 201.108 65.6841 200.656 64.5481 200.175L64.4894 200.145L64.2587 200.049C63.768 199.857 63.2854 199.644 62.7947 199.422C62.66 199.365 62.5347 199.308 62.4107 199.24C62.0921 199.096 61.7747 198.962 61.4667 198.808C61.1774 198.683 60.8894 198.557 60.6094 198.421C60.3881 198.325 60.1667 198.22 59.9454 198.124C59.4827 197.893 59.0307 197.672 58.5774 197.449C58.2027 197.256 57.8267 197.065 57.452 196.872L57.2401 196.765C56.8067 196.555 56.3734 196.313 55.9494 196.092L55.824 196.024L55.6414 195.919C55.1894 195.688 54.7454 195.448 54.3027 195.207C54.0441 195.063 53.7827 194.917 53.524 194.764C52.9267 194.427 52.32 194.08 51.7227 193.724C51.4734 193.571 51.2121 193.425 50.9627 193.262L50.924 193.233L50.6734 193.088C50.3081 192.867 49.9427 192.645 49.5854 192.424C49.432 192.328 49.2774 192.232 49.124 192.136C48.9694 192.039 48.8067 191.933 48.652 191.838C48.3347 191.635 48.0161 191.422 47.7081 191.22L47.5254 191.095L47.3814 190.998L47.2267 190.893L47.1401 190.836L47.1014 190.816C46.8227 190.643 46.5627 190.469 46.3027 190.267C45.9654 190.065 45.6481 189.844 45.3294 189.614L45.2627 189.565L45.1481 189.486C45.0027 189.381 44.8681 189.285 44.7334 189.188C44.5987 189.092 44.4641 189.007 44.3387 188.92C44.1267 188.765 43.9147 188.621 43.7134 188.476L43.6454 188.419C42.8361 187.841 42.0467 187.253 41.2761 186.646C40.7667 186.262 40.2654 185.877 39.7654 185.481C39.1681 185.001 38.5614 184.51 37.9747 184.019L37.6947 183.788C36.868 183.104 36.048 182.392 35.2587 181.66C34.624 181.101 33.9974 180.524 33.3827 179.936C32.4294 179.051 31.4947 178.155 30.5907 177.232C29.9347 176.577 29.2987 175.903 28.6641 175.229L28.6161 175.171C27.6534 174.15 26.7294 173.11 25.8334 172.052C25.6307 171.84 25.4481 171.619 25.2654 171.407C23.7054 169.548 22.1947 167.651 20.7694 165.696C19.9707 164.598 19.1907 163.492 18.4294 162.367C18.2947 162.174 18.1694 161.98 18.0361 161.788C17.8227 161.469 17.6121 161.143 17.4001 160.816L17.352 160.729C16.196 158.948 15.0894 157.128 14.0587 155.28C13.9334 155.077 13.8081 154.847 13.7027 154.616C12.9707 153.334 12.2974 152.027 11.6414 150.707C11.2094 149.831 10.7854 148.975 10.3707 148.097C8.95606 145.025 7.68539 141.907 6.56806 138.729C6.05873 137.256 5.56672 135.784 5.12405 134.281C5.08538 134.165 5.04671 134.051 5.01871 133.924C4.93204 133.617 4.83473 133.319 4.73873 133.001C4.49873 132.163 4.26674 131.316 4.0454 130.479C-2.95326 103.607 0.753388 74.0107 16.7641 48.6907C47.4387 0.137388 111.665 -14.344 160.209 16.3307C208.763 47.0054 223.243 111.232 192.569 159.776Z" fill="#F7F2DA"/>
<path d="M124.461 206.317C121.717 206.847 118.955 207.271 116.181 207.579L127.408 201.965C127.947 202.447 128.515 203.601 129.103 205.297L129.025 205.315C128.419 205.46 127.803 205.604 127.196 205.749C126.407 205.921 125.608 206.095 124.817 206.251L124.76 206.258L124.461 206.317Z" fill="#E50E0E"/>
<path d="M141.792 192.029C142.225 194.493 143.275 197.286 144.623 200.222C143.9 200.531 143.168 200.819 142.437 201.108C142.091 201.233 141.753 201.368 141.407 201.493L141.233 201.561C140.964 201.676 140.675 201.772 140.396 201.879C140.213 201.947 140.029 202.014 139.837 202.081C139.712 202.129 139.587 202.177 139.452 202.225L139.125 202.341C138.528 202.552 137.931 202.755 137.324 202.957C136.747 203.139 136.169 203.332 135.591 203.505C135.389 203.139 135.207 202.821 135.033 202.524C132.347 197.96 130.604 192.501 129.064 187.139C127.292 180.985 125.791 174.969 123.441 170.627C121.795 167.593 115.277 167.381 114.4 165.591C115.064 163.348 117.76 163.781 118.367 161.519C119.735 156.455 121.727 147.307 124.085 142.619C124.144 142.513 124.259 142.484 124.452 142.524C125.54 142.745 128.679 145.469 131.143 150.408C135.572 159.256 138.893 175.517 141.792 192.029Z" fill="#FFC522"/>
<path d="M131.413 204.709C130.855 204.863 130.296 204.998 129.737 205.141C129.603 205.172 129.468 205.209 129.333 205.239L129.103 205.297L129.025 205.315C128.419 205.46 127.803 205.604 127.196 205.749C126.407 205.921 125.608 206.095 124.817 206.251L124.76 206.258L124.461 206.317C121.717 206.847 118.955 207.271 116.181 207.579C115.287 207.675 114.4 207.762 113.505 207.839C112.869 207.907 112.253 207.944 111.617 207.983C110.992 208.04 110.367 208.069 109.74 208.088C108.74 208.156 107.748 208.176 106.747 208.195C106.535 208.204 106.323 208.213 106.12 208.204C105.841 208.224 105.561 208.224 105.283 208.213C105.061 208.224 104.84 208.233 104.609 208.233C104.167 208.233 103.713 208.224 103.271 208.213C100.796 208.186 98.3226 208.06 95.8573 207.859C95.5679 207.828 95.2706 207.809 94.9813 207.771C93.7773 207.665 92.5746 207.529 91.3706 207.365C89.6373 197.855 87.4613 187.157 85.8919 181.217C84.0053 185.396 82.8599 195.843 81.5986 205.643C81.4053 205.604 81.2226 205.567 81.0293 205.519C77.2946 204.651 73.5786 203.564 69.9106 202.253L69.7946 202.216C69.5919 181.843 67.0119 163.752 78.9986 146.816L79.0279 146.847L79.2493 147.183C79.432 146.941 79.6146 146.72 79.8066 146.471C81.9253 143.775 85.3826 142.08 89.3973 141.06C91.2653 140.587 93.2573 140.251 95.2986 140.048L95.5 140.02C98.9186 139.663 102.461 139.625 105.755 139.769H105.832L105.861 139.779C106.487 139.799 107.103 139.827 107.699 139.865L107.785 139.875C108.287 139.904 108.777 139.932 109.259 139.98C111.917 140.173 114.285 140.463 116.133 140.743C118.483 141.097 124.221 142.128 124.375 142.224L124.452 142.524C125.627 147.126 122.883 152.064 124.135 158.226C124.664 160.845 125.184 163.569 125.684 166.352C126.897 173.043 128.043 180.129 129.064 187.139C129.94 193.145 130.729 199.096 131.413 204.709Z" fill="#FFC522"/>
<path d="M91.8613 126.893L97.94 150.155L109.669 147.088L103.592 123.827L91.8613 126.893Z" fill="#FBA479"/>
<path d="M117.148 158.917C117.68 155.788 112.731 143.844 108.76 139.377C106.301 138.576 106.284 140.308 103.641 140.143C100.295 139.929 96.8574 140.044 93.5734 140.487C88.5934 155.875 116.264 164.14 117.148 158.917Z" fill="white"/>
<path d="M95.36 140.281C96.684 137.851 97.5067 138.703 99.5614 139.377C99.5614 139.377 105.213 139.036 106.993 139.471C109.689 140.128 116.509 154.239 115.861 158.076C114.971 163.344 88.832 152.263 95.36 140.281Z" fill="#FBA479"/>
<path d="M91.8613 126.893L93.4627 133.02C96.576 137.832 104.564 139.66 107.616 140.08L107.847 140.107L103.592 123.827L91.8613 126.893Z" fill="#EF7950"/>
<path d="M134.212 97.1254C132.28 98.584 131.103 100.201 130.907 102.609C130.74 104.68 133.359 110.683 133.359 110.683C134.492 113.528 137.899 112.201 139.128 110.297C140.659 107.925 141.412 104.476 141.421 101.741C141.435 97.3814 138.641 93.7774 134.212 97.1254Z" fill="#FBA479"/>
<path d="M133.711 99.368C132.979 100.252 131.989 101.992 133.18 102.805C133.875 103.279 135.025 103.648 135.364 104.636C135.637 105.431 134.619 107.539 133.549 107.533C133.549 107.533 137.128 107.229 137.369 105.515C137.607 103.813 135.844 102.516 134.215 102.151C134.275 100.613 138.045 97.444 139.183 99.2093L139.013 98.88C137.62 96.4053 135.112 97.6773 133.711 99.368Z" fill="#EF7950"/>
<path d="M83.7453 79.8987C92.6439 71.84 105.995 70.2934 117.517 72.7587C128.672 75.1467 131.533 86.668 132.423 92.352C133.251 97.636 135.864 101.284 138.18 106.017C140.377 110.505 142.709 116.049 139.435 120.565C135.965 125.351 124.145 135.023 118.843 135.591C97.3533 137.893 77.8812 125.935 74.0639 113.861C70.4186 102.328 74.8933 87.912 83.7453 79.8987Z" fill="#FBA479"/>
<path d="M70.5039 108.856C73.6479 108.597 76.1959 109.145 78.4746 111.315C80.4346 113.181 83.1013 121.284 83.1013 121.284C84.4693 125.031 80.0093 126.7 77.1626 125.917C73.6199 124.94 69.892 122.247 67.512 119.599C63.7133 115.375 63.2986 109.451 70.5039 108.856Z" fill="#FBA479"/>
<path d="M72.9399 110.601C74.4159 110.824 76.8893 111.652 76.4359 113.477C76.1746 114.541 75.3759 115.9 75.9039 117.152C76.3293 118.163 79.1479 119.325 80.1826 118.392C80.1826 118.392 76.4426 121.203 74.7199 119.745C73.0132 118.301 73.5986 115.509 74.8626 113.739C73.4706 112.301 67.0586 112.493 67.4879 115.196C67.4479 115.041 67.3999 114.885 67.3639 114.729C66.5706 111.115 70.1093 110.175 72.9399 110.601Z" fill="#EF7950"/>
<path d="M75.548 91.7907C75.8986 82.4187 81.5479 78.352 85.9839 75.2493C88.9306 73.1907 94.8013 70.4547 98.3533 72.1213C104.516 65.5533 117.42 66.8027 119.567 64.1533C119.395 66.1133 117.217 67.2147 116.088 68.5773C120.669 68.8707 125.671 69.7213 130.277 69.2693C128.64 71.2147 125.083 70.9547 123.316 72.572C126.301 73.6267 133.167 76.2907 136.161 82.2453C132.945 81.3533 123.836 79.7227 120.599 80.5707C115.952 81.7853 111.852 82.2453 107.124 81.9547C104.448 81.7907 101.832 81.144 99.36 80.228C97.872 79.6787 96.2453 78.3627 94.6559 78.2013C91.7466 77.9107 85.1879 85.18 83.2546 86.904C83.5133 86.432 82.608 84.42 86.1466 79.9053C82.264 80.2747 77.6053 86.8347 75.548 91.7907Z" fill="#8E3E28"/>
<path d="M122.415 107.569C122.415 107.569 127.06 109.553 125.156 111.271C123.941 112.368 122.409 112.967 120.819 113.253C122.208 112.083 125.147 109.215 122.415 107.569Z" fill="#EF7950"/>
<path d="M132.663 100.504C132.353 101.688 131.231 105.265 128.955 105.861C126.412 106.525 122.643 103.555 122.105 103.12L122.044 103.047L122.052 102.993C122.185 102.295 123.544 97.392 126.125 96.72C128.377 96.1294 131.96 100.42 132.663 100.504Z" fill="#EF7950"/>
<path d="M132.7 100.504L132.735 100.221L132.747 100.107L132.753 100.139C132.815 100.385 132.792 100.496 132.7 100.504Z" fill="#EF7950"/>
<path d="M132.757 100.123L132.753 100.139L132.735 100.221C132.72 100.287 132.696 100.381 132.663 100.504C132.353 101.688 131.231 105.265 128.955 105.861C126.412 106.525 122.643 103.555 122.105 103.12L122.04 103.063L122.044 103.047L122.052 102.993C122.124 102.149 122.647 93.9974 125.236 93.3214C127.889 92.628 132.491 99.7667 132.747 100.107L132.757 100.123Z" fill="white"/>
<path d="M131.356 101.581C131.385 104.452 129.944 106.795 128.135 106.815C126.324 106.835 124.833 104.521 124.803 101.648C124.772 98.7774 126.215 96.4334 128.024 96.4147C129.833 96.3947 131.324 98.7067 131.356 101.581Z" fill="#6856D1"/>
<path d="M130.515 101.592C130.533 103.405 129.624 104.881 128.483 104.895C127.341 104.905 126.401 103.448 126.381 101.639C126.361 99.8254 127.272 98.3481 128.413 98.3348C129.555 98.3241 130.496 99.7814 130.515 101.592Z" fill="#5842B2"/>
<path d="M124.576 99.1587L127.248 99.9601C127.248 99.9601 124.944 101.715 124.301 101.232C123.885 100.917 124.576 99.1587 124.576 99.1587Z" fill="white"/>
<path d="M122.043 103.045C122.099 102.616 122.573 94.0174 125.236 93.3214C127.891 92.6281 132.489 99.7667 132.745 100.108C132.495 99.6254 129.544 88.924 124.371 90.0134C118.936 91.1574 122.025 102.503 122.043 103.045Z" fill="#EF7950"/>
<path d="M132.7 100.504C132.513 101.944 131.708 106.855 129.371 107.465C126.816 108.129 122.663 103.735 122.105 103.12C122.643 103.555 126.412 106.525 128.955 105.861C131.231 105.265 132.353 101.688 132.663 100.504H132.7Z" fill="#EF7950"/>
<path d="M108.592 106.796C108.188 108.007 106.771 111.657 104.144 112.344C101.239 113.104 97.0986 110.32 96.4306 109.848L96.3427 109.759L96.3546 109.705C96.5333 108.995 98.272 103.993 101.249 103.219C103.853 102.535 107.797 106.747 108.592 106.796Z" fill="#EF7950"/>
<path d="M108.625 106.796L108.672 106.532L108.695 106.392L108.703 106.429C108.764 106.675 108.733 106.789 108.625 106.796Z" fill="#EF7950"/>
<path d="M108.711 106.408L108.703 106.429L108.672 106.532L108.592 106.796C108.188 108.007 106.771 111.657 104.144 112.344C101.239 113.104 97.0987 110.32 96.4307 109.848L96.3347 109.783L96.3427 109.759L96.3547 109.705C96.472 108.873 97.4 100.729 100.395 99.9507C103.457 99.148 108.417 106.06 108.695 106.392L108.711 106.408Z" fill="white"/>
<path d="M99.2373 107.677C99.3187 110.548 101.076 112.828 103.164 112.768C105.252 112.708 106.879 110.335 106.797 107.463C106.717 104.592 104.959 102.309 102.871 102.369C100.783 102.429 99.1573 104.805 99.2373 107.677Z" fill="#6856D1"/>
<path d="M100.917 106.553C100.696 108.229 101.505 109.716 102.725 109.876C103.943 110.035 105.111 108.807 105.329 107.132C105.549 105.456 104.739 103.968 103.521 103.807C102.303 103.647 101.136 104.877 100.917 106.553Z" fill="#5842B2"/>
<path d="M99.5399 103.739L101.876 105.901C101.876 105.901 98.6959 106.189 98.2773 105.415C98.0013 104.911 99.5399 103.739 99.5399 103.739Z" fill="white"/>
<path d="M96.3413 109.761C96.4213 109.325 97.3227 100.753 100.395 99.9507C103.457 99.1494 108.415 106.059 108.696 106.392C108.428 105.915 105.455 95.2201 99.4973 96.5147C93.236 97.8734 96.3413 109.213 96.3413 109.761Z" fill="#EF7950"/>
<path d="M108.625 106.796C108.356 108.263 107.252 113.241 104.564 113.948C101.639 114.711 97.1067 110.512 96.4307 109.848C97.0987 110.32 101.239 113.104 104.144 112.344C106.771 111.657 108.188 108.007 108.592 106.796H108.625Z" fill="#EF7950"/>
<path d="M97.4666 91.3641C98.8773 90.8787 100.747 91.3521 101.035 92.9441C99.924 91.9547 95.1106 94.7654 94.168 95.3241C94.168 95.3241 96.5253 91.6907 97.4666 91.3641Z" fill="#8E3E28"/>
<path d="M122.387 81.6374C120.917 81.9027 119.519 83.228 120.047 84.7574C120.531 83.3534 126.105 83.448 127.2 83.4747C127.2 83.4747 123.367 81.4587 122.387 81.6374Z" fill="#8E3E28"/>
<path d="M127.741 116.953C124.473 121.324 120.908 128.588 114.287 128.02C109.451 127.604 104.991 122.597 103.123 118.579C104.033 119.24 127.741 116.953 127.741 116.953Z" fill="#60281F"/>
<path d="M103.805 118.352C104.415 118.793 104.396 120.344 105.115 120.9C106.033 121.605 117.924 123.96 121.801 121.823C122.245 121.579 123.081 120.092 123.716 118.769L123.723 118.757C124.108 117.969 124.424 117.257 124.579 116.971L117.787 117.419L117.753 117.429L104.535 118.303L103.805 118.352Z" fill="white"/>
<path d="M107.785 126.083C107.835 126.236 107.94 126.396 108.068 126.541L108.08 126.555C109.769 127.905 111.843 128.82 114.312 128.672C115.301 128.617 116.208 128.452 117.136 128.205C118.824 127.764 120.284 126.824 121.587 125.635C121.347 125.463 121.089 125.313 120.905 125.223L120.807 125.18C119.916 124.761 118.88 124.8 117.916 124.737C117.049 124.683 116.344 124.817 115.509 125.037C115.103 125.143 114.496 125.407 114.123 125.443C113.595 125.499 112.869 125.117 112.273 125.112C111.139 125.093 110.101 125.063 109.027 125.291C108.769 125.339 108.504 125.413 108.241 125.499C107.724 125.671 107.652 125.639 107.785 126.083Z" fill="#EA6453"/>
<path d="M125.723 119.088C124.269 121.207 122.7 123.499 120.803 125.184C119.648 126.203 118.367 127.003 116.923 127.388C116.307 127.541 115.671 127.619 115.027 127.619C114.795 127.619 114.564 127.609 114.324 127.589C112.495 127.436 110.675 126.56 109.028 125.289C106.881 123.641 105.032 121.332 103.848 119.08C103.973 119.088 104.099 119.088 104.252 119.088H104.263C104.512 119.097 104.801 119.097 105.109 119.088H105.119C107.883 119.06 112.783 118.703 117.577 118.3C117.789 118.28 118.001 118.269 118.204 118.251C120.321 118.068 122.372 117.885 124.211 117.712H124.221C125.165 117.625 126.04 117.539 126.831 117.472C126.473 117.981 126.108 118.521 125.723 119.088ZM127.696 116.528C118.848 117.384 102.336 118.096 102.336 118.096C102.336 118.096 104.204 123.451 108.065 126.54L108.084 126.549C108.517 126.907 108.989 127.233 109.48 127.513C109.605 127.581 109.731 127.657 109.856 127.715C110.011 127.792 110.164 127.868 110.328 127.947L110.444 127.995C110.636 128.072 110.837 128.148 111.04 128.225C111.233 128.293 111.425 128.351 111.628 128.399L111.936 128.475L112.244 128.533C112.639 128.611 113.033 128.659 113.447 128.679C113.583 128.688 113.727 128.688 113.871 128.688C114.016 128.688 114.16 128.688 114.313 128.679C114.564 128.668 114.805 128.639 115.036 128.611C115.277 128.583 115.517 128.553 115.749 128.515C115.979 128.475 116.211 128.427 116.441 128.379C116.672 128.332 116.904 128.273 117.135 128.205C117.347 128.148 117.549 128.091 117.76 128.013C117.963 127.947 118.165 127.868 118.357 127.783C118.56 127.695 118.752 127.609 118.935 127.513C119.705 127.128 120.417 126.637 121.092 126.069C121.255 125.933 121.419 125.78 121.583 125.636C123.451 123.912 124.991 121.659 126.425 119.571C127.003 118.732 127.543 117.923 128.081 117.211L128.66 116.431L127.696 116.528Z" fill="#EF7950"/>
<path d="M115.952 129.956C116.409 130.095 117.617 130.771 117.655 131.369C117.693 131.955 116.888 132.267 116.469 132.661C115.195 131.064 113.431 130.193 111.464 130.564C112.609 129.864 114.688 129.575 115.952 129.956Z" fill="#EF7950"/>
<path d="M95.8346 123.441C94.5693 123.44 93.1626 123.124 91.7946 122.465C88.3626 120.812 86.464 117.647 87.5493 115.391C88.2 114.035 89.7813 113.317 91.6827 113.317C92.948 113.317 94.3546 113.635 95.7253 114.295C99.1546 115.943 101.056 119.111 99.9706 121.367C99.3186 122.723 97.7373 123.441 95.8346 123.441Z" fill="#FA8E6E"/>
<path d="M132.376 116.241C131.824 116.241 131.309 116.097 130.873 115.793C129.259 114.664 129.34 111.757 131.055 109.303C132.309 107.507 134.088 106.449 135.584 106.449C136.137 106.449 136.652 106.593 137.087 106.899C138.704 108.027 138.621 110.932 136.905 113.389C135.652 115.184 133.875 116.241 132.376 116.241Z" fill="#FA8E6E"/>
<path d="M91.2412 90.9267L74.8626 94.2493C72.4399 97.5987 71.5252 101.936 71.7959 106.04C72.2652 113.139 78.4932 115.641 79.2252 116.549C77.6785 112.393 77.6812 108.075 80.2772 104.455C80.8266 105.144 81.0732 106.045 81.8252 106.715C82.4452 107.265 86.8359 100.749 87.6826 97.2773C88.2719 94.8613 89.4199 92.5893 91.2412 90.9267Z" fill="#8E3E28"/>
<path d="M82.1866 78.9654C82.736 78.8387 83.224 78.6507 83.6653 78.4174C83.2147 78.6987 82.7133 78.9027 82.152 79.0094L82.1866 78.9654Z" fill="#F9E84E"/>
<path d="M80.1707 69.5294C78.0827 66.9267 75.6867 63.7654 74.244 60.7294C75.1614 62.7267 75.0827 66.504 75.1893 68.7507C75.3653 72.4347 74.9613 76.16 75.064 79.812L87.7707 76.2734C85.1627 75.4227 81.864 71.6414 80.1707 69.5294Z" fill="#EAD942"/>
<path d="M100.655 60.9201C98.5667 58.3174 96.1707 55.1561 94.728 52.1201C95.6454 54.1174 95.5654 57.8934 95.6734 60.1401C95.8494 63.8241 95.4454 67.5507 95.548 71.2014L108.255 67.664C105.647 66.8134 102.348 63.0307 100.655 60.9201Z" fill="#EAD942"/>
<path d="M116.599 73.584C113.829 86.4067 74.536 96.5934 73.9387 95.5747C73.9387 95.5747 67.2827 77.0494 65.192 68.8494C65.1053 68.5147 65.028 68.196 64.9573 67.8974C64.78 67.1414 64.6587 66.508 64.604 66.0307C65.276 66.7974 65.932 67.5667 66.5947 68.3054C69.8827 72.0054 73.2347 75.0854 78.8893 74.344C79.1493 74.308 79.4 74.2627 79.6413 74.2054C80.1987 74.0774 80.6933 73.8867 81.14 73.648L81.2787 73.5654C83.132 72.4974 84.0427 70.5 84.4213 68.0894L84.4253 68.0814C85.084 63.9054 84.152 58.4947 83.7587 54.5067C83.74 54.2974 83.7213 54.0934 83.704 53.8947C83.6147 52.8654 83.5733 51.9494 83.6213 51.1947C83.9907 51.788 84.676 52.692 85.5667 53.76C88.884 57.7454 95.028 64.0334 98.1867 65.0467C98.5533 65.1667 98.8773 65.2107 99.1547 65.176C100.856 64.9574 103.356 60.0587 103.304 53.644C103.301 53.3667 103.295 53.0867 103.281 52.8054C103.247 51.98 103.169 51.1387 103.044 50.276C103.584 50.9134 104.285 51.82 105.084 52.9107C108.361 57.4014 113.273 65.0254 115.479 69.7827C116.3 71.5454 116.744 72.9134 116.599 73.584Z" fill="#FFC522"/>
<path d="M67.4599 66.4627C67.4599 67.2054 67.1226 67.868 66.5946 68.3054C66.4439 68.4307 66.2759 68.5374 66.0999 68.6214C65.8226 68.756 65.5172 68.836 65.1919 68.8494L65.0706 68.856C63.7506 68.856 62.6799 67.7854 62.6799 66.4627L62.6959 66.1894V66.1867C62.8346 64.996 63.8439 64.0734 65.0706 64.0734C66.3919 64.0734 67.4599 65.144 67.4599 66.4627Z" fill="#FFF46C"/>
<path d="M86.2199 52.12C86.2199 52.752 85.9719 53.328 85.5666 53.76C85.2933 54.0494 84.9492 54.2707 84.5599 54.3974C84.3279 54.4707 84.0839 54.5094 83.8266 54.5094L83.7586 54.5067C82.4719 54.4734 81.4373 53.4187 81.4373 52.12C81.4373 51.8494 81.4813 51.5854 81.5679 51.344V51.3347C81.8933 50.4014 82.7839 49.7294 83.8266 49.7294C85.1492 49.7294 86.2199 50.8014 86.2199 52.12Z" fill="#FFF46C"/>
<path d="M105.752 51.2574C105.752 51.9014 105.499 52.4827 105.084 52.9107C104.784 53.2254 104.401 53.4547 103.971 53.5667C103.777 53.6214 103.571 53.6467 103.361 53.6467L103.304 53.644C102.008 53.6147 100.972 52.5574 100.972 51.2574C100.972 50.8454 101.075 50.4574 101.259 50.1187L101.261 50.112C101.669 49.368 102.455 48.8667 103.361 48.8667C104.681 48.8667 105.752 49.9347 105.752 51.2574Z" fill="#FFF46C"/>
<path d="M97.8507 53.2254C97.8507 54.5454 96.78 55.6161 95.46 55.6161C94.1387 55.6161 93.0693 54.5454 93.0693 53.2254C93.0693 51.9054 94.1387 50.8347 95.46 50.8347C96.78 50.8347 97.8507 51.9054 97.8507 53.2254Z" fill="#EAD942"/>
<path d="M76.8893 61.3534C76.8893 62.6734 75.8173 63.744 74.4973 63.744C73.1773 63.744 72.1067 62.6734 72.1067 61.3534C72.1067 60.0321 73.1773 58.9614 74.4973 58.9614C75.8173 58.9614 76.8893 60.0321 76.8893 61.3534Z" fill="#EAD942"/>
<path d="M116.599 73.584C113.829 86.4067 74.5359 96.5934 73.9386 95.5747C73.9386 95.5747 67.2826 77.0494 65.1919 68.8494L65.0706 68.856C63.7506 68.856 62.6799 67.7854 62.6799 66.4627L62.6959 66.1894C62.7479 66.408 62.8212 66.6 62.9212 66.7547C63.3266 67.3827 64.1399 67.7467 64.9572 67.8974C65.3532 67.9734 65.7492 68 66.0959 67.98C66.0866 68.1907 66.0893 68.4027 66.0999 68.6214C66.2159 70.4414 67.1026 72.4694 67.7426 74.0987C68.6786 76.476 70.2719 78.7254 71.6799 80.848C82.8319 97.6534 113.344 76.9174 115.479 69.7827C116.3 71.5454 116.744 72.9134 116.599 73.584Z" fill="#F9E84E"/>
<path d="M84.7333 54.1454C86.2186 58.244 92.7186 69.1387 91.4693 70.2707C93.3199 70.5107 98.7413 69.9654 99.5519 68.196C94.7279 68.3934 85.0866 54.8094 84.7333 54.1454Z" fill="#F9E84E"/>
<path d="M83.828 52.3894C83.828 52.7454 83.54 53.032 83.1854 53.032C82.8307 53.032 82.5427 52.7454 82.5427 52.3894C82.5427 52.0347 82.8307 51.748 83.1854 51.748C83.54 51.748 83.828 52.0347 83.828 52.3894Z" fill="#FFF9CA"/>
<path d="M103.42 50.8228C103.42 51.1254 103.176 51.3694 102.873 51.3694C102.571 51.3694 102.327 51.1254 102.327 50.8228C102.327 50.5214 102.571 50.2761 102.873 50.2761C103.176 50.2761 103.42 50.5214 103.42 50.8228Z" fill="#FFF9CA"/>
<path d="M65.0933 65.94C65.0933 66.2294 64.86 66.464 64.5706 66.464C64.2813 66.464 64.0466 66.2294 64.0466 65.94C64.0466 65.6507 64.2813 65.4174 64.5706 65.4174C64.86 65.4174 65.0933 65.6507 65.0933 65.94Z" fill="#FFF9CA"/>
<path d="M103.937 60.1067C103.639 61.7787 102.837 64.5067 101.149 65.3654C99.9813 65.9614 99.0266 65.6614 98.1866 65.0467C98.5533 65.1667 98.8773 65.2107 99.1546 65.176C100.856 64.9574 103.356 60.0587 103.304 53.644C102.008 53.6147 100.972 52.5574 100.972 51.2574C100.972 50.8454 101.075 50.4574 101.259 50.1187C101.113 50.72 101.091 51.4307 101.307 51.8814C101.769 52.8534 102.603 52.5187 103.281 52.8054L103.532 52.9494C103.713 53.0867 103.857 53.3 103.971 53.5667C104.639 55.1787 104.172 58.7907 103.937 60.1067Z" fill="#F9E84E"/>
<path d="M85.1972 60.0267C85.1946 62.3161 84.9946 64.4387 84.6852 66.6521C84.6212 67.1094 84.5372 67.5881 84.4252 68.0814C85.0839 63.9054 84.1519 58.4947 83.7586 54.5067C82.4719 54.4734 81.4373 53.4187 81.4373 52.1201C81.4373 51.8494 81.4813 51.5854 81.5679 51.3441C81.4239 52.5334 82.3333 53.6494 83.7039 53.8947C83.9653 53.9401 84.2453 53.9561 84.5373 53.9334C84.5413 54.0867 84.5479 54.2427 84.5599 54.3974C84.6759 56.2921 85.1999 58.1054 85.1972 60.0267Z" fill="#F9E84E"/>
</svg>
