<svg width="209" height="209" viewBox="0 0 209 209" fill="none" xmlns="http://www.w3.org/2000/svg">
<path d="M192.571 159.776C187.005 168.586 180.333 176.258 172.863 182.757C172.389 183.162 171.917 183.567 171.447 183.962C171.091 184.258 170.725 184.559 170.359 184.857C170.003 185.145 169.645 185.433 169.289 185.713C167.432 187.196 165.535 188.601 163.6 189.931C163.292 190.141 162.973 190.353 162.656 190.556C161.365 191.432 160.056 192.269 158.728 193.079C157.823 193.628 156.917 194.167 155.993 194.686C155.455 194.995 154.896 195.304 154.348 195.601C153.943 195.822 153.529 196.044 153.096 196.256L152.961 196.322C150.977 197.364 148.956 198.345 146.895 199.251C146.664 199.356 146.424 199.463 146.183 199.568L145.913 199.684C145.567 199.838 145.22 199.981 144.873 200.127C144.065 200.464 143.256 200.791 142.437 201.108C142.139 201.215 141.851 201.329 141.552 201.436L141.408 201.493L141.235 201.562C140.965 201.676 140.676 201.772 140.396 201.879C140.213 201.947 140.031 202.014 139.839 202.081C139.713 202.129 139.588 202.177 139.453 202.225L139.125 202.341C138.528 202.552 137.932 202.755 137.325 202.957C136.488 203.227 135.649 203.496 134.812 203.745L134.784 203.756L134.475 203.853C134.225 203.929 133.975 203.996 133.725 204.075C133.041 204.265 132.367 204.459 131.673 204.643C131.472 204.698 131.279 204.747 131.077 204.795C130.635 204.91 130.181 205.027 129.739 205.141C129.604 205.172 129.469 205.209 129.333 205.239L129.027 205.315C128.42 205.46 127.804 205.604 127.196 205.748C126.956 205.808 126.715 205.856 126.465 205.904C125.916 206.028 125.368 206.143 124.819 206.251L124.761 206.258L124.461 206.317C123.625 206.48 122.777 206.635 121.94 206.769C120.419 207.029 118.897 207.252 117.367 207.433C117.031 207.481 116.692 207.521 116.356 207.559C115.768 207.627 115.191 207.684 114.603 207.732C114.237 207.771 113.872 207.81 113.505 207.839C112.871 207.907 112.255 207.944 111.619 207.983C110.992 208.04 110.367 208.069 109.741 208.088C108.74 208.156 107.749 208.176 106.747 208.195C106.535 208.204 106.323 208.213 106.121 208.204L105.977 208.213C105.745 208.224 105.515 208.224 105.284 208.213C105.063 208.224 104.841 208.233 104.611 208.233C104.167 208.233 103.715 208.224 103.272 208.213C102.376 208.204 101.472 208.186 100.576 208.138C98.996 208.079 97.4267 207.983 95.8574 207.859C95.5694 207.828 95.2707 207.81 94.9813 207.771C94.588 207.732 94.1827 207.695 93.788 207.645C91.776 207.453 89.7733 207.184 87.7706 206.857C87 206.721 86.2213 206.586 85.4507 206.443C85.2093 206.395 84.96 206.347 84.7093 206.298C84.488 206.258 84.2667 206.221 84.0453 206.183L83.804 206.125C83.428 206.048 83.0626 205.971 82.668 205.884L82.3507 205.816C81.908 205.72 81.484 205.624 81.0413 205.517H81.032C79.424 205.141 77.8147 204.728 76.2173 204.276C76.0533 204.228 75.9 204.18 75.7453 204.14C73.7907 203.574 71.8467 202.948 69.9107 202.253C69.6414 202.157 69.372 202.061 69.112 201.965C68.7267 201.831 68.3507 201.686 67.976 201.541C66.8307 201.108 65.684 200.656 64.548 200.175L64.4893 200.145L64.2587 200.049L64.0467 199.963C63.6334 199.798 63.22 199.616 62.796 199.422C62.6614 199.365 62.536 199.308 62.4107 199.24C62.0934 199.096 61.776 198.962 61.4667 198.808C61.1787 198.683 60.8894 198.557 60.6107 198.421C60.3894 198.325 60.168 198.22 59.9453 198.124C59.484 197.893 59.032 197.672 58.5787 197.449C58.2027 197.256 57.828 197.065 57.452 196.872L57.2413 196.765C56.8067 196.555 56.3747 196.313 55.9507 196.092L55.8253 196.024L55.6427 195.919C55.1893 195.688 54.7466 195.448 54.304 195.207C54.092 195.091 53.8907 194.975 53.6787 194.851L53.524 194.764C52.928 194.427 52.3214 194.08 51.724 193.724C51.4734 193.571 51.2133 193.425 50.964 193.262L50.924 193.233L50.6747 193.088C50.5494 193.012 50.424 192.933 50.2987 192.856C50.0587 192.712 49.8173 192.569 49.5867 192.424C49.432 192.328 49.2787 192.232 49.124 192.136C48.9707 192.039 48.8067 191.933 48.652 191.838C48.3347 191.635 48.0173 191.422 47.7093 191.22L47.5267 191.095L47.3813 190.998L47.228 190.893L47.1414 190.836L47.1027 190.816C46.824 190.643 46.5627 190.469 46.3027 190.267C45.9667 190.065 45.648 189.844 45.3307 189.614L45.264 189.565L45.148 189.486C45.004 189.381 44.8693 189.285 44.7333 189.188C44.5987 189.092 44.464 189.007 44.3387 188.92C44.128 188.765 43.916 188.621 43.7134 188.476L43.6453 188.419C42.8373 187.841 42.048 187.253 41.2774 186.646C40.768 186.262 40.2667 185.877 39.7667 185.481C39.1693 185.001 38.5627 184.51 37.9747 184.019L37.696 183.788C36.868 183.104 36.0494 182.392 35.26 181.66C34.6254 181.101 33.9987 180.524 33.3827 179.936C32.4294 179.051 31.496 178.155 30.5907 177.232C29.936 176.577 29.3014 175.903 28.6654 175.229L28.6173 175.171C27.6547 174.15 26.7293 173.11 25.8346 172.052C25.632 171.84 25.4493 171.619 25.2667 171.407C23.7067 169.548 22.1947 167.651 20.7693 165.696C19.972 164.598 19.1907 163.492 18.4307 162.367C18.296 162.174 18.1707 161.98 18.036 161.788C17.824 161.469 17.612 161.143 17.4 160.816L17.352 160.729C16.1974 158.948 15.0894 157.128 14.06 155.28C13.9334 155.077 13.8093 154.847 13.7027 154.616C12.972 153.334 12.2974 152.027 11.644 150.707C11.2094 149.831 10.7867 148.975 10.372 148.097C8.95735 145.025 7.68668 141.907 6.56935 138.729C6.05868 137.256 5.568 135.784 5.12534 134.281C5.08667 134.165 5.04803 134.051 5.0187 133.924C4.93203 133.617 4.83599 133.319 4.73999 133.001C4.49865 132.163 4.26802 131.316 4.04669 130.479C-2.95331 103.607 0.753376 74.0107 16.7654 48.6907C47.44 0.137388 111.667 -14.344 160.211 16.3307C208.764 47.0054 223.244 111.232 192.571 159.776Z" fill="#F7F2DA"/>
<path d="M132.107 174.805C134.601 181.371 138.115 191.316 141.552 201.436L141.408 201.493L141.235 201.561C140.965 201.676 140.676 201.772 140.396 201.879C140.213 201.947 140.031 202.014 139.839 202.081C139.713 202.129 139.588 202.177 139.453 202.225L139.125 202.341C138.528 202.552 137.932 202.755 137.325 202.957C136.488 203.227 135.649 203.496 134.812 203.745L134.784 203.756L134.475 203.853C134.225 203.929 133.975 203.996 133.725 204.075C133.041 204.265 132.367 204.459 131.673 204.643C131.472 204.698 131.279 204.747 131.077 204.795C130.635 204.91 130.181 205.027 129.739 205.141C129.604 205.172 129.469 205.209 129.333 205.239L129.027 205.315C128.42 205.46 127.804 205.604 127.196 205.748C126.956 205.808 126.715 205.856 126.465 205.904C125.415 204.527 124.385 203.159 123.384 201.792C122.604 200.743 121.844 199.703 121.092 198.663C120.563 197.931 120.033 197.2 119.513 196.467C117.828 194.119 116.183 191.789 114.584 189.479C114.383 189.188 114.18 188.91 113.988 188.621C113.092 187.34 112.216 186.071 111.349 184.798C111.676 184.327 114.035 182.132 116.991 179.571C118.984 177.837 121.247 175.941 123.345 174.304C124.155 173.669 124.944 173.063 125.676 172.532C125.84 172.408 125.993 172.303 126.147 172.177C128.179 170.732 129.748 169.827 130.239 170.048C130.644 171.04 131.125 172.235 131.655 173.621C131.799 174.007 131.953 174.402 132.107 174.805Z" fill="white"/>
<path d="M131.077 204.795C130.635 204.91 130.181 205.027 129.739 205.141C129.604 205.172 129.469 205.209 129.333 205.239L129.027 205.315C128.42 205.46 127.804 205.604 127.196 205.748C126.956 205.808 126.715 205.856 126.465 205.904C125.415 204.527 124.385 203.159 123.384 201.792C122.604 200.743 121.844 199.703 121.092 198.663C120.563 197.931 120.033 197.2 119.513 196.467C117.828 194.119 116.183 191.789 114.584 189.479C114.383 189.188 114.18 188.91 113.988 188.621L118.32 183.653L122.239 179.156L122.268 179.224C122.489 179.831 122.701 180.457 122.912 181.092C124.019 184.463 124.983 188.216 126.041 191.885C126.099 192.088 126.157 192.28 126.215 192.472C126.764 194.34 127.341 196.179 127.987 197.931C128.872 200.328 129.951 202.583 131.077 204.795Z" fill="#D8EBEF"/>
<path d="M99.1693 179.071C98.0147 179.792 96.5413 180.696 94.808 181.717C94.6547 181.813 94.4907 181.91 94.328 182.007C93.644 182.412 92.892 182.855 92.0747 183.345L92.056 183.355C91.4107 183.74 90.7266 184.153 90.004 184.586C89.6293 184.808 89.244 185.039 88.8494 185.271C88.628 185.416 88.3867 185.549 88.156 185.695C87.212 186.261 86.2214 186.849 85.1907 187.475C82.8614 188.871 80.328 190.373 77.7093 191.943C73.2706 194.572 68.5733 197.344 64.048 199.963C63.6333 199.8 63.22 199.616 62.796 199.422C62.6614 199.365 62.536 199.308 62.4107 199.241C62.0934 199.096 61.776 198.961 61.468 198.807C61.1786 198.683 60.8894 198.557 60.6107 198.421C60.3894 198.325 60.1667 198.22 59.9453 198.124C59.484 197.893 59.0307 197.672 58.5787 197.449C58.2027 197.256 57.828 197.065 57.452 196.872L57.2413 196.765C56.8067 196.555 56.3747 196.313 55.9507 196.092L55.8253 196.025L55.6427 195.919C55.1907 195.688 54.748 195.448 54.304 195.207C54.092 195.091 53.8893 194.975 53.6787 194.851L53.524 194.764C52.928 194.427 52.3214 194.08 51.724 193.724C51.4734 193.571 51.2133 193.425 50.964 193.261L50.924 193.233L50.6747 193.088C50.5493 193.012 50.424 192.933 50.2987 192.857C60.7454 183.152 79.8573 165.081 84.3533 160.797L84.5066 160.652C84.728 160.449 84.9014 160.286 85.0267 160.161C85.1707 160.027 85.2574 159.94 85.296 159.91L85.3053 159.902C85.8933 160.191 88.272 162.972 90.9 166.343C91.0627 166.544 91.2267 166.756 91.3907 166.968C91.68 167.333 91.9587 167.709 92.248 168.084C92.3627 168.239 92.4787 168.383 92.5947 168.537C94.472 171.031 96.3107 173.61 97.572 175.614C98.64 177.328 99.2853 178.617 99.1693 179.071Z" fill="white"/>
<path d="M90.332 169.183C90.0334 169.095 89.7347 169.037 89.436 168.989C89.148 168.952 88.8587 168.921 88.56 168.921C86.3174 168.856 83.9773 169.779 81.744 171.097C78.5374 172.985 75.5427 175.692 73.3387 177.453C70.7773 179.514 60.88 187.909 53.6787 194.851L53.524 194.764C52.928 194.427 52.3214 194.08 51.724 193.724C51.4734 193.571 51.2133 193.425 50.964 193.261L50.924 193.233L50.6747 193.088C50.5493 193.012 50.424 192.933 50.2987 192.857C60.7454 183.152 79.8573 165.081 84.3533 160.797L84.5066 160.652C85.672 162.848 86.7214 164.936 88.2134 166.871C88.5694 167.333 88.9454 167.786 89.36 168.22C89.6667 168.546 89.9854 168.864 90.332 169.183Z" fill="#D8EBEF"/>
<path d="M131.692 174.016C131.771 175.632 131.356 177.385 130.471 179.705C130.104 180.659 129.671 181.872 129.189 183.297C128.439 185.481 127.563 188.168 126.609 191.191C126.475 191.616 126.349 192.039 126.215 192.472C125.743 193.974 125.261 195.553 124.771 197.18C124.317 198.673 123.856 200.213 123.384 201.792C123.008 203.053 122.633 204.344 122.257 205.644C122.152 206.019 122.045 206.395 121.94 206.769C120.419 207.029 118.897 207.252 117.367 207.433C117.031 207.481 116.692 207.521 116.356 207.559C115.768 207.627 115.191 207.684 114.603 207.732C114.237 207.771 113.872 207.81 113.505 207.839C112.871 207.907 112.255 207.944 111.619 207.983C110.992 208.04 110.367 208.069 109.741 208.088C108.74 208.156 107.749 208.176 106.747 208.195C106.535 208.204 106.323 208.213 106.121 208.204L105.977 208.213C105.745 208.224 105.515 208.224 105.284 208.213C105.063 208.224 104.841 208.233 104.611 208.233C104.167 208.233 103.715 208.224 103.272 208.213C102.376 208.204 101.472 208.186 100.576 208.138C98.996 208.079 97.4267 207.983 95.8573 207.859C95.5693 207.828 95.2706 207.81 94.9813 207.771C94.588 207.732 94.1827 207.695 93.788 207.645C91.776 207.453 89.7733 207.184 87.7706 206.857C87 206.721 86.2213 206.586 85.4506 206.443C85.2093 206.395 84.96 206.347 84.7093 206.298C84.488 206.258 84.2666 206.221 84.0453 206.183L83.804 206.125C83.428 206.048 83.0626 205.971 82.668 205.884L82.3506 205.816C81.908 205.72 81.484 205.624 81.0413 205.517H81.032C79.424 205.141 77.8146 204.728 76.2173 204.276C76.0533 204.228 75.9 204.18 75.7453 204.14C76.1106 201.657 76.5053 199.183 76.9013 196.728C77.4786 193.204 78.076 189.728 78.6907 186.34C78.9507 184.876 79.2213 183.421 79.5 181.997C79.7693 180.563 80.0493 179.167 80.328 177.78V177.76C80.5013 176.932 80.6653 176.104 80.8387 175.296C81.012 174.486 81.176 173.688 81.3493 172.898C81.5227 172.1 81.6946 171.32 81.868 170.559C82.0426 169.809 82.216 169.067 82.388 168.334L82.408 168.268C82.5813 167.536 82.7546 166.813 82.928 166.11C83.4666 163.983 84.0066 161.972 84.5453 160.114C84.584 160.084 84.7187 160.045 84.9493 159.988C85.0467 159.959 85.1614 159.94 85.296 159.909L85.3053 159.902C86.0187 159.738 87.2227 159.525 88.772 159.295C90.6307 159.016 92.9787 158.727 95.608 158.505C96.156 158.467 96.724 158.417 97.3027 158.389L97.6013 158.369H97.6493C98.2947 158.321 98.9587 158.284 99.632 158.264C102.212 158.148 104.956 158.14 107.681 158.293C108.316 158.332 108.961 158.369 109.597 158.428C110.011 158.457 110.415 158.495 110.82 158.543C110.992 158.563 111.157 158.583 111.331 158.601L111.493 158.621C113.4 158.852 115.259 159.169 117.02 159.622C118.215 159.929 119.369 160.286 120.448 160.72C120.612 160.786 120.784 160.855 120.948 160.921C121.073 160.971 121.189 161.027 121.305 161.075L121.343 161.095L121.409 161.124C121.709 161.249 122.007 161.393 122.287 161.537C124.241 162.52 125.907 163.771 127.139 165.341C127.928 166.332 128.603 167.219 129.18 168.037C129.805 168.921 130.307 169.721 130.683 170.481C130.797 170.695 130.893 170.907 130.98 171.108L131.048 171.281C131.125 171.434 131.183 171.589 131.221 171.733C131.279 171.877 131.327 172.014 131.356 172.146L131.423 172.388C131.481 172.572 131.52 172.745 131.549 172.927L131.559 172.975C131.607 173.188 131.636 173.4 131.655 173.621C131.673 173.747 131.684 173.88 131.692 174.016Z" fill="#4E473F"/>
<path d="M93.788 207.645C91.776 207.453 89.7733 207.184 87.7706 206.857L90.9093 203.015L91.3426 202.495L91.4 202.62L93.788 207.645Z" fill="#CCCCCC"/>
<path d="M98.8 191.42L90.9853 203.243L86.6586 189.938L93.8987 181.1L98.8 191.42Z" fill="#CCCCCC"/>
<path d="M101.376 169.862L93.5613 181.683L89.2346 168.377L96.476 159.54L101.376 169.862Z" fill="#CCCCCC"/>
<path d="M97.2973 158.386L96.4999 159.592L96.1386 160.139L96.0946 160.008L95.6093 158.51C96.1586 158.463 96.7239 158.421 97.2973 158.386Z" fill="#CCCCCC"/>
<path d="M105.977 208.213C105.747 208.224 105.515 208.224 105.284 208.213C105.063 208.224 104.841 208.233 104.611 208.233C104.167 208.233 103.715 208.224 103.272 208.213C102.376 208.204 101.472 208.186 100.576 208.138L103.541 204.517L103.975 203.996L104.032 204.122L105.977 208.213Z" fill="#CCCCCC"/>
<path d="M111.433 192.931L103.619 204.751L99.292 191.448L106.533 182.609L111.433 192.931Z" fill="#CCCCCC"/>
<path d="M114.009 171.371L106.195 183.192L101.868 169.886L109.109 161.05L114.009 171.371Z" fill="#CCCCCC"/>
<path d="M110.821 158.546L109.133 161.1L108.771 161.65L108.727 161.516L107.679 158.292C108.317 158.329 108.959 158.372 109.595 158.425C110.007 158.46 110.416 158.498 110.821 158.546Z" fill="#CCCCCC"/>
<path d="M117.367 207.433C117.031 207.481 116.692 207.521 116.356 207.559C115.768 207.627 115.191 207.684 114.603 207.732L116.009 206.019L116.443 205.489L116.5 205.615L116.751 206.143L117.367 207.433Z" fill="#CCCCCC"/>
<path d="M123.899 194.421L116.083 206.241L111.757 192.936L118.999 184.098L123.899 194.421Z" fill="#CCCCCC"/>
<path d="M126.613 191.196C126.024 193.073 125.404 195.076 124.767 197.177L123.899 194.507L126.613 191.196Z" fill="#CCCCCC"/>
<path d="M126.475 172.862L118.66 184.683L114.333 171.376L121.575 162.54L126.475 172.862Z" fill="#CCCCCC"/>
<path d="M130.467 179.703C130.105 180.661 129.673 181.871 129.187 183.292L126.017 173.555L125.632 172.364L126.017 171.896L129.176 168.039C130.785 170.328 131.6 172.075 131.695 174.015C131.773 175.632 131.351 177.384 130.467 179.703Z" fill="#CCCCCC"/>
<path d="M122.291 161.539L121.597 162.591L121.236 163.137L121.192 163.007L120.448 160.717C121.088 160.967 121.705 161.241 122.291 161.539Z" fill="#CCCCCC"/>
<path d="M81.0306 205.519C79.4226 205.141 77.8146 204.728 76.2173 204.276L78.46 201.532L78.8933 201.003L78.9506 201.128L81.0306 205.519Z" fill="#CCCCCC"/>
<path d="M86.3506 189.933L78.952 201.124L78.5359 201.755L78.4626 201.529L76.9012 196.728V196.725C77.4732 193.207 78.0706 189.729 78.688 186.341C78.952 184.873 79.2226 183.425 79.4986 181.998V181.995L81.0733 180.076L81.452 179.614L81.4719 179.652L86.3506 189.933Z" fill="#CCCCCC"/>
<path d="M88.9267 168.374L81.472 179.652L81.1133 180.195L81.0733 180.076L80.3293 177.784V177.78L80.3333 177.76C81.6787 171.108 83.0973 165.064 84.5413 160.115C84.584 160.086 84.7227 160.044 84.9467 159.988L88.9267 168.374Z" fill="#CCCCCC"/>
<path d="M117.367 207.433L116.751 206.143C116.895 205.615 117.039 205.093 117.193 204.565C117.195 204.563 117.195 204.562 117.195 204.559L123.899 194.421L121.44 189.243C122.075 186.548 122.576 183.863 122.912 181.092C123.037 180.007 123.143 178.914 123.211 177.798L126.017 173.552V173.555L129.187 183.292C129.38 182.726 129.565 182.193 129.741 181.697C129.565 182.195 129.381 182.729 129.189 183.297C128.439 185.481 127.563 188.168 126.609 191.191C126.608 191.197 126.607 191.203 126.604 191.208L123.899 194.507L124.767 197.177C125.049 196.244 125.329 195.329 125.604 194.438C125.329 195.332 125.052 196.248 124.771 197.18C124.317 198.674 123.856 200.213 123.384 201.792C123.008 203.053 122.633 204.344 122.257 205.644C122.152 206.019 122.045 206.395 121.94 206.769C120.419 207.029 118.897 207.252 117.367 207.433Z" fill="#332D27"/>
<path d="M126.088 192.879C126.153 192.669 126.217 192.461 126.283 192.253C126.26 192.327 126.237 192.398 126.215 192.472C126.172 192.607 126.129 192.743 126.088 192.879Z" fill="#332D27"/>
<path d="M130.973 171.089C130.953 171.043 130.933 170.997 130.912 170.952C130.9 170.925 130.888 170.898 130.876 170.872C130.909 170.945 130.941 171.017 130.973 171.089ZM130.8 170.71C130.78 170.669 130.759 170.628 130.737 170.586C130.691 170.492 130.641 170.397 130.592 170.302C130.547 170.213 130.499 170.125 130.451 170.036C130.577 170.264 130.693 170.489 130.8 170.71Z" fill="#A19A88"/>
<path d="M126.017 171.897L121.599 162.589L122.291 161.54C124.243 162.521 125.908 163.772 127.139 165.341C127.928 166.332 128.603 167.219 129.18 168.038C129.681 168.75 130.103 169.408 130.451 170.036C130.499 170.126 130.547 170.213 130.592 170.302C130.217 169.593 129.747 168.851 129.176 168.039L126.017 171.896V171.897ZM130.912 170.952C130.857 170.831 130.799 170.709 130.737 170.586C130.759 170.628 130.78 170.669 130.8 170.71C130.825 170.765 130.851 170.819 130.876 170.872C130.888 170.898 130.9 170.925 130.912 170.952Z" fill="#332D27"/>
<path d="M116.356 207.559C116.481 207.086 116.616 206.616 116.751 206.143L117.367 207.433C117.031 207.481 116.692 207.521 116.356 207.559Z" fill="#85827F"/>
<path d="M117.195 204.559C117.859 202.173 118.541 199.779 119.244 197.383C119.331 197.073 119.427 196.765 119.513 196.467C120.225 194.003 120.88 191.625 121.439 189.247C121.44 189.245 121.44 189.244 121.44 189.243L123.899 194.421L117.195 204.559Z" fill="#85827F"/>
<path d="M124.767 197.177L123.899 194.507L126.604 191.208C126.493 191.555 126.391 191.902 126.283 192.253C126.217 192.461 126.153 192.669 126.088 192.879C125.928 193.391 125.767 193.91 125.604 194.437C125.329 195.329 125.049 196.244 124.767 197.177Z" fill="#85827F"/>
<path d="M123.211 177.798C123.211 177.796 123.211 177.792 123.211 177.789C123.297 176.653 123.336 175.488 123.345 174.304V174.016C123.356 171.544 122.932 166.738 121.579 162.619L121.597 162.591L121.599 162.589L126.017 171.897L125.632 172.364L126.017 173.552L123.211 177.798Z" fill="#85827F"/>
<path d="M130.044 180.85C130.193 180.436 130.335 180.052 130.467 179.703C131.004 178.297 131.369 177.098 131.557 176.014C131.372 177.098 131.008 178.298 130.471 179.705C130.337 180.053 130.195 180.436 130.044 180.85ZM122.128 161.457C121.985 161.386 121.839 161.316 121.692 161.247C121.84 161.315 121.987 161.386 122.128 161.457Z" fill="#332D27"/>
<path d="M129.187 183.292L126.017 173.555V173.552L125.632 172.364L126.017 171.897V171.896L129.176 168.039C129.747 168.851 130.217 169.593 130.592 170.302C130.641 170.397 130.691 170.492 130.737 170.586C130.799 170.709 130.857 170.831 130.912 170.952C130.933 170.997 130.953 171.043 130.973 171.089C131.348 171.947 131.572 172.768 131.655 173.621C131.673 173.747 131.684 173.88 131.692 174.016C131.723 174.652 131.677 175.308 131.557 176.014C131.369 177.098 131.004 178.297 130.467 179.703C130.335 180.052 130.193 180.436 130.044 180.849C129.947 181.119 129.845 181.402 129.741 181.697C129.565 182.193 129.38 182.725 129.187 183.292Z" fill="#85827F"/>
<path d="M121.579 162.619C121.577 162.615 121.576 162.61 121.575 162.607L121.555 162.559C121.372 162 121.171 161.452 120.948 160.931V160.921C121.084 160.979 121.219 161.037 121.343 161.095L121.409 161.124C121.504 161.163 121.599 161.204 121.692 161.247C121.839 161.316 121.985 161.385 122.128 161.457C122.181 161.484 122.235 161.51 122.287 161.537C122.288 161.539 122.289 161.539 122.291 161.54L121.599 162.589L121.597 162.591L121.579 162.619Z" fill="#85827F"/>
<path d="M114.415 144.663L110.548 162.128L95.6053 165.993L102.024 141.425L114.415 144.663Z" fill="#FBA479"/>
<path d="M89.5214 190.775C89.5214 190.775 90.7533 165.091 96.876 159.005C97.3613 158.52 97.8813 158.161 98.4307 157.947C100.236 157.251 106.28 157.849 106.28 157.849C108.383 157.159 110.296 155.976 110.684 158.532L110.717 158.805C111.928 170.78 89.5214 190.775 89.5214 190.775Z" fill="#FBA479"/>
<path d="M114.415 144.663L112.723 151.135C109.435 156.217 100.997 158.148 97.7746 158.589L97.532 158.62L102.024 141.425L114.415 144.663Z" fill="#EF7950"/>
<path d="M104.893 170.222C102.86 170.531 100.689 170.698 98.6333 170.308C97.0906 170.017 95.3773 169.556 94.2213 168.434C93.4146 167.653 93.0533 166.36 92.7466 165.643L88.836 184.744C88.8453 187.137 89.1946 189.635 88.6306 191.964C92.7693 188.491 96.3226 184.359 100.34 180.697C102.163 179.037 103.559 176.837 104.927 174.797C105.639 173.735 106.444 172.736 107.157 171.679C107.656 170.939 108.708 169.685 108.723 168.807C107.871 169.832 106.111 170.039 104.893 170.222Z" fill="white"/>
<path d="M87.8826 195.284C87.8826 195.284 87.2119 164.4 96.8759 159.005C90.7533 165.091 89.5213 190.775 89.5213 190.775C89.5213 190.775 111.928 170.78 110.717 158.805L110.684 158.532C110.956 158.56 111.227 158.589 111.499 158.624C113.965 175.028 87.8826 195.284 87.8826 195.284Z" fill="#3A342E"/>
<path d="M75.7693 86.5654C74.7106 85.9721 72.0066 87.1787 70.7426 87.5707C68.4173 88.2921 66.116 89.6001 64.5946 91.5614C61.8266 95.1321 64.372 98.5774 67.916 99.8601C65.3293 100.044 62.9119 102.361 61.9426 104.655C60.4973 108.073 62.0639 112.425 64.9346 114.608C69.2853 117.916 73.7973 116.591 77.7773 113.268C83.2506 108.695 83.8386 101.297 86.2679 95.0534L75.7693 86.5654Z" fill="#822D19"/>
<path d="M69.6853 113.223C71.7253 114.764 72.9693 116.473 73.1759 119.017C73.3519 121.203 70.588 127.543 70.588 127.543C69.388 130.548 65.792 129.147 64.492 127.136C62.8773 124.631 62.0813 120.988 62.0706 118.101C62.0573 113.495 65.0066 109.689 69.6853 113.223Z" fill="#FBA479"/>
<path d="M70.2146 115.593C70.9866 116.525 72.0333 118.364 70.7746 119.223C70.0413 119.723 68.8266 120.113 68.4679 121.156C68.1799 121.996 69.2547 124.223 70.3853 124.216C70.3853 124.216 66.6053 123.896 66.3506 122.083C66.1 120.289 67.9613 118.917 69.6827 118.531C69.6187 116.909 65.636 113.56 64.436 115.425L64.6133 115.077C66.0853 112.463 68.736 113.808 70.2146 115.593Z" fill="#EF7950"/>
<path d="M122.987 95.0294C113.587 86.5187 99.4866 84.8854 87.3172 87.4894C75.5359 90.012 72.5146 102.179 71.5746 108.183C70.6999 113.763 67.94 117.617 65.4933 122.616C63.1733 127.356 60.7106 133.211 64.1679 137.98C67.8332 143.033 80.3159 153.251 85.9172 153.849C108.613 156.281 129.18 143.651 133.211 130.901C137.06 118.72 132.333 103.493 122.987 95.0294Z" fill="#FBA479"/>
<path d="M82.1453 124.255C82.1453 124.255 77.2386 126.351 79.2493 128.164C80.532 129.324 82.1506 129.955 83.8306 130.259C82.364 129.021 79.2599 125.993 82.1453 124.255Z" fill="#EF7950"/>
<path d="M71.3214 116.793C71.648 118.043 72.8333 121.82 75.2373 122.451C77.9226 123.152 81.904 120.015 82.472 119.555L82.536 119.479L82.528 119.421C82.388 118.684 80.952 113.507 78.2253 112.797C75.8467 112.172 72.064 116.704 71.3214 116.793Z" fill="#EF7950"/>
<path d="M71.2813 116.793C71.2653 116.667 71.2533 116.567 71.2453 116.493L71.2333 116.372L71.2253 116.407C71.1599 116.667 71.1853 116.784 71.2813 116.793Z" fill="#EF7950"/>
<path d="M71.2213 116.389L71.2253 116.407L71.2453 116.493C71.2613 116.563 71.2853 116.664 71.3213 116.793C71.648 118.043 72.8333 121.82 75.2373 122.451C77.9226 123.152 81.904 120.015 82.472 119.555L82.5399 119.495L82.536 119.479L82.528 119.421C82.452 118.531 81.9 109.92 79.1653 109.207C76.3627 108.472 71.504 116.015 71.2333 116.372L71.2213 116.389Z" fill="white"/>
<path d="M72.7012 117.928C72.6692 120.963 74.1919 123.436 76.1026 123.459C78.0159 123.477 79.5906 121.035 79.6226 118.001C79.6559 114.971 78.1319 112.493 76.2199 112.472C74.3079 112.453 72.7346 114.893 72.7012 117.928Z" fill="#6856D1"/>
<path d="M73.5907 117.943C73.5693 119.856 74.5307 121.417 75.736 121.429C76.9413 121.441 77.9346 119.903 77.956 117.989C77.976 116.076 77.016 114.516 75.8093 114.501C74.6053 114.489 73.6107 116.028 73.5907 117.943Z" fill="#5842B2"/>
<path d="M79.8626 115.371L77.0399 116.217C77.0399 116.217 79.4733 118.071 80.152 117.561C80.5906 117.229 79.8626 115.371 79.8626 115.371Z" fill="white"/>
<path d="M82.5373 119.476C82.4786 119.023 81.9773 109.941 79.1653 109.205C76.3613 108.472 71.5053 116.015 71.2346 116.373C71.4986 115.864 74.6146 104.563 80.0786 105.712C85.8186 106.92 82.556 118.904 82.5373 119.476Z" fill="#EF7950"/>
<path d="M71.2813 116.793C71.48 118.312 72.3294 123.499 74.7987 124.143C77.496 124.845 81.8827 120.203 82.472 119.555C81.904 120.015 77.9226 123.152 75.2373 122.451C72.8333 121.82 71.648 118.043 71.3214 116.793H71.2813Z" fill="#EF7950"/>
<path d="M96.744 123.439C97.1707 124.716 98.6667 128.572 101.441 129.299C104.511 130.1 108.883 127.16 109.588 126.66L109.68 126.568L109.668 126.512C109.479 125.76 107.644 120.477 104.499 119.66C101.749 118.937 97.5827 123.385 96.744 123.439Z" fill="#EF7950"/>
<path d="M96.708 123.439L96.6586 123.16L96.6346 123.012L96.6267 123.052C96.5613 123.309 96.5933 123.429 96.708 123.439Z" fill="#EF7950"/>
<path d="M96.6187 123.028L96.6267 123.052L96.6586 123.16L96.744 123.439C97.1706 124.716 98.6666 128.572 101.441 129.299C104.511 130.1 108.883 127.16 109.588 126.66L109.688 126.592L109.68 126.568L109.668 126.512C109.544 125.632 108.563 117.029 105.401 116.207C102.167 115.361 96.9293 122.66 96.6346 123.012L96.6187 123.028Z" fill="white"/>
<path d="M106.624 124.368C106.537 127.4 104.681 129.808 102.477 129.747C100.271 129.684 98.5533 127.176 98.6387 124.141C98.724 121.111 100.581 118.7 102.787 118.764C104.992 118.825 106.709 121.335 106.624 124.368Z" fill="#6856D1"/>
<path d="M104.851 123.181C105.083 124.952 104.228 126.523 102.94 126.692C101.653 126.86 100.42 125.563 100.189 123.793C99.9573 122.023 100.813 120.451 102.1 120.281C103.388 120.112 104.619 121.412 104.851 123.181Z" fill="#5842B2"/>
<path d="M106.304 120.208L103.837 122.492C103.837 122.492 107.195 122.797 107.639 121.977C107.928 121.447 106.304 120.208 106.304 120.208Z" fill="white"/>
<path d="M109.681 126.571C109.597 126.109 108.647 117.056 105.4 116.208C102.167 115.361 96.9306 122.659 96.6346 123.012C96.9173 122.507 100.057 111.211 106.351 112.579C112.963 114.015 109.683 125.991 109.681 126.571Z" fill="#EF7950"/>
<path d="M96.708 123.439C96.9933 124.987 98.16 130.245 100.999 130.992C104.087 131.799 108.875 127.361 109.588 126.66C108.883 127.16 104.511 130.1 101.441 129.299C98.6667 128.572 97.1707 124.716 96.744 123.439H96.708Z" fill="#EF7950"/>
<path d="M110.399 107.225C109.228 106.171 107.216 105.86 106.277 107.289C107.767 106.787 111.288 111.503 111.973 112.435C111.973 112.435 111.181 107.929 110.399 107.225Z" fill="#8E3E28"/>
<path d="M76.5333 101.26C77.8413 100.38 79.8773 100.353 80.604 101.901C79.2026 101.193 75.0534 105.369 74.244 106.197C74.244 106.197 75.66 101.849 76.5333 101.26Z" fill="#8E3E28"/>
<path d="M76.5187 134.165C79.9707 138.783 83.736 146.456 90.7294 145.853C95.8374 145.415 100.548 140.128 102.52 135.881C101.559 136.581 76.5187 134.165 76.5187 134.165Z" fill="#60281F"/>
<path d="M101.8 135.643C101.156 136.108 101.175 137.747 100.416 138.335C99.4453 139.079 86.888 141.565 82.792 139.308C82.3253 139.051 81.4413 137.48 80.7706 136.084L80.764 136.072C80.3573 135.239 80.0213 134.487 79.8586 134.184L87.032 134.657L87.068 134.669L101.028 135.589L101.8 135.643Z" fill="white"/>
<path d="M97.5946 143.807C97.5426 143.969 97.432 144.139 97.2973 144.293L97.284 144.305C95.5013 145.732 93.3093 146.698 90.7026 146.541C89.6586 146.484 88.7 146.309 87.7213 146.051C85.9373 145.584 84.3946 144.591 83.02 143.333C83.2733 143.152 83.5453 142.996 83.7399 142.9L83.844 142.855C84.784 142.413 85.8786 142.452 86.8973 142.387C87.8106 142.328 88.556 142.472 89.4386 142.703C89.8666 142.815 90.5093 143.093 90.9026 143.133C91.4613 143.192 92.2266 142.788 92.856 142.783C94.0546 142.763 95.1507 142.731 96.2853 142.971C96.5573 143.023 96.836 143.1 97.1146 143.192C97.66 143.372 97.7373 143.34 97.5946 143.807Z" fill="#EA6453"/>
<path d="M96.2813 142.975C94.5386 144.313 92.6226 145.239 90.688 145.402C90.4373 145.42 90.196 145.429 89.9466 145.429C89.2733 145.429 88.5986 145.353 87.944 145.18C86.4133 144.785 85.0653 143.937 83.8426 142.86L83.8333 142.851C81.8306 141.069 80.1839 138.661 78.6533 136.419C78.2493 135.821 77.8546 135.253 77.4786 134.704C78.3159 134.783 79.24 134.877 80.232 134.965H80.2413C82.1866 135.147 84.3626 135.34 86.5866 135.532C86.8079 135.552 87.0387 135.572 87.26 135.591C92.3253 136.015 97.4853 136.389 100.412 136.419H100.421C100.749 136.428 101.057 136.428 101.317 136.419C101.472 136.419 101.616 136.419 101.751 136.409C100.508 138.787 98.564 141.223 96.2906 142.967L96.2813 142.975ZM76.564 133.723L75.5426 133.617L76.16 134.435C76.7267 135.195 77.2959 136.043 77.9119 136.928C79.4226 139.135 81.0506 141.512 83.024 143.332C83.8813 144.121 84.8053 144.805 85.816 145.315C86.4226 145.633 87.0573 145.883 87.7226 146.056C87.9626 146.124 88.204 146.181 88.4546 146.229C88.9453 146.336 89.4359 146.421 89.9373 146.479C90.1879 146.509 90.4373 146.528 90.6973 146.546C91.3426 146.585 91.968 146.557 92.5653 146.461C92.7 146.441 92.8346 146.421 92.9693 146.393C94.2013 146.143 95.3186 145.652 96.3199 144.997C96.5413 144.853 96.7627 144.708 96.9653 144.544L97.2826 144.304L97.292 144.295C101.385 141.029 103.359 135.369 103.359 135.369C103.359 135.369 85.9133 134.619 76.564 133.723Z" fill="#EF7950"/>
<path d="M88.9707 147.898C88.488 148.045 87.2107 148.758 87.172 149.392C87.132 150.009 87.9814 150.34 88.424 150.756C89.7707 149.068 91.6347 148.148 93.7107 148.54C92.5 147.804 90.3053 147.496 88.9707 147.898Z" fill="#EF7950"/>
<path d="M110.217 141.016C108.207 141.016 106.537 140.257 105.849 138.827C104.703 136.444 106.711 133.097 110.333 131.356C111.78 130.66 113.265 130.325 114.601 130.325C116.611 130.325 118.28 131.084 118.969 132.516C120.115 134.899 118.109 138.243 114.485 139.985C113.039 140.681 111.552 141.016 110.217 141.016Z" fill="#FA8E6E"/>
<path d="M71.624 133.413C70.0413 133.413 68.1639 132.296 66.8399 130.401C65.0279 127.807 64.9413 124.737 66.6479 123.547C67.1079 123.225 67.6506 123.073 68.2346 123.073C69.8159 123.073 71.6946 124.191 73.0199 126.085C74.8293 128.679 74.916 131.748 73.2106 132.94C72.7506 133.261 72.2066 133.413 71.624 133.413Z" fill="#FA8E6E"/>
<path d="M134.047 97.6014C136.733 96.8667 138.289 95.2947 136.183 92.6934C133.8 89.7507 130.688 87.8014 126.973 87.512C127.499 86.8267 128.5 85.9867 128.476 85.0414C128.441 83.7667 126.672 82.4667 125.668 81.9707C123.672 80.9854 117.519 80.9321 116.229 83.1361C115.325 80.2201 114.345 76.484 111.379 74.7667C107.788 72.6894 107.859 76.4107 107.655 78.8201C104.893 74.3921 103.728 67.9854 97.844 66.2974C96.68 65.9627 94.0413 65.544 93.1173 66.2654C91.9546 67.1734 92.176 68.9881 92.0773 70.2387C90.3027 67.2187 84.96 62.2534 81.2173 62.876C77.8626 63.436 76.964 65.6147 77.3467 68.5627C72.5227 64.42 61.9133 56.2387 59.5893 66.8547C58.1853 73.2601 61.432 79.3334 65.1267 84.232C67.6813 87.6227 72.1614 92.1707 76.8654 91.9027V94.248C76.796 96.2174 79.056 98.6627 80.5933 99.6134C83.1867 101.216 86.2293 101.551 89.2226 100.92C92.0733 100.32 94.2426 98.968 96.6346 97.4174C98.4813 96.2214 99.788 94.5494 101.46 93.2587C101.277 98.748 112.02 104.165 116.212 100.305C114.208 102.833 115.66 107.183 117.787 109.112C119.52 110.683 123.275 112.627 125.464 110.724C126.647 118.319 137.144 116.885 140.077 111.177C142.58 106.312 140.125 97.8174 134.047 97.6014Z" fill="#8E3E28"/>
<path d="M135.245 107.507L126.868 108.848C123.815 111.081 122.277 114.623 121.843 118.733C121.701 120.061 121.484 122.621 122.22 123.712C123.192 125.152 125.789 125.453 127.177 124.613C126.579 128.269 128.369 131.9 132.271 132.639C136.219 133.384 139.615 127.512 137.101 124.464C141.291 124.184 144.98 122.227 145.26 117.564C145.575 112.331 140.267 107.721 135.245 107.507Z" fill="#8E3E28"/>
<path d="M136.971 125.613C133.649 125.341 130.959 125.919 128.552 128.209C126.481 130.181 123.667 138.74 123.667 138.74C122.221 142.696 126.931 144.46 129.939 143.632C133.68 142.601 137.616 139.755 140.131 136.96C144.143 132.5 144.581 126.243 136.971 125.613Z" fill="#FBA479"/>
<path d="M134.397 127.457C132.84 127.693 130.228 128.568 130.705 130.495C130.981 131.619 131.825 133.053 131.267 134.376C130.819 135.443 127.841 136.671 126.749 135.685C126.749 135.685 130.699 138.653 132.517 137.115C134.32 135.588 133.701 132.641 132.367 130.771C133.837 129.251 140.609 129.456 140.156 132.311C140.199 132.147 140.249 131.981 140.287 131.816C141.125 128 137.387 127.007 134.397 127.457Z" fill="#EF7950"/>
<path d="M95.54 79.2307C105.523 93.8267 134.161 103.468 139.747 104.181C139.747 104.181 140.448 99.0614 141.364 91.7547C141.664 89.3694 141.985 86.752 142.311 84.0027V84C143.577 73.3907 144.928 60.8254 145.392 52.1454C145.545 49.2547 145.601 46.7974 145.521 44.984C145.509 44.7507 145.499 44.528 145.483 44.3174C144.783 44.4974 142.969 45.4347 140.421 46.8974C138.175 48.188 135.356 49.8894 132.231 51.8334L132.227 51.836C130.535 52.8894 128.752 54.016 126.921 55.188C121.397 58.736 115.44 62.7054 110.213 66.396C108.508 67.5987 106.88 68.7707 105.368 69.8907C99.924 73.9214 96.0053 77.2454 95.5187 78.7014C95.444 78.9214 95.4493 79.0987 95.54 79.2307Z" fill="#FF3217"/>
<path d="M138.989 89.2974L138.204 92.6214L141.364 91.7547C141.664 89.3694 141.985 86.752 142.311 84.0027V84L142.153 83.7067L140.208 86.544L135.977 86.396L138.989 89.2974Z" fill="#F9D84E"/>
<path d="M135.961 67.464L131.823 67.7254L128.625 64.9614L128.327 68.4054L124.652 69.6614L128.608 71.528L129.532 75.0707L132.277 72.78L136.524 73.7107L134.263 70.4294L135.961 67.464Z" fill="#F9D84E"/>
<path d="M105.368 69.8907L106.14 70.2534L107.063 73.7934L109.808 71.5054L114.055 72.4374L111.793 69.1547L113.495 66.1894L110.213 66.396C108.508 67.5987 106.88 68.7707 105.368 69.8907Z" fill="#F9D84E"/>
<path d="M125.439 83.6347L121.297 83.8974L118.101 81.132L117.804 84.5774L114.128 85.8334L118.084 87.7L119.009 91.2427L121.752 88.952L126 89.8827L123.739 86.6L125.439 83.6347Z" fill="#F9D84E"/>
<path d="M126.921 55.188L128.009 55.7014L128.936 59.2414L131.68 56.9534L135.928 57.8854L133.667 54.6027L135.367 51.6374L132.231 51.8334L132.227 51.836C130.535 52.8894 128.752 54.016 126.921 55.188Z" fill="#F9D84E"/>
<path d="M141.203 49.3854L145.156 51.2534L145.392 52.1454C145.545 49.2547 145.601 46.7974 145.521 44.984L145.175 44.684L144.876 48.128L141.203 49.3854Z" fill="#F9D84E"/>
<path d="M139.747 104.181C134.161 103.468 105.523 93.8267 95.54 79.2307C95.492 79.16 95.468 79.0774 95.4667 78.9827C95.4667 78.8987 95.484 78.8054 95.5187 78.7014L95.5987 78.8027C98.6574 82.628 101.405 84.1814 105.925 86.3334C109.979 88.264 114.396 89.8654 118.861 90.6774L119.009 91.2427L119.545 90.7947C121.355 91.0934 123.169 91.2574 124.969 91.2574C126.043 91.2574 127.111 91.1987 128.167 91.0747C133.943 90.4067 135.5 86.6374 136.973 82.5147C139.585 75.2107 139.728 67.1827 140.311 59.344C140.573 55.804 140.435 52.1454 140.5 48.5734C140.508 48.0707 140.472 47.5014 140.421 46.8974C142.969 45.4347 144.783 44.4974 145.483 44.3174C145.499 44.528 145.509 44.7507 145.521 44.984L145.175 44.684L144.876 48.128L141.203 49.3854L145.156 51.2534L145.392 52.1454C144.928 60.8254 143.577 73.3907 142.311 84L142.153 83.7067L140.208 86.544L135.977 86.396L138.989 89.2974L138.204 92.6214L141.364 91.7547C140.448 99.0614 139.747 104.181 139.747 104.181Z" fill="#DD1D0D"/>
<path d="M138.204 92.6214L138.989 89.2974L135.977 86.396L140.208 86.544L142.153 83.7067L142.311 84V84.0027C141.985 86.752 141.664 89.3694 141.364 91.7547L138.204 92.6214Z" fill="#D87F2C"/>
<path d="M119.009 91.2427L118.861 90.6774C119.089 90.7214 119.317 90.7627 119.544 90.7947C119.545 90.7947 119.545 90.7947 119.545 90.7947L119.009 91.2427Z" fill="#D87F2C"/>
<path d="M145.392 52.1454L145.156 51.2534L141.203 49.3854L144.876 48.128L145.175 44.684L145.521 44.984C145.545 45.5374 145.557 46.1494 145.557 46.8147C145.557 48.3347 145.499 50.136 145.392 52.1454Z" fill="#D87F2C"/>
</svg>
