<svg width="209" height="209" viewBox="0 0 209 209" fill="none" xmlns="http://www.w3.org/2000/svg">
<path d="M192.569 160.131C187.004 168.941 180.332 176.613 172.861 183.112C172.033 183.825 171.205 184.528 170.357 185.212C170.001 185.5 169.645 185.789 169.289 186.068C167.431 187.552 165.533 188.957 163.599 190.285C162 191.383 160.373 192.432 158.727 193.433C157.283 194.309 155.829 195.157 154.347 195.956C153.943 196.177 153.528 196.399 153.095 196.611L152.96 196.679C150.745 197.843 148.483 198.932 146.183 199.923C144.603 200.616 143.015 201.252 141.407 201.848C141.08 201.993 140.732 202.109 140.396 202.233C140.213 202.301 140.029 202.368 139.837 202.436C139.712 202.484 139.587 202.532 139.452 202.581C137.912 203.129 136.352 203.639 134.783 204.111L134.475 204.208C131.277 205.161 128.033 205.96 124.76 206.615C121.033 207.347 117.279 207.876 113.505 208.193C112.869 208.261 112.253 208.3 111.617 208.337C110.992 208.396 110.367 208.424 109.74 208.444C108.74 208.511 107.748 208.531 106.747 208.549C106.535 208.559 106.323 208.569 106.12 208.559C105.841 208.579 105.561 208.579 105.283 208.569C105.061 208.579 104.84 208.588 104.609 208.588C104.167 208.588 103.713 208.579 103.271 208.569C100.796 208.54 98.3227 208.415 95.8574 208.212C95.568 208.184 95.2707 208.165 94.9814 208.125C91.7947 207.837 88.6267 207.395 85.4494 206.797C85.2094 206.749 84.9587 206.701 84.7081 206.653C84.4867 206.615 84.2654 206.576 84.0441 206.537L83.8041 206.48C83.4281 206.403 83.0614 206.325 82.6667 206.239C78.3734 205.315 74.1174 204.111 69.9107 202.609C69.2654 202.379 68.6201 202.147 67.9747 201.896C66.8294 201.464 65.6841 201.011 64.5481 200.529L64.4894 200.5C63.9214 200.279 63.3627 200.039 62.7947 199.779C62.66 199.721 62.5347 199.664 62.4107 199.596C61.5827 199.229 60.7641 198.855 59.9454 198.479C59.1081 198.065 58.28 197.66 57.452 197.227L57.2401 197.121C56.8067 196.909 56.3734 196.668 55.9494 196.447L55.824 196.38L55.6414 196.275C55.1894 196.043 54.7467 195.803 54.3041 195.561C54.0441 195.417 53.7827 195.273 53.524 195.119C52.9267 194.781 52.32 194.435 51.7227 194.079C51.472 193.925 51.2134 193.78 50.9627 193.616L50.6734 193.444C50.3081 193.223 49.9427 193 49.5854 192.779C49.432 192.683 49.2774 192.587 49.124 192.491C48.584 192.153 48.0454 191.807 47.5254 191.451L47.2267 191.248L47.1401 191.191L47.1014 191.171C46.8227 190.999 46.5627 190.825 46.3027 190.623C45.9467 190.401 45.6001 190.169 45.2627 189.919L45.1467 189.843C45.0027 189.737 44.8681 189.64 44.7334 189.544C44.3867 189.304 44.0494 189.072 43.7134 188.832L43.6454 188.775C42.8361 188.196 42.0467 187.609 41.2774 187.003C40.7667 186.617 40.2654 186.232 39.7654 185.837C39.1681 185.356 38.5614 184.865 37.9747 184.373L37.6947 184.143C36.8667 183.46 36.0494 182.747 35.2587 182.015C34.624 181.457 33.9987 180.879 33.3827 180.292C31.7361 178.771 30.1761 177.201 28.6641 175.584L28.6161 175.527C27.4614 174.293 26.3534 173.041 25.2654 171.761C23.7054 169.903 22.1947 168.007 20.7694 166.052C19.6041 164.453 18.4681 162.827 17.4001 161.171L17.352 161.084C16.196 159.303 15.0894 157.483 14.0587 155.635C13.9334 155.432 13.8081 155.201 13.7027 154.971C12.9707 153.691 12.2974 152.381 11.6414 151.061C11.2094 150.185 10.7854 149.329 10.3707 148.452C8.95606 145.381 7.68539 142.261 6.56806 139.084C6.05739 137.611 5.56672 136.139 5.12405 134.636C5.08538 134.521 5.04671 134.405 5.01871 134.28C4.93204 133.972 4.83473 133.673 4.73873 133.356C4.49873 132.519 4.26674 131.671 4.0454 130.833C-2.95326 103.963 0.753388 74.3653 16.7641 49.0453C47.4387 0.490626 111.667 -13.9893 160.209 16.6853C208.763 47.36 223.244 111.587 192.569 160.131Z" fill="#F7F2DA"/>
<path d="M158.727 193.433C157.283 194.309 155.829 195.157 154.347 195.956C153.943 196.177 153.528 196.399 153.095 196.611L152.96 196.679C150.745 197.843 148.483 198.932 146.183 199.923C144.603 200.616 143.015 201.252 141.407 201.848C141.08 201.993 140.732 202.109 140.396 202.233C140.213 202.301 140.029 202.368 139.837 202.436C139.712 202.484 139.587 202.532 139.452 202.581C137.912 203.129 136.352 203.639 134.783 204.111L134.475 204.208C131.277 205.161 128.033 205.96 124.76 206.615C121.033 207.347 117.279 207.876 113.505 208.193C112.869 208.261 112.253 208.3 111.617 208.337C110.992 208.396 110.367 208.424 109.74 208.444C108.74 208.511 107.748 208.531 106.747 208.549C106.535 208.559 106.323 208.569 106.12 208.559C105.841 208.579 105.561 208.579 105.283 208.569C105.061 208.579 104.84 208.588 104.609 208.588C104.167 208.588 103.713 208.579 103.271 208.569C100.796 208.54 98.3226 208.415 95.8573 208.212C95.5679 208.184 95.2706 208.165 94.9813 208.125C91.7946 207.837 88.6266 207.395 85.4493 206.797C85.2093 206.749 84.9586 206.701 84.7079 206.653C84.4866 206.615 84.2653 206.576 84.044 206.537L83.8039 206.48C83.4279 206.403 83.0613 206.325 82.6666 206.239C78.3733 205.315 74.1173 204.111 69.9106 202.609C69.2653 202.379 68.6199 202.147 67.9746 201.896C66.8293 201.464 65.684 201.011 64.548 200.529L64.4893 200.5C63.9213 200.279 63.3626 200.039 62.7946 199.779C62.6599 199.721 62.5346 199.664 62.4106 199.596C61.5826 199.229 60.764 198.855 59.9453 198.479C59.108 198.065 58.2799 197.66 57.4519 197.227L57.2399 197.121C56.8066 196.909 56.3733 196.668 55.9493 196.447L55.8239 196.38L55.6413 196.275C55.1893 196.043 54.7466 195.803 54.3039 195.561C54.0439 195.417 53.7826 195.273 53.5239 195.119C52.9266 194.781 52.3199 194.435 51.7226 194.079C51.4719 193.925 51.2133 193.78 50.9626 193.616L50.6733 193.444C50.3079 193.223 49.9426 193 49.5853 192.779C49.4319 192.683 49.2773 192.587 49.1239 192.491C48.5839 192.153 48.0453 191.807 47.5253 191.451C47.5439 191.133 47.5733 190.833 47.5919 190.536C47.6893 189.38 47.8146 188.321 47.9773 187.349C57.8746 182.719 68.6973 173.177 79.1719 168.641C80.0293 168.267 80.8866 167.929 81.7333 167.631C82.4546 167.371 83.1666 167.149 83.88 166.957L102.885 162.461C109.865 161.257 115.921 160.911 121.477 161.267H121.487C123.653 161.401 125.743 161.643 127.783 161.98C137.921 163.665 145.181 166.38 155.916 171.511L155.973 171.531C156.311 171.695 156.648 171.857 156.995 172.021L157.119 172.099C158.564 173.216 159.045 181.255 158.727 193.433Z" fill="#CCCCCC"/>
<path d="M127.783 161.98C124.211 177.875 105.803 201.973 99.2079 206.017C97.7826 206.893 96.3866 207.625 94.9813 208.125C91.7946 207.837 88.6266 207.395 85.4493 206.797C85.2093 206.749 84.9586 206.701 84.7079 206.653C78.6039 200.857 76.1773 181.631 79.1719 168.641C80.0293 168.267 80.8866 167.929 81.7333 167.631C82.4546 167.371 83.1666 167.149 83.8799 166.957L102.885 162.461C109.865 161.257 115.921 160.911 121.477 161.267H121.487C123.653 161.401 125.743 161.643 127.783 161.98Z" fill="#595857"/>
<path d="M90.4546 204.399C74.9346 204.051 83.868 146.755 84.312 144.056C85.9427 134.195 82.3573 117.577 82.3573 117.577L119.048 118.403C119.048 118.403 115.195 133.052 115.753 143.04C115.951 146.531 116.169 161.852 123.443 161.629C125.755 161.557 105.977 204.748 90.4546 204.399Z" fill="#F28C5F"/>
<path d="M115.753 143.04C112.055 145.14 107.987 146.719 103.745 147.913C101.881 148.435 100.079 148.719 98.328 148.804C96.5813 148.64 94.7933 148.275 92.9546 147.671C89.9493 146.677 87.044 145.487 84.312 144.056C85.9427 134.195 82.3573 117.577 82.3573 117.577L119.048 118.403C119.048 118.403 115.195 133.052 115.753 143.04Z" fill="#E26939"/>
<path d="M128.325 112.309C128.22 96.056 126.828 79.6107 126.729 63.972C126.729 63.972 113.164 53.7787 110.967 52.916C109.592 52.3787 108.16 51.972 106.7 51.7067C105.22 51.6613 103.735 51.756 102.277 51.9947C99.9479 52.376 84.5439 59.5 84.5439 59.5C81.1666 74.768 75.8306 90.9787 72.3199 106.849C70.8879 113.32 71.5839 120.592 75.2973 126.42C79.4413 132.92 85.5559 137.388 92.4066 140.564C93.9973 141.301 95.5666 141.795 97.1159 142.083C98.6893 142.125 100.327 141.973 102.036 141.585C109.401 139.916 116.316 136.833 121.732 131.345C126.585 126.427 128.367 118.936 128.325 112.309Z" fill="#F28C5F"/>
<path d="M93.6986 95.7786C93.5106 95.8146 93.328 95.8506 93.1426 95.8813C92.9626 95.9133 92.7813 95.944 92.6026 95.9706C92.4426 95.9973 92.2786 96.02 92.1239 96.0387C91.9986 96.0547 91.8666 96.072 91.744 96.084C91.604 96.1026 91.4693 96.1147 91.3373 96.128C91.0733 96.156 90.8173 96.1734 90.5626 96.188C90.2413 96.208 89.9239 96.216 89.6199 96.2187C89.4653 96.2213 89.3146 96.2213 89.1666 96.2146C89.02 96.2146 88.872 96.208 88.728 96.204L88.6453 96.2C88.2546 96.1787 87.876 96.1453 87.512 96.1027L87.4773 96.0973C87.2133 96.0613 86.952 96.0227 86.7013 95.9747C86.324 95.904 85.968 95.8227 85.6266 95.728L85.2866 95.6307L84.964 95.5253C84.6426 95.4187 84.3346 95.3013 84.0426 95.172L83.7586 95.0426L83.4853 94.9093L83.2186 94.7706L82.964 94.6253C82.6813 94.4627 82.4146 94.292 82.1693 94.116L82.0346 94.02L81.8253 93.86C81.684 93.756 81.556 93.6453 81.4293 93.5373C81.3053 93.4293 81.1866 93.3213 81.0693 93.2107L80.9053 93.052L80.744 92.8867L80.4733 92.5947L80.4493 92.5654C80.3093 92.404 80.1826 92.248 80.0653 92.0987L79.844 91.796L79.6493 91.512L79.4813 91.2426L79.4093 91.1187C79.0746 90.5467 78.944 90.164 78.944 90.164C81.408 87.3347 85.4226 83.1813 89.7559 85.7227C93.1786 87.7307 91.9933 91.788 93.6986 95.7786Z" fill="#E26939"/>
<path d="M89.572 87.4346C85.236 84.8933 81.4093 87.3333 78.944 90.164C78.944 90.164 79.2786 102.101 93.6973 95.78C91.996 91.7893 93 89.4439 89.572 87.4346Z" fill="#E26939"/>
<path d="M93.6986 95.7786C93.5106 95.8146 93.328 95.8506 93.1426 95.8813C92.9626 95.9133 92.7813 95.944 92.6026 95.9706C92.4426 95.9973 92.2786 96.02 92.1239 96.0387C91.9986 96.0547 91.8666 96.072 91.744 96.084C91.604 96.1026 91.4693 96.1147 91.3373 96.128C91.0733 96.156 90.8173 96.1734 90.5626 96.188C90.3586 96.204 90.1573 96.2106 89.9573 96.2173L89.6199 96.2187C89.4653 96.2213 89.3146 96.2213 89.1666 96.2146C89.02 96.2146 88.872 96.208 88.728 96.204L88.6453 96.2C88.2546 96.1787 87.876 96.1453 87.512 96.1027L87.4773 96.0973C87.2133 96.0613 86.952 96.0227 86.7013 95.9747C86.324 95.904 85.968 95.8227 85.6266 95.728L85.2866 95.6307L84.964 95.5253C84.6426 95.4187 84.3346 95.3013 84.0426 95.172L83.7586 95.0426L83.568 94.952L83.4853 94.9093L83.2186 94.7706L82.964 94.6253C82.6813 94.4627 82.4146 94.292 82.1693 94.116L82.0346 94.02L81.8253 93.86C81.684 93.756 81.556 93.6453 81.4293 93.5373C81.3053 93.4293 81.1866 93.3213 81.0693 93.2107L80.9053 93.052L80.744 92.8867L80.4733 92.5947L80.4493 92.5654C80.3106 92.408 80.1826 92.2507 80.0653 92.0987L79.844 91.796L79.6493 91.512L79.4813 91.2426L79.4093 91.1187C79.0746 90.5467 78.944 90.164 78.944 90.164C81.408 87.3347 85.4226 83.1813 89.7559 85.7227C93.1786 87.7307 91.9933 91.788 93.6986 95.7786Z" fill="white"/>
<path d="M89.9067 90.3507C89.4907 93.2907 87.4094 95.4254 85.26 95.1214C83.1094 94.8174 81.7027 92.1868 82.1213 89.2468C82.536 86.3054 84.6174 84.1708 86.768 84.4748C88.9187 84.7801 90.324 87.4107 89.9067 90.3507Z" fill="#56413D"/>
<path d="M88.1533 89.4414C87.928 91.028 86.7613 92.1787 85.5493 92.0054C84.336 91.8334 83.5333 90.4067 83.76 88.8173C83.9853 87.228 85.152 86.0787 86.364 86.2507C87.5787 86.4227 88.3786 87.8507 88.1533 89.4414Z" fill="#44322E"/>
<path d="M82.6813 85.316C82.8053 84.7706 84.6706 84.2786 84.6706 84.2786L85.3346 88.8413C85.3346 88.8413 82.44 86.392 82.6813 85.316Z" fill="white"/>
<path d="M93.6986 95.7787C91.9933 91.788 93.1786 87.7307 89.7559 85.7227C85.4226 83.1814 81.408 87.3347 78.944 90.164C81.02 85.3347 85.704 75.9347 90.0413 78.476C93.4693 80.4854 94.3773 89.3974 93.6986 95.7787Z" fill="#E26939"/>
<path d="M107.636 95.6094C107.797 95.7134 107.956 95.8134 108.115 95.912C108.272 96.0067 108.429 96.1028 108.584 96.1908C108.724 96.2761 108.868 96.3574 109.003 96.4334L109.341 96.6147C109.465 96.6841 109.585 96.7441 109.704 96.8054C109.939 96.9267 110.171 97.0387 110.401 97.1454C110.693 97.2827 110.985 97.4067 111.267 97.5227C111.409 97.5801 111.549 97.6348 111.689 97.6854C111.827 97.7374 111.965 97.788 112.101 97.8347L112.179 97.8628C112.552 97.9881 112.915 98.0961 113.269 98.1908L113.303 98.1974C113.561 98.2614 113.819 98.3214 114.069 98.3694C114.447 98.4427 114.808 98.4987 115.161 98.5374L115.512 98.5694L115.852 98.5921C116.189 98.6107 116.517 98.6147 116.836 98.6027L117.149 98.5867L117.452 98.5641L117.752 98.5334L118.043 98.4921C118.365 98.4441 118.676 98.3841 118.968 98.3107L119.131 98.2707L119.383 98.1988C119.552 98.1548 119.713 98.0987 119.869 98.0454C120.025 97.9907 120.173 97.9334 120.324 97.8747L120.535 97.7867L120.747 97.6934C120.871 97.6361 120.992 97.5787 121.107 97.5201L121.137 97.5014C121.327 97.404 121.504 97.3054 121.667 97.2094L121.984 97.0094L122.271 96.8174L122.527 96.6281L122.639 96.54C123.16 96.1307 123.423 95.8241 123.423 95.8241C122.173 92.2854 119.969 86.9468 115.004 87.7134C111.084 88.3188 110.692 92.528 107.636 95.6094Z" fill="#E26939"/>
<path d="M114.547 89.372C119.513 88.608 122.172 92.284 123.424 95.8253C123.424 95.8253 118.713 106.799 107.636 95.6107C110.691 92.528 110.62 89.9774 114.547 89.372Z" fill="#E26939"/>
<path d="M107.636 95.6094C107.797 95.7134 107.956 95.8134 108.115 95.912C108.272 96.0067 108.429 96.1028 108.584 96.1908C108.724 96.2761 108.868 96.3574 109.003 96.4334L109.341 96.6147C109.465 96.6841 109.585 96.7441 109.704 96.8054C109.939 96.9267 110.171 97.0387 110.401 97.1454C110.585 97.2347 110.771 97.3161 110.953 97.3947L111.267 97.5227C111.409 97.5801 111.549 97.6348 111.689 97.6854C111.827 97.7374 111.965 97.788 112.101 97.8347L112.179 97.8628C112.552 97.9881 112.915 98.0961 113.269 98.1908L113.303 98.1974C113.561 98.2614 113.819 98.3214 114.069 98.3694C114.447 98.4427 114.808 98.4987 115.161 98.5374L115.512 98.5694L115.852 98.5921C116.189 98.6107 116.517 98.6147 116.836 98.6027L117.149 98.5867L117.36 98.5734L117.452 98.5641L117.752 98.5334L118.043 98.4921C118.365 98.4441 118.676 98.3841 118.968 98.3107L119.131 98.2707L119.383 98.1988C119.552 98.1548 119.713 98.0987 119.869 98.0454C120.025 97.9907 120.173 97.9334 120.324 97.8747L120.535 97.7867L120.747 97.6934C120.875 97.6388 120.992 97.5787 121.107 97.5201L121.137 97.5014C121.327 97.4067 121.501 97.3094 121.667 97.2094L121.984 97.0094L122.271 96.8174L122.527 96.6281L122.639 96.54C123.16 96.1307 123.423 95.8241 123.423 95.8241C122.173 92.2854 119.969 86.9468 115.004 87.7134C111.084 88.3188 110.692 92.528 107.636 95.6094Z" fill="white"/>
<path d="M113.161 91.96C112.465 94.8467 113.612 97.5987 115.724 98.108C117.836 98.616 120.111 96.688 120.807 93.8013C121.503 90.9146 120.355 88.1626 118.243 87.6533C116.132 87.1453 113.856 89.072 113.161 91.96Z" fill="#56413D"/>
<path d="M115.127 91.76C114.751 93.3187 115.412 94.8173 116.603 95.104C117.793 95.3907 119.065 94.3587 119.44 92.7987C119.817 91.2374 119.155 89.74 117.964 89.452C116.772 89.1667 115.503 90.1987 115.127 91.76Z" fill="#44322E"/>
<path d="M121.733 89.9414C121.819 89.3894 120.267 88.2441 120.267 88.2441L117.969 92.2414C117.969 92.2414 121.561 91.0307 121.733 89.9414Z" fill="white"/>
<path d="M107.636 95.6094C110.692 92.528 111.084 88.3188 115.004 87.7134C119.969 86.9468 122.173 92.2854 123.423 95.8241C123.272 90.5694 122.379 80.1054 117.411 80.8707C113.483 81.4774 109.356 89.4267 107.636 95.6094Z" fill="#E26939"/>
<path d="M117.619 114.492C114.945 118.783 104.875 127.864 97.3226 127.288C91.4946 126.844 84.6546 117.088 82.4399 113.695C84.7093 114.08 88.8053 114.421 90.8373 114.576C93.1173 114.751 111.545 116.087 117.619 114.492Z" fill="#873421"/>
<path d="M110.963 119.971C110.308 121.109 109.397 122.303 108.388 123.191C108.124 123.429 107.853 123.671 107.583 123.919C106.917 124.525 106.243 125.152 105.54 125.728C102.773 127.165 99.9079 128.047 97.2799 127.845C94.8199 127.659 92.2213 125.933 89.8479 123.719L89.7066 123.292C89.4439 122.985 89.2452 122.64 89.0839 122.268C88.6612 121.309 88.5053 120.2 88.1799 119.244C89.5666 119.376 109.98 119.895 110.963 119.971Z" fill="white"/>
<path d="M114.888 114.389C113.827 116.677 112.521 119.459 110.828 120.351C110.44 120.552 108.42 120.713 105.735 120.783C99.692 120.94 90.2667 120.637 88.5027 119.285C87.1414 118.239 86.044 116.063 85.2347 113.965C85.1734 113.804 85.112 113.645 85.052 113.484C85.28 113.508 85.52 113.537 85.7707 113.56C86.648 113.656 87.6293 113.748 88.688 113.84C96.528 114.521 108.548 115.075 114.888 114.389Z" fill="white"/>
<path d="M110.828 120.351C109.477 120.755 90.2666 120.637 88.5026 119.285C87.1413 118.239 86.044 116.063 85.2346 113.965L85.7706 113.56C86.648 113.656 87.6293 113.748 88.6879 113.84C88.8586 115.137 89.1813 116.497 89.5586 117.653C89.7639 118.269 89.7146 118.267 90.204 118.533C90.936 118.936 108.604 120.155 110.828 120.351Z" fill="#E8E6E6"/>
<path d="M95.0093 114.851L95.02 114.861H95.048L95.0093 114.851ZM95.0093 114.851L95.02 114.861H95.048L95.0093 114.851ZM117.251 115.044L117.231 115.072L117 115.389L116.807 115.651C116.24 116.391 115.527 117.2 114.708 118.048L114.651 118.105L114.468 118.299H114.459C114.304 118.452 114.151 118.615 113.987 118.779L113.957 118.808L113.852 118.904L113.583 119.164C113.389 119.337 113.197 119.521 113.004 119.704C112.639 120.04 112.244 120.377 111.849 120.715L111.715 120.831C111.531 120.984 111.339 121.139 111.156 121.292C110.935 121.475 110.723 121.639 110.501 121.812L110.481 121.832C110.057 122.159 109.625 122.485 109.192 122.795L108.941 122.968C108.711 123.131 108.489 123.285 108.257 123.44L107.969 123.632L107.949 123.641L107.777 123.748L107.757 123.757L107.748 123.767L107.739 123.776L107.728 123.785V123.796L107.709 123.805L107.507 123.931L107.16 124.141C106.824 124.355 106.476 124.556 106.131 124.749L105.775 124.951L105.581 125.056C105.321 125.192 105.061 125.327 104.792 125.461C104.599 125.557 104.407 125.653 104.204 125.74L104.167 125.76L104.003 125.836C103.809 125.923 103.617 126.009 103.416 126.087C103.232 126.164 103.049 126.231 102.867 126.308C102.509 126.444 102.144 126.579 101.779 126.684C101.663 126.723 101.548 126.751 101.421 126.789L101.335 126.819C101.124 126.876 100.903 126.935 100.691 126.983C100.517 127.021 100.344 127.059 100.161 127.097L99.8533 127.156C99.5253 127.213 99.1973 127.252 98.88 127.271L98.8227 127.28C98.312 127.319 97.812 127.319 97.32 127.28C97.1573 127.271 96.984 127.252 96.8107 127.223C96.6667 127.204 96.5307 127.175 96.3867 127.136L96.2907 127.117L96.0787 127.059L96.04 127.049L95.7707 126.963L95.5107 126.876H95.5L95.3173 126.809L95.2987 126.8L95.26 126.789L95.2507 126.78L95.2413 126.771C95.116 126.723 94.9813 126.665 94.856 126.607C94.596 126.492 94.336 126.356 94.0853 126.221C93.96 126.144 93.8253 126.077 93.7 126L93.4893 125.875C93.344 125.788 93.1907 125.692 93.0467 125.585C92.9013 125.491 92.7573 125.393 92.612 125.288C92.4587 125.181 92.3133 125.076 92.1693 124.96C92.0253 124.855 91.8813 124.739 91.736 124.624C91.5533 124.469 91.3707 124.315 91.188 124.161L91.0427 124.045L90.9093 123.931C90.696 123.737 90.4853 123.545 90.2733 123.353C90.1187 123.208 89.9747 123.073 89.8307 122.929L89.7627 122.871C89.5227 122.631 89.272 122.389 89.0413 122.139L89.0307 122.129H89.0213L88.78 121.869C88.608 121.696 88.4347 121.504 88.2707 121.321L88.02 121.041C87.6067 120.589 87.2013 120.117 86.816 119.656C86.5853 119.376 86.364 119.107 86.152 118.837C85.9307 118.568 85.72 118.299 85.5173 118.037C85.42 117.903 85.324 117.768 85.2187 117.643L85.0347 117.384L84.7947 117.075C84.1787 116.248 83.6293 115.468 83.1773 114.803C83.0813 114.668 82.9947 114.533 82.908 114.399C82.7347 114.148 82.58 113.908 82.436 113.696C82.9653 113.783 83.5813 113.869 84.256 113.956C84.4 113.965 84.5547 113.995 84.6987 114.004L84.988 114.032L85.276 114.072L85.556 114.1L85.72 114.119C85.8627 114.129 85.9987 114.148 86.1427 114.167C86.4413 114.196 86.7493 114.225 87.0573 114.253L87.3173 114.273L87.596 114.303C87.7893 114.321 87.9813 114.34 88.1653 114.36L88.3373 114.369H88.3667C88.5013 114.38 88.636 114.399 88.7707 114.408H88.78L88.9827 114.428L89.0693 114.437C89.2147 114.447 89.3587 114.456 89.5027 114.467C90.0027 114.515 90.456 114.553 90.8413 114.581C90.9373 114.581 91.0427 114.591 91.1787 114.601H91.1973H91.2173L91.352 114.62C91.4573 114.62 91.5827 114.629 91.708 114.639C91.8813 114.659 92.084 114.668 92.2947 114.677C92.4013 114.688 92.5267 114.697 92.6507 114.707L92.92 114.725H93.0267C93.1333 114.736 93.248 114.745 93.3733 114.755C93.6813 114.775 94.008 114.793 94.356 114.812C94.5093 114.823 94.664 114.832 94.8267 114.841L94.8947 114.851H95H95.0093L95.02 114.861H95.1733C95.3947 114.88 95.6267 114.889 95.8667 114.899L96.0973 114.919C96.28 114.928 96.4733 114.937 96.6667 114.947C96.9253 114.967 97.1947 114.976 97.4653 114.985C97.7347 115.005 98.004 115.015 98.2827 115.024H98.2933L98.496 115.033L98.7747 115.053C99.044 115.063 99.3227 115.072 99.6027 115.083L99.7853 115.092C99.9293 115.101 100.075 115.101 100.219 115.111H100.237C100.969 115.14 101.731 115.168 102.481 115.188C102.616 115.188 102.741 115.197 102.876 115.197L103.011 115.208C103.223 115.208 103.453 115.217 103.675 115.227C104.051 115.227 104.425 115.236 104.811 115.247C104.965 115.247 105.119 115.247 105.273 115.255C105.591 115.255 105.899 115.265 106.207 115.265H107.604C107.757 115.265 107.912 115.275 108.065 115.265C108.355 115.265 108.652 115.265 108.941 115.255H109.607C109.836 115.247 110.077 115.247 110.308 115.236H110.415L110.597 115.227C110.78 115.217 110.953 115.217 111.127 115.208C111.58 115.188 112.013 115.168 112.436 115.149C112.764 115.131 113.091 115.111 113.399 115.083H113.485L113.62 115.072L113.881 115.044C114.083 115.033 114.276 115.015 114.459 114.996H114.497H114.516H114.525L114.535 114.985L114.612 114.976C114.959 114.947 115.296 114.909 115.623 114.861L115.892 114.823C116.076 114.793 116.249 114.775 116.423 114.745C116.585 114.716 116.759 114.677 116.913 114.649L117.107 114.611C117.251 114.581 117.385 114.553 117.511 114.515L117.568 114.504L117.616 114.485V114.495L117.511 114.659L117.5 114.677L117.365 114.88L117.26 115.033V115.044H117.251ZM118.184 113.735H118.175C117.433 114.023 116.307 114.235 114.891 114.389C114.632 114.417 114.372 114.447 114.092 114.467L113.889 114.485L113.688 114.504C113.544 114.515 113.399 114.524 113.245 114.533C113.033 114.553 112.812 114.563 112.591 114.572L112.495 114.581H112.388L112.187 114.591L112.023 114.601L111.839 114.611H111.781L111.685 114.62L111.531 114.629H111.396C111.233 114.629 111.06 114.639 110.896 114.649C110.695 114.659 110.492 114.659 110.289 114.668H110.28C110.116 114.677 109.952 114.677 109.779 114.677L109.509 114.688H109.105L108.759 114.697H107.931L107.892 114.707H107.844H107.121C106.948 114.707 106.785 114.707 106.621 114.697H106.255C106.044 114.707 105.832 114.707 105.611 114.697H105.591C105.369 114.688 105.139 114.688 104.917 114.688L104.58 114.677C104.243 114.677 103.896 114.668 103.551 114.659C103.271 114.659 102.992 114.649 102.712 114.639C102.481 114.629 102.251 114.629 102.019 114.62C101.836 114.611 101.644 114.611 101.451 114.601C101.277 114.591 101.104 114.591 100.921 114.581L100.584 114.572C100.305 114.563 100.027 114.543 99.7373 114.533L99.4387 114.524L99.236 114.515H99.14C98.852 114.504 98.572 114.485 98.2827 114.476C98.0813 114.467 97.8893 114.456 97.6867 114.447C97.532 114.437 97.388 114.428 97.2333 114.417C96.868 114.408 96.512 114.38 96.1453 114.36C95.684 114.332 95.212 114.312 94.76 114.283C94.384 114.264 94.0187 114.235 93.652 114.216L93.4507 114.207C93.3253 114.196 93.2093 114.187 93.0933 114.177C92.9787 114.177 92.8627 114.159 92.7373 114.148H92.6507C92.3533 114.129 92.064 114.111 91.7747 114.081H91.7653H91.7467H91.7267L91.6973 114.072L91.3707 114.052L91.1787 114.043L90.9853 114.023C90.7547 114.004 90.524 113.995 90.3027 113.975C90.0707 113.956 89.8587 113.936 89.6373 113.917C89.3107 113.897 88.9933 113.869 88.6947 113.84H88.684C88.472 113.821 88.2707 113.801 88.068 113.783L87.8853 113.773L87.548 113.735L87.4613 113.724L87.3947 113.715L87.288 113.705L87.164 113.696H87.0667L86.7973 113.667C86.556 113.639 86.316 113.619 86.076 113.6L85.7667 113.561C85.5173 113.541 85.2853 113.513 85.0547 113.484C82.9267 113.233 81.512 113.012 81.2227 112.829C81.2227 112.829 82.5027 114.967 84.496 117.624C84.612 117.788 84.7373 117.951 84.8613 118.105C86.268 119.953 87.992 121.985 89.8493 123.719C90.148 123.997 90.4467 124.267 90.7453 124.528C90.8987 124.652 91.0533 124.787 91.2067 124.903C91.4573 125.105 91.708 125.297 91.9573 125.491C92.1693 125.653 92.3813 125.799 92.5933 125.943L92.94 126.173C94.2293 127.011 95.54 127.599 96.82 127.791C96.9733 127.82 97.128 127.839 97.2813 127.849C97.5613 127.868 97.86 127.877 98.148 127.877H98.2253L98.312 127.868C98.5827 127.868 98.852 127.849 99.1213 127.82C99.3613 127.801 99.6027 127.772 99.8533 127.723H99.872C100.027 127.704 100.18 127.675 100.333 127.637C100.536 127.608 100.729 127.56 100.931 127.512C101.211 127.444 101.48 127.377 101.749 127.291L101.943 127.232C102.192 127.156 102.452 127.079 102.703 126.983L102.779 126.953C103.02 126.867 103.271 126.771 103.511 126.673C103.935 126.5 104.359 126.317 104.781 126.107C105.032 125.991 105.292 125.865 105.543 125.731C109.24 123.815 112.753 120.927 115.239 118.317C115.787 117.749 116.277 117.191 116.711 116.661C117.173 116.112 117.559 115.592 117.876 115.111C118.156 114.697 118.377 114.321 118.531 113.975C118.627 113.783 118.695 113.609 118.752 113.445C118.599 113.552 118.416 113.648 118.184 113.735ZM95.0093 114.851L95.02 114.861H95.048L95.0093 114.851ZM95.0093 114.851L95.02 114.861H95.048L95.0093 114.851Z" fill="#E26939"/>
<path d="M103.495 131.561C99.7266 128.283 92.116 131.573 92.116 131.573C93.796 131.211 101.477 132.387 102.748 133.056C102.967 132.647 103.916 131.927 103.495 131.561Z" fill="#E26939"/>
<path d="M97.7453 69.088C97.152 69 96.0253 68.904 96.0253 68.904L94.368 70.8786C94.368 70.8786 94.456 68.9706 94.1306 68.9706C85.5133 68.976 82.7747 74.7773 82.7747 74.7773C85.2293 73.9173 87.7306 73.404 90.128 73.3933C93.4146 73.3827 95.2466 74.136 96.6666 75.804C97.2146 73.6053 97.636 71.3613 97.7453 69.088Z" fill="#44322E"/>
<path d="M110.457 74.0827C111.056 74.12 112.177 74.2613 112.177 74.2613L113.383 76.5413C113.383 76.5413 113.697 74.6573 114.017 74.724C122.44 76.5387 123.901 82.7853 123.901 82.7853C121.681 81.4293 119.343 80.4026 117.003 79.8893C113.791 79.188 111.841 79.5413 110.101 80.8747C110.031 78.6107 110.087 76.328 110.457 74.0827Z" fill="#44322E"/>
<path d="M76.2187 88.976C74.772 86.22 69.2227 85.4107 66.94 87.4881C64.4014 89.8001 68.012 102.928 70.888 103.091C77.5667 103.464 76.2187 88.976 76.2187 88.976Z" fill="#F28C5F"/>
<path d="M75.1679 95.744C75.3253 94.7827 75.4893 93.7081 75.5039 92.7321C75.5119 92.2081 75.4186 91.64 75.3666 91.1307C75.3386 90.8547 75.2773 90.5027 75.1946 90.3107C74.4266 88.4907 72.3733 88.3241 70.9386 88.0961C70.3453 88.0001 69.316 87.8493 68.7746 88.12C68.344 88.336 68.0986 88.9707 67.8373 89.3373C69.0786 88.2187 71.6239 88.9974 72.8346 89.8987C74.0973 90.8387 74.4013 93.2867 73.8346 94.7227C72.6146 94.512 71.4279 95.824 71.4999 96.988C71.5733 98.1454 73.8013 98.932 74.2279 97.8347C72.2853 97.3267 74.0039 95.8467 75.1679 95.744Z" fill="#E26939"/>
<path d="M128.204 93.936C130.197 91.544 135.793 91.916 137.589 94.428C139.585 97.22 133.304 109.299 130.457 108.855C123.847 107.82 128.204 93.936 128.204 93.936Z" fill="#F28C5F"/>
<path d="M127.813 100.773C127.86 99.8 127.925 98.716 128.116 97.7574C128.22 97.2454 128.428 96.7094 128.585 96.2214C128.671 95.956 128.805 95.6253 128.924 95.456C130.057 93.8387 132.101 94.104 133.552 94.1827C134.152 94.2147 135.192 94.2814 135.664 94.66C136.04 94.9627 136.147 95.6333 136.324 96.048C135.345 94.6933 132.693 94.9187 131.32 95.548C129.889 96.2027 129.079 98.532 129.331 100.055C130.567 100.105 131.453 101.637 131.137 102.757C130.824 103.875 128.479 104.179 128.293 103.016C130.297 102.925 128.929 101.119 127.813 100.773Z" fill="#E26939"/>
<path d="M133.28 59.252C131.924 56.4454 121.635 38.1854 117.217 47.3187C116.029 33.888 90.6439 34.428 97.4852 42.788C92.1719 42.436 79.9706 43.0227 86.1026 49.0173C86.9239 49.8213 83.9586 48.044 80.3813 50.1066C64.9266 59.016 79.9466 77.5587 81.2759 73.8667C82.4359 70.6387 84.8866 66.624 85.0813 63.192C90.7706 64.2267 96.8199 61.288 99.4813 56.3453C99.3733 57.2627 99.8066 69.5333 113.324 62.328C115.237 65.872 117.217 69.444 120.845 71.0494C123.132 72.0627 124.801 71.8386 125.92 70.1373C127.021 74.3413 127.204 81.6947 127.419 85.6053C127.909 83.244 140.32 73.8307 133.28 59.252Z" fill="#44322E"/>
<path d="M79.9733 112.296C81.3853 111.141 90.3067 113.793 93.0307 114.389C94.5827 114.729 96.9934 115.504 98.548 114.948C100.076 114.404 99.9493 112.431 100.071 111.079C100.071 111.079 79.452 107.707 79.9733 112.296Z" fill="#44322E"/>
<path d="M119.225 115.621C118.017 114.255 108.784 115.445 106 115.599C104.416 115.687 101.912 116.065 100.465 115.269C99.044 114.487 99.4853 112.559 99.5813 111.204C99.5813 111.204 120.475 111.173 119.225 115.621Z" fill="#44322E"/>
<path d="M93.8773 106.861C92.412 106.98 91.1947 107.795 91.2013 109.389C91.2173 112.163 95.852 112.443 98.0093 112.892C102.073 113.736 107.473 112.532 110.369 109.523C100.463 112.417 93.8773 106.861 93.8773 106.861Z" fill="#E26939"/>
<path d="M91.0747 79.7573C91.0747 79.7573 97.796 93.904 93.2627 110.035C94.472 110.816 96.7534 110.449 97.9907 111.151C100.423 104.04 94.6387 83.9307 91.0747 79.7573Z" fill="#E26939"/>
<path d="M169.289 186.068C167.431 187.552 165.533 188.957 163.599 190.285C162 191.383 160.373 192.432 158.727 193.433C157.283 194.309 155.829 195.157 154.347 195.956C153.943 196.177 153.528 196.399 153.095 196.611L152.96 196.679C150.745 197.843 148.483 198.932 146.183 199.923C144.603 200.616 143.015 201.252 141.407 201.848C141.08 201.993 140.732 202.109 140.396 202.233C140.213 202.301 140.029 202.368 139.837 202.436C139.712 202.484 139.587 202.532 139.452 202.581C139.587 201.877 139.723 201.184 139.867 200.5C143.631 182.053 148.917 168.941 155.916 171.511L155.973 171.531C156.311 171.656 156.657 171.819 156.995 172.021L157.119 172.099C162.472 175.247 166.448 180.08 169.289 186.068Z" fill="#CCCCCC"/>
<path d="M139.837 202.436C139.712 202.484 139.587 202.532 139.452 202.581C139.587 201.877 139.723 201.184 139.867 200.5C139.876 200.935 139.867 201.588 139.837 202.436Z" fill="#595857"/>
</svg>
