<svg width="209" height="209" viewBox="0 0 209 209" fill="none" xmlns="http://www.w3.org/2000/svg">
<path d="M192.571 159.776C187.005 168.586 180.333 176.258 172.863 182.757C172.391 183.162 171.919 183.567 171.447 183.962C171.091 184.258 170.725 184.559 170.36 184.857C170.013 185.136 169.667 185.416 169.32 185.695L169.291 185.713C167.432 187.196 165.536 188.601 163.601 189.931C163.292 190.141 162.975 190.355 162.657 190.556C162.021 190.989 161.377 191.414 160.732 191.827C160.067 192.251 159.403 192.664 158.729 193.079C157.843 193.619 156.948 194.146 156.043 194.657L155.995 194.686C155.456 194.995 154.897 195.304 154.348 195.601C153.944 195.822 153.529 196.044 153.097 196.256L152.961 196.322C150.979 197.363 148.956 198.345 146.896 199.251C146.665 199.357 146.424 199.463 146.184 199.568L145.915 199.684L145.596 199.817C145.356 199.924 145.115 200.029 144.875 200.127C144.172 200.416 143.479 200.704 142.767 200.974L142.439 201.108C142.14 201.215 141.852 201.329 141.553 201.436L141.408 201.493L141.235 201.562C140.965 201.676 140.676 201.772 140.397 201.879C140.215 201.947 140.032 202.014 139.839 202.081C139.715 202.129 139.588 202.177 139.453 202.225L139.127 202.341C138.529 202.552 137.933 202.755 137.327 202.957C136.489 203.227 135.651 203.496 134.813 203.747L134.784 203.756L134.476 203.853C134.293 203.91 134.111 203.959 133.928 204.016L133.725 204.075C133.331 204.19 132.936 204.296 132.541 204.41L132.272 204.477C132.079 204.536 131.877 204.584 131.675 204.641C131.472 204.698 131.28 204.748 131.077 204.796C130.635 204.912 130.183 205.028 129.74 205.141C129.605 205.172 129.471 205.209 129.335 205.239L129.028 205.315C128.42 205.46 127.804 205.604 127.197 205.749C126.957 205.807 126.716 205.856 126.467 205.903C125.917 206.028 125.368 206.143 124.82 206.251L124.761 206.258L124.464 206.316C123.625 206.48 122.779 206.635 121.941 206.769C120.42 207.029 118.899 207.251 117.368 207.433C117.031 207.481 116.695 207.521 116.357 207.559C115.769 207.627 115.192 207.684 114.605 207.732C114.239 207.771 113.872 207.809 113.507 207.839C112.872 207.907 112.255 207.944 111.62 207.983C110.995 208.04 110.368 208.069 109.743 208.088C108.741 208.156 107.749 208.176 106.748 208.195C106.536 208.204 106.324 208.213 106.123 208.204L105.977 208.213C105.747 208.224 105.516 208.224 105.284 208.213C105.063 208.224 104.841 208.233 104.611 208.233C104.168 208.233 103.716 208.224 103.272 208.213C102.377 208.204 101.472 208.186 100.577 208.138C98.9974 208.08 97.428 207.983 95.8587 207.859C95.5707 207.828 95.272 207.809 94.9827 207.771C94.588 207.732 94.184 207.695 93.7893 207.645C91.7773 207.453 89.7747 207.184 87.772 206.857C87.0014 206.721 86.2213 206.586 85.4507 206.443C85.2107 206.395 84.96 206.347 84.7093 206.298C84.488 206.258 84.2667 206.221 84.0453 206.183L83.8054 206.125C83.4294 206.048 83.064 205.971 82.668 205.884L82.3507 205.816C81.908 205.72 81.484 205.624 81.0414 205.519H81.0321C79.4241 205.141 77.816 204.728 76.2187 204.276C76.0547 204.228 75.9 204.18 75.7467 204.14L75.4 204.034C73.56 203.496 71.732 202.909 69.912 202.253C69.6427 202.157 69.3733 202.061 69.112 201.965C68.7267 201.831 68.352 201.686 67.976 201.541C67.496 201.359 67.0134 201.176 66.5321 200.983C66.2147 200.859 65.9067 200.733 65.5987 200.608C65.3774 200.521 65.156 200.434 64.944 200.339C64.8094 200.28 64.684 200.232 64.5494 200.175L64.492 200.145L64.2601 200.049L64.0494 199.963L63.788 199.857C63.4614 199.721 63.1334 199.579 62.7974 199.422C62.6627 199.365 62.5373 199.308 62.412 199.241C62.0933 199.096 61.776 198.962 61.468 198.807C61.18 198.683 60.8907 198.557 60.6107 198.421C60.3894 198.325 60.168 198.22 59.9467 198.124C59.4854 197.893 59.032 197.672 58.58 197.449C58.204 197.256 57.8293 197.065 57.4533 196.872L57.2414 196.765C56.808 196.555 56.3747 196.313 55.9507 196.092L55.8267 196.025L55.6427 195.919C55.1907 195.688 54.748 195.448 54.3054 195.207C54.0934 195.091 53.8907 194.975 53.6787 194.851L53.5254 194.763C52.928 194.427 52.3214 194.08 51.724 193.724C51.4747 193.571 51.2147 193.425 50.964 193.262L50.9254 193.233L50.6747 193.088C50.5507 193.012 50.4254 192.933 50.3 192.857C50.0587 192.712 49.8187 192.569 49.5867 192.424C49.4333 192.328 49.2787 192.232 49.1254 192.136C48.972 192.039 48.8067 191.933 48.6533 191.838C48.336 191.635 48.0187 191.422 47.7107 191.22L47.528 191.095L47.3827 190.998L47.228 190.893L47.1414 190.836L47.104 190.816C46.824 190.643 46.564 190.471 46.304 190.267C45.968 190.065 45.6494 189.844 45.3321 189.614L45.264 189.565L45.1494 189.486C45.004 189.381 44.8693 189.286 44.7347 189.19C44.6 189.092 44.4653 189.007 44.34 188.919C44.128 188.765 43.9173 188.621 43.7147 188.476L43.6467 188.419C42.8374 187.841 42.0493 187.253 41.2787 186.646C40.768 186.262 40.268 185.877 39.7667 185.481C39.1694 185.001 38.564 184.51 37.976 184.019L37.6961 183.788C36.8694 183.104 36.0507 182.392 35.2614 181.66C34.6254 181.101 34 180.524 33.384 179.936C32.4307 179.051 31.4974 178.155 30.592 177.232C29.9374 176.577 29.3014 175.903 28.6667 175.229L28.6173 175.171C27.6547 174.15 26.7307 173.11 25.8347 172.052C25.6333 171.84 25.4507 171.619 25.268 171.407C23.708 169.548 22.196 167.651 20.772 165.696C19.972 164.598 19.1921 163.492 18.4321 162.365C18.2974 162.174 18.1707 161.98 18.0373 161.788C17.8253 161.471 17.6133 161.143 17.4013 160.816L17.3533 160.729C16.1973 158.948 15.0907 157.128 14.0601 155.28C13.9361 155.077 13.8093 154.847 13.704 154.616C12.972 153.334 12.2987 152.027 11.644 150.707C11.2107 149.831 10.7867 148.974 10.3733 148.097C8.95733 145.027 7.68667 141.907 6.57067 138.729C6.06 137.256 5.56935 135.784 5.12535 134.281C5.08669 134.165 5.04935 134.051 5.02001 133.924C4.93335 133.617 4.83737 133.319 4.74137 133.001C4.50003 132.163 4.26934 131.316 4.04801 130.477C-2.95199 103.607 0.754725 74.0107 16.7654 48.6907C47.4414 0.137388 111.668 -14.344 160.212 16.3307C208.765 47.0054 223.245 111.232 192.571 159.776Z" fill="#F7F2DA"/>
<path d="M82.2746 150.648C82.2746 151.786 82.2453 152.94 82.196 154.095C81.9853 159.622 81.2733 165.379 80.3586 171.291C78.7306 181.939 76.488 193.06 75.4 204.034C73.56 203.496 71.7319 202.909 69.9119 202.253C69.6426 202.157 69.3733 202.062 69.1119 201.965C68.7266 201.831 68.3519 201.686 67.9759 201.541C67.4959 201.359 67.0133 201.176 66.532 200.983C66.2147 200.859 65.9067 200.733 65.5987 200.608C65.3773 200.521 65.156 200.434 64.944 200.339C64.9626 190.305 65.156 181.101 65.7627 173.553V173.526C66.1573 168.663 66.7253 164.493 67.5333 161.25L67.5533 161.152C68.0626 159.132 68.6693 157.465 69.3826 156.213C70.3933 154.441 73.0506 153.152 75.6973 152.256H75.708C77.8453 151.533 79.972 151.072 81.2053 150.832C81.8693 150.707 82.2746 150.648 82.2746 150.648Z" fill="#FF5050"/>
<path d="M102.836 146.544C102.521 149.345 102.909 152.757 100.477 153.917C95.8253 156.141 87.5653 155.416 83.0853 154.315C78.1013 153.093 72.724 151.479 67.6706 149.257C68.688 146.591 69.548 143.863 70.228 141.068C68.972 143.291 67.5187 144.763 65.5827 146.433C65.6067 144.349 67.0773 141.656 67.7387 139.675C68.684 136.859 69.184 133.901 69.6547 130.972C68.484 133.879 67.4253 136.909 66.008 139.751C64.7893 142.201 63.1706 144.184 61.4453 146.076C58.8253 144.513 56.408 142.725 54.3187 140.683C58.7093 133.751 64.8426 122.751 65.7173 114.483C66.4706 107.339 66.1106 99.992 67.54 92.964C68.4453 88.524 69.9146 84.1894 70.84 79.9054C72.968 70.0614 76.528 54.3854 88.0453 51.2587L93.3306 76.936C93.8306 92.756 103.095 107.329 103.685 123.061C103.845 127.307 104.996 131.904 104.716 136.112C104.487 139.58 103.227 143.047 102.836 146.544Z" fill="#781A0E"/>
<path d="M164.727 170.655C164.4 171.359 164.072 172.071 163.764 172.793C160.703 179.667 158.152 186.993 156.043 194.657L155.995 194.686C155.456 194.995 154.897 195.304 154.348 195.601C153.944 195.822 153.529 196.044 153.097 196.256L152.961 196.322C150.979 197.363 148.956 198.345 146.896 199.251C146.665 199.357 146.424 199.463 146.184 199.568L145.915 199.684L145.596 199.817C145.356 199.924 145.115 200.029 144.875 200.127C144.172 200.416 143.479 200.704 142.767 200.974L142.439 201.108C142.14 201.215 141.852 201.329 141.553 201.436L141.408 201.493L141.235 201.562C140.965 201.676 140.676 201.772 140.397 201.879C140.215 201.947 140.032 202.014 139.839 202.081C139.715 202.129 139.588 202.177 139.453 202.225L139.127 202.341C138.529 202.552 137.933 202.755 137.327 202.957C136.489 203.227 135.651 203.496 134.813 203.747L134.784 203.756L134.476 203.853C134.293 203.91 134.111 203.959 133.928 204.016L133.725 204.075C133.331 204.19 132.936 204.296 132.541 204.41L132.272 204.477C132.079 204.536 131.877 204.584 131.675 204.641C131.472 204.698 131.28 204.748 131.077 204.796C130.635 204.912 130.183 205.028 129.74 205.141C129.605 205.172 129.471 205.209 129.335 205.239L129.028 205.315C128.42 205.46 127.804 205.604 127.197 205.749C126.957 205.807 126.716 205.856 126.467 205.903C125.917 206.028 125.368 206.143 124.82 206.251L124.761 206.258L124.464 206.316C123.625 206.48 122.779 206.635 121.941 206.769C120.42 207.029 118.899 207.251 117.368 207.433C117.031 207.481 116.695 207.521 116.357 207.559C115.769 207.627 115.192 207.684 114.605 207.732C114.239 207.771 113.872 207.809 113.507 207.839C112.872 207.907 112.255 207.944 111.62 207.983C110.995 208.04 110.368 208.069 109.743 208.088C108.741 208.156 107.749 208.176 106.748 208.195C106.536 208.204 106.324 208.213 106.123 208.204L105.977 208.213C105.747 208.224 105.516 208.224 105.284 208.213C105.063 208.224 104.841 208.233 104.611 208.233C104.168 208.233 103.716 208.224 103.272 208.213C102.377 208.204 101.472 208.186 100.577 208.138C98.9973 208.08 97.428 207.983 95.8587 207.859C95.5707 207.828 95.272 207.809 94.9827 207.771C94.588 207.732 94.184 207.695 93.7893 207.645C91.7773 207.453 89.7747 207.184 87.772 206.857C87.0013 206.721 86.2213 206.586 85.4506 206.443C85.2106 206.395 84.96 206.347 84.7093 206.298C84.488 206.258 84.2666 206.221 84.0453 206.183L83.8053 206.125C83.4293 206.048 83.064 205.971 82.668 205.884L82.3506 205.816C81.908 205.72 81.484 205.624 81.0413 205.519H81.032C79.424 205.141 77.816 204.728 76.2187 204.276C76.0547 204.228 75.9 204.18 75.7467 204.14L75.4 204.034C73.56 203.496 71.732 202.909 69.912 202.253C69.6426 202.157 69.3733 202.061 69.112 201.965C68.7266 201.831 68.352 201.686 67.976 201.541C67.496 201.359 67.0134 201.176 66.532 200.983C66.2147 200.859 65.9067 200.733 65.5987 200.608C66.86 196.468 68.1107 192.289 68.5253 189.469C71.3747 169.721 71.5494 155.529 72.7907 154.693C74.1187 153.797 75.38 153.104 76.612 152.534H76.6227C78.2013 151.813 79.7133 151.295 81.2053 150.832C84.1707 149.927 87.068 149.272 90.1973 147.789L90.2267 147.78C91.3907 147.231 92.5947 146.567 93.8467 145.729C94.212 145.488 94.5787 145.228 94.964 144.939C95.0987 144.843 95.2333 144.748 95.368 144.64L95.724 144.621L97.0533 144.555H97.0627L103.205 144.247L104.793 144.169L107.576 144.025L110.484 143.88L114.971 143.659H114.98L118.012 143.505L118.176 143.495C123.144 144.352 128.641 146.374 134.168 149.088L134.467 149.233C135.005 149.493 135.555 149.772 136.093 150.062C137.201 150.62 138.308 151.216 139.405 151.843C141.052 152.756 142.679 153.729 144.277 154.731C145.529 155.51 146.761 156.319 147.975 157.128C150.228 158.65 152.413 160.219 154.473 161.798V161.807C158.016 164.514 161.232 167.256 163.909 169.857C164.188 170.116 164.457 170.385 164.727 170.655Z" fill="#560904"/>
<path d="M120.381 146.133C120.005 146.095 119.611 146.067 119.216 146.028C118.812 145.988 118.408 145.951 117.993 145.921H117.984L117.763 145.903H117.752C117.551 145.873 117.348 145.863 117.137 145.844L116.905 145.825C117.04 146.624 117.185 147.568 117.329 148.579V148.588C117.637 150.725 117.925 153.141 118.003 155.086V155.096C118.06 156.425 118.023 157.532 117.82 158.159C114.441 168.546 102.097 179.224 93.2213 182.027C91.4693 178.945 90.9586 173.236 91.7666 166.131C91.9119 164.851 92.0946 163.512 92.3346 162.144C92.7586 159.632 93.2786 157.351 93.808 155.328C93.9906 154.673 94.1653 154.046 94.3479 153.451C94.4919 152.997 95.1172 151.553 95.8679 149.888V149.879L95.8786 149.868C96.6293 148.184 97.4959 146.277 98.1026 144.939C97.4466 144.929 96.7826 144.929 96.1186 144.929C95.9933 144.929 95.8679 144.929 95.7333 144.939H95.724L95.7146 144.929L95.6946 144.939C95.4546 144.929 95.2039 144.939 94.9639 144.939C94.7319 144.939 94.5012 144.939 94.2706 144.949C94.1252 145.18 93.9813 145.44 93.8466 145.729C93.2786 146.884 92.7493 148.444 92.2573 150.129C91.7773 151.813 91.3426 153.643 90.9679 155.348C90.3412 158.236 89.9093 160.777 89.7546 161.701C89.4173 163.685 88.9746 166.813 88.8399 170.212C88.6279 175.296 89.0906 180.976 91.6039 184.337L92.1333 185.039L92.9893 184.817C102.743 182.256 116.501 170.665 120.313 158.968C120.555 158.207 120.833 157.041 121.027 155.665C121.449 152.786 121.547 148.992 120.381 146.133Z" fill="white"/>
<path d="M90.2266 147.78C90.12 148.781 89.1293 151.428 87.588 155.096C85.7693 159.419 83.1786 165.157 80.3586 171.291C75.5346 181.785 70.028 193.416 66.532 200.983C66.2146 200.859 65.9066 200.733 65.5986 200.608C65.3773 200.521 65.156 200.434 64.944 200.339C64.8093 200.28 64.684 200.232 64.5493 200.175L64.4919 200.145L64.26 200.049L64.0493 199.963L63.788 199.857C64.2413 191.037 64.896 181.564 65.7626 173.553V173.525C66.2733 168.758 66.8599 164.523 67.5333 161.249L67.5533 161.152C68.2466 157.696 69.0359 155.337 69.9026 154.635C70.6626 154.019 72.8586 153.133 75.5533 152.208C81.4453 150.177 89.6973 147.924 90.1973 147.789L90.2266 147.78Z" fill="#FF0B40"/>
<path d="M128.719 156.974C128.151 153.864 127.505 150.803 126.775 147.78C126.775 147.78 129.777 148.472 133.985 149.531C134.12 149.561 134.245 149.589 134.38 149.628C134.939 149.763 135.507 149.908 136.093 150.062C137.259 150.351 138.481 150.668 139.743 150.985C141.341 151.419 142.997 151.852 144.633 152.305C147.215 153.017 149.756 153.749 152.028 154.461C155.869 155.655 158.931 156.792 160.077 157.639L160.356 157.869C163.148 160.151 164.015 164.581 163.909 169.857C163.889 170.809 163.841 171.792 163.764 172.793C163.292 178.993 161.82 185.934 160.732 191.827C160.067 192.251 159.403 192.664 158.729 193.079C157.843 193.619 156.948 194.146 156.043 194.657L155.995 194.686C155.456 194.995 154.897 195.304 154.348 195.601C153.944 195.822 153.529 196.044 153.097 196.256L152.961 196.322C150.979 197.363 148.956 198.345 146.896 199.251C146.665 199.357 146.424 199.463 146.184 199.568L145.915 199.684L145.596 199.817C145.356 199.924 145.115 200.029 144.875 200.127C144.172 200.416 143.479 200.704 142.767 200.974L142.439 201.108C142.14 201.215 141.852 201.329 141.553 201.436L141.408 201.493L141.235 201.561C140.965 201.676 140.676 201.772 140.397 201.879C140.215 201.947 140.032 202.014 139.839 202.081C139.715 202.129 139.588 202.177 139.453 202.225L139.127 202.341C138.529 202.552 137.933 202.755 137.327 202.957C136.489 203.227 135.651 203.496 134.813 203.747L134.784 203.756L134.476 203.853C134.293 203.91 134.111 203.959 133.928 204.016L133.725 204.075C133.331 204.19 132.936 204.296 132.541 204.41C132.551 194.003 132.137 183.797 131.116 173.919C130.528 168.152 129.749 162.491 128.719 156.974Z" fill="#FF0B40"/>
<path d="M133.928 204.016L133.725 204.075C133.331 204.19 132.936 204.296 132.541 204.41L132.272 204.477C131.887 194.541 131.165 175.692 131.116 173.919V173.804C132.483 181.555 133.389 192.251 133.928 204.016Z" fill="#FF5050"/>
<path d="M169.32 185.695L169.291 185.713C167.432 187.196 165.536 188.601 163.601 189.931C163.292 190.141 162.975 190.355 162.657 190.556C162.021 190.989 161.377 191.414 160.732 191.827C160.067 192.251 159.403 192.664 158.729 193.079C157.843 193.619 156.948 194.146 156.043 194.657L155.995 194.686C155.456 194.995 154.897 195.304 154.348 195.601C153.944 195.822 153.529 196.044 153.097 196.256L152.961 196.322C150.979 197.363 148.956 198.345 146.896 199.251C146.665 199.357 146.424 199.463 146.184 199.568L145.915 199.684L145.596 199.817C145.356 199.924 145.115 200.029 144.875 200.127C144.172 200.416 143.479 200.704 142.767 200.973C144.961 192.029 147.204 183.421 149.313 176.325C151.191 170.001 152.952 164.888 154.473 161.807V161.798C156.264 158.168 158.333 157.003 160.356 157.869C164.555 159.671 168.54 170.222 169.32 185.695Z" fill="#FF5050"/>
<path d="M149.313 176.325C149.313 176.325 146.675 194.303 145.596 199.817C145.356 199.924 145.115 200.029 144.875 200.127C144.172 200.416 143.479 200.704 142.767 200.973C144.961 192.029 147.204 183.421 149.313 176.325Z" fill="#BC0000"/>
<path d="M117.987 146.196L116.376 152.031C116 151.231 110.596 149.195 110.009 148.48C108.555 146.695 112.125 142.428 109.688 142.488C109.501 142.493 109.335 142.511 109.181 142.537L98.7413 146.416C98.2213 146.849 97.4866 148.128 96.7093 150.093L95.8826 150.121L95.7639 146.071L95.6279 141.503L95.5906 140.224L95.5813 139.769L95.5266 137.995L95.5066 137.308L94.7826 112.499L94.452 101.395L117.364 100.727L117.381 101.521L117.613 109.316L117.633 109.995L117.845 117.104L118.155 127.824L118.163 128.133L117.987 146.196Z" fill="#FEAC74"/>
<path d="M117.86 123.221C114.012 132.697 103.169 142.319 95.628 141.503L95.5907 140.224L95.5813 139.769L95.5267 137.995L95.5773 137.972L100.195 114.104L117.633 109.995L117.845 117.104L117.86 123.221Z" fill="#E3784C"/>
<path d="M117.573 145.657C115.787 143.475 110.103 141.081 107.503 141.675L95.6974 144.933C94.4467 148.312 87.3801 174.244 93.2187 182.023C106.073 178.66 127.236 157.464 117.573 145.657Z" fill="#FEAC74"/>
<path d="M75.2266 119.839C71.2573 120.375 67.5266 117.093 66.9093 112.527C66.2919 107.959 69.02 103.804 72.988 103.268L73.1079 104.165C69.6346 104.635 67.2546 108.331 67.8066 112.405C68.3572 116.477 71.6306 119.411 75.1053 118.943C78.5799 118.472 80.9586 114.777 80.4079 110.701C80.0746 108.232 78.1653 105.685 76.2213 104.544L76.9546 103.907C79.1333 105.188 80.9346 107.837 81.3053 110.581C81.9226 115.149 79.1946 119.303 75.2266 119.839Z" fill="#FFD731"/>
<path d="M74.2733 103.535C74.3506 104.108 73.948 104.635 73.376 104.713C72.804 104.789 72.276 104.388 72.1973 103.815C72.12 103.241 72.5227 102.715 73.096 102.637C73.668 102.56 74.196 102.963 74.2733 103.535Z" fill="#FFD731"/>
<path d="M122.811 59.8361C118.396 54.9281 93.416 49.0987 84.1 60.5254C76.156 70.2681 76.1266 83.8134 72.72 95.9161C66.9573 116.381 85.7293 137.828 91.7026 137.289C102.104 136.355 115.665 127.361 120.16 119.519C123.508 113.673 122.149 107.127 124.179 100.601C128.313 87.2974 132.581 70.6947 122.811 59.8361Z" fill="#FEAC74"/>
<path d="M88.644 101.227C87.4627 102.029 86.3093 102.608 87.4586 104.271C89.0613 106.591 92.6226 106.341 94.076 106.132C93.2226 105.896 89.4347 104.636 88.3907 103.58C87.6733 102.853 92.5587 98.564 88.644 101.227Z" fill="#E3784C"/>
<path d="M80.7693 111.819L80.5933 111.816C80.68 112.035 87.008 118.863 88.7907 122.076C90.052 124.348 92.032 127.076 95.0773 126.813C102.747 126.149 104.116 112.663 105.939 109.68C104.053 112.767 84.92 112.305 80.7693 111.819Z" fill="#60281F"/>
<path d="M97.2653 120.451C96.6467 120.119 95.392 120.264 94.7413 120.427C93.4706 120.748 92.1413 121.317 91.124 122.165C90.7293 122.492 89.7453 123.68 89.8267 124.257C89.9053 124.836 90.9426 125.415 91.3346 125.751C92.2773 126.556 93.4266 126.732 94.6679 126.716C96.7573 126.688 98.0067 125.839 99.196 124.161C99.8907 123.18 100.417 122.091 101.204 121.199L104.729 114.748C101.872 114.703 97.2627 117.339 97.2653 120.451Z" fill="#EA6453"/>
<path d="M82.8813 111.039C83.4773 112.271 84.5094 113.445 85.4241 114.268C86.5414 115.273 87.8281 115.673 89.2267 115.825C90.0867 115.917 90.9894 115.917 91.92 115.907C94.2094 115.877 96.628 115.429 98.6414 114.54C100.057 113.911 100.331 112.676 100.712 111.415L82.8813 111.039Z" fill="white"/>
<path d="M104.437 112.309C104.399 112.561 104.36 112.84 104.303 113.139C104.216 113.639 104.111 114.188 103.956 114.795V114.805C103.764 115.641 103.495 116.547 103.137 117.491V117.5C103.06 117.693 102.993 117.885 102.907 118.079V118.087C102.291 119.58 101.452 121.1 100.288 122.468L100.268 122.487L100.259 122.497C99.6626 123.191 98.988 123.825 98.1986 124.404L98.0919 124.48C97.8039 124.701 97.496 124.904 97.1773 125.087C96.572 125.463 95.8973 125.78 95.1853 126.049H95.1746L95.0213 126.107C93.336 126.713 91.7666 125.463 90.2746 123.171L90.2653 123.161C89.976 122.728 89.688 122.247 89.408 121.736C88.1373 119.445 84.6999 115.469 82.6586 113.12C82.5146 112.956 82.3893 112.811 82.2639 112.676L82.6106 112.705C83.0546 112.744 83.5253 112.772 84.0266 112.803H84.0359C85.7493 112.927 87.8093 113.024 89.9466 113.072H90.3413C91.9493 113.089 93.4226 113.032 94.7906 112.927C95.628 112.86 96.4266 112.772 97.1773 112.676C97.6106 112.619 98.0253 112.561 98.4199 112.493C99.1799 112.377 99.8733 112.244 100.5 112.108C101.029 111.992 101.52 111.877 101.972 111.761C103.147 111.453 104.033 111.165 104.62 110.963C104.583 111.097 104.533 111.588 104.437 112.309ZM107.585 107.689C107.239 108.219 104.996 109.336 101.588 110.26H101.579C100.923 110.433 100.229 110.596 99.4986 110.751C98.7666 110.905 97.9866 111.049 97.188 111.175C96.8413 111.223 96.4946 111.28 96.1386 111.319C95.6853 111.376 95.2226 111.424 94.752 111.472C93.24 111.617 91.6319 111.695 89.9759 111.645C89.7839 111.645 89.5826 111.645 89.38 111.637C87.3773 111.588 84.9706 111.444 83.0346 111.319H83.0253C82.8333 111.308 82.64 111.3 82.4466 111.291C82.1106 111.271 81.7919 111.251 81.4946 111.223H81.4839L81.3693 111.213C81.0319 111.195 80.7146 111.175 80.4546 111.145C79.8773 111.117 79.5399 111.087 79.5399 111.087C79.5399 111.087 79.8866 111.521 80.4639 112.233L80.4826 112.252C80.7146 112.541 80.984 112.868 81.2826 113.245L81.2919 113.253C81.7533 113.832 82.284 114.505 82.8413 115.199C84.96 117.885 87.4533 121.12 88.1759 122.419C88.8599 123.661 90.9679 127.465 94.5586 127.532C94.7426 127.541 94.9439 127.523 95.1372 127.513H95.2226C95.9066 127.473 96.5613 127.34 97.1773 127.128C97.3613 127.06 97.5346 127.003 97.708 126.916H97.7173C98.2466 126.704 98.7279 126.435 99.1999 126.107C100.981 124.875 102.407 122.977 103.543 120.841V120.831C104.987 118.136 105.968 115.084 106.593 112.599C106.728 112.099 106.835 111.627 106.941 111.184C107.412 109.104 107.596 107.68 107.596 107.68L107.585 107.689Z" fill="#FC5135"/>
<path d="M91.98 108.777C91.2507 109.291 90.3507 110.083 89.48 110.323C88.616 110.563 87.6906 109.996 86.9306 109.584C85.5906 108.867 85.5693 108.739 84.344 109.609C83.58 110.149 81.864 111.455 80.8293 111.261L84.3987 112.339C84.5667 112.625 86.552 112.381 87.116 112.395C88.3293 112.42 89.5427 112.447 90.7547 112.471C92.16 112.501 93.524 112.407 94.9173 112.38C95.9213 112.364 105.563 111.515 107.595 107.676C105.173 107.628 99.372 112.332 91.98 108.777Z" fill="#FC5135"/>
<path d="M77.5813 78.0147L77.2506 78.4574C78.5839 76.912 85.0279 76.308 86.1173 78.1694C87.5759 70.46 79.4253 75.2254 77.5813 78.0147Z" fill="#602618"/>
<path d="M117.465 96.9627C116.543 92.2894 112.803 85.1587 104.508 91.3427C101.861 92.8907 99.7001 95.1107 99.1987 95.6414L99.12 95.7334L99.0894 95.7587C99.2374 95.8254 99.3867 95.892 99.5334 95.9534C100.161 96.232 100.787 96.5 101.413 96.756C101.88 96.9467 102.347 97.1334 102.816 97.3081C102.972 97.3694 103.129 97.428 103.285 97.4854C103.443 97.5427 103.6 97.6014 103.756 97.6587C103.947 97.7307 104.144 97.7974 104.335 97.8627L105.001 98.088C105.372 98.208 105.741 98.328 106.116 98.4374L106.343 98.5054C106.565 98.572 106.788 98.6347 107.009 98.692L107.071 98.7094C107.276 98.7667 107.48 98.8214 107.684 98.8707C107.815 98.9054 107.947 98.936 108.081 98.968C108.224 99.0027 108.368 99.0347 108.508 99.0667C108.683 99.1067 108.861 99.1467 109.04 99.1827C109.231 99.2227 109.428 99.2627 109.624 99.3L109.72 99.316L109.965 99.3574C110.124 99.3894 110.287 99.416 110.447 99.4374C110.773 99.492 111.101 99.5374 111.428 99.5787C111.595 99.6 111.759 99.62 111.92 99.6334C112.083 99.6454 112.248 99.6654 112.413 99.6787C112.557 99.688 112.701 99.7014 112.849 99.712L112.955 99.7174C113.268 99.7374 113.585 99.7507 113.907 99.76C114.595 99.7827 115.283 99.768 115.987 99.728C116.265 99.7067 116.549 99.6881 116.828 99.6574H116.84C117.121 99.6361 117.4 99.6 117.679 99.5627L117.697 99.3267C117.745 98.5254 117.671 97.7347 117.465 96.9627Z" fill="white"/>
<path d="M111.483 94.132C111.468 97.176 109.799 99.6374 107.757 99.6267C105.717 99.616 104.072 97.1387 104.089 94.092C104.105 91.048 105.773 88.5894 107.815 88.6C109.857 88.6094 111.499 91.0854 111.483 94.132Z" fill="#574984"/>
<path d="M110.169 93.9187C110.157 96.0401 109.084 97.7534 107.765 97.7481C106.452 97.7414 105.393 96.0161 105.405 93.8961C105.416 91.7761 106.491 90.0614 107.805 90.0681C109.123 90.0761 110.179 91.8014 110.169 93.9187Z" fill="#291C51"/>
<path d="M112.505 91.972L108.339 92.7374C108.339 92.7374 111.389 94.5987 112.26 94.044C112.703 93.764 112.505 91.972 112.505 91.972Z" fill="white"/>
<path d="M117.679 99.5627C117.735 98.94 117.669 98.4774 117.465 97.4254C116.543 92.752 112.803 85.6241 104.508 91.8054C101.876 93.7681 99.388 95.4947 99.0894 95.7587C99.0894 95.7587 105.671 81.1467 114.656 84.7827C119.167 86.6027 119.251 95.784 117.679 99.5627Z" fill="#781A0E"/>
<path d="M117.679 99.5627C117.735 98.94 117.669 98.0134 117.465 96.9627C116.543 92.2894 112.803 85.1587 104.508 91.3427C101.876 93.3054 99.4174 95.4694 99.12 95.7334L99.0894 95.7587C99.0894 95.7587 105.671 80.6841 114.656 84.3187C119.167 86.1387 119.251 95.784 117.679 99.5627Z" fill="#E3784C"/>
<path d="M116.828 99.6573C109.076 102.399 102.333 98.468 99.5333 95.9533C100.161 96.232 100.787 96.5 101.413 96.756C101.88 96.9467 102.347 97.1333 102.816 97.308C102.972 97.3693 103.129 97.428 103.285 97.4853C103.443 97.5427 103.6 97.6013 103.756 97.6587C103.947 97.7307 104.144 97.7973 104.335 97.8627L105.001 98.088C105.372 98.208 105.741 98.328 106.116 98.4373L106.343 98.5053C106.565 98.572 106.788 98.6347 107.009 98.692L107.071 98.7093C107.276 98.7667 107.48 98.8213 107.684 98.8707C107.815 98.9053 107.947 98.936 108.081 98.968C108.224 99.0027 108.368 99.0347 108.508 99.0667C108.683 99.1067 108.861 99.1467 109.04 99.1827C109.231 99.2227 109.428 99.2627 109.624 99.3L109.72 99.316L109.965 99.3573C110.124 99.3893 110.287 99.416 110.447 99.4373C110.773 99.492 111.101 99.5373 111.428 99.5787C111.595 99.6 111.759 99.62 111.92 99.6333C112.083 99.6453 112.248 99.6653 112.413 99.6787C112.557 99.688 112.701 99.7013 112.849 99.712L112.955 99.7173C113.268 99.7373 113.585 99.7507 113.907 99.76C114.595 99.7827 115.283 99.768 115.987 99.728C116.265 99.7067 116.549 99.688 116.828 99.6573Z" fill="#E3784C"/>
<path d="M74.9907 91.1894C76.9693 87.7334 80.8813 80.3494 85.2893 87.3921C86.8133 89.3054 88.6227 94.3427 88.844 94.8894L88.8773 94.9827L88.892 95.0134C88.7653 95.0254 88.6373 95.0401 88.5107 95.0507C87.972 95.1067 87.4346 95.1574 86.9 95.1961C86.5026 95.2267 86.1066 95.2507 85.712 95.2694C85.5786 95.2774 85.4466 95.2827 85.3146 95.2867C85.184 95.2921 85.052 95.2961 84.92 95.3027C84.7573 95.3067 84.5946 95.3081 84.436 95.3121L83.8813 95.3161C83.5746 95.3161 83.268 95.3121 82.96 95.3041L82.776 95.2974C82.592 95.2921 82.4107 95.2841 82.2293 95.2721L82.1813 95.2707C82.0133 95.2627 81.848 95.2521 81.6827 95.2387L81.3627 95.2121L81.02 95.1787C80.88 95.1641 80.7373 95.1507 80.5946 95.1334C80.4426 95.1147 80.2867 95.0961 80.132 95.0747L80.056 95.0627L79.8627 95.0321C79.7373 95.0147 79.6107 94.9921 79.4853 94.9707C79.2293 94.9267 78.9746 94.8774 78.7226 94.8254C78.5946 94.8014 78.4653 94.7707 78.3426 94.7414C78.22 94.7081 78.092 94.6801 77.9666 94.6494L77.636 94.5614L77.556 94.5374C77.3186 94.4721 77.0813 94.4014 76.8426 94.3254C76.328 94.1641 75.8226 93.9721 75.3146 93.7601C75.1146 93.6721 74.9106 93.5827 74.712 93.4854L74.7013 93.4801C74.5026 93.3894 74.3053 93.2907 74.1107 93.1881L74.1613 92.9974C74.3493 92.3521 74.6253 91.7454 74.9907 91.1894Z" fill="white"/>
<path d="M83.5693 90.1228C83.5533 93.1681 81.8866 95.6294 79.8453 95.6174C77.8026 95.6068 76.16 93.1308 76.176 90.0841C76.192 87.0401 77.8586 84.5827 79.9013 84.5921C81.9426 84.6014 83.5853 87.0801 83.5693 90.1228Z" fill="#574984"/>
<path d="M82.2547 89.912C82.2453 92.0333 81.1693 93.7467 79.8547 93.7414C78.5387 93.7334 77.48 92.008 77.4933 89.8867C77.5027 87.768 78.5773 86.0547 79.8933 86.0613C81.2093 86.068 82.2667 87.792 82.2547 89.912Z" fill="#291C51"/>
<path d="M84.5907 87.9627L80.4253 88.7281C80.4253 88.7281 83.476 90.5894 84.3466 90.0347C84.788 89.7561 84.5907 87.9627 84.5907 87.9627Z" fill="white"/>
<path d="M74.1106 93.188C74.2426 92.6814 74.548 92.4414 74.9906 91.6627C76.9693 88.2067 80.8293 81.6027 86.1172 90.5854C87.4559 92.8587 88.6973 94.6027 88.8439 94.8894L88.8359 94.7814C88.8359 94.7814 88.2173 81.856 80.5746 82.396C76.7399 82.664 73.9986 89.792 74.1106 93.188Z" fill="#781A0E"/>
<path d="M74.1106 93.188C74.2426 92.6813 74.548 91.968 74.9906 91.1893C76.9693 87.7333 80.8293 81.128 86.1172 90.1107C87.4559 92.384 88.7306 94.696 88.8773 94.9827L88.8919 95.0133C88.8919 95.0133 88.2173 81.3813 80.5746 81.92C76.7399 82.1893 73.9986 89.792 74.1106 93.188Z" fill="#E3784C"/>
<path d="M74.712 93.4853C79.676 97.664 85.744 96.3093 88.5107 95.0507C87.972 95.1067 87.4347 95.1573 86.9 95.196C86.5027 95.2267 86.1066 95.2507 85.712 95.2693C85.5786 95.2773 85.4466 95.2827 85.3146 95.2867C85.184 95.292 85.052 95.296 84.92 95.3027C84.7573 95.3067 84.5947 95.308 84.436 95.312L83.8813 95.316C83.5746 95.316 83.268 95.312 82.96 95.304L82.776 95.2973C82.592 95.292 82.4107 95.284 82.2294 95.272L82.1813 95.2707C82.0133 95.2627 81.848 95.252 81.6827 95.2387L81.3627 95.212L81.02 95.1787C80.88 95.164 80.7373 95.1507 80.5947 95.1333C80.4427 95.1147 80.2867 95.096 80.132 95.0747L80.056 95.0627L79.8627 95.032C79.7374 95.0147 79.6107 94.992 79.4853 94.9707C79.2293 94.9267 78.9747 94.8773 78.7227 94.8253C78.5947 94.8013 78.4653 94.7707 78.3426 94.7413C78.22 94.708 78.092 94.68 77.9667 94.6493L77.636 94.5613L77.556 94.5373C77.3187 94.472 77.0813 94.4013 76.8426 94.3253C76.328 94.164 75.8226 93.972 75.3146 93.76C75.1146 93.672 74.9106 93.5827 74.712 93.4853Z" fill="#E3784C"/>
<path d="M143.735 158.292C144.349 154.356 144.979 150.124 145.428 146.272C146.237 139.291 147.339 127.955 146.195 124.419C145.131 130.863 143.893 137.168 142.207 143.524C140.9 148.433 138.957 153.286 136.729 157.855C136.665 157.985 136.604 158.117 136.543 158.253C135.379 158.12 134.233 157.941 133.127 157.752C133.567 153.601 134.183 149.167 135.624 145.591C134.005 149.216 132.577 153.744 130.083 157.205C129.933 157.179 129.784 157.155 129.637 157.129C125.111 156.34 108.053 153.897 104.604 150.798C107.136 147.437 131.731 82.2987 109.931 73.4933C112.533 78.584 117.8 83.804 116.021 97.6747C111.26 73.1254 81.2733 66.1787 80.1413 58.808C79.6573 55.6467 91.5227 40.588 110.516 43.544C157.712 50.8907 157.205 98.3987 158.448 109.089C162.895 147.371 153.912 156.848 143.735 158.292Z" fill="#781A0E"/>
<path d="M148.652 86.2934C149.339 83.1294 147.615 79.2387 146.497 76.3694C145.244 73.1534 143.383 70.1387 141.363 67.3294C139.229 64.3654 136.909 62.0147 133.997 59.7521C132.591 58.6614 131.375 57.8241 129.716 57.1361C128.347 56.5694 126.547 56.1321 125.213 55.5521C127.839 56.8934 130.911 59.8574 131.576 62.6907C129.776 61.0881 127.637 60.0521 125.304 59.4907C126.957 59.9841 128.337 62.9347 129.001 64.3627C129.549 65.5361 129.733 66.7787 129.98 68.0014C129.029 65.8281 125.897 63.8387 123.971 62.5054C122.897 61.7641 121.749 61.1974 120.553 60.7094C119.675 60.3507 118.597 60.2801 117.721 59.9321C120.06 61.1641 122.141 64.6307 123.151 66.7961C120.62 64.1921 114.288 62.0961 110.688 62.5654C113.196 63.2121 116.669 66.2774 117.369 68.7761C117.555 68.1107 117.341 67.4601 117.013 66.8894C118.3 67.8267 120.323 69.2681 120.629 70.7187C120.609 68.7667 119.173 67.1761 118.376 65.8187L118.191 65.2414C121.64 67.1921 123.556 71.7414 125.111 75.3894C126.66 79.0281 127.076 82.6694 127.328 86.4214C128.388 83.9174 128.932 80.3587 128.304 77.7147C129.439 80.1347 130.316 82.0841 130.624 84.8454C131.011 88.3161 131.501 91.8134 131.359 95.2801C132.959 93.1267 133.32 88.9587 133.547 86.3054C133.709 84.4121 133.568 82.6947 133.351 80.8094C133.244 79.8761 133.352 78.7334 132.937 77.8934C134.236 79.9627 135.427 81.8054 135.793 84.3001C136.109 86.4494 136.287 88.8081 136.389 90.9601C137.961 88.3734 138.259 85.2081 138.155 82.2707C140.892 85.0521 139.936 90.1534 140.792 93.5414C142.167 90.7254 142.065 86.9427 141.792 83.8587C141.524 80.8361 140.319 77.8387 140.164 74.8641C142.605 76.6307 143.563 80.8081 144.563 83.4881C145.363 85.6374 145.943 88.5214 145.889 90.8054C146.245 88.4134 146.571 86.2667 146.14 83.8894C145.763 81.8054 144.324 78.9681 144.453 76.9347C146.539 79.5467 148.247 82.8854 148.652 86.2934Z" fill="#A14F2A"/>
</svg>
