<svg width="209" height="211" viewBox="0 0 209 211" fill="none" xmlns="http://www.w3.org/2000/svg">
<path d="M208.648 104.379C208.648 134.119 196.161 160.943 176.153 179.889C173.401 182.498 170.503 184.955 167.479 187.236C166.979 187.629 166.477 188.007 165.968 188.372C164.495 189.46 162.983 190.5 161.443 191.501C161.211 191.655 160.98 191.809 160.74 191.955C160.557 192.079 160.364 192.205 160.172 192.319C157.707 193.879 155.175 195.333 152.576 196.681C149.476 198.298 146.299 199.752 143.024 201.052C142.581 201.225 142.139 201.398 141.695 201.572L141.456 201.659C141.099 201.793 140.741 201.928 140.376 202.063C134.484 204.22 128.343 205.857 122.007 206.915C121.381 207.031 120.756 207.128 120.12 207.213C118.097 207.521 116.057 207.763 114.007 207.936C113.525 207.984 113.035 208.021 112.552 208.061L112.417 208.071L112.196 208.08C111.695 208.119 111.195 208.157 110.684 208.186C109.701 208.244 108.711 208.283 107.709 208.31C107.42 208.321 107.123 208.331 106.833 208.331L106.487 208.34C105.88 208.351 105.273 208.36 104.667 208.36C103.907 208.36 103.155 208.351 102.395 208.321H102.299C101.963 208.321 101.625 208.321 101.288 208.292C100.873 208.292 100.451 208.273 100.036 208.253L99.892 208.244C99.304 208.215 98.7266 208.186 98.1386 208.148L98.0519 208.137C97.0612 208.089 96.0786 208.014 95.1066 207.916C92.4972 207.685 89.9079 207.349 87.3559 206.915C82.5999 206.127 77.9493 205.009 73.4333 203.584C71.1146 202.853 68.8225 202.044 66.5799 201.157C64.7305 200.425 62.912 199.656 61.12 198.828L61.0333 198.789C59.1079 197.895 57.2013 196.941 55.3439 195.94C53.8213 195.121 52.32 194.256 50.848 193.359C50.02 192.857 49.2013 192.349 48.392 191.828C45.552 189.998 42.8066 188.034 40.1706 185.936C38.9466 184.975 37.7439 183.981 36.5692 182.96L36.2905 182.71C36.0492 182.498 35.8092 182.297 35.5679 182.076C34.9119 181.497 34.2679 180.909 33.6333 180.313C13.3573 161.337 0.686646 134.341 0.686646 104.379C0.686646 46.948 47.2373 0.397343 104.667 0.397343C162.097 0.397343 208.648 46.948 208.648 104.379Z" fill="#F7F2DA"/>
<path d="M140.376 202.063C134.484 204.22 128.343 205.857 122.007 206.916C121.381 207.031 120.755 207.128 120.12 207.213C117.299 190.279 116.568 175.585 118.271 171.784C118.455 171.388 118.676 170.965 118.955 170.523C122.46 164.9 133.185 156.851 135.148 165.227C136.824 172.352 138.731 186.639 141.695 201.572L141.456 201.659C141.099 201.793 140.743 201.928 140.376 202.063Z" fill="#3A4E66"/>
<path d="M112.196 208.081C111.695 208.119 111.195 208.157 110.685 208.186C109.701 208.244 108.711 208.283 107.709 208.31C107.42 208.321 107.123 208.331 106.833 208.331L106.487 208.34C105.88 208.351 105.273 208.36 104.667 208.36C103.907 208.36 103.155 208.351 102.395 208.321H102.299C101.963 208.321 101.625 208.321 101.288 208.292C100.873 208.292 100.451 208.273 100.036 208.253L99.8921 208.244C99.3054 208.215 98.7267 208.186 98.1387 208.148C94.8267 189.74 91.7853 172.727 89.7347 161.732C88.9347 157.437 88.28 154.059 87.8174 151.883C87.76 151.584 87.7027 151.315 87.644 151.064C87.78 151.027 87.9053 150.986 88.0293 150.959L88.3667 150.861C90.4174 150.275 91.9107 149.852 92.5934 149.639L98.3707 151.198C97.5427 149.533 100.961 151.834 102.732 152.489C104.071 152.989 107.027 153.364 109.463 153.789H109.48C110.695 154.001 111.772 154.212 112.447 154.453C112.417 156.561 112.369 159.709 112.321 163.657C112.292 166.604 112.263 170.003 112.235 173.739C112.157 183.443 112.119 195.477 112.196 208.081Z" fill="#EAE9EE"/>
<path d="M50.2012 191.791C48.7492 188.016 44.656 169.761 49.0373 166.536C50.116 165.737 49.4133 163.936 51.348 163.041C51.5973 162.927 51.8492 162.81 52.1186 162.695C56.7879 160.721 64.3933 159.075 71.3453 157.227C73.0972 156.764 74.8106 156.283 76.4186 155.781C83.2546 153.664 81.1853 154.271 85.5653 153.029C86.9906 159.498 92.3719 182.653 98.0519 208.137C97.0612 208.089 96.0786 208.014 95.1066 207.916C92.4972 207.685 89.9079 207.349 87.3559 206.915C82.5999 206.127 77.9493 205.009 73.4333 203.584C71.1146 202.853 68.8226 202.044 66.5799 201.157C64.7306 200.425 62.912 199.656 61.12 198.828L61.1106 198.915L61.0333 198.789C59.1079 197.895 57.2013 196.941 55.3439 195.94C53.8213 195.121 52.32 194.256 50.848 193.359C50.596 192.772 50.3746 192.243 50.2012 191.791Z" fill="#3A4E66"/>
<path d="M120.12 207.213C118.097 207.523 116.057 207.763 114.007 207.936C114.517 184.251 115.093 162.588 115.219 154.501L115.267 154.521C116.625 154.992 118.965 155.598 121.544 156.32C124.212 157.052 127.148 157.91 129.555 158.892C131.799 159.805 133.58 160.827 134.225 161.963C136.228 165.439 140.503 182.989 143.025 201.052C142.583 201.225 142.139 201.398 141.695 201.572L141.456 201.659C141.099 201.793 140.743 201.928 140.376 202.063C134.484 204.22 128.343 205.857 122.007 206.916C121.381 207.031 120.755 207.128 120.12 207.213Z" fill="#3A4E66"/>
<path d="M61.0333 198.789C59.1079 197.895 57.2013 196.941 55.344 195.94C53.8213 195.121 52.32 194.256 50.848 193.359C50.596 192.772 50.3746 192.243 50.2012 191.791C49.2279 189.261 47.0705 180.235 47.0692 173.581C47.0692 170.303 47.592 167.601 49.0373 166.536C50.116 165.737 51.684 164.88 53.62 163.984C52.2427 173.353 57.3946 193.62 60.388 197.827C60.6093 198.135 60.8213 198.463 61.0333 198.789Z" fill="#2C3E54"/>
<path d="M87.8493 153.165C88.8373 161.789 92.9572 173.737 102.412 176.184C106.216 177.167 111.565 176.941 112.821 172.336C114.161 167.421 111.811 162.553 110.583 157.737C110.207 156.983 109.807 156.257 109.381 155.565L111.52 116.487L112.457 99.3387L91.576 98.1973L91.2679 103.891L90.2719 122.081C90.2719 122.081 89.576 138.808 89.0533 144.36C88.76 147.485 88.2466 150.209 87.6613 152.505C87.7559 152.698 87.8213 152.917 87.8493 153.165Z" fill="#FFB884"/>
<path d="M90.3653 122.591C91.3866 127.763 92.6879 132.296 95.3039 136.687C98.9733 141.793 104.041 146.072 109.813 147.641L111.519 116.487L91.2666 103.891L90.8599 103.639C91.1413 109.945 89.1559 115.611 90.2719 122.083C90.2999 122.251 90.3319 122.42 90.3653 122.591Z" fill="#EF9C62"/>
<path d="M141.665 114.265C141.368 113.204 141.061 112.141 140.739 111.073C139.721 107.707 139.388 104.28 138.857 100.819C137.889 94.4974 136.355 88.1254 136.148 81.7014C135.923 74.6627 136.288 67.1854 132.493 60.8214L125.28 76.2227C125.823 77.8347 125.557 79.9587 125.363 81.5787C124.563 88.212 123.417 94.7987 122.741 101.451C122.076 107.98 121.399 114.509 120.739 121.039C120.508 123.313 120.119 125.755 120.132 128.021C120.936 128.023 121.712 127.785 122.499 127.62C126.996 126.673 131.711 126.091 135.7 123.592C137.519 122.453 138.969 120.709 140.432 119.172C141.06 118.513 142.291 117.42 142.381 116.464C142.435 115.916 141.819 114.812 141.665 114.265Z" fill="#5E2701"/>
<path d="M125.227 76.3373L125.28 76.2227L125.191 75.976L125.227 76.3373Z" fill="#773000"/>
<path d="M134.868 94.108C138.216 120.816 121.285 135.217 116.228 135.613C104.493 136.532 80.0174 119.489 85.4094 96.62C86.8534 90.496 88.372 86.168 88.6227 81.6694C88.8267 77.9907 83.9947 55.66 104.949 50.592C126.976 45.2654 133.785 69.8547 132.291 75.1827C128.012 90.4374 133.54 83.52 134.868 94.108Z" fill="#FFB884"/>
<path d="M119.433 87.1827C119.433 87.1827 116.924 96.3053 123.731 104.553C120.689 106.2 115.092 109.771 114.289 106.573C113.123 111.161 122.061 108.969 126.052 105.091C122.685 103.701 118.196 91.736 119.433 87.1827Z" fill="#EF9C62"/>
<path d="M112.148 126.369C112.148 126.369 114.893 130.04 115.324 131.564C116.783 130.103 119.109 127.064 119.081 124.964C117.353 126.473 115.803 127.704 112.148 126.369Z" fill="#EF9C62"/>
<path d="M103.805 114.917L117.329 114.351L119.671 113.98L119.919 113.088L122.833 113.181C120.035 116.063 122.391 124.549 118.204 125.972C113.811 127.461 106.316 122.611 101.732 114.832L103.805 114.917Z" fill="#EA2F4A"/>
<path d="M103.805 114.917L117.329 114.351L119.671 113.98L119.919 113.088L122.833 113.181C122.219 113.815 121.853 114.717 121.611 115.756C121.249 115.688 120.619 115.829 120.413 117.556C120.119 120.032 120.541 123.349 117.701 123.828C114.86 124.307 108.3 122.588 103.871 117.232C103.871 117.232 103.627 117.187 103.284 117.204C102.74 116.451 102.217 115.657 101.732 114.832L103.805 114.917Z" fill="#C41234"/>
<path d="M120.733 114.147C120.367 114.195 120.139 117.123 120.043 117.508C119.495 119.723 119.788 122.133 117.903 122.647C116.707 122.975 115.348 122.848 114.115 122.659C110.084 122.052 105.84 118.847 102.513 114.968L107.399 114.343C107.399 114.343 113.936 114.249 117.861 114.191C119.455 114.167 120.617 114.147 120.733 114.147Z" fill="#F7F0F1"/>
<path d="M117.861 114.191C117.811 114.565 117.777 114.852 117.749 114.96C117.199 117.175 117.492 119.58 115.607 120.095C114.416 120.425 113.053 120.296 111.819 120.111C108.713 119.641 105.48 117.632 102.639 114.952L107.399 114.343C107.399 114.343 113.936 114.249 117.861 114.191Z" fill="white"/>
<path d="M101.821 114.936C108.001 115.388 112.352 114.609 118.472 114.319C121.357 114.184 121.957 114.688 124.176 111.733C124.176 111.733 123.601 112.619 120.176 112.708C116.751 112.797 112.872 112.944 112.872 112.944C112.872 112.944 106.289 113.435 101.821 114.936Z" fill="#EA2F4A"/>
<path d="M109.133 85.4694C108.712 84.2254 106.191 83.6774 105.132 83.5174C101.975 83.0414 97.5786 85.1867 94.9906 86.7707C97.5119 85.8907 101.217 85.2054 103.653 85.248C105.804 85.284 106.581 86.544 107.903 86.648C108.916 86.7294 109.459 86.432 109.133 85.4694Z" fill="#773000"/>
<path d="M123.224 79.2667C123.577 78.0147 125.685 77.4093 126.569 77.2253C129.207 76.6786 132.88 78.72 135.04 80.244C132.935 79.42 129.84 78.8213 127.804 78.9187C126.005 79.0067 125.356 80.284 124.251 80.4173C123.405 80.5213 122.951 80.2373 123.224 79.2667Z" fill="#773000"/>
<path d="M109.784 96.7227C109.705 95.4214 108.289 91.1347 107.624 90.096C106.377 88.1547 103.809 87.524 101.548 88.1227C97.5933 89.1667 96.7346 98.784 96.7506 98.988C97.4053 97.2827 98.1187 95.2627 99.592 94.2814C100.591 93.6147 101.428 93.456 102.632 93.324C103.895 93.1867 104.711 93.6307 105.847 93.8467L105.82 93.612L109.784 96.7227Z" fill="#EF9C62"/>
<path d="M108.731 97.072L108.683 96.82L108.615 96.5027C108.576 96.3494 108.537 96.196 108.499 96.0307C108.469 95.8973 108.431 95.7707 108.393 95.6374C108.355 95.492 108.316 95.348 108.277 95.2133L108.268 95.1947C108.124 94.752 107.96 94.3067 107.747 93.8933L107.739 93.884C107.643 93.672 107.527 93.4893 107.42 93.3253C106.649 92.1227 105.697 91.844 103.983 91.68C102.365 91.524 101.095 92.556 99.776 93.6534C99.612 93.788 99.2559 94.1254 98.8906 94.636L98.8613 94.664L98.804 94.7414L98.7839 94.7694L98.7173 94.876L98.5533 95.1547L98.4373 95.376L98.3412 95.5694L98.332 95.5787L98.3119 95.6174L98.2546 95.7813L98.0427 96.292C97.8213 96.7827 97.524 97.0134 97.36 97.5227L97.3307 97.5907L97.5519 97.6587H97.5613L97.6573 97.688L97.9186 97.736V97.7453C98.0332 97.7733 98.1479 97.7933 98.2746 97.812C99.4666 98.024 100.835 98.0627 102.077 98.0147L102.269 98.0054C102.723 97.9854 103.155 97.9653 103.551 97.928C103.713 97.9173 103.877 97.8987 104.032 97.8894C104.32 97.8614 104.599 97.832 104.869 97.7933C105.205 97.764 105.533 97.716 105.841 97.6773C106.795 97.5427 107.604 97.3894 108.161 97.2534L108.268 97.2253C108.451 97.1773 108.615 97.1387 108.731 97.1H108.74L108.731 97.072ZM108.731 97.072L108.683 96.82L108.615 96.5027C108.576 96.3494 108.537 96.196 108.499 96.0307C108.469 95.8973 108.431 95.7707 108.393 95.6374C108.355 95.492 108.316 95.348 108.277 95.2133L108.268 95.1947C108.124 94.752 107.96 94.3067 107.747 93.8933L107.739 93.884C107.643 93.672 107.527 93.4893 107.42 93.3253C106.612 92.1907 105.553 92.1027 103.849 91.9387C103.309 91.892 102.443 92.4213 101.509 93.1813C101.336 93.316 101.152 93.4707 100.979 93.624L100.883 93.7107C100.045 94.452 99.1973 95.308 98.544 96.0307C98.284 96.3293 98.0426 96.5987 97.8506 96.84L97.8412 96.8587L97.8307 96.868C97.5907 97.1574 97.4267 97.3894 97.36 97.5227L97.3307 97.5907L97.5519 97.6587H97.5613L97.6573 97.688L97.9186 97.736V97.7453C98.0332 97.7733 98.1479 97.7933 98.2746 97.812C99.4666 98.024 100.835 98.0627 102.077 98.0147L102.269 98.0054C102.723 97.9854 103.155 97.9653 103.551 97.928C103.713 97.9173 103.877 97.8987 104.032 97.8894C104.32 97.8614 104.599 97.832 104.869 97.7933C105.205 97.764 105.533 97.716 105.841 97.6773C106.795 97.5427 107.604 97.3894 108.161 97.2534L108.268 97.2253C108.451 97.1773 108.615 97.1387 108.731 97.1H108.74L108.731 97.072Z" fill="white"/>
<path d="M105.288 95.4907C105.311 96.9573 104.281 98.1693 102.984 98.196C101.689 98.2253 100.62 97.06 100.595 95.5933C100.572 94.128 101.603 92.916 102.899 92.888C104.195 92.8587 105.264 94.0267 105.288 95.4907Z" fill="#3A2E26"/>
<path d="M105.041 95.3387C105.051 95.9507 104.62 96.4574 104.08 96.4694C103.537 96.48 103.091 95.9934 103.081 95.3814C103.072 94.7694 103.501 94.2627 104.043 94.252C104.584 94.2387 105.031 94.7254 105.041 95.3387Z" fill="#4C3F35"/>
<path d="M103.396 95.172C103.4 95.3787 103.253 95.5507 103.071 95.5547C102.888 95.5587 102.739 95.3947 102.733 95.1867C102.731 94.98 102.876 94.808 103.059 94.8053C103.243 94.8 103.393 94.9667 103.396 95.172Z" fill="white"/>
<path d="M108.683 96.82C108.152 96.9933 107.239 97.2534 106.101 97.5227C105.716 97.62 105.301 97.7067 104.869 97.7933C104.541 97.8693 104.195 97.9374 103.849 98.0054L103.772 98.024C103.464 98.0814 103.145 98.14 102.799 98.188L102.587 98.2267C101.345 98.428 99.9492 98.5827 98.7172 98.592C98.4652 98.592 98.2359 98.5827 98.0052 98.5734H97.9945L97.6679 98.544V98.5333C97.7452 98.284 97.8305 98.0147 97.9185 97.7453V97.736C98.0145 97.4653 98.1105 97.1867 98.2065 96.916C98.3225 96.6093 98.4279 96.3093 98.5439 96.0307C98.8132 95.3667 99.0639 94.856 99.2559 94.7027C99.7372 94.3067 100.296 93.98 100.883 93.7107C101.019 93.6533 101.152 93.5947 101.288 93.5374L101.48 93.4707C102.173 93.22 102.896 93.056 103.617 92.9987H103.628L103.752 92.988C105.707 92.8827 106.824 93.288 107.759 94.4427C107.951 94.684 108.113 94.9333 108.268 95.1947L108.277 95.2133C108.373 95.396 108.469 95.5787 108.557 95.7613C108.633 95.944 108.711 96.1187 108.779 96.292C108.836 96.436 108.884 96.5894 108.941 96.724H108.932L108.683 96.82ZM109.327 96.628C109.289 96.5027 109.241 96.388 109.192 96.2613C109.144 96.128 109.085 95.9827 109.028 95.848C108.904 95.5787 108.779 95.308 108.624 95.0493C108.479 94.7893 108.305 94.5294 108.113 94.2894C107.999 94.1454 107.873 94.0093 107.747 93.8933L107.739 93.884C107.527 93.6627 107.296 93.48 107.045 93.3253C106.929 93.248 106.805 93.1814 106.68 93.124L106.621 93.104C106.476 93.036 106.313 92.98 106.149 92.9307C106.015 92.892 105.871 92.8533 105.716 92.8253L105.505 92.7867L105.417 92.7773L105.1 92.7374H105.052C104.851 92.7187 104.647 92.7093 104.425 92.7093C104.224 92.7093 104.013 92.7187 103.791 92.7293C103.56 92.7373 103.328 92.7667 103.107 92.7973C102.924 92.8147 102.732 92.8533 102.559 92.892C102.337 92.9307 102.125 92.988 101.913 93.0467C101.769 93.084 101.645 93.1333 101.509 93.1813L101.413 93.2093L101.355 93.2293L101.056 93.3453L100.923 93.3933L100.672 93.5093L100.451 93.6147C100.073 93.7987 99.7372 94 99.4106 94.2307C99.2559 94.3373 99.1119 94.4427 98.9679 94.5587L98.8905 94.636L98.8612 94.664L98.8039 94.7414L98.7839 94.7693L98.7172 94.876L98.6212 95.02L98.5533 95.1547L98.4373 95.376L98.3412 95.5693V95.5787H98.3319V95.5973L98.2546 95.7813L98.0426 96.292L97.8986 96.6867L97.8505 96.84L97.8412 96.8587L97.8306 96.868L97.5798 97.5813L97.5612 97.6587H97.5518L97.5319 97.7453C97.4839 97.8893 97.4359 98.024 97.3986 98.14L97.3679 98.236V98.2467L97.3199 98.4L97.2826 98.516L97.2345 98.6787L97.2253 98.7267L97.2146 98.7467V98.7547V98.7653C97.4266 98.7947 97.6573 98.8133 97.8986 98.8333H97.9093C98.8039 98.8813 99.8439 98.8227 100.923 98.7067C101.645 98.6307 102.395 98.524 103.127 98.4C104.003 98.2467 104.869 98.0733 105.668 97.8987C106.641 97.6773 107.497 97.4467 108.161 97.2533L108.268 97.2253C108.441 97.168 108.595 97.12 108.731 97.072C108.856 97.032 108.969 96.9933 109.057 96.9653L109.096 96.9467C109.231 96.8973 109.327 96.8587 109.395 96.82L109.327 96.628Z" fill="#E89258"/>
<mask id="mask0_2_1308" style="mask-type:luminance" maskUnits="userSpaceOnUse" x="97" y="95" width="13" height="4">
<path d="M97.6986 98.8174C97.5293 98.804 97.3652 98.7867 97.2079 98.7667C97.2079 98.7667 97.2172 98.736 97.2346 98.6787L97.2253 98.7267L97.2147 98.7467V98.7547V98.7654C97.368 98.7867 97.5306 98.8027 97.6986 98.8174ZM97.9933 98.5734L97.6679 98.544V98.5334C97.7452 98.284 97.8306 98.0147 97.9186 97.7454C98.0332 97.7734 98.1453 97.792 98.2706 97.812C98.1733 98.0667 98.08 98.3241 97.9933 98.5734ZM97.2999 98.4614C97.3199 98.396 97.3426 98.3227 97.3679 98.2414V98.2467L97.32 98.4L97.2999 98.4614ZM97.4346 98.0334C97.4679 97.928 97.504 97.8147 97.544 97.6947L97.532 97.7454C97.4986 97.8467 97.4639 97.944 97.4346 98.0334ZM109.393 96.8187L109.327 96.628C109.323 96.616 109.32 96.6054 109.316 96.5947C109.343 96.6694 109.369 96.7441 109.395 96.8187H109.393ZM108.932 96.7241C108.805 96.4907 108.653 96.2427 108.496 96.016C108.467 95.888 108.429 95.7654 108.393 95.6374C108.392 95.6347 108.392 95.632 108.391 95.6294L108.556 95.7587C108.556 95.76 108.557 95.7614 108.557 95.7614C108.633 95.944 108.711 96.1187 108.779 96.292C108.836 96.436 108.884 96.5894 108.941 96.7241H108.932ZM109.225 96.3467C109.215 96.3187 109.204 96.2907 109.192 96.2614C109.192 96.26 109.192 96.2587 109.191 96.2574L109.192 96.2587C109.203 96.288 109.215 96.3174 109.225 96.3467ZM98.0399 96.2974C98.1173 96.0987 98.196 95.9041 98.276 95.7214L98.2546 95.7814L98.0427 96.292C98.0427 96.2934 98.0413 96.2947 98.0399 96.2974Z" fill="white"/>
</mask>
<g mask="url(#mask0_2_1308)">
<path d="M97.2079 98.8174H109.394V95.6294H97.2079V98.8174Z" fill="#E5A577"/>
</g>
<path d="M109.192 96.2587L109.191 96.2573C109.188 96.248 109.184 96.2387 109.18 96.2293C109.184 96.2387 109.188 96.248 109.192 96.2587ZM108.556 95.7587L108.391 95.6293C108.353 95.4867 108.316 95.3453 108.277 95.2133C108.373 95.3947 108.469 95.576 108.556 95.7587ZM108.935 95.6467C108.84 95.444 108.74 95.244 108.624 95.0493C108.479 94.7893 108.305 94.5293 108.113 94.2893C107.999 94.1453 107.873 94.0093 107.747 93.8933L107.739 93.884C107.735 93.876 107.731 93.868 107.728 93.86C107.863 93.9933 107.991 94.136 108.116 94.292C108.451 94.708 108.716 95.172 108.935 95.6467ZM98.3679 95.516C98.5559 95.1053 98.744 94.7707 98.9147 94.6027C98.9067 94.6133 98.8986 94.624 98.8906 94.636L98.8613 94.664L98.804 94.7413L98.7839 94.7693L98.7173 94.876L98.6213 95.02L98.5533 95.1547L98.4373 95.376L98.3679 95.516Z" fill="#D78C58"/>
<path d="M98.2706 97.812C98.1453 97.792 98.0332 97.7733 97.9185 97.7453V97.736C98.0145 97.4654 98.1106 97.1867 98.2066 96.916C98.3226 96.6093 98.4279 96.3093 98.5439 96.0307C98.8133 95.3667 99.0639 94.856 99.2559 94.7027C99.7372 94.3067 100.296 93.98 100.883 93.7107C101.019 93.6533 101.152 93.5947 101.288 93.5374L101.475 93.472C101.04 93.8667 100.733 94.4307 100.632 95.0734C100.123 95.332 99.6532 95.636 99.2346 95.9734C98.9439 96.2054 98.5866 96.9853 98.2706 97.812ZM97.5612 97.6587H97.5559C97.5626 97.6373 97.5693 97.616 97.5773 97.5947L97.5612 97.6587ZM97.6053 97.5107C97.7319 97.1307 97.8812 96.7053 98.0399 96.2973C98.0412 96.2947 98.0426 96.2933 98.0426 96.292L98.2546 95.7813L98.276 95.7214C98.2946 95.6787 98.3133 95.636 98.3319 95.5947V95.5973L98.2546 95.7813L98.0426 96.292L97.8986 96.6867L97.8506 96.84L97.8412 96.8587L97.8306 96.868L97.6053 97.5107ZM108.496 96.016C108.403 95.8813 108.307 95.7534 108.215 95.64C107.408 94.6334 106.545 94.1627 104.928 94.1253C104.629 93.5893 104.165 93.184 103.619 92.9987H103.628L103.752 92.988C103.951 92.9774 104.14 92.972 104.321 92.972C105.932 92.972 106.919 93.404 107.759 94.4427C107.951 94.684 108.113 94.9333 108.268 95.1947L108.277 95.2133C108.316 95.3453 108.353 95.4867 108.391 95.6293C108.392 95.632 108.392 95.6347 108.393 95.6374C108.429 95.7654 108.467 95.888 108.496 96.016ZM98.3412 95.5787H98.3399C98.3399 95.5773 98.3399 95.576 98.3412 95.5747V95.5787ZM98.7839 94.7694L98.804 94.7414L98.8612 94.664L98.8905 94.636C98.8985 94.624 98.9066 94.6134 98.9146 94.6027C98.932 94.5854 98.9492 94.5694 98.9679 94.5547C99.5159 94.1134 100.153 93.728 100.851 93.4267L100.672 93.5093L100.451 93.6147C100.073 93.7987 99.7373 94 99.4106 94.2307C99.2559 94.3373 99.1119 94.4427 98.9679 94.5587L98.8905 94.636L98.8612 94.664L98.804 94.7414L98.7839 94.7694ZM107.739 93.884C107.527 93.6627 107.296 93.48 107.045 93.3253C107.043 93.324 107.04 93.3214 107.037 93.32C107.287 93.472 107.515 93.652 107.728 93.86C107.731 93.868 107.735 93.876 107.739 93.884ZM100.961 93.3787C101.833 93.0147 102.796 92.78 103.792 92.7253C104.004 92.7133 104.207 92.7067 104.4 92.7067C105.316 92.7067 106.037 92.8413 106.636 93.1093L106.621 93.104C106.476 93.036 106.313 92.98 106.149 92.9307C106.015 92.892 105.871 92.8533 105.716 92.8253L105.505 92.7867L105.417 92.7773L105.1 92.7374H105.052C104.851 92.7187 104.647 92.7093 104.425 92.7093C104.224 92.7093 104.013 92.7187 103.791 92.7293C103.56 92.7373 103.328 92.7667 103.107 92.7973C102.924 92.8147 102.732 92.8533 102.559 92.892C102.337 92.9307 102.125 92.988 101.913 93.0467C101.769 93.084 101.645 93.1333 101.509 93.1813L101.413 93.2093L101.355 93.2293L101.056 93.3453L100.961 93.3787Z" fill="#E5E5E5"/>
<path d="M100.632 95.0734C100.733 94.4307 101.04 93.8667 101.475 93.472L101.48 93.4707C102.173 93.22 102.896 93.056 103.617 92.9987H103.619C104.165 93.184 104.629 93.5894 104.928 94.1253C104.86 94.124 104.791 94.124 104.72 94.124C104.512 94.124 104.292 94.1307 104.059 94.1427C102.829 94.212 101.653 94.5534 100.632 95.0734Z" fill="#342922"/>
<path d="M97.9052 98.8307C97.8359 98.8267 97.7666 98.8214 97.6986 98.8174C97.5306 98.8027 97.3679 98.7867 97.2146 98.7654V98.7547V98.7467L97.2253 98.7267L97.2345 98.6787C97.2492 98.6267 97.2719 98.5534 97.2999 98.4614L97.3199 98.4L97.3679 98.2467V98.2414C97.3892 98.176 97.4105 98.1067 97.4345 98.0334C97.4639 97.944 97.4986 97.8467 97.5319 97.7454L97.5439 97.6947C97.5479 97.6827 97.5519 97.6707 97.5559 97.6587H97.5612L97.5772 97.5947C97.5866 97.5667 97.5959 97.5387 97.6052 97.5107L97.8306 96.868L97.8412 96.8587L97.8505 96.84L97.8986 96.6867L98.0426 96.292L98.2546 95.7814L98.3319 95.5974V95.5947C98.3346 95.5894 98.3372 95.584 98.3399 95.5787H98.3412V95.5747C98.3492 95.5547 98.3585 95.5347 98.3679 95.516L98.4373 95.376L98.5533 95.1547L98.6212 95.02L98.7172 94.876L98.7839 94.7694L98.8039 94.7414L98.8612 94.664L98.8905 94.636L98.9679 94.5587C99.1119 94.4427 99.2559 94.3374 99.4106 94.2307C99.7372 94 100.073 93.7987 100.451 93.6147L100.672 93.5094L100.851 93.4267C100.888 93.4107 100.924 93.3947 100.961 93.3787L101.056 93.3454L101.355 93.2294L101.413 93.2094L101.509 93.1814C101.645 93.1334 101.769 93.084 101.913 93.0467C102.125 92.988 102.337 92.9307 102.559 92.892C102.732 92.8533 102.924 92.8147 103.107 92.7974C103.328 92.7667 103.56 92.7374 103.791 92.7294C104.013 92.7187 104.224 92.7094 104.425 92.7094C104.647 92.7094 104.851 92.7187 105.052 92.7374H105.1L105.417 92.7774L105.505 92.7867L105.716 92.8253C105.871 92.8533 106.015 92.892 106.149 92.9307C106.313 92.98 106.476 93.036 106.621 93.104L106.636 93.1094C106.776 93.172 106.909 93.2427 107.037 93.32C107.04 93.3214 107.043 93.324 107.045 93.3253C107.296 93.48 107.527 93.6627 107.739 93.884L107.747 93.8934C107.873 94.0094 107.999 94.1454 108.113 94.2894C108.305 94.5294 108.479 94.7894 108.624 95.0494C108.74 95.244 108.84 95.444 108.935 95.6467C109.024 95.84 109.105 96.0347 109.18 96.2294C109.184 96.2387 109.188 96.248 109.191 96.2574C109.192 96.2587 109.192 96.26 109.192 96.2614C109.204 96.2907 109.215 96.3187 109.225 96.3467C109.257 96.4294 109.287 96.512 109.316 96.5947C109.32 96.6054 109.323 96.616 109.327 96.628L109.393 96.8187L109.055 96.964C109.017 96.8867 108.976 96.8054 108.932 96.724H108.941C108.884 96.5894 108.836 96.436 108.779 96.292C108.711 96.1187 108.633 95.944 108.557 95.7614C108.557 95.7614 108.556 95.76 108.556 95.7587C108.469 95.576 108.373 95.3947 108.277 95.2134L108.268 95.1947C108.113 94.9334 107.951 94.684 107.759 94.4427C106.919 93.404 105.932 92.972 104.321 92.972C104.14 92.972 103.951 92.9774 103.752 92.988L103.628 92.9987H103.619H103.617C102.896 93.056 102.173 93.22 101.48 93.4707L101.474 93.472L101.288 93.5374C101.152 93.5947 101.019 93.6534 100.883 93.7107C100.296 93.98 99.7372 94.3067 99.2559 94.7027C99.0639 94.856 98.8132 95.3667 98.5439 96.0307C98.4279 96.3094 98.3225 96.6094 98.2065 96.916C98.1105 97.1867 98.0145 97.4654 97.9185 97.736V97.7454C97.8305 98.0147 97.7452 98.284 97.6679 98.5334V98.544L97.9932 98.5734C97.9626 98.66 97.9332 98.7467 97.9052 98.8307Z" fill="#D0834F"/>
<path d="M109.096 96.9467L109.057 96.9654C108.971 96.9934 108.856 97.032 108.731 97.072C108.595 97.12 108.441 97.168 108.268 97.2254L108.161 97.2534C107.497 97.4467 106.64 97.6774 105.668 97.8987C104.869 98.0734 104.003 98.2467 103.127 98.4C102.395 98.5254 101.644 98.6307 100.921 98.7067C99.844 98.8227 98.804 98.8814 97.9094 98.8334H97.8987C97.6574 98.8227 97.436 98.8054 97.2147 98.7654H97.2053V98.7547H97.2147V98.7467L97.2254 98.7267L97.2346 98.6787L97.2827 98.516L97.3201 98.4L97.368 98.2467V98.236L97.3987 98.1387C97.436 98.0254 97.484 97.8894 97.532 97.7454L97.552 97.6587H97.5613L97.5814 97.5814L97.8307 96.868L97.8413 96.86L97.8507 96.84L97.8987 96.6867L98.0427 96.292L98.2547 95.7814L98.332 95.5974V95.5787H98.3413V95.5694L98.4374 95.376L98.5534 95.1547L98.6214 95.0214L98.7173 94.876L98.784 94.7694L98.804 94.7414L98.8613 94.664L98.8906 94.636L98.968 94.5587C99.112 94.4427 99.256 94.3374 99.4107 94.2307C99.7373 94 100.075 93.7987 100.451 93.6147L100.672 93.5094L100.921 93.3934L101.056 93.3454L101.356 93.2294L101.413 93.2094L101.509 93.1814C101.644 93.1334 101.769 93.084 101.915 93.0467C102.125 92.988 102.337 92.9307 102.559 92.892C102.741 92.8454 102.924 92.8147 103.107 92.7974C103.328 92.7574 103.56 92.7387 103.791 92.7294C104.013 92.7187 104.224 92.7094 104.425 92.7094C104.647 92.7094 104.86 92.7187 105.052 92.7387H105.1L105.417 92.7774L105.505 92.7867L105.716 92.8254C105.871 92.8547 106.015 92.892 106.149 92.9307C106.313 92.9787 106.476 93.036 106.621 93.104L106.68 93.124C106.805 93.1814 106.929 93.2494 107.045 93.3254C107.296 93.48 107.527 93.6627 107.739 93.884L107.748 93.8934C107.873 94.0094 107.999 94.144 108.113 94.2894C108.305 94.5294 108.479 94.7894 108.624 95.0494C108.779 95.308 108.904 95.5787 109.028 95.848C109.085 95.9827 109.144 96.128 109.193 96.2614C109.241 96.388 109.289 96.5027 109.327 96.628L109.395 96.82C109.327 96.86 109.231 96.8974 109.096 96.9467ZM109.789 96.724H109.78C109.52 95.9547 109.135 94.9534 108.471 94.1347C107.412 92.8254 105.968 91.2547 103.724 91.3814C101.875 91.4867 99.9693 92.652 98.6786 94.404C98.216 95.0294 97.2439 97.524 96.9079 98.4854L96.8201 98.7547L96.752 98.9774V98.9867L97.0707 99.0267C98.5827 99.228 100.584 99.0547 102.337 98.7854C102.905 98.7067 103.444 98.612 103.945 98.516C106.584 98.0254 109.048 97.3307 109.616 97.0134L109.837 96.888L109.789 96.724Z" fill="#F7A76F"/>
<path d="M133.581 95.4347C133.957 94.3307 132.171 89.6 131.584 88.5573C130.487 86.6027 128.517 84.9653 126.616 85.6747C122.317 87.2813 122.135 95.796 122.149 96C122.841 93.9627 123.6 93.6707 124.864 92.7027C125.721 92.048 126.443 91.9 127.481 91.78C128.572 91.656 129.281 92.108 130.264 92.3373L130.241 92.1027L133.581 95.4347Z" fill="#EF9C62"/>
<path d="M132.713 94.664L132.684 94.5387C132.529 93.9521 132.317 93.2961 131.981 92.7187C131.731 92.2761 131.461 91.92 131.135 91.66L131.115 91.6401C130.517 91.1214 129.747 90.8707 128.66 90.7947C127.447 90.7067 126.167 91.0254 125.107 91.6694C124.953 91.7561 124.799 91.8627 124.655 91.9694L124.472 92.1707C124.289 92.4401 124.037 92.9307 123.797 93.5094L123.683 93.768L123.567 94.048C123.345 94.568 123.143 95.1067 122.971 95.5881L123.019 95.5974L123.249 95.6561L123.288 95.6654L123.432 95.6854C123.683 95.7427 123.952 95.7814 124.221 95.8014C124.924 95.8774 125.685 95.8974 126.416 95.8774H126.425C126.695 95.8774 126.965 95.8667 127.225 95.8574C127.6 95.8387 127.976 95.8187 128.312 95.7907H128.332C129.044 95.7334 129.709 95.6654 130.305 95.5787C131.461 95.424 132.365 95.2427 132.791 95.1267H132.8H132.809L132.819 95.116C132.791 94.972 132.752 94.828 132.713 94.664ZM132.713 94.664L132.684 94.5387C132.529 93.9521 132.317 93.2961 131.981 92.7187C131.731 92.2761 131.461 91.92 131.135 91.66L131.115 91.6401C130.517 91.1214 129.747 90.8707 128.66 90.7947C127.447 90.7067 126.167 91.0254 125.107 91.6694C124.953 91.7561 124.799 91.8627 124.655 91.9694L124.472 92.1707C124.289 92.4401 124.037 92.9307 123.797 93.5094L123.683 93.768L123.567 94.048C123.345 94.568 123.143 95.1067 122.971 95.5881L123.019 95.5974L123.249 95.6561L123.288 95.6654L123.432 95.6854C123.683 95.7427 123.952 95.7814 124.221 95.8014C124.924 95.8774 125.685 95.8974 126.416 95.8774H126.425C126.695 95.8774 126.965 95.8667 127.225 95.8574C127.6 95.8387 127.976 95.8187 128.312 95.7907H128.332C129.044 95.7334 129.709 95.6654 130.305 95.5787C131.461 95.424 132.365 95.2427 132.791 95.1267H132.8H132.809L132.819 95.116C132.791 94.972 132.752 94.828 132.713 94.664Z" fill="white"/>
<path d="M129.156 93.576C129.195 95.0093 128.381 96.1813 127.339 96.1907C126.296 96.2 125.417 95.0467 125.38 93.612C125.341 92.1773 126.155 91.0067 127.197 90.996C128.24 90.9853 129.117 92.14 129.156 93.576Z" fill="#3A2E26"/>
<path d="M128.956 93.4227C128.972 94.0214 128.633 94.512 128.196 94.516C127.76 94.52 127.395 94.036 127.377 93.436C127.361 92.8387 127.701 92.3494 128.136 92.3454C128.573 92.3414 128.94 92.8227 128.956 93.4227Z" fill="#4C3F35"/>
<path d="M127.629 93.2387C127.636 93.44 127.52 93.6054 127.372 93.608C127.225 93.6094 127.101 93.4453 127.096 93.2427C127.091 93.04 127.205 92.8747 127.353 92.8734C127.5 92.872 127.624 93.0347 127.629 93.2387Z" fill="white"/>
<path d="M130.305 95.6267C129.709 95.704 129.044 95.7813 128.332 95.8387H128.255C127.937 95.8573 127.591 95.8867 127.235 95.9067C126.993 95.9147 126.753 95.9253 126.503 95.9347C125.752 95.9547 124.963 95.944 124.231 95.8773C123.952 95.848 123.683 95.8093 123.421 95.7707L123.259 95.7427L122.979 95.6853L123.019 95.5973C123.181 95.1747 123.373 94.712 123.577 94.2693L123.633 94.1533C123.768 93.8547 123.904 93.5773 124.028 93.3253C124.289 92.8347 124.52 92.46 124.684 92.3533C124.828 92.256 124.981 92.1613 125.135 92.0747C125.396 91.9293 125.656 91.804 125.935 91.6987C126.609 91.4387 127.321 91.2853 128.035 91.2547C128.255 91.2373 128.476 91.2453 128.697 91.2547C130.383 91.352 131.307 91.844 132.011 92.988C132.289 93.4707 132.492 94 132.645 94.5L132.723 94.78C132.752 94.904 132.78 95.0107 132.8 95.1267L132.819 95.1947C132.396 95.308 131.48 95.4827 130.305 95.6267ZM133.165 95.1467L133.128 94.9813C133.08 94.7893 133.031 94.588 132.972 94.3947C132.907 94.1933 132.839 93.98 132.761 93.7787C132.704 93.624 132.636 93.4707 132.559 93.3253C132.492 93.172 132.413 93.036 132.328 92.892C132.241 92.7493 132.145 92.6133 132.048 92.4787C131.952 92.3533 131.847 92.228 131.741 92.1227C131.625 92.0173 131.509 91.9107 131.384 91.8133L131.115 91.64L130.989 91.5547L130.864 91.496L130.643 91.4C130.537 91.352 130.411 91.304 130.287 91.2653H130.277C130.113 91.2173 129.92 91.1693 129.728 91.1293L129.42 91.0813L129.103 91.044C128.987 91.0333 128.871 91.0253 128.745 91.016C128.601 91.0053 128.457 91.0053 128.312 91.0053C128.121 91.0053 127.928 91.016 127.744 91.0333L127.611 91.0533H127.6L127.283 91.092L127.109 91.112L126.763 91.1893L126.667 91.2067L126.329 91.304H126.32L126.224 91.3333C126.08 91.3813 125.935 91.4293 125.8 91.4867C125.597 91.564 125.405 91.6507 125.223 91.7373C124.953 91.8627 124.703 92.0173 124.472 92.1707L124.443 92.1907L124.317 92.3053L124.201 92.4307C124.068 92.604 123.923 92.8533 123.768 93.1333C123.653 93.3453 123.537 93.5867 123.421 93.8267V93.836C123.268 94.1627 123.115 94.5 122.988 94.7987V94.808L122.903 95.0107C122.845 95.1467 122.797 95.2613 122.748 95.376C122.691 95.512 122.652 95.6267 122.613 95.704L122.556 95.848C122.748 95.8973 122.951 95.9347 123.152 95.9733L123.384 96.012C123.633 96.06 123.904 96.0893 124.173 96.108C125.039 96.1853 126.012 96.196 126.984 96.1467C127.216 96.1467 127.447 96.1373 127.677 96.1187L127.784 96.108C128.516 96.06 129.237 96.0027 129.903 95.9147C131.24 95.7613 132.357 95.5693 132.896 95.4147L132.935 95.4053L132.983 95.396L133.001 95.3867L133.145 95.348L133.204 95.328V95.3187L133.165 95.1467Z" fill="#E89258"/>
<path d="M123.155 95.976C123.036 95.9547 122.92 95.9307 122.808 95.9054C122.921 95.9294 123.037 95.952 123.152 95.9734L123.156 95.9747L123.155 95.976ZM123.257 95.7414L122.979 95.6854L123.019 95.5974L123.249 95.656L123.288 95.6654H123.292C123.28 95.6907 123.269 95.716 123.257 95.7414ZM122.627 95.676C122.7 95.4907 122.829 95.172 122.988 94.7987V94.808L122.903 95.0107C122.845 95.1467 122.797 95.2613 122.748 95.376C122.697 95.496 122.661 95.6 122.627 95.676ZM132.9 95.42C132.899 95.4187 132.899 95.416 132.897 95.4147L132.935 95.4054L132.967 95.3987L132.9 95.42ZM132.996 95.3894L133.001 95.3867L133.021 95.3814L132.996 95.3894ZM132.817 95.1947C132.808 95.172 132.8 95.1493 132.791 95.1267H132.8L132.819 95.1947H132.817ZM123.145 94.436C123.233 94.2387 123.327 94.0347 123.421 93.832V93.836C123.328 94.036 123.233 94.24 123.145 94.436Z" fill="#E5A577"/>
<path d="M132.945 94.3107C132.887 94.1347 132.828 93.952 132.761 93.7787C132.76 93.7733 132.757 93.7693 132.756 93.764C132.827 93.944 132.889 94.1267 132.945 94.3107ZM132.677 93.572C132.641 93.488 132.601 93.4053 132.559 93.3253C132.492 93.172 132.413 93.036 132.328 92.892C132.241 92.7493 132.145 92.6133 132.048 92.4787C131.952 92.3533 131.847 92.228 131.741 92.1227C131.625 92.0173 131.509 91.9107 131.384 91.8133L131.115 91.64C131.101 91.6293 131.087 91.6173 131.073 91.6053C131.599 91.9107 131.995 92.3347 132.329 92.888C132.463 93.108 132.577 93.3373 132.677 93.572ZM124.247 92.3827C124.317 92.2947 124.384 92.2293 124.445 92.188C124.455 92.1813 124.463 92.1747 124.472 92.1693V92.1707L124.443 92.1907L124.317 92.3053L124.247 92.3827Z" fill="#D78C58"/>
<path d="M123.292 95.6653H123.288L123.249 95.656L123.019 95.5973C123.181 95.1747 123.373 94.712 123.577 94.2693L123.633 94.1533C123.768 93.8547 123.904 93.5773 124.028 93.3253C124.289 92.8347 124.52 92.46 124.684 92.3533C124.828 92.256 124.981 92.1614 125.135 92.0747C125.396 91.9294 125.656 91.8053 125.935 91.7C125.673 92.0467 125.488 92.5013 125.415 93.0133C125.108 93.16 124.819 93.3254 124.548 93.508C124.207 93.7387 123.695 94.76 123.292 95.6653ZM132.791 95.1267C132.652 94.784 132.471 94.4147 132.295 94.1267C131.595 92.9693 130.769 92.4574 128.895 92.3387C128.695 91.8694 128.396 91.4894 128.039 91.2547C128.131 91.2467 128.223 91.244 128.315 91.244C128.443 91.244 128.569 91.2494 128.697 91.2547C130.383 91.352 131.307 91.844 132.011 92.988C132.289 93.4707 132.492 94 132.645 94.5L132.723 94.78C132.752 94.904 132.78 95.0107 132.8 95.1267H132.791ZM124.472 92.1707V92.1693C124.527 92.1333 124.581 92.0973 124.637 92.0627C124.581 92.0987 124.525 92.1347 124.472 92.1707ZM125.205 91.7453C125.505 91.596 125.821 91.4653 126.149 91.3587C126.031 91.3987 125.912 91.44 125.8 91.4867C125.597 91.564 125.405 91.6507 125.223 91.7373C125.217 91.74 125.211 91.7427 125.205 91.7453ZM131.115 91.64L131.017 91.5734C131.036 91.584 131.055 91.5947 131.073 91.6054C131.087 91.6174 131.101 91.6294 131.115 91.64ZM130.929 91.5267L130.864 91.496L130.643 91.4C130.591 91.376 130.532 91.352 130.471 91.328C130.633 91.3867 130.787 91.452 130.929 91.5267ZM126.325 91.304H126.324C126.325 91.3027 126.325 91.3027 126.327 91.3027C126.327 91.3027 126.325 91.3027 126.325 91.304ZM130.281 91.2653H130.277C130.133 91.224 129.968 91.1813 129.799 91.1453C129.969 91.1787 130.129 91.22 130.281 91.2653ZM129.689 91.124L129.42 91.0813L129.103 91.044C128.987 91.0333 128.871 91.0253 128.745 91.016C128.737 91.0147 128.728 91.0147 128.72 91.0133C128.731 91.0147 128.741 91.0147 128.752 91.016C129.093 91.036 129.404 91.072 129.689 91.124ZM127.611 91.0533H127.609C127.6 91.0507 127.592 91.048 127.583 91.0467C127.835 91.0187 128.091 91.004 128.348 91.004C128.42 91.004 128.491 91.0054 128.563 91.0067C128.48 91.0054 128.396 91.0054 128.312 91.0054C128.121 91.0054 127.928 91.016 127.744 91.0333L127.611 91.0533Z" fill="#E5E5E5"/>
<path d="M125.415 93.0133C125.488 92.5013 125.673 92.0466 125.935 91.7C125.935 91.7 125.935 91.7 125.935 91.6986C126.609 91.4386 127.321 91.2853 128.035 91.2546C128.036 91.2546 128.037 91.2546 128.039 91.2546C128.396 91.4893 128.695 91.8693 128.895 92.3386C128.881 92.3373 128.869 92.336 128.856 92.336C128.721 92.328 128.587 92.324 128.452 92.324C127.371 92.324 126.323 92.5813 125.415 93.0133ZM126.329 91.304H126.325C126.325 91.3026 126.327 91.3026 126.327 91.3026C126.409 91.2773 126.495 91.2546 126.579 91.232L126.329 91.304ZM126.72 91.1973C126.815 91.1746 126.909 91.1533 127.004 91.1346L126.763 91.1893L126.72 91.1973ZM127.163 91.1053C127.301 91.0813 127.443 91.0613 127.583 91.0466C127.592 91.048 127.6 91.0506 127.609 91.0533H127.6L127.283 91.092L127.163 91.1053Z" fill="#342922"/>
<path d="M123.156 95.9747L123.152 95.9733C123.037 95.952 122.921 95.9293 122.808 95.9053C122.723 95.8867 122.641 95.8667 122.56 95.8467C122.56 95.8467 122.584 95.784 122.627 95.676C122.661 95.6 122.697 95.496 122.748 95.376C122.797 95.2613 122.845 95.1467 122.903 95.0107L122.988 94.808V94.7987C123.039 94.6827 123.091 94.5613 123.145 94.436C123.233 94.24 123.328 94.036 123.421 93.836V93.832C123.697 93.2507 123.996 92.6893 124.247 92.3827L124.317 92.3053L124.443 92.1907L124.472 92.1707C124.525 92.1347 124.581 92.0987 124.637 92.0627C124.819 91.9493 125.008 91.844 125.205 91.7453C125.211 91.7427 125.217 91.74 125.223 91.7373C125.405 91.6507 125.597 91.564 125.8 91.4867C125.912 91.44 126.031 91.3987 126.149 91.3587C126.208 91.3387 126.265 91.3213 126.324 91.304H126.325H126.329L126.579 91.232C126.625 91.22 126.673 91.208 126.72 91.1973L126.763 91.1893L127.004 91.1347C127.057 91.1253 127.111 91.1147 127.163 91.1053L127.283 91.092L127.6 91.0533H127.609H127.611L127.744 91.0333C127.928 91.016 128.121 91.0053 128.312 91.0053C128.396 91.0053 128.48 91.0053 128.563 91.0067C128.615 91.0093 128.667 91.0107 128.72 91.0133C128.728 91.0147 128.737 91.0147 128.745 91.016C128.871 91.0253 128.987 91.0333 129.103 91.044L129.42 91.0813L129.689 91.124C129.727 91.1307 129.763 91.1373 129.799 91.1453C129.968 91.1813 130.133 91.224 130.277 91.2653H130.281C130.345 91.2853 130.409 91.3067 130.471 91.328C130.532 91.352 130.591 91.376 130.643 91.4L130.864 91.496L130.929 91.5267C130.959 91.5413 130.988 91.5573 131.017 91.5733L131.115 91.64L131.384 91.8133C131.509 91.9107 131.625 92.0173 131.741 92.1227C131.847 92.228 131.952 92.3533 132.048 92.4787C132.145 92.6133 132.241 92.7493 132.328 92.892C132.413 93.036 132.492 93.172 132.559 93.3253C132.601 93.4053 132.641 93.488 132.677 93.572C132.705 93.636 132.731 93.7 132.756 93.764C132.757 93.7693 132.76 93.7733 132.761 93.7787C132.828 93.952 132.887 94.1347 132.945 94.3107C133.049 94.652 133.132 94.9947 133.203 95.3227L133.021 95.3813L133.001 95.3867L132.996 95.3893L132.967 95.3987L132.935 95.4053L132.897 95.4147C132.873 95.344 132.847 95.2707 132.817 95.1947H132.819L132.8 95.1267C132.78 95.0107 132.752 94.904 132.723 94.78L132.645 94.5C132.492 94 132.289 93.4707 132.011 92.988C131.307 91.844 130.383 91.352 128.697 91.2547C128.569 91.2493 128.443 91.244 128.315 91.244C128.223 91.244 128.131 91.2467 128.039 91.2547C128.037 91.2547 128.036 91.2547 128.035 91.2547C127.321 91.2853 126.609 91.4387 125.935 91.6987C125.935 91.7 125.935 91.7 125.935 91.7C125.656 91.8053 125.396 91.9293 125.135 92.0747C124.981 92.1613 124.828 92.256 124.684 92.3533C124.52 92.46 124.289 92.8347 124.028 93.3253C123.904 93.5773 123.768 93.8547 123.633 94.1533L123.577 94.2693C123.373 94.712 123.181 95.1747 123.019 95.5973L122.979 95.6853L123.257 95.7413C123.223 95.82 123.189 95.8987 123.156 95.9747Z" fill="#D0834F"/>
<path d="M133.204 95.328L133.145 95.348L133.001 95.3866L132.983 95.396L132.935 95.4053L132.896 95.416C132.357 95.5693 131.24 95.7613 129.903 95.916C129.237 96.0026 128.516 96.06 127.784 96.108L127.677 96.1186C127.447 96.1373 127.216 96.1466 126.984 96.1466C126.012 96.1946 125.039 96.1853 124.173 96.108C123.904 96.088 123.635 96.06 123.384 96.012L123.152 95.9733C122.94 95.944 122.749 95.8973 122.556 95.848L122.613 95.704C122.652 95.6266 122.691 95.512 122.749 95.376C122.797 95.2613 122.845 95.1453 122.903 95.0106L122.988 94.808V94.7986C123.115 94.5 123.268 94.1626 123.421 93.836V93.8266C123.537 93.5853 123.653 93.3453 123.768 93.1333C123.923 92.8546 124.068 92.604 124.201 92.4306L124.317 92.3053L124.443 92.1906L124.472 92.1706C124.703 92.0173 124.953 91.8613 125.223 91.7373C125.405 91.6506 125.597 91.564 125.801 91.4866C125.935 91.4293 126.08 91.3813 126.224 91.3333L126.32 91.304H126.329L126.667 91.2066L126.763 91.1893L127.109 91.112L127.283 91.092L127.6 91.0533H127.611L127.745 91.0333C127.928 91.016 128.121 91.0053 128.312 91.0053C128.457 91.0053 128.601 91.0053 128.747 91.016C128.871 91.0253 128.987 91.0333 129.103 91.044L129.42 91.0826L129.728 91.1306C129.92 91.1693 130.104 91.2066 130.277 91.2653H130.287C130.412 91.304 130.537 91.352 130.643 91.4L130.864 91.496L130.989 91.5546L131.115 91.64L131.384 91.8133C131.509 91.9106 131.625 92.0173 131.741 92.1226C131.847 92.228 131.952 92.3533 132.048 92.4786C132.144 92.604 132.241 92.7386 132.328 92.892C132.415 93.036 132.492 93.172 132.559 93.3253C132.636 93.4706 132.703 93.624 132.761 93.7786C132.839 93.98 132.907 94.1933 132.972 94.3946C133.031 94.5866 133.08 94.7893 133.128 94.9813L133.165 95.1453L133.204 95.3186V95.328ZM133.551 95.28C133.387 94.548 133.145 93.5946 132.645 92.7866C131.857 91.4773 130.749 89.908 128.813 89.7826C127.677 89.7146 126.465 90.1386 125.416 90.9093C124.981 91.2266 124.577 91.6026 124.212 92.0266C124.116 92.1413 123.991 92.3346 123.856 92.5653C123.499 93.1426 123.067 94 122.729 94.6933C122.536 95.0973 122.372 95.4533 122.276 95.6746L122.228 95.8013L122.151 95.992V96.0026L122.42 96.0706C122.709 96.1466 123.028 96.204 123.355 96.252C123.605 96.292 123.856 96.32 124.116 96.3493C125.54 96.4733 127.129 96.4066 128.371 96.3093C130.681 96.128 132.867 95.752 133.377 95.5213L133.58 95.4346L133.551 95.28Z" fill="#F7A76F"/>
<path d="M141.765 58.7627L141.755 58.7907C139.016 64.8493 136.959 73.084 130.561 70.5333C127.653 69.3733 123.712 63.4067 122.355 62.02C120.56 60.1893 114.439 55.504 114.439 55.504C114.019 60.74 114.023 60.7147 112.439 65.9027C110.681 71.6533 108.596 76.7427 103.98 80.7187C99.7492 84.3613 101.183 84.1213 96.0572 85.488C91.7705 86.6333 77.1705 94.528 80.5518 99.0613C83.2598 102.695 82.0638 100.48 84.9185 104.813C90.6465 113.519 94.3945 128.867 100.252 136.1C96.9078 136.499 64.8439 130.34 61.6599 126.02C61.0772 125.731 60.6559 124.973 60.3612 123.896C58.8305 118.3 60.6626 103.983 60.7386 101.06C61.0732 88.132 64.4705 73.8573 70.9238 62.6387C75.2665 55.0893 81.9185 47.0213 91.3292 48.0387C93.8025 48.3053 95.9999 50.168 98.2986 50.2533C101.252 50.3613 104.475 42.516 106.879 41.016C114.288 36.396 119.809 38.3013 125.102 37.8373C133.732 37.084 128.972 43.7013 131.001 43.972C133.777 44.3467 133.165 44.168 136.004 44.3333C143.176 44.7467 144.105 53.5973 141.765 58.7627Z" fill="#B24800"/>
<path d="M141.755 58.7907C139.016 64.8493 136.959 73.084 130.561 70.5333C127.653 69.3733 123.712 63.4067 122.355 62.02C120.56 60.1893 114.439 55.504 114.439 55.504C114.019 60.74 114.023 60.7147 112.439 65.9027C110.681 71.6533 108.596 76.7427 103.98 80.7187C99.7493 84.3613 101.183 84.1213 96.0573 85.488C91.7706 86.6333 77.1706 94.528 80.552 99.0613C83.26 102.695 82.064 100.48 84.9186 104.813C90.6466 113.519 94.3946 128.867 100.252 136.1C96.908 136.499 64.844 130.34 61.66 126.02C61.0774 125.731 60.656 124.973 60.3613 123.896C62.848 125.956 68.2413 127.015 70.624 127.636C73.3213 128.343 75.9679 128.596 78.7466 128.768C80.4853 128.877 83.5839 129.639 85.2466 128.617C89.3693 126.084 84.3786 116.376 82.9293 113.344C81.044 109.401 79.584 105.713 78.2786 101.557C76.9013 97.168 76.2001 92.6987 77.3587 88.1147C78.8334 82.2533 83.0293 80.28 88.2773 78.4227C91.7267 77.2013 95.152 76.0427 97.9493 73.5453C100.584 71.1933 102.728 67.904 104.811 65.0667C107.04 62.0293 108.287 59.0907 109.321 55.5013C109.911 53.4627 110.041 50.7373 110.82 48.9413C113.608 50.608 115.801 53.2773 118.648 54.9053C121.772 56.688 125.077 58.2067 128.324 59.7533C132.532 61.756 137.455 60.8893 141.755 58.7907Z" fill="#5E2701"/>
<path d="M140.357 50.512C139.823 48.5747 136.911 47.3613 135.352 46.4827C136.353 50.7787 118.473 47.0493 115.467 44.5627C115.467 44.5627 123.459 53.072 125.6 54.1373C128.416 55.5347 131.312 56.5747 134.515 56.18C137.081 55.8627 141.239 53.7053 140.357 50.512Z" fill="#8C3B03"/>
<path d="M77.1572 86.9387C78.4425 86.0787 80.2639 86.508 81.8306 86.648C83.5013 86.8 85.9719 87.0254 86.5052 88.9907C86.9239 90.5347 87.9453 93.6573 88.0759 95.2773C88.0759 95.2773 88.1172 102.136 86.8292 104.317C86.4332 104.987 83.8811 104.836 83.1025 104.388C82.0811 103.799 77.7612 94.708 76.7078 91.008C76.2225 89.2974 75.5305 88.028 77.1572 86.9387Z" fill="#FFB884"/>
<path d="M77.8185 88.244C78.0799 87.272 79.6879 87.5414 80.8066 87.572C81.9119 87.6027 83.8359 87.5054 84.7213 88.112C85.5919 88.7107 85.3879 90.668 85.3786 91.6067C82.5212 91.196 82.7999 94.3734 85.2025 94.0667L85.2506 94.648C85.3132 95.428 85.3013 96.3867 85.0319 96.92C84.9826 96.312 85.1759 95.096 84.5933 94.6587C84.0266 94.2307 82.8226 94.416 82.164 94.0134C80.4453 92.96 82.4386 91.572 84.0172 91.184C83.9279 90.7587 83.9679 89.696 83.6332 89.3614C83.2466 88.9734 81.9719 88.9267 81.3053 88.812C80.3066 88.64 79.6412 88.3614 79.1905 89.004C78.8865 89.4374 79.1426 90.1787 79.192 90.6507C78.6773 90.108 77.6399 88.9094 77.8185 88.244Z" fill="#EF9C62"/>
<path d="M91.6212 166.324C93.8252 177.04 96.8772 192.165 100.036 208.253L99.8919 208.244C99.3053 208.215 98.7266 208.186 98.1386 208.148C98.2546 208.784 98.3705 209.428 98.4852 210.073C98.3412 209.428 98.1958 208.784 98.0518 208.139C97.0612 208.089 96.0799 208.014 95.1065 207.917C92.4972 207.686 89.9078 207.349 87.3572 206.916C81.0292 189.749 75.5999 176.732 73.7706 176.308C75.4173 173.169 80.9826 172.12 83.6492 169.704C80.7026 164.447 75.0133 159.44 70.3533 158.005C70.5079 157.861 70.6999 157.697 70.9119 157.533C71.0465 157.428 71.1919 157.332 71.3452 157.227C75.7839 154.175 88.1839 149.88 88.1839 149.88L88.2132 150.063V150.073C88.2505 150.275 88.3092 150.544 88.3666 150.861C88.4532 151.256 88.5598 151.739 88.6852 152.305C89.2238 154.751 90.2639 159.691 91.6212 166.324Z" fill="#567391"/>
<path d="M128.139 174.692C126.368 175.414 124.144 189.104 122.007 206.916C121.381 207.031 120.755 207.128 120.12 207.213C118.097 207.523 116.057 207.763 114.007 207.936C113.525 207.984 113.033 208.023 112.552 208.061L112.417 208.071L112.196 208.081C111.695 208.119 111.195 208.157 110.685 208.186C110.271 196.412 109.915 185.215 109.673 175.972C109.443 166.767 109.327 159.508 109.384 155.56C109.395 154.886 109.423 154.3 109.463 153.789C109.472 153.557 109.491 153.347 109.52 153.153C109.636 151.979 109.78 151.315 109.78 150.833C109.78 150.833 116.393 153.721 121.544 156.32C123.692 157.4 125.588 158.429 126.628 159.171C125.704 159.624 124.837 160.104 124.037 160.644C121.092 162.608 118.993 165.265 117.347 169.704C117.828 170.021 118.367 170.281 118.955 170.523C122.065 171.804 126.359 172.304 128.139 174.692Z" fill="#567391"/>
<path d="M61.12 198.828L61.1106 198.916L61.0333 198.789C59.108 197.895 57.2013 196.941 55.344 195.94C53.8213 195.121 52.32 194.255 50.848 193.36C50.02 192.859 49.2 192.349 48.392 191.828C45.552 189.998 42.8067 188.034 40.1707 185.936C42.52 175.316 44.8493 167.779 46.6386 165.728C48.1226 164.014 50.0959 162.955 52.1186 162.695C56.2572 162.175 60.6573 164.968 61.832 172.38C62.5933 177.137 62.1693 186.736 61.12 198.828Z" fill="#3A4E66"/>
</svg>
