<svg width="209" height="209" viewBox="0 0 209 209" fill="none" xmlns="http://www.w3.org/2000/svg">
<path d="M206.146 126.919C200.466 152.317 185.947 173.452 166.56 187.797C163.787 189.848 160.92 191.753 157.96 193.525C154.707 195.471 151.347 197.232 147.893 198.803C147.32 199.081 146.746 199.331 146.173 199.581C145.6 199.841 145.013 200.083 144.44 200.312C143.52 200.708 142.587 201.064 141.653 201.42C141.453 201.497 141.266 201.575 141.066 201.641C140.813 201.748 140.546 201.844 140.28 201.931C140.08 202.017 139.867 202.093 139.653 202.172C139.227 202.325 138.813 202.471 138.387 202.604C136.04 203.414 133.68 204.136 131.293 204.771C127.907 205.667 124.493 206.398 121.013 206.947C120.546 207.024 120.066 207.091 119.6 207.168L119.346 207.196C118.973 207.255 118.6 207.304 118.2 207.361C111.986 208.179 105.64 208.439 99.2131 208.084C98.5864 208.064 97.9598 208.025 97.3065 207.968C95.2665 207.822 93.2265 207.61 91.1865 207.341C90.7065 207.284 90.2264 207.207 89.7464 207.139L89.6131 207.12L89.3998 207.083C88.8932 207.015 88.3998 206.937 87.8932 206.86C86.9198 206.696 85.9465 206.524 84.9731 206.331C84.6798 206.272 84.3865 206.224 84.1065 206.157L83.7599 206.089C83.1732 205.965 82.5865 205.849 81.9865 205.715C81.2399 205.551 80.5065 205.377 79.7731 205.185L79.6798 205.156C79.3598 205.088 79.0265 205.012 78.7065 204.905C78.2931 204.819 77.8932 204.713 77.4932 204.597L77.3599 204.559C77.1865 204.51 77.0265 204.463 76.8665 204.415C76.4532 204.308 76.0532 204.203 75.6665 204.086L75.5865 204.059C74.6132 203.789 73.6798 203.5 72.7464 203.192C71.3998 202.768 70.0799 202.315 68.7599 201.824L68.4131 201.698C67.4131 201.333 66.3998 200.939 65.3998 200.525C64.6132 200.207 63.8399 199.88 63.0532 199.532C60.9999 198.657 58.9999 197.704 57.0265 196.693L56.9599 196.655C55.4665 195.884 53.9998 195.076 52.5464 194.239C50.4398 193.016 48.3865 191.735 46.3865 190.377C44.7465 189.26 43.1331 188.115 41.5731 186.912L41.4932 186.853C39.7999 185.563 38.1465 184.215 36.5599 182.828C36.3732 182.675 36.1732 182.501 35.9865 182.319C34.8799 181.365 33.7998 180.355 32.7332 179.333C32.0398 178.66 31.3465 177.985 30.6665 177.303C28.3065 174.896 26.0532 172.383 23.9332 169.764C22.9465 168.551 21.9998 167.328 21.0665 166.067L20.8532 165.768C20.6665 165.508 20.4664 165.257 20.2798 164.988C19.7731 164.285 19.2665 163.564 18.7731 162.852C3.13313 139.908 -3.34679 110.793 3.18655 81.5533C15.7199 25.5093 71.3064 -9.76668 127.346 2.75865C183.4 15.284 218.666 70.876 206.146 126.919Z" fill="#F7F2DA"/>
<path d="M166.56 187.797C163.787 189.848 160.92 191.753 157.96 193.525C154.707 195.471 151.347 197.232 147.893 198.803C147.32 199.081 146.747 199.331 146.173 199.581C145.6 199.841 145.013 200.083 144.44 200.312C143.52 200.708 142.587 201.064 141.653 201.42C141.453 201.497 141.267 201.575 141.067 201.641C140.813 201.748 140.547 201.844 140.28 201.931C140.08 202.017 139.867 202.093 139.653 202.172C139.227 202.325 138.813 202.471 138.387 202.604C137.64 202.315 136.907 202.028 136.187 201.728C131.773 199.917 127.987 198.088 125.187 196.201C124.853 195.972 124.493 195.788 124.12 195.643C121.08 194.46 116.813 195.421 114.667 193.169L122.947 162.186L123.013 161.945H123.027C123.92 162.061 124.813 162.225 125.733 162.427C125.907 162.467 126.067 162.515 126.253 162.552H126.267C138.213 165.567 153.427 177.168 166.56 187.797Z" fill="#FF7271"/>
<path d="M113.387 191.786C113.8 192.241 114.24 192.704 114.667 193.169L114.6 194.973C114.187 193.917 113.827 192.839 113.387 191.786Z" fill="#FF7271"/>
<path d="M144.44 200.312C143.52 200.708 142.587 201.064 141.653 201.42C141.453 201.497 141.267 201.575 141.067 201.641C140.813 201.748 140.547 201.844 140.28 201.931C140.08 202.017 139.867 202.093 139.653 202.172C139.227 202.325 138.813 202.471 138.387 202.604C137.64 202.315 136.907 202.028 136.187 201.728C131.773 199.917 127.987 198.088 125.187 196.201C124.853 195.972 124.493 195.788 124.12 195.643C120.8 191.098 119.587 185.996 119.32 180.393C126.867 197.492 137.12 198.445 140.547 199.263C140.68 199.293 140.84 199.331 140.987 199.369C142.107 199.648 143.267 199.967 144.44 200.312Z" fill="#F75E5E"/>
<path d="M141.653 201.42C141.453 201.497 141.267 201.575 141.067 201.641C140.813 201.748 140.547 201.844 140.28 201.931C140.08 202.017 139.867 202.093 139.653 202.172C139.227 202.325 138.813 202.471 138.387 202.604C136.04 203.414 133.68 204.136 131.293 204.771C127.907 205.667 124.493 206.398 121.013 206.947C120.547 207.024 120.067 207.091 119.6 207.168L119.347 207.196C118.973 207.255 118.6 207.304 118.2 207.361C111.987 208.179 105.64 208.439 99.2132 208.084C98.5865 208.064 97.9599 208.025 97.3066 207.968C95.2666 207.822 93.2266 207.61 91.1866 207.341C90.7066 207.284 90.2265 207.207 89.7465 207.139L89.6132 207.12L89.3999 207.083C88.8932 207.015 88.3999 206.937 87.8933 206.86C86.9199 206.696 85.9466 206.524 84.9732 206.331C84.6799 206.272 84.3866 206.224 84.1066 206.157L83.7599 206.089C83.1733 205.965 82.5866 205.849 81.9866 205.715C81.24 205.551 80.5066 205.377 79.7732 205.185L79.6799 205.156C79.3599 205.088 79.0266 205.012 78.7066 204.905C78.2932 204.819 77.8933 204.713 77.4933 204.597L77.3599 204.559C77.1866 204.51 77.0266 204.463 76.8666 204.415C76.4532 204.308 76.0532 204.203 75.6666 204.086L75.5866 204.059C74.6133 203.789 73.6799 203.5 72.7465 203.192C71.3999 202.768 70.0799 202.315 68.7599 201.824L68.4132 201.698C67.4132 201.333 66.3999 200.939 65.3999 200.525C64.6132 200.207 63.84 199.88 63.0533 199.532C61 198.657 58.9999 197.704 57.0266 196.693L56.9465 196.751L56.9599 196.655V196.616C56.8666 187.191 56.4799 180.181 55.6666 177.937C53.4799 171.796 57.5466 166.279 64.8399 162.148H64.8533C67.0666 160.907 69.5466 159.789 72.2399 158.827H72.2533C77.04 157.103 82.4799 155.861 88.1332 155.188C90.2532 154.937 92.3865 154.773 94.5465 154.686H94.5599C99.9066 154.484 105.28 154.831 110.267 155.843L110.453 155.871C114.36 156.68 118.027 157.863 121.293 159.5C122.987 160.339 124.44 161.32 125.733 162.427C125.933 162.583 126.107 162.736 126.28 162.917L126.293 162.928C135.453 171.237 135.48 185.813 140.613 198.388C140.733 198.724 140.867 199.041 140.987 199.369C141.24 200.073 141.467 200.756 141.653 201.42Z" fill="#FF7271"/>
<path d="M86.6799 165.648C84.6399 160.163 87.5066 153.333 92.3466 152.288L97.4666 123.384L114.16 130.999L109.973 154.657C111.787 161.395 111.08 165.672 111.147 171.7C111.307 187.251 89.2666 172.596 86.6799 165.648Z" fill="#FBA479"/>
<path d="M114.16 130.999L110.44 152.023C105.8 149.833 100.56 145.541 97.5733 142.06C96.5333 140.859 95.6266 139.563 94.84 138.197L97.4667 123.384L114.16 130.999Z" fill="#F48656"/>
<path d="M133.44 65.288C132.187 59.7613 127.813 49.9507 107.64 54.9773L113.587 69.1987C116.027 65.792 123.013 63.3907 125.627 68.3973C126.387 69.8307 126.667 71.556 126.227 73.1507C125.827 74.6027 124.373 75.7613 126.84 75.7253C131.947 75.6507 134.413 69.5733 133.44 65.288Z" fill="#700F28"/>
<path d="M100.573 129.056C100.28 130.32 99.7333 131.672 99.0267 132.977C97.8533 135.132 96.2133 137.144 94.4666 138.403C92.1466 140.083 89.2532 141.656 86.3466 142.193C85.8266 142.287 85.2933 142.348 84.7733 142.371C83.0933 142.445 81.4266 142.172 79.7733 141.769C78.5066 141.46 77.2399 141.075 76.0132 140.719C72.1866 139.616 69.4133 136.92 66.9733 134.005C60.4799 137.945 49.2 132.395 52.7867 123.493C54.28 119.784 51.7199 114.813 56.7066 109.001C58.2666 107.185 60.5466 105.287 63.9333 103.323C59.3733 100.5 61.8133 95.1693 64.5066 91.96C66.4933 89.592 70.3599 88.4066 73.2132 87.4573C75.2666 86.7693 77.1734 87.132 79.12 86.8973L88.6534 92.8133C88.5334 92.868 88.3733 92.6266 88.4267 92.8906C90.12 94.888 92.16 96.4346 93.5333 98.7066C96.2933 103.236 98.8934 106.737 99.92 112.089C100.533 115.291 100.413 118.392 100.427 121.62C100.427 124.037 101.133 126.687 100.573 129.056Z" fill="#9E1533"/>
<path d="M132.787 111.74L132.853 113.732L131.24 114.913L133.16 115.472L133.787 117.365L134.907 115.716L136.893 115.707L135.68 114.129L136.28 112.229L134.413 112.903L132.787 111.74Z" fill="#FFD731"/>
<path d="M99.0266 132.977C97.8532 135.132 96.2132 137.144 94.4665 138.403C91.7199 140.385 88.1999 142.22 84.7732 142.371C83.0932 142.445 81.4265 142.172 79.7732 141.769C78.7465 139.513 78.7999 136.699 77.7332 134.472C77.4665 133.912 77.1065 133.185 76.5732 132.829C75.5865 132.171 75.3865 132.728 74.5732 133.291C72.9199 134.415 70.9465 133.212 70.3732 131.397C69.7065 129.251 70.7332 125.072 73.6132 125.788C71.3732 123.089 70.8665 119.776 71.5465 116.316C71.9598 114.204 73.4532 111.789 72.9465 109.603C72.8132 109.035 72.1198 107.577 71.4132 107.485C70.8798 107.416 70.2665 108.1 70.3065 108.576C68.9465 107.972 68.3332 106.623 68.6665 105.063C69.0932 103.011 71.0665 102.004 72.9732 101.723C71.2799 100.628 69.5066 99.384 69.3599 97.1053C69.2666 95.5013 70.0132 91.236 71.9065 90.6973C73.3465 90.2866 72.6799 91.32 72.5065 92.088C72.2799 93.152 72.5732 94.4666 73.2266 95.3426C74.6666 97.264 80.5599 99.7986 82.5866 97.6773L83.1999 98.2226C82.5732 98.5493 83.4799 99.2573 83.7999 99.6013C85.2665 101.225 86.7199 103.068 87.8665 104.951C90.2665 108.853 91.3865 113.531 92.8798 117.808C93.6932 120.168 94.7599 122.408 95.9065 124.625C96.8399 126.457 98.2399 128.167 98.7599 130.195C98.9999 131.103 99.0532 132.037 99.0266 132.977Z" fill="#700F28"/>
<path d="M116.267 86.4534L116.24 86.3267C116.067 86.3054 116.16 86.3694 116.267 86.4534Z" fill="#9E1533"/>
<path d="M144.373 120.201C144.053 120.779 143.707 121.316 143.347 121.816C138.093 129.003 127.76 128.749 119.773 128.091C119.827 119.933 119.453 111.564 118.613 103.281C118.053 97.5987 117.267 91.96 116.267 86.4547L116.4 86.5814L121.773 71.4293C124.373 71.0947 129.333 73.292 131.24 75.604C134.24 79.2254 134.947 84.5667 132.933 88.812C139.2 90.3467 142.827 99.2307 139.52 104.805C141.96 104.967 143.987 108.951 144.707 110.973C145.733 113.872 145.867 117.455 144.373 120.201Z" fill="#871231"/>
<path d="M143.347 121.816C138.093 129.003 127.76 128.749 119.773 128.091C119.827 119.933 119.453 111.564 118.613 103.281L122.973 75.0453C126.133 75.1827 128.213 78.4894 128.88 81.2747C129.147 82.4067 129.16 83.5493 129.467 84.6627C129.84 86.076 130.907 86.3774 131.173 84.636C132.36 86.7614 130.48 89.8894 131.093 92.0014C131.8 94.5094 134.92 95.1173 137.08 95.3267C138.533 98.2573 134.627 100.559 133.653 102.775C133.053 104.145 134.293 105.761 135.44 106.744C136.667 107.805 138.333 107.62 139.867 107.751C140.133 109.244 139.013 109.347 138.387 110.367C137.48 111.868 138.253 115.271 138.68 116.917C139.213 118.975 140.68 121.016 142.747 121.669C142.947 121.731 143.147 121.779 143.347 121.816Z" fill="#700F28"/>
<path d="M88.8399 74.708C93.1999 70.3933 116.653 66.3013 124.68 77.3733C131.533 86.8173 130.853 99.3706 133.373 110.763C137.64 130.028 119.12 148.919 113.613 148.108C104.027 146.695 91.9332 137.652 88.1732 130.148C85.3866 124.559 86.9866 118.564 85.4399 112.409C82.3066 99.8653 79.2266 84.2573 88.8399 74.708Z" fill="#FBA479"/>
<path d="M94.4132 97.6586C102.933 94.76 108.24 109.076 108.24 109.076C102.6 111.216 96.8932 112.783 90.8132 111.627C89.5598 108.044 90.1465 99.1106 94.4132 97.6586Z" fill="#F48656"/>
<path d="M95.1334 101.656C100.08 98.704 108.213 108.905 108.213 108.905C105.667 111.14 98.5067 115.139 90.7733 111.389C90.5733 107.717 91.24 103.977 95.1334 101.656Z" fill="#F48656"/>
<path d="M90.8132 111.628C93.3332 112.107 95.7865 112.119 98.2132 111.813C99.9065 111.599 101.6 111.227 103.267 110.749C104.933 110.279 106.587 109.703 108.24 109.077C108.24 109.077 106.16 106.495 103.453 104.696C101.72 103.552 99.7466 102.723 97.8933 103.069C97.4666 103.147 97.0265 103.296 96.6132 103.519C92.6799 105.607 90.7065 108.467 90.8132 111.628Z" fill="white"/>
<path d="M94.7732 107.308C94.8798 109.079 95.6266 110.597 96.6932 111.475C99.6399 111.557 99.6399 111.557 101.76 110.412C102.333 109.444 102.653 108.189 102.573 106.835C102.507 105.925 102.293 105.084 101.933 104.359C100.213 103.213 98.6399 102.632 96.7866 102.977C95.7199 103.963 94.6532 105.417 94.7732 107.308Z" fill="#211B3A"/>
<path d="M96.4399 107.205C96.5599 109.268 97.9199 110.865 99.4666 110.772C101.013 110.68 102.16 108.931 102.04 106.867C101.907 104.804 100.56 103.207 99.0132 103.301C97.4665 103.395 96.3199 105.143 96.4399 107.205Z" fill="#2E2951"/>
<path d="M94.6 105.665L98.08 105.771C98.08 105.771 94.8666 107.493 94.0133 106.877C93.5866 106.567 94.6 105.665 94.6 105.665Z" fill="white"/>
<path d="M124.907 96C117.893 94.0173 119.187 107.969 119.187 107.969C123.813 109.28 128.267 110.043 131.867 108.199C131.28 104.675 128.333 96.9706 124.907 96Z" fill="#F48656"/>
<path d="M125 99.3627C120.507 97.2027 119.133 107.804 119.133 107.804C121.733 109.589 128.133 112.456 131.8 107.971C130.467 104.493 128.533 101.06 125 99.3627Z" fill="#F48656"/>
<path d="M119.187 107.969C120.8 108.421 122.387 108.811 123.92 109.047C124.693 109.172 125.467 109.249 126.213 109.28C126.907 109.308 127.56 109.296 128.213 109.232C128.627 109.191 129.04 109.128 129.44 109.043C130.28 108.869 131.093 108.593 131.867 108.196C131.32 106.809 130.6 105.485 129.627 104.315C128.613 103.084 127.32 102.021 125.693 101.248C125.547 101.172 125.4 101.107 125.24 101.041C120.827 99.1626 119.187 107.969 119.187 107.969Z" fill="white"/>
<path d="M121.707 106.637C121.827 107.413 122.067 108.115 122.4 108.708C123.187 108.833 123.947 108.911 124.707 108.941C125.387 108.971 126.053 108.959 126.693 108.893C127.12 108.853 127.52 108.789 127.92 108.704C128.4 107.66 128.573 106.317 128.347 104.947C128.293 104.608 128.213 104.285 128.12 103.976C127.227 101.839 125.813 101.683 124.173 100.909C122.36 101.399 121.253 103.952 121.707 106.637Z" fill="#211B3A"/>
<path d="M123.093 106.063L123.12 106.272C123.333 107.508 123.947 108.48 124.707 108.941C125.387 108.971 126.053 108.959 126.693 108.893C127.64 108.229 128.16 106.681 127.893 105.065C127.573 103.127 126.24 101.827 124.92 102.159C123.96 102.409 123.28 103.451 123.107 104.755C123.04 105.168 123.04 105.613 123.093 106.063Z" fill="#2E2951"/>
<path d="M121.213 103.019L124.68 103.299C124.68 103.299 122.267 105.299 121.52 104.88C121.147 104.672 121.213 103.019 121.213 103.019Z" fill="white"/>
<path d="M118.333 114.851C119.387 115.657 120.427 116.253 119.28 117.735C117.667 119.801 114.387 119.383 113.053 119.111C113.853 118.939 117.427 117.971 118.453 117.044C119.147 116.409 114.853 112.179 118.333 114.851Z" fill="#F48656"/>
<path d="M122.333 127.957L122.6 127.984C122.613 128.075 122.48 128.031 122.333 127.957Z" fill="#F28670"/>
<path d="M129.107 93.7134L129.387 94.144C128.227 92.64 122.293 91.7454 121.187 93.412C120.24 86.192 127.533 91.0347 129.107 93.7134Z" fill="#82112F"/>
<path d="M90.6932 92.5867L90.4666 93.112C91.4799 91.2147 98.6532 88.0253 100.507 89.1907C99.6665 81.8867 91.9066 89.4013 90.6932 92.5867Z" fill="#82112F"/>
<path d="M77.4534 109.256C79.6001 108.244 82.5334 109.732 84 111.097C86.1467 113.096 89.0134 120.543 86.8267 122.484C83.3467 125.593 76.44 119.431 75.48 115.064C75.0666 113.24 75.5067 110.172 77.4534 109.256Z" fill="#FBA479"/>
<path d="M76.3733 113.243C76.92 107.987 84.2933 110.151 84.6799 114.424C83.0666 113.609 82.0133 115.949 82.5733 117.223C83.2 118.639 85.24 118.788 85.96 117.392C85.9733 119.741 82.5733 119.441 81.4267 118.159C79.9867 116.559 80.8267 113.76 82.8933 113.172C81.3333 110.399 76.4934 111.181 76.5867 114.547L76.3733 113.243Z" fill="#F48656"/>
<path d="M84.3866 119.161L85.2132 120.98L87.1732 121.337L85.6932 122.677L85.9599 124.653L84.2399 123.664L82.4399 124.528L82.8399 122.576L81.4666 121.135L83.4533 120.917L84.3866 119.161Z" fill="#FFD731"/>
<path d="M98.5866 124.177L99.1333 122.707C99.4799 121.831 99.8532 120.951 100.213 120.075C97.6132 120.803 94.5066 124.651 94.4933 127.371C95 126.203 96.04 124.768 97.2266 124.165C99.64 127.837 107.427 129.339 111.907 129.489C115.893 129.625 122.36 128.571 125.48 124.736C116.427 130.853 100.067 125.699 98.5866 124.177Z" fill="#F48656"/>
<path d="M105.493 131.428C106.373 131.544 107.427 132.655 110.573 132.96C113.907 132.321 118.04 129.275 118.64 128.488C115.32 130.137 105.493 131.428 105.493 131.428Z" fill="#F48656"/>
<path d="M126.427 74.5774C125.947 75.5307 125.253 76.3027 124.307 76.764C122.467 77.6707 117.907 77.2587 116.613 75.676C116.507 79.636 107.667 79.776 106.853 75.9934C104.573 80.612 100.773 83.6707 95.4666 84.1214C94.7333 84.1881 89.1599 83.4614 87.4799 82.644L89.4933 86.676L89.6399 86.9C89.7199 87.02 89.7866 87.144 89.8666 87.2774L89.9466 87.4267L90.0666 87.6614C91.3333 90.452 90.56 94.1947 88.6666 97.0867C86.8666 99.8387 84.0533 101.824 81.0267 101.507C79.7867 101.379 78.7733 100.925 77.92 100.256C76.56 99.1947 75.6533 97.584 75.0399 95.852C73.9733 92.924 74.72 91.4507 75.9333 88.992C73.4266 90.72 64.7867 96.6094 63.2534 93.6587C57.88 83.284 60.9867 55.7814 81.0933 62.768C82.72 57.2134 89.5867 53.7254 97.2933 51.5561C104.987 49.3974 113.507 48.5414 118.507 48.2654C120.667 48.1494 122.173 48.1361 122.667 48.1734C125.96 48.4174 126.2 50.9507 125.933 54.2027C125.787 55.9761 125.493 57.968 125.48 59.9174C125.453 61.6734 125.653 63.3987 126.36 64.9094C127.493 67.2774 127.893 71.7267 126.427 74.5774Z" fill="#9E1533"/>
<path d="M126.427 74.58C125.947 75.5334 125.253 76.3027 124.307 76.7654C122.467 77.672 117.906 77.2614 116.613 75.6787C116.506 79.6387 107.667 79.7787 106.853 75.996C104.573 80.6134 100.773 83.6734 95.4665 84.124C94.7332 84.1894 89.1598 83.4627 87.4798 82.6454L89.4932 86.6774L89.6398 86.9014C89.7198 87.0227 89.7999 87.1454 89.8665 87.28L89.9465 87.4294L90.0665 87.664C91.3332 90.4547 90.5599 94.196 88.6665 97.088C86.8665 99.8414 84.0532 101.825 81.0266 101.508C79.7866 101.38 78.7733 100.927 77.9199 100.259C81.5999 97.1867 84.6133 91.3427 82.4533 88.1094C80.5199 85.1947 72.8266 83.1347 74.0533 78.596C75.4133 78.696 76.5998 79.448 77.9465 79.508C77.9865 77.8067 78.4398 73.0747 80.8398 74.2347C82.2532 74.924 85.7199 80.4494 85.7199 80.4494C89.1866 79.5707 93.3465 79.7147 95.3465 75.7587C96.3998 73.6987 96.1865 71.5267 95.3732 69.4374C94.7865 67.9627 93.3332 66.8894 92.9999 65.604C95.8665 65.4414 97.9865 67.1974 100.173 68.7507C100.693 63.3134 105.76 68.3814 107.467 70.2587C108.067 69.1494 107.747 67.452 108.067 66.1907C108.787 66.5387 109.72 68.0107 110.546 68.0467C111.76 68.1027 112.08 66.3187 111.653 65.1867C111.227 64.028 109.093 63.4387 109.267 61.9507C109.453 60.4334 111.027 60.6214 112.32 60.5867C119.347 60.408 122.867 66.7147 122.787 73.1187C123.76 73.316 125.227 73.8227 126.427 74.58Z" fill="#700F28"/>
<path d="M86.3466 142.193C85.8266 142.287 84.7067 140.809 84.1867 140.833C82.5067 140.908 81.4266 142.172 79.7733 141.769C78.5066 141.46 77.2399 141.075 76.0132 140.719C72.1866 139.616 69.4133 136.92 66.9733 134.005C60.4799 137.945 49.2 132.395 52.7867 123.493C54.28 119.784 51.7199 114.813 56.7066 109.001C55.3733 111.4 54.5466 114.085 55.5466 116.207C56.9599 115.857 57.8267 114.404 59.56 115.387C57.8533 116.553 57.2267 118.485 57.32 120.48C57.4267 122.687 58.5733 124.12 60.7066 124.851C62.4533 125.445 63.4267 124.976 64.4933 123.8C65.4 122.805 66.68 121.452 68.1867 121.741C68.4533 122.972 66.7466 123.884 66.3733 125.023C65.8133 126.725 66.8266 128.805 68.2 129.849C70.4 131.519 76.6267 131.031 77.3867 127.789L86.6666 134.565C86.44 135.309 86.8533 136.841 86.8533 137.821C86.8533 139.284 86.6266 140.751 86.3466 142.193Z" fill="#700F28"/>
<path d="M132.773 69.9987C132.187 70.0067 131.813 69.9493 131.613 69.836C130.947 69.468 131.853 68.528 132.16 67.4253C132.587 65.832 132.307 64.1067 131.56 62.6733C130.253 60.172 127.853 59.5187 125.48 59.9173C123.093 60.316 120.733 61.7707 119.52 63.4747L115.16 53.044L113.573 49.2507C115.333 48.8133 116.973 48.4893 118.507 48.2653C134.493 45.904 138.227 54.5186 139.373 59.5613C140.347 63.8493 137.88 69.924 132.773 69.9987Z" fill="#9E1533"/>
<path d="M132.773 69.9987C132.186 70.0067 131.813 69.9493 131.613 69.836C132.093 68.8907 132.933 67.828 133.306 67.076C134.653 64.408 133.72 61.936 132.413 59.204C127.52 49.0467 101.893 51.7373 97.2932 51.556C104.987 49.3973 113.506 48.5413 118.506 48.2653C134.493 45.904 138.226 54.5186 139.373 59.5613C140.346 63.8493 137.88 69.924 132.773 69.9987Z" fill="#700F28"/>
<path d="M93.1733 152.897C93.1733 152.897 76.0666 148.747 71.6133 160.195C78.5866 158.986 83.3734 169.127 88.0534 173.01C95.0001 178.78 102.573 179.556 111.387 179.451C108 175.447 95.1333 154.86 93.1733 152.897Z" fill="#F46060"/>
<path d="M111.213 153.091C111.213 153.091 124.08 151.491 126.333 162.944C116.867 157.817 120.72 177.82 114.8 179.203C111.667 179.934 108.613 179.133 107.693 179.428C114.04 175.416 108.6 154.028 111.213 153.091Z" fill="#F46060"/>
<path d="M77.1999 192.017C76.2799 193.289 74.7065 193.816 73.0131 194.228C71.9065 194.501 70.7332 194.722 69.6532 195.084C69.1332 195.253 68.6265 195.456 68.1599 195.707C67.7999 195.893 67.4798 196.127 67.1732 196.393C66.4932 196.992 65.7332 197.601 64.9199 198.208C64.3332 198.648 63.7199 199.093 63.0532 199.537C60.9999 198.655 58.9999 197.703 57.0265 196.692L56.9599 196.753V196.656C55.4665 195.888 53.9998 195.077 52.5465 194.24C50.4398 193.02 48.3866 191.731 46.3866 190.376C44.7466 189.258 43.1332 188.11 41.5599 186.912L41.4932 186.856C39.7999 185.561 38.1599 184.215 36.5599 182.833C36.3732 182.672 36.1732 182.501 35.9866 182.321C45.8266 172.771 56.1065 164.363 64.8398 162.152L64.8532 162.146L77.1999 192.017Z" fill="#FF7271"/>
<path d="M78.2933 190.481C77.9466 190.985 77.5733 191.5 77.2 192.019L77.5066 193.8C77.7866 192.695 78 191.581 78.2933 190.481Z" fill="#FF7271"/>
<path d="M76.8533 204.419C76.4533 204.309 76.0533 204.2 75.6666 204.083L75.5732 204.055C74.6266 203.791 73.6799 203.501 72.7465 203.195C71.4132 202.767 70.0799 202.31 68.7599 201.828C68.7199 201.643 68.68 201.457 68.6533 201.263C68.5733 201.414 68.5065 201.555 68.4132 201.704C67.4132 201.329 66.3999 200.937 65.3999 200.528C64.6266 200.204 63.84 199.88 63.0533 199.537C61 198.655 58.9999 197.703 57.0266 196.692C64.1466 190.872 69.4533 184.996 70.92 179.948C71.3066 184.652 65.9599 192.957 63.9333 198.786C64.2666 198.593 64.5866 198.402 64.92 198.208C66.5333 197.257 68.2133 196.212 69.6533 195.084C70.92 194.093 71.9999 193.032 72.6666 191.909L73.0799 191.067C72.9599 192.124 72.9332 193.184 73.0132 194.228C73.2665 197.836 74.6933 201.329 76.8533 204.419Z" fill="#F75E5E"/>
</svg>
