<svg width="209" height="209" viewBox="0 0 209 209" fill="none" xmlns="http://www.w3.org/2000/svg">
<path d="M192.573 159.776C187.013 168.585 180.333 176.258 172.867 182.757C172.04 183.471 171.213 184.173 170.36 184.857C168.173 186.646 165.92 188.341 163.6 189.931C160.613 191.98 157.533 193.877 154.347 195.601C153.947 195.822 153.533 196.044 153.093 196.256L152.96 196.322C150.747 197.488 148.493 198.577 146.187 199.568C144.613 200.261 143.013 200.897 141.413 201.493C141.08 201.639 140.733 201.753 140.4 201.879C138.547 202.572 136.68 203.188 134.787 203.756L134.48 203.853C131.28 204.805 128.04 205.604 124.76 206.258C121.04 206.991 117.28 207.521 113.507 207.839C112.88 207.907 112.253 207.944 111.627 207.983C111 208.04 110.373 208.069 109.747 208.088C108.747 208.156 107.747 208.176 106.747 208.195C106.533 208.204 106.333 208.213 106.12 208.204C105.84 208.224 105.56 208.224 105.293 208.213C105.067 208.224 104.84 208.233 104.613 208.233C104.173 208.233 103.72 208.224 103.28 208.213C100.8 208.185 98.3333 208.06 95.8666 207.859C92.3733 207.559 88.92 207.096 85.4533 206.443C84.9866 206.356 84.52 206.258 84.0533 206.183L83.8132 206.125C83.4265 206.048 83.0666 205.971 82.6666 205.884C78.3733 204.96 74.12 203.756 69.92 202.253C68.12 201.619 66.3332 200.925 64.5465 200.175L64.4933 200.145C63.92 199.924 63.3733 199.684 62.7999 199.422C62.6666 199.365 62.5332 199.307 62.4132 199.241C61.5865 198.875 60.7732 198.498 59.9466 198.124C59.1066 197.709 58.28 197.305 57.4533 196.872L57.2399 196.765C56.8132 196.555 56.3733 196.313 55.96 196.092L55.8266 196.025L55.6399 195.919C55.1999 195.688 54.7466 195.447 54.3066 195.207C54.0532 195.063 53.7866 194.917 53.5333 194.763C52.9333 194.427 52.3199 194.08 51.7333 193.724C51.4799 193.571 51.2132 193.425 50.9732 193.261L50.6799 193.088C50.3066 192.867 49.9467 192.645 49.5867 192.424C49.44 192.328 49.2799 192.232 49.1333 192.136C48.4799 191.731 47.8533 191.316 47.2266 190.893L47.1466 190.836C46.8532 190.663 46.5732 190.479 46.3066 190.267C45.9466 190.045 45.5999 189.815 45.2666 189.565L45.1466 189.486C45.0132 189.381 44.8666 189.285 44.7333 189.19C44.3866 188.948 44.0533 188.717 43.72 188.476L43.6533 188.419C42.84 187.841 42.0532 187.253 41.2799 186.646C40.7732 186.261 40.2666 185.877 39.7732 185.481C39.1732 185.001 38.5599 184.51 37.9732 184.02L37.6933 183.788C36.8666 183.104 36.0533 182.392 35.2666 181.66C34.6266 181.101 34 180.524 33.3867 179.936C31.7333 178.416 30.1733 176.847 28.6666 175.229L28.6266 175.171C27.4666 173.939 26.3599 172.688 25.2666 171.407C23.7066 169.548 22.1999 167.651 20.7732 165.696C19.6132 164.098 18.4666 162.472 17.3999 160.816L17.36 160.729C16.2 158.948 15.0933 157.129 14.0666 155.28C13.9333 155.079 13.8132 154.847 13.7066 154.616C12.9732 153.334 12.3067 152.027 11.6533 150.707C11.2133 149.831 10.7866 148.973 10.3732 148.097C8.95991 145.027 7.69325 141.907 6.57325 138.729C6.06658 137.256 5.57327 135.784 5.13327 134.281C5.09327 134.165 5.0533 134.051 5.02663 133.924C4.9333 133.617 4.83989 133.319 4.74655 133.001C4.50655 132.163 4.26666 131.316 4.05332 130.477C-2.94668 103.607 0.759913 74.0107 16.7732 48.6894C47.4399 0.137354 111.667 -14.344 160.213 16.3307C208.773 47.004 223.253 111.232 192.573 159.776Z" fill="#F7F2DA"/>
<path d="M81.7999 171.628C81.6932 177.422 77.5733 188.322 69.9199 202.253C68.1199 201.619 66.3332 200.925 64.5465 200.175L64.4933 200.145C63.9199 199.924 63.3732 199.684 62.7999 199.422C62.6666 199.365 62.5332 199.307 62.4132 199.241C61.5865 198.875 60.7732 198.498 59.9465 198.124C59.1065 197.709 58.2799 197.305 57.4533 196.872L57.2399 196.765C56.8132 196.555 56.3733 196.313 55.9599 196.092L55.8266 196.025L55.6399 195.919C55.1999 195.688 54.7465 195.447 54.3065 195.207C54.0532 195.063 53.7866 194.917 53.5332 194.763C52.9332 194.427 52.3199 194.08 51.7332 193.724C51.4799 193.571 51.2132 193.425 50.9732 193.261L50.6798 193.088C50.3065 192.867 49.9466 192.645 49.5866 192.424C48.7466 191.817 47.9199 191.21 47.1199 190.584C46.5999 190.181 46.0665 189.776 45.5465 189.372L45.6132 189.112C46.0132 187.36 46.3333 185.579 46.6266 183.758C47.1599 180.341 47.8799 177.086 48.9999 174.149C49.7999 172.014 50.7865 166.304 58.6132 164.772C60.9598 164.302 63.9332 164.224 67.7065 164.724L73.4933 167.555L81.7999 171.628Z" fill="#EBBF44"/>
<path d="M81.7999 171.628C81.6933 177.422 77.5733 188.322 69.92 202.253C68.12 201.619 66.3332 200.925 64.5465 200.175L64.4933 200.145C65.9066 197.305 67.2132 194.417 68.4132 191.489C71.0265 185.127 73.4932 177.857 73.6132 170.907C73.6399 170.029 73.6133 168.864 73.4933 167.555L81.7999 171.628Z" fill="#E0A91E"/>
<path d="M153.92 192.491C153.827 192.905 153.747 193.329 153.653 193.761C153.48 194.589 153.307 195.417 153.093 196.256L152.96 196.322C150.747 197.488 148.493 198.577 146.187 199.568C144.613 200.261 143.013 200.897 141.413 201.493C141.08 201.639 140.733 201.753 140.4 201.879C138.547 202.572 136.68 203.188 134.787 203.756L134.48 203.853C131.28 204.805 128.04 205.604 124.76 206.258C121.04 206.991 117.28 207.521 113.507 207.839C112.88 207.907 112.253 207.944 111.627 207.983C111 208.04 110.373 208.069 109.747 208.088C108.747 208.156 107.747 208.176 106.747 208.195C106.533 208.204 106.333 208.213 106.12 208.204C105.84 208.224 105.56 208.224 105.293 208.213C105.067 208.224 104.84 208.233 104.613 208.233C104.173 208.233 103.72 208.224 103.28 208.213C100.8 208.185 98.3332 208.06 95.8666 207.859C92.3732 207.559 88.9199 207.096 85.4533 206.443C84.9866 206.356 84.5199 206.258 84.0533 206.183L83.8132 206.125C83.4265 206.048 83.0666 205.971 82.6666 205.884C78.3732 204.96 74.1199 203.756 69.9199 202.253C68.1199 201.619 66.3332 200.925 64.5465 200.175L64.4933 200.145C63.9199 199.924 63.3732 199.684 62.7999 199.422C62.6666 199.365 62.5332 199.307 62.4132 199.241C61.5865 198.875 60.7732 198.498 59.9465 198.124C61.0132 186.58 60.3065 175.652 57.4132 165.852C57.3065 165.515 57.7332 165.148 58.6132 164.772C62.2798 163.175 73.7598 161.249 87.2798 159.698C89.1598 159.486 91.0799 159.275 93.0399 159.073C93.7199 159.005 94.3733 158.939 95.0533 158.88C102.027 158.188 109.227 157.629 115.96 157.253C116.387 157.244 116.827 157.215 117.24 157.186H117.253C120.067 157.051 122.773 156.955 125.347 156.897C126.267 156.868 127.173 156.849 128.053 156.849C131.84 156.802 135.24 156.868 138.067 157.061H138.08C141 157.272 143.333 157.609 144.813 158.129C144.987 158.188 145.16 158.255 145.32 158.321H145.347C155.947 162.422 157.08 176.421 153.92 192.491Z" fill="#EBBF44"/>
<path d="M127.693 160.465C125.96 153.996 118.827 156.081 114.973 153.897L97.3065 155.859C92.6132 158.083 87.5733 156.553 86.2533 161.967C84.6266 168.62 85.6133 193.635 88.9599 204.304C107.173 195.78 129.267 166.325 127.693 160.465Z" fill="#E0A91E"/>
<path d="M170.36 184.857C168.173 186.646 165.92 188.341 163.6 189.931C160.613 191.98 157.533 193.877 154.347 195.601C153.947 195.822 153.533 196.044 153.093 196.256L152.96 196.322C150.747 197.488 148.493 198.577 146.187 199.568C145.373 198.635 144.52 197.729 143.653 196.813C141.253 194.303 139.107 191.779 137.427 189.112C134.08 183.788 132.68 164.753 135.16 157.609L135.173 157.6C135.173 157.6 140.213 157.657 145.32 158.321H145.347C148.76 158.775 152.2 159.507 154.16 160.681C158.307 163.155 164.12 171.715 170.36 184.857Z" fill="#EBBF44"/>
<path d="M116.133 157.951L94.2665 163.717L91.6532 153.833L84.7866 127.796L81.9866 117.191L103.867 111.423L104.067 112.184L107.987 127.063L116.133 157.951Z" fill="#FFA992"/>
<path d="M108.987 132.075C108.6 145.798 97.5067 156.741 92.6534 158.844L85.7867 132.805L105.067 117.195L108.987 132.075Z" fill="#F28670"/>
<path d="M68.8666 135.576C64.9333 135.875 61.44 132.425 61.0933 127.889C60.76 123.352 63.68 119.417 67.6266 119.119L67.6933 120.009C64.24 120.271 61.68 123.776 61.9867 127.821C62.2933 131.867 65.3466 134.947 68.7999 134.687C72.2533 134.424 74.8133 130.919 74.5066 126.873C74.3199 124.42 72.5866 121.8 70.7333 120.564L71.4933 119.977C73.5733 121.364 75.1866 124.081 75.3999 126.805C75.7466 131.344 72.8133 135.279 68.8666 135.576Z" fill="#FFD731"/>
<path d="M68.8799 119.455C68.9199 120.025 68.4934 120.521 67.92 120.564C67.36 120.607 66.8533 120.18 66.8133 119.612C66.7733 119.041 67.2 118.547 67.7733 118.503C68.3333 118.46 68.8266 118.887 68.8799 119.455Z" fill="#FFD731"/>
<path d="M113.96 74.1347C109.16 69.732 84.0535 66.3827 75.9868 78.4947C69.1201 88.8213 70.3734 102.133 68.1734 114.347C64.4667 135.003 84.9468 154.288 90.7601 153.191C100.893 151.281 113.36 141.155 117.04 133.023C119.773 126.963 117.813 120.659 119.187 114.056C121.973 100.591 124.587 83.8707 113.96 74.1347Z" fill="#FFA992"/>
<path d="M108.227 98.7254C99.0534 96.0094 94.0133 111.448 94.0133 111.448C100.107 113.48 106.227 114.904 112.64 113.416C113.827 109.555 112.827 100.087 108.227 98.7254Z" fill="#F28670"/>
<path d="M107.627 103.004C102.24 100.079 94.04 111.264 94.04 111.264C96.84 113.531 104.627 117.473 112.667 113.161C112.733 109.251 111.867 105.305 107.627 103.004Z" fill="#F28670"/>
<path d="M112.64 113.416C109.987 114.033 107.373 114.151 104.8 113.928C102.973 113.773 101.173 113.451 99.3733 113.013C97.5733 112.584 95.8 112.043 94.0133 111.448C94.0133 111.448 96.1201 108.616 98.9201 106.589C100.707 105.3 102.773 104.333 104.76 104.623C105.227 104.688 105.68 104.827 106.133 105.044C110.4 107.1 112.627 110.052 112.64 113.416Z" fill="white"/>
<path d="M106.667 109.419C106.627 111.304 105.893 112.951 104.8 113.928C102.973 113.773 101.173 113.451 99.3733 113.013C98.7066 112.012 98.3333 110.692 98.36 109.248C98.3733 108.281 98.5733 107.373 98.92 106.589C100.707 105.3 102.773 104.333 104.76 104.623C105.933 105.624 106.707 107.403 106.667 109.419Z" fill="#291C51"/>
<path d="M104.88 109.381C104.84 111.58 103.467 113.333 101.827 113.3C100.173 113.267 98.88 111.457 98.9334 109.259C98.9734 107.061 100.347 105.307 101.987 105.341C103.627 105.375 104.933 107.184 104.88 109.381Z" fill="#574984"/>
<path d="M107.493 106.664L103.08 107.925C103.08 107.925 106.56 109.619 107.44 108.929C107.893 108.581 107.493 106.664 107.493 106.664Z" fill="white"/>
<path d="M76.7466 98.2614C84.1066 95.856 83.3334 110.736 83.3334 110.736C78.4667 112.325 73.7867 113.328 69.8667 111.521C70.3467 107.751 73.1466 99.4387 76.7466 98.2614Z" fill="#F28670"/>
<path d="M76.7999 101.84C81.4799 99.3534 83.3866 110.559 83.3866 110.559C80.6933 112.568 74.0266 115.885 69.9332 111.275C71.1999 107.525 73.1199 103.793 76.7999 101.84Z" fill="#F28670"/>
<path d="M83.3334 110.736C81.64 111.288 79.9734 111.768 78.3601 112.084C77.5334 112.249 76.7201 112.364 75.9201 112.429C75.2001 112.489 74.4934 112.504 73.8 112.463C73.36 112.437 72.9201 112.387 72.4934 112.316C71.5867 112.168 70.7067 111.909 69.8667 111.52C70.4 110.023 71.1066 108.584 72.08 107.3C73.1066 105.947 74.44 104.763 76.1334 103.869C76.2934 103.785 76.4533 103.709 76.6133 103.633C81.2133 101.447 83.3334 110.736 83.3334 110.736Z" fill="white"/>
<path d="M79.0133 109.853C78.9066 110.683 78.68 111.439 78.36 112.084C77.5334 112.249 76.7201 112.364 75.9201 112.429C75.2001 112.489 74.4933 112.504 73.8 112.463C73.36 112.437 72.92 112.387 72.4934 112.316C71.9467 111.224 71.6933 109.805 71.88 108.339C71.92 107.976 72 107.632 72.08 107.3C73.1066 105.947 74.44 104.763 76.1333 103.869C78.0933 104.313 79.3733 106.979 79.0133 109.853Z" fill="#291C51"/>
<path d="M77.5068 109.301L77.4935 109.525C77.3201 110.847 76.7068 111.908 75.9202 112.429C75.2002 112.489 74.4935 112.504 73.8001 112.463C72.7735 111.797 72.1468 110.176 72.3734 108.445C72.6268 106.372 73.9868 104.935 75.4001 105.232C76.4268 105.453 77.2001 106.532 77.4401 107.913C77.5334 108.351 77.5601 108.82 77.5068 109.301Z" fill="#574984"/>
<path d="M79.3733 105.985L75.7067 106.431C75.7067 106.431 78.36 108.455 79.1334 107.977C79.52 107.74 79.3733 105.985 79.3733 105.985Z" fill="white"/>
<path d="M84.3333 118.049C83.2399 118.952 82.1733 119.629 83.4533 121.153C85.2533 123.281 88.7199 122.696 90.1333 122.353C89.2799 122.201 85.4266 121.324 84.3066 120.387C83.5332 119.741 87.9199 115.061 84.3333 118.049Z" fill="#F28670"/>
<path d="M80.6533 132.147L80.36 132.191C80.3466 132.285 80.4933 132.233 80.6533 132.147Z" fill="#F28670"/>
<path d="M79.3999 129.644L79.2399 129.656C79.3332 129.847 85.6399 135.452 87.5332 138.195C88.8666 140.135 90.8932 142.42 93.6132 141.917C100.467 140.649 100.533 128.367 101.907 125.517C100.48 128.465 83.1866 129.72 79.3999 129.644Z" fill="#D85039"/>
<path d="M95.0267 135.988C94.44 135.743 93.32 135.984 92.7466 136.188C91.6266 136.587 90.48 137.217 89.64 138.071C89.3067 138.4 88.5334 139.557 88.6534 140.072C88.7734 140.585 89.76 141.017 90.1466 141.285C91.0666 141.931 92.12 141.988 93.2267 141.865C95.12 141.659 96.1734 140.783 97.0934 139.165C97.64 138.22 98.0134 137.192 98.6534 136.32L101.267 130.193C98.68 130.403 94.76 133.183 95.0267 135.988Z" fill="#EA6453"/>
<path d="M81.2399 128.756C81.8799 129.813 82.9198 130.785 83.8132 131.447C85.5732 132.755 87.6132 132.596 89.8132 132.357C91.8798 132.131 94.0132 131.517 95.7465 130.536C96.9732 129.847 97.1198 128.708 97.3465 127.537L81.2399 128.756Z" fill="white"/>
<path d="M99.8933 133.396C99.48 134.783 98.84 136.227 97.92 137.545L97.9066 137.564V137.575C97.4 138.287 96.84 138.951 96.1333 139.557C95.3867 140.221 94.5067 140.808 93.4934 141.291C92.04 141.983 90.5066 140.992 88.9466 139.047C88.6666 138.672 88.36 138.267 88.0534 137.833C87.8134 137.477 87.4934 137.073 87.12 136.64C86.9734 136.467 86.8267 136.284 86.6534 136.101C84.88 134.108 82.32 131.692 80.8267 130.285C81.3067 130.276 81.84 130.267 82.4267 130.256H82.44C83.3333 130.228 84.3467 130.18 85.4 130.123C86.1733 130.084 86.9734 130.027 87.7867 129.968L88.1466 129.929C88.6133 129.891 89.0666 129.853 89.5066 129.795C91.7733 129.544 93.7334 129.14 95.3867 128.716C96.0534 128.533 96.6533 128.361 97.2133 128.177H97.2267C98.92 127.639 100.133 127.119 100.827 126.791C100.787 127.023 100.84 128.409 100.573 130.296V130.305C100.44 131.239 100.24 132.288 99.9066 133.367L99.8933 133.396ZM103.213 123.613L103.2 123.633C102.76 124.259 100.12 125.8 96.2 127.041C95.28 127.34 94.28 127.609 93.2267 127.851H93.2H93.1733L93.1466 127.86H93.1333C92.6133 127.984 92.0533 128.091 91.4799 128.196C90.2799 128.417 88.9999 128.6 87.6799 128.688C87.5199 128.707 87.3333 128.716 87.1333 128.727C86.48 128.775 85.7867 128.812 85.0667 128.852C83.8133 128.909 82.52 128.967 81.4 129.005H81.3867C80.8934 129.015 80.4133 129.033 80 129.044H79.9867C78.92 129.083 78.2267 129.092 78.2267 129.092C78.2267 129.092 85.6 136.525 87 138.556C87.12 138.74 87.2799 138.971 87.4799 139.249L87.4934 139.259C87.6267 139.441 87.7867 139.644 87.96 139.856C89.08 141.175 90.8799 142.793 93.2133 142.609C93.3733 142.609 93.5467 142.571 93.7333 142.541C95.1067 142.349 96.2667 141.761 97.2667 140.924C102.8 136.245 103.24 123.565 103.24 123.565L103.213 123.613Z" fill="#FC5135"/>
<path d="M89.24 125.92C88.6267 126.448 87.8934 127.241 87.1201 127.535C86.3601 127.825 85.4801 127.395 84.7601 127.091C83.4934 126.561 83.4534 126.447 82.4267 127.339C81.7867 127.893 80.36 129.22 79.4 129.136L82.7201 129.796C82.8934 130.039 84.6667 129.647 85.1733 129.609C86.2667 129.528 87.36 129.443 88.4667 129.36C89.7334 129.263 90.9467 129.06 92.2 128.915C93.1067 128.812 101.733 127.204 103.227 123.565C101.04 123.733 96.2267 128.483 89.24 125.92Z" fill="#FC5135"/>
<path d="M71.9867 96.0467L71.7067 96.516C72.8667 94.8693 79.1467 93.664 80.3867 95.388C81.0934 87.676 73.5334 93.1333 71.9867 96.0467Z" fill="#2C363F"/>
<path d="M112.76 93.2133L113.027 93.7587C111.853 91.788 104.107 88.7013 102.187 90.0213C102.773 82.2227 111.333 89.8773 112.76 93.2133Z" fill="#2C363F"/>
<path d="M151.907 95.884C151.84 96.5306 151.627 97.3613 151.32 98.2773C150.373 101.024 148.547 104.513 147.293 105.885C151.707 109.528 143.533 116.205 140.733 121.073C132.427 135.471 117.627 121.277 117.907 118.984C118.56 113.728 119.12 108.189 119.653 102.791C120.627 93.192 113.64 80.88 101.453 80.4346C95.7734 80.2253 96.4533 80.2813 90.7733 80.4146C85.3866 80.544 79.9467 79.9706 75.8534 83.6493C75.1334 84.3013 74.0399 85.1146 73.8399 85.5813L70.2399 97.768L69.9867 98.6173C69.7334 98.1786 69.4667 97.7333 69.1867 97.28C66.6667 93.1946 63.1866 88.588 61.2133 84.0426C59.4933 80.096 58.9066 76.1893 61.0666 72.704C63.4266 68.896 69.2933 68.448 69.9066 66.2373C70.6266 63.6293 70.1599 56.4066 71.6799 54.2306C73.5599 51.5573 77.8267 53.696 81.3867 55.916C80.8934 47.0373 89.6133 45.5426 99.1466 49.9106C101.467 50.972 104.173 46.416 106.133 47.588C111.8 50.9693 115.907 46.2746 118.12 46.4306C121.267 46.6533 122.333 47.4106 124.973 48.852C127.053 49.992 133.493 50.4946 135.76 51.3173C139.893 52.8146 146.013 58.84 143.88 63.772C149.227 64.4773 151.453 71.3506 146.933 74.5186C148.853 75.2693 150.84 81.1133 150.96 83.12C151.12 85.792 147.333 86.3066 146.867 88.5373C146.373 90.936 152.187 93.104 151.907 95.884Z" fill="#2C363F"/>
<path d="M147.293 105.885C151.707 109.528 143.533 116.205 140.733 121.073C132.427 135.471 117.626 121.277 117.906 118.984C118.56 113.728 119.12 108.189 119.653 102.791C120.627 93.192 113.64 80.88 101.453 80.4346C95.7732 80.2253 96.4532 80.2813 90.7732 80.4146C85.3865 80.544 79.9466 79.9706 75.8532 83.6493C75.1332 84.3013 74.0398 85.1146 73.8398 85.5813L70.2398 97.768C70.2532 97.6013 69.8399 97.4666 69.1866 97.28C66.6666 93.1946 63.1865 88.588 61.2131 84.0426C61.7598 82.2586 62.6265 80.2266 63.8932 77.912C65.6932 80.052 69.7199 83.636 72.8932 81.7013C75.7332 79.972 72.8132 74.1866 73.7065 71.3453C74.7465 72.1666 78.2399 78.9693 80.1599 76.4466C81.1732 75.12 79.4532 70.6586 79.3199 69.1133C79.1599 67.3066 78.4398 64.3373 79.2798 62.688C82.1598 65.8746 82.8398 72.8786 87.3732 74.2746C95.8798 76.8786 91.9599 61.8666 93.1332 58.4533C95.7599 60.996 96.7865 74.0453 101.173 73.728C104.533 73.4853 104.44 66.0066 105.333 63.6C106.24 61.1653 108.893 56.472 111.68 56.1653C112.413 58.7453 109.306 61.628 108.973 64.392C108.68 66.6613 107.907 71.7933 109.4 73.8386C110.773 75.696 113.8 75.8853 115.64 74.8706C118.706 73.1933 119.373 68.9333 120.746 66.052C122.44 69.4373 121.84 73.3266 120.387 76.708C119.387 79.0186 116.813 82.712 119.84 84.2506C123.293 85.9986 128.08 83.1946 130.6 80.8546C132.64 78.9426 134.813 76.6773 135.867 74.0026C136.667 71.9613 136.493 69.8066 138 68.0973C139.573 71.7106 135.96 78.6426 133.773 81.3386C131.226 84.484 128.453 87.8666 124.813 89.676C127.786 94.5746 136.626 97.5533 141.613 93.376C140.6 94.636 138.547 96.1706 136.96 96.3666C138.2 99.476 143.627 98.9266 146.267 98.9866C147.813 99.0226 149.587 98.7853 151.32 98.2773C150.373 101.024 148.547 104.513 147.293 105.885Z" fill="#1D262D"/>
<path d="M127.533 110.361C125.213 109.377 122.16 111.084 120.653 112.596C118.467 114.812 115.747 122.848 118.133 124.819C121.973 127.973 129.04 121.133 129.893 116.449C130.24 114.493 129.64 111.252 127.533 110.361Z" fill="#FFA992"/>
<path d="M128.853 114.553C128.053 108.991 120.307 111.605 120.08 116.161C121.76 115.228 122.987 117.668 122.44 119.045C121.84 120.576 119.667 120.824 118.853 119.369C118.933 121.867 122.533 121.403 123.707 119.992C125.16 118.229 124.147 115.292 121.933 114.755C123.467 111.741 128.653 112.365 128.693 115.948L128.853 114.553Z" fill="#F28670"/>
<path d="M122.667 139.044C118.72 139.344 115.24 135.895 114.893 131.357C114.547 126.82 117.48 122.885 121.413 122.588L121.48 123.477C118.04 123.74 115.48 127.244 115.787 131.291C116.093 135.336 119.147 138.416 122.6 138.153C126.053 137.893 128.6 134.388 128.293 130.341C128.12 127.888 126.373 125.268 124.533 124.032L125.293 123.447C127.36 124.835 128.987 127.549 129.187 130.275C129.533 134.812 126.613 138.747 122.667 139.044Z" fill="#FFD731"/>
<path d="M122.667 122.924C122.707 123.492 122.28 123.989 121.72 124.032C121.147 124.076 120.653 123.648 120.613 123.081C120.56 122.511 121 122.015 121.56 121.972C122.133 121.927 122.627 122.356 122.667 122.924Z" fill="#FFD731"/>
<path d="M114.813 154.244C112.44 152.42 107.253 151.086 104.72 152.325L95.32 158.534C92.1333 161.94 91.1066 188.412 91.4933 195.737C97.6133 188.685 127.627 164.114 114.813 154.244Z" fill="#FFA992"/>
</svg>
