<svg width="209" height="209" viewBox="0 0 209 209" fill="none" xmlns="http://www.w3.org/2000/svg">
<path d="M188.653 165.553C185.173 170.309 181.373 174.681 177.293 178.657C174.387 181.508 171.347 184.145 168.187 186.591C167.947 186.784 167.68 186.976 167.44 187.159C166.947 187.534 166.453 187.91 165.947 188.265C165.573 188.545 165.187 188.815 164.8 189.084C164.44 189.344 164.067 189.595 163.707 189.855L163.68 189.873C161.987 191.039 160.28 192.145 158.547 193.195C158.28 193.36 158 193.532 157.72 193.696C157.4 193.889 157.067 194.08 156.733 194.255C156.067 194.649 155.4 195.025 154.733 195.4C154.04 195.776 153.347 196.143 152.64 196.508C152.28 196.7 151.933 196.873 151.56 197.056C151 197.345 150.427 197.635 149.853 197.904L149.813 197.932C149.253 198.201 148.68 198.472 148.107 198.732C147.68 198.924 147.267 199.117 146.813 199.298L146.667 199.356C145.44 199.907 144.2 200.425 142.933 200.916C142.107 201.253 141.267 201.572 140.427 201.869L140.12 201.985C139.987 202.033 139.84 202.091 139.693 202.14L139.413 202.236L139.08 202.352C138.84 202.437 138.6 202.533 138.347 202.612C137.853 202.775 137.347 202.948 136.853 203.103C136.627 203.18 136.413 203.247 136.187 203.313L135.853 203.429C135.547 203.517 135.253 203.614 134.947 203.698L134.8 203.748L134.613 203.796C134.333 203.892 134.053 203.968 133.76 204.056C133.573 204.114 133.387 204.171 133.2 204.229C133.067 204.267 132.933 204.307 132.8 204.345L132.467 204.431C132.133 204.527 131.813 204.615 131.467 204.7C131.187 204.777 130.907 204.855 130.627 204.932C129.773 205.143 128.92 205.356 128.067 205.548L128.04 205.557L127.72 205.633C127.533 205.673 127.347 205.712 127.173 205.76L126.96 205.798C126.56 205.895 126.16 205.972 125.747 206.059L125.48 206.107C125.293 206.155 125.08 206.184 124.88 206.232C124.667 206.28 124.467 206.308 124.267 206.348C123.813 206.433 123.36 206.51 122.907 206.597C122.773 206.617 122.64 206.645 122.493 206.675L122.187 206.722C121.573 206.828 120.947 206.934 120.333 207.04C120.093 207.08 119.853 207.108 119.587 207.136C119.04 207.233 118.48 207.309 117.92 207.377H117.867L117.573 207.416C116.72 207.523 115.867 207.619 115.013 207.704C113.48 207.859 111.96 207.975 110.413 208.061C110.08 208.081 109.733 208.098 109.387 208.109C108.813 208.139 108.227 208.157 107.627 208.167C107.267 208.186 106.893 208.195 106.533 208.205C105.893 208.224 105.28 208.224 104.64 208.215C104.013 208.235 103.387 208.224 102.76 208.195C101.76 208.195 100.773 208.146 99.76 208.098H99.7466C99.5466 208.098 99.3333 208.089 99.1466 208.071H99C98.76 208.061 98.5333 208.051 98.3066 208.023C98.08 208.023 97.8534 208.014 97.6267 207.993C97.36 207.984 97.0934 207.965 96.8267 207.936C96.6534 207.927 96.4667 207.897 96.2934 207.888C95.4 207.82 94.4933 207.743 93.6133 207.628C92.04 207.464 90.4801 207.261 88.9201 207.032C88.6401 206.983 88.3334 206.944 88.0534 206.886C87.6667 206.828 87.2533 206.761 86.88 206.684C86.0666 206.549 85.2667 206.405 84.4534 206.241C83.2801 206.02 82.0934 205.769 80.9201 205.491C80.1601 205.308 79.3867 205.125 78.6267 204.921C78.4 204.865 78.1466 204.797 77.9066 204.729C77.6933 204.681 77.4666 204.624 77.24 204.567L77.0133 204.498C76.64 204.393 76.28 204.297 75.8934 204.181L75.5867 204.093C75.1467 203.968 74.7333 203.844 74.3066 203.709H74.2934C72.7067 203.219 71.1333 202.698 69.5733 202.14C69.4133 202.081 69.2533 202.024 69.1066 201.976L68.76 201.852C66.9734 201.186 65.1866 200.473 63.4133 199.704L63.3867 199.695C63.1334 199.579 62.88 199.472 62.6267 199.356C62.2534 199.203 61.8933 199.029 61.5333 198.856C61.0667 198.644 60.6134 198.443 60.16 198.221L60.1333 198.212C59.8267 198.057 59.52 197.914 59.2267 197.768C59 197.672 58.7867 197.567 58.5867 197.461C58.4534 197.393 58.3333 197.336 58.2 197.268L58.1466 197.24L57.9201 197.124L57.7066 197.019L57.4667 196.903C57.1467 196.739 56.8266 196.575 56.5066 196.402C56.3733 196.334 56.2533 196.267 56.1333 196.191C55.8267 196.027 55.5199 195.872 55.2133 195.698C54.9333 195.555 54.6534 195.41 54.3867 195.255C54.1734 195.14 53.9599 195.025 53.7466 194.909C53.3066 194.649 52.8667 194.398 52.4267 194.148C52.0667 193.927 51.7066 193.715 51.3466 193.493L51.1333 193.379C50.72 193.137 50.3067 192.868 49.8934 192.619L49.7733 192.54L49.6 192.425C49.16 192.165 48.7334 191.896 48.3201 191.625C48.1067 191.491 47.9201 191.365 47.7201 191.221L47.56 191.125C47.3067 190.952 47.0401 190.789 46.7867 190.605L46.6133 190.489C46.3599 190.327 46.1066 190.153 45.84 189.969C45.6 189.797 45.3466 189.643 45.1066 189.459L45.0667 189.431L44.84 189.267C44.72 189.181 44.6 189.093 44.4667 189.008C44.24 188.852 44.0134 188.691 43.7867 188.525C43.6401 188.42 43.5067 188.313 43.36 188.208C43.2 188.103 43.0533 187.986 42.9066 187.88C42.6 187.659 42.2933 187.428 42 187.207L41.8267 187.063L41.6934 186.957L41.5466 186.841L41.4534 186.784L41.4267 186.753C41.1467 186.572 40.9067 186.379 40.6534 186.157C40.3467 185.936 40.04 185.695 39.7333 185.434L39.6667 185.386L39.56 185.3C39.4267 185.185 39.2933 185.08 39.1733 184.973C39.04 184.867 38.9067 184.771 38.7867 184.685C38.5867 184.51 38.3867 184.357 38.2 184.192L38.1333 184.136C37.3733 183.5 36.6134 182.865 35.8934 182.209C35.4 181.786 34.9334 181.372 34.4534 180.949C33.9067 180.42 33.32 179.889 32.7733 179.361L32.5066 179.109C31.72 178.377 30.96 177.608 30.2267 176.828C29.6267 176.232 29.04 175.605 28.4667 174.979C28.2933 174.805 28.1333 174.633 27.9733 174.451C27.52 173.968 27.08 173.486 26.6667 172.996C26.3867 172.707 26.1333 172.409 25.8667 172.11V172.091C25.3333 171.495 24.8133 170.868 24.3066 170.243L24.0667 169.972L24.0267 169.905C23.72 169.529 23.4133 169.155 23.1066 168.769C22.5466 168.046 21.9867 167.334 21.4667 166.614C21.28 166.381 21.1066 166.151 20.9466 165.929C19.5066 163.965 18.1333 161.972 16.84 159.931C16.1066 158.776 15.4001 157.62 14.7201 156.445C14.6134 156.244 14.4933 156.041 14.3733 155.849C14.1866 155.512 13.9867 155.175 13.8 154.828L13.76 154.743C12.7334 152.884 11.7466 150.996 10.84 149.081C10.7333 148.879 10.6267 148.639 10.5201 148.397C9.89339 147.068 9.30667 145.72 8.73334 144.364C8.36 143.459 7.99998 142.572 7.63998 141.667C6.43998 138.509 5.38662 135.312 4.47995 132.068C4.06662 130.567 3.68 129.064 3.33334 127.533C3.30667 127.417 3.28006 127.293 3.25339 127.168C3.18672 126.859 3.10665 126.551 3.03998 126.233C2.85331 125.376 2.68006 124.52 2.52006 123.663C-2.66661 96.3866 3.0267 67.1093 20.6934 42.9133C54.56 -3.47337 119.613 -13.6014 166 20.2586C212.373 54.1306 222.507 119.176 188.653 165.553Z" fill="#F7F2DA"/>
<path d="M84.6534 201.947C84.6134 203.344 84.5467 204.777 84.4534 206.241C83.2801 206.02 82.0934 205.769 80.9201 205.491C80.1601 205.308 79.3867 205.125 78.6267 204.921C78.4 204.865 78.1466 204.797 77.9066 204.729C77.6933 204.681 77.4666 204.624 77.24 204.567L77.0133 204.498C76.6399 204.393 76.28 204.297 75.8934 204.181L75.5867 204.093C75.1467 203.968 74.7333 203.844 74.3066 203.709H74.2934C72.7067 203.219 71.1333 202.698 69.5733 202.14C69.4133 202.081 69.2533 202.024 69.1066 201.976L68.76 201.852C66.9734 201.186 65.1866 200.473 63.4133 199.704L63.3867 199.695C63.5734 197.2 63.7733 194.707 63.9733 192.204C64.08 190.991 64.1734 189.768 64.2534 188.545C64.3601 187.198 64.4667 185.849 64.56 184.501L65.5066 184.328L66.7867 184.079L68.1733 183.817L69.0667 183.655L72.1201 183.077L72.2934 183.048L75.1333 182.509L79.9466 181.604L80.7466 181.46C80.8799 181.46 84.3467 180.534 84.4934 180.534C84.5867 180.977 84.8001 184.433 84.8534 189.643C84.8801 193.089 84.8401 197.316 84.6534 201.947Z" fill="#EF7950"/>
<path fill-rule="evenodd" clip-rule="evenodd" d="M87.3064 183.986C87.6664 184.796 87.7732 185.772 87.5199 186.751C86.9865 188.836 85.0664 190.144 83.2131 189.673C82.5064 189.491 81.9198 189.068 81.4932 188.504C81.4665 188.733 81.4264 188.963 81.3731 189.198C80.8398 191.283 78.9065 192.591 77.0665 192.117C75.9598 191.833 75.1331 190.971 74.7731 189.879C74.7731 190.22 74.7331 190.573 74.6398 190.92C74.1064 193.009 72.1731 194.315 70.3331 193.843C68.8265 193.456 67.8398 191.995 67.8398 190.333C67.0264 191.784 65.4531 192.593 63.9464 192.205C62.3731 191.803 61.3732 190.225 61.4532 188.471C60.7199 188.902 59.8665 189.057 59.0265 188.843C57.9598 188.569 57.1465 187.758 56.7598 186.72C56.4932 185.964 56.4265 185.091 56.6532 184.21C56.8932 183.291 57.3998 182.517 58.0665 181.986C56.3865 176.967 57.0531 169.945 58.5731 164.065C61.0131 154.545 65.7998 147.177 74.1998 149.332C74.9065 149.514 75.5998 149.815 76.2798 150.219C82.7064 154.041 87.6132 167.171 87.2932 176.261C87.5998 176.247 87.9198 176.268 88.2265 176.348C90.0665 176.819 91.1199 178.895 90.5865 180.977C90.1465 182.679 88.7864 183.861 87.3064 183.986Z" fill="#FFF5F5"/>
<mask id="mask0_2_1311" style="mask-type:luminance" maskUnits="userSpaceOnUse" x="56" y="177" width="35" height="12">
<path d="M59.7867 188.939C59.5334 188.939 59.28 188.907 59.0267 188.843C57.96 188.569 57.1467 187.758 56.76 186.72C57.2533 187.063 57.7733 187.276 58.3466 187.276C58.8933 187.276 59.4666 187.088 60.0799 186.645C60.2533 186.943 60.44 187.203 60.6667 187.427C60.48 187.953 60.3067 188.452 60.16 188.912C60.16 188.914 60.16 188.915 60.16 188.916C60.0267 188.931 59.9067 188.939 59.7867 188.939ZM90.16 177.953C90.0133 177.953 89.8667 177.951 89.72 177.947C89.8667 177.949 90.0133 177.952 90.16 177.953ZM88.96 177.933C88.72 177.931 88.4934 177.925 88.2534 177.917C88.4934 177.922 88.72 177.928 88.96 177.933ZM84.2 177.789C83.6133 177.765 83.04 177.741 82.4666 177.713C82.1733 177.698 81.88 177.683 81.6 177.665C82.44 177.712 83.3066 177.753 84.2 177.789ZM80.7867 177.62C80.76 177.619 80.7467 177.619 80.72 177.617C80.5867 177.609 80.4533 177.6 80.3066 177.592C80.4666 177.601 80.6267 177.61 80.7867 177.62ZM79.2666 177.525C78.2 177.453 77.1733 177.376 76.2133 177.291C76.1733 177.285 76.1333 177.281 76.0933 177.279C77.0933 177.368 78.16 177.451 79.2666 177.525ZM76 177.269C75.9333 177.263 75.8533 177.257 75.7733 177.249C75.8533 177.256 75.9333 177.263 76 177.269ZM75.7066 177.243H75.6799C75.5333 177.232 75.3866 177.215 75.24 177.204C75.24 177.203 75.24 177.2 75.24 177.198C75.4 177.213 75.5466 177.228 75.7066 177.243Z" fill="white"/>
</mask>
<g mask="url(#mask0_2_1311)">
<path d="M56.76 188.939H90.16V177.198H56.76V188.939Z" fill="#E5D2D2"/>
</g>
<path d="M148.373 166.017C146.747 169.329 142.013 171.817 135.573 173.637C133.293 174.289 130.8 174.851 128.147 175.343C110.04 178.672 84.8399 178.437 72.5999 176.908C68.5599 176.402 65.9199 175.753 65.4132 175.049C65.8799 173.925 66.3733 172.795 66.8666 171.664C66.9866 171.383 67.1199 171.098 67.2399 170.819C67.8399 169.505 68.4399 168.2 69.0666 166.929C69.1999 166.665 69.32 166.403 69.4533 166.141C69.5866 165.883 69.7066 165.622 69.8399 165.368C69.9732 165.112 70.1066 164.857 70.2399 164.605C71.3066 162.548 72.3865 160.628 73.4799 158.96C73.5865 158.785 73.7065 158.61 73.8132 158.441C74.1199 157.995 74.4132 157.573 74.7066 157.172L74.9066 156.897L75.12 156.631L75.32 156.371L75.52 156.117L75.72 155.869C75.8533 155.709 75.9866 155.555 76.1333 155.407L76.3333 155.184C76.4799 155.02 76.6266 154.869 76.7732 154.722L77.0933 154.414L77.32 154.207L77.52 154.039L77.5333 154.024L77.8399 153.784L78.1066 153.586C78.3599 153.409 79.0666 153.063 80.1732 152.598C86.8799 149.773 107.96 142.643 124.933 144.144C125.08 144.155 125.24 144.169 125.387 144.189C125.88 144.233 126.36 144.291 126.84 144.352C127.04 144.377 127.227 144.403 127.427 144.432C127.613 144.457 127.813 144.487 128 144.521C128.173 144.548 128.333 144.576 128.507 144.604L128.853 144.665L129.133 144.717C129.333 144.753 129.52 144.788 129.707 144.829L130 144.891C130.16 144.925 130.32 144.961 130.48 144.997C130.64 145.033 130.8 145.073 130.96 145.112C131.773 145.307 132.573 145.534 133.36 145.789C133.493 145.836 133.64 145.883 133.773 145.933C134.027 146.021 134.28 146.112 134.533 146.204C134.787 146.298 135.027 146.397 135.267 146.496L135.533 146.604L135.56 146.615C135.72 146.684 135.88 146.751 136.027 146.824C136.307 146.949 136.587 147.076 136.853 147.209C136.987 147.28 137.133 147.348 137.267 147.417C137.64 147.617 138.027 147.828 138.4 148.046C138.52 148.122 138.653 148.196 138.773 148.275C139.24 148.572 139.707 148.883 140.16 149.219C140.293 149.319 140.427 149.42 140.56 149.528C140.693 149.631 140.84 149.74 140.973 149.852C141.107 149.964 141.24 150.075 141.373 150.191L141.68 150.464L141.733 150.509C141.893 150.66 142.053 150.815 142.213 150.972L142.52 151.272C142.64 151.4 142.76 151.528 142.88 151.655C143 151.783 143.107 151.914 143.227 152.051C143.347 152.179 143.453 152.309 143.56 152.444L143.573 152.467C143.693 152.597 143.8 152.737 143.907 152.876C144 152.993 144.093 153.116 144.173 153.237C144.4 153.549 144.627 153.869 144.84 154.201C144.947 154.353 145.027 154.508 145.133 154.668C145.24 154.844 145.347 155.025 145.44 155.208C145.52 155.351 145.6 155.492 145.68 155.637C145.76 155.804 145.853 155.971 145.933 156.14C146.013 156.286 146.08 156.436 146.147 156.588L146.213 156.712C146.36 157.044 146.507 157.38 146.64 157.728C146.707 157.909 146.773 158.096 146.853 158.283C146.92 158.468 146.987 158.659 147.053 158.855C147.107 159.043 147.173 159.237 147.227 159.436C147.293 159.631 147.347 159.832 147.4 160.028C147.453 160.231 147.52 160.433 147.573 160.637L147.587 160.715C147.84 161.717 148.027 162.779 148.173 163.895C148.2 164.098 148.227 164.303 148.24 164.51C148.293 165 148.333 165.503 148.373 166.017Z" fill="#F9AE7A"/>
<path d="M119.827 143.023L118.973 149.01C118.507 148.265 112.88 146.939 112.2 146.308C110.533 144.725 113.52 140.039 111.107 140.411C110.933 140.44 110.76 140.477 110.613 140.525L100.76 145.705C100.293 146.203 99.7333 147.567 99.2133 149.614L98.3867 149.745L97.7601 145.748L97.04 141.237L96.8267 139.973L96.7601 139.525L96.48 137.773L96.3733 137.096L92.4667 112.6L90.7067 101.636L113.36 98.036L113.48 98.82L114.707 106.517L114.827 107.188L115.947 114.205L117.627 124.792L117.68 125.096L119.827 143.023Z" fill="#F9AE7A"/>
<path d="M147.44 178.176V178.185C147.333 178.783 147.213 179.398 147.08 180.015C146.987 180.476 146.88 180.939 146.773 181.412C146.6 182.132 146.44 182.855 146.293 183.548L146.28 183.636C146.173 184.107 146.08 184.569 145.973 185.032C145.613 186.697 145.253 188.265 144.907 189.691C144.453 191.51 144.04 193.089 143.667 194.371C143.267 195.747 142.893 196.757 142.6 197.305C141.747 198.865 140.92 200.425 140.12 201.985C139.987 202.033 139.84 202.091 139.693 202.14L139.413 202.236L139.08 202.352C138.84 202.437 138.6 202.533 138.347 202.612C137.853 202.775 137.347 202.948 136.853 203.103C136.627 203.18 136.413 203.247 136.187 203.313L135.853 203.429C135.547 203.517 135.253 203.614 134.947 203.698L134.8 203.748L134.613 203.796C134.333 203.892 134.053 203.968 133.76 204.056C133.573 204.114 133.387 204.171 133.2 204.229C133.067 204.267 132.933 204.307 132.8 204.345L132.467 204.431C132.133 204.527 131.813 204.615 131.467 204.7C131.187 204.777 130.907 204.855 130.627 204.932C129.773 205.143 128.92 205.356 128.067 205.548L128.04 205.557L127.72 205.633C127.533 205.673 127.347 205.712 127.173 205.76L126.96 205.798C126.56 205.895 126.16 205.972 125.747 206.059L125.48 206.107C125.293 206.155 125.08 206.184 124.88 206.232C124.667 206.28 124.467 206.308 124.267 206.348C123.813 206.433 123.36 206.51 122.907 206.597C122.773 206.617 122.64 206.645 122.493 206.675L122.187 206.722C121.573 206.828 120.947 206.934 120.333 207.04C120.093 207.08 119.853 207.108 119.587 207.136C119.04 207.233 118.48 207.309 117.92 207.377H117.867L117.573 207.416C116.72 207.523 115.867 207.619 115.013 207.704C113.48 207.859 111.96 207.975 110.413 208.061C110.08 208.081 109.733 208.098 109.387 208.109C108.813 208.139 108.227 208.157 107.627 208.167C107.267 208.186 106.893 208.195 106.533 208.205C105.893 208.224 105.28 208.224 104.64 208.215C104.013 208.235 103.387 208.224 102.76 208.195C101.76 208.195 100.773 208.146 99.7599 208.098H99.7465C99.5465 208.098 99.3332 208.089 99.1465 208.071H98.9999C98.7599 208.061 98.5332 208.051 98.3066 208.023C98.0799 208.023 97.8533 208.014 97.6266 207.993C97.3599 207.984 97.0933 207.965 96.8266 207.936C96.6533 207.927 96.4666 207.897 96.2933 207.888C95.3999 207.82 94.4932 207.743 93.6132 207.628C92.0399 207.464 90.48 207.261 88.92 207.032C88.64 206.983 88.3333 206.944 88.0533 206.886C87.6666 206.828 87.2532 206.761 86.8799 206.684C86.0665 206.549 85.2666 206.405 84.4533 206.241C83.28 206.02 82.0933 205.769 80.92 205.491C80.16 205.308 79.3866 205.125 78.6266 204.921C78.3999 204.865 78.1466 204.797 77.9066 204.729C77.6932 204.681 77.4666 204.624 77.2399 204.567L77.0132 204.498C76.6399 204.393 76.2799 204.297 75.8933 204.181L75.5866 204.093C75.1466 203.968 74.7332 203.844 74.3066 203.709H74.2933C72.7066 203.219 71.1332 202.698 69.5732 202.14C69.4132 202.081 69.2532 202.024 69.1066 201.976L68.7599 201.852C66.9733 201.186 65.1865 200.473 63.4132 199.704L63.3866 199.695C63.1333 199.579 62.8799 199.472 62.6266 199.356C62.2533 199.203 61.8932 199.029 61.5332 198.856C61.0666 198.644 60.6133 198.443 60.1599 198.221C59.4399 196.267 58.9733 194.495 58.92 192.983C58.9066 192.781 59.3599 191.26 60.1599 188.912C60.3066 188.449 60.4799 187.948 60.6666 187.419C61.5466 184.905 62.7066 181.748 64.0666 178.36C64.1199 178.204 64.1866 178.06 64.2399 177.907C64.6132 176.972 65.0132 176.009 65.4132 175.046C65.5332 175.22 65.7733 175.384 66.12 175.537L66.4399 175.663L66.6399 175.74C66.8266 175.807 67.0266 175.875 67.2399 175.932C67.5066 176.009 67.8132 176.086 68.1332 176.164C68.4799 176.241 68.8532 176.317 69.2399 176.395C69.6266 176.471 70.0399 176.539 70.4799 176.607L70.52 176.616C70.9333 176.684 71.3866 176.741 71.8533 176.808L71.9599 176.828H71.9732C72.3466 176.876 72.7466 176.924 73.1599 176.972C73.5199 177.02 73.9066 177.059 74.2933 177.107C74.5999 177.136 74.9199 177.165 75.2399 177.203C75.3732 177.213 75.5332 177.232 75.6799 177.243H75.72C75.88 177.261 76.0399 177.271 76.2132 177.291C77.6132 177.415 79.12 177.521 80.72 177.617C81.2933 177.645 81.8799 177.685 82.4666 177.713C83.4532 177.761 84.4666 177.802 85.5066 177.839C86.3066 177.868 87.1199 177.886 87.9465 177.907C88.3999 177.925 88.8533 177.934 89.32 177.934C89.6266 177.945 89.9199 177.955 90.2399 177.955C90.4399 177.955 90.64 177.964 90.8533 177.964C91.36 177.973 91.8799 177.973 92.3999 177.973C94.3732 177.993 96.4 177.983 98.4533 177.945C98.5866 177.945 98.7199 177.934 98.8666 177.934H99.0399C100.267 177.907 101.493 177.877 102.72 177.829C103.32 177.809 103.92 177.791 104.52 177.761H104.533C104.72 177.753 104.933 177.743 105.133 177.733C106.453 177.676 107.8 177.608 109.133 177.521L109.48 177.503C109.827 177.483 110.16 177.463 110.507 177.434C111.387 177.376 112.267 177.31 113.133 177.232H113.187C113.413 177.213 113.627 177.203 113.84 177.184C114.4 177.136 114.973 177.088 115.533 177.029L115.64 177.02C115.8 177.01 115.96 176.992 116.12 176.972C116.853 176.905 117.587 176.828 118.307 176.752C119.027 176.675 119.76 176.586 120.467 176.501C121.173 176.414 121.893 176.317 122.6 176.221C123.28 176.125 123.987 176.029 124.667 175.922C125.36 175.817 126.027 175.71 126.707 175.596C126.96 175.557 127.2 175.509 127.44 175.471C127.68 175.421 127.92 175.384 128.147 175.336L128.28 175.316L128.413 175.288L128.667 175.24H128.693L128.76 175.22L128.867 175.2H128.88H128.893C129.32 175.115 129.747 175.037 130.16 174.951C130.373 174.903 130.573 174.864 130.787 174.816C131.027 174.768 131.267 174.72 131.507 174.661C131.867 174.585 132.227 174.498 132.573 174.41C133.52 174.198 134.44 173.968 135.307 173.719L135.347 173.698L135.467 173.671H135.48L135.573 173.64H135.587C142.013 171.821 146.747 169.328 148.373 166.016C148.587 169.529 148.307 173.564 147.44 178.176Z" fill="#FFF5F5"/>
<path d="M146.293 183.548L146.28 183.636C146.173 184.107 146.08 184.569 145.973 185.032C145.613 186.697 145.253 188.265 144.907 189.691C144.453 191.51 144.04 193.089 143.667 194.371C143.267 195.747 142.893 196.757 142.6 197.305C141.747 198.865 140.92 200.425 140.12 201.985C139.987 202.033 139.84 202.091 139.693 202.14L139.413 202.236L139.08 202.352C138.84 202.437 138.6 202.533 138.347 202.612C137.853 202.775 137.347 202.948 136.853 203.103C136.627 203.18 136.413 203.247 136.187 203.313L135.853 203.429C135.547 203.517 135.253 203.614 134.947 203.698L134.8 203.748L134.613 203.796C134.333 203.892 134.053 203.968 133.76 204.056C133.573 204.114 133.387 204.171 133.2 204.229C133.067 204.267 132.933 204.307 132.8 204.345L132.467 204.431C132.133 204.527 131.813 204.615 131.467 204.7C131.187 204.777 130.907 204.855 130.627 204.932C129.773 205.143 128.92 205.356 128.067 205.548L128.04 205.557L127.72 205.633C127.533 205.673 127.347 205.712 127.173 205.76L126.96 205.798C126.56 205.895 126.16 205.972 125.747 206.059L125.48 206.107C125.293 206.155 125.08 206.184 124.88 206.232C124.667 206.28 124.467 206.308 124.267 206.348C123.813 206.433 123.36 206.51 122.907 206.597C122.773 206.617 122.64 206.645 122.493 206.675L122.187 206.722C121.573 206.828 120.947 206.934 120.333 207.04C120.093 207.08 119.853 207.108 119.587 207.136C119.04 207.233 118.48 207.309 117.92 207.377H117.867L117.573 207.416C116.72 207.523 115.867 207.619 115.013 207.704C113.48 207.859 111.96 207.975 110.413 208.061C110.08 208.081 109.733 208.098 109.387 208.109C108.813 208.139 108.227 208.157 107.627 208.167C107.267 208.186 106.893 208.195 106.533 208.205C105.893 208.224 105.28 208.224 104.64 208.215C104.013 208.235 103.387 208.224 102.76 208.195C101.76 208.195 100.773 208.146 99.7599 208.098H99.7465C99.5465 208.098 99.3332 208.089 99.1465 208.071H98.9999C98.7599 208.061 98.5332 208.051 98.3066 208.023C98.0799 208.023 97.8533 208.014 97.6266 207.993C97.3599 207.984 97.0933 207.965 96.8266 207.936C96.6533 207.927 96.4666 207.897 96.2933 207.888C95.3999 207.82 94.4932 207.743 93.6132 207.628C92.0399 207.464 90.48 207.261 88.92 207.032C88.64 206.983 88.3333 206.944 88.0533 206.886C87.6666 206.828 87.2532 206.761 86.8799 206.684C86.0665 206.549 85.2666 206.405 84.4533 206.241C83.28 206.02 82.0933 205.769 80.92 205.491C80.16 205.308 79.3866 205.125 78.6266 204.921C78.3999 204.865 78.1466 204.797 77.9066 204.729C77.6932 204.681 77.4666 204.624 77.2399 204.567L77.0132 204.498C76.6399 204.393 76.2799 204.297 75.8933 204.181L75.5866 204.093C75.1466 203.968 74.7332 203.844 74.3066 203.709H74.2933C72.7066 203.219 71.1332 202.698 69.5732 202.14C69.4132 202.081 69.2532 202.024 69.1066 201.976L68.7599 201.852C66.9733 201.186 65.1865 200.473 63.4132 199.704L63.3866 199.695C63.1333 199.579 62.8799 199.472 62.6266 199.356C62.2533 199.203 61.8932 199.029 61.5332 198.856C61.0666 198.644 60.6133 198.443 60.1599 198.221C59.4399 196.267 58.9733 194.495 58.92 192.983C58.9066 192.781 59.3599 191.26 60.1599 188.912C60.3066 188.449 60.4799 187.948 60.6666 187.419C61.5466 184.905 62.7066 181.748 64.0666 178.36C64.1199 178.204 64.1866 178.06 64.2399 177.907C64.6132 176.972 65.0132 176.009 65.4132 175.046C65.5332 175.22 65.7733 175.384 66.12 175.537C66.8133 177.849 67.6133 180.121 68.52 182.334C68.6933 182.779 68.8799 183.221 69.0666 183.655C69.6932 185.069 70.3466 186.456 71.0399 187.803C71.1466 188.016 71.2532 188.228 71.3732 188.439C71.4532 188.584 71.5199 188.719 71.5999 188.852C72.3466 190.201 73.1199 191.337 73.9465 192.386C75.3065 194.091 76.8532 195.555 78.7465 197.277C80.4399 198.828 82.7066 200.329 84.6533 201.947C85.7333 202.822 86.7066 203.748 87.4399 204.74C96.1332 199.588 105.24 195.813 113.533 189.931C118.227 186.6 124.52 181.256 128.147 175.345L128.28 175.316L128.413 175.288L128.667 175.24H128.693L128.76 175.22L128.867 175.2H128.88H128.893C129.28 175.115 129.707 175.028 130.147 174.921C130.36 174.873 130.573 174.834 130.787 174.786C132.4 174.431 134.133 174.017 135.307 173.708L135.347 173.698L135.467 173.671H135.48L135.573 173.64H135.587L135.84 173.997C138.667 177.907 141.827 181.198 146.293 183.548Z" fill="#C92727"/>
<path d="M97.2933 91.08L83.9333 97.42C91.6666 109.72 85.2399 126.452 80.2399 138.704C76.7599 147.245 72.5065 154.628 69.9465 164.221L73.9999 165.855C78.4399 153.3 87.7199 143.179 92.6666 137.021C97.6399 130.847 100.84 123.019 101.72 115.099C102.493 108.191 101.587 96.7933 97.2933 91.08Z" fill="#4C1B05"/>
<path d="M75.3066 177.685C75.7599 181.367 74.6932 185.416 73.2132 188.7C73.0399 186.665 72.8933 184.596 72.1733 182.685C71.6799 187.116 69.9733 190.956 68.0399 194.822C67.9466 192.034 64.6933 182.056 64.2267 179.445C64.04 178.385 63.9466 177.391 63.9333 176.449C63.7466 168.271 69.4667 164.492 72.2267 162.025L74.1867 162.239L75.9466 162.427C73.0132 166.763 74.7199 172.92 75.3066 177.685Z" fill="#592009"/>
<path d="M67.6534 187.288C67.1734 183.392 64.4933 180.307 63.9333 176.449C63.92 176.321 63.92 176.195 63.92 176.069C63.9334 168.153 69.5067 164.453 72.2267 162.025L74.1867 162.239C73.9467 163.075 73.7334 163.914 73.52 164.624C73 166.339 72.56 168.095 72.5066 169.872C72.4 172.793 73.7066 176.721 72.9066 179.396C72.7066 177.796 71.4134 175.845 70.4934 174.472C70.64 176.875 70.2934 179.016 70.0267 181.334C69.8134 180.493 69.4399 179.708 68.8799 179.014C69.0533 181.813 67.6534 184.541 67.6534 187.288Z" fill="#702B0D"/>
<path d="M82.28 137.152C82.28 137.152 69.5067 149.549 72.1334 165.331C74.8001 164.82 94.96 157.751 82.28 137.152Z" fill="#3F1307"/>
<path d="M84.2266 134.369C84.2266 134.369 71.4666 146.767 74.0933 162.549C76.7466 162.039 96.92 154.971 84.2266 134.369Z" fill="#592009"/>
<path d="M61.9866 161.017C62.44 161.207 62.9333 161.405 63.3866 161.559C63.1333 161.679 62.5866 161.471 62.2666 161.601C61.9733 161.727 61.24 164.798 61.56 165.821C61.7066 166.302 61.7066 166.312 62.0933 166.402C62.9733 166.603 69.08 165.597 70.6266 166.748L71.2533 163.645C71.2266 163.495 71.0666 163.176 70.7999 162.756C69.8399 161.243 67.3866 158.439 63.6399 157.816C63.5066 157.793 63.3732 157.772 63.2399 157.753C62.5599 158.792 62.3066 159.847 61.9866 161.017Z" fill="#664472"/>
<path d="M61.9866 161.017C62.44 161.207 62.9333 161.405 63.3866 161.559C63.1333 161.679 62.5866 161.471 62.2666 161.601C61.9733 161.727 61.24 164.798 61.56 165.821C61.7066 166.302 61.7066 166.312 62.0933 166.402C62.9733 166.603 69.08 165.597 70.6266 166.748L71.2533 163.645C71.2266 163.495 71.0666 163.176 70.7999 162.756C69.6933 161.798 68.2799 161.098 66.9999 160.637C67.8266 161.319 68.5599 162.328 69.2132 163.181C68.7065 163.084 68.2533 162.991 67.76 162.915C68 163.146 68.3066 163.271 68.5732 163.491C68.8399 163.724 69.0133 164.017 69.2666 164.255C68.9066 164.548 68.4 164.596 67.96 164.7C67.32 164.845 66.6665 165.04 66.0132 165.129C65.0265 165.264 63.8933 165.231 62.9999 164.749C62.6933 164.584 62.3465 164.248 62.2132 163.919C62.0665 163.595 61.9733 162.52 62.32 162.243C62.5333 162.057 63.5065 162.14 63.8132 162.135C64.3465 162.116 64.8932 162.229 65.4132 162.227C64.7465 161.421 63.5599 161.195 63.2666 160.184C63.0266 159.373 63.2532 158.557 63.6399 157.816C63.5066 157.793 63.3732 157.772 63.2399 157.753C62.5599 158.792 62.3066 159.847 61.9866 161.017Z" fill="#473051"/>
<path d="M72.7732 167.385C71.2132 168.379 69.3066 168.614 68.6132 166.498C68.2666 165.465 68.2266 163.934 68.6132 162.667C68.8932 161.784 69.3866 161.031 70.1466 160.653C71.2532 160.101 73.6 160.009 75.16 160.489C76 160.747 76.6267 161.163 76.72 161.764C76.9867 163.46 73.7599 166.76 72.7732 167.385Z" fill="#664472"/>
<path d="M72.7732 167.385C71.2132 168.379 69.3066 168.614 68.6132 166.498C68.2666 165.465 68.2266 163.934 68.6132 162.667C68.7066 163.819 69.1066 164.915 69.9333 165.71C70.4799 164.598 70.88 163.21 71.9867 162.461C71.5067 163.579 71.4 164.504 71.4266 165.7C72.7466 164.961 73.7466 164.219 74.56 162.876C74.96 162.22 75.2133 161.495 75.1867 160.72L75.16 160.489C76 160.747 76.6267 161.163 76.72 161.764C76.9867 163.46 73.7599 166.76 72.7732 167.385Z" fill="#473051"/>
<path d="M84.76 167.902C84.2266 167.71 83.6666 167.508 83.16 167.291C83.2933 167.586 83.9065 167.824 84.0799 168.176C84.2265 168.509 82.5066 171.648 81.4533 172.272C80.96 172.563 80.96 172.577 80.56 172.353C79.68 171.861 75.2799 166.367 73.1066 166.167L74.9333 163.068C75.0799 162.971 75.4533 162.819 75.9999 162.668C77.9733 162.125 82.1733 161.622 85.7999 163.94C85.9333 164.024 86.0666 164.109 86.1866 164.2C85.9733 165.589 85.3733 166.667 84.76 167.902Z" fill="#664472"/>
<path d="M84.76 167.902C84.2266 167.71 83.6666 167.508 83.16 167.291C83.2933 167.586 83.9065 167.824 84.0799 168.176C84.2265 168.509 82.5066 171.648 81.4533 172.272C80.96 172.563 80.96 172.577 80.56 172.353C79.68 171.861 75.2799 166.367 73.1066 166.167L74.9333 163.068C75.0799 162.971 75.4533 162.819 75.9999 162.668C77.6666 162.703 79.3866 163.185 80.8266 163.771C79.6 163.712 78.2133 164.003 77.0266 164.236C77.52 164.529 77.9733 164.803 78.4533 165.112C78.0666 165.125 77.7066 164.991 77.32 164.979C76.92 164.972 76.5466 165.086 76.16 165.1C76.2266 165.616 76.6266 166.04 76.92 166.465C77.3466 167.072 77.7466 167.737 78.2399 168.305C78.9599 169.172 79.9333 169.997 81.0533 170.272C81.44 170.368 81.9866 170.344 82.36 170.175C82.72 170.01 83.6132 169.169 83.5465 168.681C83.5065 168.357 82.6133 167.691 82.36 167.449C81.92 167.027 81.3865 166.712 80.9465 166.319C82.1199 166.143 83.2933 166.851 84.32 166.224C85.1333 165.724 85.5599 164.863 85.7999 163.94C85.9333 164.024 86.0666 164.109 86.1866 164.2C85.9733 165.589 85.3733 166.667 84.76 167.902Z" fill="#473051"/>
<path d="M89.1067 123.424C89.1067 123.424 74.4934 137.616 77.4934 155.68C80.5468 155.096 103.627 147.004 89.1067 123.424Z" fill="#3F1307"/>
<path d="M91.3333 120.241C91.3333 120.241 76.7199 134.432 79.7333 152.496C82.7733 151.914 105.853 143.82 91.3333 120.241Z" fill="#592009"/>
<path d="M92.1066 110.936C92.1066 110.936 78.72 127.952 84.44 146.562C87.56 145.517 110.733 133.731 92.1066 110.936Z" fill="#3F1307"/>
<path d="M94 107.265C94 107.265 80.6132 124.283 86.3466 142.892C89.4666 141.847 112.64 130.06 94 107.265Z" fill="#592009"/>
<path d="M86.6533 96.42C86.6533 96.42 80.3865 118.887 93.7999 135.037C96.4799 132.705 114.64 111.399 86.6533 96.42Z" fill="#3F1307"/>
<path d="M87.0267 91.98C87.0267 91.98 80.76 114.448 94.1733 130.597C96.8533 128.265 115.013 106.96 87.0267 91.98Z" fill="#592009"/>
<path d="M80.7466 83.2813C80.7466 83.2813 80.6666 106.604 97.8799 118.629C99.8399 115.671 111.707 90.316 80.7466 83.2813Z" fill="#3F1307"/>
<path d="M79.9332 78.9013C79.9332 78.9013 79.8532 102.224 97.0666 114.249C99.0266 111.291 110.893 85.936 79.9332 78.9013Z" fill="#592009"/>
<path d="M116.747 120.267C114.147 130.152 104.627 141.079 97.0399 141.237L96.8266 139.973L96.76 139.525L96.4799 137.773L96.5333 137.743L91.5732 116.223L114.827 107.188L115.947 114.205L116.747 120.267Z" fill="#EF7950"/>
<path d="M122.867 56.8267C118.253 52.1053 93.0267 47.304 84.1867 59.0907C76.64 69.1427 77.1733 82.6693 74.2533 94.8933C69.3333 115.563 88.9733 136.215 94.9333 135.433C105.293 134.077 118.48 124.543 122.653 116.528C125.76 110.559 124.133 104.076 125.893 97.4773C129.493 84.0253 133.08 67.2707 122.867 56.8267Z" fill="#F9AE7A"/>
<path d="M82.7733 111.104L82.48 111.1C82.4533 111.193 82.6 111.163 82.7733 111.104Z" fill="#EF7950"/>
<path d="M90.4 99.548C89.24 100.399 88.12 101.023 89.3333 102.636C91.0266 104.888 94.5867 104.493 96.0267 104.225C95.16 104.025 91.3199 102.919 90.2399 101.908C89.4933 101.211 94.2 96.7293 90.4 99.548Z" fill="#EF7950"/>
<path d="M82.2667 108.393L82.0667 108.368C82.1333 108.612 88.0533 116.64 89.5733 120.272C90.64 122.844 92.4267 125.984 95.6933 126.073C103.947 126.291 107.04 112.107 109.333 109.152C106.96 112.208 86.6267 109.409 82.2667 108.393Z" fill="#60281F"/>
<path d="M98.7999 119.565C98.1732 119.137 96.8266 119.141 96.1066 119.236C94.7199 119.423 93.2266 119.869 92.0399 120.648C91.5866 120.948 90.3999 122.095 90.4132 122.72C90.4265 123.345 91.4532 124.084 91.8399 124.488C92.7466 125.461 93.9465 125.787 95.2799 125.919C97.5065 126.141 98.9332 125.388 100.4 123.747C101.267 122.787 103.013 122.129 103.96 121.277L107.44 114.397C104.4 114.005 99.1732 116.255 98.7999 119.565Z" fill="#EA6453"/>
<path d="M84.5999 107.817C85.0932 109.199 86.0532 110.576 86.9199 111.56C87.9866 112.764 89.3199 113.345 90.7866 113.675C91.6932 113.877 92.6532 113.985 93.6532 114.085C96.0932 114.331 98.7198 114.147 100.973 113.441C102.56 112.944 103 111.661 103.56 110.365L84.5999 107.817Z" fill="white"/>
<path d="M94.5067 125.319C94.2934 125.271 94.1068 125.203 93.9201 125.117C94.0135 125.328 94.1068 125.54 94.1868 125.752C94.3201 125.781 94.44 125.801 94.5734 125.829L94.5067 125.319ZM101.747 122.093C101.587 122.248 101.413 122.401 101.24 122.545L101.133 122.633C100.733 122.951 100.333 123.259 99.8934 123.537H99.88C99.6667 123.683 99.4267 123.816 99.2001 123.952L99.1467 123.98L98.9334 124.096C98.6801 124.231 98.4134 124.365 98.1334 124.491C97.3867 124.837 96.5867 125.107 95.7067 125.309C95.2934 125.416 94.88 125.416 94.5067 125.319C94.2934 125.271 94.1068 125.203 93.9201 125.117L93.5868 124.915C92.6401 124.317 91.8 123.152 91.0133 121.612V121.603C90.8933 121.391 90.7867 121.16 90.68 120.928C90.5467 120.631 90.4133 120.312 90.28 119.985C89.9067 119.099 89.2934 117.983 88.5734 116.789L88.5067 116.664C88.1334 116.047 87.7334 115.421 87.3334 114.787C87.0001 114.276 86.6667 113.765 86.3334 113.255C85.9734 112.707 85.6001 112.167 85.2667 111.667C84.6934 110.848 84.1734 110.097 83.7601 109.48C84.2001 109.577 84.6801 109.664 85.2001 109.76C85.3334 109.789 85.48 109.808 85.6133 109.837H85.6268L85.84 109.876C86.3734 109.972 86.9335 110.079 87.5201 110.164C88.1868 110.28 88.8933 110.396 89.6133 110.501C90.28 110.597 90.9601 110.695 91.6535 110.791L91.8934 110.819L92.1868 110.859L92.3201 110.877C92.5601 110.907 92.8 110.935 93.04 110.964C94.4267 111.119 95.7201 111.213 96.9334 111.261C97.4801 111.281 98.0267 111.292 98.5334 111.292C98.9067 111.301 99.28 111.301 99.64 111.292C100.053 111.272 100.453 111.261 100.84 111.244H100.987L101.147 111.233C101.427 111.224 101.707 111.204 101.96 111.185C102.107 111.176 102.253 111.167 102.4 111.156C102.693 111.128 102.973 111.108 103.253 111.08C104.133 110.992 104.92 110.877 105.6 110.771H105.613C106.533 110.627 107.267 110.472 107.773 110.357C107.72 110.492 107.613 111.003 107.427 111.772C107.24 112.456 106.973 113.352 106.613 114.353C106.24 115.403 105.733 116.557 105.107 117.723L105.093 117.732C104.267 119.244 103.173 120.764 101.773 122.075L101.747 122.093ZM111.307 107.256C110.76 107.855 107.28 109.028 102.347 109.511L102.2 109.52L101.96 109.539C101.707 109.568 101.467 109.587 101.213 109.607C100.987 109.625 100.76 109.636 100.52 109.644C100.293 109.664 100.067 109.673 99.8268 109.684C99.6001 109.693 99.3868 109.703 99.1601 109.703H99.1467C99 109.712 98.8534 109.712 98.6934 109.712C97.7734 109.721 96.8267 109.712 95.84 109.655H95.8268C94.7601 109.616 93.6667 109.52 92.5334 109.375C92.3867 109.365 92.24 109.347 92.08 109.327L91.9334 109.307C91.7867 109.289 91.6268 109.259 91.4535 109.231L91.3201 109.211C90.4135 109.085 89.4 108.932 88.4133 108.768C88.0933 108.72 87.76 108.663 87.44 108.605C86.8534 108.509 86.2667 108.403 85.7067 108.305C85.5334 108.277 85.3601 108.249 85.2001 108.22C85.0401 108.192 84.8801 108.161 84.7334 108.133C84.1334 108.036 83.5867 107.94 83.1067 107.844H83.0934C81.8534 107.623 81.04 107.469 81.04 107.469C81.04 107.469 83.3601 111.071 85.4934 114.575V114.584L85.5067 114.593C86.04 115.46 86.5601 116.316 87.0268 117.116V117.125C87.1601 117.348 87.2801 117.559 87.4001 117.76L87.4133 117.78V117.791C87.5067 117.953 87.6 118.117 87.68 118.271L87.84 118.571C88.32 119.408 88.6801 120.1 88.8667 120.563C89.0267 120.939 89.2534 121.507 89.6001 122.161C90.4134 123.721 91.7867 125.733 93.9467 126.513C94.1467 126.581 94.3468 126.639 94.5601 126.687L94.7201 126.724L95.0535 126.783C95.2668 126.811 95.4667 126.811 95.68 126.82C96.2667 126.868 96.8533 126.84 97.4133 126.744C97.5733 126.724 97.7334 126.695 97.8934 126.657C98.2268 126.589 98.5468 126.503 98.8535 126.388C98.9868 126.349 99.1067 126.301 99.24 126.252C99.4934 126.147 99.76 126.031 100.013 125.897H100.027L100.173 125.819C100.493 125.645 100.8 125.464 101.12 125.251C105.72 122.123 108.72 115.171 110.227 110.877C110.507 110.039 110.747 109.289 110.92 108.701C111.173 107.873 111.307 107.335 111.333 107.239L111.307 107.256ZM94.5067 125.319C94.2934 125.271 94.1068 125.203 93.9201 125.117C94.0135 125.328 94.1068 125.54 94.1868 125.752C94.3201 125.781 94.44 125.801 94.5734 125.829L94.5067 125.319Z" fill="#FC5135"/>
<path d="M94.5733 106.508C93.7333 106.965 92.6801 107.7 91.7201 107.852C90.7734 108.001 89.8534 107.288 89.0934 106.757C87.7467 105.832 87.7467 105.695 86.3333 106.471C85.4533 106.956 83.4667 108.137 82.3867 107.807L86.0667 109.383C86.2133 109.707 88.3466 109.689 88.9466 109.769C90.2399 109.944 91.5334 110.117 92.8267 110.289C94.32 110.491 95.7733 110.555 97.2667 110.695C98.3333 110.8 108.707 111.059 111.347 107.219C108.773 106.876 102.013 111.181 94.5733 106.508Z" fill="#FC5135"/>
<path d="M78.2799 79.1653L77.96 79.6227C79.2266 78.024 85.6532 77.16 86.8132 78.972C87.9599 71.216 79.9999 76.3067 78.2799 79.1653Z" fill="#602618"/>
<path d="M118.24 82.7347L118.48 83.3013C117.413 81.2427 109.733 77.6853 107.72 78.9093C108.747 71.06 117 79.2827 118.24 82.7347Z" fill="#602618"/>
<path d="M119.04 94.116C117.92 89.488 113.893 82.5227 105.853 89.032C103.267 90.6853 101.2 92.992 100.72 93.5413L100.64 93.6373L100.613 93.6627C100.76 93.7227 100.92 93.7827 101.067 93.84C101.707 94.0907 102.347 94.3347 102.973 94.5653C103.453 94.736 103.933 94.9027 104.4 95.06C104.56 95.1147 104.72 95.1653 104.88 95.216C105.04 95.2667 105.2 95.3187 105.36 95.3693C105.56 95.432 105.747 95.492 105.947 95.5493L106.627 95.7493C107 95.8533 107.373 95.9573 107.747 96.052L107.973 96.1093C108.2 96.168 108.427 96.2213 108.653 96.2693L108.72 96.284C108.92 96.3333 109.133 96.3787 109.333 96.42C109.467 96.4507 109.6 96.4747 109.733 96.5013C109.88 96.5307 110.027 96.5573 110.173 96.5827C110.347 96.6147 110.52 96.648 110.707 96.676C110.893 96.708 111.093 96.7427 111.293 96.768L111.387 96.7827L111.64 96.812C111.8 96.8387 111.96 96.8587 112.12 96.8733C112.453 96.916 112.773 96.9467 113.107 96.9733C113.28 96.9907 113.44 97.0013 113.6 97.0093C113.76 97.0173 113.933 97.028 114.093 97.0347C114.24 97.0387 114.387 97.0467 114.533 97.0507L114.64 97.052C114.96 97.0587 115.28 97.0587 115.587 97.056C116.28 97.0493 116.973 97.0067 117.667 96.9387C117.947 96.9067 118.227 96.8747 118.507 96.8347H118.52C118.8 96.7987 119.08 96.7533 119.36 96.704L119.373 96.4693C119.387 95.6653 119.28 94.88 119.04 94.116Z" fill="white"/>
<path d="M112.946 91.532C113.053 94.576 111.48 97.0987 109.44 97.172C107.4 97.2453 105.653 94.8373 105.546 91.7973C105.44 88.7547 107 86.232 109.04 86.1587C111.093 86.0867 112.826 88.492 112.946 91.532Z" fill="#574984"/>
<path d="M111.613 91.3747C111.693 93.4933 110.693 95.2493 109.373 95.296C108.053 95.3427 106.933 93.6627 106.853 91.5453C106.773 89.4267 107.787 87.6733 109.093 87.6267C110.413 87.58 111.547 89.2587 111.613 91.3747Z" fill="#291C51"/>
<path d="M113.867 89.3347L109.733 90.268C109.733 90.268 112.867 92.004 113.72 91.416C114.147 91.1174 113.867 89.3347 113.867 89.3347Z" fill="white"/>
<path d="M119.36 96.704C119.387 96.08 119.28 95.1586 119.04 94.116C117.92 89.488 113.893 82.5226 105.853 89.032C103.307 91.0973 100.933 93.36 100.64 93.6373L100.613 93.6626C100.613 93.6626 106.573 78.3413 115.707 81.6053C120.293 83.2413 120.773 92.8666 119.36 96.704Z" fill="#EF7950"/>
<path d="M118.507 96.8347C110.867 99.8854 103.973 96.236 101.067 93.84C101.707 94.0907 102.347 94.3347 102.973 94.5654C103.453 94.736 103.933 94.9027 104.4 95.06C104.56 95.1147 104.72 95.1654 104.88 95.216C105.04 95.2667 105.2 95.3187 105.36 95.3694C105.56 95.432 105.747 95.492 105.947 95.5494L106.627 95.7494C107 95.8534 107.373 95.9574 107.747 96.052L107.973 96.1093C108.2 96.168 108.427 96.2214 108.653 96.2694L108.72 96.284C108.92 96.3334 109.133 96.3787 109.333 96.42C109.467 96.4507 109.6 96.4747 109.733 96.5014C109.88 96.5307 110.027 96.5574 110.173 96.5827C110.347 96.6147 110.52 96.648 110.707 96.676C110.893 96.708 111.093 96.7427 111.293 96.768L111.387 96.7827L111.64 96.812C111.8 96.8387 111.96 96.8587 112.12 96.8734C112.453 96.916 112.773 96.9467 113.107 96.9734C113.28 96.9907 113.44 97.0013 113.6 97.0093C113.76 97.0173 113.933 97.028 114.093 97.0347C114.24 97.0387 114.387 97.0467 114.533 97.0507L114.64 97.052C114.96 97.0587 115.28 97.0587 115.587 97.056C116.28 97.0494 116.973 97.0067 117.667 96.9387C117.947 96.9067 118.227 96.8747 118.507 96.8347Z" fill="#EF7950"/>
<path d="M76.3333 90.08C78.1733 86.5493 82.7199 81.6973 87.4133 88.5507C89.0133 90.3987 90.0933 92.6733 90.3333 93.212L90.3733 93.304L90.3867 93.3333C90.2667 93.3506 90.1333 93.3693 90.0133 93.3853C89.4666 93.464 88.9333 93.536 88.4 93.5973C88.0133 93.6426 87.6133 93.6853 87.2133 93.7187C87.0799 93.732 86.96 93.7427 86.8267 93.752C86.6934 93.7613 86.56 93.772 86.4267 93.7826C86.2667 93.7946 86.1066 93.804 85.9466 93.812L85.3867 93.84C85.08 93.852 84.7733 93.8613 84.4667 93.864L84.2799 93.8653C84.1066 93.868 83.92 93.868 83.7333 93.8626H83.6934C83.52 93.8626 83.36 93.86 83.1867 93.852L82.8667 93.84L82.52 93.8187C82.3867 93.8107 82.24 93.8027 82.0934 93.7893C81.9467 93.7787 81.7867 93.7667 81.6267 93.7507L81.56 93.7426L81.36 93.72C81.24 93.7067 81.1067 93.692 80.9867 93.672C80.72 93.64 80.4666 93.6013 80.2133 93.56C80.0799 93.5386 79.9467 93.5173 79.8267 93.4893C79.7067 93.464 79.5734 93.4413 79.4534 93.4146L79.12 93.3413L79.04 93.32C78.8 93.264 78.5466 93.2013 78.3066 93.1373C77.7866 92.996 77.28 92.8267 76.76 92.6347C76.56 92.5533 76.3466 92.472 76.1466 92.384L76.1333 92.38C75.9333 92.2986 75.7333 92.2066 75.5333 92.1133L75.5733 91.92C75.7333 91.2653 75.9867 90.6506 76.3333 90.08Z" fill="white"/>
<path d="M84.8667 88.6667C84.9733 91.708 83.4133 94.2334 81.3733 94.3054C79.32 94.3787 77.5867 91.972 77.4667 88.9294C77.36 85.8894 78.9333 83.3654 80.9733 83.2934C83.0133 83.22 84.76 85.6267 84.8667 88.6667Z" fill="#574984"/>
<path d="M83.5466 88.5107C83.6133 90.6293 82.6133 92.3827 81.2933 92.4293C79.9867 92.476 78.8533 90.7973 78.7733 88.68C78.7066 86.5627 79.7067 84.8067 81.0267 84.76C82.3333 84.7133 83.4666 86.392 83.5466 88.5107Z" fill="#291C51"/>
<path d="M85.8 86.468L81.6666 87.4027C81.6666 87.4027 84.7866 89.1387 85.6399 88.548C86.0666 88.2507 85.8 86.468 85.8 86.468Z" fill="white"/>
<path d="M75.5334 92.1134C75.64 91.6 75.92 90.8747 76.3334 90.08C78.1734 86.5494 82.72 81.6974 87.4133 88.5507C88.9066 90.7267 90.2133 93.0254 90.3733 93.304L90.3867 93.3334C90.3867 93.3334 89.16 79.7494 81.5334 80.6C77.7067 81.0227 75.28 88.7254 75.5334 92.1134Z" fill="#EF7950"/>
<path d="M76.1466 92.384C81.2799 96.3574 87.2933 94.756 90.0133 93.3854C89.4666 93.464 88.9333 93.536 88.4 93.5974C88.0133 93.6427 87.6133 93.6854 87.2133 93.7187C87.0799 93.732 86.96 93.7427 86.8267 93.752C86.6934 93.7614 86.56 93.772 86.4267 93.7827C86.2667 93.7947 86.1066 93.804 85.9466 93.812L85.3867 93.84C85.08 93.852 84.7733 93.8614 84.4667 93.864L84.2799 93.8654C84.1066 93.868 83.92 93.868 83.7333 93.8627H83.6934C83.52 93.8627 83.36 93.86 83.1867 93.852L82.8667 93.84L82.52 93.8187C82.3867 93.8107 82.24 93.8027 82.0934 93.7894C81.9467 93.7787 81.7867 93.7667 81.6267 93.7507L81.56 93.7427L81.36 93.72C81.24 93.7067 81.1067 93.692 80.9867 93.672C80.72 93.64 80.4666 93.6014 80.2133 93.56C80.0799 93.5387 79.9467 93.5174 79.8267 93.4894C79.7067 93.464 79.5734 93.4414 79.4534 93.4147L79.12 93.3414L79.04 93.32C78.8 93.264 78.5466 93.2014 78.3066 93.1374C77.7866 92.996 77.28 92.8267 76.76 92.6347C76.56 92.5534 76.3466 92.472 76.1466 92.384Z" fill="#EF7950"/>
<path d="M119.347 142.539C117.293 140.605 111.347 138.963 108.84 139.885L97.5467 144.629C96.7333 148.136 93.16 167.275 99.9467 174.237C112.28 169.256 130.453 153.003 119.347 142.539Z" fill="#F9AE7A"/>
<path d="M137.52 89.06L124.173 95.3986C131.907 107.7 125.467 124.429 120.48 136.683C116.987 145.224 112.747 152.605 110.187 162.2L114.24 163.833C118.68 151.279 127.96 141.156 132.907 135C137.867 128.825 141.067 120.996 141.96 113.077C142.733 106.169 141.827 94.7706 137.52 89.06Z" fill="#4C1B05"/>
<path d="M115.546 175.663C116 179.347 114.933 183.395 113.453 186.679C113.267 184.643 113.133 182.575 112.4 180.664C111.92 185.093 110.2 188.933 108.28 192.803C108.173 190.015 104.933 180.033 104.466 177.424C104.266 176.365 104.187 175.368 104.16 174.427C103.987 166.248 109.707 162.471 112.453 160.005L114.427 160.217L116.187 160.405C113.253 164.741 114.946 170.9 115.546 175.663Z" fill="#592009"/>
<path d="M107.893 185.265C107.413 181.371 104.72 178.286 104.16 174.427C104.16 174.3 104.16 174.173 104.16 174.046C104.173 166.131 109.747 162.432 112.453 160.005L114.427 160.217C114.187 161.055 113.96 161.891 113.76 162.603C113.24 164.316 112.8 166.073 112.733 167.851C112.64 170.772 113.947 174.701 113.147 177.373C112.933 175.773 111.64 173.822 110.733 172.452C110.88 174.853 110.533 176.995 110.267 179.312C110.04 178.471 109.667 177.688 109.12 176.991C109.293 179.793 107.88 182.519 107.893 185.265Z" fill="#702B0D"/>
<path d="M122.52 135.131C122.52 135.131 109.747 147.528 112.373 163.309C115.04 162.8 135.2 155.729 122.52 135.131Z" fill="#3F1307"/>
<path d="M124.467 132.348C124.467 132.348 111.693 144.747 114.333 160.528C116.987 160.019 137.147 152.948 124.467 132.348Z" fill="#592009"/>
<path d="M102.213 158.995C102.68 159.186 103.173 159.383 103.627 159.536C103.36 159.656 102.827 159.448 102.507 159.58C102.2 159.705 101.48 162.777 101.8 163.802C101.947 164.28 101.933 164.291 102.333 164.38C103.2 164.581 109.32 163.577 110.853 164.725L111.493 161.624C111.453 161.473 111.307 161.155 111.04 160.735C110.067 159.221 107.613 156.417 103.88 155.795C103.747 155.771 103.613 155.751 103.467 155.733C102.787 156.769 102.547 157.825 102.213 158.995Z" fill="#664472"/>
<path d="M102.213 158.995C102.68 159.186 103.173 159.383 103.627 159.536C103.36 159.656 102.827 159.448 102.507 159.58C102.2 159.705 101.48 162.777 101.8 163.802C101.947 164.28 101.933 164.291 102.333 164.38C103.2 164.581 109.32 163.577 110.853 164.725L111.493 161.624C111.453 161.473 111.307 161.155 111.04 160.735C109.92 159.777 108.52 159.077 107.227 158.615C108.067 159.297 108.8 160.305 109.44 161.159C108.947 161.061 108.48 160.969 108 160.892C108.24 161.127 108.547 161.249 108.813 161.471C109.08 161.701 109.253 161.995 109.493 162.235C109.147 162.528 108.64 162.575 108.2 162.679C107.56 162.822 106.893 163.019 106.24 163.107C105.253 163.243 104.133 163.208 103.24 162.728C102.933 162.564 102.587 162.227 102.44 161.898C102.307 161.573 102.213 160.497 102.547 160.22C102.773 160.034 103.747 160.12 104.053 160.112C104.587 160.095 105.133 160.207 105.64 160.204C104.987 159.402 103.8 159.172 103.507 158.161C103.267 157.353 103.493 156.536 103.88 155.795C103.747 155.771 103.613 155.751 103.467 155.733C102.787 156.769 102.547 157.825 102.213 158.995Z" fill="#473051"/>
<path d="M113.013 165.363C111.453 166.359 109.533 166.592 108.853 164.477C108.507 163.443 108.453 161.914 108.853 160.645C109.133 159.763 109.627 159.009 110.387 158.632C111.48 158.081 113.827 157.986 115.4 158.469C116.24 158.724 116.867 159.141 116.96 159.744C117.227 161.437 114 164.739 113.013 165.363Z" fill="#664472"/>
<path d="M113.013 165.363C111.453 166.359 109.533 166.592 108.853 164.477C108.507 163.443 108.453 161.914 108.853 160.645C108.947 161.797 109.347 162.892 110.173 163.69C110.72 162.579 111.12 161.19 112.227 160.439C111.733 161.557 111.64 162.481 111.667 163.679C112.987 162.94 113.987 162.197 114.8 160.856C115.2 160.197 115.453 159.472 115.427 158.698L115.4 158.469C116.24 158.724 116.867 159.141 116.96 159.744C117.227 161.437 114 164.739 113.013 165.363Z" fill="#473051"/>
<path d="M125 165.88C124.467 165.69 123.907 165.485 123.4 165.269C123.533 165.565 124.147 165.804 124.307 166.155C124.467 166.488 122.733 169.627 121.693 170.251C121.2 170.54 121.2 170.556 120.8 170.331C119.907 169.84 115.52 164.345 113.347 164.145L115.173 161.046C115.32 160.948 115.693 160.798 116.24 160.645C118.213 160.104 122.413 159.601 126.04 161.917C126.16 162.001 126.293 162.088 126.427 162.179C126.213 163.568 125.613 164.644 125 165.88Z" fill="#664472"/>
<path d="M125 165.88C124.467 165.69 123.907 165.485 123.4 165.269C123.533 165.565 124.147 165.804 124.307 166.155C124.467 166.488 122.733 169.627 121.693 170.251C121.2 170.54 121.2 170.556 120.8 170.331C119.907 169.84 115.52 164.345 113.347 164.145L115.173 161.046C115.32 160.948 115.693 160.798 116.24 160.645C117.907 160.683 119.627 161.163 121.067 161.749C119.84 161.692 118.453 161.98 117.253 162.213C117.747 162.509 118.213 162.78 118.68 163.089C118.307 163.104 117.947 162.971 117.56 162.957C117.16 162.949 116.787 163.065 116.4 163.079C116.467 163.593 116.853 164.019 117.16 164.444C117.587 165.049 117.987 165.715 118.467 166.285C119.2 167.149 120.173 167.976 121.293 168.251C121.68 168.347 122.227 168.322 122.6 168.153C122.96 167.988 123.853 167.146 123.787 166.66C123.733 166.334 122.853 165.669 122.6 165.427C122.16 165.005 121.627 164.691 121.187 164.297C122.36 164.122 123.533 164.829 124.547 164.203C125.373 163.701 125.8 162.841 126.04 161.917C126.16 162.001 126.293 162.088 126.427 162.179C126.213 163.568 125.613 164.644 125 165.88Z" fill="#473051"/>
<path d="M129.333 121.403C129.333 121.403 114.72 135.593 117.733 153.659C120.773 153.075 143.853 144.983 129.333 121.403Z" fill="#3F1307"/>
<path d="M131.573 118.219C131.573 118.219 116.96 132.411 119.973 150.474C123.013 149.892 146.093 141.8 131.573 118.219Z" fill="#592009"/>
<path d="M132.333 108.915C132.333 108.915 118.947 125.931 124.68 144.54C127.8 143.495 150.973 131.708 132.333 108.915Z" fill="#3F1307"/>
<path d="M134.24 105.244C134.24 105.244 120.853 122.261 126.587 140.869C129.707 139.825 152.88 128.039 134.24 105.244Z" fill="#592009"/>
<path d="M126.893 94.3987C126.893 94.3987 120.627 116.865 134.04 133.016C136.707 130.684 154.88 109.376 126.893 94.3987Z" fill="#3F1307"/>
<path d="M127.267 89.9587C127.267 89.9587 121 112.425 134.413 128.576C137.08 126.244 155.253 104.937 127.267 89.9587Z" fill="#592009"/>
<path d="M120.987 81.2587C120.987 81.2587 120.907 104.583 138.12 116.607C140.08 113.649 151.947 88.2947 120.987 81.2587Z" fill="#3F1307"/>
<path d="M120.173 76.8787C120.173 76.8787 120.093 100.201 137.307 112.227C139.267 109.269 151.133 83.916 120.173 76.8787Z" fill="#592009"/>
<path d="M134.88 67.844C133.013 62.928 129.72 57.1027 124.72 54.1627C113.027 47.296 98.2133 49.552 87.6533 56.8667L93.5066 63.1307C92.9999 63.484 92.52 62.864 92.4266 63.6813C101.947 64.4653 110.32 70.4693 115.427 78.5533C119.613 85.196 119.56 92.7787 123.133 99.1467C126.067 104.385 132.493 106.505 137.56 102.219C143.107 97.544 142.827 87.9133 142.707 81.636C136.72 80.3213 136.613 72.424 134.88 67.844Z" fill="#4C1B05"/>
<path d="M121.92 83.3107C121.893 83.9627 121.853 84.6134 121.813 85.2627C121.92 84.62 121.947 83.9667 121.92 83.3107Z" fill="#592009"/>
<path d="M121.36 60.5293C123.76 60.684 125.76 61.2227 127.48 63.068C125 59.4627 123.093 56.3347 118.627 54.924C114.293 53.56 109.706 53.9733 105.213 53.6853L96.7732 60.272C102.413 62.0307 108.173 64.2667 112.76 68.304C116.573 71.6533 121.64 77.6187 121.92 83.3107C122.173 77.464 121.853 71.5787 118.987 66.2653C121.507 67.3133 126.027 71.1027 126.16 74.004C126.853 70.132 124.56 62.8387 121.36 60.5293Z" fill="#592009"/>
<path d="M134.56 94.216C132.267 93.0893 129.08 94.6413 127.48 96.0867C125.133 98.2013 121.92 106.172 124.24 108.3C127.947 111.705 135.48 105.189 136.6 100.503C137.067 98.544 136.64 95.236 134.56 94.216Z" fill="#F9AE7A"/>
<path d="M135.667 98.5267C135.16 92.86 127.173 95.064 126.693 99.6574C128.44 98.808 129.547 101.344 128.92 102.705C128.227 104.219 126.013 104.347 125.267 102.831C125.2 105.361 128.88 105.095 130.147 103.735C131.72 102.035 130.853 99.0094 128.64 98.34C130.36 95.38 135.573 96.3053 135.413 99.928L135.667 98.5267Z" fill="#EF7950"/>
<path d="M104.107 50.3987C96.5867 46.0414 78.3601 50.5134 68.1601 66.084C62.7867 74.2747 56.8933 94.1907 67.7466 100.529C64.8666 88.1347 77.9068 76.528 88.0534 74.596C87.0401 76.9 86.08 79.396 85.04 81.7014C100.813 72.3747 104.213 51.1307 104.107 50.3987Z" fill="#4C1B05"/>
<path d="M100.933 51.7454C100.933 51.7454 84.6667 51.7934 75.52 65.132C78.9067 61.7107 85.1066 60.4774 89.7466 60.476C86.3466 61.3654 81.9866 64.4867 79.8666 67.1787C81.4666 66.3387 83.5334 66.0654 85.32 66.1747C84.3334 66.4 83.7999 68.236 83.0399 69.2454C84.1599 68.5094 96.5466 72.5 100.933 51.7454Z" fill="#592009"/>
<path d="M135.573 173.637C135.547 174.833 135.52 175.955 135.48 176.975L128.027 177.298C128.067 176.644 128.107 175.996 128.147 175.343C128.493 169.633 128.707 163.859 129.84 158.298C130.56 154.833 132.347 149.263 135.267 146.496L135.533 146.604L135.56 146.615C135.72 146.684 135.88 146.751 136.027 146.824C136.307 146.949 136.587 147.076 136.853 147.209C136.987 147.28 137.133 147.348 137.267 147.417C137.64 147.617 138.027 147.828 138.4 148.046C138.52 148.122 138.653 148.196 138.773 148.275C139.24 148.572 139.707 148.883 140.16 149.219C140.293 149.319 140.427 149.42 140.56 149.528C140.693 149.631 140.84 149.74 140.973 149.852C141.107 149.964 141.24 150.075 141.373 150.191L141.68 150.464L141.733 150.509C136.173 155.415 135.773 165.985 135.573 173.637Z" fill="#352020"/>
<path d="M131.467 204.7C132.307 202.159 133.053 199.617 133.72 197.172C134.453 194.467 134.413 191.965 134 189.539C134.4 189.469 134.787 189.325 135.147 189.115C135.133 189.183 135.133 189.251 135.133 189.319C135.147 190.991 136.12 192.463 137.64 192.851C137.64 192.852 137.653 192.855 137.667 192.856C137.387 196.28 137.107 199.686 136.853 203.103C136.627 203.18 136.413 203.247 136.187 203.313L135.853 203.429C135.547 203.517 135.253 203.614 134.947 203.698L134.8 203.748L134.613 203.796C134.333 203.892 134.053 203.968 133.76 204.056C133.573 204.114 133.387 204.171 133.2 204.229C133.067 204.267 132.933 204.307 132.8 204.345L132.467 204.431C132.133 204.527 131.813 204.615 131.467 204.7ZM130.947 178.933C130.787 178.356 130.653 177.78 130.533 177.195C130.533 177.193 130.533 177.192 130.52 177.191L130.8 177.177C130.84 177.773 130.88 178.36 130.947 178.933Z" fill="#AA1F1F"/>
<path d="M130.52 177.191C130.373 176.451 130.253 175.709 130.16 174.951L130.147 174.921C130.013 173.632 129.973 172.312 130.107 170.925L131.013 171.416C130.8 173.368 130.707 175.32 130.8 177.177L130.52 177.191Z" fill="#2D1919"/>
<path d="M158.547 193.195C158.28 193.36 158 193.532 157.72 193.696C157.4 193.889 157.067 194.08 156.733 194.255C156.067 194.649 155.4 195.025 154.733 195.4C154.04 195.776 153.347 196.143 152.64 196.508C152.28 196.7 151.933 196.873 151.56 197.056C151 197.345 150.427 197.635 149.853 197.904L149.813 197.932C149.253 198.201 148.68 198.472 148.107 198.732C147.68 198.924 147.267 199.117 146.813 199.298L146.667 199.356C145.44 199.907 144.2 200.425 142.933 200.916C142.107 201.253 141.267 201.572 140.427 201.869L140.12 201.985C139.987 202.033 139.84 202.091 139.693 202.14L139.413 202.236L139.08 202.352C138.84 202.437 138.6 202.533 138.347 202.612C137.853 202.775 137.347 202.948 136.853 203.103C137.107 199.685 137.387 196.276 137.667 192.849C137.76 191.636 137.853 190.412 137.947 189.191C138.053 187.843 138.147 186.495 138.253 185.148L146.28 183.636L153.64 182.257L154.44 182.104C154.573 182.104 158.04 181.18 158.173 181.18C158.28 181.622 158.493 185.08 158.547 190.288C158.547 191.203 158.547 192.175 158.547 193.195Z" fill="#F9AE7A"/>
<path fill-rule="evenodd" clip-rule="evenodd" d="M161 184.632C161.36 185.441 161.467 186.417 161.213 187.397C160.68 189.48 158.747 190.791 156.907 190.317C156.2 190.136 155.613 189.712 155.173 189.148C155.16 189.379 155.12 189.608 155.053 189.844C154.52 191.927 152.6 193.235 150.76 192.761C149.653 192.479 148.827 191.616 148.467 190.523C148.467 190.867 148.413 191.217 148.333 191.567C147.787 193.653 145.867 194.96 144.027 194.488C142.52 194.1 141.533 192.639 141.52 190.977C140.707 192.428 139.147 193.237 137.64 192.851C136.067 192.447 135.067 190.869 135.147 189.115C134.413 189.545 133.547 189.701 132.707 189.486C131.64 189.213 130.84 188.405 130.453 187.365C130.173 186.609 130.12 185.736 130.347 184.857C130.587 183.934 131.093 183.161 131.747 182.632C130.067 177.612 130.747 170.591 132.253 164.71C134.707 155.192 139.493 147.821 147.893 149.976C148.6 150.157 149.293 150.46 149.973 150.864C156.4 154.686 161.307 167.816 160.987 176.907C161.293 176.891 161.613 176.914 161.907 176.992C163.76 177.465 164.813 179.539 164.28 181.622C163.84 183.322 162.48 184.507 161 184.632Z" fill="#FFF5F5"/>
<path d="M144.787 194.584C144.533 194.584 144.28 194.553 144.027 194.488C142.52 194.1 141.533 192.639 141.52 190.977C140.853 192.184 139.653 192.947 138.4 192.947C138.147 192.947 137.893 192.915 137.64 192.851C136.12 192.463 135.147 190.991 135.133 189.319C135.133 189.251 135.133 189.183 135.147 189.115C134.787 189.325 134.4 189.469 134 189.539C133.827 189.568 133.64 189.583 133.467 189.583C133.213 189.583 132.96 189.552 132.707 189.486C131.64 189.213 130.84 188.405 130.453 187.365C130.933 187.708 131.467 187.92 132.04 187.92C132.587 187.92 133.16 187.733 133.773 187.292C134.52 188.64 135.907 189.229 137.36 189.229C138.627 189.229 139.933 188.775 140.893 187.979C141.507 189.36 142.533 189.961 143.613 189.961C145.013 189.961 146.493 188.956 147.253 187.334C147.853 187.91 148.533 188.16 149.227 188.16C151.547 188.16 153.96 185.433 153.707 182.779C153.573 181.289 152.787 179.669 151.667 178.845C151.053 178.392 150.453 178.303 149.827 178.303C149.64 178.303 149.44 178.312 149.227 178.321C149.027 178.331 148.827 178.34 148.627 178.34C148.24 178.34 147.84 178.308 147.44 178.181C151.547 175.185 153.507 170.161 153.733 164.775C153.933 160.04 152.533 155.908 150.52 151.917C150.4 151.685 150.213 151.315 149.973 150.864C156.2 154.567 161 167.004 161 176.043C161 176.334 161 176.622 160.987 176.907C161.04 176.903 161.107 176.902 161.173 176.902C161.413 176.902 161.667 176.928 161.907 176.992C163.427 177.381 164.413 178.86 164.413 180.533C164.413 180.891 164.373 181.256 164.28 181.622C163.84 183.322 162.48 184.507 161 184.632C161.227 185.139 161.347 185.709 161.347 186.305C161.347 186.663 161.307 187.029 161.213 187.397C160.747 189.193 159.253 190.415 157.667 190.415C157.413 190.415 157.16 190.383 156.907 190.317C156.2 190.136 155.613 189.712 155.173 189.148C155.16 189.379 155.12 189.608 155.053 189.844C154.6 191.639 153.107 192.859 151.52 192.859C151.267 192.859 151.013 192.827 150.76 192.761C149.653 192.479 148.827 191.616 148.467 190.523C148.467 190.867 148.413 191.217 148.333 191.567C147.867 193.365 146.373 194.584 144.787 194.584Z" fill="#E5D2D2"/>
</svg>
