<svg width="209" height="209" viewBox="0 0 209 209" fill="none" xmlns="http://www.w3.org/2000/svg">
<path d="M192.571 160.131C187.005 168.941 180.333 176.613 172.861 183.112C172.033 183.825 171.205 184.528 170.359 185.212C170.003 185.5 169.645 185.789 169.289 186.068C167.432 187.552 165.535 188.957 163.6 190.285C163.292 190.497 162.973 190.709 162.656 190.912C161.365 191.788 160.056 192.625 158.728 193.433C157.284 194.309 155.831 195.157 154.348 195.956C153.943 196.177 153.529 196.399 153.096 196.611L152.961 196.679C150.747 197.843 148.484 198.932 146.183 199.923L145.913 200.039C144.757 200.539 143.603 201.011 142.437 201.464C142.091 201.588 141.753 201.723 141.408 201.848L141.235 201.916C140.965 202.031 140.676 202.128 140.396 202.233C140.213 202.301 140.031 202.368 139.839 202.436C139.713 202.484 139.588 202.532 139.453 202.581C137.913 203.129 136.353 203.639 134.784 204.111L134.475 204.208C133.541 204.487 132.617 204.747 131.673 204.997C129.412 205.604 127.12 206.143 124.819 206.605L124.761 206.615C121.035 207.347 117.28 207.876 113.505 208.193C112.871 208.261 112.255 208.3 111.619 208.337C110.993 208.396 110.367 208.424 109.741 208.444C108.74 208.511 107.749 208.531 106.748 208.549C106.535 208.559 106.324 208.569 106.121 208.559C105.843 208.579 105.563 208.579 105.284 208.569C105.063 208.579 104.841 208.588 104.611 208.588C104.167 208.588 103.715 208.579 103.272 208.569C100.797 208.54 98.3227 208.415 95.8587 208.212C95.5693 208.184 95.2707 208.165 94.9813 208.125C91.7947 207.837 88.628 207.395 85.4507 206.797C85.2093 206.749 84.96 206.701 84.7093 206.653C84.488 206.615 84.2667 206.576 84.0453 206.537L83.804 206.48C83.428 206.403 83.0627 206.325 82.668 206.239L82.3507 206.172C81.908 206.075 81.4733 205.979 81.0307 205.873C77.296 205.007 73.58 203.919 69.9107 202.609C69.6414 202.513 69.372 202.417 69.112 202.32C68.7267 202.185 68.3507 202.041 67.976 201.896C66.8307 201.464 65.684 201.011 64.548 200.529L64.4907 200.5C63.9227 200.279 63.364 200.039 62.796 199.779C62.6614 199.721 62.536 199.664 62.4107 199.596C62.0934 199.451 61.776 199.316 61.468 199.163C60.9573 198.941 60.4467 198.709 59.9453 198.479C59.484 198.248 59.0307 198.027 58.5787 197.805C58.2027 197.612 57.828 197.42 57.452 197.227L57.2414 197.121C56.8067 196.909 56.3747 196.668 55.9507 196.447L55.8253 196.38L55.6427 196.275C55.1907 196.043 54.748 195.803 54.304 195.561C54.044 195.417 53.784 195.273 53.524 195.119C52.928 194.781 52.3214 194.435 51.724 194.079C51.4734 193.925 51.2133 193.78 50.964 193.616L50.6747 193.444C50.308 193.223 49.9427 193 49.5867 192.779C49.432 192.683 49.2787 192.587 49.124 192.491C48.5854 192.153 48.0467 191.807 47.5267 191.451L47.228 191.248L47.1414 191.191L47.1027 191.171C46.824 190.999 46.5627 190.825 46.304 190.623C45.9467 190.401 45.6013 190.169 45.264 189.919L45.148 189.843C45.004 189.737 44.868 189.64 44.7333 189.544C44.388 189.304 44.0507 189.072 43.7134 188.832L43.6453 188.775C42.8373 188.196 42.048 187.609 41.2774 187.003C40.768 186.617 40.2667 186.232 39.7667 185.837C39.1693 185.356 38.5627 184.865 37.9747 184.373L37.696 184.143C36.868 183.46 36.0494 182.747 35.26 182.015C34.6254 181.457 33.9987 180.879 33.3827 180.292C31.736 178.771 30.176 177.201 28.6654 175.584L28.6173 175.527C27.4613 174.293 26.3547 173.041 25.2667 171.761C23.7067 169.903 22.1947 168.007 20.7707 166.052C19.6053 164.453 18.4693 162.827 17.4 161.171L17.352 161.084C16.1974 159.303 15.0894 157.483 14.06 155.635C13.9347 155.432 13.8093 155.201 13.704 154.971C12.972 153.691 12.2973 152.381 11.6427 151.061C11.2093 150.185 10.7867 149.329 10.372 148.452C8.95735 145.381 7.68668 142.261 6.56935 139.084C6.05868 137.611 5.568 136.139 5.12534 134.636C5.08667 134.521 5.04803 134.405 5.0187 134.28C4.93203 133.972 4.83599 133.673 4.73999 133.356C4.49999 132.519 4.26802 131.671 4.04669 130.833C-2.95331 103.963 0.753376 74.3653 16.7654 49.0453C47.44 0.490626 111.667 -13.9893 160.211 16.6853C208.764 47.36 223.245 111.587 192.571 160.131Z" fill="#F7F2DA"/>
<path d="M82.3506 206.172C81.908 206.075 81.4733 205.979 81.0307 205.873C77.296 205.007 73.58 203.919 69.9107 202.609C69.6413 202.513 69.372 202.417 69.112 202.32C68.7266 202.185 68.3506 202.041 67.976 201.896C66.8306 201.464 65.684 201.011 64.548 200.529L64.4907 200.5C63.9227 200.279 63.364 200.039 62.796 199.779C62.6613 199.721 62.536 199.664 62.4107 199.596C62.0933 199.451 61.776 199.316 61.468 199.163C62.344 188.611 63.1427 178.347 63.7293 169.653H74.5133L83.66 186.483C84.112 189.959 83.5253 197.276 82.3506 206.172Z" fill="#EA6CA0"/>
<path d="M81.0986 199.836C81.0693 201.839 81.0506 203.851 81.0306 205.873C77.2959 205.007 73.58 203.919 69.9106 202.609C69.6413 202.513 69.3719 202.417 69.1119 202.32C68.3613 198.209 67.5719 194.06 66.8679 189.833L81.0986 199.836Z" fill="#DB5290"/>
<path d="M103.272 208.569C100.797 208.54 98.3227 208.415 95.8587 208.212C95.5693 208.184 95.2707 208.165 94.9813 208.125C91.7947 207.837 88.628 207.395 85.4507 206.797C85.2093 206.749 84.96 206.701 84.7093 206.653C84.488 206.615 84.2667 206.576 84.0453 206.537L83.804 206.48C83.428 206.403 83.0627 206.325 82.668 206.239L82.3507 206.172C81.908 206.075 81.4734 205.979 81.0307 205.873C77.296 205.007 73.58 203.919 69.9107 202.609C69.6414 202.513 69.372 202.417 69.112 202.32C68.7267 202.185 68.3507 202.041 67.976 201.896C66.8307 201.464 65.684 201.011 64.548 200.529L64.4907 200.5C63.9227 200.279 63.3641 200.039 62.7961 199.779C62.6614 199.721 62.536 199.664 62.4107 199.596C62.0934 199.451 61.776 199.316 61.468 199.163C60.9573 198.941 60.4467 198.709 59.9453 198.479C59.484 198.248 59.0307 198.027 58.5787 197.805C56.8267 194.425 55.46 191.403 55.2 188.976C55.084 187.869 69.8241 144.533 72.7321 143.783C78.0947 142.407 85.4694 141.116 93.48 140.115C100.864 139.191 108.799 138.516 116.201 138.256C117.424 138.219 118.628 138.18 119.812 138.169C121.401 138.141 122.941 138.132 124.444 138.16C132.328 138.247 138.952 138.979 142.679 140.596L142.717 140.605C144.623 141.444 145.759 142.512 145.913 143.84C146.299 147.2 144.709 156.299 142.697 170.201V170.212L142.524 171.424C142.341 172.695 142.159 173.928 141.976 175.112C141.139 180.648 140.32 185.096 139.656 187.051C139.579 187.291 139.501 187.493 139.424 187.657C139.299 187.927 139.155 188.235 138.991 188.572L138.981 188.581L138.963 188.62C138.876 188.823 138.76 189.044 138.655 189.275C138.596 189.4 138.539 189.525 138.472 189.66C138.336 189.919 138.211 190.199 138.067 190.488V190.507C137.084 192.557 135.813 195.244 134.399 198.479C133.715 200.028 133.003 201.704 132.261 203.504C132.059 203.996 131.867 204.496 131.673 204.997C129.412 205.604 127.12 206.143 124.819 206.605L124.761 206.615C121.035 207.347 117.28 207.876 113.505 208.193C112.871 208.261 112.255 208.3 111.619 208.337C110.993 208.396 110.367 208.424 109.741 208.444C108.74 208.511 107.749 208.531 106.748 208.549C106.535 208.559 106.324 208.569 106.121 208.559C105.843 208.579 105.563 208.579 105.284 208.569C105.063 208.579 104.841 208.588 104.611 208.588C104.167 208.588 103.715 208.579 103.272 208.569Z" fill="#EA6CA0"/>
<path d="M142.523 171.424C142.343 172.692 142.159 173.924 141.979 175.109C141.031 181.325 140.123 186.165 139.421 187.661C138.487 189.657 136.627 193.405 134.397 198.477C133.713 200.033 132.999 201.711 132.26 203.504C128.027 205.492 123.261 206.883 118.028 206.637C111.28 206.321 105.888 204.145 100.584 199.947C106.317 202.592 143.308 201.772 141.193 167.383L142.523 171.424Z" fill="#DB5290"/>
<path d="M118.741 138.477L116.169 138.429L91.42 140.512C91.42 140.512 88.456 155.111 87.8373 160.035C86.928 167.289 85.848 189.213 85.848 189.213C85.848 189.213 123.356 140.259 118.741 138.477Z" fill="#DB5290"/>
<path d="M87.8373 183.624C87.8373 183.624 90.6093 146.915 93.4413 140.559L93.6987 137.361L93.5786 130.741L93.2706 113.873L120.153 105.252L119.259 119.491L116.169 138.429C120.783 140.211 87.8373 183.624 87.8373 183.624Z" fill="#FBA479"/>
<path d="M120.628 117.675C120.628 117.675 118.869 129.567 93.5866 132.735L93.4667 126.115L93.1573 109.247L110.801 104.347L115.847 115.739L116.912 118.14C116.521 118.424 121.047 117.403 120.628 117.675Z" fill="#F48656"/>
<path d="M85.7 109.604L85.428 109.588C85.4026 109.675 85.536 109.652 85.7 109.604Z" fill="#EF7950"/>
<path d="M97.204 93.0214C99.1293 82.5614 101.739 72.1574 105.925 62.4281L96.8507 59.7721C97.7493 59.9107 103.763 54.3654 105.277 53.0921C106.937 51.6974 114.453 47.2547 116.084 45.9147C113.24 42.7707 105.075 42.1481 101.028 42.4934C94.0147 43.0948 86.4707 49.4294 82.6413 55.1481C75.244 66.1987 70.8254 79.8441 67.016 92.4961C65.08 98.9254 63.152 105.383 60.8093 111.661C59.624 114.839 67.9427 121.735 71.044 122.86C71.592 121.525 73.276 119.256 73.8173 117.897C73.436 119.581 74.4934 121.721 74.516 123.424C77.9667 124.336 91.1106 126.896 92.7426 125.801C94.6573 124.516 94.0053 116.133 94.3093 113.781C95.208 106.845 95.9373 99.9041 97.204 93.0214Z" fill="#82112F"/>
<path d="M132.06 100.779C129.583 106.601 117.268 119.785 116.849 120.057C110.791 123.977 100.681 125.875 93.5786 126.355C92.7399 126.413 91.9266 126.437 91.1466 126.429C85.5893 126.373 70.2879 104.869 77.4959 86.5507C81.7586 75.7214 83.0412 63.2414 91.2639 55.0027C100.904 45.3427 123.38 53.032 126.991 57.9614C134.985 68.868 137.099 88.9067 132.06 100.779Z" fill="#FBA479"/>
<path d="M91.6734 92.9213C90.5107 93.552 89.3947 93.9773 90.2987 95.6173C91.5601 97.9039 94.8654 98.004 96.2241 97.944C95.4587 97.6493 92.0854 96.1386 91.2214 95.0666C90.6281 94.3306 95.5267 90.832 91.6734 92.9213Z" fill="#F48656"/>
<path d="M84.36 70.416L84.0146 70.7961C85.3853 69.4947 91.3787 69.5374 92.208 71.3521C94.268 64.3841 86.3187 68.02 84.36 70.416Z" fill="#82112F"/>
<path d="M122.731 81.5747L122.877 82.1267C122.169 80.0987 115.599 75.8387 113.593 76.6987C115.564 69.6334 122.043 78.248 122.731 81.5747Z" fill="#82112F"/>
<path d="M85.9907 103.008L85.848 102.975C85.884 103.148 90.0093 109.205 90.9706 111.844C91.652 113.712 101.555 118.884 106.907 105.86C105.851 108.428 89.3107 104.084 85.9907 103.008Z" fill="#D85039"/>
<path d="M98.9786 114.055C96.4653 114.899 93.404 113.939 91.94 111.643C91.94 111.643 90.3266 109.097 91.2866 108.547C91.4106 108.473 91.5773 108.435 91.7947 108.441C93.5467 108.48 101.4 108.9 103.396 109.177C102.455 113.504 101.305 113.28 98.9786 114.055Z" fill="white"/>
<path d="M104.897 106.796C104.235 108.08 103.683 109.352 102.173 109.744C100.031 110.299 97.6013 110.299 95.392 109.869C93.944 109.588 92.576 109.293 91.42 108.62C90.692 108.195 90.0533 107.624 89.5267 106.808C88.8387 105.743 88.1186 104.268 87.8373 102.823L103.299 106.424L104.897 106.796Z" fill="white"/>
<path d="M105.301 106.193C104.639 107.476 103.683 109.352 102.173 109.744C100.031 110.299 97.6013 110.299 95.392 109.869C93.944 109.588 92.576 109.293 91.42 108.62C91.9933 108.793 92.5787 108.931 93.2027 108.972C94.844 109.088 96.4334 109.256 98.0934 109.221C99.3667 109.188 100.611 109.065 101.764 108.491C102.772 107.993 103.069 107.251 103.299 106.424L105.301 106.193Z" fill="#E8E6E6"/>
<path d="M121.371 94.092C121.444 89.304 119.259 81.5054 109.804 85.8467C106.875 86.8134 104.281 88.5467 103.679 88.964L103.583 89.036L103.547 89.056C103.679 89.152 103.809 89.248 103.943 89.3387C104.5 89.7454 105.06 90.1413 105.624 90.5253C106.041 90.8093 106.46 91.0893 106.887 91.3613C107.028 91.456 107.169 91.5454 107.312 91.636C107.453 91.724 107.596 91.8133 107.739 91.904C107.912 92.0133 108.091 92.12 108.265 92.2253L108.873 92.5867C109.212 92.7827 109.552 92.9774 109.897 93.1654L110.105 93.2787C110.309 93.3907 110.516 93.4987 110.721 93.6013L110.777 93.632C110.968 93.732 111.157 93.828 111.348 93.9187C111.469 93.9814 111.592 94.0387 111.719 94.0987C111.852 94.164 111.987 94.2253 112.117 94.284C112.28 94.36 112.448 94.4373 112.616 94.5093C112.796 94.5893 112.98 94.6707 113.167 94.748L113.256 94.7854L113.488 94.876C113.64 94.9413 113.793 95.0014 113.947 95.0574C114.257 95.1787 114.569 95.292 114.883 95.4013C115.041 95.4587 115.2 95.5107 115.356 95.5574C115.512 95.6054 115.671 95.6587 115.831 95.708C115.971 95.7467 116.109 95.7907 116.252 95.8307L116.355 95.8574C116.66 95.9427 116.969 96.0227 117.28 96.1013C117.953 96.2653 118.635 96.396 119.333 96.504C119.613 96.5427 119.897 96.5827 120.177 96.612L120.191 96.6147C120.471 96.6493 120.752 96.6747 121.035 96.696L121.103 96.4694C121.317 95.6894 121.411 94.8973 121.371 94.092Z" fill="white"/>
<path d="M118.969 90.8973C118.315 93.8893 116.159 95.96 114.152 95.5213C112.145 95.0827 111.049 92.3013 111.704 89.3093C112.357 86.3173 114.515 84.248 116.521 84.6866C118.528 85.1253 119.623 87.9053 118.969 90.8973Z" fill="#574984"/>
<path d="M117.721 90.4147C117.264 92.4987 115.848 93.9587 114.556 93.6761C113.261 93.3934 112.584 91.4734 113.04 89.3894C113.495 87.3081 114.912 85.8467 116.205 86.1307C117.497 86.4121 118.176 88.3307 117.721 90.4147Z" fill="#291C51"/>
<path d="M120.427 88.9853L116.169 88.8653C116.169 88.8653 118.779 91.3373 119.752 90.9747C120.245 90.7933 120.427 88.9853 120.427 88.9853Z" fill="white"/>
<path d="M121.035 96.696C121.22 96.0947 121.349 95.1707 121.371 94.092C121.444 89.304 119.259 81.5054 109.804 85.8467C106.803 87.2254 103.931 88.8387 103.583 89.036L103.547 89.056C103.547 89.056 113.184 75.6053 121.259 81.0667C125.313 83.804 123.373 93.3094 121.035 96.696Z" fill="#EF7950"/>
<path d="M120.177 96.612C111.977 97.68 106.169 92.4001 103.943 89.3387C104.5 89.7454 105.06 90.1414 105.624 90.5254C106.041 90.8094 106.46 91.0894 106.887 91.3614C107.028 91.456 107.169 91.5454 107.312 91.6361C107.453 91.7241 107.596 91.8134 107.739 91.904C107.912 92.0134 108.091 92.12 108.265 92.2254L108.873 92.5867C109.212 92.7827 109.552 92.9774 109.897 93.1654L110.105 93.2787C110.309 93.3907 110.516 93.4987 110.721 93.6014L110.777 93.6321C110.968 93.7321 111.157 93.8281 111.348 93.9187C111.469 93.9814 111.592 94.0387 111.719 94.0987C111.852 94.1641 111.987 94.2254 112.117 94.284C112.28 94.36 112.448 94.4374 112.616 94.5094C112.796 94.5894 112.98 94.6707 113.167 94.748L113.256 94.7854L113.488 94.876C113.64 94.9414 113.793 95.0014 113.947 95.0574C114.257 95.1787 114.569 95.292 114.883 95.4014C115.041 95.4587 115.2 95.5107 115.356 95.5574C115.512 95.6054 115.671 95.6587 115.831 95.7081C115.971 95.7467 116.109 95.7907 116.252 95.8307L116.355 95.8574C116.66 95.9427 116.969 96.0227 117.28 96.1014C117.953 96.2654 118.635 96.396 119.333 96.504C119.613 96.5427 119.897 96.5827 120.177 96.612Z" fill="#EF7950"/>
<path d="M80.7973 79.5027C83.468 76.5187 89.1119 72.9254 91.9706 80.7774C93.0693 82.9787 93.5466 85.4654 93.6506 86.052L93.664 86.1494L93.672 86.1813C93.544 86.168 93.4159 86.1547 93.2893 86.1387C92.7453 86.0814 92.2066 86.0187 91.6733 85.944C91.2759 85.8907 90.8826 85.8334 90.488 85.7667C90.356 85.7467 90.2253 85.724 90.0946 85.7013C89.964 85.6787 89.8333 85.6561 89.7026 85.6321C89.544 85.6041 89.3826 85.572 89.2253 85.54L88.6786 85.4294C88.3773 85.364 88.0759 85.2987 87.7759 85.2227L87.5933 85.1787C87.416 85.136 87.2386 85.0907 87.064 85.04L87.016 85.028C86.852 84.9853 86.692 84.94 86.532 84.8907L86.2226 84.7987L85.892 84.6934C85.7586 84.6507 85.6199 84.6067 85.4839 84.5587C85.3373 84.5093 85.188 84.4587 85.0413 84.4027L84.9693 84.3774L84.7866 84.3054C84.6653 84.2614 84.5453 84.2147 84.4267 84.1654C84.184 84.0707 83.9439 83.968 83.7066 83.864C83.5839 83.8107 83.4653 83.7573 83.3506 83.7013L83 83.5321L82.692 83.376L82.6199 83.336C82.3999 83.2214 82.18 83.1013 81.9613 82.9787C81.4893 82.7107 81.032 82.4174 80.5773 82.1C80.4 81.9707 80.2186 81.84 80.0426 81.704L80.0333 81.6987C79.8573 81.5667 79.684 81.428 79.5133 81.2854L79.6039 81.1093C79.9239 80.512 80.32 79.9734 80.7973 79.5027Z" fill="white"/>
<path d="M91.9827 81.0494C91.3293 84.04 89.1707 86.1107 87.1654 85.672C85.1587 85.2334 84.064 82.4521 84.7173 79.4601C85.3707 76.4681 87.528 74.3974 89.5346 74.836C91.54 75.276 92.636 78.056 91.9827 81.0494Z" fill="#574984"/>
<path d="M90.7333 80.5654C90.2787 82.648 88.8613 84.1094 87.5693 83.8267C86.276 83.5427 85.5987 81.6254 86.0533 79.5414C86.508 77.4587 87.9254 75.9987 89.2187 76.2813C90.512 76.5627 91.1893 78.4814 90.7333 80.5654Z" fill="#291C51"/>
<path d="M93.4413 79.1373L89.1827 79.016C89.1827 79.016 91.792 81.488 92.7654 81.1253C93.2587 80.944 93.4413 79.1373 93.4413 79.1373Z" fill="white"/>
<path d="M79.5133 81.2854C79.7493 80.8147 80.1986 80.176 80.7973 79.5027C83.468 76.5187 89.1119 72.9254 91.9706 80.7774C92.8773 83.2707 93.5786 85.8374 93.664 86.1494L93.672 86.1813C93.672 86.1813 95.8679 72.632 88.2346 71.5587C84.4066 71.0173 80.1146 77.9214 79.5133 81.2854Z" fill="#EF7950"/>
<path d="M80.0426 81.704C84.0506 86.8573 90.3039 86.7974 93.2893 86.1387C92.7453 86.0814 92.2066 86.0187 91.6733 85.944C91.2759 85.8907 90.8826 85.8333 90.488 85.7667C90.356 85.7467 90.2253 85.724 90.0946 85.7013C89.964 85.6786 89.8333 85.656 89.7026 85.632C89.544 85.604 89.3826 85.572 89.2253 85.54L88.6786 85.4294C88.3773 85.364 88.0759 85.2987 87.7759 85.2227L87.5933 85.1787C87.416 85.136 87.2386 85.0907 87.064 85.04L87.016 85.028C86.852 84.9853 86.692 84.94 86.532 84.8907L86.2226 84.7987L85.892 84.6934C85.7586 84.6507 85.6199 84.6067 85.4839 84.5587C85.3373 84.5093 85.188 84.4587 85.0413 84.4027L84.9693 84.3774L84.7866 84.3054C84.6653 84.2614 84.5453 84.2147 84.4267 84.1654C84.184 84.0707 83.9439 83.968 83.7066 83.864C83.5839 83.8107 83.4653 83.7573 83.3506 83.7013L83 83.532L82.692 83.376L82.6199 83.336C82.3999 83.2213 82.18 83.1013 81.9613 82.9787C81.4893 82.7107 81.032 82.4173 80.5773 82.1C80.4 81.9707 80.2186 81.84 80.0426 81.704Z" fill="#EF7950"/>
<path d="M104.128 106.657L104.263 106.648C104.572 106.629 104.851 106.619 105.091 106.6H105.101C105.245 106.591 105.38 106.581 105.496 106.571H105.515L105.631 106.561C105.583 106.648 105.323 107.168 104.899 107.919C104.456 108.68 103.849 109.671 103.099 110.721L103.088 110.731L102.916 110.952L102.905 110.961C102.791 111.125 102.675 111.289 102.54 111.452C101.981 112.175 98.2546 114.408 94.8186 113.377H94.808C94.6546 113.339 94.5199 113.291 94.3759 113.233C93.9799 113.08 93.5959 112.887 93.2199 112.637C92.6906 112.28 92.18 111.819 91.6987 111.231L91.6893 111.221C91.0253 110.393 90.188 109.045 89.36 107.679C88.5307 106.292 87.7226 104.876 87.0866 103.895C87.4333 104 87.8186 104.107 88.2333 104.212L88.5119 104.299C89.8986 104.675 91.5733 105.108 93.3066 105.512L93.6346 105.589C94.2013 105.715 94.7506 105.829 95.2893 105.936C97.1773 106.292 98.872 106.484 100.325 106.581C100.961 106.629 101.548 106.657 102.087 106.667H102.444C102.723 106.677 102.973 106.677 103.223 106.667H103.233C103.523 106.667 103.772 106.667 104.023 106.657H104.128ZM95.6946 102.807L95.6267 102.768C94.9533 103.008 94.0959 103.423 93.3453 103.443C92.6039 103.471 91.9293 102.893 91.372 102.469C90.3893 101.709 90.3893 101.612 89.2533 102.036C88.6853 102.239 87.5293 102.7 86.6733 102.7C85.7199 102.441 85.0933 102.268 85.0933 102.268C85.0933 102.268 89.5319 110.105 90.4093 111.981C91.1213 113.503 92.1613 114.563 93.2679 115.284L93.2973 115.304C93.596 115.505 93.9039 115.669 94.2119 115.813C96.2146 116.787 98.2266 116.805 98.8613 116.584C101.933 115.505 104.369 112.501 106.035 109.777C107.335 107.659 108.163 105.724 108.451 105.001C108.528 104.8 108.567 104.693 108.567 104.693C106.603 104.241 101.172 106.619 95.6946 102.807Z" fill="#FC5135"/>
<path d="M92.8613 117.699C93.1053 118.356 93.472 119.059 93.7467 119.739C95.1547 117.913 97.1787 118.171 99.3027 117.961C99.3027 117.961 94.1613 116.768 92.8613 117.699Z" fill="#F48656"/>
<path d="M153.095 91.1267C143.375 41.9361 125.943 41.592 110.888 47.672C104.545 50.2347 100.185 61.3387 100.185 61.3387C100.185 61.3387 118.939 63.772 121.731 80.6027C123.807 93.1107 131.837 92.58 129.147 98.4707C122.541 112.927 116.769 125.6 104.205 131.964C104.912 132.12 119.483 140.111 124.397 138.176C126.528 137.336 128.94 130.224 128.94 130.224L128.343 137.541C128.343 137.541 145.331 138.603 153.5 127.009C155.535 124.12 154.676 99.1254 153.095 91.1267Z" fill="#82112F"/>
<path d="M102.831 47.8521C99.796 47.4134 96.184 47.9267 93.2186 48.648C91.3186 49.108 87.5427 50.8467 86.76 52.512L83.9146 58.8521C86.3186 57.4507 90.0213 57.94 92.6586 58.5174C94.6693 58.9574 97.0253 59.488 98.6173 60.8254C99.3053 58.2774 101.917 55.6987 103.731 53.8627C105.497 52.0747 107.277 50.7921 109.309 49.4934C107.175 48.9027 105.063 48.1747 102.831 47.8521Z" fill="#82112F"/>
<path d="M136.633 93.5187C134.673 92.1854 131.552 93.1947 129.893 94.3107C127.467 95.9467 123.489 102.839 125.332 105.092C128.28 108.699 136.041 103.701 137.677 99.5493C138.361 97.8147 138.405 94.7227 136.633 93.5187Z" fill="#FBA479"/>
<path d="M137.073 97.6134C137.359 92.3507 129.751 93.3334 128.705 97.484C130.425 96.9334 131.1 99.4027 130.349 100.571C129.515 101.868 127.473 101.696 126.985 100.209C126.603 102.521 130.001 102.756 131.337 101.672C133.003 100.319 132.609 97.4307 130.667 96.5294C132.636 94.0387 137.287 95.564 136.665 98.8667L137.073 97.6134Z" fill="#F48656"/>
<path d="M131.673 204.997C129.412 205.604 127.12 206.143 124.819 206.605C124.924 206.393 125.031 206.191 125.145 205.988C125.811 204.737 126.543 203.572 127.341 202.493L138.067 190.488V190.507C137.084 192.557 135.813 195.244 134.399 198.479C133.715 200.028 133.003 201.704 132.261 203.504C132.059 203.996 131.867 204.496 131.673 204.997Z" fill="#DB5290"/>
<path d="M152.961 196.679C150.747 197.843 148.484 198.932 146.183 199.923L145.913 200.039C144.757 200.539 143.603 201.011 142.437 201.464C141.524 196.679 140.589 191.835 139.656 187.051C139.636 186.925 139.608 186.809 139.588 186.685C139.395 185.703 139.203 184.731 139.011 183.757C138.972 183.517 138.924 183.277 138.876 183.027C135.371 165.147 131.981 148.616 129.892 140C129.892 140 136.228 138.699 142.679 140.596L142.717 140.605C145.451 141.415 148.205 142.801 150.505 145.103C156.052 150.648 160.067 169.884 162.656 190.912C161.365 191.788 160.056 192.625 158.728 193.433C157.284 194.309 155.831 195.157 154.348 195.956C153.943 196.177 153.529 196.399 153.096 196.611L152.961 196.679Z" fill="#EA6CA0"/>
<path d="M142.697 170.212C143.361 177.461 144.449 188.332 145.913 200.039C144.757 200.539 143.603 201.011 142.437 201.464C142.091 201.588 141.753 201.723 141.408 201.848L141.235 201.916C140.455 198.036 139.703 194.204 138.981 190.507V188.581L138.991 188.572C138.981 186.973 138.991 185.365 139.011 183.757C139.02 183.383 139.02 183.007 139.029 182.641C139.164 174.833 139.723 167.092 141.908 161.171C141.908 161.171 142.177 164.608 142.697 170.201V170.212Z" fill="#DB5290"/>
</svg>
