<svg width="209" height="209" viewBox="0 0 209 209" fill="none" xmlns="http://www.w3.org/2000/svg">
<path d="M192.571 160.131C187.005 168.941 180.333 176.613 172.863 183.112C172.391 183.517 171.919 183.921 171.447 184.316C171.091 184.615 170.725 184.913 170.36 185.212C170.003 185.5 169.647 185.789 169.291 186.068C167.432 187.552 165.536 188.957 163.601 190.285C163.292 190.497 162.975 190.709 162.657 190.912C161.367 191.788 160.057 192.625 158.729 193.433C157.284 194.309 155.831 195.157 154.348 195.956C153.944 196.177 153.529 196.399 153.097 196.611L152.961 196.679C150.748 197.843 148.485 198.932 146.184 199.923L145.915 200.039C144.759 200.539 143.604 201.011 142.439 201.464C142.092 201.588 141.755 201.723 141.408 201.848L141.235 201.916C140.965 202.031 140.676 202.128 140.397 202.233C140.215 202.301 140.032 202.368 139.839 202.436C139.715 202.484 139.588 202.532 139.453 202.581L139.127 202.696C137.701 203.196 136.257 203.668 134.813 204.101L134.784 204.111L134.476 204.208C134.225 204.284 133.976 204.352 133.725 204.429C133.041 204.621 132.368 204.813 131.675 204.997C130.799 205.228 129.913 205.459 129.027 205.671C127.631 206.008 126.225 206.325 124.82 206.605L124.761 206.615C121.036 207.347 117.281 207.876 113.507 208.193C112.872 208.261 112.255 208.3 111.62 208.337C110.995 208.396 110.368 208.424 109.743 208.444C108.741 208.511 107.749 208.531 106.748 208.549C106.536 208.559 106.324 208.569 106.123 208.559C105.843 208.579 105.564 208.579 105.284 208.569C105.063 208.579 104.841 208.588 104.611 208.588C104.168 208.588 103.716 208.579 103.272 208.569C100.799 208.54 98.324 208.415 95.8586 208.212C95.5706 208.184 95.272 208.165 94.9827 208.125C91.796 207.837 88.628 207.395 85.4506 206.797C85.2106 206.749 84.96 206.701 84.7093 206.653C84.488 206.615 84.2666 206.576 84.0453 206.537L83.8053 206.48C83.4293 206.403 83.0626 206.325 82.668 206.239L82.3506 206.172C81.908 206.075 81.4747 205.979 81.032 205.873C77.296 205.007 73.58 203.919 69.912 202.609C69.6426 202.513 69.372 202.417 69.112 202.32C68.7266 202.185 68.352 202.041 67.976 201.896C66.8306 201.464 65.6853 201.011 64.5493 200.529L64.492 200.5C63.9226 200.279 63.364 200.039 62.7973 199.779C62.6627 199.721 62.5373 199.664 62.412 199.596C62.0933 199.451 61.776 199.316 61.468 199.163C60.9573 198.941 60.448 198.709 59.9467 198.479C59.4853 198.248 59.032 198.027 58.58 197.805C58.204 197.612 57.8293 197.42 57.4533 197.227L57.2413 197.121C56.808 196.909 56.3746 196.668 55.9506 196.447L55.8267 196.38L55.6426 196.275C55.1906 196.043 54.748 195.803 54.3053 195.561C54.0453 195.417 53.7853 195.273 53.5253 195.119C52.928 194.781 52.3213 194.435 51.724 194.079C51.4747 193.925 51.2147 193.78 50.964 193.616L50.6747 193.444C50.3093 193.223 49.944 193 49.5866 192.779C49.4333 192.683 49.2786 192.587 49.1253 192.491C48.972 192.393 48.8066 192.288 48.6533 192.192C48.2773 191.951 47.8933 191.7 47.528 191.451L47.228 191.248L47.1413 191.191L47.104 191.171C46.824 190.999 46.564 190.825 46.304 190.623C45.968 190.42 45.6494 190.199 45.332 189.968L45.264 189.919L45.1493 189.843C45.004 189.737 44.8693 189.64 44.7346 189.544C44.6 189.448 44.4653 189.361 44.34 189.275C44.128 189.12 43.9173 188.976 43.7146 188.832L43.6467 188.775C42.8387 188.196 42.0493 187.609 41.2786 187.003C40.768 186.617 40.268 186.232 39.7667 185.837C39.1693 185.356 38.564 184.865 37.976 184.373L37.696 184.143C36.8694 183.46 36.0507 182.747 35.2613 182.015C34.6253 181.457 34 180.879 33.384 180.292C31.7373 178.771 30.1773 177.201 28.6667 175.584L28.6173 175.527C27.4626 174.293 26.356 173.041 25.268 171.761C23.708 169.903 22.196 168.007 20.772 166.052C19.972 164.955 19.192 163.847 18.432 162.721C18.2974 162.528 18.172 162.336 18.0373 162.143C17.8253 161.825 17.6133 161.499 17.4013 161.171L17.3533 161.084C16.1973 159.303 15.0907 157.483 14.06 155.635C13.936 155.432 13.8093 155.201 13.704 154.971C12.972 153.691 12.2987 152.381 11.644 151.061C11.2107 150.185 10.7866 149.329 10.3733 148.452C8.9573 145.381 7.68663 142.261 6.57063 139.084C6.05996 137.611 5.56932 136.139 5.12532 134.636C5.08665 134.521 5.04931 134.405 5.01998 134.28C4.93331 133.972 4.83733 133.673 4.74133 133.356C4.5 132.519 4.26931 131.671 4.04797 130.833C-2.95203 103.963 0.754658 74.3653 16.7667 49.0453C47.44 0.490626 111.668 -13.9893 160.212 16.6853C208.765 47.36 223.245 111.587 192.571 160.131Z" fill="#F7F2DA"/>
<path d="M171.447 184.316C171.091 184.615 170.725 184.913 170.36 185.212C170.003 185.5 169.647 185.789 169.291 186.068C167.432 187.552 165.536 188.957 163.601 190.285C163.292 190.497 162.975 190.709 162.657 190.912C161.367 191.788 160.057 192.625 158.729 193.433C157.284 194.309 155.831 195.157 154.348 195.956C153.944 196.177 153.529 196.399 153.097 196.611L152.961 196.679C150.748 197.843 148.485 198.932 146.184 199.923L145.915 200.039C144.759 200.539 143.604 201.011 142.439 201.464C142.092 201.588 141.755 201.723 141.408 201.848L141.235 201.916C140.965 202.031 140.676 202.128 140.397 202.233C140.215 202.301 140.032 202.368 139.839 202.436C139.715 202.484 139.588 202.532 139.453 202.581L139.127 202.696C137.701 203.196 136.257 203.668 134.813 204.101L134.784 204.111L134.476 204.208C134.225 204.284 133.976 204.352 133.725 204.429C130.135 200.107 126.668 195.611 123.963 191.036C118.6 181.939 116.289 172.523 122.268 163.481C122.441 163.221 122.615 162.961 122.797 162.711C122.797 162.711 131.684 157.099 134.968 157.493C136.277 157.647 137.489 157.945 138.655 158.36C147.407 161.479 152.712 171.453 164.371 181.592C164.4 181.611 169.879 183.7 171.447 184.316Z" fill="#FFCC7B"/>
<path d="M125.012 180.349C124.907 191.22 129.056 198.431 134.813 204.101L134.784 204.111L134.476 204.208C134.225 204.284 133.976 204.352 133.725 204.429C133.041 204.621 132.368 204.813 131.675 204.997C130.799 205.228 129.913 205.459 129.027 205.671C126.032 201.713 124.175 197.131 123.963 191.036C123.857 187.917 124.184 184.393 125.012 180.349Z" fill="#E8A749"/>
<path d="M171.841 184.461L171.755 184.421L171.784 184.393L171.841 184.461Z" fill="#E8A749"/>
<path d="M139.127 202.696C137.701 203.196 136.257 203.668 134.813 204.101L134.784 204.111L134.476 204.208C134.225 204.284 133.976 204.352 133.725 204.429C133.041 204.621 132.368 204.813 131.675 204.997C130.799 205.228 129.913 205.459 129.027 205.671C127.631 206.008 126.225 206.325 124.82 206.605L124.761 206.615C121.036 207.347 117.281 207.876 113.507 208.193C112.872 208.261 112.255 208.3 111.62 208.337C110.995 208.396 110.368 208.424 109.743 208.444C108.741 208.511 107.749 208.531 106.748 208.549C106.536 208.559 106.324 208.569 106.123 208.559C105.843 208.579 105.564 208.579 105.284 208.569C105.063 208.579 104.841 208.588 104.611 208.588C104.168 208.588 103.716 208.579 103.272 208.569C100.799 208.54 98.324 208.415 95.8586 208.212C95.5706 208.184 95.272 208.165 94.9827 208.125C91.796 207.837 88.628 207.395 85.4506 206.797C85.2106 206.749 84.9599 206.701 84.7093 206.653C84.4879 206.615 84.2666 206.576 84.0453 206.537L83.8053 206.48C83.4293 206.403 83.0626 206.325 82.6679 206.239L82.3506 206.172C81.908 206.075 81.4747 205.979 81.032 205.873C77.296 205.007 73.58 203.919 69.912 202.609C69.6426 202.513 69.372 202.417 69.112 202.32C68.7266 202.185 68.3519 202.041 67.9759 201.896C66.8306 201.464 65.6853 201.011 64.5493 200.529L64.492 200.5C63.9226 200.279 63.364 200.039 62.7973 199.779C62.6626 199.721 62.5373 199.664 62.412 199.596C62.0933 199.451 61.7759 199.316 61.4679 199.163C60.9573 198.941 60.448 198.709 59.9467 198.479C59.4853 198.248 59.032 198.027 58.58 197.805C58.204 197.612 57.8293 197.42 57.4533 197.227L57.2413 197.121C56.808 196.909 56.3746 196.668 55.9506 196.447L55.8267 196.38L55.6426 196.275C55.1906 196.043 54.748 195.803 54.3053 195.561C54.0453 195.417 53.7853 195.273 53.5253 195.119C52.928 194.781 52.3213 194.435 51.724 194.079C51.4747 193.925 51.2146 193.78 50.964 193.616L50.6746 193.444C50.3093 193.223 49.944 193 49.5866 192.779C49.4333 192.683 49.2786 192.587 49.1253 192.491C48.972 192.393 48.8066 192.288 48.6533 192.192C48.2773 191.951 47.8933 191.7 47.528 191.451L47.228 191.248L47.1413 191.191L47.1039 191.171C46.8239 190.999 46.5639 190.825 46.3039 190.623C45.9679 190.42 45.6493 190.199 45.332 189.968L45.264 189.919L45.1493 189.843C45.004 189.737 44.8693 189.64 44.7346 189.544C44.5999 189.448 44.4653 189.361 44.3399 189.275C44.1279 189.12 43.9173 188.976 43.7146 188.832L43.6467 188.775C42.8387 188.196 42.0493 187.609 41.2786 187.003C40.768 186.617 40.268 186.232 39.7666 185.837C39.1693 185.356 38.564 184.865 37.976 184.373L37.696 184.143C36.8693 183.46 36.0506 182.747 35.2613 182.015C34.6253 181.457 34 180.879 33.384 180.292C31.7373 178.771 30.1773 177.201 28.6666 175.584L28.6173 175.527C27.4626 174.293 26.3559 173.041 25.2679 171.761C23.7079 169.903 22.196 168.007 20.772 166.052C19.972 164.955 19.192 163.847 18.432 162.721C19.6347 161.239 21.08 159.871 22.8026 158.648C27.6266 155.164 34.6066 152.776 44.456 152.083C54.8733 151.34 61.9013 146.431 70.4893 144.043C70.932 143.917 71.3746 143.792 71.828 143.696C73.3493 143.321 74.9186 143.041 76.584 142.888C78.24 142.715 79.9826 142.676 81.8399 142.791L104.437 148.183L104.456 148.193C104.861 148.443 105.284 148.684 105.737 148.905C106.285 149.195 106.864 149.453 107.48 149.704C115.991 153.132 130.288 153.815 138.655 158.36C140.427 159.312 141.928 160.44 143.055 161.805C150.333 170.625 141.996 192.509 139.127 202.696Z" fill="#FFCC7B"/>
<path d="M104.595 146.463L84.8666 142.665C79.2826 140.127 77.7853 138.609 73.1053 141.743C55.7666 153.355 88.7626 181.623 97.3746 183.384C112.433 186.463 116.061 155.791 104.595 146.463Z" fill="white"/>
<path d="M104.595 146.463L84.8666 138.039C79.2826 135.5 71.912 140.587 71 146.144C69.22 157.004 88.7626 176.999 97.3746 178.757C112.433 181.837 109.117 154.251 104.595 146.463Z" fill="#FBA479"/>
<path d="M107.583 115.056L104.077 151.917L73.1053 141.743C73.1053 141.743 76.4106 120.049 81.0679 100.803C82.8519 93.4334 107.583 115.056 107.583 115.056Z" fill="#FBA479"/>
<path d="M106.856 122.649L104.807 144.193C91.176 147.732 81.3413 128.92 78.9773 122.745C76.164 115.395 79.0907 108.873 79.0907 108.873L100.223 118.168L106.856 122.649Z" fill="#EF7950"/>
<path d="M125.709 91.384C127.439 88.944 132.827 88.8773 134.735 91.148C136.857 93.672 131.749 105.713 128.989 105.501C122.58 105.009 125.709 91.384 125.709 91.384Z" fill="#FBA479"/>
<path d="M125.848 97.9613C125.821 97.0267 125.801 95.98 125.913 95.0507C125.972 94.5507 126.132 94.0214 126.247 93.544C126.308 93.284 126.412 92.9573 126.515 92.784C127.477 91.1507 129.455 91.2533 130.849 91.2173C131.428 91.2027 132.427 91.188 132.907 91.5173C133.289 91.7773 133.443 92.412 133.644 92.7947C132.605 91.572 130.083 91.988 128.815 92.692C127.493 93.4267 126.891 95.72 127.248 97.1587C128.436 97.1147 129.4 98.5147 129.183 99.612C128.965 100.705 126.744 101.172 126.477 100.073C128.391 99.836 126.944 98.2093 125.848 97.9613Z" fill="#EF7950"/>
<path d="M123.809 58.0013C124.717 57.6066 128.089 54.708 128.708 55.8C129.432 57.08 127.361 79.2986 126.975 85.6093C124.965 76.5733 120.984 67.7734 119.192 58.7934L123.809 58.0013Z" fill="#261411"/>
<path d="M74.8627 108.031C77.0294 92.564 81.6573 75.684 83.744 60.8053C83.744 60.8053 97.9614 52.8227 100.163 52.2827C101.539 51.9453 102.955 51.74 104.379 51.6733C105.795 51.8186 107.196 52.0973 108.555 52.5107C110.723 53.172 124.484 61.916 124.484 61.916C125.756 76.8867 128.773 93.0014 130.096 108.56C130.635 114.905 129.779 122.463 124.767 126.817C117.552 133.088 121.988 141.712 110.844 141.408C94.4493 140.961 84.9533 127.44 80.4947 121.524C76.4987 116.223 73.9787 114.333 74.8627 108.031Z" fill="#FBA479"/>
<path d="M86.6426 91.8706V91.8987L86.6467 91.912L86.8227 92.224C88.944 95.468 97.008 95.0586 99.22 92.8066C96.3187 90.3466 96.9226 86.1947 93.7066 86.1627C90.1546 86.12 87.3826 88.5306 86.6426 91.8706Z" fill="#EF7950"/>
<path d="M86.6414 91.896C86.6414 91.896 91.32 101.528 99.316 93.1066C96.1374 90.668 95.572 88.316 92.3027 88.26C88.848 88.2013 87.3107 88.3986 86.8173 90.4453L86.8147 90.464C86.7253 90.8333 86.672 91.264 86.6494 91.768L86.6414 91.896Z" fill="#EF7950"/>
<path d="M115.113 93.768C116.051 94.6574 117.899 95.104 119.804 95.04C121.405 94.9827 123.048 94.5721 124.228 93.7587C124.948 93.2641 125.491 92.6174 125.751 91.8201L125.772 91.7614C125.435 90.6401 124.905 89.6547 124.228 88.8507C123.12 87.5334 121.631 86.7214 119.973 86.6534C119.684 86.6361 119.393 86.6454 119.095 86.6787C116.347 86.9961 117.325 91.0614 115.113 93.768Z" fill="#EF7950"/>
<path d="M125.773 91.7586C125.773 91.7586 122.831 101.741 115.063 94.0706C117.513 91.3679 117.739 88.9826 120.531 88.6399C123.48 88.2799 124.816 88.3413 125.463 90.332L125.469 90.3493C125.584 90.708 125.677 91.1333 125.752 91.632L125.773 91.7586Z" fill="#EF7950"/>
<path d="M116.984 104.319C118 104.225 118.931 104.637 119.115 105.725C119.435 107.625 116.3 108.369 114.877 108.933C112.199 109.996 108.363 109.816 106.024 108.105C113.143 108.901 116.984 104.319 116.984 104.319Z" fill="#EF7950"/>
<path d="M90.6066 107.751C91.3386 112.055 96.4173 122.611 102.644 124.623C107.448 126.175 116.111 120.615 118.992 118.625C117.051 118.192 113.664 117.123 111.989 116.584C110.108 115.975 94.9399 111.015 90.6066 107.751Z" fill="#60281F"/>
<path d="M116.971 117.604L116.668 117.927C116.501 118.103 116.332 118.276 116.159 118.453C114.936 119.668 113.564 120.771 112.315 121.111L112.159 121.144C110.067 121.467 102.703 118.72 98.048 116.671C96.1893 115.852 94.76 115.145 94.2706 114.789L94.2506 114.776L94.1173 114.66C93.0546 113.389 92.9214 110.739 92.8214 108.56C97.668 111.187 107.456 114.676 113.951 116.697C114.827 116.971 115.639 117.217 116.372 117.431C116.581 117.491 116.781 117.547 116.971 117.604Z" fill="white"/>
<path d="M116.668 117.927C116.501 118.103 116.332 118.276 116.159 118.453C114.943 119.681 113.581 120.824 112.315 121.111L112.159 121.144C110.067 121.467 102.703 118.72 98.048 116.671C96.1893 115.852 94.76 115.145 94.2706 114.789L94.2506 114.776L94.1173 114.66C95.96 115.229 110.484 120.035 111.199 119.951C111.679 119.899 111.639 119.888 112.005 119.463C112.685 118.659 113.388 117.68 113.951 116.697C114.827 116.971 115.639 117.217 116.372 117.431L116.668 117.927Z" fill="#E8E6E6"/>
<path d="M116.607 120.195L116.357 120.339C116.223 120.425 116.077 120.512 115.933 120.599C115.085 121.109 114.143 121.639 113.151 122.159C112.881 122.303 112.601 122.437 112.323 122.573C112.092 122.688 111.861 122.804 111.629 122.909C111.36 123.035 111.091 123.16 110.811 123.276C110.58 123.381 110.349 123.477 110.117 123.564L110.001 123.612L109.944 123.641C109.713 123.728 109.483 123.815 109.251 123.901C109.001 123.997 108.751 124.075 108.5 124.161L108.347 124.209C107.777 124.383 107.22 124.536 106.671 124.643H106.661C106.469 124.681 106.285 124.72 106.093 124.749C105.824 124.797 105.555 124.835 105.295 124.855C105.035 124.884 104.775 124.893 104.524 124.893C104.351 124.893 104.187 124.884 104.024 124.873H103.956L103.705 124.845L103.657 124.835L103.513 124.816H103.484L103.417 124.807H103.407L103.089 124.739L103.023 124.729C102.897 124.691 102.772 124.663 102.647 124.624C102.435 124.547 102.223 124.469 102.011 124.383L101.963 124.363L101.837 124.315L101.723 124.257L101.597 124.2L101.579 124.191L101.308 124.056L101.048 123.911L100.788 123.767L100.509 123.584L100.277 123.429C100.105 123.313 99.932 123.199 99.768 123.064L99.72 123.025L99.624 122.957L99.5173 122.881L99.2867 122.688L99.228 122.64C98.988 122.447 98.7667 122.245 98.5453 122.033L98.488 121.976L98.208 121.707L97.9387 121.437L97.8134 121.311L97.6013 121.08C97.4466 120.917 97.2934 120.752 97.1494 120.58L96.9173 120.309C96.224 119.492 95.58 118.607 94.9733 117.692C94.8667 117.528 94.7614 117.364 94.6654 117.2C94.5587 117.036 94.4627 116.873 94.3574 116.709C94.2507 116.545 94.1547 116.372 94.0587 116.209C93.8653 115.881 93.6827 115.555 93.5093 115.217L93.5 115.208H93.4907C93.1147 114.524 92.7774 113.84 92.46 113.167C92.3734 112.955 92.2774 112.752 92.1907 112.54L92.056 112.243L92.0467 112.223L91.9214 111.915L91.796 111.616C91.728 111.463 91.6707 111.317 91.6227 111.173C91.5653 111.028 91.5173 110.885 91.4587 110.74V110.731C91.336 110.412 91.2347 110.097 91.14 109.791C91.096 109.651 91.036 109.497 90.9973 109.363L90.9294 109.112L90.852 108.872L90.8333 108.795C90.804 108.669 90.7653 108.535 90.7373 108.42C90.708 108.295 90.6894 108.179 90.66 108.063L90.6027 107.755V107.747H90.612V107.755L90.824 107.9L91.0346 108.063H91.0453L91.2854 108.217C91.4494 108.324 91.6227 108.429 91.8147 108.545C91.9787 108.641 92.1427 108.737 92.316 108.833C92.48 108.931 92.6627 109.036 92.8453 109.132H92.8547L93.0667 109.239C93.2693 109.344 93.472 109.449 93.6827 109.547C93.808 109.623 93.9427 109.691 94.0774 109.748L94.4147 109.912L94.752 110.065C94.8774 110.133 95.0013 110.192 95.128 110.249C95.3773 110.364 95.6373 110.48 95.8973 110.596C96.032 110.653 96.1667 110.711 96.292 110.769C96.5613 110.885 96.832 111 97.1013 111.125C97.7746 111.404 98.468 111.693 99.1706 111.972C99.4986 112.108 99.8347 112.232 100.163 112.367C100.557 112.521 100.961 112.685 101.356 112.839C101.597 112.925 101.837 113.023 102.079 113.109C102.319 113.204 102.569 113.291 102.801 113.377L103.071 113.484C103.388 113.6 103.696 113.715 104.013 113.831C104.148 113.879 104.273 113.927 104.408 113.975C104.533 114.023 104.659 114.072 104.784 114.111L104.823 114.119C105.015 114.196 105.197 114.253 105.381 114.321L105.535 114.38C105.805 114.476 106.064 114.563 106.315 114.659C106.324 114.659 106.344 114.668 106.7 114.793L107.037 114.909L107.065 114.919C107.249 114.976 107.412 115.044 107.576 115.101H107.585L107.788 115.168C108.019 115.247 108.251 115.323 108.461 115.409L108.779 115.516L109.088 115.621L109.28 115.689L109.405 115.727L109.685 115.824C109.829 115.872 109.964 115.92 110.089 115.959C111.013 116.267 111.677 116.488 111.985 116.584C112.236 116.661 112.515 116.757 112.833 116.853C112.997 116.901 113.16 116.96 113.333 117.017L113.44 117.047L113.689 117.123H113.699C114.305 117.316 114.971 117.519 115.635 117.72C115.875 117.788 116.125 117.864 116.367 117.932L116.588 118H116.597L116.848 118.067L117.079 118.135C117.32 118.201 117.56 118.269 117.791 118.327C118.06 118.404 118.321 118.472 118.561 118.528C118.716 118.557 118.86 118.596 118.995 118.625C118.436 119.011 117.676 119.521 116.751 120.099L116.607 120.195ZM116.972 117.605C116.78 117.556 116.597 117.499 116.395 117.441L116.376 117.432C116.173 117.373 115.972 117.316 115.769 117.248L115.664 117.22L115.452 117.161L115.211 117.084C115.009 117.027 114.807 116.96 114.595 116.901C114.383 116.835 114.161 116.767 113.949 116.7C113.545 116.575 113.121 116.44 112.689 116.305C112.476 116.237 112.265 116.169 112.044 116.093C111.6 115.959 111.157 115.804 110.695 115.651H110.676C110.455 115.573 110.224 115.496 109.993 115.419L109.82 115.361C109.645 115.304 109.472 115.247 109.3 115.179L109.145 115.131C108.963 115.072 108.779 115.005 108.587 114.947C108.347 114.861 108.115 114.784 107.875 114.697C107.635 114.611 107.393 114.533 107.152 114.447L106.921 114.369L106.691 114.283H106.681L106.671 114.273L106.42 114.187C106.016 114.052 105.612 113.897 105.208 113.753C105.063 113.705 104.928 113.648 104.784 113.6C104.611 113.541 104.437 113.475 104.264 113.407C104.013 113.32 103.753 113.224 103.495 113.128C103.349 113.069 103.205 113.023 103.071 112.964L102.801 112.868C102.617 112.8 102.444 112.733 102.272 112.665H102.261C102.069 112.588 101.876 112.521 101.693 112.444C101.568 112.405 101.452 112.357 101.328 112.309C101.212 112.261 101.096 112.213 100.972 112.165C100.143 111.847 99.3347 111.529 98.5547 111.201L98.2267 111.067L97.9 110.932C97.4667 110.749 97.0533 110.567 96.648 110.393C96.224 110.211 95.8107 110.028 95.4253 109.844C95.2227 109.757 95.04 109.671 94.8574 109.584C94.6947 109.508 94.54 109.431 94.396 109.363L94.308 109.315L94.2227 109.277C93.7213 109.036 93.2507 108.795 92.8267 108.564C91.4014 107.793 90.4094 107.101 90.044 106.543C90.0054 106.985 90.072 107.601 90.236 108.343C90.612 110.047 91.488 112.435 92.7587 114.889C93.7987 116.892 95.0987 118.933 96.5813 120.685C98.324 122.736 100.327 124.383 102.493 125.085C102.733 125.163 102.984 125.22 103.253 125.268C103.657 125.336 104.072 125.375 104.504 125.375C105.179 125.375 105.881 125.297 106.613 125.153H106.623V125.143C107.653 124.951 108.723 124.624 109.791 124.219C115.056 122.216 120.247 118.336 120.247 118.336C119.957 118.375 118.753 118.096 116.972 117.605Z" fill="#EF7950"/>
<path d="M111.88 73.364C112.456 73.3547 113.543 73.4066 113.543 73.4066L114.868 75.4987C114.868 75.4987 115.028 73.6693 115.339 73.712C123.543 74.816 125.412 80.6893 125.412 80.6893C123.184 79.556 120.867 78.748 118.587 78.4346C115.459 78.0053 113.617 78.4867 112.052 79.896C111.812 77.7334 111.695 75.5413 111.88 73.364Z" fill="#261411"/>
<path d="M97.456 67.1854C96.8867 67.2787 95.828 67.5227 95.828 67.5227L94.892 69.8161C94.892 69.8161 94.412 68.0427 94.1134 68.14C86.2347 70.6827 85.436 76.7934 85.436 76.7934C87.428 75.2827 89.5654 74.0774 91.7534 73.364C94.756 72.3867 96.6534 72.5347 98.444 73.644C98.2974 71.472 98.024 69.2974 97.456 67.1854Z" fill="#261411"/>
<path d="M86.6387 91.8987L86.648 91.912L86.8493 92.224C89.288 95.468 98.552 95.0586 101.093 92.8066C97.7587 90.3466 98.4533 86.1947 94.7587 86.1627C90.6787 86.12 87.4933 88.5306 86.644 91.8706L86.6387 91.8987Z" fill="white"/>
<path d="M89.184 90.7614C89.256 93.3427 90.8894 95.4014 92.8321 95.3614C94.7734 95.3187 96.2907 93.192 96.2173 90.6107C96.144 88.028 94.5093 85.9694 92.568 86.008C90.628 86.0507 89.1107 88.1774 89.184 90.7614Z" fill="#6D4A44"/>
<path d="M90.332 91.004C90.3787 92.6626 91.4266 93.984 92.672 93.9574C93.9186 93.9307 94.8919 92.5653 94.8453 90.9067C94.7986 89.2507 93.7506 87.9293 92.5039 87.956C91.2573 87.9827 90.2853 89.348 90.332 91.004Z" fill="#44322E"/>
<path d="M93.0453 89.192L97.0373 87.5346C97.0373 87.5346 98.1093 89.4747 97.6226 89.9107C96.8146 90.6374 93.0453 89.192 93.0453 89.192Z" fill="white"/>
<path d="M86.8494 92.224C87.8974 93.8347 93.0507 100.584 101.205 93.1066C100.671 87.0653 98.0907 79.9346 94.3334 79.8786C90.8654 79.8293 87.7573 85.4947 86.848 90.4467L86.8414 90.464C86.764 90.9093 86.6974 91.344 86.6521 91.7693L86.644 91.8706C87.4934 88.5306 90.6787 86.12 94.7587 86.1627C98.4534 86.1947 97.7587 90.3466 101.093 92.8066C98.5521 95.0586 89.288 95.468 86.8494 92.224Z" fill="#EF7950"/>
<path d="M115.507 81.9467C115.507 81.9467 114.267 89.7094 113.749 92.2774C113.477 93.624 112.499 96.9094 113.189 101.852C110.611 98.9547 110.007 88.8947 115.507 81.9467Z" fill="#EF7950"/>
<path d="M114.412 93.6214C115.348 94.5107 117.196 94.9574 119.101 94.8934C120.703 94.836 122.345 94.4253 123.525 93.612C124.245 93.1173 124.787 92.4707 125.048 91.6733L125.069 91.6134C124.732 90.4934 124.203 89.5067 123.527 88.7027C122.417 87.3867 120.927 86.5734 119.271 86.5054C118.981 86.4894 118.692 86.4987 118.392 86.5321C115.644 86.8494 116.623 90.916 114.412 93.6214Z" fill="white"/>
<path d="M115.824 90.5774C116.005 93.2814 117.588 95.3774 119.36 95.2587C121.129 95.1387 122.417 92.8508 122.235 90.1468C122.053 87.4428 120.471 85.3441 118.699 85.4655C116.928 85.5841 115.641 87.8734 115.824 90.5774Z" fill="#6D4A44"/>
<path d="M116.972 90.3267C117.088 92.0627 118.105 93.408 119.24 93.3307C120.376 93.2547 121.204 91.7854 121.087 90.0494C120.969 88.3147 119.953 86.9707 118.817 87.0453C117.681 87.1227 116.855 88.5921 116.972 90.3267Z" fill="#44322E"/>
<path d="M119.42 88.6614L123.281 87.472C123.281 87.472 123.953 89.6307 123.448 90.0187C122.607 90.6667 119.42 88.6614 119.42 88.6614Z" fill="white"/>
<path d="M114.361 93.9227C121.773 101.243 124.792 92.488 125.048 91.6733C124.787 92.4707 124.245 93.1173 123.525 93.612C122.345 94.4253 120.703 94.8361 119.101 94.8934C117.196 94.9574 115.348 94.5107 114.412 93.6214C116.623 90.9161 115.644 86.8494 118.392 86.5321C118.692 86.4987 118.981 86.4894 119.271 86.5054C120.927 86.5734 122.417 87.3867 123.527 88.7027C124.203 89.5067 124.732 90.4934 125.069 91.6134L125.049 91.484C124.969 91.064 124.871 90.6387 124.768 90.2027L124.757 90.1854C124.273 84.7761 119.595 80.4987 117.017 80.8134C114.227 81.1561 114.095 87.8774 114.361 93.9227Z" fill="#EF7950"/>
<path d="M80.364 57.1227C81.072 55.9027 99.316 39.4814 133.644 42.9454C137.507 43.3334 130.092 54.468 130.092 54.468C126.664 61.6253 119.612 66.712 118.452 66.564C117.523 66.444 98.5133 57.1533 97.5906 56.8427C83.4786 62.264 77.8959 95.9414 77.0146 96.808C77.1786 93.056 73.1053 69.636 80.364 57.1227Z" fill="#261411"/>
<path d="M76.472 86.8907C74.16 84.5907 68.3586 85.528 66.7333 88.324C64.9253 91.4334 72.664 103.413 75.588 102.671C82.3813 100.944 76.472 86.8907 76.472 86.8907Z" fill="#FBA479"/>
<path d="M77.5533 93.9827C77.408 92.9733 77.2346 91.8466 76.94 90.8666C76.7826 90.3426 76.5107 89.8027 76.2987 89.3107C76.1827 89.044 76.012 88.712 75.8706 88.5453C74.5293 86.9706 72.424 87.4493 70.9187 87.6733C70.296 87.764 69.22 87.936 68.7654 88.3786C68.4027 88.7306 68.356 89.4413 68.212 89.8893C69.0986 88.3826 71.888 88.3573 73.3813 88.876C74.9386 89.4186 76.0134 91.7693 75.8987 93.3827C74.6147 93.5573 73.84 95.24 74.28 96.38C74.7173 97.5133 77.192 97.5986 77.272 96.3679C75.172 96.4719 76.4213 94.452 77.5533 93.9827Z" fill="#EF7950"/>
<path d="M96.3907 124.928C99.228 125.848 103.423 127.544 104.719 130.243L105.305 127.411C102.835 125.769 99.3254 125.537 96.3907 124.928Z" fill="#EF7950"/>
<path d="M46.4773 182.4C46.2373 184.875 45.8426 187.417 45.332 189.968L45.2639 189.919L45.1493 189.843C45.0039 189.737 44.8692 189.64 44.7346 189.544C44.5999 189.448 44.4652 189.361 44.3399 189.275C44.1279 189.12 43.9172 188.976 43.7146 188.832L43.6466 188.775C42.8386 188.196 42.0492 187.609 41.2786 187.003C40.7679 186.617 40.2679 186.232 39.7666 185.837C39.1693 185.356 38.5639 184.865 37.9759 184.373L37.696 184.143C36.8693 183.46 36.0506 182.747 35.2613 182.015C34.6253 181.457 33.9999 180.879 33.3839 180.292C31.7372 178.771 30.1773 177.201 28.6666 175.584L28.6172 175.527C27.4626 174.293 26.3559 173.041 25.2679 171.761C23.7079 169.903 22.1959 168.007 20.7719 166.052C19.9719 164.955 19.192 163.847 18.432 162.721C18.2973 162.528 18.1719 162.336 18.0372 162.143C19.5866 160.815 21.1759 159.64 22.8026 158.648C24.4106 157.656 26.0559 156.839 27.7026 156.241H35.5119C35.7906 156.395 36.0599 156.549 36.3199 156.713C45.5719 162.355 47.4786 171.877 46.4773 182.4Z" fill="#FFCC7B"/>
<path d="M48.6533 192.192C48.2773 191.951 47.8933 191.7 47.528 191.451L47.228 191.248L47.1413 191.191L47.104 191.171C46.824 190.999 46.564 190.825 46.304 190.623C45.968 190.42 45.6494 190.199 45.332 189.968L45.264 189.919L45.1493 189.843C45.004 189.737 44.8693 189.64 44.7346 189.544C44.6 189.448 44.4653 189.361 44.34 189.275C44.6866 184.325 43.8107 179.001 40.9893 173.148C43.4547 176.46 45.2453 179.521 46.4773 182.4C47.96 185.876 48.6146 189.092 48.6533 192.192Z" fill="#E8A749"/>
</svg>
