<svg width="209" height="209" viewBox="0 0 209 209" fill="none" xmlns="http://www.w3.org/2000/svg">
<path d="M208.648 104.591C208.648 134.331 196.161 161.155 176.153 180.103C173.401 182.711 170.503 185.167 167.479 187.448C166.979 187.843 166.477 188.219 165.968 188.584C164.495 189.672 162.983 190.712 161.443 191.713C161.211 191.868 160.98 192.021 160.74 192.165C160.557 192.291 160.364 192.416 160.172 192.532C157.707 194.091 155.175 195.545 152.576 196.893C148.984 198.771 145.277 200.427 141.456 201.871C141.099 202.005 140.741 202.14 140.376 202.275C131.596 205.491 122.257 207.552 112.552 208.273L112.417 208.283C110.859 208.399 109.289 208.485 107.709 208.524C107.42 208.533 107.123 208.543 106.833 208.543L106.487 208.552C105.88 208.563 105.273 208.572 104.667 208.572C103.907 208.572 103.155 208.563 102.395 208.533H102.299C101.963 208.533 101.625 208.533 101.288 208.504C100.825 208.504 100.355 208.485 99.892 208.456C98.284 208.388 96.6852 208.283 95.1066 208.129C87.6266 207.455 80.3652 205.981 73.4346 203.796C71.1146 203.064 68.8225 202.256 66.5799 201.369C62.7185 199.849 58.9626 198.107 55.3439 196.152C52.9653 194.871 50.644 193.495 48.392 192.04C44.2333 189.364 40.2852 186.399 36.5692 183.173L36.2905 182.923C36.0492 182.711 35.8092 182.509 35.5679 182.288C34.9119 181.709 34.2679 181.123 33.6333 180.527C13.3573 161.549 0.686646 134.553 0.686646 104.591C0.686646 47.16 47.2373 0.609339 104.667 0.609339C162.097 0.609339 208.648 47.16 208.648 104.591Z" fill="#F7F2DA"/>
<path d="M160.74 192.167C160.557 192.291 160.364 192.416 160.172 192.532L160.643 192.001L160.74 192.167Z" fill="#D1E3E8"/>
<path d="M161.443 191.713C161.211 191.867 160.98 192.021 160.74 192.167C160.557 192.291 160.364 192.416 160.172 192.532C157.707 194.091 155.175 195.545 152.576 196.893C148.984 198.771 145.277 200.427 141.456 201.871C141.099 202.005 140.743 202.14 140.376 202.276C131.596 205.491 122.257 207.552 112.552 208.273L112.417 208.283C110.859 208.399 109.289 208.485 107.709 208.524C107.42 208.533 107.123 208.543 106.833 208.543L106.487 208.552C105.88 208.561 105.273 208.572 104.667 208.572C103.907 208.572 103.155 208.561 102.395 208.533H102.299C101.963 208.533 101.625 208.533 101.288 208.504C100.825 208.504 100.355 208.485 99.892 208.456C98.284 208.389 96.6865 208.283 95.1065 208.129C87.6265 207.455 80.3652 205.981 73.4345 203.796C71.1145 203.064 68.8225 202.256 66.5798 201.369C62.7185 199.849 58.9639 198.107 55.3439 196.152C52.9652 194.871 50.644 193.495 48.392 192.04C44.2333 189.364 40.2852 186.399 36.5692 183.173L36.2905 182.923C37.1852 182.143 38.0892 181.373 38.9852 180.632L39.0146 180.603C40.6706 179.236 58.9546 172.293 68.5332 168.491C68.8999 168.347 69.2546 168.201 69.592 168.067L69.9292 167.932H69.9386C72.0666 167.065 73.5785 166.431 74.1078 166.141C74.9358 165.68 75.9172 165.265 77.0159 164.889H77.0266C80.8666 163.532 85.9599 162.656 89.6386 162.145H89.6465C90.6878 162.011 91.6013 161.896 92.3533 161.809H92.3612C93.6146 161.665 94.3839 161.597 94.3839 161.597C94.3839 161.597 107.883 162.309 113.948 165.487L114.18 165.612C114.372 165.719 114.641 165.863 114.988 166.027H114.997C116.375 166.691 118.877 167.788 121.969 169.116H121.977C123.683 169.859 125.549 170.667 127.515 171.504H127.524L127.764 171.611L127.784 171.62C128.468 171.919 129.16 172.217 129.863 172.515H129.872C138.115 176.068 147.251 180.055 151.228 182.249L151.248 182.259C152.084 182.721 152.681 183.096 153.009 183.376C153.779 184.049 154.539 184.743 155.3 185.436C156.735 186.764 158.131 188.123 159.431 189.489C160.133 190.231 160.797 190.972 161.443 191.713Z" fill="#FCFBFA"/>
<path d="M95.1719 170.372C113.277 168.095 131.299 172.232 147.071 181.263C151.376 183.728 155.492 186.491 159.429 189.493C158.131 188.121 156.737 186.761 155.296 185.433C154.544 184.739 153.779 184.055 153.007 183.377C144.915 178.121 136.101 173.887 126.779 171.331C116.487 168.508 105.757 167.749 95.1719 169.08C94.3559 169.183 94.3452 170.475 95.1719 170.372Z" fill="#D1E3E8"/>
<path d="M107.709 208.524C107.42 208.533 107.123 208.543 106.833 208.543L106.487 208.552C106.507 201.111 106.391 193.677 106.033 186.264C105.996 185.388 105.948 184.512 105.9 183.636C105.832 182.48 105.755 181.325 105.631 180.179C105.583 179.727 105.533 179.284 105.467 178.841C105.389 178.263 105.303 177.685 105.196 177.108C105.052 176.289 106.295 175.943 106.448 176.761C106.612 177.637 106.737 178.513 106.843 179.399C106.861 179.524 106.881 179.64 106.881 179.765C107.055 181.132 107.16 182.509 107.239 183.887C107.383 186.245 107.44 188.623 107.508 190.963C107.584 193.475 107.633 195.997 107.671 198.52V198.549C107.709 201.871 107.719 205.201 107.709 208.524Z" fill="#D1E3E8"/>
<path d="M104.753 183.087C104.783 181.989 104.735 181.209 104.629 180.824L105.631 180.179L106.525 179.601L106.843 179.399L108.779 178.157L108.836 178.119L108.961 178.041C109.115 178.812 109.259 179.62 109.404 180.477C109.548 181.335 109.684 182.24 109.828 183.183C110.829 189.943 111.687 198.741 112.417 208.283C110.859 208.399 109.289 208.485 107.709 208.524C107.42 208.533 107.123 208.543 106.833 208.543L106.487 208.552C105.88 208.561 105.273 208.572 104.667 208.572C103.907 208.572 103.155 208.561 102.395 208.533C103.743 197.067 104.695 187.468 104.753 183.087Z" fill="#4C4C4B"/>
<path d="M112.552 208.273L112.417 208.283C110.859 208.399 109.289 208.485 107.709 208.524C107.42 208.533 107.123 208.543 106.833 208.543C107.132 205.067 107.42 201.707 107.671 198.549V198.52C108.133 192.753 108.489 187.651 108.683 183.693C108.74 182.461 108.788 181.344 108.816 180.352C108.827 179.515 108.836 178.764 108.836 178.119C108.827 177.483 108.807 176.935 108.779 176.501L108.961 176.376C109.211 177.637 109.443 179.033 109.673 180.527C109.799 181.335 109.924 182.181 110.049 183.057C111.012 190 111.84 198.809 112.552 208.273Z" fill="#686868"/>
<path d="M99.2654 172.86C99.2654 176.809 102.893 183.892 107.369 183.892C109.251 183.892 110.981 182.641 112.361 180.896C114.255 178.491 115.472 175.148 115.472 172.86C115.472 168.909 111.845 165.708 107.369 165.708C106.331 165.708 105.339 165.88 104.424 166.195C101.405 167.235 99.2654 169.827 99.2654 172.86Z" fill="#686868"/>
<path d="M99.2654 172.86C99.2654 176.809 102.893 183.892 107.369 183.892C109.251 183.892 110.981 182.641 112.361 180.896C112.116 180.875 111.904 180.848 111.733 180.827C110.083 180.611 106.551 180.195 105.416 178.793C104.391 177.532 104.44 174.404 104.341 172.92C104.192 170.671 104.248 168.436 104.424 166.195C101.405 167.235 99.2654 169.827 99.2654 172.86Z" fill="#4C4C4B"/>
<path d="M69.4679 167.913L68.5333 168.491L59.3974 174.113L59.06 175.432L55.8053 188.431C55.8146 189.133 55.8053 189.836 55.776 190.539C55.7187 192.397 55.5746 194.275 55.344 196.152C52.9653 194.871 50.644 193.495 48.392 192.04C44.2334 189.364 40.2852 186.399 36.5692 183.173L36.2906 182.923C36.0493 182.711 35.8079 182.509 35.5679 182.288C34.9133 181.709 34.268 181.123 33.6333 180.527C44.8013 172.929 56.9413 167.893 69.4679 167.913Z" fill="#FCFBFA"/>
<path d="M77.5345 174.191C76.5732 174.152 75.6105 174.113 74.6465 174.113C74.4452 174.095 74.2613 174.095 74.0599 174.104H74.0506C69.0159 174.075 63.9986 174.528 59.0599 175.432C54.8533 176.212 50.7119 177.32 46.6493 178.773C43.1933 180.005 39.8332 181.488 36.5692 183.173L36.2905 182.923C36.0492 182.711 35.8079 182.509 35.5679 182.288C36.6945 181.709 37.8399 181.152 38.9852 180.632C45.5039 177.608 52.3493 175.404 59.3973 174.113C63.8546 173.305 68.3985 172.852 72.9905 172.813C73.1745 172.804 73.3572 172.804 73.5399 172.804C74.8679 172.804 76.1972 172.833 77.5345 172.9C78.3625 172.939 78.3732 174.229 77.5345 174.191Z" fill="#D1E3E8"/>
<path d="M98.6959 178.257C102.737 172.728 107.901 168.896 107.901 168.896C107.901 168.896 112.172 172.625 115.635 178.092C120.56 177.123 123.624 175.067 122.573 171.545C121.968 169.513 121.301 165.987 120.673 161.703C120.424 160.015 120.185 158.209 119.955 156.333C118.112 141.265 116.733 121.651 116.733 121.651L79.02 120.576C79.02 120.576 79.1879 122.733 79.2959 126.201C79.3866 128.94 79.4372 132.496 79.3452 136.449C79.0706 148.052 80.6533 160.591 75.0813 168.444C72.8626 171.565 87.8852 177.012 98.6959 178.257Z" fill="#FFB884"/>
<path d="M79.3452 136.449C86.2066 144.747 98.1146 153.919 105.544 155.32C108.22 155.824 117.075 153.004 119.419 151.724C117.577 136.657 116.733 121.651 116.733 121.651H83.7546L79.2959 126.201C79.3866 128.94 79.4372 132.496 79.3452 136.449Z" fill="#EF9C62"/>
<path d="M136.468 88.304C134.912 87.6867 133.088 88.5027 131.468 88.9707C129.741 89.4693 127.188 90.208 127.079 92.3334C126.993 94.0027 127.713 96.0307 127.951 97.716L130.277 108.103C131.084 108.347 133.508 108.027 134.225 107.407C135.167 106.592 137.624 96.388 137.88 92.3813C137.998 90.528 138.435 89.0853 136.468 88.304Z" fill="#FFB884"/>
<path d="M136.173 90.5133C135.619 89.172 134.005 89.928 132.836 90.2294C131.684 90.5267 129.632 90.8253 128.876 91.904C128.133 92.9666 128.916 95.7427 129.196 97.096C132.084 95.8494 132.711 100.496 130.093 100.601L130.212 101.452C130.372 102.591 130.663 103.971 131.099 104.679C130.976 103.791 130.42 102.083 130.907 101.316C131.379 100.569 132.697 100.559 133.275 99.828C134.777 97.916 132.277 96.372 130.507 96.1733C130.476 95.54 130.127 94.0173 130.383 93.456C130.676 92.8093 132.003 92.448 132.672 92.1307C133.671 91.656 134.291 91.1014 134.952 91.924C135.396 92.4787 135.341 93.608 135.425 94.3C135.811 93.4 136.552 91.4307 136.173 90.5133Z" fill="#EF9C62"/>
<path d="M78.4959 82.6414C76.9119 78.0774 76.5679 72.5041 79.4879 67.8614C79.6559 67.5961 80.1052 67.1614 80.7852 66.6134C83.6839 64.2707 90.8172 59.8014 98.6119 56.9774L98.6066 56.9321L98.7146 56.9414L98.8159 56.904L98.8226 56.9494C107.088 57.5921 115.156 59.9961 118.575 61.4814C119.376 61.8281 119.927 62.1267 120.157 62.3387C124.209 66.0334 125.364 71.4974 125.056 76.3188C124.589 83.5654 137.559 109.407 135.821 121.607C135.287 125.369 126.419 135.471 121.235 146.375C120.128 148.703 114.092 150.285 111.453 150.741C111.419 150.748 102.709 150.939 100.864 149.141C90.6866 139.239 81.7186 132.644 80.1986 129.16C75.2706 117.867 80.8772 89.5014 78.4959 82.6414Z" fill="#FFB884"/>
<path d="M76.9547 88.8241C77.78 92.9921 80.164 100.643 80.888 101.18C82.4 94.1134 84.3053 64.468 92.5413 70.7387C98.2799 75.1094 103.572 84.4894 111.733 81.3667C114.593 80.2707 115.103 78.6827 117.528 75.3454C123.88 66.6054 124.708 82.6574 129.589 92.8814C129.589 92.8814 130.049 90.0334 130.675 86.5801C131.44 82.3774 132.455 77.272 133.212 75.272C135.225 69.956 138.305 67.5854 138.04 61.8574C137.291 45.5987 132.905 43.768 116.876 39.9307C119.604 53.1214 94.612 48.364 88.8227 50.756C80.5507 54.1747 75.332 57.064 72.7173 63.3C70.2706 69.1387 75.2893 80.4161 76.9547 88.8241Z" fill="#874410"/>
<path d="M80.888 101.18C82.4 94.1134 84.3052 64.468 92.5412 70.7387C98.2799 75.1094 103.572 84.4894 111.733 81.3667C114.593 80.2707 115.103 78.6827 117.528 75.3454C123.88 66.6054 124.708 82.6574 129.589 92.8814C129.589 92.8814 130.049 90.0334 130.675 86.5801C127.951 81.3707 128.38 69.5947 121.115 68.1707C117.541 67.4707 115.363 69.8094 112.213 71.148C109.783 72.18 106.337 71.8054 104.097 70.5454C100.947 68.7734 97.8213 66.756 94.8267 64.7227C91.0187 62.136 87.6933 60.4587 84.0173 64.076C80.8653 67.1734 80.0453 72.5414 79.2506 76.7774C78.7293 79.5387 80.164 100.643 80.888 101.18Z" fill="#6D340D"/>
<path d="M70.7186 90.24C72.1733 89.412 74.0907 89.9666 75.76 90.204C77.5413 90.4586 80.1719 90.8347 80.5746 92.924C80.8919 94.5654 80.46 96.6733 80.46 98.376L79.6 108.985C78.8347 109.339 76.3907 109.36 75.5933 108.845C74.5467 108.169 70.696 98.4066 69.8867 94.4733C69.512 92.6546 68.8786 91.2866 70.7186 90.24Z" fill="#FFB884"/>
<path d="M71.316 92.3867C71.68 90.9814 73.3814 91.5054 74.5827 91.6414C75.764 91.7747 77.8386 91.7867 78.736 92.7494C79.62 93.6974 79.2307 96.556 79.14 97.9347C76.108 97.1013 76.1333 101.791 78.74 101.531V102.391C78.74 103.54 78.6427 104.948 78.3094 105.709C78.3081 104.812 78.6214 103.043 78.0334 102.352C77.4614 101.679 76.1534 101.852 75.4814 101.208C73.7281 99.5227 75.9881 97.6453 77.7147 97.204C77.6574 96.5733 77.7907 95.0161 77.4614 94.4961C77.08 93.8961 75.7147 93.7227 75.0094 93.5013C73.9534 93.1693 73.2627 92.7067 72.7227 93.6134C72.36 94.2241 72.5707 95.3347 72.5827 96.0307C72.0774 95.1947 71.068 93.348 71.316 92.3867Z" fill="#EF9C62"/>
<path d="M116.377 95.4814C116.9 95.104 123.429 95.6161 125.857 96.0881C126.573 96.2254 127.392 96.252 127.769 96.944C128.144 97.6307 128.611 98.988 128.768 99.7C128.835 100 128.768 100.925 128.768 100.925C125.887 100.304 121.704 99.2267 118.681 99.9614C117.363 100.281 115.103 103.205 114.891 103.253C114.92 103.011 115.844 95.868 116.377 95.4814Z" fill="#E89258"/>
<path d="M127.891 103.169C127.891 103.169 126.629 105.453 121.84 105.453C117.051 105.453 115.795 103.169 115.795 103.169C115.795 103.169 115.299 103.409 115.172 103.251C115.044 103.093 115.681 102.716 115.748 102.213C115.812 101.709 116.872 97.7613 118.087 97.3866C119.303 97.0133 126.897 97.0213 128.048 98.724C129.2 100.427 127.891 103.169 127.891 103.169Z" fill="white"/>
<path d="M128.247 100.807V100.816C128.217 101.173 128.149 101.519 128.073 101.828C127.9 102.531 127.659 103.04 127.648 103.06C127.648 103.06 126.388 105.188 121.844 105.188C117.289 105.188 116.037 103.06 116.028 103.04L115.903 102.819L115.681 102.925C115.825 102.743 115.979 102.52 116.009 102.252L116.047 102.039C116.115 101.731 116.251 101.24 116.432 100.701C116.855 99.4199 117.539 97.8319 118.165 97.6399C118.464 97.5533 119.388 97.456 120.756 97.456C121.024 97.456 121.304 97.456 121.583 97.4666H121.592C122.556 97.4946 123.529 97.5627 124.433 97.688C126.088 97.9093 127.437 98.3026 127.832 98.872C128.217 99.4306 128.295 100.143 128.247 100.807ZM128.785 100.229C128.757 99.652 128.601 99.0733 128.264 98.5733L128.091 98.3706L127.792 98.1306C127.679 98.0533 127.552 97.9759 127.417 97.9093C127.264 97.8319 127.1 97.764 126.927 97.6973C126.803 97.6586 126.676 97.6106 126.541 97.572C125.925 97.3893 125.223 97.2546 124.511 97.1586C124.317 97.1293 124.125 97.1106 123.932 97.0813C122.528 96.9359 121.227 96.9173 120.756 96.9173C119.484 96.9173 118.435 97.004 118.012 97.1293C116.943 97.456 116.095 99.8533 115.709 101.231C115.576 101.721 115.499 102.087 115.479 102.184C115.46 102.367 115.287 102.569 115.141 102.732C115.056 102.829 114.969 102.935 114.92 103.06L114.911 103.069V103.079V103.088L114.892 103.253L114.96 103.416C115.017 103.483 115.133 103.571 115.315 103.571C115.44 103.571 115.584 103.531 115.7 103.503C116.135 104.08 117.732 105.717 121.844 105.717C126.724 105.717 128.073 103.396 128.121 103.3C128.139 103.261 128.284 102.944 128.439 102.483C128.553 102.136 128.669 101.703 128.737 101.231V101.192L128.757 100.923H128.765C128.765 100.923 128.775 100.768 128.785 100.556L128.795 100.48V100.268L128.785 100.229Z" fill="#E89258"/>
<path d="M119.289 100.735C119.289 102.653 120.844 104.208 122.761 104.208C124.68 104.208 126.235 102.653 126.235 100.735C126.235 98.816 124.68 97.2613 122.761 97.2613C120.844 97.2613 119.289 98.816 119.289 100.735Z" fill="#3A2E26"/>
<path d="M122.525 100.735C122.525 101.536 123.175 102.185 123.975 102.185C124.777 102.185 125.425 101.536 125.425 100.735C125.425 99.9334 124.777 99.2841 123.975 99.2841C123.175 99.2841 122.525 99.9334 122.525 100.735Z" fill="#4C3F35"/>
<path d="M122.035 100.735C122.035 101.005 122.253 101.225 122.525 101.225C122.797 101.225 123.015 101.005 123.015 100.735C123.015 100.464 122.797 100.245 122.525 100.245C122.253 100.245 122.035 100.464 122.035 100.735Z" fill="white"/>
<path d="M128.44 102.48C128.452 102.44 128.465 102.4 128.479 102.359C128.465 102.4 128.453 102.441 128.44 102.48ZM128.737 101.219V101.192L128.756 100.924C128.76 100.924 128.764 100.925 128.768 100.925C128.768 100.925 128.781 100.743 128.791 100.512V100.505C128.789 100.747 128.769 100.987 128.737 101.219Z" fill="#E5A577"/>
<path d="M128.768 100.925C128.764 100.925 128.76 100.924 128.756 100.924L128.757 100.923H128.765C128.765 100.923 128.775 100.768 128.785 100.556L128.791 100.512C128.781 100.743 128.768 100.925 128.768 100.925ZM128.751 99.8746C128.685 99.4173 128.532 98.9706 128.264 98.5733L128.091 98.3706L127.792 98.1306C127.679 98.0533 127.552 97.9759 127.417 97.9093C127.303 97.8519 127.181 97.7986 127.055 97.7479C127.604 97.9626 128.039 98.2333 128.269 98.5746C128.54 98.9733 128.687 99.42 128.751 99.8746ZM126.875 97.68C126.797 97.6546 126.719 97.6279 126.639 97.6013C126.719 97.6266 126.797 97.6533 126.875 97.68ZM126.544 97.572C126.543 97.572 126.543 97.572 126.541 97.572C125.927 97.3893 125.224 97.2546 124.513 97.1586C125.22 97.2533 125.928 97.3866 126.544 97.572Z" fill="#D0834F"/>
<path d="M128.072 101.831C127.671 101.22 127.056 100.509 126.145 99.9494C125.92 98.9734 125.283 98.1547 124.428 97.6867C124.429 97.6867 124.432 97.6867 124.433 97.688C126.088 97.9094 127.437 98.3027 127.832 98.872C128.217 99.4307 128.295 100.143 128.247 100.807V100.816C128.217 101.173 128.149 101.519 128.073 101.828C128.073 101.828 128.072 101.829 128.072 101.831ZM116.433 100.699C116.856 99.4187 117.539 97.832 118.165 97.64C118.464 97.5533 119.388 97.456 120.756 97.456C121.024 97.456 121.304 97.456 121.583 97.4667H121.584C120.7 97.7854 119.981 98.4533 119.596 99.304C118.256 99.6387 117.205 100.179 116.433 100.699Z" fill="#E5E5E5"/>
<path d="M128.44 102.48C128.347 102.288 128.224 102.068 128.073 101.832C128.073 101.832 128.072 101.832 128.072 101.831C128.072 101.829 128.073 101.828 128.073 101.828C128.149 101.519 128.217 101.173 128.247 100.816V100.807C128.295 100.143 128.217 99.4306 127.832 98.872C127.437 98.3026 126.088 97.9093 124.433 97.688C124.432 97.6867 124.429 97.6866 124.428 97.6866C123.933 97.416 123.365 97.2613 122.761 97.2613C122.348 97.2613 121.952 97.3333 121.584 97.4666H121.583C121.304 97.456 121.024 97.456 120.756 97.456C119.388 97.456 118.464 97.5533 118.165 97.6399C117.539 97.8319 116.856 99.4187 116.433 100.699C116.432 100.699 116.432 100.7 116.431 100.7C116.157 100.883 115.917 101.064 115.711 101.235C116.097 99.8573 116.937 97.46 118.009 97.132C118.431 97.0013 119.484 96.9226 120.756 96.9226C121.289 96.9226 122.901 96.9413 124.513 97.1586C125.224 97.2546 125.927 97.3893 126.541 97.572C126.543 97.572 126.543 97.572 126.544 97.572C126.576 97.5813 126.607 97.5919 126.639 97.6013C126.719 97.6279 126.797 97.6546 126.875 97.68C126.936 97.7026 126.996 97.7239 127.055 97.7479C127.181 97.7986 127.303 97.8519 127.417 97.9093C127.552 97.9759 127.679 98.0533 127.792 98.1306L128.091 98.3706L128.264 98.5733C128.532 98.9706 128.685 99.4173 128.751 99.8746C128.752 99.8786 128.752 99.884 128.753 99.8893C128.753 99.8906 128.753 99.892 128.753 99.8933C128.767 99.9907 128.776 100.088 128.783 100.187C128.784 100.2 128.784 100.215 128.785 100.229C128.789 100.321 128.792 100.413 128.791 100.505V100.512L128.785 100.556C128.775 100.768 128.765 100.923 128.765 100.923H128.757L128.756 100.924L128.737 101.192V101.219C128.679 101.639 128.58 102.031 128.479 102.359C128.465 102.4 128.452 102.44 128.44 102.48Z" fill="#D0834F"/>
<path d="M126.145 99.9494C125.223 99.3814 123.999 98.9694 122.384 98.9694C121.345 98.9694 120.417 99.0974 119.596 99.304C119.981 98.4534 120.7 97.7854 121.584 97.4667C121.952 97.3334 122.348 97.2614 122.761 97.2614C123.365 97.2614 123.933 97.416 124.428 97.6867C125.283 98.1547 125.92 98.9734 126.145 99.9494Z" fill="#342922"/>
<path d="M98.7533 96.8613C98.2307 96.484 91.6999 96.996 89.2719 97.4666C88.5559 97.6066 87.7386 97.6307 87.3613 98.324C86.9853 99.0093 86.52 100.368 86.36 101.081C86.2946 101.38 86.36 102.305 86.36 102.305C89.2453 101.684 93.4266 100.605 96.4493 101.34C97.7666 101.661 100.028 104.585 100.24 104.633C100.209 104.391 99.288 97.248 98.7533 96.8613Z" fill="#E89258"/>
<path d="M87.2399 104.549C87.2399 104.549 88.5012 106.833 93.2906 106.833C98.0786 106.833 99.3359 104.549 99.3359 104.549C99.3359 104.549 99.8333 104.789 99.9587 104.631C100.085 104.472 99.4506 104.096 99.3839 103.592C99.3173 103.089 98.2573 99.14 97.0427 98.7667C95.8267 98.3934 88.2347 98.4013 87.0813 100.104C85.9307 101.807 87.2399 104.549 87.2399 104.549Z" fill="white"/>
<path d="M99.1012 104.417C99.0919 104.437 97.8413 106.564 93.2866 106.564C88.7426 106.564 87.4826 104.437 87.4826 104.437C87.4719 104.427 87.2305 103.917 87.0572 103.213C86.9799 102.905 86.9132 102.559 86.8839 102.193C86.8359 101.528 86.9133 100.816 87.2986 100.249C87.9053 99.3627 90.8118 98.92 93.5465 98.8427H93.5666C93.8359 98.8333 94.1145 98.8334 94.3745 98.8334C95.0958 98.8334 95.6945 98.8614 96.1452 98.9C96.5412 98.9387 96.8199 98.9774 96.9653 99.0254C97.5906 99.2187 98.2746 100.797 98.6973 102.077C98.88 102.627 99.0159 103.117 99.0839 103.425L99.1213 103.628C99.1493 103.897 99.3039 104.119 99.4493 104.312L99.2279 104.196L99.1012 104.417ZM100.219 104.465V104.456V104.445L100.209 104.437C100.161 104.312 100.073 104.205 99.9879 104.109C99.8439 103.945 99.6706 103.753 99.6506 103.56C99.6306 103.464 99.5545 103.108 99.4185 102.617C99.0345 101.24 98.1972 98.8427 97.1185 98.516C96.6945 98.38 95.6452 98.3027 94.3745 98.3027C93.3052 98.3027 87.924 98.38 86.864 99.9494C86.6826 100.22 86.5572 100.508 86.4692 100.816L86.4213 101.037L86.3839 101.269L86.3546 101.5L86.3452 101.731C86.3452 101.895 86.3453 102.049 86.3546 102.155L86.3653 102.308H86.3732C86.3839 102.453 86.4026 102.597 86.4213 102.732L86.4799 103.069C86.5372 103.359 86.6146 103.628 86.692 103.859C86.8466 104.331 86.9906 104.639 87.0093 104.677C87.0573 104.773 88.4053 107.104 93.2866 107.104C97.3986 107.104 98.9959 105.457 99.4386 104.88C99.5452 104.919 99.6906 104.956 99.8146 104.956C100.007 104.956 100.113 104.869 100.171 104.803L100.239 104.629L100.219 104.465Z" fill="#E89258"/>
<path d="M98.2519 102.095C98.2519 104.013 96.6972 105.568 94.7799 105.568C92.8625 105.568 91.3079 104.013 91.3079 102.095C91.3079 100.177 92.8625 98.6214 94.7799 98.6214C96.6972 98.6214 98.2519 100.177 98.2519 102.095Z" fill="#3A2E26"/>
<path d="M97.1093 102.095C97.1093 102.896 96.4613 103.545 95.6587 103.545C94.8573 103.545 94.2079 102.896 94.2079 102.095C94.2079 101.293 94.8573 100.644 95.6587 100.644C96.4613 100.644 97.1093 101.293 97.1093 102.095Z" fill="#4C3F35"/>
<path d="M94.7799 102.185C94.7799 102.456 94.5613 102.676 94.2906 102.676C94.0199 102.676 93.8013 102.456 93.8013 102.185C93.8013 101.915 94.0199 101.696 94.2906 101.696C94.5613 101.696 94.7799 101.915 94.7799 102.185Z" fill="white"/>
<path d="M86.6906 103.86C86.5533 103.437 86.412 102.889 86.36 102.305C86.3614 102.305 86.3627 102.305 86.3641 102.304L86.3654 102.308H86.3733C86.384 102.453 86.4027 102.597 86.4213 102.732L86.4799 103.069C86.5373 103.357 86.6146 103.627 86.6906 103.857C86.6906 103.857 86.6906 103.859 86.6906 103.86ZM86.36 102.305C86.3494 102.179 86.3426 102.051 86.34 101.921C86.348 102.136 86.36 102.303 86.36 102.305Z" fill="#E5A577"/>
<path d="M86.36 102.305C86.36 102.303 86.348 102.136 86.34 101.921C86.3293 101.247 86.4586 100.548 86.8613 99.9533C86.8826 99.9213 86.9067 99.8907 86.932 99.86C86.908 99.8894 86.8854 99.9187 86.864 99.9494C86.6827 100.22 86.5573 100.508 86.4693 100.816L86.4213 101.037L86.384 101.269L86.3547 101.5L86.3453 101.731C86.3453 101.895 86.3453 102.049 86.3547 102.155L86.364 102.304C86.3627 102.305 86.3613 102.305 86.36 102.305Z" fill="#D0834F"/>
<path d="M87.0572 103.213C86.9799 102.905 86.9133 102.559 86.8839 102.193C86.8359 101.528 86.9133 100.816 87.2986 100.249C87.9053 99.3627 90.8119 98.92 93.5466 98.8427H93.5572C92.7839 99.1347 92.1426 99.692 91.7453 100.405C89.1786 100.703 87.7747 102.117 87.0587 103.212L87.0572 103.213Z" fill="#E5E5E5"/>
<path d="M99.4186 102.615C99.4186 102.615 99.4186 102.615 99.4186 102.613C99.3706 102.444 99.316 102.257 99.256 102.063C99.3173 102.259 99.3719 102.444 99.4186 102.615Z" fill="#D0834F"/>
<path d="M98.6973 102.077C98.5547 101.981 98.4013 101.884 98.2386 101.788C98.1253 100.488 97.2946 99.392 96.1453 98.9C96.5413 98.9387 96.82 98.9773 96.9653 99.0253C97.5906 99.2186 98.2747 100.797 98.6973 102.077Z" fill="#E5E5E5"/>
<path d="M98.2399 99.6281C97.9093 99.0694 97.5306 98.6414 97.1186 98.5161C96.6946 98.3801 95.6452 98.3027 94.3746 98.3027C93.8866 98.3027 92.4999 98.3187 91.0359 98.4867C92.4999 98.3187 93.8879 98.3014 94.3746 98.3014C95.6466 98.3014 96.6986 98.3814 97.1213 98.512C97.532 98.6374 97.9093 99.0681 98.2399 99.6281Z" fill="#D0834F"/>
<path d="M86.6905 103.857C86.6145 103.627 86.5372 103.357 86.4799 103.069L86.4213 102.732C86.4026 102.597 86.3839 102.453 86.3732 102.308H86.3653L86.364 102.304L86.3546 102.155C86.3453 102.049 86.3452 101.895 86.3452 101.731L86.3546 101.5L86.3839 101.269L86.4213 101.037L86.4692 100.816C86.5572 100.508 86.6826 100.22 86.864 99.9494C86.8853 99.9187 86.9079 99.8894 86.9319 99.86C87.5786 99.0694 89.3585 98.6787 91.0358 98.4867C92.4998 98.3187 93.8865 98.3027 94.3745 98.3027C95.6452 98.3027 96.6945 98.38 97.1185 98.516C97.5305 98.6414 97.9092 99.0693 98.2399 99.628C98.6639 100.348 99.0119 101.283 99.2559 102.063C99.3159 102.257 99.3705 102.444 99.4185 102.613C99.2132 102.443 98.9719 102.263 98.6999 102.079C98.6986 102.079 98.6986 102.079 98.6973 102.077C98.2746 100.797 97.5906 99.2187 96.9653 99.0253C96.8199 98.9773 96.5412 98.9387 96.1452 98.9C95.7252 98.7213 95.2638 98.6214 94.7798 98.6214C94.3492 98.6214 93.9372 98.7 93.5572 98.8426H93.5465C90.8118 98.92 87.9053 99.3627 87.2986 100.249C86.9133 100.816 86.8359 101.528 86.8839 102.193C86.9132 102.559 86.9799 102.905 87.0572 103.213C86.9065 103.449 86.7852 103.665 86.6905 103.857Z" fill="#D0834F"/>
<path d="M98.2386 101.788C97.7826 101.517 97.2505 101.253 96.6412 101.027C96.3825 100.789 96.0387 100.644 95.6587 100.644C95.5853 100.644 95.5119 100.649 95.4399 100.66C94.6426 100.468 93.7452 100.349 92.7465 100.349C92.3945 100.349 92.0612 100.369 91.7452 100.405C92.1426 99.692 92.7839 99.1346 93.5572 98.8426C93.9372 98.7 94.3492 98.6214 94.7799 98.6214C95.2639 98.6214 95.7252 98.7213 96.1452 98.9C97.2946 99.392 98.1253 100.488 98.2386 101.788Z" fill="#342922"/>
<path d="M96.6412 101.027C96.2692 100.888 95.8693 100.764 95.4399 100.66C95.5119 100.649 95.5854 100.644 95.6587 100.644C96.0387 100.644 96.3826 100.789 96.6412 101.027Z" fill="#443930"/>
<path d="M114.027 94.812C117.175 93.4107 124.715 93.4921 126.976 93.5521C127.395 93.5654 127.632 93.5733 127.632 93.5733C127.356 93.1173 126.995 91.2987 126.444 90.692C125.837 90.0254 124.465 89.668 123.584 89.38C121.092 88.5547 118.251 87.8747 115.721 87.4147C115.008 88.7987 114.765 90.3694 114.543 91.9214C114.401 92.9107 114.267 93.892 114.027 94.812Z" fill="#874410"/>
<path d="M114.027 94.812C117.175 93.4107 124.715 93.4921 126.976 93.5521C126.156 93.2947 125.339 93.1094 124.793 92.9667C123.269 92.576 121.343 91.7841 119.768 91.8321C119.623 91.2294 119.587 90.6227 119.428 90.0373C118.908 90.636 118.465 91.2987 118.019 91.9521C117.953 91.3067 117.845 90.6013 117.488 90.1453C116.999 90.804 116.616 91.5 116.263 92.24C116.263 92.0933 116.155 91.7801 116.141 91.5907C115.639 91.5734 115.093 91.7067 114.543 91.9214C114.401 92.9107 114.267 93.892 114.027 94.812Z" fill="#6D340D"/>
<path d="M99.9039 91.7814C96.7546 90.3787 89.2145 90.4601 86.9518 90.5214C86.5345 90.5334 86.2986 90.5427 86.2986 90.5427C86.5746 90.0867 86.9345 88.2667 87.4852 87.6614C88.0918 86.9947 89.4652 86.6374 90.3465 86.3494C92.8358 85.5227 95.6785 84.8427 98.2078 84.384C98.9212 85.768 99.1626 87.3374 99.3866 88.8907C99.5279 89.8801 99.6626 90.8614 99.9039 91.7814Z" fill="#874410"/>
<path d="M99.904 91.7814C96.7547 90.3787 89.2146 90.4601 86.9519 90.5214C87.7732 90.2627 88.5907 90.0787 89.1373 89.9361C90.66 89.5441 92.5866 88.7534 94.1613 88.8001C94.3066 88.1974 94.3426 87.592 94.5013 87.0067C95.0213 87.6054 95.4653 88.2667 95.9119 88.92C95.9759 88.276 96.0839 87.5707 96.4412 87.1134C96.9306 87.7734 97.3133 88.4694 97.6666 89.2094C97.6666 89.0627 97.7746 88.7494 97.788 88.5601C98.2906 88.5427 98.8373 88.6761 99.3867 88.8907C99.528 89.8801 99.6627 90.8614 99.904 91.7814Z" fill="#6D340D"/>
<path d="M105.144 122.251C107.928 122.309 120.503 126.815 114.408 116.6C113.075 114.363 112.028 105.321 112.288 102.473C112.465 100.547 112.179 98.4334 112.576 96.5627C112.576 96.5627 113.043 107.625 114.901 112.223C115.861 114.601 116.877 116.939 118.029 119.236C118.62 120.411 118.889 120.72 118.349 121.94C116.567 125.963 110.073 126.815 107.023 124.252C106.507 124.724 105.764 125.009 105.113 125.331C104.357 124.549 104.608 123.105 105.144 122.251Z" fill="#EF9C62"/>
<path d="M103.865 141.169C105.301 141.7 106.752 142.099 108.237 142.219C109.419 142.416 110.632 142.425 111.897 142.081L111.935 142.061C111.491 142.699 110.869 143.317 110.163 143.82C109.44 144.037 108.7 144.151 108.339 144.196C107.063 144.361 105.96 143.9 105.019 143.16C104.609 142.509 104.217 141.849 103.865 141.169Z" fill="#EF9C62"/>
<path d="M92.8333 125.875C93.9493 126.833 94.7625 128.103 95.4852 129.528C96.1439 130.833 96.6545 132.213 97.2185 133.556C97.9399 135.276 99.1305 136.012 100.519 136.417C102.355 136.608 104.184 136.983 105.993 137.283C108.331 137.672 111.084 138.585 113.441 137.845C114.968 136.856 115.948 134.852 117.128 133.357C118.24 131.947 119.772 130.293 121.533 129.556C116.633 129.432 111.957 128.939 110.245 128.716C105.312 128.079 100.52 127.451 95.6426 126.433C94.8386 126.271 93.8226 126.115 92.8333 125.875Z" fill="#60120F"/>
<path d="M91.2133 124.015C92.6666 125.195 93.9919 127.993 94.7239 129.464L94.7746 129.577V129.581C94.9386 129.916 95.0973 130.26 95.2493 130.609C95.588 130.699 95.9359 131.383 96.2626 131.964C96.4946 132.385 96.7226 132.759 96.9173 132.82C98.5333 133.305 99.7866 133.533 101.451 133.843C104.956 134.509 107.773 135.009 111.339 134.919C113.167 134.876 114.883 133.719 116.341 132.329L116.345 132.325C117.344 131.369 118.22 130.304 118.935 129.409C119.064 129.249 119.185 129.1 119.3 128.953C118.701 128.94 118.1 128.905 117.503 128.855C112.263 128.764 106.831 127.852 101.815 127.137C99.9267 126.867 98.0399 126.536 96.1733 126.113C94.6719 125.856 92.7226 124.325 91.2133 124.015Z" fill="white"/>
<path d="M111.885 133.335C112.929 133.083 118.048 130.295 118.869 129.22L118.935 129.409C118.22 130.304 117.344 131.369 116.345 132.325L116.341 132.329C114.883 133.719 113.167 134.876 111.339 134.919C107.773 135.009 104.956 134.509 101.451 133.843C99.7866 133.533 98.5332 133.305 96.9172 132.82C96.7226 132.759 96.4946 132.385 96.2626 131.964C95.9359 131.383 95.5879 130.699 95.2493 130.609C95.0973 130.26 94.9385 129.916 94.7745 129.581C97.4799 130.472 110.672 133.632 111.885 133.335Z" fill="#F4F0ED"/>
<path d="M121.053 129.787C120.891 129.873 120.727 129.971 120.573 130.065L120.284 130.249C119.851 130.537 119.445 130.875 119.061 131.231C118.888 131.395 118.713 131.559 118.551 131.732C118.396 131.885 118.243 132.049 118.097 132.213C117.924 132.405 117.76 132.588 117.607 132.781L117.569 132.82L117.529 132.868C117.385 133.031 117.251 133.195 117.125 133.359C115.951 134.851 114.969 136.853 113.437 137.845C111.088 138.587 108.335 137.672 105.996 137.287C104.187 136.979 102.357 136.604 100.517 136.42C99.132 136.016 97.9374 135.275 97.2147 133.561C97.1094 133.311 97.0133 133.069 96.9173 132.82H96.908V132.809C96.512 131.808 96.108 130.817 95.636 129.844L95.4814 129.527C94.9227 128.42 94.2693 127.159 93.508 126.032V126.023C93.2973 125.695 93.0653 125.387 92.8347 125.088C93.412 125.521 95.9441 126.331 99.3707 127.139L99.4494 127.159C104.599 128.391 111.744 129.643 117.289 129.757H117.357C117.675 129.768 117.983 129.768 118.281 129.768C118.407 129.768 118.531 129.768 118.656 129.757C119.696 129.748 120.668 129.681 121.535 129.556C121.371 129.623 121.208 129.7 121.053 129.787ZM124.02 128.092C123.605 127.697 123.133 127.467 122.623 127.312C122.777 127.457 122.921 127.601 123.084 127.745C123.393 128.035 123.181 128.593 122.787 128.669C121.66 128.891 120.485 128.968 119.301 128.949C118.704 128.94 118.097 128.901 117.501 128.853L117.28 128.833L117.212 128.824C94.548 126.879 92.728 123.404 91.9774 122.768C92.3534 122.305 93.1907 122.075 93.6921 121.901C92.6907 121.949 91.516 121.671 90.8214 122.72C90.3614 123.393 90.5626 124.376 90.852 125.021C90.832 124.597 90.9853 124.26 91.2173 124.02C92.6707 125.195 93.9894 127.996 94.7214 129.469L94.7787 129.584C94.9427 129.912 95.096 130.259 95.2507 130.605C95.5013 131.183 95.7427 131.771 95.9921 132.357C96.4347 133.397 96.9081 134.437 97.5041 135.419C98.0334 136.276 98.7547 136.411 99.8334 136.757C101.211 137.316 104.725 137.923 108.731 138.432C111.128 138.876 113.601 139.357 115.056 137.537C115.768 136.641 116.644 135.457 117.645 134.273L117.732 134.177C119.62 131.944 121.929 129.757 124.375 129.643L124.655 129.787C124.596 129.161 124.404 128.573 124.02 128.092Z" fill="#EF9C62"/>
<path d="M69.4719 168.444C69.4719 168.444 96.0612 201.993 95.5279 194.755C95.1772 190.011 95.9012 182.083 98.6959 178.257C102.737 172.728 107.901 168.896 107.901 168.896L81.8493 159.264L79.0599 157.951L69.4719 168.444Z" fill="#D1E3E8"/>
<path d="M69.4719 167.912C69.4719 167.912 94.5239 198.7 93.9905 191.463C93.6385 186.719 95.9012 182.083 98.6959 178.257C102.737 172.728 107.901 168.896 107.901 168.896L81.8493 157.023L79.0599 155.709L69.4719 167.912Z" fill="white"/>
<path d="M107.901 168.896C107.901 168.896 111.549 171.817 115.472 178.968C117.437 182.551 118.293 189.256 119.947 193.271C120.98 195.777 129.385 173.633 129.385 173.633L120.701 163.709L120.673 163.724L107.901 168.896Z" fill="#D1E3E8"/>
<path d="M107.901 168.896C107.901 168.896 112.172 172.625 115.635 178.092C117.823 181.541 119.689 185.684 119.955 190.017C120.272 195.22 129.968 172.276 129.968 172.276L120.701 161.687L120.673 161.703L107.901 168.896Z" fill="white"/>
</svg>
