<svg width="209" height="209" viewBox="0 0 209 209" fill="none" xmlns="http://www.w3.org/2000/svg">
<path d="M208.653 104.591C208.653 145.336 185.213 180.613 151.08 197.653C150.28 198.068 149.453 198.461 148.64 198.837C140.4 202.689 131.587 205.491 122.36 207.069C118.787 207.687 115.147 208.12 111.48 208.351C109.227 208.495 106.96 208.572 104.667 208.572C101.907 208.572 99.1733 208.465 96.4667 208.253C91.5733 207.869 86.7734 207.147 82.0934 206.107C63.9067 202.092 47.5333 193.312 34.3066 181.152C33.6133 180.516 32.9201 179.861 32.2534 179.197C12.7734 160.307 0.693359 133.859 0.693359 104.591C0.693359 47.16 47.24 0.609339 104.667 0.609339C162.093 0.609339 208.653 47.16 208.653 104.591Z" fill="#F7F2DA"/>
<path d="M148.64 198.837C140.4 202.689 131.587 205.491 122.36 207.069C118.787 207.687 115.147 208.119 111.48 208.351C111.2 206.579 110.947 204.769 110.68 202.92C109.507 194.467 108.453 185.272 107.253 175.356C122.813 177.272 132.013 159.257 147.6 173.94L147.613 173.949C149.173 179.823 150.28 188.189 151.08 197.653C150.28 198.068 149.453 198.463 148.64 198.837Z" fill="#E0312D"/>
<path d="M148.64 198.837C140.4 202.689 131.587 205.491 122.36 207.069C118.787 207.687 115.147 208.119 111.48 208.351C109.227 208.495 106.96 208.572 104.667 208.572C101.907 208.572 99.1733 208.465 96.4666 208.253C91.5733 207.869 86.7733 207.147 82.0933 206.107C63.9066 202.092 47.5332 193.312 34.3066 181.152C34.1599 178.619 34.0532 176.203 33.8799 173.739L33.9465 173.584C34.3865 172.708 36.8532 168.24 42.0799 163.195C48.5465 156.957 59.24 149.832 75.4933 147.569C75.68 147.54 75.8667 147.521 76.0533 147.492C76.4667 147.444 76.9066 147.387 77.3333 147.339C83.2266 146.665 90.0532 146.52 97.8132 146.559C106.92 146.597 114.56 147.348 120.933 148.705H120.947C121.373 148.803 121.787 148.889 122.2 148.985C138.587 152.759 145.16 163.139 147.6 173.94C148.107 176.136 148.44 178.349 148.64 180.535C148.84 182.751 149.24 188.901 148.64 198.837Z" fill="#F42F2F"/>
<path d="M74.1465 150.815C74.5865 150.031 75.0399 148.927 75.4933 147.573C81.8266 146.915 89.2399 146.521 97.8132 146.556C107.533 146.599 115.573 147.451 122.2 148.981C122.48 150.092 122.76 151.028 123.093 151.733C136.267 179.537 62.2132 172.479 74.1465 150.815Z" fill="#D31111"/>
<path d="M99.9866 166.439C85.2532 165.8 69.7866 159.003 75.5199 148.609C75.9732 147.781 76.4531 146.576 76.9465 145.077C78.7065 139.717 80.5999 130.593 82.0265 121.543C82.4532 118.869 82.8398 116.208 83.2131 113.667V113.664V113.603C83.7731 109.715 84.2399 106.108 84.6265 103.153C85.1999 98.5454 85.5332 95.5321 85.5332 95.5321L85.7599 95.5828L113.427 101.815L113.44 101.935C113.613 103.397 115.32 117.748 117.346 130.579C117.586 132.073 117.827 133.545 118.067 134.979C118.373 136.768 118.68 138.492 119 140.1C119.147 140.869 119.293 141.613 119.44 142.325C120.093 145.401 120.56 147.973 121.267 149.467C127.253 162.109 113.947 167.04 99.9866 166.439Z" fill="#FFB884"/>
<path d="M119.44 142.328C114.946 142.788 108.867 142.264 103.2 138.603C98.1065 135.32 86.1331 127 83.2131 113.667V113.664V113.601C84.2665 106.971 85.1465 100.435 85.7599 95.5827L113.427 101.815L113.44 101.936C113.613 103.396 115.32 117.747 117.346 130.579C117.586 132.073 117.827 133.547 118.067 134.979C118.373 136.768 118.68 138.492 119 140.101C119.147 140.869 119.293 141.611 119.44 142.328Z" fill="#EF9C62"/>
<path d="M99.9866 166.439C85.2532 165.8 69.7866 159.003 75.5199 148.609C75.9732 147.781 76.4531 146.576 76.9465 145.077C77.6531 150.795 80.2265 156.123 85.0265 159.619C89.2132 162.68 93.6665 164.917 98.6932 166.12C99.1199 166.221 99.5599 166.328 99.9866 166.439Z" fill="#EF9C62"/>
<path d="M140.973 77.8307C139.453 77.2854 137.72 78.1267 136.187 78.6267C134.547 79.16 132.107 79.9494 132.08 81.9947C132.04 83.6014 132.8 85.528 133.08 87.1387L135.64 97.0467C136.427 97.256 138.747 96.872 139.413 96.2547C140.293 95.4427 142.333 85.56 142.453 81.7027C142.507 79.9187 142.88 78.5187 140.973 77.8307Z" fill="#FFB884"/>
<path d="M140.76 79.9613C140.173 78.6893 138.653 79.468 137.533 79.7933C136.44 80.1133 134.48 80.4667 133.787 81.5267C133.107 82.5707 133.947 85.2133 134.253 86.5053C136.987 85.216 137.747 89.66 135.227 89.844L135.373 90.6573C135.56 91.748 135.88 93.064 136.32 93.7307C136.173 92.8813 135.587 91.256 136.027 90.5053C136.467 89.7733 137.733 89.7227 138.267 89C139.64 87.1173 137.2 85.712 135.493 85.5773C135.44 84.9693 135.053 83.5173 135.28 82.9693C135.547 82.34 136.813 81.952 137.44 81.6253C138.387 81.1373 138.96 80.5853 139.627 81.356C140.067 81.8733 140.053 82.96 140.16 83.6213C140.493 82.7467 141.147 80.8307 140.76 79.9613Z" fill="#EF9C62"/>
<path d="M85.0933 74.208C83.4266 69.8733 82.92 64.5293 85.5866 59.9773C85.7333 59.716 86.1466 59.2853 86.7866 58.7373C89.4933 56.3959 96.2132 51.8786 103.613 48.92L103.6 48.8759L103.707 48.8813L103.813 48.8426V48.8866C111.773 49.244 119.6 51.3 122.933 52.62C123.72 52.928 124.253 53.1987 124.48 53.3933C128.493 56.816 136.627 61.4293 134.987 67.632C130.28 85.3907 142.68 98.0693 141.387 109.845C141 113.477 132.787 123.461 128.16 134.101C127.16 136.372 121.413 138.084 118.893 138.604C118.867 138.611 110.493 139.068 108.667 137.399C98.5733 128.203 89.76 122.149 88.1866 118.849C83.0933 108.153 87.6 80.7253 85.0933 74.208Z" fill="#FFB884"/>
<path d="M122.627 85.288C123.12 84.908 129.413 85.1946 131.76 85.572C132.453 85.6813 133.24 85.6799 133.627 86.3346C134 86.9813 134.493 88.272 134.667 88.9506C134.747 89.236 134.707 90.1293 134.707 90.1293C131.92 89.6213 127.867 88.7173 124.987 89.5173C123.733 89.8666 121.653 92.7479 121.453 92.8013C121.467 92.5666 122.133 85.6747 122.627 85.288Z" fill="#E89258"/>
<path d="M133.933 92.3107C133.933 92.3107 132.8 94.5467 128.2 94.6961C123.587 94.8467 122.32 92.6907 122.32 92.6907C122.32 92.6907 121.84 92.9374 121.72 92.7894C121.587 92.6427 122.187 92.2587 122.24 91.7747C122.28 91.288 123.173 87.4614 124.333 87.064C125.493 86.6667 132.787 86.4374 133.947 88.036C135.107 89.6347 133.933 92.3107 133.933 92.3107Z" fill="white"/>
<path d="M124.12 90.848C124.187 92.6907 125.72 94.136 127.56 94.076C129.413 94.016 130.853 92.472 130.8 90.6307C130.733 88.788 129.187 87.3414 127.347 87.4027C125.507 87.4627 124.067 89.0054 124.12 90.848Z" fill="#3A2E26"/>
<path d="M126.987 90.7881C127.013 91.5588 127.653 92.1614 128.427 92.1374C129.2 92.112 129.8 91.4667 129.773 90.6974C129.747 89.9281 129.107 89.3241 128.333 89.3494C127.56 89.3734 126.96 90.0188 126.987 90.7881Z" fill="#4C3F35"/>
<path d="M126.52 90.7813C126.52 91.0413 126.747 91.2453 127 91.2373C127.267 91.2279 127.467 91.0106 127.453 90.7506C127.453 90.4906 127.227 90.2866 126.973 90.2946C126.707 90.304 126.507 90.5213 126.52 90.7813Z" fill="white"/>
<path d="M132.827 93.1053C132.68 93.2013 132.547 93.2974 132.373 93.3934C131.987 93.624 131.493 93.8453 130.88 94.028L130.867 94.0387C130.347 94.192 129.733 94.3174 129.04 94.3854C128.773 94.4147 128.493 94.4333 128.187 94.4426C123.813 94.5866 122.547 92.584 122.533 92.5654L122.413 92.3533L122.187 92.46C122.333 92.2774 122.467 92.0653 122.493 91.7947L122.52 91.6214V91.6027C122.573 91.3133 122.693 90.832 122.84 90.3027C123.227 89.0613 123.827 87.5107 124.413 87.308C124.707 87.2027 125.573 87.088 126.893 87.0494C129.293 86.972 132.053 87.184 133.253 87.8C133.48 87.9147 133.64 88.0507 133.747 88.1854C134.133 88.7147 134.227 89.388 134.2 90.0333C134.187 90.3707 134.133 90.688 134.067 90.976V91.024C133.92 91.6987 133.707 92.2 133.707 92.2093C133.693 92.2093 133.467 92.632 132.827 93.1053ZM134.707 89.5813C134.693 89.408 134.68 89.2253 134.653 89.0507L134.587 88.82C134.56 88.656 134.493 88.4933 134.413 88.3387L134.32 88.1467L134.16 87.8854L133.933 87.6467L133.72 87.492L133.4 87.308L133.093 87.1733C132.347 86.884 131.36 86.7213 130.387 86.6346C130.147 86.6066 129.907 86.5867 129.68 86.5774L129.493 86.5667C129.253 86.548 129.013 86.5387 128.787 86.5387C128.187 86.5093 127.653 86.5187 127.28 86.5294C127.107 86.5294 126.973 86.5293 126.88 86.5387C126.587 86.548 126.28 86.5587 126.013 86.5774C125.2 86.6347 124.56 86.7213 124.253 86.8173C123.227 87.1733 122.493 89.504 122.173 90.832C122.053 91.3134 121.987 91.66 121.973 91.748C121.96 91.9307 121.8 92.132 121.68 92.2867C121.6 92.3827 121.507 92.508 121.467 92.632L121.453 92.6907V92.796V92.8066L121.52 92.96C121.573 93.0187 121.693 93.0947 121.867 93.0947L122.227 93.008C122.667 93.5573 124.253 95.0787 128.2 94.9533C132.893 94.7987 134.107 92.5267 134.16 92.4307C134.173 92.4013 134.24 92.2387 134.333 91.9773C134.36 91.8827 134.413 91.7574 134.44 91.632C134.52 91.3907 134.587 91.112 134.627 90.804C134.653 90.6493 134.68 90.4947 134.693 90.332L134.707 90.1294C134.707 90.1294 134.72 90.004 134.72 89.84V89.648L134.707 89.5813Z" fill="#E89258"/>
<path d="M134.067 91.0267C134.067 91.0254 134.067 91.0227 134.067 91.0214C133.387 90.0614 132.133 88.8507 129.96 88.5267C129.347 87.8347 128.453 87.4013 127.467 87.4013C127.427 87.4013 127.387 87.4014 127.347 87.4027C126.027 87.4454 124.907 88.2547 124.4 89.392C123.787 89.6747 123.267 89.9921 122.853 90.2987C122.853 90.2987 122.84 90.2987 122.84 90.3C123.227 89.0587 123.827 87.5107 124.413 87.308C124.707 87.2027 125.573 87.0881 126.893 87.0494C127.213 87.0387 127.533 87.0334 127.853 87.0334C129.987 87.0334 132.2 87.264 133.253 87.8C133.48 87.9147 133.64 88.0507 133.747 88.1854C134.133 88.7147 134.227 89.388 134.2 90.0334C134.187 90.3707 134.133 90.688 134.067 90.976V91.0241C134.067 91.0254 134.067 91.0267 134.067 91.0267Z" fill="#E5E5E5"/>
<path d="M124.4 89.392C124.907 88.2547 126.027 87.4454 127.347 87.4027C127.387 87.4014 127.427 87.4013 127.467 87.4013C128.453 87.4013 129.347 87.8347 129.96 88.5267C129.6 88.4734 129.213 88.444 128.8 88.444C128.707 88.444 128.613 88.4454 128.507 88.4494C126.84 88.5041 125.48 88.896 124.4 89.392Z" fill="#342922"/>
<path d="M134.6 90.9747C134.613 90.9187 134.627 90.8614 134.627 90.804C134.653 90.6494 134.68 90.4948 134.693 90.3321L134.706 90.1294C134.706 90.1294 134.706 90.1094 134.706 90.076C134.706 90.024 134.72 89.9387 134.72 89.84V89.7347C134.72 90.168 134.68 90.5934 134.6 90.9747Z" fill="#E5A577"/>
<path d="M134.707 90.1294C134.707 90.1294 134.707 90.1294 134.707 90.128C134.707 90.124 134.707 90.1053 134.707 90.076C134.707 90.1093 134.707 90.1294 134.707 90.1294ZM134.707 89.62V89.5813C134.707 89.4653 134.693 89.3454 134.68 89.2267C134.693 89.3574 134.707 89.4894 134.707 89.62ZM134.627 88.964L134.587 88.82C134.587 88.8054 134.587 88.7907 134.573 88.7747C134.6 88.8374 134.613 88.9 134.627 88.964ZM134.44 88.3987C134.44 88.3787 134.427 88.3587 134.413 88.3387L134.32 88.1467L134.173 87.912C134.28 88.0667 134.373 88.2294 134.44 88.3987ZM134.147 87.876L133.933 87.6467L133.72 87.492L133.4 87.308L133.133 87.192C133.587 87.3707 133.933 87.5947 134.147 87.876ZM124.453 86.7667C124.933 86.6547 125.827 86.568 126.88 86.5334C127.067 86.5267 127.4 86.5187 127.813 86.5187C127.853 86.5187 127.88 86.5187 127.907 86.5187C127.667 86.5201 127.453 86.5241 127.28 86.5294C127.107 86.5294 126.973 86.5294 126.88 86.5387C126.587 86.548 126.28 86.5587 126.013 86.5774C125.347 86.624 124.787 86.6907 124.453 86.7667ZM131.027 86.7027C130.813 86.676 130.6 86.6533 130.387 86.6347C130.333 86.628 130.28 86.6214 130.227 86.616C130.493 86.64 130.76 86.668 131.027 86.7027ZM129.747 86.58C129.72 86.5787 129.707 86.5774 129.68 86.5774L129.493 86.5667C129.427 86.5627 129.36 86.5574 129.293 86.5547C129.44 86.5614 129.6 86.5694 129.747 86.58ZM129.013 86.5414C128.933 86.54 128.867 86.5387 128.787 86.5387C128.64 86.532 128.493 86.5267 128.36 86.5241C128.56 86.5267 128.787 86.5334 129.013 86.5414Z" fill="#D0834F"/>
<path d="M134.44 91.632C134.347 91.452 134.227 91.248 134.067 91.0267C134.067 91.0267 134.067 91.0253 134.067 91.024V90.976C134.133 90.688 134.187 90.3707 134.2 90.0333C134.227 89.388 134.133 88.7147 133.747 88.1853C133.64 88.0507 133.48 87.9147 133.253 87.8C132.2 87.264 129.987 87.0333 127.853 87.0333C127.533 87.0333 127.213 87.0387 126.893 87.0493C125.573 87.088 124.707 87.2027 124.413 87.308C123.827 87.5107 123.227 89.0587 122.84 90.3C122.587 90.484 122.36 90.6653 122.173 90.836C122.507 89.4987 123.227 87.1707 124.253 86.8213C124.307 86.8027 124.373 86.784 124.453 86.7667C124.787 86.6907 125.347 86.624 126.013 86.5773C126.28 86.5587 126.587 86.548 126.88 86.5387C126.973 86.5293 127.107 86.5294 127.28 86.5294C127.453 86.524 127.667 86.52 127.907 86.5187C128.053 86.52 128.2 86.5213 128.36 86.524C128.493 86.5267 128.64 86.532 128.787 86.5387C128.867 86.5387 128.933 86.54 129.013 86.5413C129.107 86.5453 129.2 86.5493 129.293 86.5547C129.36 86.5573 129.427 86.5627 129.493 86.5667L129.68 86.5773C129.707 86.5773 129.72 86.5787 129.747 86.58C129.907 86.5907 130.067 86.6027 130.227 86.616C130.28 86.6213 130.333 86.628 130.387 86.6346C130.6 86.6533 130.813 86.676 131.027 86.7027C131.8 86.804 132.547 86.9586 133.133 87.192L133.4 87.308L133.72 87.492L133.933 87.6467L134.147 87.876C134.147 87.8786 134.147 87.8827 134.16 87.8853C134.16 87.8947 134.173 87.9026 134.173 87.912L134.32 88.1467L134.413 88.3387C134.427 88.3587 134.44 88.3787 134.44 88.3987C134.493 88.5214 134.547 88.6467 134.573 88.7747C134.587 88.7907 134.587 88.8053 134.587 88.82L134.627 88.964C134.64 89.0507 134.667 89.1387 134.68 89.2267C134.693 89.3453 134.707 89.4653 134.707 89.5813V89.62C134.72 89.6586 134.72 89.696 134.72 89.7346V89.84C134.72 89.9386 134.707 90.024 134.707 90.076C134.707 90.1053 134.707 90.124 134.707 90.128C134.707 90.1293 134.707 90.1293 134.707 90.1293L134.693 90.332C134.68 90.4947 134.653 90.6493 134.627 90.804C134.627 90.8613 134.613 90.9187 134.6 90.9747C134.56 91.2147 134.493 91.4374 134.44 91.632Z" fill="#D0834F"/>
<path d="M106.24 87.12C105.72 86.7733 99.4666 87.4694 97.1466 87.9987C96.4666 88.1547 95.68 88.2053 95.3333 88.8813C95 89.552 94.6 90.872 94.4667 91.5613C94.4133 91.8507 94.5066 92.7387 94.5066 92.7387C97.2533 92.052 101.24 90.884 104.16 91.4947C105.44 91.7613 107.707 94.4986 107.907 94.54C107.867 94.308 106.76 87.472 106.24 87.12Z" fill="#E89258"/>
<path d="M95.4132 94.8666C95.4132 94.8666 96.7066 97.0213 101.307 96.872C105.907 96.7213 107.04 94.4866 107.04 94.4866C107.04 94.4866 107.52 94.7027 107.64 94.5467C107.76 94.3907 107.133 94.048 107.053 93.5666C106.973 93.0853 105.84 89.3239 104.653 89.0039C103.48 88.6839 96.1733 88.9293 95.12 90.6013C94.0667 92.2719 95.4132 94.8666 95.4132 94.8666Z" fill="white"/>
<path d="M103.413 92.7721C103.467 94.6148 102.027 96.1574 100.187 96.2188C98.3468 96.2788 96.8 94.8335 96.7334 92.9908C96.68 91.1481 98.1201 89.6054 99.9601 89.5441C101.813 89.4841 103.347 90.9294 103.413 92.7721Z" fill="#3A2E26"/>
<path d="M102.413 92.8347C102.44 93.604 101.84 94.2494 101.067 94.2747C100.293 94.3001 99.6535 93.6961 99.6268 92.9254C99.6001 92.1561 100.213 91.5121 100.973 91.4867C101.747 91.4614 102.387 92.0654 102.413 92.8347Z" fill="#4C3F35"/>
<path d="M100.08 92.972C100.08 93.232 99.8798 93.4507 99.6131 93.4587C99.3598 93.468 99.1465 93.2627 99.1332 93.0013C99.1198 92.744 99.3332 92.5254 99.5865 92.516C99.8532 92.508 100.066 92.712 100.08 92.972Z" fill="white"/>
<path d="M106.813 94.3667C106.8 94.3854 106.227 95.4254 104.36 96.0894C103.587 96.368 102.573 96.5707 101.293 96.6187H101.28C96.9198 96.7534 95.6533 94.7507 95.6533 94.7507C95.6399 94.7414 95.3865 94.2601 95.1999 93.5854C95.1199 93.2881 95.0398 92.9601 95.0131 92.6134C94.9331 91.9694 94.9865 91.2947 95.3465 90.7361C95.9465 89.7841 99.2666 89.2441 102.093 89.1574C103.4 89.1094 104.293 89.1667 104.587 89.2534C105.2 89.4174 105.893 90.9187 106.346 92.1321C106.546 92.6521 106.693 93.1241 106.773 93.4134V93.4227L106.8 93.6054C106.84 93.8654 107 94.0774 107.146 94.2507L106.92 94.1547L106.813 94.3667ZM107.88 94.376V94.3667L107.653 94.048C107.507 93.8947 107.333 93.7107 107.307 93.528C107.293 93.432 107.2 93.0947 107.053 92.6227C106.72 91.564 106.08 89.8694 105.293 89.1094L105.173 89.0027L104.867 88.8107L104.72 88.7627L104.427 88.704L104.253 88.6854L104.107 88.6667C103.787 88.6374 103.36 88.628 102.88 88.628C102.64 88.628 102.36 88.6374 102.08 88.6467C101.973 88.6467 101.813 88.6561 101.613 88.6667C101.4 88.6761 101.16 88.6854 100.907 88.704C99.5865 88.8014 97.5865 89.0227 96.2398 89.5521L95.9599 89.668C95.7466 89.764 95.5466 89.8694 95.3866 89.9947L95.2266 90.1107L95.0533 90.284L94.9065 90.4667C94.5465 91.0441 94.4399 91.7187 94.4665 92.364C94.4665 92.4974 94.4932 92.6134 94.5065 92.7387C94.5598 93.1627 94.6532 93.5574 94.7599 93.8947L94.8665 94.2214C95.0265 94.6641 95.1732 94.9627 95.1999 95.0014C95.2532 95.088 96.6132 97.2827 101.307 97.1294C105.253 96.9947 106.746 95.3774 107.146 94.7987C107.253 94.8281 107.387 94.8667 107.507 94.8574C107.693 94.8574 107.8 94.7707 107.84 94.7027L107.907 94.5387V94.5294L107.88 94.376Z" fill="#E89258"/>
<path d="M94.8534 94.1801C94.7201 93.7894 94.5733 93.2907 94.5067 92.7574C94.56 93.1734 94.6534 93.5614 94.7601 93.8947L94.8534 94.1801ZM94.5067 92.7307C94.4933 92.672 94.4933 92.6134 94.48 92.5547C94.4933 92.6134 94.4933 92.6707 94.5067 92.7307Z" fill="#E5A577"/>
<path d="M107.053 92.6267C107.053 92.6254 107.053 92.6253 107.053 92.6253C107.053 92.624 107.053 92.624 107.053 92.6227C106.76 91.688 106.213 90.2547 105.56 89.4093C106.227 90.2507 106.76 91.6854 107.053 92.6267Z" fill="#D0834F"/>
<path d="M94.4667 92.3854C94.4667 92.3734 94.4667 92.3614 94.4667 92.3494C94.4401 91.772 94.5201 91.1747 94.8001 90.6414C94.5334 91.1774 94.4401 91.7827 94.4667 92.364C94.4667 92.3707 94.4667 92.3787 94.4667 92.3854ZM94.9201 90.4533C95.0535 90.2493 95.2534 90.068 95.5067 89.9067C95.4667 89.9347 95.4268 89.964 95.3868 89.9947L95.2268 90.1107L95.0535 90.284L94.9201 90.4533ZM105.147 88.984L104.867 88.812C104.96 88.8547 105.053 88.9133 105.147 88.984ZM99.7067 88.8134C100.787 88.6934 101.707 88.652 102.08 88.64C102.373 88.6307 102.653 88.6267 102.92 88.6267C103.147 88.6267 103.373 88.6294 103.573 88.636C103.36 88.6307 103.133 88.628 102.88 88.628C102.64 88.628 102.36 88.6374 102.08 88.6467C101.973 88.6467 101.813 88.656 101.613 88.6667C101.4 88.676 101.16 88.6853 100.907 88.704C100.547 88.7307 100.147 88.7654 99.7067 88.8134ZM104.867 88.8093L104.72 88.7627L104.427 88.704L104.253 88.6854L104.12 88.668C104.373 88.6893 104.587 88.72 104.72 88.7574C104.773 88.7707 104.813 88.788 104.867 88.8093Z" fill="#D0834F"/>
<path d="M95.2 93.584C95.12 93.2867 95.0399 92.96 95.0133 92.6133C94.9333 91.9693 94.9866 91.2947 95.3466 90.736C95.9466 89.784 99.2667 89.244 102.093 89.1574C102.413 89.1454 102.72 89.14 102.987 89.14C103.813 89.14 104.36 89.188 104.587 89.2533C105.2 89.4173 105.893 90.9187 106.347 92.132C106.36 92.1347 106.36 92.136 106.36 92.1387C106.347 92.1373 106.347 92.136 106.347 92.1346C105.48 91.5893 104.253 91.028 102.667 90.7813C102.053 90.024 101.12 89.5426 100.08 89.5426C100.04 89.5426 100 89.544 99.96 89.544C98.56 89.5907 97.3733 90.5067 96.9333 91.76C96.1067 92.3187 95.56 93 95.2 93.584Z" fill="#E5E5E5"/>
<path d="M96.9332 91.76C97.3732 90.5067 98.5599 89.5907 99.9599 89.544C99.9999 89.544 100.04 89.5426 100.08 89.5426C101.12 89.5426 102.053 90.024 102.667 90.7813C102.147 90.6986 101.573 90.652 100.96 90.652C100.84 90.652 100.707 90.6533 100.573 90.6586C98.9865 90.7106 97.7999 91.1653 96.9332 91.76Z" fill="#342922"/>
<path d="M94.8665 94.2214C94.8665 94.208 94.8533 94.1947 94.8533 94.18L94.7599 93.8947C94.6532 93.5613 94.5598 93.1734 94.5065 92.7574C94.5065 92.748 94.5065 92.7387 94.5065 92.7307C94.4932 92.6707 94.4931 92.6134 94.4798 92.5547C94.4798 92.5094 94.4799 92.4627 94.4665 92.416C94.4665 92.4067 94.4665 92.396 94.4665 92.3854C94.4665 92.3787 94.4665 92.3707 94.4665 92.364C94.4399 91.7827 94.5332 91.1774 94.7999 90.6414C94.8399 90.5814 94.8665 90.5227 94.9065 90.464C94.9065 90.46 94.9199 90.4573 94.9199 90.4533L95.0533 90.284L95.2266 90.1107L95.3866 89.9947C95.4266 89.964 95.4665 89.9347 95.5065 89.9067C96.4932 89.2987 98.2398 88.98 99.7065 88.8134C100.147 88.7654 100.547 88.7307 100.907 88.704C101.16 88.6853 101.4 88.676 101.613 88.6667C101.813 88.656 101.973 88.6467 102.08 88.6467C102.36 88.6374 102.64 88.628 102.88 88.628C103.133 88.628 103.36 88.6307 103.573 88.636C103.773 88.644 103.96 88.6547 104.12 88.668L104.253 88.6854L104.427 88.704L104.72 88.7627L104.867 88.8093C104.867 88.8107 104.867 88.8107 104.867 88.812L105.146 88.984C105.293 89.096 105.427 89.2413 105.56 89.4093C106.213 90.2547 106.76 91.688 107.053 92.6227C107.053 92.624 107.053 92.624 107.053 92.6253C106.853 92.4693 106.627 92.3054 106.36 92.1387C106.36 92.136 106.36 92.1347 106.346 92.1321C105.893 90.9187 105.2 89.4173 104.587 89.2533C104.36 89.188 103.813 89.14 102.987 89.14C102.72 89.14 102.413 89.1454 102.093 89.1574C99.2666 89.244 95.9465 89.784 95.3465 90.736C94.9865 91.2947 94.9331 91.9694 95.0131 92.6134C95.0398 92.96 95.1199 93.2867 95.1999 93.584C95.1999 93.5853 95.1999 93.5867 95.1999 93.588C95.0665 93.8214 94.9465 94.0347 94.8665 94.2214Z" fill="#D0834F"/>
<path d="M151.68 47.44C152.12 52.9387 139.2 60.24 137.427 65.4107C136.773 67.356 135.947 72.2947 135.347 76.3547C134.853 79.692 134.507 82.444 134.507 82.444C132.187 77.948 135.28 69.724 131.04 65.756C128.813 63.66 122.707 67.264 118.253 67.4507C108.52 67.8587 99.8533 64.8814 95.8533 68.36L95.7066 68.488C89.7199 73.7827 88.7732 81.212 88.3999 86.6854C88.3466 87.5254 88.3066 88.324 88.2533 89.0587C88.1866 90.1827 88.1199 91.1627 87.9732 91.944L87.8399 91.792C87.3332 91.1173 86.36 88.6054 85.4533 85.8774C85.1733 85.0094 84.8933 84.12 84.6266 83.2613C84.2933 82.1493 84.0132 81.0907 83.7999 80.196C81.9332 72.1707 76.7599 61.4933 78.9332 55.8067C81.1199 50.076 142.88 33.82 150.853 45.1214C151.333 45.7934 151.613 46.564 151.68 47.44Z" fill="#DB9B19"/>
<path d="M151.68 47.44C152.12 52.9386 139.2 60.24 137.427 65.4107C136.773 67.356 135.947 72.2947 135.347 76.3547C134.853 79.692 134.507 82.444 134.507 82.444C132.187 77.948 135.28 69.724 131.04 65.756C128.813 63.66 122.707 67.264 118.253 67.4507C108.52 67.8587 99.8534 64.8814 95.8534 68.36L95.7067 68.488C89.72 73.7827 88.7734 81.212 88.4 86.6854C88.3467 87.5254 88.3067 88.324 88.2534 89.0587C88.1067 89.9987 87.96 90.912 87.84 91.792C87.3333 91.1173 86.3601 88.6053 85.4534 85.8773L84.4 85.5867C84.4534 84.8093 84.5334 84.0333 84.6267 83.2613C85.4001 77.308 87.5734 71.5467 90.7201 66.5307C92.3867 63.8653 103.907 48.664 104.88 48.6387C106.387 48.6 102.307 54.8187 102.32 58.588C102.36 63.1254 115.52 46.4707 116.587 47.1693C117.467 47.7427 112.867 60.6054 114.453 61.4547C117.893 63.3054 121.667 44.2586 124.587 46.0373C126.707 47.324 121.84 59.3387 123.253 60.8467C126.76 64.5893 134.507 43.0906 136.92 44.512C138.587 45.4933 131.827 57.9454 132.56 58.752C133.373 59.6547 135.693 58.6093 136.613 58.404C142.013 57.2 147.067 53.0413 149.64 48.1747C150.093 47.3 150.533 46.2467 150.853 45.1214C151.333 45.7934 151.613 46.564 151.68 47.44Z" fill="#AF740B"/>
<path d="M121 81.1414C123.987 79.6947 131.227 79.5374 133.413 79.524C133.813 79.524 134.04 79.524 134.04 79.524C133.76 79.0947 133.347 77.3587 132.8 76.792C132.2 76.1707 130.867 75.8707 130.013 75.6227C127.6 74.9067 124.84 74.3427 122.4 73.9813C121.76 75.3333 121.573 76.8493 121.413 78.348C121.307 79.3027 121.2 80.2494 121 81.1414Z" fill="#DB9B19"/>
<path d="M121 81.1414C123.987 79.6947 131.227 79.5374 133.413 79.524C132.613 79.3014 131.813 79.1494 131.293 79.0294C129.813 78.7014 127.933 78.0027 126.427 78.0973C126.267 77.5227 126.213 76.9427 126.04 76.3854C125.56 76.9747 125.16 77.6253 124.747 78.268C124.667 77.6507 124.547 76.9747 124.187 76.5494C123.733 77.1974 123.387 77.8787 123.067 78.5987C123.067 78.4587 122.947 78.1613 122.933 77.9787C122.453 77.9787 121.933 78.124 121.413 78.348C121.307 79.3027 121.2 80.2494 121 81.1414Z" fill="#AF740B"/>
<path d="M105.947 82.3173C102.88 81.0693 95.64 81.3853 93.4667 81.5147C93.0667 81.5387 92.84 81.556 92.84 81.556C93.08 81.108 93.3734 79.3494 93.8934 78.7494C94.4534 78.0894 95.76 77.7027 96.5867 77.3987C98.96 76.5267 101.667 75.7853 104.08 75.264C104.813 76.572 105.093 78.072 105.36 79.5574C105.52 80.5027 105.68 81.4413 105.947 82.3173Z" fill="#DB9B19"/>
<path d="M105.946 82.3173C102.88 81.0693 95.6399 81.3853 93.4666 81.5147C94.2399 81.24 95.0265 81.0373 95.5465 80.884C96.9998 80.46 98.8266 79.6386 100.333 79.6346C100.453 79.052 100.467 78.468 100.6 77.9C101.12 78.4587 101.573 79.0813 102.027 79.6947C102.067 79.0733 102.147 78.392 102.467 77.9426C102.96 78.56 103.36 79.2173 103.72 79.9173C103.707 79.776 103.8 79.472 103.813 79.2893C104.293 79.2573 104.827 79.3667 105.36 79.5574C105.52 80.5027 105.68 81.4413 105.946 82.3173Z" fill="#AF740B"/>
<path d="M111.933 111.429C114.613 111.397 126.84 115.331 120.667 105.707C119.307 103.6 118.013 94.9467 118.187 92.2013C118.293 90.3453 117.947 88.324 118.267 86.5147C118.267 86.5147 119.067 97.128 121 101.487C122 103.743 123.04 105.956 124.227 108.127C124.827 109.236 125.093 109.527 124.613 110.715C123.027 114.636 116.813 115.659 113.8 113.292C113.32 113.761 112.613 114.059 112 114.388C111.253 113.661 111.453 112.265 111.933 111.429Z" fill="#EF9C62"/>
<path d="M77.8534 81.7534C79.2268 80.912 81.0934 81.3854 82.7067 81.5601C84.4134 81.7494 86.96 82.0281 87.4133 84.0241C87.7733 85.5894 87.4134 87.6294 87.4667 89.2654L86.9734 99.4854C86.2534 99.8481 83.9068 99.9454 83.1201 99.476C82.0934 98.86 78.0934 89.6001 77.1868 85.8467C76.7734 84.1107 76.1201 82.8174 77.8534 81.7534Z" fill="#FFB884"/>
<path d="M78.4933 83.7974C78.7999 82.436 80.4532 82.8867 81.6132 82.9774C82.7599 83.0707 84.7466 83.0161 85.6399 83.9134C86.5199 84.7974 86.24 87.5561 86.1866 88.8827C83.2533 88.1774 83.4266 92.6814 85.92 92.3494L85.9465 93.176C85.9865 94.28 85.9332 95.636 85.6399 96.3774C85.6132 95.516 85.8532 93.8054 85.2666 93.1614C84.6932 92.532 83.4399 92.74 82.7732 92.14C81.0399 90.5787 83.1466 88.7041 84.7999 88.2241C84.7199 87.6201 84.7999 86.12 84.4666 85.6307C84.0799 85.0667 82.7732 84.9441 82.0799 84.7521C81.0532 84.4667 80.3866 84.0441 79.8933 84.9321C79.5599 85.5307 79.7999 86.5907 79.8266 87.2587C79.3199 86.4707 78.2933 84.728 78.4933 83.7974Z" fill="#EF9C62"/>
<path d="M109.653 119.867C107.827 118.856 99.2667 113.805 103.213 111.444C101.747 111.031 99.1334 112.715 98.7601 114.191L97.7334 115.583C100.093 114.399 101.12 116.744 102.84 117.984C104.627 119.288 106.587 120.633 108.56 121.628C110.787 122.745 113.467 123.561 115.973 123.805C117.733 123.976 120.667 124.153 122.24 123.229C118.213 124 113.12 121.781 109.653 119.867Z" fill="#EF9C62"/>
<path d="M113.16 127.629C113.16 127.629 116.76 131.044 118.093 132.48C118.627 130.983 119.72 129.077 119.987 127.501C117.827 128.817 115.093 127.496 113.16 127.629Z" fill="#EF9C62"/>
<path d="M122.36 207.069C118.787 207.687 115.146 208.119 111.48 208.351C109.226 208.495 106.96 208.572 104.667 208.572C101.907 208.572 99.1732 208.465 96.4666 208.253C99.1866 205.461 103.44 203.469 108.346 203.007C109.133 202.929 109.92 202.901 110.68 202.92C115.413 202.968 119.613 204.548 122.36 207.069Z" fill="#D31111"/>
<path d="M80.0267 190.616C79.9334 194.129 80.8534 199.925 82.0934 206.107C63.9067 202.092 47.5333 193.312 34.3067 181.152C33.6133 180.516 32.9201 179.861 32.2534 179.197C32.6934 177.185 33.2533 175.365 33.88 173.739L33.9466 173.584C35.9733 168.328 38.8 165.005 42.08 163.195C56.8 155.021 80.3334 177.291 80.0267 190.616Z" fill="#F74B4B"/>
</svg>
