<svg width="209" height="209" viewBox="0 0 209 209" fill="none" xmlns="http://www.w3.org/2000/svg">
<path d="M208.653 104.591C208.653 140.831 190.107 172.747 162 191.348C161.853 191.444 161.733 191.531 161.6 191.608C161.413 191.732 161.227 191.857 161.053 191.973C159.707 192.84 158.347 193.677 156.96 194.476L156.933 194.487C152.613 197.019 148.093 199.232 143.387 201.12C134.587 204.663 125.173 207.021 115.36 208.023C111.853 208.388 108.28 208.572 104.667 208.572C103.813 208.572 102.96 208.563 102.107 208.533C100.067 208.495 98.04 208.379 96.0267 208.216C89.0667 207.647 82.3066 206.385 75.8133 204.508C73.2799 203.787 70.7999 202.959 68.3466 202.053C28.8266 187.323 0.693359 149.245 0.693359 104.591C0.693359 47.16 47.24 0.609339 104.667 0.609339C162.093 0.609339 208.653 47.16 208.653 104.591Z" fill="#FCF9E8"/>
<path d="M129.773 176.791C129.333 176.645 128.893 176.501 128.44 176.357C128.08 176.241 127.733 176.125 127.36 176.019C126.627 175.789 125.92 175.567 125.213 175.365L124.96 175.297V175.288C124.347 175.124 123.747 174.961 123.16 174.807L123.12 174.797C122.6 174.663 122.093 174.537 121.587 174.421C121.133 174.316 120.693 174.229 120.253 174.133C117.12 173.517 113.973 173.189 110.373 173.18C109.747 173.18 107.533 173.477 104.547 173.931C103.893 174.027 103.2 174.143 102.467 174.257H102.453C102.053 174.316 101.627 174.383 101.2 174.451L101.16 174.46C101.213 174.316 101.267 174.172 101.32 174.027C101.693 173.979 102.067 173.931 102.427 173.881H102.44C103.173 173.787 103.88 173.7 104.547 173.623C107.453 173.269 109.613 173.033 110.333 173.033C110.36 173.033 110.387 173.035 110.413 173.035C113.987 173.112 117.12 173.477 120.253 174.133C120.693 174.229 121.133 174.316 121.587 174.421C122.093 174.537 122.6 174.663 123.12 174.797L123.16 174.807C123.747 174.961 124.347 175.124 124.96 175.288L125.213 175.365C125.92 175.567 126.627 175.78 127.36 176.011C127.733 176.125 128.08 176.241 128.44 176.357C128.893 176.492 129.333 176.636 129.773 176.781V176.791Z" fill="#BEB5A7"/>
<path d="M96.0268 208.216C89.0668 207.647 82.3067 206.387 75.8133 204.508C73.28 203.787 70.8 202.959 68.3467 202.053C68.9067 194.708 69.8667 188.815 71.6001 185.34C73.0934 182.327 75.0267 180.669 77.1067 179.987C82.3867 178.263 88.6801 182.74 91.6535 187.409C93.2935 190 94.9201 197.721 96.0268 208.216Z" fill="#665D5C"/>
<path d="M161.587 192.377C161.587 192.069 161.4 191.935 161.053 191.973C159.707 192.84 158.347 193.677 156.96 194.476L156.933 194.487C152.613 197.019 148.093 199.232 143.387 201.12C134.587 204.663 125.173 207.021 115.36 208.023C111.853 208.388 108.28 208.572 104.667 208.572C103.813 208.572 102.96 208.563 102.107 208.533C100.067 208.495 98.0399 208.379 96.0266 208.216C89.0666 207.647 82.3065 206.385 75.8132 204.508C75.0665 196.604 74.9065 188.739 77.1065 179.987C77.2399 179.467 77.3866 178.947 77.5332 178.427C77.5332 178.427 90.4533 176.184 100.12 174.624C100.467 174.565 100.813 174.519 101.16 174.46L101.2 174.451C101.627 174.383 102.053 174.316 102.453 174.257H102.467C103.2 174.143 103.893 174.027 104.547 173.931C107.533 173.477 109.747 173.18 110.373 173.18C113.973 173.189 117.12 173.517 120.253 174.133C120.693 174.229 121.133 174.316 121.587 174.421C122.093 174.537 122.6 174.663 123.12 174.797L123.16 174.807C123.747 174.961 124.347 175.124 124.96 175.288V175.297L125.213 175.365C125.92 175.567 126.627 175.789 127.36 176.019C127.733 176.125 128.08 176.241 128.44 176.357C128.893 176.501 129.333 176.645 129.773 176.791C136.467 178.967 142.533 181.248 148.933 184.04C150.213 184.608 151.507 185.185 152.84 185.792C155.44 186.985 160.467 188.025 161.453 190.915C161.52 191.135 161.573 191.367 161.6 191.608C161.627 191.857 161.627 192.108 161.587 192.377Z" fill="#4F4746"/>
<path d="M99.4666 135.525L102.693 177.228C101.867 178.648 101.12 180.185 100.507 181.824C99.3199 184.919 98.6932 188.016 98.5466 190.892C98.3732 194.623 99.04 197.981 100.453 200.489C101.533 202.391 103.027 203.805 104.907 204.523C111.2 206.917 119.44 200.64 123.293 190.501C124.413 187.556 125.453 181.836 125.453 181.836L124.147 164.769L122.307 140.993L120.8 121.58L120.333 115.505L98.0533 117.223L99.4666 135.525Z" fill="#FFB884"/>
<path d="M100.507 181.825C99.3199 184.919 98.6798 188.016 98.5465 190.891C98.9598 189.016 99.5066 187.175 100.16 185.508C101.16 183.008 103 181.2 104.08 178.932C105.173 176.631 104.067 173.999 104.853 171.371C106.32 166.503 113.427 162.865 116.333 158.301C119.693 153.041 121.147 147.707 122.213 141.54C122.253 141.357 122.28 141.175 122.307 140.995C123.347 134.052 121.08 128.045 121.24 121.3L120.813 121.58L99.4666 135.524L102.693 177.227C101.867 178.645 101.12 180.184 100.507 181.825Z" fill="#EF9C62"/>
<path d="M100.453 200.489C101.533 202.391 103.027 203.805 104.907 204.523C111.2 206.917 119.44 200.64 123.293 190.501C124.413 187.556 125.453 181.836 125.453 181.836L124.147 164.769C123.973 166.981 123.76 169.185 123.533 171.365C122.813 178.1 122.04 185.127 119.293 191.428C117.6 195.319 115.24 200.68 111.613 203.183C108.013 205.664 102.813 204.335 100.453 200.489Z" fill="#EF9C62"/>
<path d="M67.6132 100.919C68.7199 99.6174 70.5865 99.9827 72.1465 99.9894C73.8132 99.9987 76.2665 100.015 77.1465 102.584C77.8399 104.603 77.9733 107.343 78.3866 109.493L80.2132 123.052C79.6132 123.633 77.4266 124.087 76.5732 123.577C75.4666 122.907 69.5999 111.243 67.9066 106.413C67.1199 104.181 66.2132 102.564 67.6132 100.919Z" fill="#FFB884"/>
<path d="M68.4934 102.588C68.5734 101.259 70.2 101.432 71.3067 101.344C72.4 101.257 74.2667 100.905 75.24 101.615C76.2 102.315 76.3601 104.957 76.5201 106.215C73.6401 105.995 74.4801 110.215 76.7867 109.524L76.9334 110.299C77.1334 111.333 77.2934 112.619 77.1334 113.363C76.9734 112.556 76.9467 110.907 76.2934 110.388C75.6534 109.88 74.5067 110.267 73.7867 109.804C71.9201 108.593 73.6267 106.507 75.1067 105.805C74.9467 105.248 74.7867 103.823 74.4 103.411C73.9467 102.939 72.6933 103.023 72.0133 102.945C71.0133 102.832 70.3067 102.535 69.9733 103.447C69.76 104.06 70.1466 105.024 70.28 105.649C69.6666 104.984 68.4401 103.497 68.4934 102.588Z" fill="#EF9C62"/>
<path d="M73.8268 114.452C74.2134 117.521 80.3468 133.452 80.7334 144.941C80.7601 145.699 80.7601 146.437 80.7334 147.151C80.7201 147.817 80.7201 148.472 80.5868 149.084C77.3335 164.109 114.587 180.764 121.987 133.543C122.693 129.044 121.253 121.347 121.347 115.716C121.347 115.447 121.36 115.173 121.373 114.891C121.653 110.417 123.36 104.324 122.987 99.328C122.693 95.2454 128.24 63.5214 105.733 58.4721C82.0801 53.1667 74.4801 87.4547 76.1868 93.3373C81.0801 110.177 72.3201 102.677 73.8268 114.452Z" fill="#FFB884"/>
<path d="M88.1065 100.98C87.6932 100.629 82.5065 101.052 80.5732 101.465C79.9999 101.589 79.3599 101.605 79.0533 102.237C78.7466 102.865 78.3599 104.108 78.2266 104.76C78.1733 105.035 78.2266 105.885 78.2266 105.885C80.5199 105.335 83.8532 104.376 86.2399 105.072C87.2932 105.375 89.0533 108.075 89.2266 108.121C89.2133 107.899 88.5332 101.337 88.1065 100.98Z" fill="#E89258"/>
<path d="M78.9067 107.949C78.9067 107.949 79.8801 110.055 83.6934 110.089C87.4934 110.124 88.5067 108.036 88.5067 108.036C88.5067 108.036 88.9067 108.26 89 108.116C89.1067 107.973 88.6001 107.621 88.5601 107.16C88.5067 106.697 87.6934 103.067 86.7334 102.715C85.7734 102.363 79.7466 102.316 78.8133 103.869C77.88 105.423 78.9067 107.949 78.9067 107.949Z" fill="white"/>
<path d="M86.4933 106.445C86.48 108.204 85.2266 109.62 83.7066 109.605C82.1733 109.592 80.9599 108.153 80.9733 106.395C80.9866 104.633 82.24 103.219 83.76 103.232C85.28 103.247 86.5066 104.684 86.4933 106.445Z" fill="#3A2E26"/>
<path d="M84.1867 106.073C84.1733 106.809 83.6532 107.4 83.0132 107.395C82.3866 107.388 81.8666 106.788 81.8799 106.053C81.8799 105.317 82.3999 104.725 83.0399 104.732C83.6799 104.737 84.1867 105.339 84.1867 106.073Z" fill="#4C3F35"/>
<path d="M84.5466 106.383C84.5333 106.631 84.3599 106.831 84.1466 106.829C83.9333 106.827 83.76 106.624 83.76 106.375C83.76 106.127 83.9467 105.927 84.16 105.928C84.3733 105.931 84.5466 106.135 84.5466 106.383Z" fill="white"/>
<path d="M88.32 107.912C88.32 107.932 87.3066 109.876 83.6933 109.848C83.44 109.848 83.2133 109.837 83 109.809C82.5466 109.78 82.1467 109.703 81.7867 109.607H81.7466H81.72H81.7066L81.6933 109.597C80.9066 109.385 80.3466 109.077 79.96 108.769L79.9333 108.76L79.8799 108.712L79.8399 108.683H79.8266C79.2933 108.249 79.0933 107.855 79.0933 107.855C79.0933 107.835 78.8933 107.364 78.7733 106.719C78.7066 106.429 78.6666 106.112 78.6399 105.784V105.775C78.6133 105.159 78.6667 104.524 78.9867 104.013C79.52 103.117 82.2799 102.732 84.6132 102.761C85.7066 102.771 86.4399 102.857 86.6799 102.953C87.1599 103.127 87.6933 104.591 88.0266 105.765V105.775C88.16 106.285 88.2667 106.719 88.32 107.007V107.017L88.3466 107.189C88.3732 107.441 88.4933 107.643 88.6 107.816L88.4132 107.711L88.32 107.912ZM89.2132 108.008V107.951V107.941L89.0399 107.643C88.9333 107.499 88.7866 107.305 88.76 107.132C88.76 107.045 88.7067 106.719 88.5867 106.265C88.5067 105.939 88.4133 105.563 88.3066 105.168C88.2399 104.976 88.1867 104.784 88.12 104.591C88.0533 104.379 87.9733 104.176 87.8933 103.975C87.8266 103.82 87.7466 103.676 87.6933 103.551L87.6399 103.444L87.5333 103.243C87.3733 102.973 87.2 102.752 87.0266 102.617L86.8799 102.52L86.8 102.483C86.6933 102.443 86.5332 102.415 86.3466 102.387L86.2266 102.367L85.9733 102.337L85.72 102.319L85.4399 102.3L85.3466 102.289C85.1199 102.271 84.88 102.26 84.6266 102.26C84.5066 102.26 84.3199 102.271 84.0799 102.271L83.9066 102.28C83.7999 102.28 83.68 102.28 83.56 102.289H83.4533L83.1733 102.308C82.2933 102.357 81.2 102.483 80.2933 102.743L80.0266 102.829L79.7333 102.935L79.6399 102.964L79.4666 103.049L79.16 103.224L79.0399 103.309L78.9333 103.396L78.7867 103.531L78.6399 103.733L78.4933 104.041L78.4266 104.196C78.3733 104.303 78.3333 104.417 78.32 104.543L78.2533 104.899C78.2267 105.015 78.2266 105.149 78.2132 105.275V105.351L78.2 105.361V105.505L78.2132 105.745V105.765L78.2266 105.881V105.891C78.2266 106.016 78.24 106.131 78.2533 106.256C78.3067 106.651 78.4 107.017 78.4666 107.315C78.5866 107.748 78.7066 108.028 78.7066 108.067C78.7599 108.153 79.7999 110.3 83.6799 110.328C86.9466 110.357 88.24 108.875 88.5867 108.336L88.8933 108.413C89.04 108.403 89.1333 108.336 89.1733 108.268L89.2266 108.124V108.115L89.2132 108.008Z" fill="#E89258"/>
<path d="M78.4665 107.313C78.3599 106.913 78.2531 106.392 78.2131 105.837L78.2265 105.876C78.2265 105.881 78.2265 105.885 78.2265 105.885V105.891C78.2265 106.016 78.2399 106.131 78.2532 106.256C78.3066 106.649 78.3999 107.015 78.4665 107.312V107.313Z" fill="#E5A577"/>
<path d="M78.7732 106.717C78.7066 106.428 78.6666 106.112 78.6399 105.784V105.775C78.6132 105.159 78.6666 104.524 78.9866 104.013C79.5066 103.148 82.0932 102.76 84.3732 102.76C84.4532 102.76 84.5332 102.76 84.6132 102.761C85.7065 102.771 86.4399 102.857 86.6799 102.953C87.1599 103.127 87.6933 104.591 88.0266 105.765V105.771C88.0266 105.769 88.0266 105.767 88.0266 105.765C87.5199 105.361 86.8532 104.943 86.0132 104.631C85.5332 103.793 84.7066 103.241 83.7599 103.232C83.7466 103.232 83.7466 103.232 83.7333 103.232C82.8933 103.232 82.1333 103.673 81.6266 104.369C80.1333 104.828 79.2532 105.875 78.7732 106.717Z" fill="#E5E5E5"/>
<path d="M88.5866 106.263C88.5866 106.261 88.5866 106.26 88.5866 106.259C88.5066 105.933 88.4132 105.56 88.3065 105.168C88.2398 104.976 88.1866 104.784 88.1199 104.591C88.1066 104.575 88.1065 104.559 88.1065 104.541C88.3065 105.147 88.4799 105.775 88.5866 106.263ZM78.2131 105.352C78.2131 105.343 78.2131 105.332 78.2131 105.321V105.351V105.352ZM78.2131 105.172C78.2398 104.941 78.2665 104.711 78.3332 104.487C78.3199 104.505 78.3199 104.524 78.3199 104.543L78.2532 104.899C78.2399 104.983 78.2265 105.079 78.2131 105.172ZM78.3866 104.272C78.4532 104.088 78.5332 103.909 78.6265 103.741L78.4932 104.041L78.4265 104.196C78.4132 104.221 78.3999 104.245 78.3866 104.272ZM87.8932 103.985C87.8932 103.983 87.8932 103.979 87.8932 103.975C87.8265 103.82 87.7465 103.676 87.6932 103.551L87.6398 103.444L87.5332 103.243C87.3732 102.973 87.1999 102.752 87.0265 102.617L86.8798 102.52L86.7999 102.483C86.6932 102.443 86.5331 102.415 86.3465 102.387L86.2265 102.367L85.9732 102.337L85.7199 102.319L85.4398 102.3L85.3465 102.289C85.3331 102.289 85.3332 102.289 85.3199 102.288C86.0132 102.32 86.5465 102.389 86.7999 102.481C87.2265 102.635 87.5865 103.249 87.8932 103.985ZM78.6398 103.728C78.7598 103.537 78.9331 103.372 79.1465 103.228L79.0398 103.309L78.9332 103.396L78.7866 103.531L78.6398 103.728ZM79.1599 103.221C79.2932 103.132 79.4531 103.051 79.6131 102.977L79.4665 103.049L79.1599 103.221ZM79.6665 102.957C80.6932 102.519 82.1999 102.356 83.3199 102.299L83.1732 102.308C82.2932 102.357 81.1999 102.483 80.2932 102.743L80.0265 102.829L79.7332 102.935L79.6665 102.957ZM83.5599 102.289H83.5065C83.5465 102.288 83.5998 102.285 83.6398 102.284C83.6132 102.285 83.5865 102.288 83.5599 102.289ZM83.7199 102.281C83.8266 102.277 83.9332 102.275 84.0265 102.273L83.9065 102.28C83.8398 102.28 83.7866 102.28 83.7199 102.281Z" fill="#D0834F"/>
<path d="M86.0132 104.631C85.2532 104.343 84.3465 104.145 83.3065 104.136C83.2932 104.136 83.2666 104.136 83.2533 104.136C82.6399 104.136 82.1066 104.223 81.6266 104.369C82.1333 103.673 82.8932 103.232 83.7332 103.232C83.7466 103.232 83.7466 103.232 83.7599 103.232C84.7066 103.241 85.5332 103.793 86.0132 104.631Z" fill="#342922"/>
<path d="M78.4666 107.312C78.3999 107.015 78.3066 106.649 78.2533 106.256C78.24 106.131 78.2266 106.016 78.2266 105.891V105.885V105.881V105.876L78.2132 105.837C78.2132 105.677 78.1999 105.516 78.2132 105.352V105.351V105.321C78.2132 105.272 78.2132 105.223 78.2132 105.172C78.2265 105.079 78.24 104.983 78.2533 104.899L78.32 104.543C78.32 104.524 78.3199 104.505 78.3333 104.487C78.3466 104.415 78.3733 104.343 78.3866 104.272C78.4 104.245 78.4133 104.221 78.4266 104.196L78.4933 104.041L78.6266 103.741C78.6399 103.737 78.6399 103.735 78.6399 103.732C78.6399 103.731 78.6399 103.729 78.6399 103.728L78.7866 103.531L78.9333 103.396L79.0399 103.309L79.1465 103.228C79.1465 103.225 79.1599 103.223 79.1599 103.221L79.4666 103.049L79.6132 102.977C79.6399 102.971 79.6533 102.964 79.6666 102.957L79.7333 102.935L80.0266 102.829L80.2933 102.743C81.1999 102.483 82.2932 102.357 83.1732 102.308L83.32 102.299C83.3733 102.296 83.4399 102.292 83.5066 102.289H83.5599C83.5866 102.288 83.6132 102.285 83.6399 102.284C83.6666 102.283 83.6933 102.283 83.72 102.281C83.7866 102.28 83.8399 102.28 83.9066 102.28L84.0266 102.273C84.1999 102.269 84.3466 102.268 84.4666 102.268C84.5199 102.268 84.5733 102.269 84.6266 102.269C84.8666 102.271 85.1066 102.277 85.32 102.288C85.3333 102.289 85.3332 102.289 85.3465 102.289L85.4399 102.3L85.72 102.319L85.9732 102.337L86.2266 102.367L86.3465 102.387C86.5332 102.415 86.6933 102.443 86.7999 102.483L86.8799 102.52L87.0266 102.617C87.1999 102.752 87.3733 102.973 87.5333 103.243L87.6399 103.444L87.6933 103.551C87.7466 103.676 87.8266 103.82 87.8933 103.975C87.8933 103.979 87.8933 103.983 87.8933 103.985C87.9733 104.165 88.0399 104.352 88.1066 104.541C88.1066 104.559 88.1066 104.575 88.12 104.591C88.1866 104.784 88.2399 104.976 88.3066 105.168C88.4132 105.56 88.5066 105.933 88.5866 106.259C88.4266 106.103 88.2399 105.937 88.0266 105.771V105.765C87.6933 104.591 87.1599 103.127 86.6799 102.953C86.4399 102.857 85.7065 102.771 84.6132 102.761C84.5332 102.76 84.4532 102.76 84.3732 102.76C82.0932 102.76 79.5066 103.148 78.9866 104.013C78.6666 104.524 78.6132 105.159 78.6399 105.775V105.784C78.6666 106.112 78.7066 106.428 78.7732 106.717C78.7732 106.719 78.7732 106.72 78.7732 106.721C78.6399 106.937 78.5466 107.137 78.4666 107.312Z" fill="#D0834F"/>
<path d="M103.613 102.357C104.093 102.015 110.08 102.539 112.307 102.992C112.96 103.125 113.72 103.155 114.053 103.793C114.4 104.427 114.813 105.676 114.947 106.331C115.013 106.605 114.947 107.455 114.947 107.455C112.307 106.861 108.467 105.836 105.693 106.485C104.48 106.769 102.387 109.433 102.187 109.476C102.213 109.253 103.12 102.707 103.613 102.357Z" fill="#E89258"/>
<path d="M114.12 109.505C114.12 109.505 112.933 111.593 108.547 111.552C104.147 111.512 103.013 109.407 103.013 109.407C103.013 109.407 102.56 109.621 102.44 109.475C102.333 109.329 102.92 108.989 102.987 108.528C103.04 108.067 104.053 104.452 105.173 104.12C106.293 103.787 113.253 103.857 114.293 105.429C115.333 107.001 114.12 109.505 114.12 109.505Z" fill="white"/>
<path d="M105.84 107.781C105.827 109.541 107.24 110.981 109 110.999C110.76 111.013 112.2 109.599 112.213 107.84C112.227 106.08 110.813 104.64 109.053 104.624C107.293 104.608 105.853 106.021 105.84 107.781Z" fill="#3A2E26"/>
<path d="M106.16 107.531C106.147 108.265 106.747 108.868 107.48 108.873C108.213 108.881 108.813 108.289 108.813 107.555C108.827 106.819 108.24 106.217 107.507 106.211C106.76 106.204 106.16 106.795 106.16 107.531Z" fill="#4C3F35"/>
<path d="M108.36 107.747C108.36 107.996 108.56 108.199 108.813 108.201C109.053 108.204 109.267 108.004 109.267 107.756C109.267 107.507 109.067 107.304 108.813 107.301C108.573 107.299 108.36 107.499 108.36 107.747Z" fill="white"/>
<path d="M114.467 107.344V107.353C114.427 107.681 114.36 107.999 114.293 108.277V108.288C114.12 108.933 113.907 109.395 113.907 109.404C113.893 109.404 112.733 111.34 108.56 111.301L108.533 111.311C107.333 111.301 106.36 111.119 105.613 110.877C103.813 110.291 103.24 109.308 103.24 109.289L103.12 109.087L102.907 109.173C103.053 109.009 103.187 108.817 103.227 108.567L103.253 108.384V108.375C103.32 108.087 103.453 107.652 103.613 107.141C104.027 105.977 104.653 104.524 105.24 104.351C105.52 104.263 106.36 104.196 107.6 104.205C110.307 104.225 113.493 104.668 114.093 105.573C114.44 106.083 114.507 106.737 114.467 107.344ZM114.96 106.979V106.94L114.947 106.776L114.933 106.516C114.907 106.256 114.84 106.005 114.747 105.765L114.613 105.496L114.507 105.293L114.4 105.159C114.213 104.956 113.96 104.784 113.64 104.639L113.387 104.524C113.173 104.437 112.933 104.36 112.693 104.303L112.667 104.292C112.533 104.253 112.387 104.216 112.24 104.176C111.693 104.051 111.093 103.955 110.507 103.897C110.333 103.868 110.147 103.849 109.973 103.84C109.747 103.811 109.507 103.792 109.293 103.783L108.973 103.763C108.36 103.724 107.867 103.715 107.613 103.715C107.36 103.715 107.107 103.715 106.867 103.724C106.733 103.724 106.6 103.724 106.493 103.733C106.187 103.744 105.933 103.763 105.707 103.783C105.52 103.801 105.373 103.82 105.253 103.849L105.107 103.879L104.92 103.965C104.76 104.041 104.627 104.167 104.493 104.321L104.36 104.475C104.28 104.591 104.187 104.716 104.093 104.851C103.88 105.197 103.693 105.611 103.507 106.025C103.44 106.179 103.387 106.333 103.333 106.488C103.173 106.901 103.053 107.296 102.96 107.632C102.827 108.087 102.747 108.413 102.747 108.5C102.72 108.672 102.547 108.856 102.427 109L102.213 109.308V109.317L102.2 109.356L102.187 109.472L102.253 109.636C102.307 109.693 102.4 109.769 102.573 109.769C102.693 109.769 102.827 109.741 102.92 109.713C103.32 110.252 104.773 111.764 108.547 111.803C113.027 111.84 114.28 109.721 114.32 109.627C114.347 109.587 114.493 109.308 114.627 108.875C114.733 108.557 114.84 108.163 114.893 107.739L114.933 107.46L114.947 107.449V107.412V107.401V107.383V107.373V107.364V107.353V107.335V107.325V107.315V107.305V107.296V107.287V107.267V107.219L114.96 107.084L114.973 106.997L114.96 106.979Z" fill="#E89258"/>
<path d="M114.627 108.879C114.627 108.877 114.627 108.876 114.627 108.876C114.627 108.875 114.627 108.875 114.627 108.875C114.733 108.557 114.84 108.163 114.893 107.739L114.933 107.46V107.455C114.933 107.455 114.933 107.455 114.947 107.455C114.947 107.455 114.947 107.453 114.947 107.451V107.449V107.441C114.947 107.431 114.947 107.416 114.947 107.396V107.392C114.893 107.952 114.76 108.477 114.627 108.879Z" fill="#E5A577"/>
<path d="M114.947 107.455C114.933 107.455 114.933 107.455 114.933 107.455L114.947 107.451C114.947 107.453 114.947 107.455 114.947 107.455ZM114.947 107.441V107.412V107.401V107.396C114.947 107.416 114.947 107.431 114.947 107.441Z" fill="#D0834F"/>
<path d="M114.293 108.287C114.293 108.284 114.293 108.283 114.293 108.28C113.827 107.548 113.027 106.659 111.72 106.112C111.16 105.227 110.187 104.635 109.053 104.624C109.04 104.624 109.04 104.624 109.027 104.624C107.987 104.624 107.053 105.127 106.467 105.907C105.267 106.204 104.32 106.683 103.627 107.144C103.627 107.145 103.613 107.145 103.613 107.147C103.613 107.145 103.613 107.143 103.613 107.141C104.027 105.977 104.653 104.524 105.24 104.351C105.493 104.268 106.253 104.205 107.373 104.205C107.44 104.205 107.52 104.205 107.6 104.205C110.307 104.225 113.493 104.668 114.093 105.573C114.44 106.083 114.507 106.737 114.467 107.344V107.353C114.427 107.681 114.36 107.999 114.293 108.277V108.287Z" fill="#E5E5E5"/>
<path d="M111.72 106.112C111.013 105.812 110.147 105.616 109.093 105.605C109.067 105.605 109.027 105.605 109 105.605C108.053 105.605 107.213 105.721 106.467 105.907C107.053 105.127 107.987 104.624 109.027 104.624C109.04 104.624 109.04 104.624 109.053 104.624C110.187 104.635 111.16 105.227 111.72 106.112Z" fill="#342922"/>
<path d="M102.96 107.631C102.973 107.588 102.987 107.543 103 107.497C102.987 107.543 102.973 107.587 102.96 107.631Z" fill="#D0834F"/>
<path d="M114.947 107.371V107.368C114.947 107.353 114.947 107.336 114.947 107.316V107.315V107.313C114.947 107.308 114.947 107.303 114.947 107.296V107.293C114.96 107.232 114.96 107.159 114.96 107.079C114.96 107.176 114.96 107.273 114.947 107.371Z" fill="#E5A577"/>
<path d="M114.947 107.368V107.316C114.947 107.336 114.947 107.353 114.947 107.368ZM114.947 107.313V107.305V107.296C114.947 107.303 114.947 107.308 114.947 107.313ZM114.947 107.293V107.287V107.267V107.219L114.96 107.084V107.061C114.96 107.067 114.96 107.072 114.96 107.079C114.96 107.159 114.96 107.232 114.947 107.293ZM114.96 106.984V106.979V106.94L114.947 106.776L114.933 106.516C114.92 106.421 114.907 106.328 114.893 106.235C114.947 106.483 114.96 106.735 114.96 106.984ZM103.48 106.109C103.88 105.1 104.44 104.111 105.067 103.895L104.92 103.965C104.76 104.041 104.627 104.167 104.493 104.321L104.36 104.475C104.28 104.591 104.187 104.716 104.093 104.851C103.88 105.197 103.693 105.611 103.507 106.025C103.507 106.053 103.493 106.081 103.48 106.109ZM114.747 105.753L114.613 105.496L114.547 105.353C114.627 105.483 114.693 105.616 114.747 105.753ZM114.467 105.248L114.4 105.159C114.213 104.956 113.96 104.784 113.64 104.639L113.387 104.524C113.173 104.437 112.933 104.36 112.693 104.303L112.667 104.292C112.547 104.257 112.427 104.224 112.293 104.189C113.267 104.416 114.107 104.752 114.467 105.248ZM111.133 103.972C110.92 103.943 110.72 103.917 110.507 103.897C110.44 103.885 110.36 103.876 110.293 103.867C110.573 103.896 110.853 103.931 111.133 103.972ZM105.173 103.865C105.227 103.852 105.293 103.839 105.36 103.827C105.32 103.835 105.293 103.841 105.253 103.849L105.173 103.865ZM110.16 103.853C110.093 103.848 110.04 103.843 109.973 103.84C109.92 103.833 109.867 103.827 109.813 103.821C109.933 103.831 110.04 103.841 110.16 103.853ZM109.333 103.784C109.32 103.783 109.307 103.783 109.293 103.783L108.973 103.763C108.88 103.756 108.8 103.752 108.707 103.747C108.907 103.756 109.107 103.768 109.333 103.784ZM105.733 103.78C106.16 103.737 106.733 103.713 107.387 103.713C107.44 103.713 107.493 103.713 107.56 103.715C107.32 103.715 107.08 103.715 106.867 103.724C106.733 103.724 106.6 103.724 106.493 103.733C106.2 103.743 105.947 103.761 105.733 103.78Z" fill="#D0834F"/>
<path d="M114.627 108.876C114.547 108.701 114.427 108.503 114.293 108.287V108.277C114.36 107.999 114.427 107.681 114.467 107.353V107.344C114.507 106.737 114.44 106.083 114.093 105.573C113.493 104.668 110.307 104.225 107.6 104.205C107.52 104.205 107.44 104.205 107.373 104.205C106.253 104.205 105.493 104.268 105.24 104.351C104.653 104.524 104.027 105.977 103.613 107.141C103.613 107.143 103.613 107.145 103.613 107.147C103.373 107.312 103.147 107.475 102.96 107.631C102.973 107.587 102.987 107.543 103 107.497C103.12 107.087 103.28 106.596 103.48 106.109C103.493 106.081 103.507 106.053 103.507 106.025C103.693 105.611 103.88 105.197 104.093 104.851C104.187 104.716 104.28 104.591 104.36 104.475L104.493 104.321C104.627 104.167 104.76 104.041 104.92 103.965L105.067 103.895C105.08 103.892 105.093 103.888 105.093 103.884C105.12 103.879 105.147 103.872 105.173 103.865L105.253 103.849C105.293 103.841 105.32 103.835 105.36 103.827C105.467 103.809 105.587 103.793 105.733 103.78C105.947 103.761 106.2 103.743 106.493 103.733C106.6 103.724 106.733 103.724 106.867 103.724C107.08 103.715 107.32 103.715 107.56 103.715C107.573 103.715 107.6 103.715 107.613 103.715C107.827 103.716 108.213 103.724 108.707 103.747C108.8 103.752 108.88 103.756 108.973 103.763L109.293 103.783C109.307 103.783 109.32 103.783 109.333 103.784C109.493 103.795 109.653 103.807 109.813 103.821C109.867 103.827 109.92 103.833 109.973 103.84C110.04 103.843 110.093 103.848 110.16 103.853C110.2 103.857 110.253 103.863 110.293 103.867C110.36 103.876 110.44 103.885 110.507 103.897C110.72 103.917 110.92 103.943 111.133 103.972C111.52 104.031 111.92 104.101 112.293 104.189C112.427 104.224 112.547 104.257 112.667 104.292L112.693 104.303C112.933 104.36 113.173 104.437 113.387 104.524L113.64 104.639C113.96 104.784 114.213 104.956 114.4 105.159L114.467 105.248C114.48 105.263 114.493 105.277 114.507 105.293C114.52 105.313 114.533 105.333 114.547 105.353L114.613 105.496L114.747 105.753C114.8 105.909 114.853 106.072 114.893 106.235C114.907 106.328 114.92 106.421 114.933 106.516L114.947 106.776L114.96 106.94V106.979V106.984C114.96 107.009 114.96 107.036 114.96 107.061V107.084L114.947 107.219V107.267V107.287V107.293V107.296V107.305V107.313V107.315V107.316V107.325V107.335V107.353V107.364V107.368V107.371C114.947 107.377 114.947 107.385 114.947 107.392V107.396V107.401V107.412V107.441V107.449V107.451L114.933 107.455V107.46L114.893 107.739C114.84 108.163 114.733 108.557 114.627 108.875C114.627 108.875 114.627 108.875 114.627 108.876Z" fill="#D0834F"/>
<path d="M87.3999 95.792C84.3066 95.14 77.5466 96.6666 75.5333 97.156C75.1599 97.2493 74.9465 97.3013 74.9465 97.3013C75.1065 96.8399 75.0799 95.1387 75.4666 94.488C75.8799 93.7733 77.0399 93.188 77.7732 92.76C79.8532 91.5387 82.2666 90.3826 84.4533 89.4813C85.36 90.5866 85.8799 91.948 86.3732 93.2987C86.6932 94.16 86.9999 95.0133 87.3999 95.792Z" fill="#5E3B2F"/>
<path d="M103.04 90.3506C106.2 90.092 112.707 92.4533 114.64 93.1933C115 93.332 115.2 93.4106 115.2 93.4106C115.107 92.932 115.347 91.2466 115.053 90.556C114.72 89.7933 113.64 89.068 112.973 88.5506C111.067 87.0786 108.813 85.6267 106.76 84.46C105.72 85.4427 105.04 86.7279 104.373 88.0039C103.947 88.8186 103.533 89.6266 103.04 90.3506Z" fill="#5E3B2F"/>
<path d="M91.16 102.301C91.16 102.301 93.0934 119.275 90.56 126.604C94.96 127.32 102.32 129.439 101.933 124.287C105.293 130.379 93.5067 132.163 87 128.699C90.5067 124.771 90.1067 104.361 91.16 102.301Z" fill="#EF9C62"/>
<path d="M105.693 134.941C105.48 134.139 105.387 133.225 105.347 132.379C106.867 133.247 108.307 135.979 108.2 137.812C107.587 137.219 106.933 136.671 106.187 136.28C102.333 140.456 96.6401 142.548 89.5868 140.557C89.0001 138.687 87.5601 136.657 86.4268 135.129C98.5201 141.181 105.693 134.941 105.693 134.941Z" fill="#60120F"/>
<path d="M86.9332 135.328C87.2532 135.744 87.5465 136.16 87.8399 136.585C88.3465 137.345 88.7999 138.136 89.2399 138.999C89.4532 139.427 89.6266 139.847 89.8266 140.259L89.8933 140.401C89.9733 140.573 90.0665 140.744 90.1465 140.916C92.1998 141.188 94.3733 141.483 96.3866 141.069C96.5999 141.027 97.8799 140.871 99.2266 140.705C100.32 140.305 101.373 139.772 102.373 139.113L102.333 138.889L102.227 138.212L102.093 137.299L102.027 136.855L101.973 136.459C101.8 136.52 101.627 136.579 101.44 136.639C99.8532 137.137 97.8132 137.485 95.3732 137.315C95.1865 137.303 95.0133 137.288 94.8266 137.269C94.6666 137.263 94.4932 137.253 94.3332 137.243C91.9332 137.076 89.4532 136.433 86.9332 135.328Z" fill="white"/>
<path d="M89.8267 140.259L89.8933 140.401C89.9733 140.573 90.0666 140.744 90.1466 140.916C92.1999 141.188 94.3734 141.483 96.3867 141.069C96.6 141.027 97.88 140.871 99.2267 140.705C100.32 140.305 101.373 139.772 102.373 139.113L102.333 138.889L102.227 138.212L102.093 137.299L102.027 136.855L101.973 136.459C101.8 136.52 101.627 136.579 101.44 136.639C101.373 137.301 101.44 138.052 101.147 138.579C99.5999 141.359 90.8933 140.479 89.8267 140.259Z" fill="#F4F0ED"/>
<path d="M106.373 135.911L106.093 135.776L105.88 136.007C105.067 136.873 104.213 137.643 103.28 138.279C102.973 138.5 102.653 138.703 102.333 138.885C101.52 139.367 100.68 139.761 99.8133 140.069C97.9066 140.753 95.8266 141.023 93.64 140.859C92.76 140.801 91.8533 140.676 90.9466 140.473C90.7866 140.444 90.6134 140.407 90.4534 140.359L90.4133 140.348L90.3733 140.339C90.2133 140.3 90.0667 140.272 89.8933 140.223C89.44 138.876 88.5999 137.479 87.6799 136.169C88.0799 136.343 88.48 136.507 88.8933 136.661C91.08 137.489 93.2267 137.989 95.32 138.135C96.9334 138.249 98.3867 138.144 99.6534 137.923C100.267 137.816 100.84 137.681 101.387 137.519H101.4C101.64 137.451 101.867 137.373 102.093 137.297C102.44 137.181 102.773 137.056 103.08 136.931C104.893 136.16 105.88 135.323 105.96 135.247L106.147 135.092L106.08 134.841C105.973 134.389 105.88 133.888 105.827 133.263C106.707 134.119 107.467 135.573 107.707 136.815C107.253 136.449 106.813 136.151 106.373 135.911ZM105.56 132.02L105.173 131.799H105.16L104.893 131.645L104.92 131.963L104.907 131.972L104.933 132.396C104.987 133.359 105.08 134.129 105.227 134.784C104.88 135.033 104.12 135.555 102.96 136.073C102.653 136.208 102.32 136.333 101.973 136.459L101.653 136.565L101.44 136.632C101.32 136.671 101.187 136.709 101.053 136.748L100.973 136.777L100.68 136.853C100.427 136.921 100.147 136.979 99.8799 137.036L99.6 137.095H99.5867L99.24 137.152L99.1066 137.181H99.04H99.0133C98.8933 137.209 98.7733 137.22 98.6267 137.239C98.4933 137.257 98.3466 137.268 98.2133 137.287H98.12L97.8133 137.316L97.4933 137.335L97.1733 137.344C96.6 137.364 96 137.355 95.3733 137.305C95.2 137.297 95.0133 137.287 94.8267 137.268C92.6 137.047 90.32 136.42 87.9733 135.4C87.5333 135.207 87.0799 134.985 86.6133 134.764L85.0667 133.995L86.0933 135.371C87.32 137.017 88.64 138.924 89.2 140.685L89.2667 140.897L89.4799 140.955C90.8666 141.34 92.2533 141.591 93.5733 141.687C95.8 141.841 97.9199 141.581 99.8799 140.917C100.013 140.868 100.147 140.831 100.267 140.772C101.373 140.377 102.427 139.839 103.413 139.193C104.413 138.52 105.387 137.72 106.267 136.805C106.787 137.113 107.333 137.528 107.92 138.105L108.56 138.741L108.613 137.836C108.72 135.843 107.213 132.964 105.56 132.02Z" fill="#EF9C62"/>
<path d="M98.5465 145.008C98.5465 145.008 95.7065 148.996 95.2799 150.635C93.6932 149.109 91.1332 145.917 91.1066 143.672C92.9866 145.244 94.6799 146.523 98.5465 145.008Z" fill="#EF9C62"/>
<path d="M134.947 103.551C133.787 102.207 131.76 102.5 130.067 102.447C128.253 102.392 125.587 102.313 124.56 104.848C123.76 106.839 123.533 109.575 123.027 111.708L120.64 125.192C121.267 125.795 123.64 126.333 124.573 125.856C125.787 125.229 132.493 113.795 134.467 109.033C135.387 106.832 136.413 105.249 134.947 103.551Z" fill="#FFB884"/>
<path d="M133.946 105.185C133.893 103.853 132.12 103.965 130.933 103.833C129.76 103.705 127.746 103.28 126.666 103.952C125.6 104.615 125.36 107.251 125.146 108.501C128.266 108.393 127.227 112.58 124.76 111.8L124.573 112.569C124.32 113.596 124.106 114.873 124.266 115.624C124.466 114.824 124.546 113.177 125.266 112.683C125.96 112.2 127.2 112.629 127.987 112.195C130.053 111.057 128.267 108.905 126.693 108.148C126.88 107.596 127.093 106.176 127.52 105.78C128.027 105.325 129.387 105.457 130.12 105.407C131.213 105.332 131.986 105.063 132.306 105.987C132.533 106.609 132.08 107.557 131.92 108.177C132.6 107.536 133.973 106.096 133.946 105.185Z" fill="#EF9C62"/>
<path d="M75.96 91.0773C76.4667 83.9147 78.7066 75.9013 83.5066 70.2827C79.5466 80.5027 96.6933 84.6106 117.44 71.3973C122.96 74.2946 123.013 85.396 122.64 90.6453C122.267 95.7013 122.213 100.727 121.853 105.812C121.84 106.044 121.813 106.285 121.8 106.535C121.493 110.084 120.773 114.281 120.853 118.047C120.88 119.291 121 120.485 121.24 121.596C121.307 121.88 121.373 122.156 121.453 122.428C121.507 122.116 121.56 121.804 121.613 121.491C121.693 121.116 121.773 120.743 121.867 120.368C122.707 116.908 124.267 113.395 125.467 110.027C126.56 106.933 130.067 102.316 128.467 99.0387C130.28 98.0013 132.453 99.04 134.24 97.4653C135.827 96.068 135.84 94.2773 135.627 92.3946C135.24 89.0346 132.72 86.2413 132.267 83.1586C145.72 78.456 126.827 61.3026 120.773 58.9253C121.6 54.3493 114.947 51.1413 111.453 50.148C109.44 49.5733 107.44 49.64 105.413 49.7066C104.093 49.7506 102.76 49.7947 101.413 49.6573C110.147 50.1827 108.32 42.952 104.08 38.288C99.7733 33.5453 93.6267 33.5906 88.2267 36.376C85.28 37.8946 80.6 40.3786 79.3333 43.728C77.9867 47.3 79.76 50.7547 80.2267 54.2187C80.4267 55.6907 80.2799 57.2626 80.0133 58.8093C79.7999 60.04 79.5066 61.2533 79.24 62.388C78.4133 66.0587 77.0001 69.672 76.1201 73.4267C74.8534 78.9147 75.5467 85.5747 75.96 91.0773Z" fill="#5E3B2F"/>
<path d="M75.96 91.0786C76.4667 83.9146 78.7066 75.9013 83.5066 70.2827C79.5466 80.5027 96.6933 84.6106 117.44 71.3973C122.96 74.2947 123.013 85.396 122.64 90.6453C122.267 95.7013 122.213 100.727 121.853 105.812C121.84 106.044 121.813 106.284 121.8 106.535C121.547 109.651 120.987 114.079 120.853 118.048C120.88 119.291 121 120.485 121.24 121.596C121.307 121.88 121.373 122.156 121.453 122.428C121.507 122.116 121.56 121.804 121.613 121.491C121.693 121.116 121.773 120.743 121.867 120.368C121.2 114.157 123.68 107.447 124.773 101.428C125.493 97.4093 125.707 93.36 126.173 89.3C127.827 89.4413 129.253 89.4827 128.92 87.1627C128.787 86.1067 127.64 85.0747 127.027 84.2573C126.333 83.3267 125.867 82.2053 125.093 81.3493C126.227 78.8467 127.56 77.2947 125.96 74.6133C124.013 71.3533 116.573 65.5746 113.867 62.9733C110.907 64.9013 99.3066 77.3347 90.5466 71.0027C89.2933 70.0973 88.3466 69.0306 87.6133 67.64C86.9599 66.3813 86.9334 64.8813 86.3867 63.7213C84.6267 66.2373 81.3733 68.1093 79.04 70.1493C79.0533 67.232 80.5733 64.5306 80.44 61.5093C80.4 60.624 80.2399 59.7053 80.0133 58.8093C79.7999 60.04 79.5066 61.2533 79.24 62.388C78.4133 66.0587 77.0001 69.672 76.1201 73.4267C74.8534 78.916 75.5467 85.5746 75.96 91.0786Z" fill="#492E27"/>
<path d="M79.3733 149.984C76.1199 165.009 115.16 182.009 122.573 134.787C123.28 130.289 121.253 121.347 121.347 115.716C121.347 115.447 121.36 115.173 121.387 114.891C120.613 117.576 120.187 120.484 119.653 123.143C119.2 125.38 118.707 127.381 118.547 129.656C118.36 132.16 117.747 134.161 117.093 136.577C112.96 151.868 97.1066 153.117 96.2132 151.023C95.7466 149.931 95.8133 146.981 94.5733 147.933C93.4933 148.767 93.8266 151.44 92.6132 151.685C90.6799 152.083 82.8133 151.185 79.1333 133.836C79.16 134.593 79.7467 146.184 79.72 146.897C79.6934 147.564 79.5066 149.372 79.3733 149.984Z" fill="#492E27"/>
<path d="M84.2534 57.916C84.2401 57.688 84.2533 57.4613 84.28 57.2333C84.2666 57.4613 84.2534 57.688 84.2534 57.916Z" fill="#6F4D41"/>
<path d="M83.3733 58.4467C83.5066 56.196 84.3467 52.8467 83.9333 50.5227C83.5733 48.576 83.8933 46.5147 84.5066 44.5214C86.0133 39.5427 88.9734 38.1627 91.7867 38.1627C94.32 38.1627 96.7466 39.292 97.8666 39.9027C97.4666 39.76 96.96 39.6881 96.3867 39.6881C92.24 39.6881 84.7867 43.504 90.6 51.376C90.4666 51.3613 90.3466 51.3547 90.2133 51.3547C87.1066 51.3547 83.64 55.3507 83.3733 58.4467ZM98.52 40.2854C98.52 40.2854 98.28 40.1294 97.8666 39.9027C98.1333 39.9974 98.36 40.1254 98.52 40.2854Z" fill="#6F4D41"/>
<path d="M156.96 194.476C158.84 192.907 160.307 192.04 161.053 191.973C159.707 192.84 158.347 193.677 156.96 194.476Z" fill="#3B3432"/>
<path d="M161.6 191.608C161.627 191.857 161.627 192.108 161.587 192.377C161.587 192.069 161.4 191.935 161.053 191.973C159.707 192.84 158.347 193.677 156.96 194.476L156.933 194.487C152.613 197.019 148.093 199.232 143.387 201.12C143.467 198.972 143.707 197.124 144.08 195.623C146.88 184.896 155.653 186.428 161.453 190.915C161.64 191.059 161.827 191.203 162 191.348C161.853 191.444 161.733 191.531 161.6 191.608Z" fill="#665D5C"/>
</svg>
