<svg width="209" height="209" viewBox="0 0 209 209" fill="none" xmlns="http://www.w3.org/2000/svg">
<path d="M192.573 160.131C189.427 165.109 185.933 169.721 182.133 173.967C181.267 174.919 180.4 175.863 179.507 176.777C177.6 178.771 175.613 180.677 173.573 182.497C173.333 182.699 173.093 182.911 172.867 183.112C172.4 183.517 171.92 183.921 171.453 184.316C171.093 184.615 170.733 184.913 170.36 185.212C170.013 185.491 169.667 185.771 169.32 186.049L169.293 186.068C167.44 187.552 165.533 188.957 163.6 190.285C163.293 190.497 162.973 190.709 162.667 190.912C162.347 191.123 162.027 191.335 161.707 191.537C161.387 191.759 161.067 191.971 160.733 192.183C160.067 192.605 159.4 193.02 158.733 193.433L158.64 193.481C158.333 193.684 158.013 193.867 157.693 194.051C157.16 194.377 156.6 194.704 156.053 195.013L156 195.041C155.453 195.349 154.907 195.659 154.347 195.956C153.947 196.177 153.533 196.399 153.107 196.611L152.96 196.679C151.773 197.304 150.573 197.911 149.347 198.479C148.867 198.72 148.373 198.941 147.88 199.163C147.56 199.316 147.227 199.461 146.893 199.605C146.667 199.711 146.427 199.817 146.187 199.923L145.92 200.039L145.6 200.173C145.44 200.241 145.293 200.308 145.133 200.376L144.88 200.481L144.747 200.529C144.093 200.808 143.44 201.079 142.773 201.329L142.44 201.464C142.147 201.569 141.853 201.685 141.56 201.791L141.413 201.848L141.24 201.916C140.973 202.031 140.68 202.128 140.4 202.233C140.213 202.301 140.04 202.368 139.84 202.436C139.72 202.484 139.587 202.532 139.453 202.58L139.133 202.696C138.533 202.908 137.933 203.111 137.333 203.312C136.493 203.581 135.653 203.851 134.813 204.101L134.787 204.111L134.48 204.208C134.293 204.265 134.12 204.313 133.933 204.371L133.733 204.429C133.333 204.544 132.947 204.651 132.547 204.765L132.28 204.833C132.08 204.891 131.88 204.94 131.68 204.997C131.48 205.055 131.28 205.103 131.08 205.151C130.64 205.267 130.187 205.383 129.747 205.497C129.613 205.527 129.48 205.565 129.333 205.593L129.027 205.671C128.427 205.815 127.813 205.96 127.2 206.104C126.96 206.163 126.72 206.211 126.467 206.259C125.92 206.384 125.373 206.499 124.827 206.605L124.76 206.615L124.467 206.672C123.627 206.836 122.787 206.989 121.947 207.124C120.427 207.385 118.907 207.607 117.373 207.789C117.067 207.837 116.76 207.865 116.453 207.904L116.36 207.915C115.773 207.981 115.2 208.04 114.613 208.087L114.48 208.097C114.16 208.136 113.84 208.165 113.507 208.193C112.88 208.261 112.253 208.3 111.627 208.337C111 208.396 110.373 208.424 109.747 208.444C108.747 208.511 107.747 208.531 106.747 208.549H106.733C106.533 208.559 106.32 208.569 106.12 208.559L105.987 208.569C105.747 208.579 105.52 208.579 105.293 208.569C105.067 208.579 104.84 208.588 104.613 208.588C104.347 208.588 104.08 208.588 103.8 208.579C103.627 208.579 103.453 208.569 103.28 208.569C102.813 208.559 102.347 208.559 101.893 208.549C101.493 208.531 101.107 208.521 100.72 208.501L100.587 208.492C99 208.435 97.4266 208.337 95.8666 208.213C95.5733 208.184 95.28 208.165 94.9866 208.127C94.5866 208.087 94.1866 208.049 93.7866 208C91.7733 207.808 89.7732 207.539 87.7732 207.212C86.9999 207.077 86.2266 206.941 85.4533 206.797C85.2133 206.749 84.96 206.701 84.72 206.653C84.4933 206.615 84.2666 206.576 84.0533 206.537L83.8132 206.48C83.4265 206.403 83.0666 206.325 82.6666 206.239L82.36 206.172C81.9066 206.076 81.4932 205.979 81.0399 205.873C79.4266 205.497 77.8266 205.084 76.2266 204.631C76.08 204.592 75.9465 204.544 75.8132 204.516L75.7465 204.496L75.5866 204.448L75.3999 204.391C73.5599 203.851 71.7333 203.264 69.92 202.609C69.64 202.513 69.3733 202.417 69.12 202.32C68.7333 202.185 68.36 202.041 67.9867 201.896C67.4933 201.713 67.0133 201.531 66.5333 201.339C66.2133 201.213 65.9066 201.088 65.5999 200.963C65.3866 200.876 65.1599 200.789 64.9465 200.693C64.8132 200.636 64.6932 200.587 64.5465 200.529L64.4933 200.5L64.2666 200.404L64.0533 200.317L63.7867 200.212L63.6666 200.155C63.5066 200.096 63.3332 200.02 63.1732 199.943C63.0532 199.893 62.9199 199.836 62.7999 199.779C62.6799 199.721 62.5466 199.672 62.4399 199.605L62.4132 199.596C62.0932 199.451 61.7733 199.316 61.4666 199.163C61.1866 199.037 60.8932 198.912 60.6132 198.777C60.3865 198.681 60.1732 198.575 59.9466 198.479C59.4932 198.248 59.04 198.027 58.5867 197.805C58.2133 197.612 57.8267 197.42 57.4533 197.227L57.2399 197.121C56.8132 196.909 56.3733 196.668 55.96 196.447L55.8266 196.38L55.6533 196.275C55.2 196.043 54.7466 195.803 54.3066 195.561L54.1999 195.495C54.0266 195.408 53.8532 195.311 53.6799 195.205L53.5333 195.119C53.2533 194.965 52.9867 194.811 52.72 194.647L52.5333 194.541C52.2666 194.396 51.9999 194.243 51.7333 194.079C51.4799 193.925 51.2132 193.78 50.9732 193.616L50.9333 193.588L50.6799 193.444C50.5599 193.367 50.4266 193.289 50.3066 193.212C50.0666 193.068 49.8267 192.924 49.5867 192.779C49.44 192.683 49.2799 192.587 49.1333 192.491C48.9733 192.393 48.8133 192.288 48.6533 192.192C48.3333 191.989 48.0267 191.777 47.72 191.576L47.5333 191.451L47.3867 191.355L47.2266 191.248L47.1466 191.191L47.1066 191.171C46.8266 190.999 46.5732 190.825 46.3066 190.623C45.9732 190.42 45.6533 190.199 45.3333 189.968L45.2666 189.92L45.1466 189.843C45.0132 189.737 44.8799 189.64 44.7333 189.544C44.5999 189.448 44.4666 189.361 44.3466 189.275C44.1332 189.12 43.92 188.976 43.72 188.832L43.6533 188.775C42.84 188.196 42.0532 187.609 41.2799 187.003C40.7732 186.617 40.2666 186.232 39.7732 185.837C39.1732 185.356 38.5599 184.865 37.9732 184.375L37.7066 184.143C36.8666 183.46 36.0533 182.747 35.2666 182.015C34.6266 181.457 34 180.879 33.3867 180.292C33.2 180.128 33.0267 179.964 32.8533 179.791C32.3733 179.348 31.92 178.896 31.4533 178.433C31.16 178.164 30.8799 177.885 30.5999 177.596V177.587C30.0266 177.019 29.4667 176.431 28.92 175.844L28.6666 175.584L28.6266 175.527C28.28 175.169 27.9466 174.813 27.6266 174.448C27.0133 173.775 26.4132 173.1 25.8399 172.407C25.6399 172.195 25.4533 171.973 25.2666 171.761C23.7066 169.904 22.1999 168.007 20.7732 166.052C19.9732 164.955 19.1999 163.848 18.4399 162.721C18.3066 162.528 18.1732 162.336 18.0399 162.143C17.8266 161.825 17.6133 161.499 17.3999 161.171L17.36 161.084C16.2 159.304 15.0933 157.484 14.0666 155.635C13.9333 155.433 13.8132 155.201 13.7066 154.971C12.9732 153.691 12.3067 152.381 11.6533 151.061C11.2133 150.185 10.7866 149.329 10.3732 148.452C8.95991 145.381 7.69325 142.261 6.57325 139.084C6.06658 137.611 5.57327 136.139 5.13327 134.637C5.09327 134.521 5.0533 134.405 5.02663 134.28C4.9333 133.972 4.83989 133.673 4.74655 133.356C4.50655 132.519 4.26666 131.671 4.05332 130.833C-2.94668 103.963 0.759913 74.3653 16.7732 49.0453C47.4399 0.490626 111.667 -13.9893 160.213 16.6853C208.773 47.36 223.253 111.587 192.573 160.131Z" fill="#F7F2DA"/>
<path d="M158.64 193.481C158.333 193.684 158.013 193.867 157.693 194.051C157.16 194.377 156.6 194.704 156.053 195.013L156 195.041C155.453 195.349 154.907 195.659 154.347 195.956C153.947 196.177 153.533 196.399 153.107 196.611L152.96 196.679C151.773 197.304 150.573 197.911 149.347 198.479C148.867 198.72 148.373 198.941 147.88 199.163C147.56 199.316 147.227 199.461 146.893 199.605C146.667 199.711 146.427 199.817 146.187 199.923L145.92 200.039L145.6 200.173C145.44 200.241 145.293 200.308 145.133 200.376L144.88 200.481L144.747 200.529C144.093 200.808 143.44 201.079 142.773 201.329L142.44 201.464C142.147 201.569 141.853 201.685 141.56 201.791L141.413 201.848L141.24 201.916C140.973 202.031 140.68 202.128 140.4 202.233C140.213 202.301 140.04 202.368 139.84 202.436C139.72 202.484 139.587 202.532 139.453 202.58L139.133 202.696C138.533 202.908 137.933 203.111 137.333 203.312C136.493 203.581 135.653 203.851 134.813 204.101L134.787 204.111L134.48 204.208C134.293 204.265 134.12 204.313 133.933 204.371L133.733 204.429C133.333 204.544 132.947 204.651 132.547 204.765L132.28 204.833C132.08 204.891 131.88 204.94 131.68 204.997C131.48 205.055 131.28 205.103 131.08 205.151C130.64 205.267 130.187 205.383 129.747 205.497C129.613 205.527 129.48 205.565 129.333 205.593L129.027 205.671C128.427 205.815 127.813 205.96 127.2 206.104C126.96 206.163 126.72 206.211 126.467 206.259C125.92 206.384 125.373 206.499 124.827 206.605L124.76 206.615L124.467 206.672C123.627 206.836 122.787 206.989 121.947 207.124C120.427 207.385 118.907 207.607 117.373 207.789C117.067 207.837 116.76 207.865 116.453 207.904L116.36 207.915C115.773 207.981 115.2 208.04 114.613 208.087L114.48 208.097C114.16 208.136 113.84 208.165 113.507 208.193C112.88 208.261 112.253 208.3 111.627 208.337C111 208.396 110.373 208.424 109.747 208.444C108.747 208.511 107.747 208.531 106.747 208.549H106.733C106.533 208.559 106.32 208.569 106.12 208.559L105.987 208.569C105.747 208.579 105.52 208.579 105.293 208.569C105.067 208.579 104.84 208.588 104.613 208.588C104.347 208.588 104.08 208.588 103.8 208.579C103.627 208.579 103.453 208.569 103.28 208.569C102.813 208.559 102.347 208.559 101.893 208.549C101.493 208.531 101.107 208.521 100.72 208.501L100.587 208.492C99 208.435 97.4266 208.337 95.8666 208.213C95.5733 208.184 95.28 208.165 94.9867 208.127C94.5867 208.087 94.1867 208.049 93.7867 208C91.7734 207.808 89.7733 207.539 87.7733 207.212C86.9999 207.077 86.2267 206.941 85.4534 206.797C85.2134 206.749 84.96 206.701 84.72 206.653C84.4934 206.615 84.2667 206.576 84.0534 206.537L83.8132 206.48C83.4266 206.403 83.0666 206.325 82.6666 206.239L82.36 206.172C81.9067 206.076 81.4933 205.979 81.0399 205.873C79.4266 205.497 77.8267 205.084 76.2267 204.631C76.08 204.592 75.9466 204.544 75.8132 204.516L75.7466 204.496L75.5867 204.448L75.4 204.391C73.56 203.851 71.7334 203.264 69.92 202.609C69.64 202.513 69.3734 202.417 69.12 202.32C68.7334 202.185 68.36 202.041 67.9867 201.896C67.4934 201.713 67.0133 201.531 66.5333 201.339C66.2133 201.213 65.9066 201.088 65.6 200.963C65.3866 200.876 65.1599 200.789 64.9466 200.693C64.8132 200.636 64.6932 200.587 64.5466 200.529L64.4933 200.5L64.2666 200.404L64.0534 200.317L63.7867 200.212L63.6666 200.155C63.5066 200.096 63.3333 200.02 63.1733 199.943C63.0533 199.893 62.92 199.836 62.8 199.779C62.68 199.721 62.5466 199.672 62.4399 199.605C63.2266 176.893 68.4 163.337 75.92 152.236L75.9466 152.197L76.0666 152.179C77.7866 151.919 82.3866 150.455 87.8 148.587L88.0399 148.5C90.6399 147.615 93.4132 146.633 96.1466 145.66C96.8399 145.411 97.5333 145.16 98.2267 144.909C105.493 142.3 112.04 139.855 113.507 139.296C113.707 139.229 113.813 139.191 113.813 139.191C115.28 140.605 122.2 140.297 127.013 140.769C127.613 140.836 128.173 140.904 128.693 140.991C129.093 141.057 129.547 141.155 130.04 141.289C130.387 141.376 130.76 141.481 131.16 141.607C134.587 142.647 139.373 144.736 144.387 147.297C145.467 147.845 146.56 148.424 147.64 149.011C153.44 152.149 159.213 155.76 163.24 158.985C166.067 161.257 168.027 163.337 168.52 164.936C171.133 173.533 163.707 182.256 158.64 193.481Z" fill="#51415E"/>
<path d="M162.213 190.459C162.04 190.815 161.88 191.181 161.707 191.537C161.387 191.759 161.067 191.971 160.733 192.183C160.067 192.605 159.4 193.02 158.733 193.433L158.64 193.481C158.333 193.684 158.013 193.867 157.693 194.051C157.16 194.377 156.6 194.704 156.053 195.013L156 195.041C155.453 195.349 154.907 195.659 154.347 195.956C153.947 196.177 153.533 196.399 153.107 196.611L152.96 196.679C151.773 197.304 150.573 197.911 149.347 198.479C148.867 198.72 148.373 198.941 147.88 199.163C147.56 199.316 147.227 199.461 146.893 199.605C146.667 199.711 146.427 199.817 146.187 199.923L145.92 200.039L145.6 200.173C145.44 200.241 145.293 200.308 145.133 200.376L144.88 200.481L144.747 200.529C144.093 200.808 143.44 201.079 142.773 201.329L142.44 201.464C142.147 201.569 141.853 201.685 141.56 201.791L141.413 201.848L141.24 201.916C140.973 202.031 140.68 202.128 140.4 202.233C140.213 202.301 140.04 202.368 139.84 202.436C139.72 202.484 139.587 202.532 139.453 202.58L139.133 202.696C138.533 202.908 137.933 203.111 137.333 203.312C136.493 203.581 135.653 203.851 134.813 204.101L134.787 204.111L134.48 204.208C134.293 204.265 134.12 204.313 133.933 204.371L133.733 204.429C133.333 204.544 132.947 204.651 132.547 204.765L132.28 204.833C132.08 204.891 131.88 204.94 131.68 204.997C131.48 205.055 131.28 205.103 131.08 205.151C130.64 205.267 130.187 205.383 129.747 205.497C129.613 205.527 129.48 205.565 129.333 205.593L129.027 205.671C128.427 205.815 127.813 205.96 127.2 206.104C126.96 206.163 126.72 206.211 126.467 206.259C125.92 206.384 125.373 206.499 124.827 206.605L124.76 206.615L124.467 206.672C123.627 206.836 122.787 206.989 121.947 207.124C120.427 207.385 118.907 207.607 117.373 207.789C117.067 207.837 116.76 207.865 116.453 207.904L116.36 207.915C115.773 207.981 115.2 208.04 114.613 208.087L114.48 208.097C114.16 208.136 113.84 208.165 113.507 208.193C112.88 208.261 112.253 208.3 111.627 208.337C111 208.396 110.373 208.424 109.747 208.444C108.747 208.511 107.747 208.531 106.747 208.549H106.733C106.533 208.559 106.32 208.569 106.12 208.559L105.987 208.569C105.747 208.579 105.52 208.579 105.293 208.569C105.067 208.579 104.84 208.588 104.613 208.588C104.347 208.588 104.08 208.588 103.8 208.579C103.627 208.579 103.453 208.569 103.28 208.569C102.813 208.559 102.347 208.559 101.893 208.549C101.493 208.531 101.107 208.521 100.72 208.501C102.693 203.495 104.627 198.479 106.507 193.415C109.827 184.375 125.053 152.236 130.853 142.127C130.96 141.944 131.067 141.771 131.16 141.607C131.253 141.444 131.347 141.28 131.44 141.125C131.44 141.125 139.293 144.207 148.08 148.703C154.347 151.899 161.093 155.828 165.827 159.861C165.947 159.957 166.067 160.064 166.2 160.169C175.813 168.565 166.28 181.505 162.213 190.459Z" fill="#066FB7"/>
<path d="M132.72 179.493L133.347 181.38L116.453 207.904L116.36 207.915C115.773 207.981 115.2 208.04 114.613 208.087L114.48 208.097C114.16 208.136 113.84 208.165 113.507 208.193C112.88 208.261 112.253 208.3 111.627 208.337C111 208.396 110.373 208.424 109.747 208.444C108.747 208.511 107.747 208.531 106.747 208.549H106.733C106.533 208.559 106.32 208.569 106.12 208.559L105.987 208.569C105.747 208.579 105.52 208.579 105.293 208.569C105.067 208.579 104.84 208.588 104.613 208.588C104.347 208.588 104.08 208.588 103.8 208.579C103.627 208.579 103.453 208.569 103.28 208.569C102.813 208.559 102.347 208.559 101.893 208.549C103.507 204.409 105.107 200.26 106.64 196.081C109.973 187.041 125.2 154.903 131 144.804L145.68 150.397L148.213 151.369L128.64 165.224L128.013 165.667L132.72 179.493Z" fill="#066396"/>
<path d="M148.08 148.703L147.64 149.011L145.68 150.397L127.88 163L128.64 165.224L133.213 178.703L132.72 179.493L114.48 208.097C114.16 208.136 113.84 208.165 113.507 208.193C112.88 208.261 112.253 208.3 111.627 208.337C111 208.396 110.373 208.424 109.747 208.444C108.747 208.511 107.747 208.531 106.747 208.549H106.733C106.533 208.559 106.32 208.569 106.12 208.559L105.987 208.569C105.747 208.579 105.52 208.579 105.293 208.569C105.067 208.579 104.84 208.588 104.613 208.588C104.347 208.588 104.08 208.588 103.8 208.579C103.627 208.579 103.453 208.569 103.28 208.569C102.813 208.559 102.347 208.559 101.893 208.549C101.493 208.531 101.107 208.521 100.72 208.501C102.693 203.495 104.627 198.479 106.507 193.415C109.827 184.375 125.053 152.236 130.853 142.127L144.387 147.297L148.08 148.703Z" fill="#0D8FD6"/>
<path d="M88.0666 148.415L88.0399 148.5C87.6666 150.252 81.6132 178.357 75.8132 204.516L75.7466 204.496L75.5867 204.448L75.3999 204.391C73.5599 203.851 71.7333 203.264 69.92 202.609C69.64 202.513 69.3733 202.417 69.12 202.32C68.7333 202.185 68.36 202.041 67.9867 201.896C67.4933 201.713 67.0133 201.531 66.5333 201.339C66.2133 201.213 65.9066 201.088 65.6 200.963C65.3866 200.876 65.1599 200.789 64.9466 200.693C64.8132 200.636 64.6932 200.587 64.5466 200.529L64.4933 200.5L64.2666 200.404L64.0533 200.317L63.7867 200.212L63.6666 200.155C63.5066 200.096 63.3333 200.02 63.1733 199.943C63.0533 199.893 62.92 199.836 62.8 199.779C62.68 199.721 62.5466 199.672 62.4399 199.605L62.4132 199.596C62.0932 199.451 61.7733 199.316 61.4666 199.163C61.1866 199.037 60.8932 198.912 60.6132 198.777C60.3866 198.681 60.1732 198.575 59.9466 198.479C59.4932 198.248 59.04 198.027 58.5867 197.805C58.2133 197.612 57.8267 197.42 57.4533 197.227L57.2399 197.121C56.8133 196.909 56.3733 196.668 55.96 196.447L55.8266 196.38L55.6533 196.275C55.2 196.043 54.7466 195.803 54.3066 195.561L54.2 195.495C54.8133 191.152 55.4799 186.809 56.1733 182.487C57.3066 175.42 58.1199 166.957 61.2399 160.497C63.7333 155.327 71 154.075 75.92 152.236L76.0666 152.179L76.2933 152.092L88.0666 148.415Z" fill="#066FB7"/>
<path d="M87.4534 150.089C87.4534 150.089 81.4534 177.943 75.5868 204.448L75.4 204.391C73.56 203.851 71.7334 203.264 69.9201 202.609C69.6401 202.513 69.3734 202.417 69.1201 202.32C68.7334 202.185 68.3601 202.041 67.9868 201.896C67.4934 201.713 67.0134 201.531 66.5334 201.339C66.2134 201.213 65.9067 201.088 65.6 200.963C65.3867 200.876 65.16 200.789 64.9466 200.693C64.8133 200.636 64.6933 200.587 64.5466 200.529L64.4934 200.5L64.2667 200.404L64.0534 200.317L63.7868 200.212L63.6667 200.155C63.5067 200.096 63.3333 200.02 63.1733 199.943L64.0667 185.423L64.5868 185.077L76.6934 177.067L76.3334 176.027L71.2 160.901L72.1733 160.256L87.4534 150.089Z" fill="#066396"/>
<path d="M88.0666 148.415L88.0399 148.5C87.6666 150.252 81.6132 178.357 75.8132 204.516L75.7466 204.496L75.5867 204.448L75.4 204.391C73.56 203.851 71.7333 203.264 69.92 202.609C69.64 202.513 69.3733 202.417 69.12 202.32C68.7333 202.185 68.36 202.041 67.9867 201.896C67.4933 201.713 67.0133 201.531 66.5333 201.339C66.2133 201.213 65.9066 201.088 65.6 200.963C65.3866 200.876 65.1599 200.789 64.9466 200.693C64.8132 200.636 64.6932 200.587 64.5466 200.529L64.4933 200.5L64.2666 200.404L64.0533 200.317L63.7867 200.212L63.6666 200.155L64.5867 185.077L64.6666 183.748L76.3333 176.027L77.2933 175.391L72.1733 160.256L71.8267 159.225L87.8 148.587L88.0666 148.415Z" fill="#0D8FD6"/>
<path d="M179.507 176.777C177.6 178.771 175.613 180.677 173.573 182.497C173.333 182.699 173.093 182.911 172.867 183.112C172.4 183.517 171.92 183.921 171.453 184.316C171.093 184.615 170.733 184.913 170.36 185.212C170.013 185.491 169.667 185.771 169.32 186.049L169.293 186.068C167.44 187.552 165.533 188.957 163.6 190.285C163.293 190.497 162.973 190.709 162.667 190.912C162.347 191.123 162.027 191.335 161.707 191.537C161.387 191.759 161.067 191.971 160.733 192.183C160.067 192.605 159.4 193.02 158.733 193.433L158.64 193.481C158.333 193.684 158.013 193.867 157.693 194.051C157.16 194.377 156.6 194.704 156.053 195.013L156 195.041C155.453 195.349 154.907 195.659 154.347 195.956C153.947 196.177 153.533 196.399 153.107 196.611L152.96 196.679C151.773 197.304 150.573 197.911 149.347 198.479C148.867 198.72 148.373 198.941 147.88 199.163C147.56 199.316 147.227 199.461 146.893 199.605C146.667 199.711 146.427 199.817 146.187 199.923L145.92 200.039L145.6 200.173C145.44 200.241 145.293 200.308 145.133 200.376C145.56 198.344 145.987 196.399 146.387 194.589C147.56 189.217 148.56 184.943 149.293 182.477C149.467 181.909 149.627 181.351 149.8 180.803L149.827 180.696C150.2 179.455 150.573 178.251 150.96 177.085L151.053 176.797V176.777C154.773 165.475 158.547 158.591 163.24 158.985C163.88 159.024 164.52 159.216 165.187 159.533C165.4 159.64 165.613 159.747 165.827 159.861C172.893 163.491 177.227 169.403 179.507 176.777Z" fill="#0D8FD6"/>
<path d="M151.053 176.797C150.92 178.173 149.6 187.176 147.88 199.163C147.56 199.316 147.227 199.461 146.893 199.605C146.667 199.711 146.427 199.817 146.187 199.923L145.92 200.039L145.6 200.173C145.44 200.241 145.293 200.308 145.133 200.376L144.88 200.481L144.747 200.529C146.84 191.277 148.973 182.959 150.96 177.085L151.053 176.797Z" fill="#066396"/>
<path d="M103.173 168.068C111.213 166.921 125.293 148.66 130.32 140.883C129.227 140.539 128.173 140.221 127.187 139.932L127.133 139.915L127.12 139.913C126.733 139.799 126.347 139.693 125.973 139.589C125.507 139.369 125.08 139.048 124.693 138.652C123.16 138.467 121.547 138.34 119.84 138.269L106.8 138.515C105.72 138.571 104.613 138.721 103.493 138.947C102.067 139.227 100.613 139.625 99.1466 140.097C98.3999 140.333 97.64 140.592 96.8933 140.861C95.2533 153.791 88.9999 170.091 103.173 168.068Z" fill="white"/>
<path d="M102.213 164.316C95.5066 164.995 96.7468 156.091 98.2534 146.183V146.152C98.5334 144.065 95.9466 132.873 95.8133 130.031C95.6133 126.087 94.0267 120.667 92.7733 116.896C91.8933 114.297 91.1733 112.483 91.1733 112.483L120.64 110.764C120.64 110.764 119.293 120.788 120.48 127.36C120.813 129.2 121.88 135.835 124.68 138.652C125.08 139.049 125.507 139.371 125.973 139.591C126.333 139.761 126.72 139.873 127.12 139.915L127.133 139.916L127.187 139.932C128.24 140.688 112.387 163.279 102.213 164.316Z" fill="#FEAC74"/>
<path d="M120.48 127.36C114.093 144.392 103.347 146.303 98.2533 146.183V146.152C98.5333 144.065 95.9465 132.873 95.8132 130.031C95.6132 126.087 94.0265 120.667 92.7732 116.896C94.6399 114.705 96.2533 113.24 96.2533 113.24L120.64 110.764C120.64 110.764 119.293 120.788 120.48 127.36Z" fill="#E3784C"/>
<path d="M124.267 117.337C126.24 103.217 123.227 88.4227 125.133 74.8374C125.133 74.8374 114.653 64.2627 112.853 63.2347C111.733 62.592 110.547 62.0587 109.307 61.6414C108.027 61.4134 106.72 61.3067 105.427 61.3281C103.36 61.3641 89.0799 65.5867 89.0799 65.5867C86.6399 72.0067 84.9999 74.736 83.0399 84.812C81.4799 92.7827 84.5333 83.8534 80.8533 96.8881C79.28 102.481 71.3332 109.235 74.4399 121.06C76.1466 127.559 70.7466 153.728 112.227 132.677C117.627 129.933 123.467 123.095 124.267 117.337Z" fill="#FEAC74"/>
<path d="M98.1466 100.909C98.3199 100.98 98.4933 101.047 98.6667 101.111C98.84 101.173 99.0134 101.237 99.1867 101.295C99.3334 101.349 99.4933 101.401 99.64 101.451C99.76 101.491 99.8933 101.529 100 101.567C100.147 101.611 100.267 101.648 100.4 101.685C100.653 101.763 100.893 101.829 101.147 101.893C101.453 101.975 101.773 102.045 102.067 102.109C102.227 102.141 102.373 102.172 102.52 102.197C102.667 102.227 102.8 102.252 102.947 102.277L103.027 102.289C103.427 102.351 103.8 102.399 104.173 102.436L104.2 102.439C104.467 102.46 104.733 102.48 104.987 102.489C105.373 102.505 105.747 102.508 106.107 102.497L106.453 102.48L106.8 102.456C107.133 102.429 107.467 102.391 107.773 102.34L108.08 102.287L108.387 102.228L108.68 102.164L108.96 102.091C109.267 102.009 109.573 101.916 109.84 101.816L110 101.76L110.24 101.665C110.4 101.607 110.547 101.537 110.693 101.471C110.84 101.403 110.973 101.335 111.12 101.264L111.307 101.161L111.507 101.053L111.84 100.857L111.867 100.837C112.04 100.727 112.2 100.62 112.347 100.516L112.627 100.301L112.88 100.099L113.093 99.9014L113.187 99.8107C113.64 99.3894 113.853 99.0881 113.853 99.0881C112.027 96.1734 108.947 91.8147 104.147 93.1134C100.347 94.1374 100.667 97.8454 98.1466 100.909Z" fill="#E3784C"/>
<path d="M113.853 99.0881C113.853 99.0881 113.64 99.3894 113.187 99.8094L113.093 99.904L112.88 100.097L112.627 100.301L112.347 100.515C112.2 100.625 112.04 100.732 111.867 100.839L111.84 100.856L111.507 101.053L111.307 101.16L111.12 101.263C110.973 101.333 110.84 101.403 110.693 101.471C110.547 101.537 110.4 101.608 110.24 101.665L110 101.761L109.84 101.815C109.573 101.915 109.267 102.008 108.96 102.092L108.68 102.163L108.387 102.228L108.293 102.249L108.08 102.285L107.773 102.339C107.467 102.392 107.133 102.429 106.8 102.456L106.453 102.479L106.107 102.496C105.747 102.509 105.373 102.505 104.987 102.489C104.733 102.479 104.467 102.459 104.2 102.439L104.173 102.436C103.8 102.399 103.427 102.353 103.027 102.288L102.947 102.276C102.8 102.252 102.667 102.225 102.52 102.199C102.373 102.172 102.227 102.141 102.067 102.109L101.733 102.037C101.547 101.995 101.347 101.948 101.147 101.895C100.907 101.828 100.653 101.761 100.4 101.685C100.267 101.647 100.133 101.611 100 101.567C99.8933 101.529 99.76 101.491 99.64 101.451C99.4933 101.403 99.3334 101.349 99.1867 101.293C99.0134 101.236 98.84 101.173 98.6667 101.112C98.4933 101.047 98.3199 100.98 98.1466 100.909C100.667 97.8454 100.173 95.6374 103.96 94.6147C108.693 93.3374 111.92 96.0907 113.773 98.9587L113.787 98.9814L113.853 99.0881Z" fill="#E3784C"/>
<path d="M113.853 99.0881C113.853 99.0881 113.64 99.3894 113.187 99.8094L113.093 99.904L112.88 100.097L112.627 100.301L112.347 100.515C112.2 100.625 112.04 100.732 111.867 100.839L111.84 100.856L111.507 101.053L111.307 101.16L111.12 101.263C110.973 101.333 110.84 101.403 110.693 101.471C110.547 101.537 110.4 101.608 110.24 101.665L110 101.761L109.84 101.815C109.573 101.915 109.267 102.008 108.96 102.092L108.68 102.163L108.387 102.228L108.293 102.249L108.08 102.285L107.773 102.339C107.467 102.392 107.133 102.429 106.8 102.456L106.453 102.479L106.107 102.496C105.747 102.509 105.373 102.505 104.987 102.489C104.733 102.479 104.467 102.459 104.2 102.439L104.173 102.436C103.8 102.399 103.427 102.353 103.027 102.288L102.947 102.276C102.8 102.252 102.667 102.225 102.52 102.199C102.373 102.172 102.227 102.141 102.067 102.109L101.733 102.037C101.547 101.995 101.347 101.948 101.147 101.895C100.907 101.828 100.653 101.761 100.4 101.685C100.267 101.647 100.133 101.611 100 101.567C99.8933 101.529 99.76 101.491 99.64 101.451C99.4933 101.403 99.3334 101.349 99.1867 101.293C99.0134 101.236 98.84 101.173 98.6667 101.112C98.4933 101.047 98.3199 100.98 98.1466 100.909C100.667 97.8454 102.08 90.932 105.867 89.9067C110.6 88.6294 111.987 95.956 113.773 98.9587L113.787 98.9814L113.853 99.0881Z" fill="white"/>
<path d="M102.093 97.528C101.573 100.481 102.973 103.261 105.24 103.743C107.493 104.223 109.76 102.219 110.293 99.268C110.827 96.316 109.413 93.5347 107.16 93.0547C104.893 92.5747 102.627 94.5773 102.093 97.528Z" fill="#580801"/>
<path d="M103.213 99.4333C102.92 101.029 103.72 102.543 105 102.813C106.28 103.084 107.547 102.011 107.84 100.413C108.12 98.8187 107.32 97.3053 106.04 97.0346C104.76 96.7653 103.493 97.8387 103.213 99.4333Z" fill="#440502"/>
<path d="M111.293 99.6706C111.813 99.1986 111.28 97.228 111.28 97.228L105.947 99.6747C105.947 99.6747 110.267 100.6 111.293 99.6706Z" fill="white"/>
<path d="M98.1466 100.909C100.76 98.0827 103.28 91.8534 107.253 92.1587C111.133 92.456 111.84 96.4121 113.853 99.0881C113.733 94.0681 111.773 86.5147 106.973 87.812C103.173 88.836 98.8266 95.32 98.1466 100.909Z" fill="#580801"/>
<path d="M98.1466 100.909C100.667 97.8454 103.267 91.4347 107.253 91.7414C111.133 92.0387 112.027 96.1734 113.853 99.0881C113.733 94.0681 111.773 86.0961 106.973 87.3934C103.173 88.4201 98.8266 95.32 98.1466 100.909Z" fill="#E3784C"/>
<path d="M113.853 99.0881C113.853 99.0881 111.013 109.223 98.1466 100.909C98.3199 100.98 98.4933 101.047 98.6667 101.112C98.84 101.173 99.0134 101.236 99.1867 101.293C99.3334 101.349 99.4933 101.403 99.64 101.451C99.76 101.491 99.8933 101.529 100 101.567C100.133 101.611 100.267 101.647 100.4 101.685C100.653 101.761 100.907 101.828 101.147 101.895C101.347 101.948 101.547 101.995 101.733 102.037L102.067 102.109C102.227 102.141 102.373 102.172 102.52 102.199C102.667 102.225 102.8 102.252 102.947 102.276L103.027 102.288C103.427 102.353 103.8 102.399 104.173 102.436L104.2 102.439C104.467 102.459 104.733 102.479 104.987 102.489C105.373 102.505 105.747 102.509 106.107 102.496L106.453 102.479L106.8 102.456C107.133 102.429 107.467 102.392 107.773 102.339L108.08 102.285L108.293 102.249L108.387 102.228L108.68 102.163L108.96 102.092C109.267 102.008 109.573 101.915 109.84 101.815L110 101.761L110.24 101.665C110.4 101.608 110.547 101.537 110.693 101.471C110.84 101.403 110.973 101.333 111.12 101.263L111.307 101.16L111.507 101.053L111.84 100.856L111.867 100.839C112.04 100.732 112.2 100.625 112.347 100.515L112.627 100.301L112.88 100.097L113.093 99.9041L113.187 99.8094C113.64 99.3894 113.853 99.0881 113.853 99.0881Z" fill="#E3784C"/>
<path d="M90.4266 97.14L90.0798 97.272L89.7332 97.3867L89.4266 97.4814L89.1866 97.5494L88.9199 97.6161C88.7599 97.6587 88.5866 97.6921 88.4266 97.7241C88.2266 97.7641 88.0132 97.7934 87.8266 97.8187L87.5332 97.848L87.2533 97.8694L87.1999 97.8707C86.9466 97.8813 86.7066 97.88 86.4666 97.8694L86.4399 97.8654C86.2799 97.8534 86.1065 97.8387 85.9465 97.8147C85.6932 97.78 85.4665 97.7347 85.2399 97.6774L85.0266 97.6147L84.8132 97.548C84.5998 97.4774 84.3998 97.3987 84.2132 97.3054L84.0266 97.212L83.8399 97.1161L83.6666 97.0147L83.4932 96.9054C83.3066 96.784 83.1332 96.6534 82.9732 96.5187L82.8798 96.4427L82.7465 96.3187L82.4798 96.0667L82.2399 95.8067L82.1199 95.6787L82.0132 95.5467L81.8399 95.3107L81.8132 95.2881C81.7198 95.1561 81.6399 95.0294 81.5599 94.908L81.3999 94.6587L81.2666 94.4241L81.1599 94.2L81.1065 94.0974C80.8665 93.6227 80.7732 93.2974 80.7732 93.2974C82.2665 90.6494 84.7199 86.7347 87.5866 88.6427C89.8399 90.148 89.2132 93.7787 90.4266 97.14Z" fill="#E3784C"/>
<path d="M90.4266 97.14L90.0798 97.2706L89.7332 97.3866L89.4266 97.4813L89.1866 97.548L88.9199 97.6146C88.7599 97.6586 88.5999 97.692 88.4266 97.7253C88.2932 97.7507 88.1732 97.772 88.0399 97.792L87.8266 97.8187L87.5332 97.848L87.2533 97.8693L87.1999 97.872C86.9466 97.8813 86.7066 97.8787 86.4666 97.8693L86.4399 97.864C86.2799 97.856 86.1065 97.8386 85.9465 97.8146C85.6932 97.7813 85.4665 97.7346 85.2399 97.6786L85.0266 97.6146L84.8132 97.548C84.5998 97.4773 84.3998 97.3973 84.2132 97.304L84.0266 97.2133L83.8932 97.1467L83.8399 97.116L83.6666 97.0133L83.4932 96.9053C83.3066 96.7853 83.1332 96.652 82.9732 96.5187L82.8798 96.4413L82.7465 96.3173L82.4798 96.068L82.2399 95.8066L82.1332 95.68L82.0132 95.5467L81.8399 95.3133L81.8266 95.2893C81.7199 95.1587 81.6399 95.032 81.5599 94.9093L81.3999 94.6574L81.2666 94.424L81.1599 94.2L81.1065 94.0987C80.8665 93.6214 80.7732 93.2973 80.7732 93.2973C82.2665 90.648 84.6533 88.2427 87.5199 90.1493C89.7066 91.6067 89.2399 93.6413 90.3199 96.816L90.4266 97.14Z" fill="#E3784C"/>
<path d="M90.4266 97.14L90.0798 97.2706L89.7332 97.3866L89.4266 97.4813L89.1866 97.548L88.9199 97.6146C88.7599 97.6586 88.5999 97.692 88.4266 97.7253C88.2932 97.7507 88.1732 97.772 88.0399 97.792L87.8266 97.8187L87.5332 97.848L87.2533 97.8693L87.1999 97.872C86.9466 97.8813 86.7066 97.8787 86.4666 97.8693L86.4399 97.864C86.2799 97.856 86.1065 97.8386 85.9465 97.8146C85.6932 97.7813 85.4665 97.7346 85.2399 97.6786L85.0266 97.6146L84.8132 97.548C84.5998 97.4773 84.3998 97.3973 84.2132 97.304L84.0266 97.2133L83.8932 97.1467L83.8399 97.116L83.6666 97.0133L83.4932 96.9053C83.3066 96.7853 83.1332 96.652 82.9732 96.5187L82.8798 96.4413L82.7465 96.3173L82.4798 96.068L82.2399 95.8066L82.1332 95.68L82.0132 95.5467L81.8399 95.3133L81.8266 95.2893C81.7199 95.1587 81.6399 95.032 81.5599 94.9093L81.3999 94.6574L81.2666 94.424L81.1599 94.2L81.1065 94.0987C80.8665 93.6214 80.7732 93.2973 80.7732 93.2973C82.2665 90.648 84.0132 83.3373 86.8798 85.2453C89.0665 86.7053 89.1999 93.3453 90.3199 96.816L90.4266 97.14Z" fill="white"/>
<path d="M87.6666 93.8853C87.7066 96.6093 86.5599 98.904 85.0933 99.012C83.6266 99.1186 82.4132 96.9986 82.3732 94.276C82.3332 91.552 83.4798 89.2586 84.9465 89.1506C86.4132 89.0426 87.6266 91.1627 87.6666 93.8853Z" fill="#580801"/>
<path d="M86.2533 95.1013C86.2666 96.572 85.6133 97.8147 84.7866 97.876C83.9733 97.9373 83.2799 96.792 83.2533 95.32C83.2399 93.8493 83.8932 92.6067 84.7065 92.5453C85.5332 92.4853 86.2266 93.6293 86.2533 95.1013Z" fill="#440502"/>
<path d="M82.2799 91.7414C82.1866 91.9668 82.0933 92.1921 81.9867 92.4134C81.92 92.5948 81.8533 92.7761 81.7867 92.9561C81.72 93.1187 81.6533 93.3174 81.5867 93.5334C82.48 94.1561 84.6399 93.9948 84.6399 93.9948L82.2799 91.7414Z" fill="white"/>
<path d="M90.4266 97.4307C89.2132 94.0707 88.1598 87.772 85.6132 87.5587C83.1465 87.348 82.3732 90.816 80.7732 93.2987C80.7999 93.1507 80.8132 93 80.8399 92.8467L80.8932 92.5107C80.9199 92.3427 80.9465 92.176 80.9732 92.0053C80.9999 91.864 81.0266 91.7213 81.0533 91.5813V91.5507C81.9466 86.8053 83.9465 81.2133 86.4798 82.9066C88.5998 84.3173 90.4132 90.876 90.4399 96.316C90.4532 96.6933 90.4399 97.0667 90.4266 97.4307Z" fill="#580801"/>
<path d="M90.4399 96.3161C90.4399 96.5961 90.4399 96.8693 90.4266 97.14C89.2132 93.7787 88.1465 87.2934 85.6132 87.0801C83.1332 86.8734 82.2665 90.6481 80.7732 93.2987C80.7999 93.1507 80.8132 93.0001 80.8399 92.8467L80.8932 92.5107C80.9199 92.3427 80.9465 92.176 80.9732 92.0054C80.9999 91.864 81.0266 91.7214 81.0533 91.5814V91.5507C81.9466 86.8054 83.9465 81.2133 86.4798 82.9067C88.5998 84.3173 90.4132 90.8761 90.4399 96.3161Z" fill="#E3784C"/>
<path d="M90.4266 97.14C81.3732 103.699 80.7732 93.2973 80.7732 93.2973C80.7732 93.2973 80.8665 93.6213 81.1065 94.0987L81.1599 94.2L81.2666 94.424L81.3999 94.6573L81.5599 94.9093C81.6399 95.032 81.7199 95.1586 81.8266 95.2893L81.8399 95.3133L82.0132 95.5467L82.1332 95.68L82.2399 95.8066L82.4798 96.0679L82.7465 96.3173L82.8798 96.4413L82.9732 96.5187C83.1332 96.652 83.3066 96.7853 83.4932 96.9053L83.6666 97.0133L83.8399 97.116L83.8932 97.1467L84.0266 97.2133L84.2132 97.3039C84.3998 97.3973 84.5998 97.4773 84.8132 97.548L85.0266 97.6146L85.2399 97.6786C85.4665 97.7346 85.6932 97.7813 85.9465 97.8146C86.1065 97.8386 86.2799 97.856 86.4399 97.864L86.4666 97.8693C86.7066 97.8786 86.9466 97.8813 87.1999 97.872L87.2533 97.8693L87.5332 97.848L87.8266 97.8187L88.0399 97.792C88.1732 97.772 88.2932 97.7506 88.4266 97.7253C88.5999 97.692 88.7599 97.6586 88.9199 97.6146L89.1866 97.548L89.4266 97.4813L89.7332 97.3866L90.0798 97.2706L90.4266 97.14Z" fill="#E3784C"/>
<path d="M90.8266 77.2187C90.3066 77.3147 89.3465 77.556 89.3465 77.556L88.5333 79.6654C88.5333 79.6654 88.0666 78.056 87.7866 78.148C80.64 80.604 80.0266 86.196 80.0266 86.196C81.8133 84.784 83.7466 83.6467 85.7333 82.9574C88.4533 82.0134 90.1866 82.116 91.8399 83.0973C91.6666 81.1173 91.3866 79.136 90.8266 77.2187Z" fill="#440502"/>
<path d="M106.413 75.652C106.92 75.7747 107.867 76.064 107.867 76.064L108.573 78.2147C108.573 78.2147 109.12 76.632 109.387 76.7387C116.4 79.5627 116.733 85.1813 116.733 85.1813C115.013 83.6773 113.147 82.4413 111.2 81.648C108.533 80.564 106.787 80.5787 105.093 81.472C105.36 79.504 105.76 77.5387 106.413 75.652Z" fill="#440502"/>
<path d="M89.3867 132.312C85.4667 130.284 83.52 133.484 83.52 133.484C83.7734 132.588 83.92 131.341 84.8534 130.827C86.28 130.037 88.6134 131.017 89.3867 132.312Z" fill="#E3784C"/>
<path d="M77.1733 112.212C77.1733 112.212 80.3868 130.451 87.7201 129.315C98.2534 127.681 101.36 120.916 101.52 117.573C96.4934 116.344 79.7467 112.821 77.1733 112.212Z" fill="#873421"/>
<path d="M101.613 117.859C101.547 118.295 101.453 118.799 101.347 119.319C101.027 120.841 100.52 122.473 99.9733 122.756L99.8799 122.795C99.7466 122.848 99.5867 122.896 99.3867 122.935C95.9334 123.684 82.88 122.707 81.4267 122.636C81.1867 121.78 80.9467 120.921 80.7333 120.056C80.1867 117.9 79.7466 115.711 79.64 113.461C79.6133 113.057 79.6133 112.651 79.6133 112.241C79.8399 112.304 80.0934 112.365 80.36 112.429C81.6 112.744 83.0934 113.113 84.6934 113.516C90.68 115.012 98.1466 116.873 101.24 117.755L101.613 117.859Z" fill="white"/>
<path d="M101.347 119.319C101.027 120.841 100.52 122.473 99.9734 122.756L99.88 122.795C99.7467 122.848 99.5868 122.896 99.3868 122.935C95.9335 123.684 82.8801 122.707 81.4268 122.636C81.1868 121.78 80.9467 120.921 80.7334 120.056C81.2801 120.755 81.9867 120.46 82.7734 120.828C82.3467 118.891 82.2934 116.345 83.0001 114.465C82.5601 122.767 87.0934 121.569 88.7334 121.792C88.8267 120.797 88.8801 118.845 89.0535 117.873C89.0668 118.621 89.0801 120.783 89.3601 121.467C89.6801 122.269 94.1734 121.949 95.7601 121.76C97.6801 121.529 99.72 120.765 101.347 119.319Z" fill="#E8E6E6"/>
<path d="M99.9201 123.148C99.4668 123.785 98.9201 124.417 98.2934 125.029C96.1601 127.111 92.92 128.939 88.2 129.741C88.0667 129.768 87.9334 129.787 87.7868 129.811C87.4801 129.861 87.1601 129.877 86.8534 129.864C86.2534 129.837 85.6934 129.693 85.1601 129.453C84.9601 129.365 84.7601 129.267 84.5601 129.149C83.8801 128.743 83.2401 128.173 82.6534 127.499C82.5734 127.348 82.5067 127.192 82.4267 127.031V127.024C82.0667 126.229 81.8001 125.347 81.7201 124.421C81.7068 124.171 81.6933 123.916 81.7067 123.659C81.7067 123.499 81.72 123.339 81.7467 123.179C87.4133 123.132 93.1734 123.199 98.7868 122.995C98.9868 122.988 99.1868 122.977 99.3868 122.972C99.5601 122.964 99.7201 122.961 99.8934 122.951L99.9067 123.041L99.9201 123.148Z" fill="white"/>
<path d="M99.9201 123.148C99.4667 123.785 98.92 124.417 98.2934 125.029C96.16 127.111 92.92 128.939 88.2 129.741C89.1067 129.431 89.92 129.072 90.3733 128.824C90.9067 128.541 91.4134 128.188 91.8534 127.769C92.6534 127.021 93.2267 126.069 93.2267 124.969C92.2134 124.117 82.12 123.663 81.7067 123.659C81.7067 123.499 81.72 123.339 81.7466 123.179C87.4133 123.132 93.1734 123.199 98.7867 122.995C98.9867 122.988 99.1867 122.977 99.3867 122.972C99.5601 122.964 99.72 122.961 99.8934 122.951L99.9067 123.041L99.9201 123.148Z" fill="#E8E6E6"/>
<path d="M95.2933 126.116C94.3066 126.741 93.1733 127.3 91.8533 127.772C90.6133 128.215 89.2133 128.581 87.6266 128.821C87.3866 128.86 87.1333 128.879 86.8933 128.86C85.9999 128.821 85.1866 128.455 84.4266 127.859C83.5866 127.204 82.8132 126.241 82.1332 125.133V125.124C81.9866 124.893 81.8532 124.663 81.7332 124.421C79.5199 120.436 78.2398 114.899 77.8132 112.896V112.887V112.877C78.2798 112.983 78.9066 113.117 79.6266 113.272H79.6533C79.9866 113.349 80.3599 113.436 80.7599 113.523C81.8666 113.763 83.1599 114.043 84.5732 114.341L84.6266 114.36H84.6399H84.6533C85.4133 114.524 86.1999 114.688 86.9999 114.871H87.0132C88.8265 115.256 90.6798 115.66 92.4798 116.055C92.7732 116.112 93.0532 116.18 93.3332 116.237C93.9599 116.383 94.5865 116.507 95.1732 116.652L95.3065 116.671C97.5999 117.181 99.6133 117.633 100.987 117.961C100.92 118.568 100.76 119.251 100.48 119.992C100.32 120.436 100.12 120.897 99.8533 121.369L99.7999 121.465C99.7199 121.62 99.6398 121.764 99.5465 121.908C99.3332 122.264 99.0666 122.631 98.7999 122.996L98.7599 123.035L98.7465 123.044C97.9065 124.123 96.7733 125.192 95.2933 126.116ZM102.013 117.181L101.64 117.084C100.027 116.691 97.2533 116.075 94.1199 115.389C93.4533 115.247 92.7866 115.092 92.0933 114.947C90.1866 114.524 88.2132 114.1 86.3332 113.687C86.1599 113.657 85.9999 113.619 85.8266 113.58C85.4799 113.503 85.1333 113.436 84.7866 113.359C83.1599 113.012 81.6265 112.685 80.3732 112.405L80.0533 112.348L79.7599 112.28L79.6798 112.261L79.6132 112.243C78.5198 112.001 77.7066 111.828 77.2933 111.723L76.5465 111.549L76.6798 112.3C76.6798 112.339 76.7066 112.435 76.7332 112.569C77.0532 114.283 78.8933 123.179 82.6533 127.501C83.2399 128.176 83.8799 128.744 84.5599 129.148C84.7599 129.264 84.9599 129.36 85.1599 129.456L85.4798 129.583L85.7732 129.679L86.0933 129.765L86.4132 129.823C86.5465 129.841 86.7066 129.852 86.8533 129.861L87.0666 129.871C87.3066 129.871 87.5466 129.852 87.7999 129.813C87.9332 129.784 88.0665 129.765 88.2132 129.736C88.5865 129.668 88.9599 129.601 89.3199 129.524C89.5066 129.476 89.7066 129.437 89.8933 129.389L90.1199 129.332C90.3333 129.283 90.5199 129.235 90.7065 129.177C91.2265 129.043 91.7199 128.879 92.1999 128.705C92.4399 128.619 92.6799 128.532 92.9065 128.436C93.0932 128.368 93.2799 128.281 93.4666 128.205L93.6933 128.109C93.8666 128.023 94.0398 127.945 94.2132 127.859C94.6532 127.647 95.0799 127.416 95.4933 127.175C95.6266 127.088 95.7599 127.011 95.9065 126.915L95.9332 126.887L95.9732 126.867C96.1465 126.761 96.2933 126.655 96.4533 126.549L96.5599 126.463L96.6533 126.404L96.9732 126.164L97.2798 125.923C97.4398 125.788 97.5998 125.664 97.7465 125.528L97.7999 125.491C97.9732 125.336 98.1333 125.181 98.2933 125.028C98.9199 124.421 99.4666 123.785 99.9199 123.151C101.373 121.109 101.96 119.049 102.027 117.595V117.519L102.04 117.181H102.013Z" fill="#E3784C"/>
<path d="M70.2399 111.651C71.5999 110.673 78.3732 113.141 80.4798 113.708C81.6798 114.033 83.4932 114.751 84.8666 114.296C86.2132 113.851 86.4932 112.133 86.8399 110.96C86.8399 110.96 70.6799 107.651 70.2399 111.651Z" fill="#440502"/>
<path d="M106.947 119.188C105.947 117.479 95.8533 116.808 92.8533 116.387C91.1333 116.148 88.3865 116.027 87.0132 114.873C85.6532 113.74 86.5333 111.777 86.92 110.352C86.92 110.352 109.213 114.705 106.947 119.188Z" fill="#440502"/>
<path d="M94.1201 110.725C91.5201 112.2 87.5867 111.929 84.9733 110.528C84.7333 110.404 84.4534 110.268 84.1601 110.12C83.1734 109.644 81.96 109.039 81.3467 108.245C81.0133 107.805 80.8533 107.312 81.0133 106.751C81.3333 105.657 82.3334 105.347 83.3601 105.561L83.3868 105.588C83.4934 105.757 84.1467 106.659 85.3601 107.659C87.0934 109.084 89.9734 110.712 94.1201 110.725Z" fill="#E3784C"/>
<path d="M85.0667 107.78C84.2667 108.436 83.5599 109.044 82.8799 109.432C82.2266 108.567 81.4134 107.477 81.2267 106.492C82.3467 106.056 83.3466 105.568 84.24 105.04C93.84 99.36 90.8534 86.292 90.8534 86.292C94.24 91.8827 91.4133 102.604 85.0667 107.78Z" fill="#E3784C"/>
<path d="M122.427 107.86L122.413 107.768C119.307 95.6067 122.72 79.988 120.467 80.68C115.6 82.172 116.213 76.8627 114.747 73.1934C112.387 75.2334 107.56 75.616 106.667 72.8067C106.52 72.7853 106.36 72.76 106.213 72.7347C105.24 75.116 102.813 76.552 100.333 75.8654C98.24 75.2894 95.3732 73.4587 96.1466 70.904C93.6932 73.1893 89.4132 74.428 86.4799 72.2347C84.2132 70.5507 85.32 68.444 86.9333 66.808C82.0933 65.7427 74.7999 65.348 73.6799 59.216C72.2132 51.168 84.0932 53.7387 88.2799 55.284C87.1066 54.66 85.9599 52.4053 85.4799 50.5947C85.3199 49.9827 85.24 49.42 85.2534 48.992C85.3734 46.1333 88.7599 44.744 91.1733 45.272C94.5599 46.0027 96.2399 48.6907 98.0799 51.1934C98.9999 44.4014 115.52 44.7413 119.56 53.084C121.987 52.2573 124.56 52.3414 126.667 54.2654C127.027 54.5987 127.36 54.9893 127.653 55.4093C134.893 56.3907 140.147 66.3134 139.947 72.2987C139.293 91.1494 123.173 105.705 122.427 107.86Z" fill="#580801"/>
<path d="M132.88 75.084C130.48 76.9667 129.173 80.8067 128.24 83.7093C127.107 87.2773 125.56 90.7813 124.867 94.5013C124.16 98.3067 123.747 102.129 122.893 105.921C122.76 106.528 122.587 107.145 122.413 107.768C119.307 95.6067 122.72 79.988 120.467 80.68C115.6 82.172 116.213 76.8627 114.747 73.1934C112.387 75.2334 107.56 75.616 106.667 72.8067C106.52 72.7853 106.36 72.76 106.213 72.7347C105.24 75.116 102.813 76.5521 100.333 75.8654C98.24 75.2894 95.3732 73.4587 96.1466 70.904C93.6932 73.1893 89.4132 74.428 86.4799 72.2347C84.2132 70.5507 85.32 68.444 86.9333 66.808C82.0933 65.7427 74.7999 65.3481 73.6799 59.216C72.2132 51.168 84.0932 53.7387 88.2799 55.284C87.1066 54.66 85.9599 52.4054 85.4799 50.5947C85.4799 50.5947 108.173 73.664 114.333 60.5813C117.067 62.2947 120.027 72.0734 121.373 72.7974C123.427 73.8894 127.293 68.7414 128.347 67.22C127.88 69.0027 125.84 72.2173 126.933 73.968C127.973 75.6147 131.347 75.308 132.88 75.084Z" fill="#440502"/>
<path d="M100.493 60.4854C100.48 60.3387 100.467 60.1933 100.44 60.0507C100.44 60.196 100.453 60.34 100.493 60.4854Z" fill="#44322E"/>
<path d="M123.133 97.844C124.88 94.9187 130.987 94.364 133.36 96.7733C135.987 99.4493 131.267 113.573 128.107 113.58C120.8 113.588 123.133 97.844 123.133 97.844Z" fill="#FEAC74"/>
<path d="M123.88 105.297C123.76 104.239 123.653 103.055 123.693 101.987C123.707 101.417 123.84 100.801 123.933 100.248C123.987 99.944 124.067 99.5667 124.173 99.3627C125.12 97.42 127.373 97.36 128.947 97.1973C129.613 97.128 130.747 97.024 131.32 97.3533C131.773 97.616 132 98.3213 132.267 98.7387C130.973 97.4427 128.147 98.14 126.773 99.0533C125.333 100.005 124.867 102.661 125.387 104.261C126.733 104.107 127.96 105.611 127.8 106.875C127.653 108.136 125.173 108.864 124.773 107.64C126.933 107.2 125.147 105.48 123.88 105.297Z" fill="#E3784C"/>
</svg>
