<svg width="209" height="209" viewBox="0 0 209 209" fill="none" xmlns="http://www.w3.org/2000/svg">
<path d="M192.568 160.453C187.003 169.263 180.332 176.936 172.86 183.435C172.388 183.84 171.917 184.244 171.444 184.639C171.088 184.937 170.723 185.236 170.357 185.533C170 185.823 169.644 186.112 169.288 186.391C167.429 187.873 165.533 189.279 163.599 190.608C163.289 190.82 162.972 191.031 162.655 191.233C161.364 192.109 160.055 192.948 158.727 193.756C157.821 194.305 156.916 194.844 155.992 195.364C155.453 195.672 154.895 195.98 154.345 196.279C153.941 196.5 153.528 196.721 153.093 196.933L152.959 197.001C150.976 198.04 148.953 199.024 146.893 199.927C146.663 200.033 146.421 200.139 146.181 200.247L145.912 200.361C145.565 200.516 145.219 200.659 144.872 200.804C144.063 201.14 143.255 201.469 142.436 201.785C142.089 201.912 141.752 202.045 141.405 202.171L141.232 202.239C140.963 202.355 140.673 202.451 140.395 202.556C140.212 202.624 140.028 202.692 139.836 202.757C139.712 202.805 139.585 202.855 139.451 202.903L139.124 203.019C138.527 203.231 137.931 203.432 137.324 203.635C136.485 203.904 135.648 204.173 134.811 204.424L134.781 204.433L134.473 204.529C134.223 204.607 133.973 204.675 133.723 204.751C133.039 204.944 132.365 205.137 131.672 205.319C131.027 205.492 130.383 205.656 129.737 205.82C129.603 205.849 129.468 205.887 129.333 205.917L129.024 205.993C128.417 206.139 127.801 206.283 127.195 206.427C126.405 206.6 125.607 206.773 124.817 206.927L124.759 206.936L124.461 206.995C120.831 207.697 117.183 208.208 113.504 208.516C112.868 208.584 112.252 208.621 111.617 208.66C110.992 208.717 110.365 208.748 109.74 208.765C108.739 208.833 107.747 208.853 106.745 208.872C106.533 208.881 106.321 208.892 106.12 208.881C105.84 208.901 105.561 208.901 105.281 208.892C105.06 208.901 104.839 208.911 104.608 208.911C104.165 208.911 103.713 208.901 103.269 208.892C100.796 208.861 98.3214 208.737 95.856 208.535C95.568 208.507 95.2694 208.487 94.98 208.448C91.7934 208.16 88.6254 207.717 85.448 207.12C85.208 207.072 84.9574 207.024 84.7067 206.975C84.4854 206.936 84.264 206.899 84.0427 206.86L83.8027 206.803C83.4267 206.725 83.0614 206.648 82.6667 206.561L82.348 206.493C81.9054 206.397 81.472 206.301 81.0292 206.195C77.2938 205.329 73.5776 204.241 69.9094 202.932C69.6396 202.836 69.3697 202.74 69.1099 202.643C68.7251 202.508 68.3495 202.363 67.974 202.219C66.8282 201.785 65.6823 201.333 64.5464 200.852L64.4891 200.823L64.2579 200.727C63.7662 200.533 63.2855 200.323 62.7943 200.101C62.6593 200.043 62.5344 199.985 62.4088 199.917C62.0912 199.773 61.7735 199.639 61.4656 199.484C61.1766 199.36 60.888 199.235 60.6088 199.1C60.3875 199.004 60.1662 198.897 59.9438 198.801C59.4823 198.571 59.0303 198.349 58.5765 198.128C58.2021 197.935 57.826 197.743 57.4506 197.549L57.2391 197.444C56.8052 197.232 56.3724 196.991 55.9484 196.769L55.8235 196.701L55.6407 196.596C55.188 196.365 54.7454 196.125 54.3027 195.884C54.0422 195.74 53.7823 195.595 53.523 195.441C52.9255 195.104 52.3194 194.757 51.7219 194.401C51.4719 194.248 51.2115 194.103 50.9615 193.939L50.9235 193.911L50.6724 193.765C50.3068 193.544 49.9407 193.323 49.585 193.101C49.4303 193.005 49.2766 192.909 49.1224 192.812C48.9688 192.716 48.8047 192.611 48.6511 192.515C48.3334 192.312 48.0156 192.1 47.7074 191.899L47.524 191.773L47.3803 191.677L47.226 191.571L47.1396 191.513L47.1011 191.493C46.8214 191.32 46.562 191.147 46.3016 190.945C45.9646 190.743 45.6474 190.521 45.3298 190.291L45.262 190.243L45.1464 190.165C45.0022 190.059 44.8672 189.964 44.7323 189.867C44.5974 189.771 44.4631 189.684 44.3369 189.597C44.1255 189.443 43.914 189.299 43.7115 189.153L43.6448 189.096C42.836 188.519 42.0464 187.931 41.276 187.324C40.7656 186.94 40.2651 186.555 39.764 186.16C39.1672 185.679 38.5604 185.188 37.9735 184.696L37.6938 184.465C36.8667 183.781 36.0479 183.069 35.2584 182.337C34.6229 181.779 33.9973 181.201 33.3807 180.615C32.4276 179.728 31.4943 178.833 30.5891 177.909C29.9344 177.253 29.2989 176.581 28.6636 175.907L28.6151 175.849C27.6527 174.828 26.7281 173.788 25.8328 172.729C25.6307 172.517 25.4479 172.296 25.2651 172.084C23.7052 170.225 22.1932 168.329 20.7683 166.375C19.9694 165.277 19.1896 164.169 18.4292 163.043C18.2943 162.851 18.1693 162.659 18.0344 162.467C17.8224 162.148 17.6104 161.82 17.3984 161.493L17.3511 161.407C16.1953 159.625 15.088 157.805 14.0579 155.957C13.9328 155.755 13.8073 155.524 13.7021 155.293C12.9697 154.013 12.2964 152.703 11.6412 151.384C11.2079 150.508 10.7844 149.651 10.3703 148.775C8.95522 145.703 7.68441 142.584 6.56721 139.408C6.05735 137.933 5.56615 136.461 5.12295 134.959C5.08495 134.844 5.04641 134.728 5.01775 134.603C4.93028 134.295 4.83495 133.996 4.73801 133.679C4.49735 132.841 4.26615 131.993 4.04481 131.156C-2.95412 104.284 0.75215 74.688 16.7631 49.3667C47.4375 0.813352 111.665 -13.6666 160.209 17.008C208.763 47.6827 223.243 111.911 192.568 160.453Z" fill="#F7F2DA"/>
<path d="M146.893 199.927C146.663 200.033 146.421 200.139 146.181 200.247L145.912 200.361C145.565 200.516 145.219 200.659 144.872 200.804C144.063 201.14 143.255 201.469 142.436 201.785C142.089 201.912 141.752 202.045 141.405 202.171L141.232 202.239C140.963 202.355 140.673 202.451 140.395 202.556C140.212 202.624 140.028 202.692 139.836 202.757C139.712 202.805 139.585 202.855 139.451 202.903L139.124 203.019C138.527 203.231 137.931 203.432 137.324 203.635C136.485 203.904 135.648 204.173 134.811 204.424L134.781 204.433L134.473 204.529C134.223 204.607 133.973 204.675 133.723 204.751C133.039 204.944 132.365 205.137 131.672 205.319C131.027 205.492 130.383 205.656 129.737 205.82C129.603 205.849 129.468 205.887 129.333 205.917L129.024 205.993C128.417 206.139 127.801 206.283 127.195 206.427C127.156 205.744 127.128 205.049 127.099 204.357C126.973 201.487 126.868 198.589 126.8 195.663C126.733 193.083 126.685 190.472 126.665 187.835L129.409 186.728L138.161 183.185L140.848 182.096L144.188 180.749C144.381 181.915 146.364 187.517 146.519 188.711C146.845 191.263 146.943 195.209 146.893 199.927Z" fill="#FBA479"/>
<path d="M155.992 195.364C155.453 195.672 154.895 195.98 154.345 196.279C153.941 196.5 153.528 196.721 153.093 196.933L152.959 197.001C150.976 198.04 148.953 199.024 146.893 199.927C146.663 200.033 146.421 200.139 146.181 200.247L145.912 200.361C145.565 200.516 145.219 200.659 144.872 200.804C144.063 201.14 143.255 201.469 142.436 201.785C142.089 201.912 141.752 202.045 141.405 202.171L141.232 202.239C140.963 202.355 140.673 202.451 140.395 202.556C140.212 202.624 140.028 202.692 139.836 202.757C139.712 202.805 139.585 202.855 139.451 202.903L139.124 203.019C138.527 203.231 137.931 203.432 137.324 203.635C136.485 203.904 135.648 204.173 134.811 204.424L134.781 204.433L134.473 204.529C134.223 204.607 133.973 204.675 133.723 204.751C133.039 204.944 132.365 205.137 131.672 205.319C131.027 205.492 130.383 205.656 129.737 205.82C129.603 205.849 129.468 205.887 129.333 205.917L129.024 205.993C128.417 206.139 127.801 206.283 127.195 206.427C126.405 206.6 125.607 206.773 124.817 206.927L124.759 206.936L124.461 206.995C124.316 206.436 124.163 205.849 124.008 205.233C123.46 202.961 122.891 200.38 122.352 197.617C120.571 188.461 119.117 177.312 119.291 168.888C119.377 165.161 119.763 161.975 120.591 159.732L129.948 153.359C131.027 153.088 132.211 153.435 133.463 154.263C134.252 154.792 135.071 155.515 135.908 156.411C136.303 156.824 136.688 157.267 137.083 157.739C137.959 158.788 138.855 160.001 139.74 161.329C140.337 162.215 140.935 163.159 141.531 164.14C144.555 169.109 147.577 175.232 150.235 181.221C152.477 186.276 154.471 191.244 155.992 195.364Z" fill="#00ABB2"/>
<path d="M144.872 200.804C144.063 201.14 143.255 201.469 142.436 201.785C142.089 201.912 141.752 202.045 141.405 202.171L141.232 202.239C140.963 202.355 140.673 202.451 140.395 202.556C140.212 202.624 140.028 202.692 139.836 202.757C139.712 202.805 139.585 202.855 139.451 202.903L139.124 203.019C138.527 203.231 137.931 203.432 137.324 203.635C136.485 203.904 135.648 204.173 134.811 204.424L134.781 204.433L134.473 204.529C134.223 204.607 133.973 204.675 133.723 204.751C133.039 204.944 132.365 205.137 131.672 205.319C131.027 205.492 130.383 205.656 129.737 205.82C129.603 205.849 129.468 205.887 129.333 205.917C129.293 205.079 129.265 204.251 129.245 203.423C129.159 200.485 129.14 197.549 129.179 194.603C129.217 191.975 129.293 189.357 129.409 186.728C129.505 184.311 129.64 181.895 129.795 179.477C130.333 170.968 132.067 162.62 133.463 154.263C134.252 154.792 135.071 155.515 135.908 156.411C136.303 156.824 136.688 157.267 137.083 157.739C137.131 158.143 137.179 158.557 137.237 158.98C137.459 160.743 137.719 162.581 137.988 164.429V164.439C138.999 171.237 140.212 178.139 140.751 181.52C140.78 181.712 140.808 181.905 140.848 182.096C141.888 188.461 143.225 194.671 144.872 200.804Z" fill="#008C8C"/>
<path d="M81.0292 206.195C77.2938 205.329 73.5776 204.241 69.9094 202.932C69.6396 202.836 69.3698 202.74 69.1099 202.643C68.7251 202.508 68.3495 202.363 67.974 202.219C66.8282 201.785 65.6823 201.333 64.5464 200.852L64.4891 200.823L64.2579 200.727C63.7662 200.533 63.2855 200.323 62.7943 200.101C62.6594 200.043 62.5344 199.985 62.4088 199.917C62.0912 199.773 61.7735 199.639 61.4656 199.484C61.1766 199.36 60.888 199.235 60.6088 199.1C60.4839 198.763 60.3584 198.425 60.2427 198.088C59.9636 197.319 59.6844 196.548 59.4146 195.788C58.847 194.219 58.3172 192.688 57.7974 191.185C57.5662 190.503 57.3454 189.837 57.123 189.173C56.8927 188.461 56.6615 187.768 56.4396 187.075C56.0355 185.813 55.6506 184.591 55.3131 183.397C55.2266 183.097 55.1402 182.809 55.0631 182.521C53.6282 177.495 52.7714 173.152 52.7714 169.725C52.7912 169.572 52.8099 169.427 52.8198 169.272C53.4932 162.427 50.3547 158.788 52.685 153.973C52.974 153.387 53.3303 152.789 53.7922 152.164C57.0464 147.725 77.6594 146.397 84.6787 145.791C85.448 145.733 86.056 145.675 86.46 145.627C86.6333 145.607 86.796 145.588 86.96 145.559C97.2907 144.279 101.209 144.923 110.616 145.588C111.029 145.617 111.453 145.645 111.887 145.675C112.551 145.723 113.253 145.761 113.976 145.809C125.269 146.483 129.419 147.147 135.707 156.111L135.908 156.411C136.505 157.287 136.929 158.065 137.237 158.98C137.68 160.291 137.883 161.879 137.988 164.429V164.439C138.123 168.069 138.045 173.663 138.161 183.185C138.171 184.129 138.18 185.111 138.2 186.14C138.248 188.74 138.123 191.888 137.92 195.325C137.833 196.76 137.728 198.233 137.621 199.745C137.527 201.027 137.429 202.325 137.324 203.635C136.485 203.904 135.648 204.173 134.811 204.424L134.781 204.433L134.473 204.529C134.223 204.607 133.973 204.675 133.723 204.751C133.039 204.944 132.365 205.137 131.672 205.319C131.027 205.492 130.383 205.656 129.737 205.82C129.603 205.849 129.468 205.887 129.333 205.917L129.024 205.993C128.417 206.139 127.801 206.283 127.195 206.427C126.405 206.6 125.607 206.773 124.817 206.927L124.759 206.936L124.461 206.995C120.831 207.697 117.183 208.208 113.504 208.516C112.868 208.584 112.252 208.621 111.617 208.66C110.992 208.717 110.365 208.748 109.74 208.765C108.739 208.833 107.747 208.853 106.745 208.872C106.533 208.881 106.321 208.892 106.12 208.881C105.84 208.901 105.561 208.901 105.281 208.892C105.06 208.901 104.839 208.911 104.608 208.911C104.165 208.911 103.713 208.901 103.269 208.892C100.796 208.861 98.3214 208.737 95.856 208.535C95.568 208.507 95.2694 208.487 94.98 208.448C91.7934 208.16 88.6254 207.717 85.448 207.12C85.208 207.072 84.9574 207.024 84.7067 206.975C84.4854 206.936 84.264 206.899 84.0427 206.86L83.8027 206.803C83.4267 206.725 83.0614 206.648 82.6667 206.561L82.348 206.493C81.9054 206.397 81.472 206.301 81.0292 206.195Z" fill="#00ABB2"/>
<path d="M58.8656 176.099C58.0474 177.109 57.3156 178.708 56.5938 180.045C56.2183 180.749 55.6984 181.587 55.0631 182.521C53.8016 184.379 52.0594 186.651 49.9792 189.184C49.2672 190.059 48.5068 190.964 47.7074 191.899L47.524 191.773L47.3803 191.677L47.226 191.571L47.1396 191.513L47.1011 191.493C46.8214 191.32 46.562 191.147 46.3016 190.945C45.9646 190.743 45.6474 190.521 45.3298 190.291L45.262 190.243L45.1464 190.165C45.0022 190.059 44.8672 189.964 44.7323 189.867C44.5974 189.771 44.4631 189.684 44.337 189.597C44.1255 189.443 43.914 189.299 43.7115 189.153L43.6448 189.096C42.836 188.519 42.0464 187.931 41.276 187.324C40.7656 186.94 40.2651 186.555 39.764 186.16C39.1672 185.679 38.5604 185.188 37.9735 184.696L37.6938 184.465C36.8667 183.781 36.0479 183.069 35.2584 182.337C34.623 181.779 33.9974 181.201 33.3807 180.615C32.4276 179.728 31.4943 178.833 30.5891 177.909C37.1844 170.804 42.8547 164.68 45.3391 160.829L52.8198 169.272L58.8656 176.099Z" fill="#FBA479"/>
<path d="M67.377 171.333C64.4213 176.349 60.464 181.905 56.4396 187.075C54.5812 189.463 52.7136 191.773 50.9234 193.911L50.6724 193.765C50.3068 193.544 49.9406 193.323 49.5849 193.101C49.4302 193.005 49.2765 192.909 49.1224 192.812C48.9688 192.716 48.8046 192.611 48.651 192.515C48.3333 192.312 48.0156 192.1 47.7073 191.899L47.524 191.773L47.3802 191.677L47.226 191.571L47.1396 191.513L47.101 191.493C46.8213 191.32 46.562 191.147 46.3016 190.945C45.9645 190.743 45.6473 190.521 45.3297 190.291L45.262 190.243L45.1464 190.165C45.0021 190.059 44.8672 189.964 44.7322 189.867C44.5973 189.771 44.463 189.684 44.3369 189.597C44.1254 189.443 43.914 189.299 43.7114 189.153L43.6448 189.096C42.836 188.519 42.0464 187.931 41.276 187.324C40.7656 186.94 40.265 186.555 39.764 186.16C39.1672 185.679 38.5604 185.188 37.9734 184.696L37.6937 184.465C36.8666 183.781 36.0478 183.069 35.2584 182.337C34.6229 181.779 33.9973 181.201 33.3806 180.615C32.4276 179.728 31.4942 178.833 30.589 177.909C29.9344 177.253 29.2989 176.581 28.6636 175.907L28.615 175.849C27.6526 174.828 26.7281 173.788 25.8328 172.729C33.3906 166.288 44.1062 158.345 52.6849 153.973C56.0068 152.289 59.0005 151.124 61.3693 150.797L71.4109 156.033C73.6448 158.499 71.4688 164.401 67.377 171.333Z" fill="#00ABB2"/>
<path d="M63.4584 197.791C63.7088 198.772 63.9688 199.753 64.2579 200.727C63.7661 200.533 63.2854 200.323 62.7942 200.101C62.6593 200.043 62.5344 199.985 62.4088 199.917C62.0912 199.773 61.7735 199.639 61.4656 199.484C61.1765 199.36 60.888 199.235 60.6088 199.1C60.4838 198.763 60.3584 198.425 60.2427 198.088C59.9636 197.319 59.6844 196.548 59.4145 195.788C58.8469 194.219 58.3172 192.688 57.7973 191.185C57.5661 190.503 57.3453 189.837 57.1229 189.173C56.8926 188.461 56.6614 187.768 56.4396 187.075C54.5812 189.463 52.7136 191.773 50.9235 193.911L50.6724 193.765C50.3068 193.544 49.9407 193.323 49.5849 193.101C49.4303 193.005 49.2765 192.909 49.1224 192.812C48.9688 192.716 48.8046 192.611 48.651 192.515C48.3333 192.312 48.0156 192.1 47.7073 191.899L47.524 191.773L47.3802 191.677C47.5338 191.532 47.6979 191.388 47.8516 191.244C48.5735 190.569 49.2864 189.885 49.9792 189.184C51.8281 187.324 53.5901 185.369 55.3131 183.397C56.286 182.28 57.2484 181.173 58.2114 180.065C61.2636 176.561 63.8338 173.307 65.1344 168.713C65.6344 166.933 66.4917 163.987 66.5683 161.503C66.9921 164.016 67.4828 166.489 67.4828 169.128C67.4828 169.879 67.4448 170.611 67.377 171.333C67.1844 173.557 66.6838 175.676 65.9136 177.804C64.8932 180.672 63.1598 183.445 62.3604 186.285C62.226 186.785 62.1297 187.287 62.0812 187.805C65.5188 186.988 70.5057 183.309 73.0864 181.404C69.514 186.044 65.326 191.908 63.4584 197.791Z" fill="#008C8C"/>
<path d="M137.92 195.325C137.833 196.76 137.728 198.233 137.621 199.745C137.527 201.027 137.429 202.325 137.324 203.635C136.485 203.904 135.648 204.173 134.811 204.424L134.781 204.433L134.473 204.529C134.223 204.607 133.973 204.675 133.723 204.751C133.039 204.944 132.365 205.137 131.672 205.319C131.027 205.492 130.383 205.656 129.737 205.82C129.737 204.433 129.795 203.432 129.929 202.903C129.765 203.076 129.535 203.249 129.245 203.423C128.716 203.741 127.984 204.048 127.099 204.357C126.213 204.655 125.164 204.953 124.008 205.233C114.688 207.505 98.2053 208.872 98.224 207.437C103.144 205.744 113.495 201.459 122.352 197.617C123.892 196.943 125.385 196.288 126.8 195.663C127.628 195.297 128.417 194.94 129.179 194.603C134.001 192.427 137.429 190.781 137.621 190.435C137.516 191.927 137.632 193.584 137.92 195.325Z" fill="#008C8C"/>
<path d="M116.117 161.499C114.464 165.661 110.54 165.903 106.865 165.212C101.227 164.152 95.8201 159.561 92.3201 155.92C88.4667 151.911 85.88 148.023 84.6787 145.793C85.4467 145.732 86.0547 145.675 86.4547 145.623C97.6321 144.199 101.38 144.968 111.885 145.675C112.12 146.259 112.364 146.915 112.648 147.631C114.315 151.809 117.803 157.244 116.117 161.499Z" fill="white"/>
<path d="M106.82 163.224C100.867 161.857 91.9146 153.856 87.0253 145.791C86.4973 144.917 88.448 133.521 90.436 122.683C92.1667 113.203 93.9253 104.153 94.072 102.928L94.0826 102.813L95.6547 103.965L109.168 113.887C109.168 113.887 109.243 116.723 109.367 120.709C109.651 129.781 110.197 144.829 110.729 146.064L110.781 146.176C111.777 148.469 112.904 150.751 113.688 152.943C116.565 160.995 112.519 164.529 106.82 163.224Z" fill="#FBA479"/>
<path d="M110.309 142.557C106.985 141.76 90.5706 130.16 92.472 111.709C94.2026 102.229 93.9253 104.153 94.072 102.928L94.0826 102.813L95.6546 103.965L102.028 113.887L109.367 120.709C109.651 129.781 110.291 142.521 110.309 142.557Z" fill="#EF7950"/>
<path d="M94.5801 99.0387C94.5094 99.572 94.4321 100.096 94.3374 100.625C94.4761 99.7853 94.5067 98.8267 94.4227 97.8293C94.4734 98.248 94.5214 98.6493 94.5801 99.0387Z" fill="#914E34"/>
<path d="M128.061 65.7387L119.144 69.2227C124.953 74.004 130.047 82.236 131.249 89.796C131.995 81.8173 132.264 72.868 128.061 65.7387Z" fill="#5B2E1D"/>
<path d="M120.689 66.3067C120.516 66.5707 115.984 66.5613 114.731 66.688C111.692 66.9933 108.665 67.5827 105.609 68.2067C99.6693 69.4227 93.144 70.7413 89.7813 76.2506C86.9173 80.9413 87.7773 86.504 88.1933 91.6467C88.6493 97.2733 89.536 103.043 90.42 108.571C91.948 118.139 95.0213 123.017 100.871 130.54C110.921 143.46 125.079 139.901 127.284 132.568C129.2 126.199 132.499 117.373 132.729 110.544C134.127 69.3773 120.689 66.3067 120.689 66.3067Z" fill="#FBA479"/>
<path d="M106.047 85.0933C105.856 85.0733 103.455 85.592 103.455 85.592L102.673 87.62L102.228 85.9707C102.228 85.9707 94.1226 89.28 92.1799 91.7694C92.1799 91.7694 92.4146 93.2067 92.8133 92.9427C94.4399 91.8654 103.775 89.2747 106.261 89.0827C106.069 87.708 106.025 86.484 106.047 85.0933Z" fill="#6A3221"/>
<path d="M117.225 78.232C117.38 78.22 119.323 78.8427 119.323 78.8427L119.911 80.9L120.313 79.272C120.313 79.272 126.833 82.9307 128.356 85.5027C128.356 85.5027 128.132 86.9294 127.812 86.648C126.513 85.5 118.976 82.5054 116.956 82.2054C117.144 80.8414 117.209 79.6214 117.225 78.232Z" fill="#6A3221"/>
<path d="M111.037 102.256C108.552 100.424 107.241 97.088 103.829 96.848C99.5439 96.5547 99.2346 101.043 98.4239 104.021C98.7546 102.688 97.8919 100.815 97.9973 99.472C98.1226 97.8213 98.3839 96.3147 100.632 95.1414C105.024 92.848 110.339 101.007 111.037 102.256Z" fill="#EF7950"/>
<path d="M110.781 102.364L108.556 102.056C105.208 102.399 102.219 102.847 99.1146 103.843C99.932 101.568 100.835 98.5934 104.445 98.5227C107.568 98.4654 108.723 101.061 110.781 102.364Z" fill="#F48656"/>
<path d="M111.115 102.412L111.019 102.396L111.081 102.333L111.115 102.412Z" fill="#F48656"/>
<path d="M110.781 102.364L111.019 102.396L110.952 102.471C110.381 103.079 109.741 103.723 109.048 104.327C108.096 105.156 107.033 105.901 105.9 106.343L105.64 106.44L105.405 106.516L105.389 106.521C103.089 107.212 100.055 105.279 98.8906 104.444C98.6333 104.259 98.4706 104.129 98.42 104.091L98.408 104.079L98.424 104.021L98.4119 104.077C98.6466 103.996 98.8799 103.917 99.1146 103.843C99.9319 101.568 100.835 98.5933 104.445 98.5226C107.568 98.4653 108.723 101.061 110.781 102.364Z" fill="#F48656"/>
<path d="M111.105 102.307L111.081 102.333L111.037 102.256L111.105 102.307Z" fill="#F48656"/>
<path d="M110.964 102.479C110.664 102.851 110.353 103.261 110.023 103.688C109.723 103.943 109.413 104.197 109.095 104.447C108.115 105.204 107.033 105.901 105.9 106.343L105.64 106.44L105.407 106.517L105.391 106.524C102.952 107.297 99.9919 105.252 99.1266 104.616L98.8906 104.444C98.9666 104.251 99.0386 104.049 99.1146 103.843C99.9319 101.568 100.835 98.5934 104.445 98.5227C107.568 98.4654 108.723 101.061 110.781 102.364L110.952 102.471L110.964 102.479Z" fill="#FAFAFC"/>
<path d="M106.307 102.585C106.54 103.38 106.753 105.205 106.781 105.913C105.756 107.027 104.328 107.139 103.069 106.924C102.261 106.115 101.607 105.199 101.163 103.691C100.34 100.892 100.823 98.3786 102.244 98.0693C103.667 97.768 105.483 99.784 106.307 102.585Z" fill="#2B3B3F"/>
<path d="M104.632 101.685C105.081 103.305 104.776 104.743 103.948 104.896C103.121 105.048 102.088 103.861 101.639 102.243C101.189 100.621 101.496 99.184 102.321 99.0293C103.148 98.876 104.183 100.065 104.632 101.685Z" fill="#3F565B"/>
<path d="M104.899 98.4907L103.056 100.695C103.056 100.695 105.747 101.484 106.016 100.685C106.187 100.185 104.899 98.4907 104.899 98.4907Z" fill="#FAFAFC"/>
<path d="M111.105 102.307L110.964 102.479C110.664 102.851 110.353 103.261 110.023 103.688C108.751 105.328 107.248 107.184 105.523 107.757C102.715 108.683 98.668 104.361 98.42 104.091C98.4707 104.129 98.6334 104.259 98.8907 104.444L99.1267 104.616C100.436 105.515 103.236 107.169 105.389 106.521L105.405 106.516L105.64 106.44L105.9 106.343C107.033 105.901 108.096 105.156 109.048 104.327C109.741 103.723 110.381 103.079 110.952 102.471L111.105 102.307Z" fill="#EF7348"/>
<path d="M111.081 102.333L111.019 102.396L110.781 102.364C108.723 101.061 107.568 98.4653 104.445 98.5227C100.835 98.5933 99.932 101.568 99.1147 103.843C98.88 103.917 98.6467 103.996 98.412 104.077L98.424 104.021C99.2347 101.043 99.544 96.5547 103.829 96.848C107.241 97.088 108.552 100.424 111.037 102.256L111.081 102.333Z" fill="#EF7348"/>
<path d="M120.913 100.825C122.196 98.168 122.079 94.5867 124.605 93.032C127.779 91.0907 129.521 95.1027 131.141 97.5267C130.44 96.428 130.471 94.368 129.941 93.1733C129.289 91.7013 128.585 90.4173 126.473 90.2147C122.349 89.8173 121.028 99.404 120.913 100.825Z" fill="#EF7950"/>
<path d="M121.145 100.825L122.741 99.672C125.416 98.6813 127.848 97.9253 130.553 97.632C129.167 95.8573 127.477 93.4707 124.695 94.8147C122.289 95.9813 122.28 98.8213 121.145 100.825Z" fill="#F48656"/>
<path d="M120.907 101L120.975 100.948L120.907 100.915V101Z" fill="#F48656"/>
<path d="M121.145 100.825L120.975 100.948L121.051 100.989C121.691 101.325 122.396 101.667 123.129 101.955C124.135 102.347 125.196 102.619 126.211 102.583L126.441 102.571L126.645 102.547H126.659C128.649 102.285 130.317 99.3213 130.927 98.0973C131.061 97.828 131.143 97.644 131.167 97.5893L131.173 97.5747L131.141 97.5267L131.169 97.5747C130.963 97.5893 130.757 97.6093 130.553 97.632C129.167 95.8573 127.477 93.4707 124.695 94.8147C122.289 95.9813 122.28 98.8213 121.145 100.825Z" fill="#F48656"/>
<path d="M120.88 100.899L120.907 100.915L120.913 100.825L120.88 100.899Z" fill="#F48656"/>
<path d="M121.044 101.003C121.399 101.227 121.775 101.484 122.169 101.748C122.483 101.865 122.807 101.979 123.133 102.084C124.136 102.397 125.196 102.619 126.211 102.583L126.441 102.571L126.645 102.551H126.659C128.781 102.309 130.357 99.272 130.804 98.3493L130.927 98.0973C130.804 97.9493 130.68 97.792 130.553 97.632C129.167 95.8573 127.477 93.4707 124.695 94.8147C122.289 95.9813 122.28 98.8213 121.145 100.825L121.051 100.989L121.044 101.003Z" fill="#FAFAFC"/>
<path d="M123.697 99.692C123.856 100.503 124.491 102.223 124.783 102.861C126.137 103.381 127.383 102.823 128.341 102.057C128.657 100.967 128.797 99.8534 128.497 98.3094C127.939 95.4494 126.415 93.4387 125.087 93.8173C123.761 94.2013 123.139 96.8254 123.697 99.692Z" fill="#2B3B3F"/>
<path d="M124.453 98.4254C124.8 100.069 125.696 101.204 126.457 100.963C127.219 100.719 127.555 99.188 127.208 97.544C126.861 95.9 125.967 94.764 125.205 95.008C124.444 95.2494 124.108 96.7814 124.453 98.4254Z" fill="#3F565B"/>
<path d="M123.051 95.4094L125.577 96.5213C125.577 96.5213 123.676 98.4574 123.095 97.8694C122.728 97.504 123.051 95.4094 123.051 95.4094Z" fill="#FAFAFC"/>
<path d="M120.88 100.899L121.044 101.003C121.399 101.227 121.775 101.484 122.169 101.748C123.692 102.761 125.463 103.883 126.973 103.736C129.428 103.492 131.069 97.936 131.167 97.5893C131.143 97.644 131.061 97.828 130.927 98.0973L130.804 98.3493C130.107 99.6867 128.523 102.303 126.659 102.547H126.645L126.441 102.571L126.211 102.583C125.196 102.619 124.135 102.347 123.129 101.955C122.396 101.667 121.691 101.325 121.051 100.989L120.88 100.899Z" fill="#EF7348"/>
<path d="M120.907 100.915L120.975 100.948L121.145 100.825C122.28 98.8213 122.289 95.9813 124.695 94.8147C127.477 93.4707 129.167 95.8573 130.553 97.632C130.757 97.6093 130.963 97.5893 131.169 97.5747L131.141 97.5266C129.521 95.1026 127.779 91.0906 124.605 93.032C122.079 94.5866 122.196 98.168 120.913 100.825L120.907 100.915Z" fill="#EF7348"/>
<path d="M128.623 89.6853C127.352 87.4826 122.676 86.5706 120.553 90.2506C118.629 93.588 119.28 98.5253 120.361 102.528C120.427 102.821 120.533 103.207 120.701 103.716C122.095 107.952 121.215 116.321 114.211 115.78C116.631 116.873 124.111 116.879 124.592 115.692C125.711 112.935 123.307 106.749 121.661 103.661C117.16 87.444 127.823 88.2786 128.623 89.6853Z" fill="#EF7950"/>
<path d="M125.424 123.364C123.549 126.037 122.211 129.208 118.983 130.292C115.9 131.325 113.012 130.357 110.452 128.463C107.787 126.488 103.263 116.165 103.477 114.463C103.477 114.463 104.463 115.464 106.124 116.804C109.644 119.648 116.209 124.044 122.868 123.729C123.721 123.692 124.58 123.575 125.424 123.364Z" fill="#60281F"/>
<path d="M122.867 123.728C122.093 125.201 120.911 126.727 119.928 127.071C119.195 127.329 118.311 127.347 117.343 127.18C112.887 126.408 106.709 121.713 106.005 118.685C105.897 118.212 105.991 117.436 106.124 116.803C106.573 117.165 107.072 117.552 107.611 117.955C111.319 120.692 117.061 124.005 122.867 123.728Z" fill="#FAFAFC"/>
<path d="M117.343 127.18C112.887 126.408 106.709 121.713 106.005 118.685C105.897 118.212 105.991 117.436 106.124 116.803C106.573 117.165 107.072 117.552 107.611 117.955C107.68 118.959 107.901 119.917 108.531 120.791C109.656 122.339 111.263 123.271 112.693 124.46C114.067 125.601 115.656 126.527 117.343 127.18Z" fill="#E8E6E6"/>
<path d="M123.873 124.82C123.449 125.484 123.036 126.149 122.584 126.756C121.601 128.123 120.465 129.268 118.828 129.817C117.519 130.26 116.171 130.328 114.823 130.029C113.485 129.731 112.128 129.077 110.751 128.065C110.385 127.796 110 127.372 109.585 126.823L109.576 126.813H109.567V126.805C108.863 125.869 108.103 124.589 107.371 123.212C107.16 122.8 106.948 122.385 106.736 121.961C105.753 119.959 104.897 117.899 104.405 116.425C104.348 116.261 104.3 116.108 104.252 115.953L104.223 115.839C104.493 116.079 104.801 116.348 105.157 116.647C105.359 116.82 105.581 117.003 105.811 117.195L106.024 117.368C106.515 117.753 107.063 118.177 107.689 118.62C108.199 118.985 108.748 119.371 109.335 119.756C109.923 120.132 110.539 120.508 111.184 120.883C111.337 120.971 111.492 121.056 111.656 121.143C114.419 122.664 117.683 123.955 121.043 124.204C121.524 124.244 122.005 124.252 122.477 124.244H122.584L122.891 124.224C123.383 124.204 123.864 124.165 124.345 124.088C124.181 124.329 124.028 124.58 123.873 124.82ZM125.308 122.885C124.519 123.079 123.691 123.195 122.843 123.232C122.719 123.243 122.584 123.243 122.448 123.243C122.005 123.251 121.563 123.243 121.111 123.212C118.184 123.001 115.305 121.923 112.792 120.623L112.619 120.536C111.907 120.16 111.232 119.765 110.587 119.371C110.144 119.092 109.711 118.812 109.297 118.533C108.728 118.148 108.189 117.763 107.708 117.397C107.236 117.051 106.813 116.724 106.437 116.416C104.82 115.116 103.837 114.124 103.828 114.115L103.116 113.383L102.981 114.404C102.961 114.5 102.961 114.625 102.981 114.769C103.009 115.107 103.107 115.559 103.251 116.088C103.625 117.408 104.329 119.217 105.185 121.076L105.32 121.355C105.687 122.135 106.072 122.915 106.476 123.675C107.381 125.369 108.344 126.919 109.22 127.949C109.355 128.113 109.499 128.257 109.624 128.393L109.653 128.412C109.827 128.595 110 128.74 110.164 128.864C111.859 130.127 113.572 130.887 115.267 131.127C115.459 131.156 115.651 131.175 115.844 131.195C116.951 131.271 118.057 131.127 119.137 130.771C120.629 130.26 121.745 129.347 122.669 128.257C123.44 127.361 124.085 126.352 124.711 125.36C125.077 124.783 125.443 124.204 125.828 123.656L126.599 122.559L125.308 122.885Z" fill="#EF7950"/>
<path d="M122.013 133.532C117.531 130.477 110.697 135.396 110.697 135.396C111.056 134.959 118.527 134.237 120.645 135.196C120.96 135.339 121.165 135.644 121.468 135.732C121.599 135.055 122.556 133.903 122.013 133.532Z" fill="#EF7950"/>
<path d="M124.605 71.084C124.605 71.084 98.94 68.0173 91.2147 81.108C87.0814 88.1307 88.54 98.924 90.7694 106.108L90.8014 106.224C90.9334 106.625 91.0574 107.012 91.188 107.379C91.704 108.887 92.2494 110.2 92.76 111.212C91.4787 111.188 90.192 110.984 88.908 110.633C81.4827 108.597 74.2656 101.568 69.8178 95.8573C66.9798 92.204 65.8506 89.4587 66.6698 84.8253C67.4948 80.0747 66.8287 56.2987 120.528 45.748L120.591 45.736C123.345 47.12 125.472 48.5533 127.083 50.0053C137.861 59.7107 125.965 70.2346 124.605 71.084Z" fill="#6F3D26"/>
<path d="M124.605 71.084C124.605 71.084 98.94 68.0173 91.2147 81.108C87.0814 88.1307 88.54 98.924 90.7694 106.108L90.8014 106.224C90.9334 106.625 91.0574 107.012 91.188 107.379C91.704 108.887 92.2494 110.2 92.76 111.212C91.4787 111.188 90.192 110.984 88.908 110.633L87.304 109.631C86.6027 106.059 85.8147 103.123 83.4334 100.336C81.3547 97.8947 78.586 94.2613 78.5271 90.8667C80.1344 90.1453 82.1054 92.3893 82.9627 90.588C83.4134 89.6453 82.116 86.128 82.1027 84.9467C82.08 82.4667 82.3467 79.748 83.0814 77.38C83.6947 75.4093 84.3107 72.0373 86.0254 70.696C87.944 69.2 87.6454 71.512 89.8174 71.18C91.5387 70.916 94.1054 69.0213 95.864 68.304C101.319 66.072 107.644 65.6813 113.284 63.956C117.892 62.5467 123.092 59.3933 123.885 54.248C124.44 50.6547 122.759 47.9653 120.528 45.748L120.591 45.736C123.345 47.12 125.472 48.5533 127.083 50.0053C137.861 59.7107 125.965 70.2346 124.605 71.084Z" fill="#5B2E1D"/>
<path d="M93.1519 113.78L90.5279 107.697C89.6293 104.965 84.5053 103.044 82.7493 105.795C80.7999 108.844 82.5506 112.751 84.2373 115.445C85.2826 117.113 88.0239 120.852 90.4679 120.432C92.6893 120.051 93.8453 115.539 93.1519 113.78Z" fill="#FBA479"/>
<path d="M91.3066 114.248C90.368 116.427 85.5333 112.567 89.9426 111.183C89.6999 109.156 88.4039 107.304 86.4426 106.657C84.5093 106.024 82.1413 107.932 83.6746 109.909C84.028 106.028 88.268 107.139 88.984 110.267C86.5346 110.604 84.9733 112.901 86.5653 114.915C88.1026 116.86 90.58 116.365 91.504 114.175L91.3066 114.248Z" fill="#EF7348"/>
</svg>
